<svg viewBox="0 0 202.70001 184.6">
    <line x1="1.35" y1="39.9" x2="201.35" y2="39.9" stroke="orange" stroke-width="2.7"/>
    <line x1="1.35" y1="64.9" x2="201.35" y2="64.9" stroke="orange" stroke-width="2.7"/>
    <line x1="1.35" y1="89.9" x2="201.35" y2="89.9" stroke="orange" stroke-width="2.7"/>
    <line x1="1.35" y1="114.9" x2="201.35" y2="114.9" stroke="orange" stroke-width="2.7"/>
    <line x1="1.35" y1="139.9" x2="201.35" y2="139.9" stroke="orange" stroke-width="2.7"/>
    <path d="M 26.150002 58.5 Q 23.85 51.200005 22.95 45.5 Q 22.150002 40.699997 22.150002 34.299995 Q 22.150002 32.1 22.25 29.900002 Q 22.650002 20.400002 26.150002 12.449997 Q 29.650002 4.5 36.649998 0.29999542 Q 37.149998 0 37.95 0 Q 38.649998 0 39.149998 0.5 Q 44.75 6.0999985 47.75 14.799995 Q 50.75 23.5 50.75 32.4 Q 50.75 42.699997 46.35 52.6 Q 42.149998 62.5 34.55 70.1 Q 33.95 70.700005 34.149998 71.700005 L 38.149998 87.7 Q 38.45 89.3 40.149998 89.100006 Q 41.75 88.9 43.25 88.9 Q 49.05 88.9 53.75 91.2 Q 58.45 93.5 61.35 97.2 Q 64.25 100.9 65.8 105.35 Q 67.35 109.8 67.35 114.5 Q 67.35 123.100006 62.55 130.05 Q 57.75 137 51.05 139.20001 Q 49.649998 139.70001 49.95 141.3 Q 52.45 153.1 52.55 161.20001 Q 52.55 164.3 52.149998 167.3 Q 51.35 174.20001 46.149998 179.4 Q 40.95 184.6 33.75 184.6 Q 24.95 184.6 18.85 179.3 Q 12.750001 174 12.750001 165.4 Q 12.750001 161 15.85 157.8 Q 18.95 154.6 23.150002 154.6 Q 27.45 154.6 30.400002 157.65 Q 33.35 160.70001 33.35 164.9 Q 33.35 168.5 30.95 171.20001 Q 28.550001 174 25.150002 174.3 Q 23.95 174.4 23.550001 175.5 Q 23.150002 176.6 24.35 177.5 Q 27.95 180.3 33.15 180.3 Q 38.85 180.3 43 176.20001 Q 47.149998 172.1 47.85 166.9 Q 48.35 163.3 48.35 159.70001 Q 48.35 151.9 45.95 142.4 Q 45.55 140.70001 43.75 140.9 Q 39.75 141.4 36.35 141.4 Q 21.550001 141.4 11.450001 132.1 Q 1.35 122.8 1.35 106.8 Q 1.35 101.9 2.5 97.15 Q 3.65 92.4 5.1 88.95 Q 6.55 85.5 9.6 80.950005 Q 12.650001 76.4 14.500001 74 Q 16.35 71.6 20.35 66.85 Q 24.35 62.1 25.85 60.200005 Q 26.45 59.5 26.150002 58.5 Z M 41.75 104.200005 L 48.25 133.70001 Q 48.55 135 50.05 135 Q 50.45 135 50.75 134.9 Q 54.85 133.20001 57.55 128.3 Q 60.25 123.4 60.25 118.600006 Q 60.25 111.600006 56.149998 106.8 Q 51.95 101.9 43.55 101.9 Q 42.85 101.9 42.3 102.450005 Q 41.75 103 41.75 103.700005 Q 41.649998 104 41.75 104.200005 Z M 27.95 76.4 Q 26.35 78.200005 23.2 81.55 Q 20.050001 84.9 18.5 86.65 Q 16.95 88.4 14.700001 91.600006 Q 12.450001 94.8 11.35 97.5 Q 10.250001 100.200005 9.400001 104.1 Q 8.55 108 8.55 112.4 Q 8.55 118.5 12.3 124.2 Q 16.05 129.9 22.6 133.5 Q 29.150002 137.1 36.649998 137.1 Q 39.35 137.1 42.649998 136.8 Q 43.45 136.70001 43.95 136.05 Q 44.45 135.4 44.25 134.6 L 37.75 104.700005 Q 37.45 103.3 35.85 103.3 Q 35.55 103.3 35.149998 103.4 Q 30.550001 105.1 28.650002 108.2 Q 26.75 111.3 26.75 116 Q 26.75 121.5 32.75 125.5 Q 33.45 126 33.45 127 Q 33.45 127.8 32.8 128.5 Q 32.15 129.2 31.25 129.2 Q 30.75 129.2 30.35 129 Q 24.650002 126 21.900002 120.850006 Q 19.150002 115.700005 19.150002 110 Q 19.150002 104.5 23.1 98.65 Q 27.050001 92.8 32.95 90.600006 Q 34.45 90 34.149998 88.5 L 31.150002 77.200005 Q 30.95 76.1 29.75 75.9 Q 28.550001 75.700005 27.95 76.4 Z M 44.75 18.199997 Q 43.95 15.599998 42.05 15.599998 Q 41.45 15.599998 40.95 15.900002 Q 34.55 19.699997 30.800001 26.599998 Q 27.050001 33.5 27.050001 41.199997 Q 27.050001 46.199997 29.150002 53.5 Q 29.45 54.6 30.650002 54.800003 Q 31.650002 54.9 32.35 54.1 Q 32.65 53.700005 35.2 50.549995 Q 37.75 47.4 38.55 46.35 Q 39.35 45.299995 41.25 42.35 Q 43.149998 39.4 43.899998 37.449997 Q 44.649998 35.5 45.35 32.6 Q 46.05 29.699997 46.05 26.799995 Q 46.05 22.599998 44.75 18.199997 Z " fill="black"/>
    <rect x="122.6" y="77.4" width="33.75" height="25" stroke="blue" stroke-width="1" fill="none"/>
    <path d="M 147.5 79.8 Q 144.6 79.8 135.25 86.35 Q 125.9 92.9 125.9 95.9 Q 125.9 98 127.7 99 Q 129.5 100 132 100 Q 134.90001 100 144.25 93.450005 Q 153.6 86.9 153.6 83.9 Q 153.6 81.8 151.8 80.8 Q 150 79.8 147.5 79.8 Z M 122.6 93.700005 Q 122.6 86.5 128.8 81.35 Q 135 76.200005 143.8 76.200005 Q 146.8 76.200005 149.40001 76.8 Q 152 77.4 154.40001 79.8 Q 156.8 82.200005 156.8 86.1 Q 156.8 93.3 150.6 98.450005 Q 144.40001 103.6 135.6 103.6 Q 132.6 103.6 130 103 Q 127.4 102.4 125 100 Q 122.6 97.6 122.6 93.700005 Z " fill="black"/>
    <rect x="81.35" y="77.4" width="41.25" height="25" stroke="blue" stroke-width="1" fill="none"/>
    <path d="M 81.35 88.4 Q 81.35 84 86.15 80.1 Q 90.95 76.200005 99.95 76.200005 Q 106.049995 76.200005 111.049995 77.65 Q 116.049995 79.1 119.549995 82.65 Q 123.049995 86.200005 123.049995 91.4 Q 123.049995 96.6 118.5 100.1 Q 113.950005 103.6 105.85 103.6 Q 101.049995 103.6 97.049995 102.9 Q 93.049995 102.200005 89.35 100.6 Q 85.65 99 83.5 95.9 Q 81.35 92.8 81.35 88.4 Z M 99.95 78.9 Q 91.15 78.9 91.15 82 Q 91.15 85.5 96.5 93.200005 Q 101.85 100.9 105.45 100.9 Q 114.049995 100.9 114.049995 97.8 Q 114.049995 94 108.5 86.450005 Q 102.95 78.9 99.95 78.9 Z " fill="black"/>
    <rect x="0" y="0" width="202.70001" height="184.6" stroke="black" stroke-width="1" fill="none"/>
</svg>
