<svg xmlns="http://www.w3.org/2000/svg" xmlns:xlink="http://www.w3.org/1999/xlink" viewBox="0 0 392.7 188.95">
    <line x1="1.35" y1="44.25" x2="391.35" y2="44.25" stroke="orange" stroke-width="2.7"/>
    <line x1="1.35" y1="69.25" x2="391.35" y2="69.25" stroke="orange" stroke-width="2.7"/>
    <line x1="1.35" y1="94.25" x2="391.35" y2="94.25" stroke="orange" stroke-width="2.7"/>
    <line x1="1.35" y1="119.25" x2="391.35" y2="119.25" stroke="orange" stroke-width="2.7"/>
    <line x1="1.35" y1="144.25" x2="391.35" y2="144.25" stroke="orange" stroke-width="2.7"/>
    <path d="M 26.150002 62.85 Q 23.85 55.550003 22.95 49.85 Q 22.150002 45.049995 22.150002 38.649994 Q 22.150002 36.449997 22.25 34.25 Q 22.650002 24.75 26.150002 16.799995 Q 29.650002 8.849998 36.649998 4.649994 Q 37.149998 4.3499985 37.95 4.3499985 Q 38.649998 4.3499985 39.149998 4.8499985 Q 44.75 10.449997 47.75 19.149994 Q 50.75 27.849998 50.75 36.75 Q 50.75 47.049995 46.35 56.949997 Q 42.149998 66.85 34.55 74.45 Q 33.95 75.05 34.149998 76.05 L 38.149998 92.05 Q 38.45 93.65 40.149998 93.45 Q 41.75 93.25 43.25 93.25 Q 49.05 93.25 53.75 95.55 Q 58.45 97.85 61.35 101.55 Q 64.25 105.25 65.8 109.7 Q 67.35 114.15 67.35 118.85 Q 67.35 127.45 62.55 134.4 Q 57.75 141.35 51.05 143.55 Q 49.649998 144.05 49.95 145.65 Q 52.45 157.45001 52.55 165.55 Q 52.55 168.65 52.149998 171.65 Q 51.35 178.55 46.149998 183.75 Q 40.95 188.95 33.75 188.95 Q 24.95 188.95 18.85 183.65 Q 12.750001 178.35 12.750001 169.75 Q 12.750001 165.35 15.85 162.15 Q 18.95 158.95001 23.150002 158.95001 Q 27.45 158.95001 30.400002 162 Q 33.35 165.05 33.35 169.25 Q 33.35 172.85 30.95 175.55 Q 28.550001 178.35 25.150002 178.65 Q 23.95 178.75 23.550001 179.85 Q 23.150002 180.95001 24.35 181.85 Q 27.95 184.65 33.15 184.65 Q 38.85 184.65 43 180.55 Q 47.149998 176.45001 47.85 171.25 Q 48.35 167.65 48.35 164.05 Q 48.35 156.25 45.95 146.75 Q 45.55 145.05 43.75 145.25 Q 39.75 145.75 36.35 145.75 Q 21.550001 145.75 11.450001 136.45 Q 1.35 127.15 1.35 111.15 Q 1.35 106.25 2.5 101.5 Q 3.65 96.75 5.1 93.3 Q 6.55 89.85 9.6 85.3 Q 12.650001 80.75 14.500001 78.35 Q 16.35 75.95 20.35 71.2 Q 24.35 66.45 25.85 64.55 Q 26.45 63.85 26.150002 62.85 Z M 41.75 108.55 L 48.25 138.05 Q 48.55 139.35 50.05 139.35 Q 50.45 139.35 50.75 139.25 Q 54.85 137.55 57.55 132.65 Q 60.25 127.75 60.25 122.95 Q 60.25 115.95 56.149998 111.15 Q 51.95 106.25 43.55 106.25 Q 42.85 106.25 42.3 106.8 Q 41.75 107.35 41.75 108.05 Q 41.649998 108.35 41.75 108.55 Z M 27.95 80.75 Q 26.35 82.55 23.2 85.9 Q 20.050001 89.25 18.5 91 Q 16.95 92.75 14.700001 95.95 Q 12.450001 99.15 11.35 101.85 Q 10.250001 104.55 9.400001 108.45 Q 8.55 112.35 8.55 116.75 Q 8.55 122.85 12.3 128.55 Q 16.05 134.25 22.6 137.85 Q 29.150002 141.45 36.649998 141.45 Q 39.35 141.45 42.649998 141.15 Q 43.45 141.05 43.95 140.4 Q 44.45 139.75 44.25 138.95 L 37.75 109.05 Q 37.45 107.65 35.85 107.65 Q 35.55 107.65 35.149998 107.75 Q 30.550001 109.45 28.650002 112.55 Q 26.75 115.65 26.75 120.35 Q 26.75 125.85 32.75 129.85 Q 33.45 130.35 33.45 131.35 Q 33.45 132.15 32.8 132.85 Q 32.15 133.55 31.25 133.55 Q 30.75 133.55 30.35 133.35 Q 24.650002 130.35 21.900002 125.2 Q 19.150002 120.05 19.150002 114.35 Q 19.150002 108.85 23.1 103 Q 27.050001 97.15 32.95 94.95 Q 34.45 94.35 34.149998 92.85 L 31.150002 81.55 Q 30.95 80.45 29.75 80.25 Q 28.550001 80.05 27.95 80.75 Z M 44.75 22.549995 Q 43.95 19.949997 42.05 19.949997 Q 41.45 19.949997 40.95 20.25 Q 34.55 24.049995 30.800001 30.949997 Q 27.050001 37.85 27.050001 45.549995 Q 27.050001 50.549995 29.150002 57.85 Q 29.45 58.949997 30.650002 59.15 Q 31.650002 59.25 32.35 58.449997 Q 32.65 58.050003 35.2 54.899994 Q 37.75 51.75 38.55 50.699997 Q 39.35 49.649994 41.25 46.699997 Q 43.149998 43.75 43.899998 41.799995 Q 44.649998 39.85 45.35 36.949997 Q 46.05 34.049995 46.05 31.149994 Q 46.05 26.949997 44.75 22.549995 Z " fill="black"/>
    <rect x="161.35" y="0.5" width="2.5" height="125" stroke="blue" stroke-width="1" fill="none"/>
    <rect x="161.35" y="0.5" width="2.5" height="125" fill="black"/>
    <rect x="131.35" y="119.25" width="32.5" height="25" stroke="blue" stroke-width="1" fill="none"/>
    <path d="M 131.35 135.15 Q 131.35 129.15 137.95001 123.6 Q 144.55 118.05 151.45001 118.05 Q 154.25 118.05 156.8 118.75 Q 159.35 119.45 161.65001 121.95 Q 163.95001 124.45 163.95001 128.35 Q 163.95001 133.85 157.25 139.65 Q 150.55 145.45 143.85 145.45 Q 141.05 145.45 138.5 144.75 Q 135.95001 144.05 133.65001 141.55 Q 131.35 139.05 131.35 135.15 Z " fill="black"/>
    <rect x="131.35" y="81.75" width="32.5" height="25" stroke="blue" stroke-width="1" fill="none"/>
    <path d="M 131.35 97.65 Q 131.35 91.65 137.95001 86.1 Q 144.55 80.55 151.45001 80.55 Q 154.25 80.55 156.8 81.25 Q 159.35 81.95 161.65001 84.45 Q 163.95001 86.95 163.95001 90.85 Q 163.95001 96.35 157.25 102.15 Q 150.55 107.95 143.85 107.95 Q 141.05 107.95 138.5 107.25 Q 135.95001 106.55 133.65001 104.05 Q 131.35 101.55 131.35 97.65 Z " fill="black"/>
    <rect x="106.35" y="56.75" width="25" height="75" stroke="blue" stroke-width="1" fill="none"/>
    <path d="M 113.25 76.25 L 124.049995 74.05 L 124.35 74.05 Q 126.15 74.05 126.15 75.75 L 126.85 131.75 Q 125.45 132.45 124.35 132.45 Q 123.25 132.45 121.85 131.75 L 122.15 114.05 Q 122.15 113.35 121.65 112.8 Q 121.15 112.25 120.35 112.25 Q 120.15 112.25 120.049995 112.25 L 109.25 114.55 L 108.95 114.55 Q 107.15 114.55 107.15 112.85 L 106.35 56.75 Q 107.75 56.05 108.95 56.05 Q 110.049995 56.05 111.45 56.75 L 111.15 74.35 Q 111.15 75.15 111.65 75.7 Q 112.15 76.25 112.95 76.25 Q 113.049995 76.25 113.25 76.25 Z M 112.85 104.25 L 120.75 102.45 Q 122.25 102.15 122.25 100.65 L 122.549995 86.15 Q 122.549995 85.35 121.95 84.75 Q 121.35 84.15 120.549995 84.35 L 112.549995 86.05 Q 111.049995 86.35 111.049995 87.75 L 110.75 102.55 Q 110.75 103.35 111.4 103.9 Q 112.049995 104.45 112.85 104.25 Z " fill="black"/>
    <rect x="76.35" y="94.25" width="30.000002" height="75" stroke="blue" stroke-width="1" fill="none"/>
    <path d="M 97.95 122.15 L 97.95 134.35 Q 97.95 135.15 98.45 135.65 Q 98.95 136.15 99.75 136.15 Q 100.049995 136.15 100.35 136.05 L 101.15 135.75 Q 101.45 135.65 101.85 135.65 Q 102.65 135.65 103.25 136.25 Q 103.85 136.85 103.85 137.65 L 103.85 143.65 Q 103.85 144.95 102.549995 145.45 L 99.15 146.75 Q 97.95 147.25 97.95 148.35 L 97.95 162.95 Q 97.95 163.75 97.4 164.3 Q 96.85 164.85 96.15 164.85 Q 95.35 164.85 94.799995 164.3 Q 94.25 163.75 94.25 162.95 L 94.25 151.05 Q 94.25 150.25 93.7 149.75 Q 93.15 149.25 92.45 149.25 Q 92.049995 149.25 91.75 149.35 L 87.15 151.15 Q 85.95 151.55 85.95 152.75 L 85.95 167.35 Q 85.95 168.15 85.35 168.7 Q 84.75 169.25 84.049995 169.25 Q 83.35 169.25 82.799995 168.7 Q 82.25 168.15 82.25 167.35 L 82.25 155.45 Q 82.25 154.65 81.7 154.15 Q 81.15 153.65 80.45 153.65 Q 80.15 153.65 79.85 153.75 L 79.049995 154.05 Q 78.85 154.15 78.35 154.15 Q 77.549995 154.15 76.95 153.55 Q 76.35 152.95 76.35 152.15 L 76.35 146.15 Q 76.35 144.75 77.65 144.25 L 81.049995 143.05 Q 82.25 142.75 82.25 141.35 L 82.25 129.15 Q 82.25 128.35 81.7 127.85 Q 81.15 127.35 80.45 127.35 Q 80.15 127.35 79.95 127.45 L 79.049995 127.75 Q 78.85 127.85 78.35 127.85 Q 77.549995 127.85 76.95 127.25 Q 76.35 126.65 76.35 125.85 L 76.35 119.85 Q 76.35 118.55 77.65 118.05 L 81.15 116.75 Q 82.25 116.25 82.25 115.15 L 82.25 100.55 Q 82.25 99.75 82.799995 99.2 Q 83.35 98.649994 84.049995 98.649994 Q 84.75 98.649994 85.35 99.2 Q 85.95 99.75 85.95 100.55 L 85.95 112.45 Q 85.95 113.25 86.5 113.75 Q 87.049995 114.25 87.85 114.25 Q 88.15 114.25 88.45 114.15 L 93.049995 112.35 Q 94.25 111.85 94.25 110.65 L 94.25 96.149994 Q 94.25 95.35 94.799995 94.8 Q 95.35 94.25 96.15 94.25 Q 96.85 94.25 97.4 94.8 Q 97.95 95.35 97.95 96.149994 L 97.95 108.15 Q 97.95 108.85 98.45 109.35 Q 98.95 109.85 99.65 109.85 Q 99.95 109.85 100.35 109.75 L 101.15 109.45 Q 101.35 109.35 101.85 109.35 Q 102.65 109.35 103.25 109.95 Q 103.85 110.55 103.85 111.35 L 103.85 117.35 Q 103.85 118.75 102.549995 119.25 L 99.15 120.45 Q 97.95 120.75 97.95 122.15 Z M 94.25 136.95 L 94.25 124.85 Q 94.25 124.15 93.7 123.6 Q 93.15 123.05 92.45 123.05 Q 92.15 123.05 91.85 123.15 L 87.15 124.85 Q 85.95 125.35 85.95 126.55 L 85.95 138.65 Q 85.95 139.45 86.45 139.95 Q 86.95 140.45 87.75 140.45 Q 88.049995 140.45 88.35 140.35 L 93.049995 138.65 Q 94.25 138.15 94.25 136.95 Z " fill="black"/>
    <rect x="211.35" y="53.550003" width="31.84" height="81.399994" stroke="blue" stroke-width="1" fill="none"/>
    <path d="M 220.71 111.07 Q 219.27 111.07 217.79001 109.95 Q 216.31 108.83 215.31 107.23 Q 214.31 105.630005 214.31 104.19 Q 214.31 101.630005 215.67001 100.19 Q 217.03 98.75 219.99 97.55 L 228.15001 94.19 Q 229.75 93.55 230.03 93.07 Q 230.31 92.590004 230.39 90.990005 L 230.55 85.87 Q 230.63 83.79 229.39 82.270004 Q 228.15001 80.75 225.83 80.75 Q 224.63 80.75 223.43001 81.15 Q 222.23001 81.55 221.43001 82.19 Q 220.95001 82.51 220.79001 83.15 Q 220.63 83.79 220.63 84.51 Q 220.63 84.83 220.67001 85.23 Q 220.71 85.630005 220.71 85.95 Q 220.71 86.35 219.71 87.03 Q 218.71 87.71 217.47 88.23 Q 216.23001 88.75 215.43001 88.75 Q 215.03 88.75 214.79001 88.55 Q 214.55 88.35 214.55 88.03 Q 214.55 86.75 215.39001 85.270004 Q 216.23001 83.79 217.75 82.51 Q 219.59 80.83 221.75 79.55 Q 223.91 78.270004 225.99 77.55 Q 228.07 76.83 229.67001 76.83 Q 232.55 76.83 234.43001 78.87 Q 236.31 80.91 236.23001 83.95 L 235.83 103.15 Q 235.75 104.83 236.59001 105.87 Q 237.43001 106.91 238.71 106.91 Q 240.71 106.91 241.67001 106.03 Q 242.07 105.630005 242.31 105.630005 Q 242.71 105.630005 242.95001 105.87 Q 243.19 106.11 243.19 106.51 Q 243.19 107.39 242.31 108.270004 Q 241.03 109.55 239.55 110.31 Q 238.07 111.07 236.79001 111.07 Q 233.11 111.07 230.95001 106.91 L 230.71 106.91 Q 228.07 109.07 225.67001 110.07 Q 223.27 111.07 220.71 111.07 Z M 224.47 107.23 Q 226.07 107.23 227.19 106.71 Q 228.31 106.19 229.19 105.31 Q 229.59001 104.91 229.87001 104.23 Q 230.15001 103.55 230.23001 102.03 L 230.39 98.11 Q 230.47 97.23 230.31 96.83 Q 230.15001 96.43 229.67001 96.43 Q 229.51001 96.43 229.11002 96.51 Q 228.71 96.590004 228.07 96.83 Q 223.83 98.35 222.19 99.99 Q 220.55 101.630005 220.55 102.99 Q 220.55 105.07 221.79001 106.15 Q 223.03 107.23 224.47 107.23 Z " fill="black"/>
    <rect x="243.19" y="53.550003" width="38.399998" height="81.399994" stroke="blue" stroke-width="1" fill="none"/>
    <path d="M 263.91 111.07 Q 262.15 111.07 260.39 110.75 Q 258.63 110.43 257.03 110.03 Q 255.27 109.55 253.95001 109.15 Q 252.63 108.75 252.23001 108.75 Q 251.75 108.75 251.31001 109.07 Q 250.87001 109.39 250.47 109.79 Q 250.07 110.19 249.75 110.19 Q 249.43001 110.19 249.03 109.91 Q 248.63 109.630005 248.63 109.23 Q 248.63 108.51 248.91 106.75 Q 249.19 104.99 249.19 103.47 L 249.19 64.67 Q 249.19 62.59 248.15001 61.070004 Q 247.11 59.550003 245.51001 58.83 Q 245.19 58.670002 244.83 58.390003 Q 244.47 58.11 244.47 57.63 Q 244.47 57.230003 244.79001 57.070004 Q 245.11 56.910004 245.43001 56.83 Q 246.47 56.59 248.27 55.95 Q 250.07 55.31 251.67001 54.670002 Q 253.27 54.030003 253.83 53.79 Q 254.31001 53.550003 254.55 53.550003 Q 254.71 53.550003 254.87001 53.710003 Q 255.03 53.870003 255.03 54.11 Q 255.03 54.43 254.91 56.79 Q 254.79001 59.15 254.79001 62.510002 L 254.79001 78.91 Q 254.79001 80.43 254.95001 80.95 Q 255.11 81.47 255.51001 81.55 Q 257.99002 79.47 261.27002 78.15 Q 264.55002 76.83 267.19 76.83 Q 271.27002 76.83 274.51 78.91 Q 277.75 80.990005 279.67 84.55 Q 281.59 88.11 281.59 92.590004 Q 281.59 98.03 279.35 102.23 Q 277.11002 106.43 273.15 108.75 Q 269.19 111.07 263.91 111.07 Z M 265.75 108.590004 Q 268.79 108.590004 270.99002 106.71 Q 273.19 104.83 274.39 101.590004 Q 275.59 98.35 275.59 94.35 Q 275.59 91.23 274.43 87.95 Q 273.27002 84.67 270.83002 82.43 Q 268.39 80.19 264.55002 80.19 Q 261.35 80.19 258.95 81.23 Q 256.55 82.270004 254.79001 83.87 L 254.79001 99.39 Q 254.79001 102.19 256.35 104.270004 Q 257.91 106.35 260.43 107.47 Q 262.95 108.590004 265.75 108.590004 Z " fill="black"/>
    <rect x="281.59" y="53.550003" width="29.76" height="81.399994" stroke="blue" stroke-width="1" fill="none"/>
    <path d="M 298.63 111.15 Q 294.63 111.15 291.39 109.11 Q 288.15 107.07 286.27 103.51 Q 284.39 99.95 284.39 95.55 Q 284.39 90.35 286.67 86.11 Q 288.95 81.87 292.79 79.350006 Q 296.63 76.83 301.27 76.83 Q 306.47 76.83 310.39 79.630005 Q 311.35 80.350006 311.35 81.15 Q 311.35 81.79 310.79 82.590004 Q 310.23 83.39 309.43 83.91 Q 308.63 84.43 307.91 84.43 Q 307.51 84.43 307.11002 84.15 Q 306.71 83.87 306.23 83.55 Q 304.47 82.19 302.31 80.990005 Q 300.15 79.79 298.71 79.79 Q 294.79 79.79 292.35 83.43 Q 289.91 87.07 289.91 92.990005 Q 289.91 96.75 291.55002 99.79 Q 293.19 102.83 295.95 104.590004 Q 298.71 106.35 302.07 106.35 Q 304.39 106.35 306.07 105.59 Q 307.75 104.83 309.67 102.91 Q 309.83 102.75 310.07 102.630005 Q 310.31 102.51 310.47 102.51 Q 311.35 102.51 311.35 103.630005 Q 311.35 104.11 311.07 104.71 Q 310.79 105.31 310.15 106.11 Q 308.87 107.71 307.11002 108.87 Q 305.35 110.03 303.23 110.59 Q 301.11002 111.15 298.63 111.15 Z " fill="black"/>
    <rect x="0" y="0" width="392.7" height="188.95" stroke="black" stroke-width="1" fill="none"/>
</svg>
