<svg xmlns="http://www.w3.org/2000/svg" xmlns:xlink="http://www.w3.org/1999/xlink" viewBox="0 0 392.7 184.6">
    <line x1="1.35" y1="39.9" x2="391.35" y2="39.9" stroke="orange" stroke-width="2.7"/>
    <line x1="1.35" y1="64.9" x2="391.35" y2="64.9" stroke="orange" stroke-width="2.7"/>
    <line x1="1.35" y1="89.9" x2="391.35" y2="89.9" stroke="orange" stroke-width="2.7"/>
    <line x1="1.35" y1="114.9" x2="391.35" y2="114.9" stroke="orange" stroke-width="2.7"/>
    <line x1="1.35" y1="139.9" x2="391.35" y2="139.9" stroke="orange" stroke-width="2.7"/>
    <path d="M 26.150002 58.5 Q 23.85 51.200005 22.95 45.5 Q 22.150002 40.699997 22.150002 34.299995 Q 22.150002 32.1 22.25 29.900002 Q 22.650002 20.400002 26.150002 12.449997 Q 29.650002 4.5 36.649998 0.29999542 Q 37.149998 0 37.95 0 Q 38.649998 0 39.149998 0.5 Q 44.75 6.0999985 47.75 14.799995 Q 50.75 23.5 50.75 32.4 Q 50.75 42.699997 46.35 52.6 Q 42.149998 62.5 34.55 70.1 Q 33.95 70.700005 34.149998 71.700005 L 38.149998 87.7 Q 38.45 89.3 40.149998 89.100006 Q 41.75 88.9 43.25 88.9 Q 49.05 88.9 53.75 91.2 Q 58.45 93.5 61.35 97.2 Q 64.25 100.9 65.8 105.35 Q 67.35 109.8 67.35 114.5 Q 67.35 123.100006 62.55 130.05 Q 57.75 137 51.05 139.20001 Q 49.649998 139.70001 49.95 141.3 Q 52.45 153.1 52.55 161.20001 Q 52.55 164.3 52.149998 167.3 Q 51.35 174.20001 46.149998 179.4 Q 40.95 184.6 33.75 184.6 Q 24.95 184.6 18.85 179.3 Q 12.750001 174 12.750001 165.4 Q 12.750001 161 15.85 157.8 Q 18.95 154.6 23.150002 154.6 Q 27.45 154.6 30.400002 157.65 Q 33.35 160.70001 33.35 164.9 Q 33.35 168.5 30.95 171.20001 Q 28.550001 174 25.150002 174.3 Q 23.95 174.4 23.550001 175.5 Q 23.150002 176.6 24.35 177.5 Q 27.95 180.3 33.15 180.3 Q 38.85 180.3 43 176.20001 Q 47.149998 172.1 47.85 166.9 Q 48.35 163.3 48.35 159.70001 Q 48.35 151.9 45.95 142.4 Q 45.55 140.70001 43.75 140.9 Q 39.75 141.4 36.35 141.4 Q 21.550001 141.4 11.450001 132.1 Q 1.35 122.8 1.35 106.8 Q 1.35 101.9 2.5 97.15 Q 3.65 92.4 5.1 88.95 Q 6.55 85.5 9.6 80.950005 Q 12.650001 76.4 14.500001 74 Q 16.35 71.6 20.35 66.85 Q 24.35 62.1 25.85 60.200005 Q 26.45 59.5 26.150002 58.5 Z M 41.75 104.200005 L 48.25 133.70001 Q 48.55 135 50.05 135 Q 50.45 135 50.75 134.9 Q 54.85 133.20001 57.55 128.3 Q 60.25 123.4 60.25 118.600006 Q 60.25 111.600006 56.149998 106.8 Q 51.95 101.9 43.55 101.9 Q 42.85 101.9 42.3 102.450005 Q 41.75 103 41.75 103.700005 Q 41.649998 104 41.75 104.200005 Z M 27.95 76.4 Q 26.35 78.200005 23.2 81.55 Q 20.050001 84.9 18.5 86.65 Q 16.95 88.4 14.700001 91.600006 Q 12.450001 94.8 11.35 97.5 Q 10.250001 100.200005 9.400001 104.1 Q 8.55 108 8.55 112.4 Q 8.55 118.5 12.3 124.2 Q 16.05 129.9 22.6 133.5 Q 29.150002 137.1 36.649998 137.1 Q 39.35 137.1 42.649998 136.8 Q 43.45 136.70001 43.95 136.05 Q 44.45 135.4 44.25 134.6 L 37.75 104.700005 Q 37.45 103.3 35.85 103.3 Q 35.55 103.3 35.149998 103.4 Q 30.550001 105.1 28.650002 108.2 Q 26.75 111.3 26.75 116 Q 26.75 121.5 32.75 125.5 Q 33.45 126 33.45 127 Q 33.45 127.8 32.8 128.5 Q 32.15 129.2 31.25 129.2 Q 30.75 129.2 30.35 129 Q 24.650002 126 21.900002 120.850006 Q 19.150002 115.700005 19.150002 110 Q 19.150002 104.5 23.1 98.65 Q 27.050001 92.8 32.95 90.600006 Q 34.45 90 34.149998 88.5 L 31.150002 77.200005 Q 30.95 76.1 29.75 75.9 Q 28.550001 75.700005 27.95 76.4 Z M 44.75 18.199997 Q 43.95 15.599998 42.05 15.599998 Q 41.45 15.599998 40.95 15.900002 Q 34.55 19.699997 30.800001 26.599998 Q 27.050001 33.5 27.050001 41.199997 Q 27.050001 46.199997 29.150002 53.5 Q 29.45 54.6 30.650002 54.800003 Q 31.650002 54.9 32.35 54.1 Q 32.65 53.700005 35.2 50.549995 Q 37.75 47.4 38.55 46.35 Q 39.35 45.299995 41.25 42.35 Q 43.149998 39.4 43.899998 37.449997 Q 44.649998 35.5 45.35 32.6 Q 46.05 29.699997 46.05 26.799995 Q 46.05 22.599998 44.75 18.199997 Z " fill="black"/>
    <rect x="131.35" y="89.9" width="2.5" height="87.5" stroke="blue" stroke-width="1" fill="none"/>
    <rect x="131.35" y="89.9" width="2.5" height="87.5" fill="black"/>
    <rect x="131.35" y="77.4" width="32.5" height="25" stroke="blue" stroke-width="1" fill="none"/>
    <path d="M 131.35 93.3 Q 131.35 87.3 137.95001 81.75 Q 144.55 76.200005 151.45001 76.200005 Q 154.25 76.200005 156.8 76.9 Q 159.35 77.6 161.65001 80.1 Q 163.95001 82.6 163.95001 86.5 Q 163.95001 92 157.25 97.8 Q 150.55 103.6 143.85 103.6 Q 141.05 103.6 138.5 102.9 Q 135.95001 102.200005 133.65001 99.700005 Q 131.35 97.200005 131.35 93.3 Z " fill="black"/>
    <rect x="211.35" y="49.200005" width="31.84" height="81.399994" stroke="blue" stroke-width="1" fill="none"/>
    <path d="M 220.71 106.72 Q 219.27 106.72 217.79001 105.600006 Q 216.31 104.48 215.31 102.880005 Q 214.31 101.28 214.31 99.840004 Q 214.31 97.28 215.67001 95.840004 Q 217.03 94.4 219.99 93.200005 L 228.15001 89.840004 Q 229.75 89.200005 230.03 88.72 Q 230.31 88.240005 230.39 86.64 L 230.55 81.520004 Q 230.63 79.44 229.39 77.92 Q 228.15001 76.4 225.83 76.4 Q 224.63 76.4 223.43001 76.8 Q 222.23001 77.200005 221.43001 77.840004 Q 220.95001 78.16 220.79001 78.8 Q 220.63 79.44 220.63 80.16 Q 220.63 80.48 220.67001 80.880005 Q 220.71 81.28 220.71 81.600006 Q 220.71 82 219.71 82.68 Q 218.71 83.36 217.47 83.880005 Q 216.23001 84.4 215.43001 84.4 Q 215.03 84.4 214.79001 84.200005 Q 214.55 84 214.55 83.68 Q 214.55 82.4 215.39001 80.92 Q 216.23001 79.44 217.75 78.16 Q 219.59 76.48 221.75 75.200005 Q 223.91 73.920006 225.99 73.200005 Q 228.07 72.48 229.67001 72.48 Q 232.55 72.48 234.43001 74.520004 Q 236.31 76.560005 236.23001 79.600006 L 235.83 98.8 Q 235.75 100.48 236.59001 101.520004 Q 237.43001 102.560005 238.71 102.560005 Q 240.71 102.560005 241.67001 101.68 Q 242.07 101.28 242.31 101.28 Q 242.71 101.28 242.95001 101.520004 Q 243.19 101.76 243.19 102.16 Q 243.19 103.04 242.31 103.92 Q 241.03 105.200005 239.55 105.96001 Q 238.07 106.72 236.79001 106.72 Q 233.11 106.72 230.95001 102.560005 L 230.71 102.560005 Q 228.07 104.72 225.67001 105.72 Q 223.27 106.72 220.71 106.72 Z M 224.47 102.880005 Q 226.07 102.880005 227.19 102.36 Q 228.31 101.840004 229.19 100.96001 Q 229.59001 100.560005 229.87001 99.880005 Q 230.15001 99.200005 230.23001 97.68 L 230.39 93.76 Q 230.47 92.880005 230.31 92.48 Q 230.15001 92.08 229.67001 92.08 Q 229.51001 92.08 229.11002 92.16 Q 228.71 92.240005 228.07 92.48 Q 223.83 94 222.19 95.64 Q 220.55 97.28 220.55 98.64 Q 220.55 100.72 221.79001 101.8 Q 223.03 102.880005 224.47 102.880005 Z " fill="black"/>
    <rect x="243.19" y="49.200005" width="38.399998" height="81.399994" stroke="blue" stroke-width="1" fill="none"/>
    <path d="M 263.91 106.72 Q 262.15 106.72 260.39 106.4 Q 258.63 106.08 257.03 105.68 Q 255.27 105.200005 253.95001 104.8 Q 252.63 104.4 252.23001 104.4 Q 251.75 104.4 251.31001 104.72 Q 250.87001 105.04 250.47 105.44 Q 250.07 105.840004 249.75 105.840004 Q 249.43001 105.840004 249.03 105.560005 Q 248.63 105.28 248.63 104.880005 Q 248.63 104.16 248.91 102.4 Q 249.19 100.64 249.19 99.12 L 249.19 60.320004 Q 249.19 58.24 248.15001 56.720005 Q 247.11 55.200005 245.51001 54.480003 Q 245.19 54.320004 244.83 54.040005 Q 244.47 53.760002 244.47 53.280003 Q 244.47 52.880005 244.79001 52.720005 Q 245.11 52.560005 245.43001 52.480003 Q 246.47 52.24 248.27 51.600002 Q 250.07 50.960003 251.67001 50.320004 Q 253.27 49.680004 253.83 49.440002 Q 254.31001 49.200005 254.55 49.200005 Q 254.71 49.200005 254.87001 49.360004 Q 255.03 49.520004 255.03 49.760002 Q 255.03 50.08 254.91 52.440002 Q 254.79001 54.800003 254.79001 58.160004 L 254.79001 74.560005 Q 254.79001 76.08 254.95001 76.600006 Q 255.11 77.12 255.51001 77.200005 Q 257.99002 75.12 261.27002 73.8 Q 264.55002 72.48 267.19 72.48 Q 271.27002 72.48 274.51 74.560005 Q 277.75 76.64 279.67 80.200005 Q 281.59 83.76 281.59 88.240005 Q 281.59 93.68 279.35 97.880005 Q 277.11002 102.08 273.15 104.4 Q 269.19 106.72 263.91 106.72 Z M 265.75 104.240005 Q 268.79 104.240005 270.99002 102.36 Q 273.19 100.48 274.39 97.240005 Q 275.59 94 275.59 90 Q 275.59 86.880005 274.43 83.600006 Q 273.27002 80.32001 270.83002 78.08 Q 268.39 75.840004 264.55002 75.840004 Q 261.35 75.840004 258.95 76.880005 Q 256.55 77.92 254.79001 79.520004 L 254.79001 95.04 Q 254.79001 97.840004 256.35 99.92 Q 257.91 102 260.43 103.12 Q 262.95 104.240005 265.75 104.240005 Z " fill="black"/>
    <rect x="281.59" y="49.200005" width="29.76" height="81.399994" stroke="blue" stroke-width="1" fill="none"/>
    <path d="M 298.63 106.8 Q 294.63 106.8 291.39 104.76 Q 288.15 102.72 286.27 99.16 Q 284.39 95.600006 284.39 91.200005 Q 284.39 86 286.67 81.76 Q 288.95 77.520004 292.79 75 Q 296.63 72.48 301.27 72.48 Q 306.47 72.48 310.39 75.28 Q 311.35 76 311.35 76.8 Q 311.35 77.44 310.79 78.240005 Q 310.23 79.04 309.43 79.560005 Q 308.63 80.08 307.91 80.08 Q 307.51 80.08 307.11002 79.8 Q 306.71 79.520004 306.23 79.200005 Q 304.47 77.840004 302.31 76.64 Q 300.15 75.44 298.71 75.44 Q 294.79 75.44 292.35 79.08 Q 289.91 82.72 289.91 88.64 Q 289.91 92.4 291.55002 95.44 Q 293.19 98.48 295.95 100.240005 Q 298.71 102 302.07 102 Q 304.39 102 306.07 101.240005 Q 307.75 100.48 309.67 98.560005 Q 309.83 98.4 310.07 98.28 Q 310.31 98.16 310.47 98.16 Q 311.35 98.16 311.35 99.28 Q 311.35 99.76 311.07 100.36 Q 310.79 100.96001 310.15 101.76 Q 308.87 103.36 307.11002 104.520004 Q 305.35 105.68 303.23 106.240005 Q 301.11002 106.8 298.63 106.8 Z " fill="black"/>
    <rect x="0" y="0" width="392.7" height="184.6" stroke="black" stroke-width="1" fill="none"/>
</svg>
