<svg viewBox="0 0 225.6 184.6">
    <line x1="1.35" y1="39.9" x2="201.35" y2="39.9" stroke="orange" stroke-width="2.7"/>
    <line x1="1.35" y1="64.9" x2="201.35" y2="64.9" stroke="orange" stroke-width="2.7"/>
    <line x1="1.35" y1="89.9" x2="201.35" y2="89.9" stroke="orange" stroke-width="2.7"/>
    <line x1="1.35" y1="114.9" x2="201.35" y2="114.9" stroke="orange" stroke-width="2.7"/>
    <line x1="1.35" y1="139.9" x2="201.35" y2="139.9" stroke="orange" stroke-width="2.7"/>
    <path d="M 26.150002 58.5 Q 23.85 51.200005 22.95 45.5 Q 22.150002 40.699997 22.150002 34.299995 Q 22.150002 32.1 22.25 29.900002 Q 22.650002 20.400002 26.150002 12.449997 Q 29.650002 4.5 36.649998 0.29999542 Q 37.149998 0 37.95 0 Q 38.649998 0 39.149998 0.5 Q 44.75 6.0999985 47.75 14.799995 Q 50.75 23.5 50.75 32.4 Q 50.75 42.699997 46.35 52.6 Q 42.149998 62.5 34.55 70.1 Q 33.95 70.700005 34.149998 71.700005 L 38.149998 87.7 Q 38.45 89.3 40.149998 89.100006 Q 41.75 88.9 43.25 88.9 Q 49.05 88.9 53.75 91.2 Q 58.45 93.5 61.35 97.2 Q 64.25 100.9 65.8 105.35 Q 67.35 109.8 67.35 114.5 Q 67.35 123.100006 62.55 130.05 Q 57.75 137 51.05 139.20001 Q 49.649998 139.70001 49.95 141.3 Q 52.45 153.1 52.55 161.20001 Q 52.55 164.3 52.149998 167.3 Q 51.35 174.20001 46.149998 179.4 Q 40.95 184.6 33.75 184.6 Q 24.95 184.6 18.85 179.3 Q 12.750001 174 12.750001 165.4 Q 12.750001 161 15.85 157.8 Q 18.95 154.6 23.150002 154.6 Q 27.45 154.6 30.400002 157.65 Q 33.35 160.70001 33.35 164.9 Q 33.35 168.5 30.95 171.20001 Q 28.550001 174 25.150002 174.3 Q 23.95 174.4 23.550001 175.5 Q 23.150002 176.6 24.35 177.5 Q 27.95 180.3 33.15 180.3 Q 38.85 180.3 43 176.20001 Q 47.149998 172.1 47.85 166.9 Q 48.35 163.3 48.35 159.70001 Q 48.35 151.9 45.95 142.4 Q 45.55 140.70001 43.75 140.9 Q 39.75 141.4 36.35 141.4 Q 21.550001 141.4 11.450001 132.1 Q 1.35 122.8 1.35 106.8 Q 1.35 101.9 2.5 97.15 Q 3.65 92.4 5.1 88.95 Q 6.55 85.5 9.6 80.950005 Q 12.650001 76.4 14.500001 74 Q 16.35 71.6 20.35 66.85 Q 24.35 62.1 25.85 60.200005 Q 26.45 59.5 26.150002 58.5 Z M 41.75 104.200005 L 48.25 133.70001 Q 48.55 135 50.05 135 Q 50.45 135 50.75 134.9 Q 54.85 133.20001 57.55 128.3 Q 60.25 123.4 60.25 118.600006 Q 60.25 111.600006 56.149998 106.8 Q 51.95 101.9 43.55 101.9 Q 42.85 101.9 42.3 102.450005 Q 41.75 103 41.75 103.700005 Q 41.649998 104 41.75 104.200005 Z M 27.95 76.4 Q 26.35 78.200005 23.2 81.55 Q 20.050001 84.9 18.5 86.65 Q 16.95 88.4 14.700001 91.600006 Q 12.450001 94.8 11.35 97.5 Q 10.250001 100.200005 9.400001 104.1 Q 8.55 108 8.55 112.4 Q 8.55 118.5 12.3 124.2 Q 16.05 129.9 22.6 133.5 Q 29.150002 137.1 36.649998 137.1 Q 39.35 137.1 42.649998 136.8 Q 43.45 136.70001 43.95 136.05 Q 44.45 135.4 44.25 134.6 L 37.75 104.700005 Q 37.45 103.3 35.85 103.3 Q 35.55 103.3 35.149998 103.4 Q 30.550001 105.1 28.650002 108.2 Q 26.75 111.3 26.75 116 Q 26.75 121.5 32.75 125.5 Q 33.45 126 33.45 127 Q 33.45 127.8 32.8 128.5 Q 32.15 129.2 31.25 129.2 Q 30.75 129.2 30.35 129 Q 24.650002 126 21.900002 120.850006 Q 19.150002 115.700005 19.150002 110 Q 19.150002 104.5 23.1 98.65 Q 27.050001 92.8 32.95 90.600006 Q 34.45 90 34.149998 88.5 L 31.150002 77.200005 Q 30.95 76.1 29.75 75.9 Q 28.550001 75.700005 27.95 76.4 Z M 44.75 18.199997 Q 43.95 15.599998 42.05 15.599998 Q 41.45 15.599998 40.95 15.900002 Q 34.55 19.699997 30.800001 26.599998 Q 27.050001 33.5 27.050001 41.199997 Q 27.050001 46.199997 29.150002 53.5 Q 29.45 54.6 30.650002 54.800003 Q 31.650002 54.9 32.35 54.1 Q 32.65 53.700005 35.2 50.549995 Q 37.75 47.4 38.55 46.35 Q 39.35 45.299995 41.25 42.35 Q 43.149998 39.4 43.899998 37.449997 Q 44.649998 35.5 45.35 32.6 Q 46.05 29.699997 46.05 26.799995 Q 46.05 22.599998 44.75 18.199997 Z " fill="black"/>
    <rect x="135.1" y="77.4" width="32.5" height="25" stroke="blue" stroke-width="1" fill="none"/>
    <path d="M 135.1 93.3 Q 135.1 87.3 141.70001 81.75 Q 148.3 76.200005 155.20001 76.200005 Q 158 76.200005 160.55 76.9 Q 163.1 77.6 165.40001 80.1 Q 167.70001 82.6 167.70001 86.5 Q 167.70001 92 161 97.8 Q 154.3 103.6 147.6 103.6 Q 144.8 103.6 142.25 102.9 Q 139.70001 102.200005 137.40001 99.700005 Q 135.1 97.200005 135.1 93.3 Z " fill="black"/>
    <rect x="167.6" y="83.65" width="25" height="12.5" stroke="blue" stroke-width="1" fill="none"/>
    <path d="M 173.85 89.9 Q 173.85 87.6 175.45001 86 Q 177.05 84.4 179.35 84.4 Q 181.65001 84.4 183.25 86 Q 184.85 87.6 184.85 89.9 Q 184.85 92.200005 183.25 93.8 Q 181.65001 95.4 179.35 95.4 Q 177.05 95.4 175.45001 93.8 Q 173.85 92.200005 173.85 89.9 Z " fill="black"/>
    <rect x="167.6" y="64.9" width="32.5" height="25" stroke="blue" stroke-width="1" fill="none"/>
    <path d="M 167.6 80.8 Q 167.6 74.8 174.20001 69.25 Q 180.8 63.7 187.70001 63.7 Q 190.5 63.7 193.05 64.4 Q 195.6 65.100006 197.90001 67.600006 Q 200.20001 70.100006 200.20001 74 Q 200.20001 79.5 193.5 85.3 Q 186.8 91.1 180.1 91.1 Q 177.3 91.1 174.75 90.4 Q 172.20001 89.700005 169.90001 87.200005 Q 167.6 84.700005 167.6 80.8 Z " fill="black"/>
    <rect x="200.1" y="71.15" width="25" height="12.5" stroke="blue" stroke-width="1" fill="none"/>
    <path d="M 206.35 77.4 Q 206.35 75.1 207.95001 73.5 Q 209.55 71.9 211.85 71.9 Q 214.15001 71.9 215.75 73.5 Q 217.35 75.1 217.35 77.4 Q 217.35 79.700005 215.75 81.3 Q 214.15001 82.9 211.85 82.9 Q 209.55 82.9 207.95001 81.3 Q 206.35 79.700005 206.35 77.4 Z " fill="black"/>
    <rect x="135.1" y="39.9" width="32.5" height="25" stroke="blue" stroke-width="1" fill="none"/>
    <path d="M 135.1 55.800003 Q 135.1 49.800003 141.70001 44.25 Q 148.3 38.7 155.20001 38.7 Q 158 38.7 160.55 39.4 Q 163.1 40.100002 165.40001 42.600002 Q 167.70001 45.100002 167.70001 49 Q 167.70001 54.5 161 60.300003 Q 154.3 66.100006 147.6 66.100006 Q 144.8 66.100006 142.25 65.4 Q 139.70001 64.7 137.40001 62.2 Q 135.1 59.7 135.1 55.800003 Z " fill="black"/>
    <rect x="167.6" y="46.15" width="25" height="12.5" stroke="blue" stroke-width="1" fill="none"/>
    <path d="M 173.85 52.4 Q 173.85 50.100002 175.45001 48.5 Q 177.05 46.9 179.35 46.9 Q 181.65001 46.9 183.25 48.5 Q 184.85 50.100002 184.85 52.4 Q 184.85 54.7 183.25 56.300003 Q 181.65001 57.9 179.35 57.9 Q 177.05 57.9 175.45001 56.300003 Q 173.85 54.7 173.85 52.4 Z " fill="black"/>
    <rect x="101.35" y="89.9" width="33.75" height="25" stroke="blue" stroke-width="1" fill="none"/>
    <path d="M 126.25 92.3 Q 123.35 92.3 114 98.85 Q 104.65 105.4 104.65 108.4 Q 104.65 110.5 106.45 111.5 Q 108.25 112.5 110.75 112.5 Q 113.65 112.5 123 105.95 Q 132.35 99.4 132.35 96.4 Q 132.35 94.3 130.55 93.3 Q 128.75 92.3 126.25 92.3 Z M 101.35 106.2 Q 101.35 99 107.549995 93.85 Q 113.75 88.700005 122.549995 88.700005 Q 125.549995 88.700005 128.15001 89.3 Q 130.75 89.9 133.15001 92.3 Q 135.55 94.700005 135.55 98.6 Q 135.55 105.8 129.35 110.95 Q 123.15 116.100006 114.35 116.100006 Q 111.35 116.100006 108.75 115.5 Q 106.15 114.9 103.75 112.5 Q 101.35 110.100006 101.35 106.2 Z " fill="black"/>
    <rect x="135.1" y="96.15" width="25" height="12.5" stroke="blue" stroke-width="1" fill="none"/>
    <path d="M 141.35 102.4 Q 141.35 100.1 142.95001 98.5 Q 144.55 96.9 146.85 96.9 Q 149.15001 96.9 150.75 98.5 Q 152.35 100.1 152.35 102.4 Q 152.35 104.700005 150.75 106.3 Q 149.15001 107.9 146.85 107.9 Q 144.55 107.9 142.95001 106.3 Q 141.35 104.700005 141.35 102.4 Z " fill="black"/>
    <rect x="135.1" y="77.4" width="33.75" height="25" stroke="blue" stroke-width="1" fill="none"/>
    <path d="M 160 79.8 Q 157.1 79.8 147.75 86.35 Q 138.40001 92.9 138.40001 95.9 Q 138.40001 98 140.20001 99 Q 142 100 144.5 100 Q 147.40001 100 156.75 93.450005 Q 166.1 86.9 166.1 83.9 Q 166.1 81.8 164.3 80.8 Q 162.5 79.8 160 79.8 Z M 135.1 93.700005 Q 135.1 86.5 141.3 81.35 Q 147.5 76.200005 156.3 76.200005 Q 159.3 76.200005 161.90001 76.8 Q 164.5 77.4 166.90001 79.8 Q 169.3 82.200005 169.3 86.1 Q 169.3 93.3 163.1 98.450005 Q 156.90001 103.6 148.1 103.6 Q 145.1 103.6 142.5 103 Q 139.90001 102.4 137.5 100 Q 135.1 97.6 135.1 93.700005 Z " fill="black"/>
    <rect x="168.85" y="83.65" width="25" height="12.5" stroke="blue" stroke-width="1" fill="none"/>
    <path d="M 175.1 89.9 Q 175.1 87.6 176.70001 86 Q 178.3 84.4 180.6 84.4 Q 182.90001 84.4 184.5 86 Q 186.1 87.6 186.1 89.9 Q 186.1 92.200005 184.5 93.8 Q 182.90001 95.4 180.6 95.4 Q 178.3 95.4 176.70001 93.8 Q 175.1 92.200005 175.1 89.9 Z " fill="black"/>
    <rect x="0" y="0" width="225.6" height="184.6" stroke="black" stroke-width="1" fill="none"/>
</svg>
