<svg xmlns="http://www.w3.org/2000/svg" xmlns:xlink="http://www.w3.org/1999/xlink" viewBox="0 0 431 56">
    <rect x="0.5" y="5.5" width="10" height="20" stroke="orange" stroke-width="1" fill="none"/>
    <rect x="0.5" y="35.5" width="10" height="20" stroke="orange" stroke-width="1" fill="none"/>
    <rect x="10.5" y="5.5" width="10" height="10" stroke="blue" stroke-width="1" fill="none"/>
    <path d="M 0.5 5.5 Q 0.5 3.2 2.1 1.5999999 Q 3.7 0 6 0 Q 8.3 0 9.900001 1.5999999 Q 11.5 3.2 11.5 5.5 Q 11.5 7.8 9.900001 9.4 Q 8.3 11 6 11 Q 3.7 11 2.1 9.4 Q 0.5 7.8 0.5 5.5 Z " fill="black"/>
    <rect x="10.5" y="35.5" width="10" height="10" stroke="blue" stroke-width="1" fill="none"/>
    <path d="M 0.5 5.5 Q 0.5 3.2 2.1 1.5999999 Q 3.7 0 6 0 Q 8.3 0 9.900001 1.5999999 Q 11.5 3.2 11.5 5.5 Q 11.5 7.8 9.900001 9.4 Q 8.3 11 6 11 Q 3.7 11 2.1 9.4 Q 0.5 7.8 0.5 5.5 Z " fill="black"/>
    <rect x="130.5" y="5.5" width="10" height="10" stroke="blue" stroke-width="1" fill="none"/>
    <path d="M 0.5 5.5 Q 0.5 3.2 2.1 1.5999999 Q 3.7 0 6 0 Q 8.3 0 9.900001 1.5999999 Q 11.5 3.2 11.5 5.5 Q 11.5 7.8 9.900001 9.4 Q 8.3 11 6 11 Q 3.7 11 2.1 9.4 Q 0.5 7.8 0.5 5.5 Z " fill="black"/>
    <rect x="130.5" y="35.5" width="38" height="10" stroke="blue" stroke-width="1" fill="none"/>
    <path d="M 0.5 5.5 Q 0.5 3.2 2.1 1.5999999 Q 3.7 0 6 0 Q 8.3 0 9.900001 1.5999999 Q 11.5 3.2 11.5 5.5 Q 11.5 7.8 9.900001 9.4 Q 8.3 11 6 11 Q 3.7 11 2.1 9.4 Q 0.5 7.8 0.5 5.5 Z " fill="black"/>
    <rect x="250.5" y="5.5" width="10" height="10" stroke="blue" stroke-width="1" fill="none"/>
    <path d="M 0.5 5.5 Q 0.5 3.2 2.1 1.5999999 Q 3.7 0 6 0 Q 8.3 0 9.900001 1.5999999 Q 11.5 3.2 11.5 5.5 Q 11.5 7.8 9.900001 9.4 Q 8.3 11 6 11 Q 3.7 11 2.1 9.4 Q 0.5 7.8 0.5 5.5 Z " fill="black"/>
    <rect x="250.5" y="35.5" width="10" height="10" stroke="blue" stroke-width="1" fill="none"/>
    <path d="M 0.5 5.5 Q 0.5 3.2 2.1 1.5999999 Q 3.7 0 6 0 Q 8.3 0 9.900001 1.5999999 Q 11.5 3.2 11.5 5.5 Q 11.5 7.8 9.900001 9.4 Q 8.3 11 6 11 Q 3.7 11 2.1 9.4 Q 0.5 7.8 0.5 5.5 Z " fill="black"/>
    <rect x="335.5" y="5.5" width="10" height="10" stroke="blue" stroke-width="1" fill="none"/>
    <path d="M 0.5 5.5 Q 0.5 3.2 2.1 1.5999999 Q 3.7 0 6 0 Q 8.3 0 9.900001 1.5999999 Q 11.5 3.2 11.5 5.5 Q 11.5 7.8 9.900001 9.4 Q 8.3 11 6 11 Q 3.7 11 2.1 9.4 Q 0.5 7.8 0.5 5.5 Z " fill="black"/>
    <rect x="335.5" y="35.5" width="10" height="10" stroke="blue" stroke-width="1" fill="none"/>
    <path d="M 0.5 5.5 Q 0.5 3.2 2.1 1.5999999 Q 3.7 0 6 0 Q 8.3 0 9.900001 1.5999999 Q 11.5 3.2 11.5 5.5 Q 11.5 7.8 9.900001 9.4 Q 8.3 11 6 11 Q 3.7 11 2.1 9.4 Q 0.5 7.8 0.5 5.5 Z " fill="black"/>
    <rect x="420.5" y="5.5" width="10" height="20" stroke="orange" stroke-width="1" fill="none"/>
    <path d="M 0.5 5.5 Q 0.5 3.2 2.1 1.5999999 Q 3.7 0 6 0 Q 8.3 0 9.900001 1.5999999 Q 11.5 3.2 11.5 5.5 Q 11.5 7.8 9.900001 9.4 Q 8.3 11 6 11 Q 3.7 11 2.1 9.4 Q 0.5 7.8 0.5 5.5 Z " fill="black"/>
    <rect x="420.5" y="35.5" width="10" height="20" stroke="orange" stroke-width="1" fill="none"/>
    <rect x="0" y="0" width="431" height="56" stroke="black" stroke-width="1" fill="none"/>
</svg>
