<svg xmlns="http://www.w3.org/2000/svg" xmlns:xlink="http://www.w3.org/1999/xlink" width="728" height="457.7857" viewBox="0 0 728 457.7857">
    <defs visibility="hidden"/>
    <line x1="25" y1="40" x2="25" y2="417" stroke="black" stroke-width="2.5"/>
    <rect x="0" y="35" width="12.5" height="387" fill="black"/>
    <path d="M 0 35 L 25 25 L 25 27 L 12.5 35 " fill="black"/>
    <path d="M 0 422 L 25 432 L 25 430 L 12.5 422 " fill="black"/>
    <line x1="25" y1="40" x2="726.75" y2="40" stroke="black" stroke-width="2.5"/>
    <line x1="25" y1="65" x2="726.75" y2="65" stroke="black" stroke-width="2.5"/>
    <line x1="25" y1="90" x2="726.75" y2="90" stroke="black" stroke-width="2.5"/>
    <line x1="25" y1="115" x2="726.75" y2="115" stroke="black" stroke-width="2.5"/>
    <line x1="25" y1="140" x2="726.75" y2="140" stroke="black" stroke-width="2.5"/>
    <line x1="25" y1="317" x2="726.75" y2="317" stroke="black" stroke-width="2.5"/>
    <line x1="25" y1="342" x2="726.75" y2="342" stroke="black" stroke-width="2.5"/>
    <line x1="25" y1="367" x2="726.75" y2="367" stroke="black" stroke-width="2.5"/>
    <line x1="25" y1="392" x2="726.75" y2="392" stroke="black" stroke-width="2.5"/>
    <line x1="25" y1="417" x2="726.75" y2="417" stroke="black" stroke-width="2.5"/>
    <path d="M 59.800003 58.5 Q 57.5 51.2 56.6 45.5 Q 55.800003 40.699997 55.800003 34.299995 Q 55.800003 32.1 55.9 29.900002 Q 56.300003 20.400002 59.800003 12.449997 Q 63.300003 4.5 70.3 0.29999542 Q 70.8 0 71.600006 0 Q 72.3 0 72.8 0.5 Q 78.4 6.0999985 81.4 14.799995 Q 84.4 23.5 84.4 32.4 Q 84.4 42.699997 80 52.6 Q 75.8 62.5 68.2 70.1 Q 67.600006 70.7 67.8 71.7 L 71.8 87.7 Q 72.100006 89.3 73.8 89.1 Q 75.4 88.9 76.9 88.9 Q 82.7 88.9 87.4 91.2 Q 92.100006 93.5 95 97.2 Q 97.9 100.9 99.450005 105.35 Q 101 109.8 101 114.5 Q 101 123.1 96.2 130.05 Q 91.4 137 84.7 139.2 Q 83.3 139.7 83.600006 141.3 Q 86.100006 153.1 86.2 161.2 Q 86.2 164.3 85.8 167.3 Q 85 174.2 79.8 179.4 Q 74.600006 184.6 67.4 184.6 Q 58.6 184.6 52.5 179.3 Q 46.4 174 46.4 165.4 Q 46.4 161 49.5 157.8 Q 52.6 154.6 56.800003 154.6 Q 61.1 154.6 64.05 157.65 Q 67 160.7 67 164.9 Q 67 168.5 64.6 171.2 Q 62.2 174 58.800003 174.3 Q 57.6 174.4 57.2 175.5 Q 56.800003 176.6 58 177.5 Q 61.6 180.3 66.8 180.3 Q 72.5 180.3 76.65 176.2 Q 80.8 172.1 81.5 166.9 Q 82 163.3 82 159.7 Q 82 151.9 79.600006 142.4 Q 79.2 140.7 77.4 140.9 Q 73.4 141.4 70 141.4 Q 55.2 141.4 45.1 132.1 Q 35 122.8 35 106.8 Q 35 101.9 36.15 97.15 Q 37.3 92.4 38.75 88.95 Q 40.2 85.5 43.25 80.95 Q 46.3 76.399994 48.15 74 Q 50 71.6 54 66.85 Q 58 62.1 59.5 60.2 Q 60.1 59.5 59.800003 58.5 Z M 75.4 104.2 L 81.9 133.7 Q 82.2 135 83.7 135 Q 84.100006 135 84.4 134.9 Q 88.5 133.2 91.2 128.3 Q 93.9 123.4 93.9 118.6 Q 93.9 111.6 89.8 106.8 Q 85.600006 101.9 77.2 101.9 Q 76.5 101.9 75.95 102.45 Q 75.4 103 75.4 103.7 Q 75.3 104 75.4 104.2 Z M 61.6 76.399994 Q 60 78.2 56.85 81.55 Q 53.7 84.9 52.15 86.65 Q 50.6 88.4 48.35 91.6 Q 46.1 94.8 45 97.5 Q 43.9 100.2 43.05 104.1 Q 42.2 108 42.2 112.4 Q 42.2 118.5 45.95 124.2 Q 49.7 129.9 56.25 133.5 Q 62.800003 137.1 70.3 137.1 Q 73 137.1 76.3 136.8 Q 77.100006 136.7 77.600006 136.05 Q 78.100006 135.4 77.9 134.6 L 71.4 104.7 Q 71.100006 103.3 69.5 103.3 Q 69.2 103.3 68.8 103.4 Q 64.2 105.1 62.300003 108.2 Q 60.4 111.3 60.4 116 Q 60.4 121.5 66.4 125.5 Q 67.100006 126 67.100006 127 Q 67.100006 127.8 66.45 128.5 Q 65.8 129.2 64.9 129.2 Q 64.4 129.2 64 129 Q 58.300003 126 55.550003 120.85 Q 52.800003 115.7 52.800003 110 Q 52.800003 104.5 56.75 98.65 Q 60.7 92.8 66.6 90.6 Q 68.100006 90 67.8 88.5 L 64.8 77.2 Q 64.6 76.1 63.4 75.899994 Q 62.2 75.7 61.6 76.399994 Z M 78.4 18.199997 Q 77.600006 15.599998 75.7 15.599998 Q 75.100006 15.599998 74.600006 15.900002 Q 68.2 19.699997 64.45 26.599998 Q 60.7 33.5 60.7 41.199997 Q 60.7 46.199997 62.800003 53.5 Q 63.1 54.6 64.3 54.8 Q 65.3 54.899998 66 54.1 Q 66.3 53.7 68.850006 50.549995 Q 71.4 47.4 72.2 46.35 Q 73 45.299995 74.9 42.35 Q 76.8 39.4 77.55 37.449997 Q 78.3 35.5 79 32.6 Q 79.7 29.699997 79.7 26.799995 Q 79.7 22.599998 78.4 18.199997 Z " fill="black"/>
    <path d="M 92 354.5 Q 92 352.4 93.5 350.9 Q 95 349.4 97.100006 349.4 Q 99.200005 349.4 100.700005 350.9 Q 102.200005 352.4 102.200005 354.5 Q 102.200005 356.6 100.700005 358.1 Q 99.200005 359.6 97.100006 359.6 Q 95 359.6 93.5 358.1 Q 92 356.6 92 354.5 Z M 92 329.5 Q 92 327.4 93.5 325.9 Q 95 324.4 97.100006 324.4 Q 99.200005 324.4 100.700005 325.9 Q 102.200005 327.4 102.200005 329.5 Q 102.200005 331.6 100.700005 333.1 Q 99.200005 334.6 97.100006 334.6 Q 95 334.6 93.5 333.1 Q 92 331.6 92 329.5 Z M 47.2 330.1 Q 51.7 330.1 54.6 333 Q 57.5 335.9 57.5 340.1 Q 57.5 344.5 54.6 347.6 Q 51.7 350.7 47.5 350.7 Q 43 350.7 39.65 347.6 Q 36.3 344.5 36.3 340.1 Q 36.3 329.3 43.5 322.5 Q 50.7 315.7 61.4 315.7 Q 73.5 315.7 81.15 322.65 Q 88.8 329.6 88.8 340.8 Q 88.8 376.2 37.4 398.9 Q 36.7 399.2 36.3 399.2 Q 35 399.2 35 397.9 Q 35 397.2 36.3 396.4 Q 44.3 391.7 49.55 388.1 Q 54.800003 384.5 60.4 379.4 Q 66 374.3 69.2 369.15 Q 72.4 364 74.5 357 Q 76.600006 350 76.600006 341.8 Q 76.600006 331.4 72.05 325.1 Q 67.5 318.8 59.6 318.8 Q 54.800003 318.8 50.9 321.05 Q 47 323.3 45.5 327.2 Q 45.1 328.5 45.6 329.2 Q 46.3 330.1 47.2 330.1 Z " fill="black"/>
    <path d="M 139 93.4 Q 139 87.4 145.6 81.85 Q 152.2 76.3 159.1 76.3 Q 161.9 76.3 164.45 77 Q 167 77.7 169.3 80.2 Q 171.6 82.7 171.6 86.6 Q 171.6 92.1 164.9 97.9 Q 158.2 103.7 151.5 103.7 Q 148.7 103.7 146.15 103 Q 143.6 102.3 141.3 99.8 Q 139 97.3 139 93.4 Z " fill="black"/>
    <path d="M 284 93.4 Q 284 87.4 290.6 81.85 Q 297.2 76.3 304.1 76.3 Q 306.9 76.3 309.45 77 Q 312 77.7 314.3 80.2 Q 316.6 82.7 316.6 86.6 Q 316.6 92.1 309.9 97.9 Q 303.2 103.7 296.5 103.7 Q 293.7 103.7 291.15 103 Q 288.6 102.3 286.3 99.8 Q 284 97.3 284 93.4 Z " fill="black"/>
    <rect x="389" y="40" width="3.7500002" height="100" fill="black"/>
    <rect x="389" y="317" width="3.7500002" height="100" fill="black"/>
    <rect x="222.75" y="342" width="32.5" height="12.5" fill="black"/>
    <path d="M 423 118.4 Q 423 112.4 429.6 106.85 Q 436.2 101.3 443.1 101.3 Q 445.9 101.3 448.45 102 Q 451 102.7 453.3 105.2 Q 455.6 107.7 455.6 111.6 Q 455.6 117.1 448.9 122.9 Q 442.2 128.7 435.5 128.7 Q 432.7 128.7 430.15 128 Q 427.6 127.3 425.3 124.8 Q 423 122.3 423 118.4 Z " fill="black"/>
    <path d="M 423 370.4 Q 423 364.4 429.6 358.85 Q 436.2 353.3 443.1 353.3 Q 445.9 353.3 448.45 354 Q 451 354.7 453.3 357.2 Q 455.6 359.7 455.6 363.6 Q 455.6 369.1 448.9 374.9 Q 442.2 380.7 435.5 380.7 Q 432.7 380.7 430.15 380 Q 427.6 379.3 425.3 376.8 Q 423 374.3 423 370.4 Z " fill="black"/>
    <path d="M 528 130.9 Q 528 124.9 534.6 119.35 Q 541.2 113.8 548.1 113.8 Q 550.9 113.8 553.45 114.5 Q 556 115.2 558.3 117.7 Q 560.6 120.2 560.6 124.1 Q 560.6 129.6 553.9 135.4 Q 547.2 141.2 540.5 141.2 Q 537.7 141.2 535.15 140.5 Q 532.6 139.8 530.3 137.3 Q 528 134.8 528 130.9 Z " fill="black"/>
    <path d="M 528 370.4 Q 528 364.4 534.6 358.85 Q 541.2 353.3 548.1 353.3 Q 550.9 353.3 553.45 354 Q 556 354.7 558.3 357.2 Q 560.6 359.7 560.6 363.6 Q 560.6 369.1 553.9 374.9 Q 547.2 380.7 540.5 380.7 Q 537.7 380.7 535.15 380 Q 532.6 379.3 530.3 376.8 Q 528 374.3 528 370.4 Z " fill="black"/>
    <path d="M 603 143.4 Q 603 137.4 609.6 131.85 Q 616.2 126.3 623.1 126.3 Q 625.9 126.3 628.45 127 Q 631 127.7 633.3 130.2 Q 635.6 132.7 635.6 136.6 Q 635.6 142.1 628.9 147.9 Q 622.2 153.7 615.5 153.7 Q 612.7 153.7 610.15 153 Q 607.6 152.3 605.3 149.8 Q 603 147.3 603 143.4 Z " fill="black"/>
    <path d="M 663 130.9 Q 663 124.9 669.6 119.35 Q 676.2 113.8 683.1 113.8 Q 685.9 113.8 688.45 114.5 Q 691 115.2 693.3 117.7 Q 695.6 120.2 695.6 124.1 Q 695.6 129.6 688.9 135.4 Q 682.2 141.2 675.5 141.2 Q 672.7 141.2 670.15 140.5 Q 667.6 139.8 665.3 137.3 Q 663 134.8 663 130.9 Z " fill="black"/>
    <rect x="723" y="40" width="3.7500002" height="100" fill="black"/>
    <rect x="531.75" y="40" width="32.5" height="12.5" fill="black"/>
    <rect x="723" y="317" width="3.7500002" height="100" fill="black"/>
    <line x1="140.5" y1="94" x2="140.5" y2="179.2857" stroke="black" stroke-width="3"/>
    <line x1="285.5" y1="94" x2="285.5" y2="179.2857" stroke="black" stroke-width="3"/>
    <line x1="424.5" y1="119" x2="424.5" y2="204.2857" stroke="black" stroke-width="3"/>
    <line x1="529.5" y1="131.5" x2="529.5" y2="229.2857" stroke="black" stroke-width="3"/>
    <line x1="664.5" y1="131.5" x2="664.5" y2="229.2857" stroke="black" stroke-width="3"/>
    <line x1="604.5" y1="144" x2="604.5" y2="229.2857" stroke="black" stroke-width="3"/>
    <path d="M 528 229.2857 L 666 229.2857 L 666 214.2857 L 528 214.2857 L 528 229.2857 " fill="black"/>
    <path d="M 603 204.2857 L 666 204.2857 L 666 189.2857 L 603 189.2857 L 603 204.2857 " fill="black"/>
    <line x1="424.5" y1="371" x2="424.5" y2="456.2857" stroke="black" stroke-width="3"/>
    <line x1="529.5" y1="371" x2="529.5" y2="456.2857" stroke="black" stroke-width="3"/>
    <rect x="0" y="0" width="728" height="457.7857" stroke="white" stroke-width="1" fill="none"/>
</svg>
