<svg xmlns="http://www.w3.org/2000/svg" xmlns:xlink="http://www.w3.org/1999/xlink" width="445.25" height="219.07141" viewBox="0 0 445.25 219.07141">
    <defs visibility="hidden"/>
    <line x1="1.25" y1="40.785713" x2="444" y2="40.785713" stroke="black" stroke-width="2.5"/>
    <line x1="1.25" y1="65.78571" x2="444" y2="65.78571" stroke="black" stroke-width="2.5"/>
    <line x1="1.25" y1="90.78571" x2="444" y2="90.78571" stroke="black" stroke-width="2.5"/>
    <line x1="1.25" y1="115.78571" x2="444" y2="115.78571" stroke="black" stroke-width="2.5"/>
    <line x1="1.25" y1="140.7857" x2="444" y2="140.7857" stroke="black" stroke-width="2.5"/>
    <path d="M 68.25 78.28571 Q 68.25 76.185715 69.75 74.685715 Q 71.25 73.185715 73.350006 73.185715 Q 75.450005 73.185715 76.950005 74.685715 Q 78.450005 76.185715 78.450005 78.28571 Q 78.450005 80.38571 76.950005 81.88571 Q 75.450005 83.38571 73.350006 83.38571 Q 71.25 83.38571 69.75 81.88571 Q 68.25 80.38571 68.25 78.28571 Z M 68.25 53.285713 Q 68.25 51.185715 69.75 49.685715 Q 71.25 48.185715 73.350006 48.185715 Q 75.450005 48.185715 76.950005 49.685715 Q 78.450005 51.185715 78.450005 53.285713 Q 78.450005 55.38571 76.950005 56.88571 Q 75.450005 58.38571 73.350006 58.38571 Q 71.25 58.38571 69.75 56.88571 Q 68.25 55.38571 68.25 53.285713 Z M 23.45 53.88571 Q 27.95 53.88571 30.85 56.785713 Q 33.75 59.685715 33.75 63.88571 Q 33.75 68.28571 30.85 71.38571 Q 27.95 74.48572 23.75 74.48572 Q 19.25 74.48572 15.9 71.38571 Q 12.55 68.28571 12.55 63.88571 Q 12.55 53.085712 19.75 46.285713 Q 26.95 39.48571 37.65 39.48571 Q 49.75 39.48571 57.4 46.435715 Q 65.05 53.38571 65.05 64.58571 Q 65.05 99.98572 13.65 122.685715 Q 12.95 122.98572 12.55 122.98572 Q 11.25 122.98572 11.25 121.685715 Q 11.25 120.98572 12.55 120.185715 Q 20.55 115.48572 25.8 111.88571 Q 31.050001 108.28571 36.65 103.185715 Q 42.25 98.08571 45.45 92.935715 Q 48.65 87.78571 50.75 80.78571 Q 52.850002 73.78571 52.850002 65.58571 Q 52.850002 55.185715 48.3 48.88571 Q 43.75 42.585712 35.85 42.585712 Q 31.050001 42.585712 27.150002 44.835712 Q 23.25 47.085712 21.75 50.985714 Q 21.35 52.285713 21.85 52.985714 Q 22.55 53.88571 23.45 53.88571 Z " fill="black"/>
    <path d="M 135.25 94.185715 Q 135.25 88.185715 141.85 82.63571 Q 148.45 77.08572 155.35 77.08572 Q 158.15 77.08572 160.7 77.78571 Q 163.25 78.48571 165.55 80.98571 Q 167.85 83.48571 167.85 87.38571 Q 167.85 92.88571 161.15 98.685715 Q 154.45 104.48571 147.75 104.48571 Q 144.95 104.48571 142.4 103.78571 Q 139.85 103.08572 137.55 100.58572 Q 135.25 98.08572 135.25 94.185715 Z " fill="black"/>
    <path d="M 160.15 118.185715 Q 157.25 118.185715 147.9 124.73572 Q 138.55 131.2857 138.55 134.2857 Q 138.55 136.38571 140.35 137.38571 Q 142.15 138.38571 144.65 138.38571 Q 147.55 138.38571 156.9 131.83571 Q 166.25 125.28571 166.25 122.28571 Q 166.25 120.185715 164.45 119.185715 Q 162.65 118.185715 160.15 118.185715 Z M 135.25 132.08571 Q 135.25 124.88571 141.45 119.73572 Q 147.65 114.58571 156.45 114.58571 Q 159.45 114.58571 162.05 115.185715 Q 164.65 115.78571 167.05 118.185715 Q 169.45 120.58571 169.45 124.48572 Q 169.45 131.68571 163.25 136.83571 Q 157.05 141.98572 148.25 141.98572 Q 145.25 141.98572 142.65 141.38571 Q 140.05 140.7857 137.65 138.38571 Q 135.25 135.98572 135.25 132.08571 Z " fill="black"/>
    <path d="M 175.75 128.2857 Q 175.75 125.98572 177.35 124.38571 Q 178.95 122.78571 181.25 122.78571 Q 183.55 122.78571 185.15 124.38571 Q 186.75 125.98572 186.75 128.2857 Q 186.75 130.58571 185.15 132.18571 Q 183.55 133.7857 181.25 133.7857 Q 178.95 133.7857 177.35 132.18571 Q 175.75 130.58571 175.75 128.2857 Z " fill="black"/>
    <path d="M 210.25 106.685715 Q 210.25 100.685715 216.85 95.13571 Q 223.45 89.58572 230.35 89.58572 Q 233.15 89.58572 235.7 90.28571 Q 238.25 90.98571 240.55 93.48571 Q 242.85 95.98571 242.85 99.88571 Q 242.85 105.38571 236.15 111.185715 Q 229.45 116.98572 222.75 116.98572 Q 219.95 116.98572 217.4 116.28571 Q 214.85 115.58571 212.55 113.08571 Q 210.25 110.58571 210.25 106.685715 Z " fill="black"/>
    <path d="M 278.25 119.185715 Q 278.25 113.185715 284.85 107.63571 Q 291.45 102.08572 298.35 102.08572 Q 301.15 102.08572 303.7 102.78571 Q 306.25 103.48571 308.55 105.98571 Q 310.85 108.48572 310.85 112.38571 Q 310.85 117.88571 304.15 123.685715 Q 297.45 129.48572 290.75 129.48572 Q 287.95 129.48572 285.4 128.7857 Q 282.85 128.08571 280.55 125.58571 Q 278.25 123.08571 278.25 119.185715 Z " fill="black"/>
    <path d="M 269.85 106.185715 L 269.85 118.38571 Q 269.85 119.185715 270.35 119.685715 Q 270.85 120.185715 271.65 120.185715 Q 271.95 120.185715 272.25 120.08571 L 273.05 119.78571 Q 273.35 119.685715 273.75 119.685715 Q 274.55 119.685715 275.15 120.28571 Q 275.75 120.88571 275.75 121.685715 L 275.75 127.685715 Q 275.75 128.98572 274.45 129.48572 L 271.05 130.7857 Q 269.85 131.2857 269.85 132.38571 L 269.85 146.98572 Q 269.85 147.7857 269.3 148.33571 Q 268.75 148.88571 268.05 148.88571 Q 267.25 148.88571 266.7 148.33571 Q 266.15 147.7857 266.15 146.98572 L 266.15 135.08572 Q 266.15 134.2857 265.6 133.7857 Q 265.05 133.2857 264.35 133.2857 Q 263.95 133.2857 263.65 133.38571 L 259.05 135.18571 Q 257.85 135.58572 257.85 136.7857 L 257.85 151.38571 Q 257.85 152.18571 257.25 152.73572 Q 256.65 153.2857 255.95 153.2857 Q 255.25 153.2857 254.7 152.73572 Q 254.15 152.18571 254.15 151.38571 L 254.15 139.48572 Q 254.15 138.68571 253.6 138.18571 Q 253.05 137.68571 252.35 137.68571 Q 252.05 137.68571 251.75 137.7857 L 250.95 138.08572 Q 250.75 138.18571 250.25 138.18571 Q 249.45 138.18571 248.85 137.58572 Q 248.25 136.98572 248.25 136.18571 L 248.25 130.18571 Q 248.25 128.7857 249.55 128.2857 L 252.95 127.08571 Q 254.15 126.78571 254.15 125.38571 L 254.15 113.185715 Q 254.15 112.38571 253.6 111.88571 Q 253.05 111.38571 252.35 111.38571 Q 252.05 111.38571 251.85 111.48572 L 250.95 111.78571 Q 250.75 111.88571 250.25 111.88571 Q 249.45 111.88571 248.85 111.28571 Q 248.25 110.685715 248.25 109.88571 L 248.25 103.88571 Q 248.25 102.58572 249.55 102.08572 L 253.05 100.78571 Q 254.15 100.28571 254.15 99.185715 L 254.15 84.58571 Q 254.15 83.78571 254.7 83.23572 Q 255.25 82.685715 255.95 82.685715 Q 256.65 82.685715 257.25 83.23572 Q 257.85 83.78571 257.85 84.58571 L 257.85 96.48571 Q 257.85 97.28571 258.4 97.78571 Q 258.95 98.28571 259.75 98.28571 Q 260.05 98.28571 260.35 98.185715 L 264.95 96.38571 Q 266.15 95.88571 266.15 94.685715 L 266.15 80.185715 Q 266.15 79.38571 266.7 78.83571 Q 267.25 78.28571 268.05 78.28571 Q 268.75 78.28571 269.3 78.83571 Q 269.85 79.38571 269.85 80.185715 L 269.85 92.185715 Q 269.85 92.88571 270.35 93.38571 Q 270.85 93.88571 271.55 93.88571 Q 271.85 93.88571 272.25 93.78571 L 273.05 93.48571 Q 273.25 93.38571 273.75 93.38571 Q 274.55 93.38571 275.15 93.98571 Q 275.75 94.58571 275.75 95.38571 L 275.75 101.38571 Q 275.75 102.78571 274.45 103.28571 L 271.05 104.48571 Q 269.85 104.78571 269.85 106.185715 Z M 266.15 120.98572 L 266.15 108.88571 Q 266.15 108.185715 265.6 107.63571 Q 265.05 107.08571 264.35 107.08571 Q 264.05 107.08571 263.75 107.185715 L 259.05 108.88571 Q 257.85 109.38571 257.85 110.58571 L 257.85 122.685715 Q 257.85 123.48572 258.35 123.98572 Q 258.85 124.48572 259.65 124.48572 Q 259.95 124.48572 260.25 124.38571 L 264.95 122.685715 Q 266.15 122.185715 266.15 120.98572 Z " fill="black"/>
    <rect x="440.25" y="40.785713" width="3.7500002" height="100" fill="black"/>
    <line x1="136.75" y1="132.2857" x2="136.75" y2="217.57143" stroke="black" stroke-width="3"/>
    <line x1="166.25" y1="1.5" x2="166.25" y2="86.78571" stroke="black" stroke-width="3"/>
    <line x1="309.25" y1="14" x2="309.25" y2="111.78571" stroke="black" stroke-width="3"/>
    <line x1="241.25" y1="8.055946" x2="241.25" y2="99.28571" stroke="black" stroke-width="3"/>
    <path d="M 164.75 1.5 L 310.75 14 L 310.75 29 L 164.75 16.5 L 164.75 1.5 " fill="black"/>
    <path d="M 239.75 33.055946 L 310.75 39 L 310.75 54 L 239.75 48.055946 L 239.75 33.055946 " fill="black"/>
    <rect x="0" y="0" width="445.25" height="219.07141" stroke="white" stroke-width="1" fill="none"/>
</svg>
