<svg xmlns="http://www.w3.org/2000/svg" xmlns:xlink="http://www.w3.org/1999/xlink" width="1070" height="458.5714" viewBox="0 0 1070 458.5714">
    <defs visibility="hidden"/>
    <line x1="25" y1="40.785713" x2="25" y2="417.7857" stroke="black" stroke-width="2.5"/>
    <rect x="0" y="35.785713" width="12.5" height="387" fill="black"/>
    <path d="M 0 35.785713 L 25 25.785713 L 25 27.785713 L 12.5 35.785713 " fill="black"/>
    <path d="M 0 422.7857 L 25 432.7857 L 25 430.7857 L 12.5 422.7857 " fill="black"/>
    <line x1="25" y1="40.785713" x2="1068.75" y2="40.785713" stroke="black" stroke-width="2.5"/>
    <line x1="25" y1="65.78571" x2="1068.75" y2="65.78571" stroke="black" stroke-width="2.5"/>
    <line x1="25" y1="90.78571" x2="1068.75" y2="90.78571" stroke="black" stroke-width="2.5"/>
    <line x1="25" y1="115.78571" x2="1068.75" y2="115.78571" stroke="black" stroke-width="2.5"/>
    <line x1="25" y1="140.7857" x2="1068.75" y2="140.7857" stroke="black" stroke-width="2.5"/>
    <line x1="25" y1="317.7857" x2="1068.75" y2="317.7857" stroke="black" stroke-width="2.5"/>
    <line x1="25" y1="342.7857" x2="1068.75" y2="342.7857" stroke="black" stroke-width="2.5"/>
    <line x1="25" y1="367.7857" x2="1068.75" y2="367.7857" stroke="black" stroke-width="2.5"/>
    <line x1="25" y1="392.7857" x2="1068.75" y2="392.7857" stroke="black" stroke-width="2.5"/>
    <line x1="25" y1="417.7857" x2="1068.75" y2="417.7857" stroke="black" stroke-width="2.5"/>
    <path d="M 59.800003 59.285713 Q 57.5 51.985714 56.6 46.285713 Q 55.800003 41.48571 55.800003 35.08571 Q 55.800003 32.88571 55.9 30.685715 Q 56.300003 21.185715 59.800003 13.23571 Q 63.300003 5.285713 70.3 1.0857086 Q 70.8 0.7857132 71.600006 0.7857132 Q 72.3 0.7857132 72.8 1.2857132 Q 78.4 6.8857117 81.4 15.585709 Q 84.4 24.285713 84.4 33.185715 Q 84.4 43.48571 80 53.38571 Q 75.8 63.285713 68.2 70.88571 Q 67.600006 71.48572 67.8 72.48572 L 71.8 88.48571 Q 72.100006 90.08571 73.8 89.88571 Q 75.4 89.685715 76.9 89.685715 Q 82.7 89.685715 87.4 91.98571 Q 92.100006 94.28571 95 97.98571 Q 97.9 101.685715 99.450005 106.13571 Q 101 110.58571 101 115.28571 Q 101 123.88571 96.2 130.83571 Q 91.4 137.7857 84.7 139.98572 Q 83.3 140.48572 83.600006 142.08572 Q 86.100006 153.88571 86.2 161.98572 Q 86.2 165.08572 85.8 168.08572 Q 85 174.98572 79.8 180.18571 Q 74.600006 185.38571 67.4 185.38571 Q 58.6 185.38571 52.5 180.08572 Q 46.4 174.7857 46.4 166.18571 Q 46.4 161.7857 49.5 158.58572 Q 52.6 155.38571 56.800003 155.38571 Q 61.1 155.38571 64.05 158.43571 Q 67 161.48572 67 165.68571 Q 67 169.2857 64.6 171.98572 Q 62.2 174.7857 58.800003 175.08572 Q 57.6 175.18571 57.2 176.2857 Q 56.800003 177.38571 58 178.2857 Q 61.6 181.08572 66.8 181.08572 Q 72.5 181.08572 76.65 176.98572 Q 80.8 172.88571 81.5 167.68571 Q 82 164.08572 82 160.48572 Q 82 152.68571 79.600006 143.18571 Q 79.2 141.48572 77.4 141.68571 Q 73.4 142.18571 70 142.18571 Q 55.2 142.18571 45.1 132.88571 Q 35 123.58571 35 107.58571 Q 35 102.685715 36.15 97.935715 Q 37.3 93.185715 38.75 89.73571 Q 40.2 86.28571 43.25 81.73572 Q 46.3 77.185715 48.15 74.78571 Q 50 72.38571 54 67.63571 Q 58 62.88571 59.5 60.985714 Q 60.1 60.285713 59.800003 59.285713 Z M 75.4 104.98571 L 81.9 134.48572 Q 82.2 135.7857 83.7 135.7857 Q 84.100006 135.7857 84.4 135.68571 Q 88.5 133.98572 91.2 129.08571 Q 93.9 124.185715 93.9 119.38571 Q 93.9 112.38571 89.8 107.58571 Q 85.600006 102.685715 77.2 102.685715 Q 76.5 102.685715 75.95 103.23571 Q 75.4 103.78571 75.4 104.48571 Q 75.3 104.78571 75.4 104.98571 Z M 61.6 77.185715 Q 60 78.98572 56.85 82.33571 Q 53.7 85.685715 52.15 87.435715 Q 50.6 89.185715 48.35 92.38571 Q 46.1 95.58571 45 98.28571 Q 43.9 100.98571 43.05 104.88571 Q 42.2 108.78571 42.2 113.185715 Q 42.2 119.28571 45.95 124.98572 Q 49.7 130.68571 56.25 134.2857 Q 62.800003 137.88571 70.3 137.88571 Q 73 137.88571 76.3 137.58572 Q 77.100006 137.48572 77.600006 136.83572 Q 78.100006 136.18571 77.9 135.38571 L 71.4 105.48571 Q 71.100006 104.08572 69.5 104.08572 Q 69.2 104.08572 68.8 104.185715 Q 64.2 105.88571 62.300003 108.98572 Q 60.4 112.08571 60.4 116.78571 Q 60.4 122.28571 66.4 126.28571 Q 67.100006 126.78571 67.100006 127.78571 Q 67.100006 128.58571 66.45 129.2857 Q 65.8 129.98572 64.9 129.98572 Q 64.4 129.98572 64 129.7857 Q 58.300003 126.78571 55.550003 121.63571 Q 52.800003 116.48572 52.800003 110.78571 Q 52.800003 105.28571 56.75 99.435715 Q 60.7 93.58571 66.6 91.38571 Q 68.100006 90.78571 67.8 89.28571 L 64.8 77.98572 Q 64.6 76.88571 63.4 76.685715 Q 62.2 76.48572 61.6 77.185715 Z M 78.4 18.98571 Q 77.600006 16.385712 75.7 16.385712 Q 75.100006 16.385712 74.600006 16.685715 Q 68.2 20.48571 64.45 27.385712 Q 60.7 34.285713 60.7 41.98571 Q 60.7 46.98571 62.800003 54.285713 Q 63.1 55.38571 64.3 55.585712 Q 65.3 55.68571 66 54.88571 Q 66.3 54.485714 68.850006 51.33571 Q 71.4 48.185715 72.2 47.13571 Q 73 46.08571 74.9 43.13571 Q 76.8 40.185715 77.55 38.23571 Q 78.3 36.285713 79 33.38571 Q 79.7 30.48571 79.7 27.585709 Q 79.7 23.385712 78.4 18.98571 Z " fill="black"/>
    <path d="M 92 355.2857 Q 92 353.1857 93.5 351.6857 Q 95 350.1857 97.100006 350.1857 Q 99.200005 350.1857 100.700005 351.6857 Q 102.200005 353.1857 102.200005 355.2857 Q 102.200005 357.3857 100.700005 358.8857 Q 99.200005 360.3857 97.100006 360.3857 Q 95 360.3857 93.5 358.8857 Q 92 357.3857 92 355.2857 Z M 92 330.2857 Q 92 328.1857 93.5 326.6857 Q 95 325.1857 97.100006 325.1857 Q 99.200005 325.1857 100.700005 326.6857 Q 102.200005 328.1857 102.200005 330.2857 Q 102.200005 332.3857 100.700005 333.8857 Q 99.200005 335.3857 97.100006 335.3857 Q 95 335.3857 93.5 333.8857 Q 92 332.3857 92 330.2857 Z M 47.2 330.8857 Q 51.7 330.8857 54.6 333.7857 Q 57.5 336.6857 57.5 340.8857 Q 57.5 345.2857 54.6 348.3857 Q 51.7 351.48572 47.5 351.48572 Q 43 351.48572 39.65 348.3857 Q 36.3 345.2857 36.3 340.8857 Q 36.3 330.08572 43.5 323.2857 Q 50.7 316.48572 61.4 316.48572 Q 73.5 316.48572 81.15 323.4357 Q 88.8 330.3857 88.8 341.58572 Q 88.8 376.98572 37.4 399.6857 Q 36.7 399.98572 36.3 399.98572 Q 35 399.98572 35 398.6857 Q 35 397.98572 36.3 397.1857 Q 44.3 392.48572 49.55 388.8857 Q 54.800003 385.2857 60.4 380.1857 Q 66 375.0857 69.2 369.9357 Q 72.4 364.7857 74.5 357.7857 Q 76.600006 350.7857 76.600006 342.58572 Q 76.600006 332.1857 72.05 325.8857 Q 67.5 319.58572 59.6 319.58572 Q 54.800003 319.58572 50.9 321.83572 Q 47 324.08572 45.5 327.98572 Q 45.1 329.2857 45.6 329.98572 Q 46.3 330.8857 47.2 330.8857 Z " fill="black"/>
    <path d="M 197 94.185715 Q 197 88.185715 203.6 82.63571 Q 210.2 77.08572 217.1 77.08572 Q 219.9 77.08572 222.45 77.78571 Q 225 78.48571 227.3 80.98571 Q 229.6 83.48571 229.6 87.38571 Q 229.6 92.88571 222.9 98.685715 Q 216.2 104.48571 209.5 104.48571 Q 206.7 104.48571 204.15 103.78571 Q 201.6 103.08572 199.3 100.58572 Q 197 98.08572 197 94.185715 Z " fill="black"/>
    <path d="M 197 119.185715 Q 197 113.185715 203.6 107.63571 Q 210.2 102.08572 217.1 102.08572 Q 219.9 102.08572 222.45 102.78571 Q 225 103.48571 227.3 105.98571 Q 229.6 108.48572 229.6 112.38571 Q 229.6 117.88571 222.9 123.685715 Q 216.2 129.48572 209.5 129.48572 Q 206.7 129.48572 204.15 128.7857 Q 201.6 128.08571 199.3 125.58571 Q 197 123.08571 197 119.185715 Z " fill="black"/>
    <path d="M 174.1 99.38571 Q 174.1 100.58572 175.1 100.98571 Q 176.3 101.48571 177.1 100.685715 Q 183.7 94.685715 183.7 87.08572 Q 183.7 84.38571 182.55 82.38571 Q 181.4 80.38571 179.4 80.38571 Q 177.2 80.38571 175.8 82.28571 Q 174.4 84.185715 174.3 86.685715 L 174.1 99.38571 Z M 176.9 77.28571 Q 181.1 75.185715 183.8 75.185715 Q 187.6 75.185715 189.9 78.185715 Q 192.2 81.185715 192.2 85.38571 Q 192.2 88.28571 191.35 90.63571 Q 190.5 92.98571 188.7 94.935715 Q 186.9 96.88571 185.35 98.185715 Q 183.8 99.48571 181.3 101.33572 Q 178.8 103.185715 177.5 104.28571 Q 177 104.685715 176.2 105.78571 Q 175.4 106.88571 174.65 107.48572 Q 173.9 108.08572 173 108.08572 Q 172 108.08572 171.35 107.38571 Q 170.7 106.685715 170.7 105.58572 L 169.5 45.085712 Q 170.8 44.285713 172.2 44.285713 Q 173.6 44.285713 174.9 45.085712 L 174.3 75.685715 Q 174.3 76.685715 175.1 77.185715 Q 176 77.78571 176.9 77.28571 Z " fill="black"/>
    <path d="M 161.1 106.185715 L 161.1 118.38571 Q 161.1 119.185715 161.6 119.685715 Q 162.1 120.185715 162.9 120.185715 Q 163.2 120.185715 163.5 120.08571 L 164.3 119.78571 Q 164.6 119.685715 165 119.685715 Q 165.8 119.685715 166.4 120.28571 Q 167 120.88571 167 121.685715 L 167 127.685715 Q 167 128.98572 165.7 129.48572 L 162.3 130.7857 Q 161.1 131.2857 161.1 132.38571 L 161.1 146.98572 Q 161.1 147.7857 160.55 148.33571 Q 160 148.88571 159.3 148.88571 Q 158.5 148.88571 157.95 148.33571 Q 157.4 147.7857 157.4 146.98572 L 157.4 135.08572 Q 157.4 134.2857 156.85 133.7857 Q 156.3 133.2857 155.6 133.2857 Q 155.2 133.2857 154.9 133.38571 L 150.3 135.18571 Q 149.1 135.58572 149.1 136.7857 L 149.1 151.38571 Q 149.1 152.18571 148.5 152.73572 Q 147.9 153.2857 147.2 153.2857 Q 146.5 153.2857 145.95 152.73572 Q 145.4 152.18571 145.4 151.38571 L 145.4 139.48572 Q 145.4 138.68571 144.85 138.18571 Q 144.3 137.68571 143.6 137.68571 Q 143.3 137.68571 143 137.7857 L 142.2 138.08572 Q 142 138.18571 141.5 138.18571 Q 140.7 138.18571 140.1 137.58572 Q 139.5 136.98572 139.5 136.18571 L 139.5 130.18571 Q 139.5 128.7857 140.8 128.2857 L 144.2 127.08571 Q 145.4 126.78571 145.4 125.38571 L 145.4 113.185715 Q 145.4 112.38571 144.85 111.88571 Q 144.3 111.38571 143.6 111.38571 Q 143.3 111.38571 143.1 111.48572 L 142.2 111.78571 Q 142 111.88571 141.5 111.88571 Q 140.7 111.88571 140.1 111.28571 Q 139.5 110.685715 139.5 109.88571 L 139.5 103.88571 Q 139.5 102.58572 140.8 102.08572 L 144.3 100.78571 Q 145.4 100.28571 145.4 99.185715 L 145.4 84.58571 Q 145.4 83.78571 145.95 83.23572 Q 146.5 82.685715 147.2 82.685715 Q 147.9 82.685715 148.5 83.23572 Q 149.1 83.78571 149.1 84.58571 L 149.1 96.48571 Q 149.1 97.28571 149.65 97.78571 Q 150.2 98.28571 151 98.28571 Q 151.3 98.28571 151.6 98.185715 L 156.2 96.38571 Q 157.4 95.88571 157.4 94.685715 L 157.4 80.185715 Q 157.4 79.38571 157.95 78.83571 Q 158.5 78.28571 159.3 78.28571 Q 160 78.28571 160.55 78.83571 Q 161.1 79.38571 161.1 80.185715 L 161.1 92.185715 Q 161.1 92.88571 161.6 93.38571 Q 162.1 93.88571 162.8 93.88571 Q 163.1 93.88571 163.5 93.78571 L 164.3 93.48571 Q 164.5 93.38571 165 93.38571 Q 165.8 93.38571 166.4 93.98571 Q 167 94.58571 167 95.38571 L 167 101.38571 Q 167 102.78571 165.7 103.28571 L 162.3 104.48571 Q 161.1 104.78571 161.1 106.185715 Z M 157.4 120.98572 L 157.4 108.88571 Q 157.4 108.185715 156.85 107.63571 Q 156.3 107.08571 155.6 107.08571 Q 155.3 107.08571 155 107.185715 L 150.3 108.88571 Q 149.1 109.38571 149.1 110.58571 L 149.1 122.685715 Q 149.1 123.48572 149.6 123.98572 Q 150.1 124.48572 150.9 124.48572 Q 151.2 124.48572 151.5 124.38571 L 156.2 122.685715 Q 157.4 122.185715 157.4 120.98572 Z " fill="black"/>
    <path d="M 342 94.185715 Q 342 88.185715 348.6 82.63571 Q 355.2 77.08572 362.1 77.08572 Q 364.9 77.08572 367.45 77.78571 Q 370 78.48571 372.3 80.98571 Q 374.6 83.48571 374.6 87.38571 Q 374.6 92.88571 367.9 98.685715 Q 361.2 104.48571 354.5 104.48571 Q 351.7 104.48571 349.15 103.78571 Q 346.6 103.08572 344.3 100.58572 Q 342 98.08572 342 94.185715 Z " fill="black"/>
    <rect x="447" y="40.785713" width="3.7500002" height="100" fill="black"/>
    <rect x="447" y="317.7857" width="3.7500002" height="100" fill="black"/>
    <rect x="293.25" y="342.7857" width="32.5" height="12.5" fill="black"/>
    <path d="M 481 119.185715 Q 481 113.185715 487.6 107.63571 Q 494.2 102.08572 501.1 102.08572 Q 503.9 102.08572 506.45 102.78571 Q 509 103.48571 511.3 105.98571 Q 513.6 108.48572 513.6 112.38571 Q 513.6 117.88571 506.9 123.685715 Q 500.2 129.48572 493.5 129.48572 Q 490.7 129.48572 488.15 128.7857 Q 485.6 128.08571 483.3 125.58571 Q 481 123.08571 481 119.185715 Z " fill="black"/>
    <path d="M 481 371.1857 Q 481 365.1857 487.6 359.6357 Q 494.2 354.0857 501.1 354.0857 Q 503.9 354.0857 506.45 354.7857 Q 509 355.48572 511.3 357.98572 Q 513.6 360.48572 513.6 364.3857 Q 513.6 369.8857 506.9 375.6857 Q 500.2 381.48572 493.5 381.48572 Q 490.7 381.48572 488.15 380.7857 Q 485.6 380.0857 483.3 377.5857 Q 481 375.0857 481 371.1857 Z " fill="black"/>
    <path d="M 586 131.68571 Q 586 125.685715 592.6 120.13571 Q 599.2 114.58571 606.1 114.58571 Q 608.9 114.58571 611.45 115.28571 Q 614 115.98572 616.3 118.48572 Q 618.6 120.98572 618.6 124.88571 Q 618.6 130.38571 611.9 136.18571 Q 605.2 141.98572 598.5 141.98572 Q 595.7 141.98572 593.15 141.2857 Q 590.6 140.58571 588.3 138.08571 Q 586 135.58571 586 131.68571 Z " fill="black"/>
    <path d="M 586 371.1857 Q 586 365.1857 592.6 359.6357 Q 599.2 354.0857 606.1 354.0857 Q 608.9 354.0857 611.45 354.7857 Q 614 355.48572 616.3 357.98572 Q 618.6 360.48572 618.6 364.3857 Q 618.6 369.8857 611.9 375.6857 Q 605.2 381.48572 598.5 381.48572 Q 595.7 381.48572 593.15 380.7857 Q 590.6 380.0857 588.3 377.5857 Q 586 375.0857 586 371.1857 Z " fill="black"/>
    <path d="M 661 144.18571 Q 661 138.18571 667.6 132.63571 Q 674.2 127.08571 681.1 127.08571 Q 683.9 127.08571 686.45 127.78571 Q 689 128.48572 691.3 130.98572 Q 693.6 133.48572 693.6 137.38571 Q 693.6 142.88571 686.9 148.68571 Q 680.2 154.48572 673.5 154.48572 Q 670.7 154.48572 668.15 153.7857 Q 665.6 153.08571 663.3 150.58571 Q 661 148.08571 661 144.18571 Z " fill="black"/>
    <path d="M 721 131.68571 Q 721 125.685715 727.6 120.13571 Q 734.2 114.58571 741.1 114.58571 Q 743.9 114.58571 746.45 115.28571 Q 749 115.98572 751.3 118.48572 Q 753.6 120.98572 753.6 124.88571 Q 753.6 130.38571 746.9 136.18571 Q 740.2 141.98572 733.5 141.98572 Q 730.7 141.98572 728.15 141.2857 Q 725.6 140.58571 723.3 138.08571 Q 721 135.58571 721 131.68571 Z " fill="red"/>
    <rect x="781" y="40.785713" width="3.7500002" height="100" fill="black"/>
    <rect x="602.25" y="40.785713" width="32.5" height="12.5" fill="black"/>
    <rect x="781" y="317.7857" width="3.7500002" height="100" fill="black"/>
    <rect x="1065" y="40.785713" width="3.7500002" height="100" fill="black"/>
    <rect x="911.25" y="40.785713" width="32.5" height="12.5" fill="black"/>
    <rect x="911.25" y="115.78571" width="32.5" height="12.5" fill="black"/>
    <rect x="1065" y="317.7857" width="3.7500002" height="100" fill="black"/>
    <rect x="911.25" y="342.7857" width="32.5" height="12.5" fill="black"/>
    <line x1="228" y1="1.5" x2="228" y2="111.78571" stroke="black" stroke-width="3"/>
    <line x1="343.5" y1="94.78571" x2="343.5" y2="180.07143" stroke="black" stroke-width="3"/>
    <line x1="482.5" y1="119.78571" x2="482.5" y2="205.07143" stroke="black" stroke-width="3"/>
    <line x1="587.5" y1="132.2857" x2="587.5" y2="230.07141" stroke="black" stroke-width="3"/>
    <line x1="722.5" y1="132.2857" x2="722.5" y2="230.07141" stroke="black" stroke-width="3"/>
    <line x1="662.5" y1="144.7857" x2="662.5" y2="230.07141" stroke="black" stroke-width="3"/>
    <path d="M 586 230.07141 L 724 230.07141 L 724 215.07141 L 586 215.07141 L 586 230.07141 " fill="black"/>
    <path d="M 661 205.07141 L 724 205.07141 L 724 190.07141 L 661 190.07141 L 661 205.07141 " fill="black"/>
    <line x1="482.5" y1="371.7857" x2="482.5" y2="457.0714" stroke="black" stroke-width="3"/>
    <line x1="587.5" y1="371.7857" x2="587.5" y2="457.0714" stroke="black" stroke-width="3"/>
    <rect x="0" y="0" width="1070" height="458.5714" stroke="transparent" stroke-width="1" fill="none"/>
</svg>
