<svg xmlns="http://www.w3.org/2000/svg" xmlns:xlink="http://www.w3.org/1999/xlink" width="875.75" height="611.18695"
    viewBox="0 0 875.75 611.18695">
    <defs visibility="hidden" />
    <line x1="25" y1="127.2852" x2="25" y2="479.28522" stroke="black" stroke-width="2.5" />
    <rect x="0" y="122.2852" width="12.5" height="362" fill="black" />
    <path d="M 0 122.2852 L 25 112.2852 L 25 114.2852 L 12.5 122.2852 " fill="black" />
    <path d="M 0 484.28522 L 25 494.28522 L 25 492.28522 L 12.5 484.28522 " fill="black" />
    <line x1="25" y1="127.2852" x2="874.5" y2="127.2852" stroke="black" stroke-width="2.5" />
    <line x1="25" y1="152.2852" x2="874.5" y2="152.2852" stroke="black" stroke-width="2.5" />
    <line x1="25" y1="177.2852" x2="874.5" y2="177.2852" stroke="black" stroke-width="2.5" />
    <line x1="25" y1="202.2852" x2="874.5" y2="202.2852" stroke="black" stroke-width="2.5" />
    <line x1="25" y1="227.2852" x2="874.5" y2="227.2852" stroke="black" stroke-width="2.5" />
    <line x1="25" y1="379.28522" x2="874.5" y2="379.28522" stroke="black" stroke-width="2.5" />
    <line x1="25" y1="404.28522" x2="874.5" y2="404.28522" stroke="black" stroke-width="2.5" />
    <line x1="25" y1="429.28522" x2="874.5" y2="429.28522" stroke="black" stroke-width="2.5" />
    <line x1="25" y1="454.28522" x2="874.5" y2="454.28522" stroke="black" stroke-width="2.5" />
    <line x1="25" y1="479.28522" x2="874.5" y2="479.28522" stroke="black" stroke-width="2.5" />
    <path
        d="M 59.800003 145.7852 Q 57.5 138.4852 56.6 132.7852 Q 55.800003 127.9852 55.800003 121.5852 Q 55.800003 119.3852 55.9 117.1852 Q 56.300003 107.6852 59.800003 99.7352 Q 63.300003 91.7852 70.3 87.5852 Q 70.8 87.2852 71.600006 87.2852 Q 72.3 87.2852 72.8 87.7852 Q 78.4 93.3852 81.4 102.0852 Q 84.4 110.7852 84.4 119.6852 Q 84.4 129.9852 80 139.8852 Q 75.8 149.7852 68.2 157.3852 Q 67.600006 157.9852 67.8 158.9852 L 71.8 174.9852 Q 72.100006 176.5852 73.8 176.38521 Q 75.4 176.1852 76.9 176.1852 Q 82.7 176.1852 87.4 178.4852 Q 92.100006 180.7852 95 184.4852 Q 97.9 188.1852 99.450005 192.63521 Q 101 197.0852 101 201.7852 Q 101 210.38521 96.2 217.3352 Q 91.4 224.2852 84.7 226.4852 Q 83.3 226.9852 83.600006 228.5852 Q 86.100006 240.38521 86.2 248.4852 Q 86.2 251.5852 85.8 254.5852 Q 85 261.4852 79.8 266.68518 Q 74.600006 271.8852 67.4 271.8852 Q 58.6 271.8852 52.5 266.5852 Q 46.4 261.28522 46.4 252.6852 Q 46.4 248.2852 49.5 245.0852 Q 52.6 241.88521 56.800003 241.88521 Q 61.1 241.88521 64.05 244.9352 Q 67 247.9852 67 252.1852 Q 67 255.7852 64.6 258.4852 Q 62.2 261.28522 58.800003 261.5852 Q 57.6 261.68518 57.2 262.78522 Q 56.800003 263.8852 58 264.78522 Q 61.6 267.5852 66.8 267.5852 Q 72.5 267.5852 76.65 263.4852 Q 80.8 259.3852 81.5 254.1852 Q 82 250.5852 82 246.9852 Q 82 239.1852 79.600006 229.6852 Q 79.2 227.9852 77.4 228.1852 Q 73.4 228.6852 70 228.6852 Q 55.2 228.6852 45.1 219.38521 Q 35 210.0852 35 194.0852 Q 35 189.1852 36.15 184.4352 Q 37.3 179.6852 38.75 176.2352 Q 40.2 172.7852 43.25 168.2352 Q 46.3 163.6852 48.15 161.2852 Q 50 158.8852 54 154.1352 Q 58 149.3852 59.5 147.4852 Q 60.1 146.7852 59.800003 145.7852 Z M 75.4 191.4852 L 81.9 220.9852 Q 82.2 222.2852 83.7 222.2852 Q 84.100006 222.2852 84.4 222.1852 Q 88.5 220.4852 91.2 215.5852 Q 93.9 210.6852 93.9 205.88521 Q 93.9 198.88521 89.8 194.0852 Q 85.600006 189.1852 77.2 189.1852 Q 76.5 189.1852 75.95 189.7352 Q 75.4 190.2852 75.4 190.9852 Q 75.3 191.2852 75.4 191.4852 Z M 61.6 163.6852 Q 60 165.4852 56.85 168.8352 Q 53.7 172.1852 52.15 173.9352 Q 50.6 175.6852 48.35 178.88521 Q 46.1 182.0852 45 184.7852 Q 43.9 187.4852 43.05 191.38521 Q 42.2 195.2852 42.2 199.6852 Q 42.2 205.7852 45.95 211.4852 Q 49.7 217.1852 56.25 220.7852 Q 62.800003 224.38521 70.3 224.38521 Q 73 224.38521 76.3 224.0852 Q 77.100006 223.9852 77.600006 223.3352 Q 78.100006 222.6852 77.9 221.88521 L 71.4 191.9852 Q 71.100006 190.5852 69.5 190.5852 Q 69.2 190.5852 68.8 190.6852 Q 64.2 192.38521 62.300003 195.4852 Q 60.4 198.5852 60.4 203.2852 Q 60.4 208.7852 66.4 212.7852 Q 67.100006 213.2852 67.100006 214.2852 Q 67.100006 215.0852 66.45 215.7852 Q 65.8 216.4852 64.9 216.4852 Q 64.4 216.4852 64 216.2852 Q 58.300003 213.2852 55.550003 208.13521 Q 52.800003 202.9852 52.800003 197.2852 Q 52.800003 191.7852 56.75 185.9352 Q 60.7 180.0852 66.6 177.88521 Q 68.100006 177.2852 67.8 175.7852 L 64.8 164.4852 Q 64.6 163.3852 63.4 163.1852 Q 62.2 162.9852 61.6 163.6852 Z M 78.4 105.4852 Q 77.600006 102.8852 75.7 102.8852 Q 75.100006 102.8852 74.600006 103.1852 Q 68.2 106.9852 64.45 113.8852 Q 60.7 120.7852 60.7 128.4852 Q 60.7 133.4852 62.800003 140.7852 Q 63.1 141.8852 64.3 142.0852 Q 65.3 142.1852 66 141.3852 Q 66.3 140.9852 68.850006 137.8352 Q 71.4 134.68521 72.2 133.6352 Q 73 132.5852 74.9 129.6352 Q 76.8 126.6852 77.55 124.7352 Q 78.3 122.7852 79 119.8852 Q 79.7 116.9852 79.7 114.0852 Q 79.7 109.8852 78.4 105.4852 Z "
        fill="black" />
    <path
        d="M 92 416.78522 Q 92 414.68518 93.5 413.18518 Q 95 411.68518 97.100006 411.68518 Q 99.200005 411.68518 100.700005 413.18518 Q 102.200005 414.68518 102.200005 416.78522 Q 102.200005 418.8852 100.700005 420.3852 Q 99.200005 421.8852 97.100006 421.8852 Q 95 421.8852 93.5 420.3852 Q 92 418.8852 92 416.78522 Z M 92 391.78522 Q 92 389.68518 93.5 388.18518 Q 95 386.68518 97.100006 386.68518 Q 99.200005 386.68518 100.700005 388.18518 Q 102.200005 389.68518 102.200005 391.78522 Q 102.200005 393.8852 100.700005 395.3852 Q 99.200005 396.8852 97.100006 396.8852 Q 95 396.8852 93.5 395.3852 Q 92 393.8852 92 391.78522 Z M 47.2 392.3852 Q 51.7 392.3852 54.6 395.28522 Q 57.5 398.18518 57.5 402.3852 Q 57.5 406.78522 54.6 409.8852 Q 51.7 412.98523 47.5 412.98523 Q 43 412.98523 39.65 409.8852 Q 36.3 406.78522 36.3 402.3852 Q 36.3 391.5852 43.5 384.78522 Q 50.7 377.98523 61.4 377.98523 Q 73.5 377.98523 81.15 384.93518 Q 88.8 391.8852 88.8 403.0852 Q 88.8 438.48523 37.4 461.18518 Q 36.7 461.48523 36.3 461.48523 Q 35 461.48523 35 460.18518 Q 35 459.48523 36.3 458.68518 Q 44.3 453.98523 49.55 450.3852 Q 54.800003 446.78522 60.4 441.68518 Q 66 436.5852 69.2 431.43518 Q 72.4 426.28522 74.5 419.28522 Q 76.600006 412.28522 76.600006 404.0852 Q 76.600006 393.68518 72.05 387.3852 Q 67.5 381.0852 59.6 381.0852 Q 54.800003 381.0852 50.9 383.3352 Q 47 385.5852 45.5 389.48523 Q 45.1 390.78522 45.6 391.48523 Q 46.3 392.3852 47.2 392.3852 Z "
        fill="black" />
    <path
        d="M 155.71002 9.4439125 L 150.23666 8.680195 L 150.23666 5.4980125 L 184.286 5.4980125 L 184.92242 16.317425 L 180.7856 16.317425 L 178.8763 9.252987 L 162.51988 8.80748 L 162.51988 27.26412 L 174.03938 27.07319 L 175.12132 21.790771 L 178.49443 21.790771 L 178.49443 36.683372 L 175.18497 36.683372 L 174.03938 31.146381 L 162.51988 30.891806 L 162.51988 49.03023 L 172.44829 49.666664 L 172.44829 52.785202 L 150.61853 52.785202 L 150.61853 49.666664 L 155.71002 49.03023 L 155.71002 9.4439125 Z "
        fill="black" />
    <path
        d="M 148 193.1852 Q 148 187.1852 154.6 181.63521 Q 161.2 176.0852 168.1 176.0852 Q 170.9 176.0852 173.45 176.7852 Q 176 177.4852 178.3 179.9852 Q 180.6 182.4852 180.6 186.38521 Q 180.6 191.88521 173.9 197.6852 Q 167.2 203.4852 160.5 203.4852 Q 157.7 203.4852 155.15 202.7852 Q 152.6 202.0852 150.3 199.5852 Q 148 197.0852 148 193.1852 Z "
        fill="black" />
    <path
        d="M 148 218.1852 Q 148 212.1852 154.6 206.63521 Q 161.2 201.0852 168.1 201.0852 Q 170.9 201.0852 173.45 201.7852 Q 176 202.4852 178.3 204.9852 Q 180.6 207.4852 180.6 211.38521 Q 180.6 216.88521 173.9 222.6852 Q 167.2 228.4852 160.5 228.4852 Q 157.7 228.4852 155.15 227.7852 Q 152.6 227.0852 150.3 224.5852 Q 148 222.0852 148 218.1852 Z "
        fill="black" />
    <path
        d="M 148 255.6852 Q 148 249.6852 154.6 244.13521 Q 161.2 238.5852 168.1 238.5852 Q 170.9 238.5852 173.45 239.2852 Q 176 239.9852 178.3 242.4852 Q 180.6 244.9852 180.6 248.88521 Q 180.6 254.38521 173.9 260.18518 Q 167.2 265.9852 160.5 265.9852 Q 157.7 265.9852 155.15 265.28522 Q 152.6 264.5852 150.3 262.0852 Q 148 259.5852 148 255.6852 Z "
        fill="black" />
    <rect x="139.25" y="251.0352" width="50" height="2.5" fill="black" />
    <path
        d="M 148 407.68518 Q 148 401.68518 154.6 396.1352 Q 161.2 390.5852 168.1 390.5852 Q 170.9 390.5852 173.45 391.28522 Q 176 391.98523 178.3 394.48523 Q 180.6 396.98523 180.6 400.8852 Q 180.6 406.3852 173.9 412.18518 Q 167.2 417.98523 160.5 417.98523 Q 157.7 417.98523 155.15 417.28522 Q 152.6 416.5852 150.3 414.0852 Q 148 411.5852 148 407.68518 Z "
        fill="black" />
    <path
        d="M 156.16278 595.9125 Q 153.5534 595.3397 150.43488 594.3851 Q 148.52556 593.685 147.57089 593.62134 L 148.08005 582.10187 L 152.15324 582.10187 L 153.23518 590.3755 Q 154.31712 591.3938 156.7674 592.18933 Q 159.21768 592.9849 162.14528 592.9849 Q 166.9822 592.9849 169.49612 590.82104 Q 172.01004 588.65717 172.01004 584.8385 Q 172.01004 582.35645 170.64171 580.5744 Q 169.27338 578.79236 167.01402 577.51953 Q 164.75467 576.24664 160.80878 574.52826 Q 157.24474 572.9372 154.60352 571.2824 Q 151.96231 569.6277 150.02118 566.8592 Q 148.08005 564.0907 148.08005 560.20844 Q 148.08005 556.70807 149.95753 553.9396 Q 151.83502 551.1711 155.36725 549.57996 Q 158.89946 547.9889 163.60909 547.9889 Q 166.5367 547.9889 168.79604 548.4344 Q 171.05539 548.8799 173.91934 549.6436 Q 175.19221 550.0891 176.08324 550.2164 L 175.70137 560.9085 L 171.8191 560.9085 L 170.54623 553.0804 Q 169.9098 552.4439 167.90503 551.87115 Q 165.90025 551.29834 163.54544 551.29834 Q 159.15404 551.29834 156.89468 553.144 Q 154.63535 554.9897 154.63535 558.49005 Q 154.63535 561.0358 156.00368 562.7542 Q 157.37201 564.4726 159.40862 565.6818 Q 161.4452 566.89105 165.90025 568.9913 Q 170.0371 570.96423 172.64648 572.5553 Q 175.25586 574.1464 177.13335 576.72394 Q 179.01083 579.3015 179.01083 582.86554 Q 179.01083 586.2387 177.13335 589.35724 Q 175.25586 592.47577 171.40543 594.4805 Q 167.555 596.4853 162.08163 596.4853 Q 158.77217 596.4853 156.16278 595.9125 Z "
        fill="black" />
    <path
        d="M 231.96002 9.4439125 L 226.99582 8.680195 L 226.99582 5.4980125 L 235.33313 5.4980125 Q 237.30609 5.4980125 240.9974 5.2434387 Q 244.68874 4.988865 246.53441 4.988865 Q 258.37213 4.988865 264.13187 10.939537 Q 269.8916 16.890217 269.8916 27.645985 Q 269.8916 35.15593 266.9322 40.979317 Q 263.97275 46.802704 258.6267 50.048527 Q 253.28062 53.29435 246.34348 53.29435 Q 244.81602 53.29435 241.1247 53.039776 Q 237.30609 52.785202 235.39677 52.785202 L 226.67761 52.785202 L 226.67761 49.666664 L 231.96002 49.03023 L 231.96002 9.4439125 Z M 244.43417 49.73031 L 246.34348 49.73031 Q 251.11674 49.666664 254.77625 47.31185 Q 258.43576 44.95704 260.47235 40.279236 Q 262.50894 35.601433 262.50894 28.918856 Q 262.50894 18.863167 258.14935 13.644394 Q 253.78978 8.425617 245.00696 8.425617 Q 243.1613 8.425617 240.61555 8.680195 Q 239.53362 8.87112 238.70624 8.87112 L 238.70624 49.22116 Q 240.93378 49.73031 244.43417 49.73031 Z "
        fill="black" />
    <path
        d="M 276.55032 49.666664 L 280.43256 49.093872 L 280.43256 22.363565 L 275.85022 21.217981 L 275.85022 17.781227 L 284.95126 16.635643 L 286.09686 17.463009 L 286.47873 20.00875 L 286.41507 22.045347 Q 288.6426 20.00875 292.49304 18.322197 Q 296.34348 16.635643 299.39838 16.635643 Q 302.8351 16.635643 304.93536 17.781227 Q 307.03558 18.926811 308.11755 21.345266 Q 310.15414 19.626888 313.81363 18.131264 Q 317.47314 16.635643 320.65533 16.635643 Q 324.60123 16.635643 326.82877 18.131264 Q 329.05627 19.626888 329.97913 22.777248 Q 330.90195 25.927605 330.90195 31.210024 L 330.90195 49.093872 L 335.48428 49.666664 L 335.48428 52.785202 L 320.3371 52.785202 L 320.3371 49.666664 L 324.28302 49.093872 L 324.28302 31.400955 Q 324.28302 27.709627 323.74203 25.513924 Q 323.20108 23.318218 321.70544 22.236277 Q 320.20984 21.154337 317.40952 21.154337 Q 315.30927 21.154337 312.95447 22.077168 Q 310.59964 23 308.94492 24.272873 Q 309.5177 26.754972 309.5177 31.337313 L 309.5177 49.093872 L 314.03638 49.666664 L 314.03638 52.785202 L 298.63464 52.785202 L 298.63464 49.666664 L 302.8351 49.093872 L 302.8351 31.273666 Q 302.8351 27.455051 302.3578 25.354815 Q 301.88046 23.254576 300.54395 22.204456 Q 299.20743 21.154337 296.47076 21.154337 Q 294.1796 21.154337 291.60202 22.299921 Q 289.02448 23.445505 287.11514 24.972952 L 287.11514 49.093872 L 291.37927 49.666664 L 291.37927 52.785202 L 276.55032 52.785202 L 276.55032 49.666664 Z "
        fill="black" />
    <path
        d="M 341.43497 36.610977 Q 344.01254 30.97852 346.3753 25.274464 Q 348.73807 19.570406 352.98627 9.116945 L 355.2297 3.4844894 L 341.10083 3.675415 L 339.09607 10.023867 L 336.04117 9.451075 L 337.04355 0 L 358.80966 0 L 359.81204 1.288784 Q 357.47314 7.828163 353.27267 19.642004 Q 349.0722 31.455847 346.78104 38.042957 L 341.43497 36.610977 Z "
        fill="black" />
    <path
        d="M 253 193.1852 Q 253 187.1852 259.6 181.63521 Q 266.2 176.0852 273.1 176.0852 Q 275.9 176.0852 278.45 176.7852 Q 281 177.4852 283.3 179.9852 Q 285.6 182.4852 285.6 186.38521 Q 285.6 191.88521 278.9 197.6852 Q 272.2 203.4852 265.5 203.4852 Q 262.7 203.4852 260.15 202.7852 Q 257.6 202.0852 255.3 199.5852 Q 253 197.0852 253 193.1852 Z "
        fill="black" />
    <path
        d="M 253 218.1852 Q 253 212.1852 259.6 206.63521 Q 266.2 201.0852 273.1 201.0852 Q 275.9 201.0852 278.45 201.7852 Q 281 202.4852 283.3 204.9852 Q 285.6 207.4852 285.6 211.38521 Q 285.6 216.88521 278.9 222.6852 Q 272.2 228.4852 265.5 228.4852 Q 262.7 228.4852 260.15 227.7852 Q 257.6 227.0852 255.3 224.5852 Q 253 222.0852 253 218.1852 Z "
        fill="black" />
    <path
        d="M 253 255.6852 Q 253 249.6852 259.6 244.13521 Q 266.2 238.5852 273.1 238.5852 Q 275.9 238.5852 278.45 239.2852 Q 281 239.9852 283.3 242.4852 Q 285.6 244.9852 285.6 248.88521 Q 285.6 254.38521 278.9 260.18518 Q 272.2 265.9852 265.5 265.9852 Q 262.7 265.9852 260.15 265.28522 Q 257.6 264.5852 255.3 262.0852 Q 253 259.5852 253 255.6852 Z "
        fill="black" />
    <rect x="244.25" y="251.0352" width="50" height="2.5" fill="black" />
    <path
        d="M 253 432.68518 Q 253 426.68518 259.6 421.1352 Q 266.2 415.5852 273.1 415.5852 Q 275.9 415.5852 278.45 416.28522 Q 281 416.98523 283.3 419.48523 Q 285.6 421.98523 285.6 425.8852 Q 285.6 431.3852 278.9 437.18518 Q 272.2 442.98523 265.5 442.98523 Q 262.7 442.98523 260.15 442.28522 Q 257.6 441.5852 255.3 439.0852 Q 253 436.5852 253 432.68518 Z "
        fill="black" />
    <path
        d="M 247.41278 595.9125 Q 244.8034 595.3397 241.68486 594.3851 Q 239.77556 593.685 238.8209 593.62134 L 239.33005 582.10187 L 243.40324 582.10187 L 244.48518 590.3755 Q 245.56712 591.3938 248.0174 592.18933 Q 250.46768 592.9849 253.39528 592.9849 Q 258.23218 592.9849 260.74612 590.82104 Q 263.26004 588.65717 263.26004 584.8385 Q 263.26004 582.35645 261.89172 580.5744 Q 260.52338 578.79236 258.26404 577.51953 Q 256.00467 576.24664 252.05878 574.52826 Q 248.49474 572.9372 245.85352 571.2824 Q 243.21231 569.6277 241.27118 566.8592 Q 239.33005 564.0907 239.33005 560.20844 Q 239.33005 556.70807 241.20753 553.9396 Q 243.08502 551.1711 246.61725 549.57996 Q 250.14946 547.9889 254.85909 547.9889 Q 257.78668 547.9889 260.04602 548.4344 Q 262.3054 548.8799 265.16934 549.6436 Q 266.4422 550.0891 267.33325 550.2164 L 266.95135 560.9085 L 263.0691 560.9085 L 261.79623 553.0804 Q 261.1598 552.4439 259.15503 551.87115 Q 257.15027 551.29834 254.79544 551.29834 Q 250.40404 551.29834 248.14468 553.144 Q 245.88535 554.9897 245.88535 558.49005 Q 245.88535 561.0358 247.25368 562.7542 Q 248.62201 564.4726 250.65862 565.6818 Q 252.6952 566.89105 257.15027 568.9913 Q 261.2871 570.96423 263.89648 572.5553 Q 266.50586 574.1464 268.38336 576.72394 Q 270.26083 579.3015 270.26083 582.86554 Q 270.26083 586.2387 268.38336 589.35724 Q 266.50586 592.47577 262.65543 594.4805 Q 258.805 596.4853 253.33163 596.4853 Q 250.02217 596.4853 247.41278 595.9125 Z M 304.34262 586.77966 Q 302.1151 591.26654 297.97827 593.8759 Q 293.84143 596.4853 288.30444 596.4853 Q 286.77698 596.4853 284.99496 596.2307 Q 283.21295 595.97614 282.131 595.5943 L 282.32193 600.94037 L 282.32193 607.36835 L 288.94086 608.0684 L 288.94086 611.18695 L 271.18433 611.18695 L 271.18433 608.0684 L 275.76666 607.36835 L 275.76666 565.3636 L 271.12067 564.218 L 271.12067 560.78125 L 280.15805 559.6357 L 280.28534 559.6357 L 281.62186 560.78125 L 281.62186 564.5362 Q 283.53116 562.436 286.3633 560.97217 Q 289.19543 559.50836 292.69583 559.50836 Q 296.4508 559.50836 299.60117 561.35406 Q 302.75153 563.1997 304.66083 567.082 Q 306.57013 570.96423 306.57013 576.88306 Q 306.57013 582.2928 304.34262 586.77966 Z M 285.56775 564.98175 Q 283.46753 566 282.32193 567.2092 L 282.32193 591.2029 Q 282.76746 591.9666 284.5813 592.5712 Q 286.39514 593.17584 288.55902 593.17584 Q 293.45956 593.17584 296.48264 589.2936 Q 299.5057 585.4113 299.5057 577.5831 Q 299.5057 570.70966 296.8645 567.33655 Q 294.2233 563.96344 290.08646 563.96344 Q 287.668 563.96344 285.56775 564.98175 Z "
        fill="black" />
    <path
        d="M 310.49832 569.33575 Q 312.21667 565.58075 313.79187 561.7781 Q 315.36703 557.97534 318.1992 551.0064 L 319.6948 547.2514 L 310.27554 547.37866 L 308.93903 551.611 L 306.90244 551.2291 L 307.5707 544.9284 L 322.08145 544.9284 L 322.7497 545.7876 Q 321.19043 550.14716 318.3901 558.0231 Q 315.58978 565.899 314.06235 570.2904 L 310.49832 569.33575 Z "
        fill="black" />
    <path
        d="M 403.95148 50.43039 Q 398.95544 47.375496 396.34607 41.997612 Q 393.73666 36.619728 393.73666 29.809866 Q 393.73666 21.981705 396.8234 16.381065 Q 399.9101 10.780434 405.38345 7.8846474 Q 410.8568 4.988865 417.8576 4.988865 Q 424.28558 4.988865 432.68655 6.961815 L 432.11377 17.972157 L 427.59506 17.972157 L 426.06763 10.334923 Q 425.1766 9.634846 423.04456 8.998409 Q 420.91248 8.361977 417.34845 8.361977 Q 412.70245 8.361977 409.13843 10.653141 Q 405.57437 12.944313 403.5696 17.463009 Q 401.56485 21.981705 401.56485 28.409706 Q 401.56485 34.32856 403.18774 39.22912 Q 404.81067 44.129673 408.15195 47.0891 Q 411.49323 50.048527 416.33014 50.048527 Q 419.38504 50.048527 422.1217 49.316628 Q 424.8584 48.584724 426.3222 47.375496 L 426.3222 33.182976 L 418.3031 32.54654 L 418.3031 28.791567 L 436.88702 28.791567 L 436.88702 32.54654 L 433.1957 33.11933 L 433.1957 50.239456 Q 431.79553 50.3031 428.5497 51.3214 Q 425.24026 52.3397 422.31265 52.91249 Q 419.38504 53.485283 415.821 53.485283 Q 408.94748 53.485283 403.95148 50.43039 Z "
        fill="black" />
    <path
        d="M 394 205.6852 Q 394 199.6852 400.6 194.13521 Q 407.2 188.5852 414.1 188.5852 Q 416.9 188.5852 419.45 189.2852 Q 422 189.9852 424.3 192.4852 Q 426.6 194.9852 426.6 198.88521 Q 426.6 204.38521 419.9 210.1852 Q 413.2 215.9852 406.5 215.9852 Q 403.7 215.9852 401.15 215.2852 Q 398.6 214.5852 396.3 212.0852 Q 394 209.5852 394 205.6852 Z "
        fill="black" />
    <path
        d="M 418.9 229.6852 Q 416 229.6852 406.65 236.2352 Q 397.3 242.7852 397.3 245.7852 Q 397.3 247.88521 399.1 248.88521 Q 400.9 249.88521 403.4 249.88521 Q 406.3 249.88521 415.65 243.3352 Q 425 236.7852 425 233.7852 Q 425 231.6852 423.2 230.6852 Q 421.4 229.6852 418.9 229.6852 Z M 394 243.5852 Q 394 236.38521 400.2 231.2352 Q 406.4 226.0852 415.2 226.0852 Q 418.2 226.0852 420.8 226.6852 Q 423.4 227.2852 425.8 229.6852 Q 428.2 232.0852 428.2 235.9852 Q 428.2 243.1852 422 248.3352 Q 415.8 253.4852 407 253.4852 Q 404 253.4852 401.4 252.88521 Q 398.8 252.2852 396.4 249.88521 Q 394 247.4852 394 243.5852 Z "
        fill="black" />
    <path
        d="M 418.9 254.6852 Q 416 254.6852 406.65 261.2352 Q 397.3 267.78522 397.3 270.78522 Q 397.3 272.8852 399.1 273.8852 Q 400.9 274.8852 403.4 274.8852 Q 406.3 274.8852 415.65 268.3352 Q 425 261.78522 425 258.78522 Q 425 256.68518 423.2 255.6852 Q 421.4 254.6852 418.9 254.6852 Z M 394 268.5852 Q 394 261.3852 400.2 256.2352 Q 406.4 251.0852 415.2 251.0852 Q 418.2 251.0852 420.8 251.6852 Q 423.4 252.2852 425.8 254.6852 Q 428.2 257.0852 428.2 260.9852 Q 428.2 268.18518 422 273.3352 Q 415.8 278.4852 407 278.4852 Q 404 278.4852 401.4 277.8852 Q 398.8 277.28522 396.4 274.8852 Q 394 272.4852 394 268.5852 Z "
        fill="black" />
    <rect x="385.25" y="251.0352" width="51.75" height="2.5" fill="black" />
    <path
        d="M 394 395.18518 Q 394 389.18518 400.6 383.6352 Q 407.2 378.0852 414.1 378.0852 Q 416.9 378.0852 419.45 378.78522 Q 422 379.48523 424.3 381.98523 Q 426.6 384.48523 426.6 388.3852 Q 426.6 393.8852 419.9 399.68518 Q 413.2 405.48523 406.5 405.48523 Q 403.7 405.48523 401.15 404.78522 Q 398.6 404.0852 396.3 401.5852 Q 394 399.0852 394 395.18518 Z "
        fill="black" />
    <path
        d="M 397.83502 552.4439 L 392.87082 551.68024 L 392.87082 548.498 L 401.20813 548.498 Q 403.1811 548.498 406.8724 548.24347 Q 410.56375 547.9889 412.4094 547.9889 Q 424.2471 547.9889 430.00687 553.9396 Q 435.7666 559.89026 435.7666 570.646 Q 435.7666 578.15594 432.8072 583.9793 Q 429.84775 589.80273 424.50168 593.0485 Q 419.15564 596.2944 412.21848 596.2944 Q 410.69104 596.2944 406.9997 596.0398 Q 403.1811 595.7852 401.2718 595.7852 L 392.5526 595.7852 L 392.5526 592.6667 L 397.83502 592.0303 L 397.83502 552.4439 Z M 410.30917 592.73035 L 412.21848 592.73035 Q 416.99176 592.6667 420.65125 590.3119 Q 424.31076 587.95703 426.34735 583.27924 Q 428.38394 578.60144 428.38394 571.9189 Q 428.38394 561.86316 424.02435 556.6444 Q 419.66476 551.42566 410.88196 551.42566 Q 409.0363 551.42566 406.49054 551.68024 Q 405.4086 551.87115 404.58124 551.87115 L 404.58124 592.2212 Q 406.80878 592.73035 410.30917 592.73035 Z "
        fill="black" />
    <path
        d="M 512.43494 36.610977 Q 515.0126 30.97852 517.3753 25.274464 Q 519.73804 19.570406 523.98627 9.116945 L 526.22974 3.4844894 L 512.1008 3.675415 L 510.09607 10.023867 L 507.04117 9.451075 L 508.04355 0 L 529.8097 0 L 530.812 1.288784 Q 528.47314 7.828163 524.2727 19.642004 Q 520.0722 31.455847 517.781 38.042957 L 512.43494 36.610977 Z "
        fill="black" />
    <path
        d="M 499 218.1852 Q 499 212.1852 505.6 206.63521 Q 512.2 201.0852 519.1 201.0852 Q 521.9 201.0852 524.45 201.7852 Q 527 202.4852 529.3 204.9852 Q 531.6 207.4852 531.6 211.38521 Q 531.6 216.88521 524.9 222.6852 Q 518.2 228.4852 511.5 228.4852 Q 508.7 228.4852 506.15 227.7852 Q 503.6 227.0852 501.3 224.5852 Q 499 222.0852 499 218.1852 Z "
        fill="black" />
    <path
        d="M 499 482.68518 Q 499 476.68518 505.6 471.1352 Q 512.2 465.5852 519.1 465.5852 Q 521.9 465.5852 524.45 466.28522 Q 527 466.98523 529.3 469.48523 Q 531.6 471.98523 531.6 475.8852 Q 531.6 481.3852 524.9 487.18518 Q 518.2 492.98523 511.5 492.98523 Q 508.7 492.98523 506.15 492.28522 Q 503.6 491.5852 501.3 489.0852 Q 499 486.5852 499 482.68518 Z "
        fill="black" />
    <path
        d="M 519.1233 569.33575 Q 520.8417 565.58075 522.4169 561.7781 Q 523.99207 557.97534 526.8242 551.0064 L 528.3198 547.2514 L 518.9005 547.37866 L 517.564 551.611 L 515.52747 551.2291 L 516.1957 544.9284 L 530.7064 544.9284 L 531.3747 545.7876 Q 529.8154 550.14716 527.01514 558.0231 Q 524.2148 565.899 522.6874 570.2904 L 519.1233 569.33575 Z "
        fill="black" />
    <rect x="604" y="127.2852" width="3.7500002" height="100" fill="black" />
    <rect x="604" y="379.28522" width="3.7500002" height="100" fill="black" />
    <path
        d="M 658.6241 50.46221 Q 653.6917 47.43914 651.146 41.96579 Q 648.6002 36.492443 648.6002 29.109785 Q 648.6002 21.981705 651.5915 16.508354 Q 654.58276 11.035007 659.8015 8.011936 Q 665.02026 4.988865 671.5119 4.988865 Q 676.4125 4.988865 683.286 6.5163116 L 685.3862 6.8981705 L 684.7498 18.35402 L 680.48566 18.35402 L 678.8946 10.271282 Q 678.0036 9.507561 675.80786 8.966591 Q 673.6122 8.425617 670.43 8.425617 Q 666.3568 8.425617 663.1746 10.748611 Q 659.99243 13.071598 658.1786 17.590294 Q 656.36475 22.10899 656.36475 28.409706 Q 656.36475 34.392204 657.9559 39.292763 Q 659.54694 44.193317 662.7928 47.0891 Q 666.0386 49.984886 670.8118 49.984886 Q 674.18494 49.984886 675.9988 49.412094 Q 677.8126 48.8393 679.0855 47.75736 L 681.75854 41.520287 L 685.76807 42.029434 L 684.24066 51.066826 Q 682.9041 51.13047 680.29474 51.957836 Q 678.0036 52.657913 675.8715 53.071598 Q 673.73944 53.485283 670.55725 53.485283 Q 663.55646 53.485283 658.6241 50.46221 Z "
        fill="black" />
    <path
        d="M 647 225.7852 Q 647 221.38521 651.8 217.4852 Q 656.6 213.5852 665.6 213.5852 Q 671.7 213.5852 676.7 215.0352 Q 681.7 216.4852 685.2 220.0352 Q 688.7 223.5852 688.7 228.7852 Q 688.7 233.9852 684.15 237.4852 Q 679.6 240.9852 671.5 240.9852 Q 666.7 240.9852 662.7 240.2852 Q 658.7 239.5852 655 237.9852 Q 651.3 236.38521 649.15 233.2852 Q 647 230.1852 647 225.7852 Z M 665.6 216.2852 Q 656.8 216.2852 656.8 219.38521 Q 656.8 222.88521 662.15 230.5852 Q 667.5 238.2852 671.1 238.2852 Q 679.7 238.2852 679.7 235.1852 Q 679.7 231.38521 674.15 223.8352 Q 668.6 216.2852 665.6 216.2852 Z "
        fill="black" />
    <path
        d="M 647 250.7852 Q 647 246.38521 651.8 242.4852 Q 656.6 238.5852 665.6 238.5852 Q 671.7 238.5852 676.7 240.0352 Q 681.7 241.4852 685.2 245.0352 Q 688.7 248.5852 688.7 253.7852 Q 688.7 258.9852 684.15 262.4852 Q 679.6 265.9852 671.5 265.9852 Q 666.7 265.9852 662.7 265.28522 Q 658.7 264.5852 655 262.9852 Q 651.3 261.3852 649.15 258.28522 Q 647 255.1852 647 250.7852 Z M 665.6 241.2852 Q 656.8 241.2852 656.8 244.38521 Q 656.8 247.88521 662.15 255.5852 Q 667.5 263.28522 671.1 263.28522 Q 679.7 263.28522 679.7 260.18518 Q 679.7 256.3852 674.15 248.8352 Q 668.6 241.2852 665.6 241.2852 Z "
        fill="black" />
    <path
        d="M 647 288.28522 Q 647 283.8852 651.8 279.9852 Q 656.6 276.0852 665.6 276.0852 Q 671.7 276.0852 676.7 277.53522 Q 681.7 278.9852 685.2 282.53522 Q 688.7 286.0852 688.7 291.28522 Q 688.7 296.48523 684.15 299.98523 Q 679.6 303.48523 671.5 303.48523 Q 666.7 303.48523 662.7 302.78522 Q 658.7 302.0852 655 300.48523 Q 651.3 298.8852 649.15 295.78522 Q 647 292.68518 647 288.28522 Z M 665.6 278.78522 Q 656.8 278.78522 656.8 281.8852 Q 656.8 285.3852 662.15 293.0852 Q 667.5 300.78522 671.1 300.78522 Q 679.7 300.78522 679.7 297.68518 Q 679.7 293.8852 674.15 286.3352 Q 668.6 278.78522 665.6 278.78522 Z "
        fill="black" />
    <rect x="638.25" y="276.03522" width="58.75" height="2.5" fill="black" />
    <rect x="638.25" y="251.0352" width="58.75" height="2.5" fill="black" />
    <path
        d="M 647 440.28522 Q 647 435.8852 651.8 431.98523 Q 656.6 428.0852 665.6 428.0852 Q 671.7 428.0852 676.7 429.53522 Q 681.7 430.98523 685.2 434.53522 Q 688.7 438.0852 688.7 443.28522 Q 688.7 448.48523 684.15 451.98523 Q 679.6 455.48523 671.5 455.48523 Q 666.7 455.48523 662.7 454.78522 Q 658.7 454.0852 655 452.48523 Q 651.3 450.8852 649.15 447.78522 Q 647 444.68518 647 440.28522 Z M 665.6 430.78522 Q 656.8 430.78522 656.8 433.8852 Q 656.8 437.3852 662.15 445.0852 Q 667.5 452.78522 671.1 452.78522 Q 679.7 452.78522 679.7 449.68518 Q 679.7 445.8852 674.15 438.3352 Q 668.6 430.78522 665.6 430.78522 Z "
        fill="black" />
    <path
        d="M 661.08167 551.87115 L 650.13495 552.253 L 647.9074 565.5545 L 643.707 565.5545 L 644.7889 548.498 L 684.43884 548.498 L 685.2026 565.5545 L 681.193 565.5545 L 679.0928 552.253 L 668.08246 551.87115 L 668.08246 592.0303 L 677.1198 592.6667 L 677.1198 595.7852 L 652.808 595.7852 L 652.808 592.6667 L 661.08167 592.0303 L 661.08167 551.87115 Z "
        fill="black" />
    <path
        d="M 857 127.2852 L 860.75 127.2852 L 860.75 227.2852 L 857 227.2852 M 870.75 127.2852 L 874.5 127.2852 L 874.5 227.2852 L 870.75 227.2852 "
        fill="black" />
    <path
        d="M 857 379.28522 L 860.75 379.28522 L 860.75 479.28522 L 857 479.28522 M 870.75 379.28522 L 874.5 379.28522 L 874.5 479.28522 L 870.75 479.28522 "
        fill="black" />
    <line x1="179" y1="100.49949" x2="179" y2="210.7852" stroke="black" stroke-width="3" />
    <line x1="149.5" y1="256.28522" x2="149.5" y2="341.57092" stroke="black" stroke-width="3" />
    <line x1="284" y1="100.49949" x2="284" y2="210.7852" stroke="black" stroke-width="3" />
    <line x1="254.5" y1="256.28522" x2="254.5" y2="341.57092" stroke="black" stroke-width="3" />
    <line x1="425" y1="112.99949" x2="425" y2="198.2852" stroke="black" stroke-width="3" />
    <line x1="395.5" y1="243.7852" x2="395.5" y2="354.07092" stroke="black" stroke-width="3" />
    <line x1="530" y1="125.49949" x2="530" y2="210.7852" stroke="black" stroke-width="3" />
    <line x1="149.5" y1="408.28522" x2="149.5" y2="493.57092" stroke="black" stroke-width="3" />
    <line x1="254.5" y1="433.28522" x2="254.5" y2="518.5709" stroke="black" stroke-width="3" />
    <line x1="395.5" y1="395.78522" x2="395.5" y2="481.07092" stroke="black" stroke-width="3" />
    <line x1="530" y1="389.9995" x2="530" y2="475.28522" stroke="black" stroke-width="3" />
    <rect x="0" y="0" width="875.75" height="611.18695" stroke="transparent" stroke-width="1" fill="none" />
</svg>