<svg xmlns="http://www.w3.org/2000/svg" xmlns:xlink="http://www.w3.org/1999/xlink" width="1486.75" height="223.2857" viewBox="0 0 1486.75 223.2857">
    <defs visibility="hidden"/>
    <line x1="44" y1="82.5" x2="1485.25" y2="82.5" stroke="black" stroke-width="2.5"/>
    <line x1="44" y1="107.5" x2="1485.25" y2="107.5" stroke="black" stroke-width="2.5"/>
    <line x1="44" y1="132.5" x2="1485.25" y2="132.5" stroke="black" stroke-width="2.5"/>
    <line x1="44" y1="157.5" x2="1485.25" y2="157.5" stroke="black" stroke-width="2.5"/>
    <line x1="44" y1="182.5" x2="1485.25" y2="182.5" stroke="black" stroke-width="2.5"/>
    <path d="M 23.355608 28.65871 L 17.436754 27.894993 L 17.436754 24.71281 L 36.147972 24.71281 L 36.147972 27.894993 L 30.229116 28.65871 L 30.229116 68.245026 L 36.147972 68.94511 L 36.147972 72 L 17.500397 72 L 17.500397 68.88146 L 23.355608 68.245026 L 23.355608 28.65871 Z " fill="black"/>
    <line x1="67" y1="2.5" x2="42" y2="85" stroke="black" stroke-width="5"/>
    <path d="M 71.355606 28.65871 L 65.43675 27.894993 L 65.43675 24.71281 L 84.14797 24.71281 L 84.14797 27.894993 L 78.22912 28.65871 L 78.22912 68.245026 L 84.14797 68.94511 L 84.14797 72 L 65.5004 72 L 65.5004 68.88146 L 71.355606 68.245026 L 71.355606 28.65871 Z " fill="black"/>
    <path d="M 91.355606 28.65871 L 85.43675 27.894993 L 85.43675 24.71281 L 104.14797 24.71281 L 104.14797 27.894993 L 98.22912 28.65871 L 98.22912 68.245026 L 104.14797 68.94511 L 104.14797 72 L 85.5004 72 L 85.5004 68.88146 L 91.355606 68.245026 L 91.355606 28.65871 Z " fill="black"/>
    <rect x="1.5" y="20" width="170" height="75" stroke="orange" stroke-width="3" fill="none"/>
    <path d="M 44 135.9 Q 44 129.9 50.6 124.35 Q 57.2 118.8 64.1 118.8 Q 66.9 118.8 69.45 119.5 Q 72 120.2 74.3 122.7 Q 76.600006 125.2 76.600006 129.1 Q 76.600006 134.6 69.9 140.4 Q 63.2 146.2 56.5 146.2 Q 53.7 146.2 51.15 145.5 Q 48.6 144.8 46.3 142.3 Q 44 139.8 44 135.9 Z " fill="black"/>
    <path d="M 193.1056 28.65871 L 187.18675 27.894993 L 187.18675 24.71281 L 205.89796 24.71281 L 205.89796 27.894993 L 199.97911 28.65871 L 199.97911 68.245026 L 205.89796 68.94511 L 205.89796 72 L 187.2504 72 L 187.2504 68.88146 L 193.1056 68.245026 L 193.1056 28.65871 Z " fill="black"/>
    <path d="M 214.55032 68.88146 L 218.43257 68.30867 L 218.43257 41.57836 L 213.85023 40.432777 L 213.85023 36.996025 L 222.95128 35.85044 L 224.09686 36.677807 L 224.47871 39.22355 L 224.41507 41.260147 Q 226.64261 39.22355 230.49304 37.536995 Q 234.34348 35.85044 237.39838 35.85044 Q 240.83511 35.85044 242.93536 36.996025 Q 245.0356 38.14161 246.11754 40.560066 Q 248.15414 38.841686 251.81364 37.34606 Q 255.47314 35.85044 258.65533 35.85044 Q 262.60123 35.85044 264.82874 37.34606 Q 267.05627 38.841686 267.97913 41.992046 Q 268.90195 45.142403 268.90195 50.42482 L 268.90195 68.30867 L 273.48428 68.88146 L 273.48428 72 L 258.3371 72 L 258.3371 68.88146 L 262.28302 68.30867 L 262.28302 50.615753 Q 262.28302 46.924423 261.74203 44.72872 Q 261.20108 42.533016 259.70544 41.451073 Q 258.20984 40.369133 255.40952 40.369133 Q 253.30927 40.369133 250.95445 41.291965 Q 248.59964 42.214798 246.94492 43.48767 Q 247.5177 45.969772 247.5177 50.55211 L 247.5177 68.30867 L 252.03639 68.88146 L 252.03639 72 L 236.63464 72 L 236.63464 68.88146 L 240.83511 68.30867 L 240.83511 50.488464 Q 240.83511 46.66985 240.35779 44.56961 Q 239.88046 42.469376 238.54395 41.419254 Q 237.20743 40.369133 234.47076 40.369133 Q 232.1796 40.369133 229.60202 41.514717 Q 227.02446 42.6603 225.11516 44.18775 L 225.11516 68.30867 L 229.37927 68.88146 L 229.37927 72 L 214.55032 72 L 214.55032 68.88146 Z " fill="black"/>
    <path d="M 278.15414 48.18815 Q 280.30212 43.49443 282.2711 38.74105 Q 284.24005 33.98767 287.7802 25.276451 L 289.64978 20.582737 L 277.8757 20.741844 L 276.20505 26.03222 L 273.6593 25.554893 L 274.49463 17.678997 L 292.63306 17.678997 L 293.46838 18.752983 Q 291.5193 24.202469 288.0189 34.047333 Q 284.5185 43.892204 282.6092 49.381462 L 278.15414 48.18815 Z " fill="black"/>
    <rect x="171.25" y="20" width="147" height="75" stroke="orange" stroke-width="3" fill="none"/>
    <path d="M 208 135.9 Q 208 129.9 214.6 124.35 Q 221.2 118.8 228.1 118.8 Q 230.9 118.8 233.45 119.5 Q 236 120.2 238.3 122.7 Q 240.6 125.2 240.6 129.1 Q 240.6 134.6 233.9 140.4 Q 227.2 146.2 220.5 146.2 Q 217.7 146.2 215.15 145.5 Q 212.6 144.8 210.3 142.3 Q 208 139.8 208 135.9 Z " fill="black"/>
    <path d="M 339.85562 28.65871 L 333.93677 27.894993 L 333.93677 24.71281 L 352.64798 24.71281 L 352.64798 27.894993 L 346.72913 28.65871 L 346.72913 68.245026 L 352.64798 68.94511 L 352.64798 72 L 334.0004 72 L 334.0004 68.88146 L 339.85562 68.245026 L 339.85562 28.65871 Z " fill="black"/>
    <path d="M 359.85562 28.65871 L 353.93677 27.894993 L 353.93677 24.71281 L 372.64798 24.71281 L 372.64798 27.894993 L 366.72913 28.65871 L 366.72913 68.245026 L 372.64798 68.94511 L 372.64798 72 L 354.0004 72 L 354.0004 68.88146 L 359.85562 68.245026 L 359.85562 28.65871 Z " fill="black"/>
    <rect x="318" y="20" width="72" height="75" stroke="orange" stroke-width="3" fill="none"/>
    <path d="M 336 135.9 Q 336 129.9 342.6 124.35 Q 349.2 118.8 356.1 118.8 Q 358.9 118.8 361.45 119.5 Q 364 120.2 366.3 122.7 Q 368.6 125.2 368.6 129.1 Q 368.6 134.6 361.9 140.4 Q 355.2 146.2 348.5 146.2 Q 345.7 146.2 343.15 145.5 Q 340.6 144.8 338.3 142.3 Q 336 139.8 336 135.9 Z " fill="black"/>
    <path d="M 429.85562 28.65871 L 423.93677 27.894993 L 423.93677 24.71281 L 442.64798 24.71281 L 442.64798 27.894993 L 436.72913 28.65871 L 436.72913 68.245026 L 442.64798 68.94511 L 442.64798 72 L 424.0004 72 L 424.0004 68.88146 L 429.85562 68.245026 L 429.85562 28.65871 Z " fill="black"/>
    <path d="M 449.85562 28.65871 L 443.93677 27.894993 L 443.93677 24.71281 L 462.64798 24.71281 L 462.64798 27.894993 L 456.72913 28.65871 L 456.72913 68.245026 L 462.64798 68.94511 L 462.64798 72 L 444.0004 72 L 444.0004 68.88146 L 449.85562 68.245026 L 449.85562 28.65871 Z " fill="black"/>
    <path d="M 471.30032 68.88146 L 475.1826 68.30867 L 475.1826 41.57836 L 470.60025 40.432777 L 470.60025 36.996025 L 479.70126 35.85044 L 480.84686 36.677807 L 481.22873 39.22355 L 481.16507 41.260147 Q 483.3926 39.22355 487.24304 37.536995 Q 491.09348 35.85044 494.14838 35.85044 Q 497.5851 35.85044 499.68536 36.996025 Q 501.78558 38.14161 502.86755 40.560066 Q 504.90414 38.841686 508.56363 37.34606 Q 512.22314 35.85044 515.40533 35.85044 Q 519.3512 35.85044 521.57874 37.34606 Q 523.8063 38.841686 524.7291 41.992046 Q 525.652 45.142403 525.652 50.42482 L 525.652 68.30867 L 530.23425 68.88146 L 530.23425 72 L 515.0871 72 L 515.0871 68.88146 L 519.033 68.30867 L 519.033 50.615753 Q 519.033 46.924423 518.49207 44.72872 Q 517.95105 42.533016 516.45544 41.451073 Q 514.95984 40.369133 512.15955 40.369133 Q 510.05927 40.369133 507.70447 41.291965 Q 505.34964 42.214798 503.69492 43.48767 Q 504.2677 45.969772 504.2677 50.55211 L 504.2677 68.30867 L 508.78638 68.88146 L 508.78638 72 L 493.38464 72 L 493.38464 68.88146 L 497.5851 68.30867 L 497.5851 50.488464 Q 497.5851 46.66985 497.1078 44.56961 Q 496.63046 42.469376 495.29395 41.419254 Q 493.95743 40.369133 491.22076 40.369133 Q 488.9296 40.369133 486.35202 41.514717 Q 483.77448 42.6603 481.86514 44.18775 L 481.86514 68.30867 L 486.12927 68.88146 L 486.12927 72 L 471.30032 72 L 471.30032 68.88146 Z " fill="black"/>
    <rect x="408" y="20" width="132" height="75" stroke="orange" stroke-width="3" fill="none"/>
    <path d="M 441 135.9 Q 441 129.9 447.6 124.35 Q 454.2 118.8 461.1 118.8 Q 463.9 118.8 466.45 119.5 Q 469 120.2 471.3 122.7 Q 473.6 125.2 473.6 129.1 Q 473.6 134.6 466.9 140.4 Q 460.2 146.2 453.5 146.2 Q 450.7 146.2 448.15 145.5 Q 445.6 144.8 443.3 142.3 Q 441 139.8 441 135.9 Z " fill="black"/>
    <path d="M 561.8556 28.65871 L 555.93677 27.894993 L 555.93677 24.71281 L 574.64795 24.71281 L 574.64795 27.894993 L 568.7291 28.65871 L 568.7291 68.245026 L 574.64795 68.94511 L 574.64795 72 L 556.0004 72 L 556.0004 68.88146 L 561.8556 68.245026 L 561.8556 28.65871 Z " fill="black"/>
    <path d="M 581.8556 28.65871 L 575.93677 27.894993 L 575.93677 24.71281 L 594.64795 24.71281 L 594.64795 27.894993 L 588.7291 28.65871 L 588.7291 68.245026 L 594.64795 68.94511 L 594.64795 72 L 576.0004 72 L 576.0004 68.88146 L 581.8556 68.245026 L 581.8556 28.65871 Z " fill="black"/>
    <path d="M 601.8556 28.65871 L 595.93677 27.894993 L 595.93677 24.71281 L 614.64795 24.71281 L 614.64795 27.894993 L 608.7291 28.65871 L 608.7291 68.245026 L 614.64795 68.94511 L 614.64795 72 L 596.0004 72 L 596.0004 68.88146 L 601.8556 68.245026 L 601.8556 28.65871 Z " fill="black"/>
    <rect x="540" y="20" width="92" height="75" stroke="orange" stroke-width="3" fill="none"/>
    <path d="M 666.8556 28.65871 L 660.93677 27.894993 L 660.93677 24.71281 L 679.64795 24.71281 L 679.64795 27.894993 L 673.7291 28.65871 L 673.7291 68.245026 L 679.64795 68.94511 L 679.64795 72 L 661.0004 72 L 661.0004 68.88146 L 666.8556 68.245026 L 666.8556 28.65871 Z " fill="black"/>
    <path d="M 676.4817 24.71281 L 693.4109 24.71281 L 693.4109 27.894993 L 687.74664 28.65871 L 698.2478 58.50756 L 700.6026 66.27208 L 702.7029 58.380272 L 712.1857 28.65871 L 707.1579 27.894993 L 707.1579 24.71281 L 721.35046 24.71281 L 721.35046 27.894993 L 717.2772 28.65871 L 702.1937 72.50915 L 696.65674 72.50915 L 680.36395 28.65871 L 676.4817 27.894993 L 676.4817 24.71281 Z " fill="black"/>
    <rect x="645" y="20" width="92" height="75" stroke="orange" stroke-width="3" fill="none"/>
    <path d="M 766.4817 24.71281 L 783.4109 24.71281 L 783.4109 27.894993 L 777.74664 28.65871 L 788.2478 58.50756 L 790.6026 66.27208 L 792.7029 58.380272 L 802.1857 28.65871 L 797.1579 27.894993 L 797.1579 24.71281 L 811.35046 24.71281 L 811.35046 27.894993 L 807.2772 28.65871 L 792.1937 72.50915 L 786.65674 72.50915 L 770.36395 28.65871 L 766.4817 27.894993 L 766.4817 24.71281 Z " fill="black"/>
    <rect x="755" y="20" width="72" height="75" stroke="orange" stroke-width="3" fill="none"/>
    <path d="M 866.4817 24.71281 L 883.4109 24.71281 L 883.4109 27.894993 L 877.74664 28.65871 L 888.2478 58.50756 L 890.6026 66.27208 L 892.7029 58.380272 L 902.1857 28.65871 L 897.1579 27.894993 L 897.1579 24.71281 L 911.35046 24.71281 L 911.35046 27.894993 L 907.2772 28.65871 L 892.1937 72.50915 L 886.65674 72.50915 L 870.36395 28.65871 L 866.4817 27.894993 L 866.4817 24.71281 Z " fill="black"/>
    <path d="M 916.8556 28.65871 L 910.93677 27.894993 L 910.93677 24.71281 L 929.64795 24.71281 L 929.64795 27.894993 L 923.7291 28.65871 L 923.7291 68.245026 L 929.64795 68.94511 L 929.64795 72 L 911.0004 72 L 911.0004 68.88146 L 916.8556 68.245026 L 916.8556 28.65871 Z " fill="black"/>
    <rect x="855" y="20" width="92" height="75" stroke="orange" stroke-width="3" fill="none"/>
    <path d="M 966.4817 24.71281 L 983.4109 24.71281 L 983.4109 27.894993 L 977.74664 28.65871 L 988.2478 58.50756 L 990.6026 66.27208 L 992.7029 58.380272 L 1002.1857 28.65871 L 997.1579 27.894993 L 997.1579 24.71281 L 1011.35046 24.71281 L 1011.35046 27.894993 L 1007.2772 28.65871 L 992.1937 72.50915 L 986.65674 72.50915 L 970.36395 28.65871 L 966.4817 27.894993 L 966.4817 24.71281 Z " fill="black"/>
    <path d="M 1016.8556 28.65871 L 1010.93677 27.894993 L 1010.93677 24.71281 L 1029.648 24.71281 L 1029.648 27.894993 L 1023.7291 28.65871 L 1023.7291 68.245026 L 1029.648 68.94511 L 1029.648 72 L 1011.0004 72 L 1011.0004 68.88146 L 1016.8556 68.245026 L 1016.8556 28.65871 Z " fill="black"/>
    <path d="M 1036.8556 28.65871 L 1030.9368 27.894993 L 1030.9368 24.71281 L 1049.648 24.71281 L 1049.648 27.894993 L 1043.7291 28.65871 L 1043.7291 68.245026 L 1049.648 68.94511 L 1049.648 72 L 1031.0005 72 L 1031.0005 68.88146 L 1036.8556 68.245026 L 1036.8556 28.65871 Z " fill="black"/>
    <rect x="955" y="20" width="112" height="75" stroke="orange" stroke-width="3" fill="none"/>
    <path d="M 1089.1056 28.65871 L 1083.1868 27.894993 L 1083.1868 24.71281 L 1101.898 24.71281 L 1101.898 27.894993 L 1095.9791 28.65871 L 1095.9791 68.245026 L 1101.898 68.94511 L 1101.898 72 L 1083.2504 72 L 1083.2504 68.88146 L 1089.1056 68.245026 L 1089.1056 28.65871 Z " fill="black"/>
    <path d="M 1114.1542 48.18815 Q 1116.3021 43.49443 1118.2711 38.74105 Q 1120.2401 33.98767 1123.7803 25.276451 L 1125.6498 20.582737 L 1113.8757 20.741844 L 1112.2051 26.03222 L 1109.6593 25.554893 L 1110.4946 17.678997 L 1128.633 17.678997 L 1129.4684 18.752983 Q 1127.5193 24.202469 1124.0189 34.047333 Q 1120.5186 43.892204 1118.6091 49.381462 L 1114.1542 48.18815 Z " fill="black"/>
    <rect x="1067.25" y="20" width="87" height="75" stroke="orange" stroke-width="3" fill="none"/>
    <path d="M 1179.9817 24.71281 L 1196.9109 24.71281 L 1196.9109 27.894993 L 1191.2466 28.65871 L 1201.7478 58.50756 L 1204.1027 66.27208 L 1206.2029 58.380272 L 1215.6858 28.65871 L 1210.658 27.894993 L 1210.658 24.71281 L 1224.8505 24.71281 L 1224.8505 27.894993 L 1220.7772 28.65871 L 1205.6937 72.50915 L 1200.1567 72.50915 L 1183.864 28.65871 L 1179.9817 27.894993 L 1179.9817 24.71281 Z " fill="black"/>
    <path d="M 1235.4042 48.18815 Q 1237.5521 43.49443 1239.5211 38.74105 Q 1241.4901 33.98767 1245.0303 25.276451 L 1246.8998 20.582737 L 1235.1257 20.741844 L 1233.4551 26.03222 L 1230.9093 25.554893 L 1231.7446 17.678997 L 1249.883 17.678997 L 1250.7184 18.752983 Q 1248.7693 24.202469 1245.2689 34.047333 Q 1241.7686 43.892204 1239.8591 49.381462 L 1235.4042 48.18815 Z " fill="black"/>
    <rect x="1168.5" y="20" width="102" height="75" stroke="orange" stroke-width="3" fill="none"/>
    <path d="M 1281.7317 24.71281 L 1298.6609 24.71281 L 1298.6609 27.894993 L 1292.9966 28.65871 L 1303.4978 58.50756 L 1305.8527 66.27208 L 1307.9529 58.380272 L 1317.4358 28.65871 L 1312.408 27.894993 L 1312.408 24.71281 L 1326.6005 24.71281 L 1326.6005 27.894993 L 1322.5272 28.65871 L 1307.4437 72.50915 L 1301.9067 72.50915 L 1285.614 28.65871 L 1281.7317 27.894993 L 1281.7317 24.71281 Z " fill="black"/>
    <path d="M 1337.1542 48.18815 Q 1339.3021 43.49443 1341.2711 38.74105 Q 1343.2401 33.98767 1346.7803 25.276451 L 1348.6498 20.582737 L 1336.8757 20.741844 L 1335.2051 26.03222 L 1332.6593 25.554893 L 1333.4946 17.678997 L 1351.633 17.678997 L 1352.4684 18.752983 Q 1350.5193 24.202469 1347.0189 34.047333 Q 1343.5186 43.892204 1341.6091 49.381462 L 1337.1542 48.18815 Z " fill="black"/>
    <line x1="1380.75" y1="2.5" x2="1355.75" y2="85" stroke="black" stroke-width="5"/>
    <path d="M 1374.7317 24.71281 L 1391.6609 24.71281 L 1391.6609 27.894993 L 1385.9966 28.65871 L 1396.4978 58.50756 L 1398.8527 66.27208 L 1400.9529 58.380272 L 1410.4358 28.65871 L 1405.408 27.894993 L 1405.408 24.71281 L 1419.6005 24.71281 L 1419.6005 27.894993 L 1415.5272 28.65871 L 1400.4437 72.50915 L 1394.9067 72.50915 L 1378.614 28.65871 L 1374.7317 27.894993 L 1374.7317 24.71281 Z " fill="black"/>
    <rect x="1270.25" y="20" width="215" height="75" stroke="orange" stroke-width="3" fill="none"/>
    <line x1="45.5" y1="136.5" x2="45.5" y2="221.7857" stroke="black" stroke-width="3"/>
    <line x1="209.5" y1="136.5" x2="209.5" y2="221.7857" stroke="black" stroke-width="3"/>
    <line x1="337.5" y1="136.5" x2="337.5" y2="221.7857" stroke="black" stroke-width="3"/>
    <line x1="442.5" y1="136.5" x2="442.5" y2="221.7857" stroke="black" stroke-width="3"/>
    <rect x="0" y="0" width="1486.75" height="223.2857" stroke="transparent" stroke-width="1" fill="none"/>
</svg>
