<svg xmlns="http://www.w3.org/2000/svg" xmlns:xlink="http://www.w3.org/1999/xlink" width="336.25" height="169.07143" viewBox="0 0 336.25 169.07143">
    <defs visibility="hidden"/>
    <line x1="1.25" y1="28.285713" x2="335" y2="28.285713" stroke="black" stroke-width="2.5"/>
    <line x1="1.25" y1="53.285713" x2="335" y2="53.285713" stroke="black" stroke-width="2.5"/>
    <line x1="1.25" y1="78.28571" x2="335" y2="78.28571" stroke="black" stroke-width="2.5"/>
    <line x1="1.25" y1="103.28571" x2="335" y2="103.28571" stroke="black" stroke-width="2.5"/>
    <line x1="1.25" y1="128.2857" x2="335" y2="128.2857" stroke="black" stroke-width="2.5"/>
    <path d="M 31.25 81.685715 Q 31.25 75.685715 37.85 70.13571 Q 44.45 64.58572 51.35 64.58572 Q 54.15 64.58572 56.7 65.28571 Q 59.25 65.98571 61.550003 68.48571 Q 63.850002 70.98571 63.850002 74.88571 Q 63.850002 80.38571 57.15 86.185715 Q 50.45 91.98571 43.75 91.98571 Q 40.95 91.98571 38.4 91.28571 Q 35.85 90.58572 33.55 88.08572 Q 31.25 85.58572 31.25 81.685715 Z " fill="black"/>
    <path d="M 136.25 94.185715 Q 136.25 88.185715 142.85 82.63571 Q 149.45 77.08572 156.35 77.08572 Q 159.15 77.08572 161.7 77.78571 Q 164.25 78.48571 166.55 80.98571 Q 168.85 83.48571 168.85 87.38571 Q 168.85 92.88571 162.15 98.685715 Q 155.45 104.48572 148.75 104.48572 Q 145.95 104.48572 143.4 103.78571 Q 140.85 103.08571 138.55 100.58571 Q 136.25 98.08571 136.25 94.185715 Z " fill="black"/>
    <path d="M 211.25 106.685715 Q 211.25 100.685715 217.85 95.13571 Q 224.45 89.58572 231.35 89.58572 Q 234.15 89.58572 236.7 90.28571 Q 239.25 90.98571 241.55 93.48571 Q 243.85 95.98572 243.85 99.88571 Q 243.85 105.38571 237.15 111.185715 Q 230.45 116.98572 223.75 116.98572 Q 220.95 116.98572 218.4 116.28571 Q 215.85 115.58571 213.55 113.08571 Q 211.25 110.58571 211.25 106.685715 Z " fill="black"/>
    <path d="M 271.25 119.185715 Q 271.25 113.185715 277.85 107.63571 Q 284.45 102.08571 291.35 102.08571 Q 294.15 102.08571 296.7 102.78571 Q 299.25 103.48572 301.55 105.98572 Q 303.85 108.48572 303.85 112.38571 Q 303.85 117.88571 297.15 123.685715 Q 290.45 129.48572 283.75 129.48572 Q 280.95 129.48572 278.4 128.7857 Q 275.85 128.08571 273.55 125.58571 Q 271.25 123.08571 271.25 119.185715 Z " fill="black"/>
    <rect x="331.25" y="28.285713" width="3.7500002" height="100" fill="black"/>
    <line x1="32.75" y1="82.28571" x2="32.75" y2="167.57143" stroke="black" stroke-width="3"/>
    <line x1="167.25" y1="1.5" x2="167.25" y2="86.78571" stroke="black" stroke-width="3"/>
    <line x1="302.25" y1="14" x2="302.25" y2="111.78571" stroke="black" stroke-width="3"/>
    <line x1="242.25" y1="8.444443" x2="242.25" y2="99.28571" stroke="black" stroke-width="3"/>
    <path d="M 165.75 1.5 L 303.75 14 L 303.75 29 L 165.75 16.5 L 165.75 1.5 " fill="black"/>
    <path d="M 240.75 33.444443 L 303.75 39 L 303.75 54 L 240.75 48.444443 L 240.75 33.444443 " fill="black"/>
    <rect x="0" y="0" width="336.25" height="169.07143" stroke="transparent" stroke-width="1" fill="none"/>
</svg>
