<svg xmlns="http://www.w3.org/2000/svg" xmlns:xlink="http://www.w3.org/1999/xlink" width="336.25" height="197.07143" viewBox="0 0 336.25 197.07143">
    <defs visibility="hidden"/>
    <line x1="1.25" y1="42.285713" x2="335" y2="42.285713" stroke="black" stroke-width="2.5"/>
    <line x1="1.25" y1="67.28571" x2="335" y2="67.28571" stroke="black" stroke-width="2.5"/>
    <line x1="1.25" y1="92.28571" x2="335" y2="92.28571" stroke="black" stroke-width="2.5"/>
    <line x1="1.25" y1="117.28571" x2="335" y2="117.28571" stroke="black" stroke-width="2.5"/>
    <line x1="1.25" y1="142.2857" x2="335" y2="142.2857" stroke="black" stroke-width="2.5"/>
    <path d="M 31.25 95.685715 Q 31.25 89.685715 37.85 84.13571 Q 44.45 78.58572 51.35 78.58572 Q 54.15 78.58572 56.7 79.28571 Q 59.25 79.98571 61.550003 82.48571 Q 63.850002 84.98571 63.850002 88.88571 Q 63.850002 94.38571 57.15 100.185715 Q 50.45 105.98571 43.75 105.98571 Q 40.95 105.98571 38.4 105.28571 Q 35.85 104.58572 33.55 102.08572 Q 31.25 99.58572 31.25 95.685715 Z " fill="black"/>
    <rect x="44.5" y="191.07143" width="6" height="6" fill="blue"/>
    <rect x="44.5" y="64.28571" width="6" height="6" fill="blue"/>
    <rect x="44.5" y="153.57143" width="6" height="6" fill="blue"/>
    <rect x="60.75" y="64.28571" width="6" height="6" fill="blue"/>
    <rect x="15.75" y="153.57143" width="6" height="6" fill="blue"/>
    <rect x="28.25" y="64.28571" width="6" height="6" fill="blue"/>
    <path d="M 136.25 108.185715 Q 136.25 102.185715 142.85 96.63571 Q 149.45 91.08572 156.35 91.08572 Q 159.15 91.08572 161.7 91.78571 Q 164.25 92.48571 166.55 94.98571 Q 168.85 97.48571 168.85 101.38571 Q 168.85 106.88571 162.15 112.685715 Q 155.45 118.48572 148.75 118.48572 Q 145.95 118.48572 143.4 117.78571 Q 140.85 117.08571 138.55 114.58571 Q 136.25 112.08571 136.25 108.185715 Z " fill="black"/>
    <rect x="149.5" y="0" width="6" height="6" fill="red"/>
    <rect x="149.5" y="126.78571" width="6" height="6" fill="red"/>
    <rect x="165.75" y="0" width="6" height="6" fill="red"/>
    <rect x="165.75" y="126.78571" width="6" height="6" fill="red"/>
    <rect x="153.25" y="37.5" width="6" height="6" fill="red"/>
    <rect x="133.25" y="126.78571" width="6" height="6" fill="red"/>
    <path d="M 211.25 120.685715 Q 211.25 114.685715 217.85 109.13571 Q 224.45 103.58572 231.35 103.58572 Q 234.15 103.58572 236.7 104.28571 Q 239.25 104.98571 241.55 107.48571 Q 243.85 109.98572 243.85 113.88571 Q 243.85 119.38571 237.15 125.185715 Q 230.45 130.98572 223.75 130.98572 Q 220.95 130.98572 218.4 130.2857 Q 215.85 129.58571 213.55 127.08571 Q 211.25 124.58571 211.25 120.685715 Z " fill="black"/>
    <rect x="224.5" y="8.333336" width="6" height="6" fill="purple"/>
    <rect x="224.5" y="139.2857" width="6" height="6" fill="purple"/>
    <rect x="240.75" y="8.333336" width="6" height="6" fill="purple"/>
    <rect x="240.75" y="139.2857" width="6" height="6" fill="purple"/>
    <rect x="240.75" y="8.333336" width="6" height="6" fill="purple"/>
    <rect x="208.25" y="139.2857" width="6" height="6" fill="purple"/>
    <path d="M 271.25 133.18571 Q 271.25 127.185715 277.85 121.63571 Q 284.45 116.08571 291.35 116.08571 Q 294.15 116.08571 296.7 116.78571 Q 299.25 117.48572 301.55 119.98572 Q 303.85 122.48572 303.85 126.38571 Q 303.85 131.88571 297.15 137.68571 Q 290.45 143.48572 283.75 143.48572 Q 280.95 143.48572 278.4 142.7857 Q 275.85 142.08571 273.55 139.58571 Q 271.25 137.08571 271.25 133.18571 Z " fill="black"/>
    <rect x="284.5" y="12.5" width="6" height="6" fill="dodgerblue"/>
    <rect x="284.5" y="151.7857" width="6" height="6" fill="dodgerblue"/>
    <rect x="313.25" y="50" width="6" height="6" fill="dodgerblue"/>
    <rect x="300.75" y="151.7857" width="6" height="6" fill="dodgerblue"/>
    <rect x="300.75" y="12.5" width="6" height="6" fill="dodgerblue"/>
    <rect x="268.25" y="151.7857" width="6" height="6" fill="dodgerblue"/>
    <rect x="331.25" y="42.285713" width="3.7500002" height="100" fill="black"/>
    <line x1="32.75" y1="96.28571" x2="32.75" y2="181.57143" stroke="black" stroke-width="3"/>
    <line x1="167.25" y1="15.5" x2="167.25" y2="100.78571" stroke="black" stroke-width="3"/>
    <line x1="302.25" y1="28" x2="302.25" y2="125.78571" stroke="black" stroke-width="3"/>
    <line x1="242.25" y1="22.444443" x2="242.25" y2="113.28571" stroke="black" stroke-width="3"/>
    <path d="M 165.75 15.5 L 303.75 28 L 303.75 43 L 165.75 30.5 L 165.75 15.5 " fill="black"/>
    <path d="M 240.75 47.444443 L 303.75 53 L 303.75 68 L 240.75 62.444443 L 240.75 47.444443 " fill="black"/>
    <rect x="0" y="0" width="336.25" height="197.07143" stroke="transparent" stroke-width="1" fill="none"/>
</svg>
