<svg xmlns="http://www.w3.org/2000/svg" xmlns:xlink="http://www.w3.org/1999/xlink" width="497" height="205.6067" viewBox="0 0 497 205.6067">
    <defs visibility="hidden"/>
    <line x1="1.25" y1="64.821" x2="495.75" y2="64.821" stroke="black" stroke-width="2.5"/>
    <line x1="1.25" y1="89.821" x2="495.75" y2="89.821" stroke="black" stroke-width="2.5"/>
    <line x1="1.25" y1="114.821" x2="495.75" y2="114.821" stroke="black" stroke-width="2.5"/>
    <line x1="1.25" y1="139.821" x2="495.75" y2="139.821" stroke="black" stroke-width="2.5"/>
    <line x1="1.25" y1="164.821" x2="495.75" y2="164.821" stroke="black" stroke-width="2.5"/>
    <path d="M 10.3741045 51.998013 Q 5.4417257 48.97494 2.8959823 43.501595 Q 0.35023856 38.028244 0.35023856 30.645586 Q 0.35023856 23.517506 3.3414874 18.044155 Q 6.332736 12.570808 11.551511 9.547737 Q 16.770285 6.524666 23.26193 6.524666 Q 28.162489 6.524666 35.035995 8.052113 L 37.136234 8.433971 L 36.499798 19.88982 L 32.23568 19.88982 L 30.644588 11.807083 Q 29.753578 11.043362 27.557875 10.502392 Q 25.36217 9.961418 22.179989 9.961418 Q 18.106802 9.961418 14.924622 12.284412 Q 11.742441 14.607399 9.928599 19.126095 Q 8.114757 23.64479 8.114757 29.945507 Q 8.114757 35.928005 9.705847 40.82856 Q 11.296937 45.72912 14.542759 48.6249 Q 17.788582 51.520683 22.561853 51.520683 Q 25.934963 51.520683 27.748806 50.94789 Q 29.562649 50.3751 30.835518 49.29316 L 33.50855 43.056087 L 37.518097 43.565235 L 35.99065 52.602627 Q 34.654137 52.666267 32.044746 53.493637 Q 29.753578 54.193718 27.621517 54.6074 Q 25.489458 55.021084 22.307278 55.021084 Q 15.306482 55.021084 10.3741045 51.998013 Z " fill="black"/>
    <path d="M 1.25 118.22101 Q 1.25 112.22101 7.85 106.671005 Q 14.45 101.121 21.35 101.121 Q 24.15 101.121 26.7 101.821 Q 29.25 102.521 31.550001 105.020996 Q 33.850002 107.520996 33.850002 111.421005 Q 33.850002 116.921005 27.15 122.72101 Q 20.45 128.521 13.75 128.521 Q 10.95 128.521 8.4 127.821 Q 5.85 127.121 3.55 124.621 Q 1.25 122.121 1.25 118.22101 Z " fill="black"/>
    <line x1="63.75" y1="39.821003" x2="113.75" y2="14.821003" stroke="black" stroke-width="3"/>
    <line x1="63.75" y1="52.321003" x2="113.75" y2="27.321003" stroke="black" stroke-width="3"/>
    <path d="M 153.70148 51.96619 Q 148.70544 48.911297 146.09607 43.533413 Q 143.48668 38.155533 143.48668 31.345667 Q 143.48668 23.517506 146.5734 17.916866 Q 149.6601 12.316235 155.13345 9.420448 Q 160.6068 6.524666 167.6076 6.524666 Q 174.0356 6.524666 182.43655 8.497616 L 181.86375 19.507957 L 177.34506 19.507957 L 175.81763 11.870724 Q 174.9266 11.170647 172.79456 10.53421 Q 170.66249 9.897778 167.09845 9.897778 Q 162.45247 9.897778 158.88843 12.188942 Q 155.32439 14.480114 153.31961 18.99881 Q 151.31483 23.517506 151.31483 29.945507 Q 151.31483 35.86436 152.93774 40.76492 Q 154.56065 45.665474 157.90195 48.6249 Q 161.24324 51.584328 166.08015 51.584328 Q 169.13504 51.584328 171.87172 50.85243 Q 174.6084 50.120525 176.07219 48.911297 L 176.07219 34.718777 L 168.0531 34.08234 L 168.0531 30.327368 L 186.63702 30.327368 L 186.63702 34.08234 L 182.94571 34.655132 L 182.94571 51.77526 Q 181.54555 51.8389 178.29971 52.8572 Q 174.99025 53.875496 172.06265 54.448288 Q 169.13504 55.021084 165.571 55.021084 Q 158.6975 55.021084 153.70148 51.96619 Z " fill="black"/>
    <path d="M 197.15414 30.50915 Q 199.30211 25.815434 201.27109 21.062054 Q 203.24005 16.308672 206.78023 7.597454 L 208.64977 2.90374 L 196.8757 3.0628471 L 195.20505 8.353224 L 192.6593 7.8758965 L 193.49463 0 L 211.63306 0 L 212.46838 1.073986 Q 210.51929 6.523472 207.01889 16.368338 Q 203.5185 26.213207 201.60919 31.702467 L 197.15414 30.50915 Z " fill="black"/>
    <path d="M 151.25 118.22101 Q 151.25 112.22101 157.85 106.671005 Q 164.45 101.121 171.35 101.121 Q 174.15 101.121 176.7 101.821 Q 179.25 102.521 181.55 105.020996 Q 183.85 107.520996 183.85 111.421005 Q 183.85 116.921005 177.15 122.72101 Q 170.45 128.521 163.75 128.521 Q 160.95 128.521 158.4 127.821 Q 155.85 127.121 153.55 124.621 Q 151.25 122.121 151.25 118.22101 Z " fill="black"/>
    <line x1="220.75" y1="14.821003" x2="270.75" y2="39.821003" stroke="black" stroke-width="3"/>
    <line x1="220.75" y1="27.321003" x2="270.75" y2="52.321003" stroke="black" stroke-width="3"/>
    <path d="M 317.3741 51.998013 Q 312.4417 48.97494 309.896 43.501595 Q 307.35025 38.028244 307.35025 30.645586 Q 307.35025 23.517506 310.3415 18.044155 Q 313.33273 12.570808 318.5515 9.547737 Q 323.7703 6.524666 330.26193 6.524666 Q 335.16248 6.524666 342.036 8.052113 L 344.13623 8.433971 L 343.4998 19.88982 L 339.2357 19.88982 L 337.6446 11.807083 Q 336.75357 11.043362 334.55786 10.502392 Q 332.36218 9.961418 329.18 9.961418 Q 325.1068 9.961418 321.92462 12.284412 Q 318.74243 14.607399 316.9286 19.126095 Q 315.11475 23.64479 315.11475 29.945507 Q 315.11475 35.928005 316.70584 40.82856 Q 318.29694 45.72912 321.54276 48.6249 Q 324.78857 51.520683 329.56186 51.520683 Q 332.93497 51.520683 334.7488 50.94789 Q 336.56265 50.3751 337.8355 49.29316 L 340.50854 43.056087 L 344.5181 43.565235 L 342.99066 52.602627 Q 341.65414 52.666267 339.04474 53.493637 Q 336.75357 54.193718 334.62152 54.6074 Q 332.48947 55.021084 329.30728 55.021084 Q 322.3065 55.021084 317.3741 51.998013 Z " fill="black"/>
    <path d="M 308.25 118.22101 Q 308.25 112.22101 314.85 106.671005 Q 321.45 101.121 328.35 101.121 Q 331.15 101.121 333.7 101.821 Q 336.25 102.521 338.55 105.020996 Q 340.85 107.520996 340.85 111.421005 Q 340.85 116.921005 334.15 122.72101 Q 327.45 128.521 320.75 128.521 Q 317.95 128.521 315.4 127.821 Q 312.85 127.121 310.55 124.621 Q 308.25 122.121 308.25 118.22101 Z " fill="black"/>
    <path d="M 385.70148 51.96619 Q 380.70544 48.911297 378.09607 43.533413 Q 375.48666 38.155533 375.48666 31.345667 Q 375.48666 23.517506 378.5734 17.916866 Q 381.6601 12.316235 387.13345 9.420448 Q 392.6068 6.524666 399.6076 6.524666 Q 406.03558 6.524666 414.43655 8.497616 L 413.86377 19.507957 L 409.34506 19.507957 L 407.81763 11.870724 Q 406.9266 11.170647 404.79456 10.53421 Q 402.66248 9.897778 399.09845 9.897778 Q 394.45245 9.897778 390.88843 12.188942 Q 387.32437 14.480114 385.3196 18.99881 Q 383.31485 23.517506 383.31485 29.945507 Q 383.31485 35.86436 384.93774 40.76492 Q 386.56067 45.665474 389.90195 48.6249 Q 393.24323 51.584328 398.08014 51.584328 Q 401.13504 51.584328 403.8717 50.85243 Q 406.6084 50.120525 408.0722 48.911297 L 408.0722 34.718777 L 400.0531 34.08234 L 400.0531 30.327368 L 418.63702 30.327368 L 418.63702 34.08234 L 414.9457 34.655132 L 414.9457 51.77526 Q 413.54553 51.8389 410.2997 52.8572 Q 406.99026 53.875496 404.06265 54.448288 Q 401.13504 55.021084 397.571 55.021084 Q 390.69748 55.021084 385.70148 51.96619 Z " fill="black"/>
    <path d="M 429.15414 30.50915 Q 431.3021 25.815434 433.2711 21.062054 Q 435.24005 16.308672 438.78024 7.597454 L 440.64975 2.90374 L 428.8757 3.0628471 L 427.20505 8.353224 L 424.6593 7.8758965 L 425.49463 0 L 443.63306 0 L 444.46838 1.073986 Q 442.5193 6.523472 439.0189 16.368338 Q 435.5185 26.213207 433.6092 31.702467 L 429.15414 30.50915 Z " fill="black"/>
    <path d="M 458.25 118.22101 Q 458.25 112.22101 464.85 106.671005 Q 471.45 101.121 478.35 101.121 Q 481.15 101.121 483.7 101.821 Q 486.25 102.521 488.55 105.020996 Q 490.85 107.520996 490.85 111.421005 Q 490.85 116.921005 484.15 122.72101 Q 477.45 128.521 470.75 128.521 Q 467.95 128.521 465.4 127.821 Q 462.85 127.121 460.55 124.621 Q 458.25 122.121 458.25 118.22101 Z " fill="black"/>
    <line x1="2.75" y1="118.821" x2="2.75" y2="204.1067" stroke="black" stroke-width="3"/>
    <line x1="152.75" y1="118.821" x2="152.75" y2="204.1067" stroke="black" stroke-width="3"/>
    <line x1="309.75" y1="118.821" x2="309.75" y2="204.1067" stroke="black" stroke-width="3"/>
    <line x1="459.75" y1="118.821" x2="459.75" y2="204.1067" stroke="black" stroke-width="3"/>
    <rect x="0" y="0" width="497" height="205.6067" stroke="transparent" stroke-width="1" fill="none"/>
</svg>
