<svg xmlns="http://www.w3.org/2000/svg" xmlns:xlink="http://www.w3.org/1999/xlink" width="643.25" height="184.6" viewBox="0 0 643.25 184.6">
    <defs visibility="hidden"/>
    <line x1="1.25" y1="40" x2="642" y2="40" stroke="black" stroke-width="2.5"/>
    <line x1="1.25" y1="65" x2="642" y2="65" stroke="black" stroke-width="2.5"/>
    <line x1="1.25" y1="90" x2="642" y2="90" stroke="black" stroke-width="2.5"/>
    <line x1="1.25" y1="115" x2="642" y2="115" stroke="black" stroke-width="2.5"/>
    <line x1="1.25" y1="140" x2="642" y2="140" stroke="black" stroke-width="2.5"/>
    <path d="M 26.050001 58.5 Q 23.75 51.2 22.85 45.5 Q 22.050001 40.699997 22.050001 34.299995 Q 22.050001 32.1 22.15 29.900002 Q 22.550001 20.400002 26.050001 12.449997 Q 29.550001 4.5 36.55 0.29999542 Q 37.05 0 37.850002 0 Q 38.55 0 39.05 0.5 Q 44.65 6.0999985 47.65 14.799995 Q 50.65 23.5 50.65 32.4 Q 50.65 42.699997 46.25 52.6 Q 42.05 62.5 34.45 70.1 Q 33.850002 70.7 34.05 71.7 L 38.05 87.7 Q 38.350002 89.3 40.05 89.1 Q 41.65 88.9 43.15 88.9 Q 48.95 88.9 53.65 91.2 Q 58.350002 93.5 61.25 97.2 Q 64.15 100.9 65.700005 105.35 Q 67.25 109.8 67.25 114.5 Q 67.25 123.1 62.45 130.05 Q 57.65 137 50.95 139.2 Q 49.55 139.7 49.850002 141.3 Q 52.350002 153.1 52.45 161.2 Q 52.45 164.3 52.05 167.3 Q 51.25 174.2 46.05 179.4 Q 40.850002 184.6 33.65 184.6 Q 24.85 184.6 18.75 179.3 Q 12.650001 174 12.650001 165.4 Q 12.650001 161 15.75 157.8 Q 18.85 154.6 23.050001 154.6 Q 27.35 154.6 30.300001 157.65 Q 33.25 160.7 33.25 164.9 Q 33.25 168.5 30.85 171.2 Q 28.45 174 25.050001 174.3 Q 23.85 174.4 23.45 175.5 Q 23.050001 176.6 24.25 177.5 Q 27.85 180.3 33.050003 180.3 Q 38.75 180.3 42.9 176.2 Q 47.05 172.1 47.75 166.9 Q 48.25 163.3 48.25 159.7 Q 48.25 151.9 45.850002 142.4 Q 45.45 140.7 43.65 140.9 Q 39.65 141.4 36.25 141.4 Q 21.45 141.4 11.35 132.1 Q 1.25 122.8 1.25 106.8 Q 1.25 101.9 2.4 97.15 Q 3.55 92.4 5 88.95 Q 6.4500003 85.5 9.5 80.95 Q 12.55 76.399994 14.400001 74 Q 16.25 71.6 20.25 66.85 Q 24.25 62.1 25.75 60.2 Q 26.35 59.5 26.050001 58.5 Z M 41.65 104.2 L 48.15 133.7 Q 48.45 135 49.95 135 Q 50.350002 135 50.65 134.9 Q 54.75 133.2 57.45 128.3 Q 60.15 123.4 60.15 118.6 Q 60.15 111.6 56.05 106.8 Q 51.850002 101.9 43.45 101.9 Q 42.75 101.9 42.2 102.45 Q 41.65 103 41.65 103.7 Q 41.55 104 41.65 104.2 Z M 27.85 76.399994 Q 26.25 78.2 23.1 81.55 Q 19.95 84.9 18.4 86.65 Q 16.85 88.4 14.6 91.6 Q 12.35 94.8 11.25 97.5 Q 10.150001 100.2 9.3 104.1 Q 8.450001 108 8.450001 112.4 Q 8.450001 118.5 12.2 124.2 Q 15.95 129.9 22.5 133.5 Q 29.050001 137.1 36.55 137.1 Q 39.25 137.1 42.55 136.8 Q 43.350002 136.7 43.850002 136.05 Q 44.350002 135.4 44.15 134.6 L 37.65 104.7 Q 37.350002 103.3 35.75 103.3 Q 35.45 103.3 35.05 103.4 Q 30.45 105.1 28.550001 108.2 Q 26.65 111.3 26.65 116 Q 26.65 121.5 32.65 125.5 Q 33.350002 126 33.350002 127 Q 33.350002 127.8 32.7 128.5 Q 32.050003 129.2 31.15 129.2 Q 30.65 129.2 30.25 129 Q 24.550001 126 21.800001 120.85 Q 19.050001 115.7 19.050001 110 Q 19.050001 104.5 23 98.65 Q 26.95 92.8 32.85 90.6 Q 34.350002 90 34.05 88.5 L 31.050001 77.2 Q 30.85 76.1 29.65 75.899994 Q 28.45 75.7 27.85 76.399994 Z M 44.65 18.199997 Q 43.850002 15.599998 41.95 15.599998 Q 41.350002 15.599998 40.850002 15.900002 Q 34.45 19.699997 30.7 26.599998 Q 26.95 33.5 26.95 41.199997 Q 26.95 46.199997 29.050001 53.5 Q 29.35 54.6 30.550001 54.8 Q 31.550001 54.899998 32.25 54.1 Q 32.550003 53.7 35.100002 50.549995 Q 37.65 47.4 38.45 46.35 Q 39.25 45.299995 41.15 42.35 Q 43.05 39.4 43.8 37.449997 Q 44.55 35.5 45.25 32.6 Q 45.95 29.699997 45.95 26.799995 Q 45.95 22.599998 44.65 18.199997 Z " fill="black"/>
    <path d="M 96.85 30.400002 L 96.85 42.6 Q 96.85 43.4 97.35 43.9 Q 97.85 44.4 98.65 44.4 Q 98.95 44.4 99.25 44.3 L 100.05 44 Q 100.35 43.9 100.75 43.9 Q 101.55 43.9 102.15 44.5 Q 102.75 45.1 102.75 45.9 L 102.75 51.9 Q 102.75 53.2 101.45 53.7 L 98.05 55 Q 96.85 55.5 96.85 56.6 L 96.85 71.2 Q 96.85 72 96.3 72.55 Q 95.75 73.100006 95.05 73.100006 Q 94.25 73.100006 93.7 72.55 Q 93.15 72 93.15 71.2 L 93.15 59.300003 Q 93.15 58.5 92.6 58 Q 92.05 57.5 91.35 57.5 Q 90.95 57.5 90.65 57.6 L 86.05 59.4 Q 84.85 59.800003 84.85 61 L 84.85 75.600006 Q 84.85 76.4 84.25 76.95 Q 83.65 77.5 82.95 77.5 Q 82.25 77.5 81.7 76.95 Q 81.15 76.4 81.15 75.600006 L 81.15 63.7 Q 81.15 62.9 80.6 62.4 Q 80.05 61.9 79.35 61.9 Q 79.05 61.9 78.75 62 L 77.95 62.300003 Q 77.75 62.4 77.25 62.4 Q 76.45 62.4 75.85 61.800003 Q 75.25 61.2 75.25 60.4 L 75.25 54.4 Q 75.25 53 76.55 52.5 L 79.95 51.3 Q 81.15 51 81.15 49.6 L 81.15 37.4 Q 81.15 36.6 80.6 36.1 Q 80.05 35.6 79.35 35.6 Q 79.05 35.6 78.85 35.7 L 77.95 36 Q 77.75 36.1 77.25 36.1 Q 76.45 36.1 75.85 35.5 Q 75.25 34.9 75.25 34.1 L 75.25 28.099998 Q 75.25 26.8 76.55 26.3 L 80.05 25 Q 81.15 24.5 81.15 23.400002 L 81.15 8.800003 Q 81.15 8 81.7 7.449997 Q 82.25 6.899994 82.95 6.899994 Q 83.65 6.899994 84.25 7.449997 Q 84.85 8 84.85 8.800003 L 84.85 20.699997 Q 84.85 21.5 85.4 22 Q 85.95 22.5 86.75 22.5 Q 87.05 22.5 87.35 22.400002 L 91.95 20.599998 Q 93.15 20.099998 93.15 18.900002 L 93.15 4.399994 Q 93.15 3.5999985 93.7 3.050003 Q 94.25 2.5 95.05 2.5 Q 95.75 2.5 96.3 3.050003 Q 96.85 3.5999985 96.85 4.399994 L 96.85 16.400002 Q 96.85 17.099998 97.35 17.599998 Q 97.85 18.099998 98.55 18.099998 Q 98.85 18.099998 99.25 18 L 100.05 17.699997 Q 100.25 17.599998 100.75 17.599998 Q 101.55 17.599998 102.15 18.199997 Q 102.75 18.800003 102.75 19.599998 L 102.75 25.599998 Q 102.75 27 101.45 27.5 L 98.05 28.7 Q 96.85 29 96.85 30.400002 Z M 93.15 45.2 L 93.15 33.1 Q 93.15 32.4 92.6 31.849998 Q 92.05 31.3 91.35 31.3 Q 91.05 31.3 90.75 31.400002 L 86.05 33.1 Q 84.85 33.6 84.85 34.8 L 84.85 46.9 Q 84.85 47.7 85.35 48.2 Q 85.85 48.7 86.65 48.7 Q 86.95 48.7 87.25 48.6 L 91.95 46.9 Q 93.15 46.4 93.15 45.2 Z M 126.850006 67.9 L 126.850006 80.1 Q 126.850006 80.9 127.350006 81.4 Q 127.850006 81.9 128.65 81.9 Q 128.95001 81.9 129.25 81.8 L 130.05 81.5 Q 130.35 81.4 130.75 81.4 Q 131.55 81.4 132.15 82 Q 132.75 82.6 132.75 83.4 L 132.75 89.4 Q 132.75 90.7 131.45001 91.2 L 128.05 92.5 Q 126.850006 93 126.850006 94.1 L 126.850006 108.7 Q 126.850006 109.5 126.3 110.05 Q 125.75 110.600006 125.05 110.600006 Q 124.25 110.600006 123.700005 110.05 Q 123.15 109.5 123.15 108.7 L 123.15 96.8 Q 123.15 96 122.600006 95.5 Q 122.05 95 121.350006 95 Q 120.95 95 120.65 95.1 L 116.05 96.9 Q 114.850006 97.3 114.850006 98.5 L 114.850006 113.100006 Q 114.850006 113.9 114.25 114.45 Q 113.65 115 112.95 115 Q 112.25 115 111.7 114.45 Q 111.15 113.9 111.15 113.100006 L 111.15 101.2 Q 111.15 100.4 110.600006 99.9 Q 110.05 99.4 109.350006 99.4 Q 109.05 99.4 108.75 99.5 L 107.95 99.8 Q 107.75 99.9 107.25 99.9 Q 106.450005 99.9 105.850006 99.3 Q 105.25 98.7 105.25 97.9 L 105.25 91.9 Q 105.25 90.5 106.55 90 L 109.95 88.8 Q 111.15 88.5 111.15 87.1 L 111.15 74.9 Q 111.15 74.1 110.600006 73.6 Q 110.05 73.1 109.350006 73.1 Q 109.05 73.1 108.850006 73.2 L 107.95 73.5 Q 107.75 73.6 107.25 73.6 Q 106.450005 73.6 105.850006 73 Q 105.25 72.4 105.25 71.6 L 105.25 65.6 Q 105.25 64.3 106.55 63.8 L 110.05 62.5 Q 111.15 62 111.15 60.9 L 111.15 46.3 Q 111.15 45.5 111.7 44.95 Q 112.25 44.399998 112.95 44.399998 Q 113.65 44.399998 114.25 44.95 Q 114.850006 45.5 114.850006 46.3 L 114.850006 58.199997 Q 114.850006 59 115.4 59.5 Q 115.95 60 116.75 60 Q 117.05 60 117.350006 59.9 L 121.950005 58.1 Q 123.15 57.6 123.15 56.4 L 123.15 41.899998 Q 123.15 41.1 123.700005 40.55 Q 124.25 40 125.05 40 Q 125.75 40 126.3 40.55 Q 126.850006 41.1 126.850006 41.899998 L 126.850006 53.9 Q 126.850006 54.6 127.350006 55.1 Q 127.850006 55.6 128.55 55.6 Q 128.85 55.6 129.25 55.5 L 130.05 55.199997 Q 130.25 55.1 130.75 55.1 Q 131.55 55.1 132.15 55.699997 Q 132.75 56.3 132.75 57.1 L 132.75 63.1 Q 132.75 64.5 131.45001 65 L 128.05 66.2 Q 126.850006 66.5 126.850006 67.9 Z M 123.15 82.7 L 123.15 70.6 Q 123.15 69.9 122.600006 69.35 Q 122.05 68.8 121.350006 68.8 Q 121.05 68.8 120.75 68.9 L 116.05 70.6 Q 114.850006 71.1 114.850006 72.3 L 114.850006 84.4 Q 114.850006 85.2 115.350006 85.7 Q 115.850006 86.2 116.65 86.2 Q 116.95 86.2 117.25 86.1 L 121.950005 84.4 Q 123.15 83.9 123.15 82.7 Z " fill="black"/>
    <path d="M 181.85 129.6 Q 182.15 133.1 184.05 135.45 Q 185.95 137.8 188.95 137.7 Q 190.15 137.6 190.15 138.8 Q 190.15 140 188.95 140 Q 186.75 140 182.4 139.4 Q 178.05 138.8 175.85 138.8 Q 173.65 138.8 169.3 139.4 Q 164.95 140 162.75 140 Q 161.55 140 161.55 138.8 Q 161.55 137.7 162.75 137.7 Q 165.75 137.7 167.85 135.3 Q 169.85 132.8 170.05 129.4 Q 170.15 128.7 169.55 128.15 Q 168.95 127.6 168.15 127.6 L 153.35 127.6 Q 151.75 127.6 151.05 126.8 Q 150.25 126 150.25 125.2 Q 150.25 124.8 150.45 124.7 Q 164.25 108.6 164.25 91.6 Q 164.25 90.9 164.65 90.45 Q 165.05 90 165.55 90 L 165.85 90 Q 170.15 91.3 172.95 91.35 Q 175.75 91.4 180.05 90 Q 180.25 90 180.55 90 Q 181.35 90 181.85 90.6 Q 182.25 91 181.75 91.6 L 155.95 121.6 Q 155.55 122.1 155.55 122.9 Q 155.55 123.6 156 124.1 Q 156.45 124.6 157.25 124.7 L 168.25 124.7 Q 169.05 124.7 169.55 124.15 Q 170.05 123.6 170.05 122.8 L 170.05 111.6 Q 170.05 110 170.85 109.4 Q 175.15 106.8 176.85 104.4 Q 177.85 103.2 179.55 99.4 Q 179.85 98.8 180.45 98.8 Q 180.95 98.8 181.35 99.2 Q 181.75 99.6 181.75 100.2 L 181.75 122.8 Q 181.75 123.6 182.25 124.1 Q 182.75 124.6 183.55 124.7 L 188.95 124.7 Q 189.65 124.7 190.05 125.1 Q 190.45 125.5 190.45 126.05 Q 190.45 126.6 190.05 127.1 Q 189.65 127.6 188.95 127.6 L 183.65 127.6 Q 182.75 127.6 182.25 128.25 Q 181.75 128.9 181.85 129.6 Z M 166.25 42.3 Q 160.35 42.3 160.35 45.6 Q 160.35 46.699997 162.15 47.949997 Q 163.95 49.2 163.95 50.3 Q 163.95 52.7 162.25 54.4 Q 160.55 56.1 158.15 56.1 Q 155.75 56.1 154.1 54.4 Q 152.45 52.7 152.45 50.3 Q 152.45 45.6 156.55 42.8 Q 160.65 40 166.25 40 Q 173.65 40 178.4 42.85 Q 183.15 45.699997 183.15 51.4 Q 183.15 55.2 182.35 57.4 Q 181.55 59.6 178.95 60.8 Q 177.55 61.4 177.55 62.9 Q 177.55 64.5 178.95 65.1 Q 184.55 67.7 184.55 76 Q 184.55 82.7 179.5 86.35 Q 174.45 90 166.65 90 Q 160.45 90 155.85 86.9 Q 151.25 83.8 151.25 78.7 Q 151.25 76 153.2 74.05 Q 155.15 72.1 157.85 72.1 Q 160.55 72.1 162.45 74.05 Q 164.35 76 164.35 78.7 Q 164.35 80 162.35 81.4 Q 160.35 82.8 160.35 84 Q 160.35 85.9 162.2 86.8 Q 164.05 87.7 166.65 87.7 Q 170.05 87.7 171.5 84.3 Q 172.95 80.9 172.95 76 L 172.95 74.4 Q 172.95 71 172.75 69.25 Q 172.55 67.5 171.4 65.95 Q 170.25 64.4 167.95 64.4 L 159.95 64.4 Q 158.55 64.4 158.55 62.9 Q 158.55 61.5 159.95 61.5 L 167.95 61.5 Q 169.75 61.5 170.8 60.9 Q 171.85 60.3 172.3 58.85 Q 172.75 57.4 172.85 56.1 Q 172.95 54.8 172.95 52.2 L 172.95 51.4 Q 172.95 42.3 166.25 42.3 Z " fill="black"/>
    <path d="M 218.25 93.4 Q 218.25 87.4 224.85 81.85 Q 231.45 76.3 238.35 76.3 Q 241.15 76.3 243.7 77 Q 246.25 77.7 248.55 80.2 Q 250.85 82.7 250.85 86.6 Q 250.85 92.1 244.15 97.9 Q 237.45 103.7 230.75 103.7 Q 227.95 103.7 225.4 103 Q 222.85 102.3 220.55 99.8 Q 218.25 97.3 218.25 93.4 Z " fill="black"/>
    <path d="M 323.25 93.4 Q 323.25 87.4 329.85 81.85 Q 336.45 76.3 343.35 76.3 Q 346.15 76.3 348.7 77 Q 351.25 77.7 353.55 80.2 Q 355.85 82.7 355.85 86.6 Q 355.85 92.1 349.15 97.9 Q 342.45 103.7 335.75 103.7 Q 332.95 103.7 330.4 103 Q 327.85 102.3 325.55 99.8 Q 323.25 97.3 323.25 93.4 Z " fill="black"/>
    <path d="M 428.25 93.4 Q 428.25 87.4 434.85 81.85 Q 441.45 76.3 448.35 76.3 Q 451.15 76.3 453.7 77 Q 456.25 77.7 458.55 80.2 Q 460.85 82.7 460.85 86.6 Q 460.85 92.1 454.15 97.9 Q 447.45 103.7 440.75 103.7 Q 437.95 103.7 435.4 103 Q 432.85 102.3 430.55 99.8 Q 428.25 97.3 428.25 93.4 Z " fill="black"/>
    <path d="M 533.25 93.4 Q 533.25 87.4 539.85 81.85 Q 546.45 76.3 553.35 76.3 Q 556.15 76.3 558.7 77 Q 561.25 77.7 563.55 80.2 Q 565.85 82.7 565.85 86.6 Q 565.85 92.1 559.15 97.9 Q 552.45 103.7 545.75 103.7 Q 542.95 103.7 540.4 103 Q 537.85 102.3 535.55 99.8 Q 533.25 97.3 533.25 93.4 Z " fill="black"/>
    <rect x="638.25" y="40" width="3.7500002" height="100" fill="black"/>
    <line x1="219.75" y1="94" x2="219.75" y2="179.2857" stroke="black" stroke-width="3"/>
    <line x1="324.75" y1="94" x2="324.75" y2="179.2857" stroke="black" stroke-width="3"/>
    <line x1="429.75" y1="94" x2="429.75" y2="179.2857" stroke="black" stroke-width="3"/>
    <line x1="534.75" y1="94" x2="534.75" y2="179.2857" stroke="black" stroke-width="3"/>
    <rect x="0" y="0" width="643.25" height="184.6" stroke="white" stroke-width="1" fill="none"/>
</svg>
