<svg xmlns="http://www.w3.org/2000/svg" xmlns:xlink="http://www.w3.org/1999/xlink" width="460.25" height="142.0357" viewBox="0 0 460.25 142.0357">
    <defs visibility="hidden"/>
    <line x1="1.25" y1="40.785713" x2="459" y2="40.785713" stroke="black" stroke-width="2.5"/>
    <line x1="1.25" y1="65.78571" x2="459" y2="65.78571" stroke="black" stroke-width="2.5"/>
    <line x1="1.25" y1="90.78571" x2="459" y2="90.78571" stroke="black" stroke-width="2.5"/>
    <line x1="1.25" y1="115.78571" x2="459" y2="115.78571" stroke="black" stroke-width="2.5"/>
    <line x1="1.25" y1="140.7857" x2="459" y2="140.7857" stroke="black" stroke-width="2.5"/>
    <path d="M 1.25 94.185715 Q 1.25 88.185715 7.85 82.63571 Q 14.45 77.08572 21.35 77.08572 Q 24.15 77.08572 26.7 77.78571 Q 29.25 78.48571 31.550001 80.98571 Q 33.850002 83.48571 33.850002 87.38571 Q 33.850002 92.88571 27.15 98.685715 Q 20.45 104.48571 13.75 104.48571 Q 10.95 104.48571 8.4 103.78571 Q 5.85 103.08572 3.55 100.58572 Q 1.25 98.08572 1.25 94.185715 Z " fill="black"/>
    <path d="M 106.25 94.185715 Q 106.25 88.185715 112.85 82.63571 Q 119.45 77.08572 126.35 77.08572 Q 129.15 77.08572 131.7 77.78571 Q 134.25 78.48571 136.55 80.98571 Q 138.85 83.48571 138.85 87.38571 Q 138.85 92.88571 132.15 98.685715 Q 125.45 104.48571 118.75 104.48571 Q 115.95 104.48571 113.4 103.78571 Q 110.85 103.08572 108.55 100.58572 Q 106.25 98.08572 106.25 94.185715 Z " fill="black"/>
    <path d="M 211.25 94.185715 Q 211.25 88.185715 217.85 82.63571 Q 224.45 77.08572 231.35 77.08572 Q 234.15 77.08572 236.7 77.78571 Q 239.25 78.48571 241.55 80.98571 Q 243.85 83.48571 243.85 87.38571 Q 243.85 92.88571 237.15 98.685715 Q 230.45 104.48571 223.75 104.48571 Q 220.95 104.48571 218.4 103.78571 Q 215.85 103.08572 213.55 100.58572 Q 211.25 98.08572 211.25 94.185715 Z " fill="black"/>
    <path d="M 316.25 94.185715 Q 316.25 88.185715 322.85 82.63571 Q 329.45 77.08572 336.35 77.08572 Q 339.15 77.08572 341.7 77.78571 Q 344.25 78.48571 346.55 80.98571 Q 348.85 83.48571 348.85 87.38571 Q 348.85 92.88571 342.15 98.685715 Q 335.45 104.48571 328.75 104.48571 Q 325.95 104.48571 323.4 103.78571 Q 320.85 103.08572 318.55 100.58572 Q 316.25 98.08572 316.25 94.185715 Z " fill="black"/>
    <rect x="421.25" y="40.785713" width="3.7500002" height="100" fill="black"/>
    <rect x="455.25" y="40.785713" width="3.7500002" height="100" fill="black"/>
    <line x1="32.25" y1="1.5" x2="32.25" y2="86.78571" stroke="black" stroke-width="3"/>
    <line x1="137.25" y1="1.5" x2="137.25" y2="86.78571" stroke="black" stroke-width="3"/>
    <line x1="242.25" y1="1.5" x2="242.25" y2="86.78571" stroke="black" stroke-width="3"/>
    <line x1="347.25" y1="1.5" x2="347.25" y2="86.78571" stroke="black" stroke-width="3"/>
    <rect x="0" y="0" width="460.25" height="142.0357" stroke="white" stroke-width="1" fill="none"/>
</svg>
