<svg xmlns="http://www.w3.org/2000/svg" xmlns:xlink="http://www.w3.org/1999/xlink" width="820.25" height="206.57143" viewBox="0 0 820.25 206.57143">
    <defs visibility="hidden"/>
    <line x1="1.25" y1="40.785713" x2="819" y2="40.785713" stroke="black" stroke-width="2.5"/>
    <line x1="1.25" y1="65.78571" x2="819" y2="65.78571" stroke="black" stroke-width="2.5"/>
    <line x1="1.25" y1="90.78571" x2="819" y2="90.78571" stroke="black" stroke-width="2.5"/>
    <line x1="1.25" y1="115.78571" x2="819" y2="115.78571" stroke="black" stroke-width="2.5"/>
    <line x1="1.25" y1="140.7857" x2="819" y2="140.7857" stroke="black" stroke-width="2.5"/>
    <path d="M 37.75 17.885712 L 2.25 17.885712 Q 1.25 17.885712 1.25 16.885712 L 1.25 4.285713 Q 1.25 3.2857132 2.25 3.2857132 L 37.75 3.2857132 Q 38.75 3.2857132 38.75 4.285713 L 38.75 16.885712 Q 38.75 17.885712 37.75 17.885712 Z " fill="black"/>
    <path d="M 1.25 56.685715 Q 1.25 50.685715 7.85 45.13571 Q 14.45 39.585712 21.35 39.585712 Q 24.15 39.585712 26.7 40.285713 Q 29.25 40.985714 31.550001 43.485714 Q 33.850002 45.985714 33.850002 49.88571 Q 33.850002 55.38571 27.15 61.185715 Q 20.45 66.98572 13.75 66.98572 Q 10.95 66.98572 8.4 66.28571 Q 5.85 65.58571 3.55 63.085712 Q 1.25 60.585712 1.25 56.685715 Z " fill="black"/>
    <path d="M 106.25 119.185715 Q 106.25 113.185715 112.85 107.63571 Q 119.45 102.08572 126.35 102.08572 Q 129.15 102.08572 131.7 102.78571 Q 134.25 103.48571 136.55 105.98571 Q 138.85 108.48572 138.85 112.38571 Q 138.85 117.88571 132.15 123.685715 Q 125.45 129.48572 118.75 129.48572 Q 115.95 129.48572 113.4 128.7857 Q 110.85 128.08571 108.55 125.58571 Q 106.25 123.08571 106.25 119.185715 Z " fill="black"/>
    <path d="M 211.25 94.185715 Q 211.25 88.185715 217.85 82.63571 Q 224.45 77.08572 231.35 77.08572 Q 234.15 77.08572 236.7 77.78571 Q 239.25 78.48571 241.55 80.98571 Q 243.85 83.48571 243.85 87.38571 Q 243.85 92.88571 237.15 98.685715 Q 230.45 104.48571 223.75 104.48571 Q 220.95 104.48571 218.4 103.78571 Q 215.85 103.08572 213.55 100.58572 Q 211.25 98.08572 211.25 94.185715 Z " fill="black"/>
    <path d="M 247.75 142.88571 L 212.25 142.88571 Q 211.25 142.88571 211.25 141.88571 L 211.25 129.2857 Q 211.25 128.2857 212.25 128.2857 L 247.75 128.2857 Q 248.75 128.2857 248.75 129.2857 L 248.75 141.88571 Q 248.75 142.88571 247.75 142.88571 Z " fill="black"/>
    <path d="M 326.75 76.185715 Q 327.45 76.185715 327.9 75.73572 Q 328.35 75.28571 328.35 74.685715 Q 328.35 74.08571 327.95 73.685715 L 320.75 65.58571 Q 317.75 62.185715 317.75 59.285713 Q 317.75 56.785713 324.85 50.585712 Q 328.55 47.285713 328.55 42.285713 Q 328.55 38.38571 326.05 35.38571 L 322.55 31.18571 Q 322.15 30.68571 322.15 30.18571 Q 322.15 28.68571 323.55 28.68571 Q 324.45 28.68571 325.05 29.385712 L 340.05 47.185715 Q 341.05 48.38571 341.05 49.685715 Q 341.05 50.785713 340.25 51.98571 Q 339.45 53.185715 338.55 54.035713 Q 337.65 54.88571 335.9 56.335712 Q 334.15 57.785713 333.45 58.485714 Q 329.25 62.38571 329.25 67.08571 Q 329.25 70.685715 333.35 75.08572 L 341.75 84.185715 Q 342.15 84.58572 342.15 85.185715 Q 342.15 85.78571 341.7 86.23572 Q 341.25 86.685715 340.75 86.685715 Q 340.05 86.685715 338.65 85.58572 Q 334.95 82.78571 330.75 82.78571 Q 327.85 82.78571 325.7 85.03571 Q 323.55 87.28571 323.55 90.185715 Q 323.55 91.48572 323.75 92.53571 Q 323.95 93.58572 324.5 94.685715 Q 325.05 95.78571 325.25 96.185715 Q 325.45 96.58572 326.35 97.83572 Q 327.25 99.08572 327.35 99.185715 Q 327.65 99.58572 327.55 100.08572 Q 327.45 100.58571 327 100.83571 Q 326.55 101.08571 326.05 100.98572 Q 325.55 100.88571 324.75 100.08572 Q 321.35 96.58572 318.8 92.23572 Q 316.25 87.88571 316.25 84.685715 Q 316.25 80.78571 319 78.48571 Q 321.75 76.185715 326.75 76.185715 Z " fill="black"/>
    <rect x="421.25" y="40.785713" width="3.7500002" height="100" fill="black"/>
    <path d="M 455.25 94.185715 Q 455.25 88.185715 461.85 82.63571 Q 468.45 77.08572 475.35 77.08572 Q 478.15 77.08572 480.7 77.78571 Q 483.25 78.48571 485.55 80.98571 Q 487.85 83.48571 487.85 87.38571 Q 487.85 92.88571 481.15 98.685715 Q 474.45 104.48571 467.75 104.48571 Q 464.95 104.48571 462.4 103.78571 Q 459.85 103.08572 457.55 100.58572 Q 455.25 98.08572 455.25 94.185715 Z " fill="black"/>
    <path d="M 570.75 101.185715 Q 571.45 101.185715 571.9 100.73572 Q 572.35 100.28571 572.35 99.685715 Q 572.35 99.08572 571.95 98.685715 L 564.75 90.58572 Q 561.75 87.185715 561.75 84.28571 Q 561.75 81.78571 568.85 75.58571 Q 572.55 72.28571 572.55 67.28571 Q 572.55 63.38571 570.05 60.38571 L 566.55 56.18571 Q 566.15 55.68571 566.15 55.18571 Q 566.15 53.68571 567.55 53.68571 Q 568.45 53.68571 569.05 54.38571 L 584.05 72.185715 Q 585.05 73.38571 585.05 74.685715 Q 585.05 75.78571 584.25 76.98571 Q 583.45 78.185715 582.55 79.03571 Q 581.65 79.88571 579.9 81.33572 Q 578.15 82.78571 577.45 83.48571 Q 573.25 87.38571 573.25 92.08572 Q 573.25 95.685715 577.35 100.08572 L 585.75 109.185715 Q 586.15 109.58572 586.15 110.185715 Q 586.15 110.78571 585.7 111.23572 Q 585.25 111.685715 584.75 111.685715 Q 584.05 111.685715 582.65 110.58572 Q 578.95 107.78571 574.75 107.78571 Q 571.85 107.78571 569.7 110.03571 Q 567.55 112.28571 567.55 115.185715 Q 567.55 116.48572 567.75 117.53571 Q 567.95 118.58572 568.5 119.685715 Q 569.05 120.78571 569.25 121.185715 Q 569.45 121.58572 570.35 122.83572 Q 571.25 124.08572 571.35 124.185715 Q 571.65 124.58572 571.55 125.08572 Q 571.45 125.58571 571 125.83571 Q 570.55 126.08571 570.05 125.98572 Q 569.55 125.88571 568.75 125.08572 Q 565.35 121.58572 562.8 117.23572 Q 560.25 112.88571 560.25 109.685715 Q 560.25 105.78571 563 103.48571 Q 565.75 101.185715 570.75 101.185715 Z " fill="black"/>
    <path d="M 701.75 92.88571 L 666.25 92.88571 Q 665.25 92.88571 665.25 91.88571 L 665.25 79.28571 Q 665.25 78.28571 666.25 78.28571 L 701.75 78.28571 Q 702.75 78.28571 702.75 79.28571 L 702.75 91.88571 Q 702.75 92.88571 701.75 92.88571 Z " fill="black"/>
    <rect x="815.25" y="40.785713" width="3.7500002" height="100" fill="black"/>
    <line x1="2.75" y1="57.285713" x2="2.75" y2="142.57143" stroke="black" stroke-width="3"/>
    <line x1="107.75" y1="119.78571" x2="107.75" y2="205.07143" stroke="black" stroke-width="3"/>
    <line x1="242.25" y1="1.5" x2="242.25" y2="86.78571" stroke="black" stroke-width="3"/>
    <line x1="456.75" y1="94.78571" x2="456.75" y2="180.07143" stroke="black" stroke-width="3"/>
    <rect x="0" y="0" width="820.25" height="206.57143" stroke="white" stroke-width="1" fill="none"/>
</svg>
