<svg xmlns="http://www.w3.org/2000/svg" xmlns:xlink="http://www.w3.org/1999/xlink" width="1153.5" height="218.2857" viewBox="0 0 1153.5 218.2857">
    <defs visibility="hidden"/>
    <line x1="2.5" y1="40.785713" x2="1152.25" y2="40.785713" stroke="black" stroke-width="2.5"/>
    <line x1="2.5" y1="65.78571" x2="1152.25" y2="65.78571" stroke="black" stroke-width="2.5"/>
    <line x1="2.5" y1="90.78571" x2="1152.25" y2="90.78571" stroke="black" stroke-width="2.5"/>
    <line x1="2.5" y1="115.78571" x2="1152.25" y2="115.78571" stroke="black" stroke-width="2.5"/>
    <line x1="2.5" y1="140.7857" x2="1152.25" y2="140.7857" stroke="black" stroke-width="2.5"/>
    <path d="M 2.5 94.185715 Q 2.5 88.185715 9.1 82.63571 Q 15.7 77.08572 22.6 77.08572 Q 25.4 77.08572 27.95 77.78571 Q 30.5 78.48571 32.800003 80.98571 Q 35.100002 83.48571 35.100002 87.38571 Q 35.100002 92.88571 28.4 98.685715 Q 21.7 104.48571 15 104.48571 Q 12.2 104.48571 9.65 103.78571 Q 7.1 103.08572 4.8 100.58572 Q 2.5 98.08572 2.5 94.185715 Z " fill="black"/>
    <path d="M 107.5 94.185715 Q 107.5 88.185715 114.1 82.63571 Q 120.7 77.08572 127.6 77.08572 Q 130.4 77.08572 132.95 77.78571 Q 135.5 78.48571 137.8 80.98571 Q 140.1 83.48571 140.1 87.38571 Q 140.1 92.88571 133.4 98.685715 Q 126.7 104.48571 120 104.48571 Q 117.2 104.48571 114.65 103.78571 Q 112.1 103.08572 109.8 100.58572 Q 107.5 98.08572 107.5 94.185715 Z " fill="black"/>
    <rect x="212.5" y="40.785713" width="3.7500002" height="100" fill="black"/>
    <path d="M 216.5 94.185715 Q 216.5 88.185715 223.1 82.63571 Q 229.7 77.08572 236.6 77.08572 Q 239.4 77.08572 241.95 77.78571 Q 244.5 78.48571 246.8 80.98571 Q 249.1 83.48571 249.1 87.38571 Q 249.1 92.88571 242.4 98.685715 Q 235.7 104.48571 229 104.48571 Q 226.2 104.48571 223.65 103.78571 Q 221.1 103.08572 218.8 100.58572 Q 216.5 98.08572 216.5 94.185715 Z " fill="black"/>
    <rect x="216.5" y="140.7857" width="25" height="12.5" fill="orange"/>
    <path d="M 321.5 94.185715 Q 321.5 88.185715 328.1 82.63571 Q 334.7 77.08572 341.6 77.08572 Q 344.4 77.08572 346.95 77.78571 Q 349.5 78.48571 351.8 80.98571 Q 354.1 83.48571 354.1 87.38571 Q 354.1 92.88571 347.4 98.685715 Q 340.7 104.48571 334 104.48571 Q 331.2 104.48571 328.65 103.78571 Q 326.1 103.08572 323.8 100.58572 Q 321.5 98.08572 321.5 94.185715 Z " fill="black"/>
    <rect x="426.5" y="40.785713" width="3.7500002" height="100" fill="black"/>
    <path d="M 430.5 106.685715 Q 430.5 100.685715 437.1 95.13571 Q 443.7 89.58572 450.6 89.58572 Q 453.4 89.58572 455.95 90.28571 Q 458.5 90.98571 460.8 93.48571 Q 463.1 95.98571 463.1 99.88571 Q 463.1 105.38571 456.4 111.185715 Q 449.7 116.98572 443 116.98572 Q 440.2 116.98572 437.65 116.28571 Q 435.1 115.58571 432.8 113.08571 Q 430.5 110.58571 430.5 106.685715 Z " fill="black"/>
    <rect x="430.5" y="40.785713" width="25" height="12.5" fill="orange"/>
    <path d="M 535.5 106.685715 Q 535.5 100.685715 542.1 95.13571 Q 548.7 89.58572 555.6 89.58572 Q 558.4 89.58572 560.95 90.28571 Q 563.5 90.98571 565.8 93.48571 Q 568.1 95.98571 568.1 99.88571 Q 568.1 105.38571 561.4 111.185715 Q 554.7 116.98572 548 116.98572 Q 545.2 116.98572 542.65 116.28571 Q 540.1 115.58571 537.8 113.08571 Q 535.5 110.58571 535.5 106.685715 Z " fill="black"/>
    <rect x="640.5" y="40.785713" width="3.7500002" height="100" fill="black"/>
    <rect x="644.5" y="40.785713" width="250" height="12.5" fill="orange"/>
    <rect x="644.5" y="140.7857" width="250" height="12.5" fill="orange"/>
    <rect x="894.5" y="40.785713" width="3.7500002" height="100" fill="black"/>
    <rect x="898.5" y="65.78571" width="250" height="12.5" fill="orange"/>
    <rect x="1148.5" y="40.785713" width="3.7500002" height="100" fill="black"/>
    <line x1="4" y1="94.78571" x2="4" y2="180.07143" stroke="black" stroke-width="3"/>
    <line x1="109" y1="94.78571" x2="109" y2="180.07143" stroke="black" stroke-width="3"/>
    <line x1="247.5" y1="1.5" x2="247.5" y2="86.78571" stroke="black" stroke-width="3"/>
    <line x1="352.5" y1="1.5" x2="352.5" y2="86.78571" stroke="black" stroke-width="3"/>
    <line x1="432" y1="107.28571" x2="432" y2="192.57143" stroke="black" stroke-width="3"/>
    <line x1="537" y1="107.28571" x2="537" y2="192.57143" stroke="black" stroke-width="3"/>
    <rect x="2.5" y="15.785713" width="1146" height="200" stroke="red" stroke-width="5" fill="none"/>
    <rect x="0" y="0" width="1153.5" height="218.2857" stroke="white" stroke-width="1" fill="none"/>
</svg>
