<svg xmlns="http://www.w3.org/2000/svg" xmlns:xlink="http://www.w3.org/1999/xlink" viewBox="0 0 337.5 241.2857">
    <line x1="1.25" y1="50.5" x2="336.25" y2="50.5" stroke="black" stroke-width="2.5"/>
    <line x1="1.25" y1="75.5" x2="336.25" y2="75.5" stroke="black" stroke-width="2.5"/>
    <line x1="1.25" y1="100.5" x2="336.25" y2="100.5" stroke="black" stroke-width="2.5"/>
    <line x1="1.25" y1="125.5" x2="336.25" y2="125.5" stroke="black" stroke-width="2.5"/>
    <line x1="1.25" y1="150.5" x2="336.25" y2="150.5" stroke="black" stroke-width="2.5"/>
    <rect x="1.25" y="0.5" width="10" height="200" stroke="orange" stroke-width="1" fill="none"/>
    <rect x="11.25" y="28" width="25" height="70" stroke="red" stroke-width="1" fill="none"/>
    <path d="M 21.75 73.4 Q 22.45 73.4 22.900002 72.95 Q 23.35 72.5 23.35 71.9 Q 23.35 71.3 22.95 70.9 L 15.75 62.8 Q 12.75 59.4 12.75 56.5 Q 12.75 54 19.85 47.8 Q 23.55 44.5 23.55 39.5 Q 23.55 35.6 21.05 32.6 L 17.55 28.399994 Q 17.15 27.899994 17.15 27.399994 Q 17.15 25.899994 18.55 25.899994 Q 19.45 25.899994 20.05 26.599998 L 35.050003 44.4 Q 36.050003 45.6 36.050003 46.9 Q 36.050003 48 35.25 49.199997 Q 34.45 50.4 33.550003 51.25 Q 32.65 52.1 30.9 53.55 Q 29.15 55 28.45 55.7 Q 24.25 59.6 24.25 64.3 Q 24.25 67.9 28.35 72.3 L 36.75 81.4 Q 37.15 81.8 37.15 82.4 Q 37.15 83 36.7 83.45 Q 36.25 83.9 35.75 83.9 Q 35.050003 83.9 33.65 82.8 Q 29.95 80 25.75 80 Q 22.85 80 20.7 82.25 Q 18.55 84.5 18.55 87.4 Q 18.55 88.7 18.75 89.75 Q 18.95 90.8 19.5 91.9 Q 20.05 93 20.25 93.4 Q 20.45 93.8 21.35 95.05 Q 22.25 96.3 22.35 96.4 Q 22.650002 96.8 22.55 97.3 Q 22.45 97.8 22 98.05 Q 21.55 98.3 21.05 98.2 Q 20.55 98.100006 19.75 97.3 Q 16.35 93.8 13.8 89.45 Q 11.25 85.1 11.25 81.9 Q 11.25 78 14 75.7 Q 16.75 73.4 21.75 73.4 Z " fill="black"/>
    <rect x="11.25" y="138" width="32.5" height="25" stroke="red" stroke-width="1" fill="none"/>
    <path d="M 11.25 153.9 Q 11.25 147.9 17.85 142.35 Q 24.45 136.8 31.35 136.8 Q 34.15 136.8 36.7 137.5 Q 39.25 138.2 41.550003 140.7 Q 43.850002 143.2 43.850002 147.1 Q 43.850002 152.6 37.15 158.4 Q 30.45 164.2 23.75 164.2 Q 20.95 164.2 18.4 163.5 Q 15.85 162.8 13.55 160.3 Q 11.25 157.8 11.25 153.9 Z " fill="black"/>
    <rect x="43.75" y="138" width="5" height="25" stroke="red" stroke-width="1" fill="none"/>
    <rect x="43.75" y="133" width="7.5000005" height="35" stroke="red" stroke-width="1" fill="none"/>
    <rect x="43.75" y="133" width="7.5000005" height="35" fill="green"/>
    <rect x="11.25" y="150.5" width="3" height="89.285706" stroke="red" stroke-width="1" fill="none"/>
    <rect x="116.25" y="88" width="32.5" height="25" stroke="red" stroke-width="1" fill="none"/>
    <path d="M 116.25 103.9 Q 116.25 97.9 122.85 92.35 Q 129.45 86.8 136.35 86.8 Q 139.15 86.8 141.7 87.5 Q 144.25 88.2 146.55 90.7 Q 148.85 93.2 148.85 97.1 Q 148.85 102.6 142.15 108.4 Q 135.45 114.2 128.75 114.2 Q 125.95 114.2 123.4 113.5 Q 120.85 112.8 118.55 110.3 Q 116.25 107.8 116.25 103.9 Z " fill="black"/>
    <rect x="148.75" y="88" width="5" height="25" stroke="red" stroke-width="1" fill="none"/>
    <rect x="116.25" y="138" width="32.5" height="25" stroke="red" stroke-width="1" fill="none"/>
    <path d="M 116.25 153.9 Q 116.25 147.9 122.85 142.35 Q 129.45 136.8 136.35 136.8 Q 139.15 136.8 141.7 137.5 Q 144.25 138.2 146.55 140.7 Q 148.85 143.2 148.85 147.1 Q 148.85 152.6 142.15 158.4 Q 135.45 164.2 128.75 164.2 Q 125.95 164.2 123.4 163.5 Q 120.85 162.8 118.55 160.3 Q 116.25 157.8 116.25 153.9 Z " fill="black"/>
    <rect x="148.75" y="138" width="5" height="25" stroke="red" stroke-width="1" fill="none"/>
    <rect x="148.75" y="133" width="7.5000005" height="35" stroke="red" stroke-width="1" fill="none"/>
    <rect x="148.75" y="133" width="7.5000005" height="35" fill="green"/>
    <rect x="108.75" y="133" width="7.5000005" height="35" stroke="red" stroke-width="1" fill="none"/>
    <rect x="108.75" y="133" width="7.5000005" height="35" fill="lime"/>
    <rect x="145.75" y="11.214287" width="3" height="89.28571" stroke="red" stroke-width="1" fill="none"/>
    <rect x="116.25" y="150.5" width="3" height="89.285706" stroke="red" stroke-width="1" fill="none"/>
    <rect x="221.25" y="138" width="32.5" height="25" stroke="red" stroke-width="1" fill="none"/>
    <path d="M 221.25 153.9 Q 221.25 147.9 227.85 142.35 Q 234.45 136.8 241.35 136.8 Q 244.15 136.8 246.7 137.5 Q 249.25 138.2 251.55 140.7 Q 253.85 143.2 253.85 147.1 Q 253.85 152.6 247.15 158.4 Q 240.45 164.2 233.75 164.2 Q 230.95 164.2 228.4 163.5 Q 225.85 162.8 223.55 160.3 Q 221.25 157.8 221.25 153.9 Z " fill="black"/>
    <rect x="253.75" y="138" width="5" height="25" stroke="red" stroke-width="1" fill="none"/>
    <rect x="213.75" y="133" width="7.5000005" height="35" stroke="red" stroke-width="1" fill="none"/>
    <rect x="213.75" y="133" width="7.5000005" height="35" fill="lime"/>
    <rect x="250.75" y="61.214287" width="3" height="89.28571" stroke="red" stroke-width="1" fill="none"/>
    <rect x="326.25" y="0.5" width="10" height="200" stroke="orange" stroke-width="1" fill="none"/>
    <line x1="12.75" y1="154.5" x2="12.75" y2="239.7857" stroke="black" stroke-width="3"/>
    <line x1="147.25" y1="11.214287" x2="147.25" y2="96.5" stroke="black" stroke-width="3"/>
    <line x1="117.75" y1="154.5" x2="117.75" y2="239.7857" stroke="black" stroke-width="3"/>
    <line x1="252.25" y1="61.214287" x2="252.25" y2="146.5" stroke="black" stroke-width="3"/>
    <path d="M 43.75 168 L 48.083332 170.8 L 52.416664 173.2 L 56.75 175.2 L 61.083336 176.8 L 65.416664 178 L 69.75 178.8 L 74.083336 179.2 L 78.41667 179.2 L 82.75 178.8 L 87.08333 178 L 91.41667 176.8 L 95.75 175.2 L 100.08333 173.2 L 104.41667 170.8 L 108.75 168 L 104.416664 171.5 L 100.083336 174.5 L 95.75 177 L 91.416664 179 L 87.083336 180.5 L 82.75 181.5 L 78.416664 182 L 74.08333 182 L 69.75 181.5 L 65.41667 180.5 L 61.083332 179 L 56.749996 177 L 52.416668 174.5 L 48.083332 171.5 L 43.75 168 Z " stroke="black" stroke-width="2" fill="black"/>
    <path d="M 148.75 168 L 153.08333 170.8 L 157.41667 173.2 L 161.75 175.2 L 166.08334 176.8 L 170.41667 178 L 174.75 178.8 L 179.08333 179.2 L 183.41667 179.2 L 187.75 178.8 L 192.08333 178 L 196.41667 176.8 L 200.75 175.2 L 205.08333 173.2 L 209.41666 170.8 L 213.75 168 L 209.41667 171.5 L 205.08333 174.5 L 200.75 177 L 196.41666 179 L 192.08333 180.5 L 187.75 181.5 L 183.41667 182 L 179.08333 182 L 174.75 181.5 L 170.41667 180.5 L 166.08333 179 L 161.75 177 L 157.41667 174.5 L 153.08334 171.5 L 148.75 168 Z " stroke="black" stroke-width="2" fill="black"/>
    <rect x="0" y="0" width="337.5" height="241.2857" stroke="black" stroke-width="1" fill="none"/>
</svg>
