<svg xmlns="http://www.w3.org/2000/svg" xmlns:xlink="http://www.w3.org/1999/xlink" width="361.25" height="142.0357" viewBox="0 0 361.25 142.0357">
    <line x1="1.25" y1="40.785713" x2="360" y2="40.785713" stroke="black" stroke-width="2.5"/>
    <line x1="1.25" y1="65.78571" x2="360" y2="65.78571" stroke="black" stroke-width="2.5"/>
    <line x1="1.25" y1="90.78571" x2="360" y2="90.78571" stroke="black" stroke-width="2.5"/>
    <line x1="1.25" y1="115.78571" x2="360" y2="115.78571" stroke="black" stroke-width="2.5"/>
    <line x1="1.25" y1="140.7857" x2="360" y2="140.7857" stroke="black" stroke-width="2.5"/>
    <path d="M 11.25 94.185715 Q 11.25 88.185715 17.85 82.63571 Q 24.45 77.08572 31.35 77.08572 Q 34.15 77.08572 36.7 77.78571 Q 39.25 78.48571 41.550003 80.98571 Q 43.850002 83.48571 43.850002 87.38571 Q 43.850002 92.88571 37.15 98.685715 Q 30.45 104.48571 23.75 104.48571 Q 20.95 104.48571 18.4 103.78571 Q 15.85 103.08572 13.55 100.58572 Q 11.25 98.08572 11.25 94.185715 Z " fill="black"/>
    <path d="M 86.25 106.685715 Q 86.25 100.685715 92.85 95.13571 Q 99.45 89.58572 106.35 89.58572 Q 109.15 89.58572 111.7 90.28571 Q 114.25 90.98571 116.55 93.48571 Q 118.850006 95.98571 118.850006 99.88571 Q 118.850006 105.38571 112.15 111.185715 Q 105.45 116.98572 98.75 116.98572 Q 95.95 116.98572 93.4 116.28571 Q 90.85 115.58571 88.55 113.08571 Q 86.25 110.58571 86.25 106.685715 Z " fill="black"/>
    <path d="M 146.25 119.185715 Q 146.25 113.185715 152.85 107.63571 Q 159.45 102.08572 166.35 102.08572 Q 169.15 102.08572 171.7 102.78571 Q 174.25 103.48571 176.55 105.98571 Q 178.85 108.48572 178.85 112.38571 Q 178.85 117.88571 172.15 123.685715 Q 165.45 129.48572 158.75 129.48572 Q 155.95 129.48572 153.4 128.7857 Q 150.85 128.08571 148.55 125.58571 Q 146.25 123.08571 146.25 119.185715 Z " fill="black"/>
    <path d="M 231.15 118.185715 Q 228.25 118.185715 218.9 124.73572 Q 209.55 131.2857 209.55 134.2857 Q 209.55 136.38571 211.35 137.38571 Q 213.15 138.38571 215.65 138.38571 Q 218.55 138.38571 227.9 131.83571 Q 237.25 125.28571 237.25 122.28571 Q 237.25 120.185715 235.45 119.185715 Q 233.65 118.185715 231.15 118.185715 Z M 206.25 132.08571 Q 206.25 124.88571 212.45 119.73572 Q 218.65 114.58571 227.45 114.58571 Q 230.45 114.58571 233.05 115.185715 Q 235.65 115.78571 238.05 118.185715 Q 240.45 120.58571 240.45 124.48572 Q 240.45 131.68571 234.25 136.83571 Q 228.05 141.98572 219.25 141.98572 Q 216.25 141.98572 213.65 141.38571 Q 211.05 140.7857 208.65 138.38571 Q 206.25 135.98572 206.25 132.08571 Z " fill="black"/>
    <rect x="356.25" y="40.785713" width="3.7500002" height="100" fill="black"/>
    <line x1="42.25" y1="1.5" x2="42.25" y2="86.78571" stroke="black" stroke-width="3"/>
    <line x1="177.25" y1="14" x2="177.25" y2="111.78571" stroke="black" stroke-width="3"/>
    <line x1="117.25" y1="8.444443" x2="117.25" y2="99.28571" stroke="black" stroke-width="3"/>
    <path d="M 40.75 1.5 L 178.75 14 L 178.75 29 L 40.75 16.5 L 40.75 1.5 " fill="black"/>
    <path d="M 115.75 33.444443 L 178.75 39 L 178.75 54 L 115.75 48.444443 L 115.75 33.444443 " fill="black"/>
    <line x1="239" y1="39" x2="239" y2="124.28571" stroke="black" stroke-width="3"/>
    <rect x="0" y="0" width="361.25" height="142.0357" stroke="white" stroke-width="1" fill="none"/>
</svg>
