<svg xmlns="http://www.w3.org/2000/svg" xmlns:xlink="http://www.w3.org/1999/xlink" viewBox="0 0 579 251.45">
    <rect x="0.5" y="29.25" width="5" height="80" stroke="orange" stroke-width="1" fill="none"/>
    <rect x="0.5" y="170.25" width="5" height="80" stroke="orange" stroke-width="1" fill="none"/>
    <rect x="5.5" y="19.25" width="40" height="100" stroke="orange" stroke-width="1" fill="none"/>
    <ellipse cx="10.5" cy="215.25" rx="5" ry="5" stroke="gray" stroke-width="1" fill="none"/>
    <rect x="76.75" y="0.5" width="2.5" height="87.5" stroke="blue" stroke-width="1" fill="none"/>
    <rect x="45.5" y="81.75" width="33.75" height="25" stroke="blue" stroke-width="1" fill="none"/>
    <rect x="76.75" y="0.5" width="2.5" height="87.5" fill="black"/>
    <path d="M 70.4 84.15 Q 67.5 84.15 58.15 90.7 Q 48.8 97.25 48.8 100.25 Q 48.8 102.35 50.6 103.35 Q 52.4 104.35 54.9 104.35 Q 57.8 104.35 67.15 97.8 Q 76.5 91.25 76.5 88.25 Q 76.5 86.15 74.7 85.15 Q 72.9 84.15 70.4 84.15 Z M 45.5 98.05 Q 45.5 90.85 51.7 85.7 Q 57.9 80.55 66.7 80.55 Q 69.7 80.55 72.3 81.15 Q 74.9 81.75 77.3 84.15 Q 79.7 86.55 79.7 90.45 Q 79.7 97.65 73.5 102.8 Q 67.3 107.95 58.5 107.95 Q 55.5 107.95 52.9 107.35 Q 50.3 106.75 47.9 104.35 Q 45.5 101.95 45.5 98.05 Z " fill="black"/>
    <rect x="10.239998" y="169.55" width="31.84" height="81.399994" stroke="blue" stroke-width="1" fill="none"/>
    <rect x="42.079998" y="169.55" width="31.84" height="81.399994" stroke="blue" stroke-width="1" fill="none"/>
    <rect x="73.92" y="169.55" width="31.84" height="81.399994" stroke="blue" stroke-width="1" fill="none"/>
    <path d="M 19.599998 227.06999 Q 18.159998 227.06999 16.679998 225.95 Q 15.199998 224.83 14.199998 223.23 Q 13.199998 221.63 13.199998 220.19 Q 13.199998 217.63 14.559998 216.19 Q 15.919998 214.75 18.879997 213.55 L 27.039997 210.19 Q 28.639997 209.55 28.919998 209.06999 Q 29.199997 208.59 29.279997 206.98999 L 29.439997 201.87 Q 29.519997 199.79 28.279997 198.26999 Q 27.039997 196.75 24.719997 196.75 Q 23.519997 196.75 22.319998 197.15 Q 21.119999 197.55 20.319998 198.19 Q 19.839996 198.51 19.679996 199.15 Q 19.519997 199.79 19.519997 200.51 Q 19.519997 200.83 19.559998 201.23 Q 19.599998 201.63 19.599998 201.95 Q 19.599998 202.34999 18.599998 203.03 Q 17.599998 203.70999 16.359997 204.23 Q 15.119998 204.75 14.319998 204.75 Q 13.919998 204.75 13.679997 204.55 Q 13.439998 204.34999 13.439998 204.03 Q 13.439998 202.75 14.279998 201.26999 Q 15.119998 199.79 16.639997 198.51 Q 18.479998 196.83 20.639997 195.54999 Q 22.799997 194.26999 24.879997 193.55 Q 26.959997 192.83 28.559998 192.83 Q 31.439997 192.83 33.32 194.87 Q 35.199997 196.91 35.119995 199.95 L 34.719997 219.15 Q 34.64 220.83 35.479996 221.87 Q 36.32 222.91 37.6 222.91 Q 39.6 222.91 40.559998 222.03 Q 40.96 221.63 41.199997 221.63 Q 41.6 221.63 41.839996 221.87 Q 42.079998 222.11 42.079998 222.51 Q 42.079998 223.39 41.199997 224.27 Q 39.92 225.55 38.439995 226.31 Q 36.96 227.06999 35.679996 227.06999 Q 31.999998 227.06999 29.839998 222.91 L 29.599997 222.91 Q 26.959997 225.06999 24.559998 226.06999 Q 22.159998 227.06999 19.599998 227.06999 Z M 23.359997 223.23 Q 24.959997 223.23 26.079998 222.70999 Q 27.199997 222.19 28.079998 221.31 Q 28.479998 220.91 28.759998 220.23 Q 29.039997 219.55 29.119997 218.03 L 29.279997 214.11 Q 29.359997 213.23 29.199997 212.83 Q 29.039997 212.43 28.559998 212.43 Q 28.399998 212.43 27.999998 212.51 Q 27.599997 212.59 26.959997 212.83 Q 22.719997 214.34999 21.079998 215.98999 Q 19.439999 217.63 19.439999 218.98999 Q 19.439999 221.06999 20.679996 222.15 Q 21.919998 223.23 23.359997 223.23 Z " fill="black"/>
    <path d="M 51.44 227.06999 Q 49.999996 227.06999 48.519997 225.95 Q 47.039997 224.83 46.039997 223.23 Q 45.039997 221.63 45.039997 220.19 Q 45.039997 217.63 46.399998 216.19 Q 47.76 214.75 50.719997 213.55 L 58.879997 210.19 Q 60.479996 209.55 60.76 209.06999 Q 61.039997 208.59 61.119995 206.98999 L 61.28 201.87 Q 61.359997 199.79 60.119995 198.26999 Q 58.879997 196.75 56.559998 196.75 Q 55.359997 196.75 54.159996 197.15 Q 52.96 197.55 52.159996 198.19 Q 51.679996 198.51 51.519997 199.15 Q 51.359997 199.79 51.359997 200.51 Q 51.359997 200.83 51.399998 201.23 Q 51.44 201.63 51.44 201.95 Q 51.44 202.34999 50.44 203.03 Q 49.44 203.70999 48.199997 204.23 Q 46.96 204.75 46.159996 204.75 Q 45.76 204.75 45.519997 204.55 Q 45.28 204.34999 45.28 204.03 Q 45.28 202.75 46.12 201.26999 Q 46.96 199.79 48.479996 198.51 Q 50.32 196.83 52.479996 195.54999 Q 54.64 194.26999 56.719997 193.55 Q 58.799995 192.83 60.399998 192.83 Q 63.28 192.83 65.159996 194.87 Q 67.03999 196.91 66.96 199.95 L 66.56 219.15 Q 66.479996 220.83 67.32 221.87 Q 68.159996 222.91 69.439995 222.91 Q 71.439995 222.91 72.399994 222.03 Q 72.799995 221.63 73.03999 221.63 Q 73.439995 221.63 73.67999 221.87 Q 73.92 222.11 73.92 222.51 Q 73.92 223.39 73.03999 224.27 Q 71.759995 225.55 70.28 226.31 Q 68.799995 227.06999 67.52 227.06999 Q 63.839996 227.06999 61.68 222.91 L 61.439995 222.91 Q 58.799995 225.06999 56.399998 226.06999 Q 54 227.06999 51.44 227.06999 Z M 55.199997 223.23 Q 56.799995 223.23 57.92 222.70999 Q 59.039997 222.19 59.92 221.31 Q 60.32 220.91 60.6 220.23 Q 60.879997 219.55 60.96 218.03 L 61.119995 214.11 Q 61.199997 213.23 61.039997 212.83 Q 60.879997 212.43 60.399998 212.43 Q 60.239998 212.43 59.839996 212.51 Q 59.439995 212.59 58.799995 212.83 Q 54.559998 214.34999 52.92 215.98999 Q 51.28 217.63 51.28 218.98999 Q 51.28 221.06999 52.519997 222.15 Q 53.76 223.23 55.199997 223.23 Z " fill="black"/>
    <path d="M 83.28 227.06999 Q 81.84 227.06999 80.36 225.95 Q 78.88 224.83 77.88 223.23 Q 76.88 221.63 76.88 220.19 Q 76.88 217.63 78.24 216.19 Q 79.6 214.75 82.56 213.55 L 90.72 210.19 Q 92.32 209.55 92.6 209.06999 Q 92.88 208.59 92.96 206.98999 L 93.119995 201.87 Q 93.2 199.79 91.96 198.26999 Q 90.72 196.75 88.399994 196.75 Q 87.2 196.75 86 197.15 Q 84.799995 197.55 84 198.19 Q 83.52 198.51 83.36 199.15 Q 83.2 199.79 83.2 200.51 Q 83.2 200.83 83.24 201.23 Q 83.28 201.63 83.28 201.95 Q 83.28 202.34999 82.28 203.03 Q 81.28 203.70999 80.04 204.23 Q 78.799995 204.75 78 204.75 Q 77.6 204.75 77.36 204.55 Q 77.119995 204.34999 77.119995 204.03 Q 77.119995 202.75 77.96 201.26999 Q 78.799995 199.79 80.32 198.51 Q 82.159996 196.83 84.32 195.54999 Q 86.479996 194.26999 88.56 193.55 Q 90.64 192.83 92.24 192.83 Q 95.119995 192.83 97 194.87 Q 98.88 196.91 98.799995 199.95 L 98.399994 219.15 Q 98.32 220.83 99.159996 221.87 Q 100 222.91 101.28 222.91 Q 103.28 222.91 104.24 222.03 Q 104.64 221.63 104.88 221.63 Q 105.28 221.63 105.52 221.87 Q 105.759995 222.11 105.759995 222.51 Q 105.759995 223.39 104.88 224.27 Q 103.6 225.55 102.119995 226.31 Q 100.64 227.06999 99.36 227.06999 Q 95.68 227.06999 93.52 222.91 L 93.28 222.91 Q 90.64 225.06999 88.24 226.06999 Q 85.84 227.06999 83.28 227.06999 Z M 87.04 223.23 Q 88.64 223.23 89.759995 222.70999 Q 90.88 222.19 91.759995 221.31 Q 92.159996 220.91 92.44 220.23 Q 92.72 219.55 92.799995 218.03 L 92.96 214.11 Q 93.03999 213.23 92.88 212.83 Q 92.72 212.43 92.24 212.43 Q 92.08 212.43 91.68 212.51 Q 91.28 212.59 90.64 212.83 Q 86.399994 214.34999 84.759995 215.98999 Q 83.119995 217.63 83.119995 218.98999 Q 83.119995 221.06999 84.36 222.15 Q 85.6 223.23 87.04 223.23 Z " fill="black"/>
    <rect x="195.5" y="81.75" width="2.5" height="87.5" stroke="blue" stroke-width="1" fill="none"/>
    <rect x="195.5" y="69.25" width="32.5" height="25" stroke="blue" stroke-width="1" fill="none"/>
    <rect x="195.5" y="81.75" width="2.5" height="87.5" fill="black"/>
    <path d="M 195.5 85.15 Q 195.5 79.15 202.1 73.6 Q 208.7 68.05 215.6 68.05 Q 218.4 68.05 220.95 68.75 Q 223.5 69.45 225.8 71.95 Q 228.1 74.45 228.1 78.35 Q 228.1 83.85 221.4 89.65 Q 214.7 95.45 208 95.45 Q 205.2 95.45 202.65 94.75 Q 200.1 94.05 197.8 91.55 Q 195.5 89.05 195.5 85.15 Z " fill="black"/>
    <rect x="188.8" y="169.55" width="38.399998" height="81.399994" stroke="blue" stroke-width="1" fill="none"/>
    <path d="M 209.52 227.06999 Q 207.76001 227.06999 206 226.75 Q 204.24 226.43 202.64 226.03 Q 200.88 225.55 199.56 225.15 Q 198.24 224.75 197.84 224.75 Q 197.36 224.75 196.92 225.06999 Q 196.48 225.39 196.08 225.79 Q 195.68001 226.19 195.36 226.19 Q 195.04001 226.19 194.64 225.91 Q 194.24 225.62999 194.24 225.23 Q 194.24 224.51 194.52 222.75 Q 194.8 220.98999 194.8 219.47 L 194.8 180.67 Q 194.8 178.59 193.76001 177.07 Q 192.72 175.55 191.12001 174.83 Q 190.8 174.67 190.44 174.39 Q 190.08 174.11 190.08 173.63 Q 190.08 173.23 190.40001 173.07 Q 190.72 172.91 191.04001 172.83 Q 192.08 172.59 193.88 171.95 Q 195.68001 171.31 197.28 170.67 Q 198.88 170.03 199.44 169.79 Q 199.92 169.55 200.16 169.55 Q 200.32 169.55 200.48 169.70999 Q 200.64 169.87 200.64 170.11 Q 200.64 170.43 200.52 172.79 Q 200.40001 175.15 200.40001 178.51 L 200.40001 194.91 Q 200.40001 196.43 200.56 196.95 Q 200.72 197.47 201.12 197.55 Q 203.6 195.47 206.88 194.15 Q 210.16 192.83 212.8 192.83 Q 216.88 192.83 220.12 194.91 Q 223.36 196.98999 225.28 200.55 Q 227.2 204.11 227.2 208.59 Q 227.2 214.03 224.96 218.23 Q 222.72 222.43 218.76001 224.75 Q 214.8 227.06999 209.52 227.06999 Z M 211.36 224.59 Q 214.4 224.59 216.6 222.70999 Q 218.8 220.83 220 217.59 Q 221.2 214.34999 221.2 210.34999 Q 221.2 207.23 220.04001 203.95 Q 218.88 200.67 216.44 198.43 Q 214 196.19 210.16 196.19 Q 206.96 196.19 204.56 197.23 Q 202.16 198.26999 200.40001 199.87 L 200.40001 215.39 Q 200.40001 218.19 201.96 220.27 Q 203.52 222.34999 206.04001 223.47 Q 208.56 224.59 211.36 224.59 Z " fill="black"/>
    <rect x="270.5" y="69.25" width="2.5" height="87.5" stroke="blue" stroke-width="1" fill="none"/>
    <rect x="270.5" y="56.75" width="32.5" height="25" stroke="blue" stroke-width="1" fill="none"/>
    <rect x="270.5" y="69.25" width="2.5" height="87.5" fill="black"/>
    <path d="M 270.5 72.65 Q 270.5 66.65 277.1 61.1 Q 283.7 55.55 290.6 55.55 Q 293.4 55.55 295.95 56.25 Q 298.5 56.95 300.8 59.45 Q 303.1 61.95 303.1 65.85 Q 303.1 71.35 296.4 77.15 Q 289.7 82.95 283 82.95 Q 280.2 82.95 277.65 82.25 Q 275.1 81.55 272.8 79.05 Q 270.5 76.55 270.5 72.65 Z " fill="black"/>
    <ellipse cx="275.5" cy="215.25" rx="5" ry="5" stroke="gray" stroke-width="1" fill="none"/>
    <rect x="330.5" y="31.75" width="2.5" height="87.5" stroke="blue" stroke-width="1" fill="none"/>
    <rect x="330.5" y="19.25" width="32.5" height="25" stroke="blue" stroke-width="1" fill="none"/>
    <rect x="330.5" y="31.75" width="2.5" height="87.5" fill="black"/>
    <path d="M 330.5 35.15 Q 330.5 29.150002 337.1 23.599998 Q 343.7 18.05 350.6 18.05 Q 353.4 18.05 355.95 18.75 Q 358.5 19.45 360.8 21.95 Q 363.1 24.45 363.1 28.349998 Q 363.1 33.85 356.4 39.65 Q 349.7 45.45 343 45.45 Q 340.2 45.45 337.65 44.75 Q 335.1 44.05 332.8 41.55 Q 330.5 39.05 330.5 35.15 Z " fill="black"/>
    <ellipse cx="335.5" cy="215.25" rx="5" ry="5" stroke="gray" stroke-width="1" fill="none"/>
    <rect x="423.5" y="44.25" width="2.5" height="100" stroke="blue" stroke-width="1" fill="none"/>
    <rect x="423.5" y="31.75" width="32.5" height="25" stroke="blue" stroke-width="1" fill="none"/>
    <rect x="391" y="44.25" width="32.5" height="25" stroke="blue" stroke-width="1" fill="none"/>
    <rect x="363.5" y="6.75" width="27.5" height="75" stroke="blue" stroke-width="1" fill="none"/>
    <rect x="423.5" y="44.25" width="2.5" height="100" fill="black"/>
    <path d="M 423.5 47.65 Q 423.5 41.65 430.1 36.1 Q 436.7 30.55 443.6 30.55 Q 446.4 30.55 448.95 31.25 Q 451.5 31.95 453.8 34.45 Q 456.1 36.95 456.1 40.85 Q 456.1 46.35 449.4 52.15 Q 442.7 57.95 436 57.95 Q 433.2 57.95 430.65 57.25 Q 428.1 56.55 425.8 54.05 Q 423.5 51.55 423.5 47.65 Z " fill="black"/>
    <path d="M 391 60.15 Q 391 54.15 397.6 48.6 Q 404.2 43.05 411.1 43.05 Q 413.9 43.05 416.45 43.75 Q 419 44.45 421.3 46.95 Q 423.6 49.45 423.6 53.35 Q 423.6 58.85 416.9 64.65 Q 410.2 70.45 403.5 70.45 Q 400.7 70.45 398.15 69.75 Q 395.6 69.05 393.3 66.55 Q 391 64.05 391 60.15 Z " fill="black"/>
    <path d="M 368.1 65.35 Q 368.1 66.55 369.1 66.95 Q 370.3 67.45 371.1 66.65 Q 377.7 60.65 377.7 53.05 Q 377.7 50.35 376.55 48.35 Q 375.4 46.35 373.4 46.35 Q 371.2 46.35 369.8 48.25 Q 368.4 50.15 368.3 52.65 L 368.1 65.35 Z M 370.9 43.25 Q 375.1 41.15 377.8 41.15 Q 381.6 41.15 383.9 44.15 Q 386.2 47.15 386.2 51.35 Q 386.2 54.25 385.35 56.6 Q 384.5 58.95 382.7 60.9 Q 380.9 62.85 379.35 64.15 Q 377.8 65.45 375.3 67.3 Q 372.8 69.15 371.5 70.25 Q 371 70.65 370.2 71.75 Q 369.4 72.85 368.65 73.45 Q 367.9 74.05 367 74.05 Q 366 74.05 365.35 73.35 Q 364.7 72.65 364.7 71.55 L 363.5 11.049999 Q 364.8 10.25 366.2 10.25 Q 367.6 10.25 368.9 11.049999 L 368.3 41.65 Q 368.3 42.65 369.1 43.15 Q 370 43.75 370.9 43.25 Z " fill="black"/>
    <ellipse cx="428.5" cy="215.25" rx="5" ry="5" stroke="gray" stroke-width="1" fill="none"/>
    <rect x="498.5" y="81.75" width="2.5" height="87.5" stroke="blue" stroke-width="1" fill="none"/>
    <rect x="498.5" y="69.25" width="32.5" height="25" stroke="blue" stroke-width="1" fill="none"/>
    <rect x="468.5" y="44.25" width="30.000002" height="75" stroke="blue" stroke-width="1" fill="none"/>
    <rect x="498.5" y="81.75" width="2.5" height="87.5" fill="black"/>
    <path d="M 498.5 85.15 Q 498.5 79.15 505.1 73.6 Q 511.7 68.05 518.6 68.05 Q 521.4 68.05 523.95 68.75 Q 526.5 69.45 528.8 71.95 Q 531.1 74.45 531.1 78.35 Q 531.1 83.85 524.4 89.65 Q 517.7 95.45 511 95.45 Q 508.2 95.45 505.65 94.75 Q 503.1 94.05 500.8 91.55 Q 498.5 89.05 498.5 85.15 Z " fill="black"/>
    <path d="M 490.1 72.15 L 490.1 84.35 Q 490.1 85.15 490.6 85.65 Q 491.1 86.15 491.9 86.15 Q 492.2 86.15 492.5 86.05 L 493.3 85.75 Q 493.6 85.65 494 85.65 Q 494.8 85.65 495.4 86.25 Q 496 86.85 496 87.65 L 496 93.65 Q 496 94.95 494.7 95.45 L 491.3 96.75 Q 490.1 97.25 490.1 98.35 L 490.1 112.95 Q 490.1 113.75 489.55 114.3 Q 489 114.850006 488.3 114.850006 Q 487.5 114.850006 486.95 114.3 Q 486.4 113.75 486.4 112.95 L 486.4 101.05 Q 486.4 100.25 485.85 99.75 Q 485.3 99.25 484.6 99.25 Q 484.2 99.25 483.9 99.35 L 479.3 101.15 Q 478.1 101.55 478.1 102.75 L 478.1 117.350006 Q 478.1 118.15 477.5 118.7 Q 476.9 119.25 476.2 119.25 Q 475.5 119.25 474.95 118.7 Q 474.4 118.15 474.4 117.350006 L 474.4 105.45 Q 474.4 104.65 473.85 104.15 Q 473.3 103.65 472.6 103.65 Q 472.3 103.65 472 103.75 L 471.2 104.05 Q 471 104.15 470.5 104.15 Q 469.7 104.15 469.1 103.55 Q 468.5 102.95 468.5 102.15 L 468.5 96.15 Q 468.5 94.75 469.8 94.25 L 473.2 93.05 Q 474.4 92.75 474.4 91.35 L 474.4 79.15 Q 474.4 78.35 473.85 77.85 Q 473.3 77.35 472.6 77.35 Q 472.3 77.35 472.1 77.45 L 471.2 77.75 Q 471 77.85 470.5 77.85 Q 469.7 77.85 469.1 77.25 Q 468.5 76.65 468.5 75.85 L 468.5 69.85 Q 468.5 68.55 469.8 68.05 L 473.3 66.75 Q 474.4 66.25 474.4 65.15 L 474.4 50.55 Q 474.4 49.75 474.95 49.2 Q 475.5 48.649998 476.2 48.649998 Q 476.9 48.649998 477.5 49.2 Q 478.1 49.75 478.1 50.55 L 478.1 62.449997 Q 478.1 63.25 478.65 63.75 Q 479.2 64.25 480 64.25 Q 480.3 64.25 480.6 64.15 L 485.2 62.35 Q 486.4 61.85 486.4 60.65 L 486.4 46.149998 Q 486.4 45.35 486.95 44.8 Q 487.5 44.25 488.3 44.25 Q 489 44.25 489.55 44.8 Q 490.1 45.35 490.1 46.149998 L 490.1 58.15 Q 490.1 58.85 490.6 59.35 Q 491.1 59.85 491.8 59.85 Q 492.1 59.85 492.5 59.75 L 493.3 59.449997 Q 493.5 59.35 494 59.35 Q 494.8 59.35 495.4 59.949997 Q 496 60.55 496 61.35 L 496 67.35 Q 496 68.75 494.7 69.25 L 491.3 70.45 Q 490.1 70.75 490.1 72.15 Z M 486.4 86.95 L 486.4 74.85 Q 486.4 74.15 485.85 73.6 Q 485.3 73.05 484.6 73.05 Q 484.3 73.05 484 73.15 L 479.3 74.85 Q 478.1 75.35 478.1 76.55 L 478.1 88.65 Q 478.1 89.45 478.6 89.95 Q 479.1 90.45 479.9 90.45 Q 480.2 90.45 480.5 90.35 L 485.2 88.65 Q 486.4 88.15 486.4 86.95 Z " fill="black"/>
    <ellipse cx="503.5" cy="215.25" rx="5" ry="5" stroke="gray" stroke-width="1" fill="none"/>
    <rect x="573.5" y="29.25" width="5" height="80" stroke="orange" stroke-width="1" fill="none"/>
    <rect x="573.5" y="170.25" width="5" height="80" stroke="orange" stroke-width="1" fill="none"/>
    <rect x="0" y="0" width="579" height="251.45" stroke="black" stroke-width="1" fill="none"/>
</svg>
