<svg xmlns="http://www.w3.org/2000/svg" xmlns:xlink="http://www.w3.org/1999/xlink" width="312.75" height="393.42163" viewBox="0 0 312.75 393.42163">
    <line x1="1.25" y1="152.2852" x2="311.5" y2="152.2852" stroke="black" stroke-width="2.5"/>
    <line x1="1.25" y1="177.2852" x2="311.5" y2="177.2852" stroke="black" stroke-width="2.5"/>
    <line x1="1.25" y1="202.2852" x2="311.5" y2="202.2852" stroke="black" stroke-width="2.5"/>
    <line x1="1.25" y1="227.2852" x2="311.5" y2="227.2852" stroke="black" stroke-width="2.5"/>
    <line x1="1.25" y1="252.2852" x2="311.5" y2="252.2852" stroke="black" stroke-width="2.5"/>
    <path d="M 26.050001 170.7852 Q 23.75 163.4852 22.85 157.7852 Q 22.050001 152.9852 22.050001 146.5852 Q 22.050001 144.3852 22.15 142.18521 Q 22.550001 132.68521 26.050001 124.7352 Q 29.550001 116.7852 36.55 112.5852 Q 37.05 112.2852 37.850002 112.2852 Q 38.55 112.2852 39.05 112.7852 Q 44.65 118.3852 47.65 127.0852 Q 50.65 135.7852 50.65 144.68521 Q 50.65 154.9852 46.25 164.8852 Q 42.05 174.7852 34.45 182.38521 Q 33.850002 182.9852 34.05 183.9852 L 38.05 199.9852 Q 38.350002 201.5852 40.05 201.38521 Q 41.65 201.1852 43.15 201.1852 Q 48.95 201.1852 53.65 203.4852 Q 58.350002 205.7852 61.25 209.4852 Q 64.15 213.1852 65.700005 217.63521 Q 67.25 222.0852 67.25 226.7852 Q 67.25 235.38521 62.45 242.3352 Q 57.65 249.2852 50.95 251.4852 Q 49.55 251.9852 49.850002 253.5852 Q 52.350002 265.3852 52.45 273.4852 Q 52.45 276.5852 52.05 279.5852 Q 51.25 286.4852 46.05 291.68518 Q 40.850002 296.8852 33.65 296.8852 Q 24.85 296.8852 18.75 291.5852 Q 12.650001 286.28522 12.650001 277.68518 Q 12.650001 273.28522 15.75 270.0852 Q 18.85 266.8852 23.050001 266.8852 Q 27.35 266.8852 30.300001 269.93518 Q 33.25 272.9852 33.25 277.18518 Q 33.25 280.78522 30.85 283.4852 Q 28.45 286.28522 25.050001 286.5852 Q 23.85 286.68518 23.45 287.78522 Q 23.050001 288.8852 24.25 289.78522 Q 27.85 292.5852 33.050003 292.5852 Q 38.75 292.5852 42.9 288.4852 Q 47.05 284.3852 47.75 279.18518 Q 48.25 275.5852 48.25 271.9852 Q 48.25 264.18518 45.850002 254.6852 Q 45.45 252.9852 43.65 253.1852 Q 39.65 253.6852 36.25 253.6852 Q 21.45 253.6852 11.35 244.38521 Q 1.25 235.0852 1.25 219.0852 Q 1.25 214.1852 2.4 209.4352 Q 3.55 204.6852 5 201.2352 Q 6.4500003 197.7852 9.5 193.2352 Q 12.55 188.6852 14.400001 186.2852 Q 16.25 183.88521 20.25 179.13521 Q 24.25 174.38521 25.75 172.4852 Q 26.35 171.7852 26.050001 170.7852 Z M 41.65 216.4852 L 48.15 245.9852 Q 48.45 247.2852 49.95 247.2852 Q 50.350002 247.2852 50.65 247.1852 Q 54.75 245.4852 57.45 240.5852 Q 60.15 235.6852 60.15 230.88521 Q 60.15 223.88521 56.05 219.0852 Q 51.850002 214.1852 43.45 214.1852 Q 42.75 214.1852 42.2 214.7352 Q 41.65 215.2852 41.65 215.9852 Q 41.55 216.2852 41.65 216.4852 Z M 27.85 188.6852 Q 26.25 190.4852 23.1 193.8352 Q 19.95 197.1852 18.4 198.9352 Q 16.85 200.6852 14.6 203.88521 Q 12.35 207.0852 11.25 209.7852 Q 10.150001 212.4852 9.3 216.38521 Q 8.450001 220.2852 8.450001 224.6852 Q 8.450001 230.7852 12.2 236.4852 Q 15.95 242.1852 22.5 245.7852 Q 29.050001 249.38521 36.55 249.38521 Q 39.25 249.38521 42.55 249.0852 Q 43.350002 248.9852 43.850002 248.3352 Q 44.350002 247.6852 44.15 246.88521 L 37.65 216.9852 Q 37.350002 215.5852 35.75 215.5852 Q 35.45 215.5852 35.05 215.6852 Q 30.45 217.38521 28.550001 220.4852 Q 26.65 223.5852 26.65 228.2852 Q 26.65 233.7852 32.65 237.7852 Q 33.350002 238.2852 33.350002 239.2852 Q 33.350002 240.0852 32.7 240.7852 Q 32.050003 241.4852 31.15 241.4852 Q 30.65 241.4852 30.25 241.2852 Q 24.550001 238.2852 21.800001 233.13521 Q 19.050001 227.9852 19.050001 222.2852 Q 19.050001 216.7852 23 210.9352 Q 26.95 205.0852 32.85 202.88521 Q 34.350002 202.2852 34.05 200.7852 L 31.050001 189.4852 Q 30.85 188.38521 29.65 188.1852 Q 28.45 187.9852 27.85 188.6852 Z M 44.65 130.4852 Q 43.850002 127.8852 41.95 127.8852 Q 41.350002 127.8852 40.850002 128.18521 Q 34.45 131.9852 30.7 138.8852 Q 26.95 145.7852 26.95 153.4852 Q 26.95 158.4852 29.050001 165.7852 Q 29.35 166.88521 30.550001 167.0852 Q 31.550001 167.1852 32.25 166.38521 Q 32.550003 165.9852 35.100002 162.8352 Q 37.65 159.68521 38.45 158.6352 Q 39.25 157.5852 41.15 154.6352 Q 43.05 151.68521 43.8 149.7352 Q 44.55 147.7852 45.25 144.8852 Q 45.95 141.9852 45.95 139.0852 Q 45.95 134.8852 44.65 130.4852 Z " fill="black"/>
    <path d="M 106.43934 62.841686 Q 100.19431 59.02307 96.93258 52.300716 Q 93.670845 45.57836 93.670845 37.066032 Q 93.670845 27.280827 97.529236 20.280033 Q 101.38763 13.27924 108.22932 9.659504 Q 115.071 6.0397797 123.822 6.0397797 Q 131.857 6.0397797 142.35818 8.505966 L 141.6422 22.268894 L 135.99384 22.268894 L 134.08453 12.722355 Q 132.97076 11.847256 130.3057 11.051712 Q 127.64061 10.256168 123.18556 10.256168 Q 117.37808 10.256168 112.923035 13.120125 Q 108.46798 15.984089 105.96201 21.632458 Q 103.45605 27.280827 103.45605 35.315834 Q 103.45605 42.7144 105.48469 48.840096 Q 107.51333 54.96579 111.68993 58.665077 Q 115.86655 62.364357 121.91269 62.364357 Q 125.73131 62.364357 129.15215 61.449482 Q 132.573 60.534607 134.40274 59.02307 L 134.40274 41.282417 L 124.378876 40.48687 L 124.378876 35.79316 L 147.6088 35.79316 L 147.6088 40.48687 L 142.99463 41.202866 L 142.99463 62.60302 Q 141.24443 62.68258 137.18715 63.95545 Q 133.05032 65.22832 129.39081 65.94431 Q 125.73131 66.6603 121.27625 66.6603 Q 112.68437 66.6603 106.43934 62.841686 Z " fill="black"/>
    <path d="M 157.93497 36.610977 Q 160.51253 30.97852 162.8753 25.274464 Q 165.23807 19.570406 169.48628 9.116945 L 171.7297 3.4844894 L 157.60083 3.675415 L 155.59607 10.023867 L 152.54117 9.451075 L 153.54355 0 L 175.30966 0 L 176.31204 1.288784 Q 173.97314 7.828163 169.77267 19.642004 Q 165.57219 31.455847 163.28102 38.042957 L 157.93497 36.610977 Z " fill="black"/>
    <path d="M 130.15 254.6852 Q 127.25 254.6852 117.9 261.2352 Q 108.55 267.78522 108.55 270.78522 Q 108.55 272.8852 110.35 273.8852 Q 112.15 274.8852 114.65 274.8852 Q 117.55 274.8852 126.9 268.3352 Q 136.25 261.78522 136.25 258.78522 Q 136.25 256.68518 134.45 255.6852 Q 132.65 254.6852 130.15 254.6852 Z M 105.25 268.5852 Q 105.25 261.3852 111.45 256.2352 Q 117.65 251.0852 126.45 251.0852 Q 129.45 251.0852 132.05 251.6852 Q 134.65 252.2852 137.05 254.6852 Q 139.45 257.0852 139.45 260.9852 Q 139.45 268.18518 133.25 273.3352 Q 127.05 278.4852 118.25 278.4852 Q 115.25 278.4852 112.65 277.8852 Q 110.05 277.28522 107.65 274.8852 Q 105.25 272.4852 105.25 268.5852 Z " fill="black"/>
    <path d="M 130.15 229.6852 Q 127.25 229.6852 117.9 236.2352 Q 108.55 242.7852 108.55 245.7852 Q 108.55 247.88521 110.35 248.88521 Q 112.15 249.88521 114.65 249.88521 Q 117.55 249.88521 126.9 243.3352 Q 136.25 236.7852 136.25 233.7852 Q 136.25 231.6852 134.45 230.6852 Q 132.65 229.6852 130.15 229.6852 Z M 105.25 243.5852 Q 105.25 236.38521 111.45 231.2352 Q 117.65 226.0852 126.45 226.0852 Q 129.45 226.0852 132.05 226.6852 Q 134.65 227.2852 137.05 229.6852 Q 139.45 232.0852 139.45 235.9852 Q 139.45 243.1852 133.25 248.3352 Q 127.05 253.4852 118.25 253.4852 Q 115.25 253.4852 112.65 252.88521 Q 110.05 252.2852 107.65 249.88521 Q 105.25 247.4852 105.25 243.5852 Z " fill="black"/>
    <path d="M 164.4 217.1852 Q 161.5 217.1852 152.15 223.7352 Q 142.8 230.2852 142.8 233.2852 Q 142.8 235.38521 144.6 236.38521 Q 146.4 237.38521 148.9 237.38521 Q 151.8 237.38521 161.15 230.8352 Q 170.5 224.2852 170.5 221.2852 Q 170.5 219.1852 168.7 218.1852 Q 166.9 217.1852 164.4 217.1852 Z M 139.5 231.0852 Q 139.5 223.88521 145.7 218.7352 Q 151.9 213.5852 160.7 213.5852 Q 163.7 213.5852 166.3 214.1852 Q 168.9 214.7852 171.3 217.1852 Q 173.7 219.5852 173.7 223.4852 Q 173.7 230.6852 167.5 235.8352 Q 161.3 240.9852 152.5 240.9852 Q 149.5 240.9852 146.9 240.38521 Q 144.3 239.7852 141.9 237.38521 Q 139.5 234.9852 139.5 231.0852 Z " fill="black"/>
    <path d="M 130.15 192.1852 Q 127.25 192.1852 117.9 198.7352 Q 108.55 205.2852 108.55 208.2852 Q 108.55 210.38521 110.35 211.38521 Q 112.15 212.38521 114.65 212.38521 Q 117.55 212.38521 126.9 205.8352 Q 136.25 199.2852 136.25 196.2852 Q 136.25 194.1852 134.45 193.1852 Q 132.65 192.1852 130.15 192.1852 Z M 105.25 206.0852 Q 105.25 198.88521 111.45 193.7352 Q 117.65 188.5852 126.45 188.5852 Q 129.45 188.5852 132.05 189.1852 Q 134.65 189.7852 137.05 192.1852 Q 139.45 194.5852 139.45 198.4852 Q 139.45 205.6852 133.25 210.8352 Q 127.05 215.9852 118.25 215.9852 Q 115.25 215.9852 112.65 215.38521 Q 110.05 214.7852 107.65 212.38521 Q 105.25 209.9852 105.25 206.0852 Z " fill="black"/>
    <path d="M 99.88753 338.60858 L 93.68228 337.65393 L 93.68228 333.6762 L 104.10392 333.6762 Q 106.57011 333.6762 111.184265 333.35797 Q 115.79843 333.0398 118.10551 333.0398 Q 132.90265 333.0398 140.10233 340.47815 Q 147.302 347.91644 147.302 361.3612 Q 147.302 370.7486 143.60272 378.02783 Q 139.90344 385.30707 133.22086 389.36438 Q 126.538284 393.42163 117.866844 393.42163 Q 115.957535 393.42163 111.343376 393.1034 Q 106.57011 392.78522 104.18347 392.78522 L 93.28451 392.78522 L 93.28451 388.88702 L 99.88753 388.0915 L 99.88753 338.60858 Z M 115.48021 388.9666 L 117.866844 388.9666 Q 123.833435 388.88702 128.40782 385.94354 Q 132.98221 383 135.52794 377.15277 Q 138.07368 371.30548 138.07368 362.95227 Q 138.07368 350.38263 132.6242 343.8592 Q 127.17472 337.3357 116.1962 337.3357 Q 113.88912 337.3357 110.70694 337.65393 Q 109.354515 337.89258 108.320305 337.89258 L 108.320305 388.33014 Q 111.10471 388.9666 115.48021 388.9666 Z " fill="black"/>
    <path d="M 264.15512 62.881462 Q 257.98965 59.102623 254.80748 52.26094 Q 251.6253 45.41925 251.6253 36.19093 Q 251.6253 27.280827 255.36436 20.43914 Q 259.10342 13.597458 265.6269 9.818619 Q 272.15036 6.0397797 280.26492 6.0397797 Q 286.39063 6.0397797 294.98248 7.949085 L 297.6078 8.426411 L 296.81226 22.74622 L 291.4821 22.74622 L 289.49323 12.642799 Q 288.3795 11.6881485 285.63486 11.011936 Q 282.8902 10.33572 278.91248 10.33572 Q 273.821 10.33572 269.84326 13.23946 Q 265.86554 16.143196 263.59824 21.791569 Q 261.33093 27.439934 261.33093 35.315834 Q 261.33093 42.793953 263.31982 48.919647 Q 265.3087 55.045345 269.36594 58.665077 Q 273.42322 62.284805 279.38983 62.284805 Q 283.6062 62.284805 285.8735 61.568813 Q 288.1408 60.85282 289.7319 59.500397 L 293.07318 51.704056 L 298.0851 52.340492 L 296.1758 63.63723 Q 294.50516 63.716785 291.24344 64.75099 Q 288.3795 65.62609 285.7144 66.143196 Q 283.04932 66.6603 279.0716 66.6603 Q 270.32062 66.6603 264.15512 62.881462 Z " fill="black"/>
    <path d="M 280.15 267.18518 Q 277.25 267.18518 267.9 273.7352 Q 258.55 280.28522 258.55 283.28522 Q 258.55 285.3852 260.35 286.3852 Q 262.15 287.3852 264.65 287.3852 Q 267.55 287.3852 276.9 280.8352 Q 286.25 274.28522 286.25 271.28522 Q 286.25 269.18518 284.45 268.18518 Q 282.65 267.18518 280.15 267.18518 Z M 255.25 281.0852 Q 255.25 273.8852 261.45 268.7352 Q 267.65 263.5852 276.45 263.5852 Q 279.45 263.5852 282.05 264.18518 Q 284.65 264.78522 287.05 267.18518 Q 289.45 269.5852 289.45 273.4852 Q 289.45 280.68518 283.25 285.8352 Q 277.05 290.9852 268.25 290.9852 Q 265.25 290.9852 262.65 290.3852 Q 260.05 289.78522 257.65 287.3852 Q 255.25 284.9852 255.25 281.0852 Z " fill="black"/>
    <path d="M 280.15 242.1852 Q 277.25 242.1852 267.9 248.7352 Q 258.55 255.2852 258.55 258.28522 Q 258.55 260.3852 260.35 261.3852 Q 262.15 262.3852 264.65 262.3852 Q 267.55 262.3852 276.9 255.8352 Q 286.25 249.2852 286.25 246.2852 Q 286.25 244.1852 284.45 243.1852 Q 282.65 242.1852 280.15 242.1852 Z M 255.25 256.0852 Q 255.25 248.88521 261.45 243.7352 Q 267.65 238.5852 276.45 238.5852 Q 279.45 238.5852 282.05 239.1852 Q 284.65 239.7852 287.05 242.1852 Q 289.45 244.5852 289.45 248.4852 Q 289.45 255.6852 283.25 260.8352 Q 277.05 265.9852 268.25 265.9852 Q 265.25 265.9852 262.65 265.3852 Q 260.05 264.78522 257.65 262.3852 Q 255.25 259.9852 255.25 256.0852 Z " fill="black"/>
    <path d="M 280.15 217.1852 Q 277.25 217.1852 267.9 223.7352 Q 258.55 230.2852 258.55 233.2852 Q 258.55 235.38521 260.35 236.38521 Q 262.15 237.38521 264.65 237.38521 Q 267.55 237.38521 276.9 230.8352 Q 286.25 224.2852 286.25 221.2852 Q 286.25 219.1852 284.45 218.1852 Q 282.65 217.1852 280.15 217.1852 Z M 255.25 231.0852 Q 255.25 223.88521 261.45 218.7352 Q 267.65 213.5852 276.45 213.5852 Q 279.45 213.5852 282.05 214.1852 Q 284.65 214.7852 287.05 217.1852 Q 289.45 219.5852 289.45 223.4852 Q 289.45 230.6852 283.25 235.8352 Q 277.05 240.9852 268.25 240.9852 Q 265.25 240.9852 262.65 240.38521 Q 260.05 239.7852 257.65 237.38521 Q 255.25 234.9852 255.25 231.0852 Z " fill="black"/>
    <path d="M 280.15 179.6852 Q 277.25 179.6852 267.9 186.2352 Q 258.55 192.7852 258.55 195.7852 Q 258.55 197.88521 260.35 198.88521 Q 262.15 199.88521 264.65 199.88521 Q 267.55 199.88521 276.9 193.3352 Q 286.25 186.7852 286.25 183.7852 Q 286.25 181.6852 284.45 180.6852 Q 282.65 179.6852 280.15 179.6852 Z M 255.25 193.5852 Q 255.25 186.38521 261.45 181.2352 Q 267.65 176.0852 276.45 176.0852 Q 279.45 176.0852 282.05 176.6852 Q 284.65 177.2852 287.05 179.6852 Q 289.45 182.0852 289.45 185.9852 Q 289.45 193.1852 283.25 198.3352 Q 277.05 203.4852 268.25 203.4852 Q 265.25 203.4852 262.65 202.88521 Q 260.05 202.2852 257.65 199.88521 Q 255.25 197.4852 255.25 193.5852 Z " fill="black"/>
    <rect x="246.5" y="276.03522" width="51.75" height="2.5" fill="black"/>
    <path d="M 262.6958 337.89258 L 249.01244 338.36993 L 246.22803 354.99683 L 240.97743 354.99683 L 242.32985 333.6762 L 291.8923 333.6762 L 292.84695 354.99683 L 287.83502 354.99683 L 285.20972 338.36993 L 271.4468 337.89258 L 271.4468 388.0915 L 282.74353 388.88702 L 282.74353 392.78522 L 252.35371 392.78522 L 252.35371 388.88702 L 262.6958 388.0915 L 262.6958 337.89258 Z " fill="black"/>
    <line x1="138" y1="112.99949" x2="138" y2="260.78522" stroke="black" stroke-width="3"/>
    <line x1="288" y1="100.49949" x2="288" y2="273.28522" stroke="black" stroke-width="3"/>
    <rect x="0" y="0" width="312.75" height="393.42163" stroke="white" stroke-width="1" fill="none"/>
</svg>
