<svg xmlns="http://www.w3.org/2000/svg" xmlns:xlink="http://www.w3.org/1999/xlink" viewBox="0 0 544.5 201">
    <line x1="1.25" y1="50.5" x2="543.25" y2="50.5" stroke="black" stroke-width="2.5"/>
    <line x1="1.25" y1="75.5" x2="543.25" y2="75.5" stroke="black" stroke-width="2.5"/>
    <line x1="1.25" y1="100.5" x2="543.25" y2="100.5" stroke="black" stroke-width="2.5"/>
    <line x1="1.25" y1="125.5" x2="543.25" y2="125.5" stroke="black" stroke-width="2.5"/>
    <line x1="1.25" y1="150.5" x2="543.25" y2="150.5" stroke="black" stroke-width="2.5"/>
    <rect x="1.25" y="0.5" width="10" height="200" stroke="orange" stroke-width="1" fill="none"/>
    <rect x="11.25" y="50.5" width="74" height="84" stroke="orange" stroke-width="1" fill="none"/>
    <path d="M 68.25 88 Q 68.25 85.9 69.75 84.4 Q 71.25 82.9 73.350006 82.9 Q 75.450005 82.9 76.950005 84.4 Q 78.450005 85.9 78.450005 88 Q 78.450005 90.1 76.950005 91.6 Q 75.450005 93.1 73.350006 93.1 Q 71.25 93.1 69.75 91.6 Q 68.25 90.1 68.25 88 Z M 68.25 63 Q 68.25 60.9 69.75 59.4 Q 71.25 57.9 73.350006 57.9 Q 75.450005 57.9 76.950005 59.4 Q 78.450005 60.9 78.450005 63 Q 78.450005 65.1 76.950005 66.6 Q 75.450005 68.1 73.350006 68.1 Q 71.25 68.1 69.75 66.6 Q 68.25 65.1 68.25 63 Z M 23.45 63.6 Q 27.95 63.6 30.85 66.5 Q 33.75 69.4 33.75 73.6 Q 33.75 78 30.85 81.1 Q 27.95 84.2 23.75 84.2 Q 19.25 84.2 15.9 81.1 Q 12.55 78 12.55 73.6 Q 12.55 62.8 19.75 56 Q 26.95 49.199997 37.65 49.199997 Q 49.75 49.199997 57.4 56.15 Q 65.05 63.1 65.05 74.3 Q 65.05 109.7 13.65 132.4 Q 12.95 132.7 12.55 132.7 Q 11.25 132.7 11.25 131.4 Q 11.25 130.7 12.55 129.9 Q 20.55 125.2 25.8 121.600006 Q 31.050001 118 36.65 112.9 Q 42.25 107.8 45.45 102.65 Q 48.65 97.5 50.75 90.5 Q 52.850002 83.5 52.850002 75.3 Q 52.850002 64.9 48.3 58.6 Q 43.75 52.3 35.85 52.3 Q 31.050001 52.3 27.150002 54.55 Q 23.25 56.8 21.75 60.7 Q 21.35 62 21.85 62.7 Q 22.55 63.6 23.45 63.6 Z " fill="black"/>
    <rect x="85.25" y="13" width="27.5" height="150" stroke="orange" stroke-width="1" fill="none"/>
    <path d="M 89.85 109.1 Q 89.85 110.3 90.85 110.7 Q 92.05 111.2 92.85 110.4 Q 99.45 104.4 99.45 96.8 Q 99.45 94.1 98.3 92.1 Q 97.15 90.1 95.15 90.1 Q 92.95 90.1 91.55 92 Q 90.15 93.9 90.05 96.4 L 89.85 109.1 Z M 92.65 87 Q 96.85 84.9 99.55 84.9 Q 103.35 84.9 105.65 87.9 Q 107.95 90.9 107.95 95.1 Q 107.95 98 107.1 100.35 Q 106.25 102.7 104.45 104.65 Q 102.65 106.6 101.1 107.9 Q 99.55 109.2 97.05 111.05 Q 94.55 112.9 93.25 114 Q 92.75 114.4 91.95 115.5 Q 91.15 116.6 90.4 117.2 Q 89.65 117.8 88.75 117.8 Q 87.75 117.8 87.1 117.1 Q 86.45 116.4 86.45 115.3 L 85.25 54.8 Q 86.55 54 87.95 54 Q 89.35 54 90.65 54.8 L 90.05 85.4 Q 90.05 86.4 90.85 86.9 Q 91.75 87.5 92.65 87 Z " fill="black"/>
    <rect x="113.25" y="100.5" width="32.5" height="25" stroke="red" stroke-width="1" fill="none"/>
    <path d="M 113.25 116.4 Q 113.25 110.4 119.85 104.85 Q 126.45 99.3 133.35 99.3 Q 136.15 99.3 138.7 100 Q 141.25 100.7 143.55 103.2 Q 145.85 105.7 145.85 109.6 Q 145.85 115.1 139.15 120.9 Q 132.45 126.7 125.75 126.7 Q 122.95 126.7 120.4 126 Q 117.85 125.3 115.55 122.8 Q 113.25 120.3 113.25 116.4 Z " fill="black"/>
    <rect x="145.75" y="100.5" width="5" height="25" stroke="red" stroke-width="1" fill="none"/>
    <rect x="142.75" y="23.714287" width="3" height="89.28571" stroke="red" stroke-width="1" fill="none"/>
    <rect x="218.25" y="25.5" width="32.5" height="25" stroke="red" stroke-width="1" fill="none"/>
    <path d="M 218.25 41.4 Q 218.25 35.4 224.85 29.849998 Q 231.45 24.300003 238.35 24.300003 Q 241.15 24.300003 243.7 25 Q 246.25 25.699997 248.55 28.199997 Q 250.85 30.699997 250.85 34.6 Q 250.85 40.1 244.15 45.9 Q 237.45 51.7 230.75 51.7 Q 227.95 51.7 225.4 51 Q 222.85 50.3 220.55 47.8 Q 218.25 45.3 218.25 41.4 Z " fill="black"/>
    <rect x="250.75" y="25.5" width="5" height="25" stroke="red" stroke-width="1" fill="none"/>
    <rect x="218.25" y="38" width="3" height="89.28571" stroke="red" stroke-width="1" fill="none"/>
    <rect x="323.25" y="88" width="32.5" height="25" stroke="red" stroke-width="1" fill="none"/>
    <path d="M 323.25 103.9 Q 323.25 97.9 329.85 92.35 Q 336.45 86.8 343.35 86.8 Q 346.15 86.8 348.7 87.5 Q 351.25 88.2 353.55 90.7 Q 355.85 93.2 355.85 97.1 Q 355.85 102.6 349.15 108.4 Q 342.45 114.2 335.75 114.2 Q 332.95 114.2 330.4 113.5 Q 327.85 112.8 325.55 110.3 Q 323.25 107.8 323.25 103.9 Z " fill="black"/>
    <rect x="355.75" y="88" width="5" height="25" stroke="red" stroke-width="1" fill="none"/>
    <rect x="323.25" y="100.5" width="3" height="89.28571" stroke="red" stroke-width="1" fill="none"/>
    <rect x="428.25" y="88" width="32.5" height="25" stroke="red" stroke-width="1" fill="none"/>
    <path d="M 428.25 103.9 Q 428.25 97.9 434.85 92.35 Q 441.45 86.8 448.35 86.8 Q 451.15 86.8 453.7 87.5 Q 456.25 88.2 458.55 90.7 Q 460.85 93.2 460.85 97.1 Q 460.85 102.6 454.15 108.4 Q 447.45 114.2 440.75 114.2 Q 437.95 114.2 435.4 113.5 Q 432.85 112.8 430.55 110.3 Q 428.25 107.8 428.25 103.9 Z " fill="black"/>
    <rect x="460.75" y="88" width="5" height="25" stroke="red" stroke-width="1" fill="none"/>
    <rect x="398.25" y="63" width="30.000002" height="75" stroke="red" stroke-width="1" fill="none"/>
    <path d="M 419.85 90.9 L 419.85 103.1 Q 419.85 103.9 420.35 104.4 Q 420.85 104.9 421.65 104.9 Q 421.95 104.9 422.25 104.8 L 423.05 104.5 Q 423.35 104.4 423.75 104.4 Q 424.55 104.4 425.15 105 Q 425.75 105.6 425.75 106.4 L 425.75 112.4 Q 425.75 113.7 424.45 114.2 L 421.05 115.5 Q 419.85 116 419.85 117.1 L 419.85 131.7 Q 419.85 132.5 419.3 133.05 Q 418.75 133.6 418.05 133.6 Q 417.25 133.6 416.7 133.05 Q 416.15 132.5 416.15 131.7 L 416.15 119.8 Q 416.15 119 415.6 118.5 Q 415.05 118 414.35 118 Q 413.95 118 413.65 118.1 L 409.05 119.9 Q 407.85 120.3 407.85 121.5 L 407.85 136.1 Q 407.85 136.9 407.25 137.45 Q 406.65 138 405.95 138 Q 405.25 138 404.7 137.45 Q 404.15 136.9 404.15 136.1 L 404.15 124.2 Q 404.15 123.4 403.6 122.9 Q 403.05 122.4 402.35 122.4 Q 402.05 122.4 401.75 122.5 L 400.95 122.8 Q 400.75 122.9 400.25 122.9 Q 399.45 122.9 398.85 122.3 Q 398.25 121.7 398.25 120.9 L 398.25 114.9 Q 398.25 113.5 399.55 113 L 402.95 111.8 Q 404.15 111.5 404.15 110.1 L 404.15 97.9 Q 404.15 97.1 403.6 96.6 Q 403.05 96.1 402.35 96.1 Q 402.05 96.1 401.85 96.2 L 400.95 96.5 Q 400.75 96.6 400.25 96.6 Q 399.45 96.6 398.85 96 Q 398.25 95.4 398.25 94.6 L 398.25 88.6 Q 398.25 87.3 399.55 86.8 L 403.05 85.5 Q 404.15 85 404.15 83.9 L 404.15 69.3 Q 404.15 68.5 404.7 67.95 Q 405.25 67.399994 405.95 67.399994 Q 406.65 67.399994 407.25 67.95 Q 407.85 68.5 407.85 69.3 L 407.85 81.2 Q 407.85 82 408.4 82.5 Q 408.95 83 409.75 83 Q 410.05 83 410.35 82.9 L 414.95 81.1 Q 416.15 80.6 416.15 79.4 L 416.15 64.899994 Q 416.15 64.1 416.7 63.55 Q 417.25 63 418.05 63 Q 418.75 63 419.3 63.55 Q 419.85 64.1 419.85 64.899994 L 419.85 76.9 Q 419.85 77.6 420.35 78.1 Q 420.85 78.6 421.55 78.6 Q 421.85 78.6 422.25 78.5 L 423.05 78.2 Q 423.25 78.1 423.75 78.1 Q 424.55 78.1 425.15 78.7 Q 425.75 79.3 425.75 80.1 L 425.75 86.1 Q 425.75 87.5 424.45 88 L 421.05 89.2 Q 419.85 89.5 419.85 90.9 Z M 416.15 105.7 L 416.15 93.6 Q 416.15 92.9 415.6 92.35 Q 415.05 91.8 414.35 91.8 Q 414.05 91.8 413.75 91.9 L 409.05 93.6 Q 407.85 94.1 407.85 95.3 L 407.85 107.4 Q 407.85 108.2 408.35 108.7 Q 408.85 109.2 409.65 109.2 Q 409.95 109.2 410.25 109.1 L 414.95 107.4 Q 416.15 106.9 416.15 105.7 Z " fill="black"/>
    <rect x="428.25" y="100.5" width="3" height="89.28571" stroke="red" stroke-width="1" fill="none"/>
    <rect x="533.25" y="0.5" width="10" height="200" stroke="orange" stroke-width="1" fill="none"/>
    <line x1="144.25" y1="23.714287" x2="144.25" y2="109" stroke="black" stroke-width="3"/>
    <line x1="219.75" y1="42" x2="219.75" y2="127.28571" stroke="black" stroke-width="3"/>
    <line x1="324.75" y1="104.5" x2="324.75" y2="189.7857" stroke="black" stroke-width="3"/>
    <line x1="429.75" y1="104.5" x2="429.75" y2="189.7857" stroke="black" stroke-width="3"/>
    <rect x="0" y="0" width="544.5" height="201" stroke="black" stroke-width="1" fill="none"/>
</svg>
