<svg xmlns="http://www.w3.org/2000/svg" xmlns:xlink="http://www.w3.org/1999/xlink" viewBox="0 0 561 401">
    <rect x="0.5" y="99" width="10" height="10" stroke="orange" stroke-width="1" fill="none"/>
    <rect x="0.5" y="292" width="10" height="10" stroke="orange" stroke-width="1" fill="none"/>
    <rect x="10.5" y="91.5" width="32.5" height="25" stroke="red" stroke-width="1" fill="none"/>
    <path d="M 10.5 107.4 Q 10.5 101.4 17.1 95.85 Q 23.7 90.3 30.6 90.3 Q 33.4 90.3 35.95 91 Q 38.5 91.7 40.800003 94.2 Q 43.100002 96.7 43.100002 100.6 Q 43.100002 106.1 36.4 111.9 Q 29.7 117.7 23 117.7 Q 20.2 117.7 17.65 117 Q 15.1 116.3 12.8 113.8 Q 10.5 111.3 10.5 107.4 Z " fill="black"/>
    <rect x="43" y="104" width="32.5" height="25" stroke="red" stroke-width="1" fill="none"/>
    <path d="M 43 119.9 Q 43 113.9 49.6 108.35 Q 56.2 102.8 63.1 102.8 Q 65.9 102.8 68.45 103.5 Q 71 104.2 73.3 106.7 Q 75.600006 109.2 75.600006 113.1 Q 75.600006 118.6 68.9 124.4 Q 62.2 130.2 55.5 130.2 Q 52.7 130.2 50.15 129.5 Q 47.6 128.8 45.3 126.3 Q 43 123.8 43 119.9 Z " fill="black"/>
    <rect x="40" y="1.5" width="3" height="102.5" stroke="red" stroke-width="1" fill="none"/>
    <rect x="43" y="116.5" width="3" height="102.5" stroke="red" stroke-width="1" fill="none"/>
    <rect x="43" y="1.5" width="27.5" height="75" stroke="red" stroke-width="1" fill="none"/>
    <path d="M 58.45 48.5 Q 58.45 38.800003 46.15 26.5 Q 45.15 25.5 44.25 25.5 Q 42.45 25.5 42.45 28 L 42.45 31.300003 L 40.85 31.300003 L 40.85 1.5 L 42.45 1.5 Q 42.45 6.4000015 44.55 11.400002 Q 46.65 16.400002 49.6 20.699997 Q 52.55 25 55.550003 29.300003 Q 58.550003 33.600006 60.65 38.600006 Q 62.75 43.600002 62.75 48.5 Q 62.75 53.5 59.45 57.9 Q 58.550003 59.100002 57.25 59.100002 Q 56.550003 59.100002 56.1 58.55 Q 55.65 58 55.65 57.2 Q 55.65 56.600002 55.95 56.2 Q 58.45 52.100002 58.45 48.5 Z " fill="black"/>
    <rect x="47.5" y="144" width="27.5" height="75" stroke="red" stroke-width="1" fill="none"/>
    <path d="M 49.65 192.3 Q 69.65 179.8 69.65 168.1 Q 69.65 160.2 65.55 151.79999 Q 65.35 150.7 66.1 149.9 Q 66.85 149.1 67.85 149.1 Q 69.15 149.1 69.85 150.2 Q 73.85 159.2 73.85 168.1 Q 73.85 172.2 72.35 176.2 Q 70.85 180.2 68.5 183.55 Q 66.15 186.9 63.300003 190.2 Q 60.45 193.5 57.55 196.85 Q 54.65 200.2 52.3 203.55 Q 49.95 206.9 48.45 210.9 Q 46.95 214.9 46.95 219 L 45.35 219 L 45.35 187 L 46.95 187 L 46.95 190.7 Q 46.95 191.5 47.5 192 Q 48.05 192.5 48.75 192.5 Q 49.25 192.5 49.65 192.3 Z " fill="black"/>
    <rect x="10.5" y="284.5" width="32.5" height="25" stroke="red" stroke-width="1" fill="none"/>
    <path d="M 10.5 300.4 Q 10.5 294.4 17.1 288.85 Q 23.7 283.3 30.6 283.3 Q 33.4 283.3 35.95 284 Q 38.5 284.7 40.800003 287.2 Q 43.100002 289.7 43.100002 293.6 Q 43.100002 299.1 36.4 304.9 Q 29.7 310.7 23 310.7 Q 20.2 310.7 17.65 310 Q 15.1 309.3 12.8 306.8 Q 10.5 304.3 10.5 300.4 Z " fill="black"/>
    <rect x="10.5" y="297" width="3" height="102.5" stroke="red" stroke-width="1" fill="none"/>
    <rect x="15" y="324.5" width="27.5" height="75" stroke="red" stroke-width="1" fill="none"/>
    <path d="M 17.15 372.8 Q 37.15 360.3 37.15 348.6 Q 37.15 340.7 33.050003 332.3 Q 32.85 331.2 33.6 330.4 Q 34.35 329.6 35.35 329.6 Q 36.65 329.6 37.35 330.7 Q 41.35 339.7 41.35 348.6 Q 41.35 352.7 39.85 356.7 Q 38.35 360.7 36 364.05 Q 33.65 367.4 30.800001 370.7 Q 27.95 374 25.05 377.35 Q 22.150002 380.7 19.8 384.05 Q 17.45 387.4 15.950001 391.4 Q 14.45 395.4 14.45 399.5 L 12.85 399.5 L 12.85 367.5 L 14.45 367.5 L 14.45 371.2 Q 14.45 372 15 372.5 Q 15.55 373 16.25 373 Q 16.75 373 17.15 372.8 Z " fill="black"/>
    <rect x="85.5" y="16.5" width="25" height="50" stroke="red" stroke-width="1" fill="none"/>
    <path d="M 101.2 35 Q 97 36.1 94.2 36.1 Q 90.7 36.1 88.1 33.85 Q 85.5 31.599998 85.5 28.199997 Q 85.5 25.199997 87.65 23.099998 Q 89.8 21 92.8 21 Q 94.7 21 96.25 22.050003 Q 97.8 23.099998 98.4 24.900002 Q 98.6 25.5 99 27.449997 Q 99.4 29.400002 100 30.099998 Q 100.6 30.800003 101.9 30.800003 Q 103 30.800003 105.15 28.349998 Q 107.3 25.900002 108 24.5 Q 108.4 23.599998 109.4 23.599998 Q 110.4 23.599998 110.8 24.5 L 98.5 66.5 Q 97.4 67.5 95.8 67.5 Q 94.1 67.5 93 66.5 L 103.4 37.4 Q 103.8 36.300003 103.1 35.6 Q 102.3 34.6 101.2 35 Z " fill="black"/>
    <rect x="85.5" y="141.5" width="25" height="50" stroke="red" stroke-width="1" fill="none"/>
    <path d="M 101.2 160 Q 97 161.1 94.2 161.1 Q 90.7 161.1 88.1 158.85 Q 85.5 156.6 85.5 153.2 Q 85.5 150.2 87.65 148.1 Q 89.8 146 92.8 146 Q 94.7 146 96.25 147.05 Q 97.8 148.1 98.4 149.9 Q 98.6 150.5 99 152.45 Q 99.4 154.4 100 155.1 Q 100.6 155.8 101.9 155.8 Q 103 155.8 105.15 153.35 Q 107.3 150.9 108 149.5 Q 108.4 148.6 109.4 148.6 Q 110.4 148.6 110.8 149.5 L 98.5 191.5 Q 97.4 192.5 95.8 192.5 Q 94.1 192.5 93 191.5 L 103.4 162.4 Q 103.8 161.3 103.1 160.6 Q 102.3 159.6 101.2 160 Z " fill="black"/>
    <rect x="85.5" y="272" width="25" height="50" stroke="red" stroke-width="1" fill="none"/>
    <path d="M 101.2 290.5 Q 97 291.6 94.2 291.6 Q 90.7 291.6 88.1 289.35 Q 85.5 287.1 85.5 283.7 Q 85.5 280.7 87.65 278.6 Q 89.8 276.5 92.8 276.5 Q 94.7 276.5 96.25 277.55 Q 97.8 278.6 98.4 280.4 Q 98.6 281 99 282.95 Q 99.4 284.9 100 285.6 Q 100.6 286.3 101.9 286.3 Q 103 286.3 105.15 283.85 Q 107.3 281.4 108 280 Q 108.4 279.1 109.4 279.1 Q 110.4 279.1 110.8 280 L 98.5 322 Q 97.4 323 95.8 323 Q 94.1 323 93 322 L 103.4 292.9 Q 103.8 291.8 103.1 291.1 Q 102.3 290.1 101.2 290.5 Z " fill="black"/>
    <rect x="193" y="116.5" width="32.5" height="25" stroke="red" stroke-width="1" fill="none"/>
    <path d="M 193 132.4 Q 193 126.4 199.6 120.85 Q 206.2 115.3 213.1 115.3 Q 215.9 115.3 218.45 116 Q 221 116.7 223.3 119.2 Q 225.6 121.7 225.6 125.6 Q 225.6 131.1 218.9 136.9 Q 212.2 142.7 205.5 142.7 Q 202.7 142.7 200.15 142 Q 197.6 141.3 195.3 138.8 Q 193 136.3 193 132.4 Z " fill="black"/>
    <rect x="160.5" y="104" width="32.5" height="25" stroke="red" stroke-width="1" fill="none"/>
    <path d="M 160.5 119.9 Q 160.5 113.9 167.1 108.35 Q 173.7 102.8 180.6 102.8 Q 183.4 102.8 185.95 103.5 Q 188.5 104.2 190.8 106.7 Q 193.1 109.2 193.1 113.1 Q 193.1 118.6 186.4 124.4 Q 179.7 130.2 173 130.2 Q 170.2 130.2 167.65 129.5 Q 165.1 128.8 162.8 126.3 Q 160.5 123.8 160.5 119.9 Z " fill="black"/>
    <rect x="222.5" y="26.5" width="3" height="102.5" stroke="red" stroke-width="1" fill="none"/>
    <rect x="160.5" y="116.5" width="3" height="102.5" stroke="red" stroke-width="1" fill="none"/>
    <rect x="225.5" y="26.5" width="27.5" height="75" stroke="red" stroke-width="1" fill="none"/>
    <path d="M 240.95 73.5 Q 240.95 63.8 228.65 51.5 Q 227.65 50.5 226.75 50.5 Q 224.95 50.5 224.95 53 L 224.95 56.300003 L 223.35 56.300003 L 223.35 26.5 L 224.95 26.5 Q 224.95 31.400002 227.05 36.4 Q 229.15 41.4 232.1 45.7 Q 235.05 50 238.05 54.300003 Q 241.05 58.600002 243.15 63.600002 Q 245.25 68.600006 245.25 73.5 Q 245.25 78.5 241.95 82.9 Q 241.05 84.100006 239.75 84.100006 Q 239.05 84.100006 238.6 83.55 Q 238.15 83 238.15 82.2 Q 238.15 81.600006 238.45 81.2 Q 240.95 77.100006 240.95 73.5 Z " fill="black"/>
    <rect x="165" y="144" width="27.5" height="75" stroke="red" stroke-width="1" fill="none"/>
    <path d="M 167.15 192.3 Q 187.15 179.8 187.15 168.1 Q 187.15 160.2 183.05 151.79999 Q 182.85 150.7 183.6 149.9 Q 184.35 149.1 185.35 149.1 Q 186.65 149.1 187.35 150.2 Q 191.35 159.2 191.35 168.1 Q 191.35 172.2 189.85 176.2 Q 188.35 180.2 186 183.55 Q 183.65 186.9 180.8 190.2 Q 177.95 193.5 175.05 196.85 Q 172.15 200.2 169.8 203.55 Q 167.45 206.9 165.95 210.9 Q 164.45 214.9 164.45 219 L 162.85 219 L 162.85 187 L 164.45 187 L 164.45 190.7 Q 164.45 191.5 165 192 Q 165.55 192.5 166.25 192.5 Q 166.75 192.5 167.15 192.3 Z " fill="black"/>
    <rect x="160.5" y="309.5" width="32.5" height="25" stroke="red" stroke-width="1" fill="none"/>
    <path d="M 160.5 325.4 Q 160.5 319.4 167.1 313.85 Q 173.7 308.3 180.6 308.3 Q 183.4 308.3 185.95 309 Q 188.5 309.7 190.8 312.2 Q 193.1 314.7 193.1 318.6 Q 193.1 324.1 186.4 329.9 Q 179.7 335.7 173 335.7 Q 170.2 335.7 167.65 335 Q 165.1 334.3 162.8 331.8 Q 160.5 329.3 160.5 325.4 Z " fill="black"/>
    <rect x="190" y="219.5" width="3" height="102.5" stroke="red" stroke-width="1" fill="none"/>
    <rect x="193" y="219.5" width="27.5" height="75" stroke="red" stroke-width="1" fill="none"/>
    <path d="M 208.45 266.5 Q 208.45 256.8 196.15 244.5 Q 195.15 243.5 194.25 243.5 Q 192.45 243.5 192.45 246 L 192.45 249.3 L 190.85 249.3 L 190.85 219.5 L 192.45 219.5 Q 192.45 224.4 194.55 229.4 Q 196.65 234.4 199.6 238.7 Q 202.55 243 205.55 247.3 Q 208.55 251.6 210.65 256.6 Q 212.75 261.6 212.75 266.5 Q 212.75 271.5 209.45 275.9 Q 208.55 277.1 207.25 277.1 Q 206.55 277.1 206.1 276.55 Q 205.65 276 205.65 275.2 Q 205.65 274.6 205.95 274.2 Q 208.45 270.1 208.45 266.5 Z " fill="black"/>
    <rect x="235.5" y="16.5" width="25" height="50" stroke="red" stroke-width="1" fill="none"/>
    <path d="M 251.2 35 Q 247 36.1 244.2 36.1 Q 240.7 36.1 238.1 33.85 Q 235.5 31.599998 235.5 28.199997 Q 235.5 25.199997 237.65 23.099998 Q 239.8 21 242.8 21 Q 244.7 21 246.25 22.050003 Q 247.8 23.099998 248.4 24.900002 Q 248.6 25.5 249 27.449997 Q 249.4 29.400002 250 30.099998 Q 250.6 30.800003 251.9 30.800003 Q 253 30.800003 255.15 28.349998 Q 257.3 25.900002 258 24.5 Q 258.4 23.599998 259.4 23.599998 Q 260.4 23.599998 260.8 24.5 L 248.5 66.5 Q 247.4 67.5 245.8 67.5 Q 244.1 67.5 243 66.5 L 253.4 37.4 Q 253.8 36.300003 253.1 35.6 Q 252.3 34.6 251.2 35 Z " fill="black"/>
    <rect x="235.5" y="141.5" width="25" height="50" stroke="red" stroke-width="1" fill="none"/>
    <path d="M 251.2 160 Q 247 161.1 244.2 161.1 Q 240.7 161.1 238.1 158.85 Q 235.5 156.6 235.5 153.2 Q 235.5 150.2 237.65 148.1 Q 239.8 146 242.8 146 Q 244.7 146 246.25 147.05 Q 247.8 148.1 248.4 149.9 Q 248.6 150.5 249 152.45 Q 249.4 154.4 250 155.1 Q 250.6 155.8 251.9 155.8 Q 253 155.8 255.15 153.35 Q 257.3 150.9 258 149.5 Q 258.4 148.6 259.4 148.6 Q 260.4 148.6 260.8 149.5 L 248.5 191.5 Q 247.4 192.5 245.8 192.5 Q 244.1 192.5 243 191.5 L 253.4 162.4 Q 253.8 161.3 253.1 160.6 Q 252.3 159.6 251.2 160 Z " fill="black"/>
    <rect x="235.5" y="272" width="25" height="50" stroke="red" stroke-width="1" fill="none"/>
    <path d="M 251.2 290.5 Q 247 291.6 244.2 291.6 Q 240.7 291.6 238.1 289.35 Q 235.5 287.1 235.5 283.7 Q 235.5 280.7 237.65 278.6 Q 239.8 276.5 242.8 276.5 Q 244.7 276.5 246.25 277.55 Q 247.8 278.6 248.4 280.4 Q 248.6 281 249 282.95 Q 249.4 284.9 250 285.6 Q 250.6 286.3 251.9 286.3 Q 253 286.3 255.15 283.85 Q 257.3 281.4 258 280 Q 258.4 279.1 259.4 279.1 Q 260.4 279.1 260.8 280 L 248.5 322 Q 247.4 323 245.8 323 Q 244.1 323 243 322 L 253.4 292.9 Q 253.8 291.8 253.1 291.1 Q 252.3 290.1 251.2 290.5 Z " fill="black"/>
    <rect x="310.5" y="91.5" width="32.5" height="25" stroke="red" stroke-width="1" fill="none"/>
    <path d="M 310.5 107.4 Q 310.5 101.4 317.1 95.85 Q 323.7 90.3 330.6 90.3 Q 333.4 90.3 335.95 91 Q 338.5 91.7 340.8 94.2 Q 343.1 96.7 343.1 100.6 Q 343.1 106.1 336.4 111.9 Q 329.7 117.7 323 117.7 Q 320.2 117.7 317.65 117 Q 315.1 116.3 312.8 113.8 Q 310.5 111.3 310.5 107.4 Z " fill="black"/>
    <rect x="310.5" y="104" width="3" height="102.5" stroke="red" stroke-width="1" fill="none"/>
    <rect x="315" y="131.5" width="27.5" height="75" stroke="red" stroke-width="1" fill="none"/>
    <path d="M 332.35 157.9 Q 330.95 159.3 327.85 162.15 Q 324.75 165 322.85 166.95 Q 320.95 168.9 318.8 171.6 Q 316.65 174.3 315.55 177.1 Q 314.45 179.9 314.45 182.8 Q 314.45 183.6 315.05 184.1 Q 315.65 184.6 316.35 184.6 Q 316.85 184.6 317.25 184.4 Q 335.85 173.5 335.85 162.7 Q 335.85 160.4 335.45 158.7 Q 335.15 157.3 333.75 157.3 Q 332.95 157.3 332.35 157.9 Z M 337.95 152.7 Q 340.05 157.5 340.05 162.7 Q 340.05 167.7 337.4 172.4 Q 334.75 177.1 331 180.85 Q 327.25 184.6 323.5 188.35 Q 319.75 192.1 317.1 196.8 Q 314.45 201.5 314.45 206.5 L 312.85 206.5 L 312.85 156.5 L 314.45 156.5 L 314.45 160.5 Q 314.45 161.3 315 161.8 Q 315.55 162.3 316.25 162.3 Q 316.65 162.3 317.05 162.1 Q 337.15 151.5 337.15 140.2 Q 337.15 139.1 336.45 136.9 Q 335.75 134.7 335.75 133.5 Q 335.75 132.5 336.45 131.9 Q 337.15 131.29999 338.05 131.29999 Q 341.35 131.29999 341.35 140.2 Q 341.35 145.7 338.05 151 Q 337.55 151.8 337.95 152.7 Z " fill="black"/>
    <rect x="310.5" y="284.5" width="32.5" height="25" stroke="red" stroke-width="1" fill="none"/>
    <path d="M 310.5 300.4 Q 310.5 294.4 317.1 288.85 Q 323.7 283.3 330.6 283.3 Q 333.4 283.3 335.95 284 Q 338.5 284.7 340.8 287.2 Q 343.1 289.7 343.1 293.6 Q 343.1 299.1 336.4 304.9 Q 329.7 310.7 323 310.7 Q 320.2 310.7 317.65 310 Q 315.1 309.3 312.8 306.8 Q 310.5 304.3 310.5 300.4 Z " fill="black"/>
    <rect x="310.5" y="297" width="3" height="102.5" stroke="red" stroke-width="1" fill="none"/>
    <rect x="315" y="324.5" width="27.5" height="75" stroke="red" stroke-width="1" fill="none"/>
    <path d="M 332.35 350.9 Q 330.95 352.3 327.85 355.15 Q 324.75 358 322.85 359.95 Q 320.95 361.9 318.8 364.6 Q 316.65 367.3 315.55 370.1 Q 314.45 372.9 314.45 375.8 Q 314.45 376.6 315.05 377.1 Q 315.65 377.6 316.35 377.6 Q 316.85 377.6 317.25 377.4 Q 335.85 366.5 335.85 355.7 Q 335.85 353.4 335.45 351.7 Q 335.15 350.3 333.75 350.3 Q 332.95 350.3 332.35 350.9 Z M 337.95 345.7 Q 340.05 350.5 340.05 355.7 Q 340.05 360.7 337.4 365.4 Q 334.75 370.1 331 373.85 Q 327.25 377.6 323.5 381.35 Q 319.75 385.1 317.1 389.8 Q 314.45 394.5 314.45 399.5 L 312.85 399.5 L 312.85 349.5 L 314.45 349.5 L 314.45 353.5 Q 314.45 354.3 315 354.8 Q 315.55 355.3 316.25 355.3 Q 316.65 355.3 317.05 355.1 Q 337.15 344.5 337.15 333.2 Q 337.15 332.1 336.45 329.9 Q 335.75 327.7 335.75 326.5 Q 335.75 325.5 336.45 324.9 Q 337.15 324.3 338.05 324.3 Q 341.35 324.3 341.35 333.2 Q 341.35 338.7 338.05 344 Q 337.55 344.8 337.95 345.7 Z " fill="black"/>
    <rect x="370.5" y="54" width="32.5" height="75" stroke="red" stroke-width="1" fill="none"/>
    <path d="M 386.6 97.4 Q 382.5 98.6 379.2 98.6 Q 375.7 98.6 373.1 96.35 Q 370.5 94.1 370.5 90.7 Q 370.5 87.7 372.6 85.6 Q 374.7 83.5 377.7 83.5 Q 379.6 83.5 381.2 84.55 Q 382.8 85.6 383.4 87.4 Q 383.7 88.1 384.05 90 Q 384.4 91.9 384.95 92.6 Q 385.5 93.3 386.8 93.3 Q 387.9 93.3 390.15 90.6 Q 392.4 87.9 392.8 86.5 L 396.4 74.7 Q 396.5 74.4 396.5 74.2 Q 396.5 73.5 395.95 72.95 Q 395.4 72.4 394.6 72.4 Q 394.3 72.4 394.1 72.5 Q 389.9 73.6 387 73.6 Q 383.5 73.6 380.9 71.35 Q 378.3 69.1 378.3 65.7 Q 378.3 62.699997 380.45 60.6 Q 382.6 58.5 385.6 58.5 Q 387.5 58.5 389.05 59.55 Q 390.6 60.6 391.2 62.4 Q 391.5 63.1 391.85 65 Q 392.2 66.9 392.75 67.6 Q 393.3 68.3 394.6 68.3 Q 395.6 68.3 397.6 65.9 Q 399.6 63.5 400.3 62 Q 400.7 61.1 401.7 61.1 Q 402.7 61.1 403.1 62 L 385.2 129 Q 384.1 130 382.5 130 Q 380.8 130 379.7 129 L 388.8 99.6 Q 388.9 99.3 388.9 99 Q 388.9 98.3 388.4 97.8 Q 387.9 97.3 387.1 97.3 Q 386.9 97.3 386.6 97.4 Z " fill="black"/>
    <rect x="370.5" y="272" width="32.5" height="75" stroke="red" stroke-width="1" fill="none"/>
    <path d="M 386.6 315.4 Q 382.5 316.6 379.2 316.6 Q 375.7 316.6 373.1 314.35 Q 370.5 312.1 370.5 308.7 Q 370.5 305.7 372.6 303.6 Q 374.7 301.5 377.7 301.5 Q 379.6 301.5 381.2 302.55 Q 382.8 303.6 383.4 305.4 Q 383.7 306.1 384.05 308 Q 384.4 309.9 384.95 310.6 Q 385.5 311.3 386.8 311.3 Q 387.9 311.3 390.15 308.6 Q 392.4 305.9 392.8 304.5 L 396.4 292.7 Q 396.5 292.4 396.5 292.2 Q 396.5 291.5 395.95 290.95 Q 395.4 290.4 394.6 290.4 Q 394.3 290.4 394.1 290.5 Q 389.9 291.6 387 291.6 Q 383.5 291.6 380.9 289.35 Q 378.3 287.1 378.3 283.7 Q 378.3 280.7 380.45 278.6 Q 382.6 276.5 385.6 276.5 Q 387.5 276.5 389.05 277.55 Q 390.6 278.6 391.2 280.4 Q 391.5 281.1 391.85 283 Q 392.2 284.9 392.75 285.6 Q 393.3 286.3 394.6 286.3 Q 395.6 286.3 397.6 283.9 Q 399.6 281.5 400.3 280 Q 400.7 279.1 401.7 279.1 Q 402.7 279.1 403.1 280 L 385.2 347 Q 384.1 348 382.5 348 Q 380.8 348 379.7 347 L 388.8 317.6 Q 388.9 317.3 388.9 317 Q 388.9 316.3 388.4 315.8 Q 387.9 315.3 387.1 315.3 Q 386.9 315.3 386.6 315.4 Z " fill="black"/>
    <rect x="430.5" y="116.5" width="32.5" height="25" stroke="red" stroke-width="1" fill="none"/>
    <path d="M 430.5 132.4 Q 430.5 126.4 437.1 120.85 Q 443.7 115.3 450.6 115.3 Q 453.4 115.3 455.95 116 Q 458.5 116.7 460.8 119.2 Q 463.1 121.7 463.1 125.6 Q 463.1 131.1 456.4 136.9 Q 449.7 142.7 443 142.7 Q 440.2 142.7 437.65 142 Q 435.1 141.3 432.8 138.8 Q 430.5 136.3 430.5 132.4 Z " fill="black"/>
    <rect x="460" y="26.5" width="3" height="102.5" stroke="red" stroke-width="1" fill="none"/>
    <rect x="463" y="26.5" width="27.5" height="75" stroke="red" stroke-width="1" fill="none"/>
    <path d="M 480.85 83.7 Q 483.35 89.2 483.35 94.700005 Q 483.35 103.6 479.15 113 Q 478.45 114.200005 477.25 114.200005 Q 476.25 114.200005 475.5 113.4 Q 474.75 112.6 474.95 111.5 Q 479.15 103.1 479.15 94.700005 Q 479.15 84.9 465.55 71.9 Q 464.95 71.3 464.25 71.3 Q 463.55 71.3 463 71.850006 Q 462.45 72.4 462.45 73.2 L 462.45 76.5 L 460.85 76.5 L 460.85 26.5 L 462.45 26.5 Q 462.45 31.400002 464.55 36.4 Q 466.65 41.4 469.6 45.7 Q 472.55 50 475.55 54.300003 Q 478.55 58.600002 480.65 63.600002 Q 482.75 68.600006 482.75 73.5 Q 482.75 77.600006 480.75 82.3 Q 480.45 82.8 480.85 83.7 Z M 475.15 74.4 Q 475.65 75.2 476.55 75.2 Q 477.25 75.2 477.85 74.7 Q 478.45 74.2 478.45 73.5 Q 478.45 64.2 466.15 51.5 Q 465.55 50.9 464.75 50.9 Q 464.05 50.9 463.55 51.4 Q 463.05 51.9 463.05 52.7 Q 463.05 55.300003 464.45 58.55 Q 465.85 61.8 467.35 63.95 Q 468.85 66.100006 471.6 69.7 Q 474.35 73.3 475.15 74.4 Z " fill="black"/>
    <rect x="430.5" y="309.5" width="32.5" height="25" stroke="red" stroke-width="1" fill="none"/>
    <path d="M 430.5 325.4 Q 430.5 319.4 437.1 313.85 Q 443.7 308.3 450.6 308.3 Q 453.4 308.3 455.95 309 Q 458.5 309.7 460.8 312.2 Q 463.1 314.7 463.1 318.6 Q 463.1 324.1 456.4 329.9 Q 449.7 335.7 443 335.7 Q 440.2 335.7 437.65 335 Q 435.1 334.3 432.8 331.8 Q 430.5 329.3 430.5 325.4 Z " fill="black"/>
    <rect x="460" y="219.5" width="3" height="102.5" stroke="red" stroke-width="1" fill="none"/>
    <rect x="463" y="219.5" width="27.5" height="75" stroke="red" stroke-width="1" fill="none"/>
    <path d="M 480.85 276.7 Q 483.35 282.2 483.35 287.7 Q 483.35 296.6 479.15 306 Q 478.45 307.2 477.25 307.2 Q 476.25 307.2 475.5 306.4 Q 474.75 305.6 474.95 304.5 Q 479.15 296.1 479.15 287.7 Q 479.15 277.9 465.55 264.9 Q 464.95 264.3 464.25 264.3 Q 463.55 264.3 463 264.85 Q 462.45 265.4 462.45 266.2 L 462.45 269.5 L 460.85 269.5 L 460.85 219.5 L 462.45 219.5 Q 462.45 224.4 464.55 229.4 Q 466.65 234.4 469.6 238.7 Q 472.55 243 475.55 247.3 Q 478.55 251.6 480.65 256.6 Q 482.75 261.6 482.75 266.5 Q 482.75 270.6 480.75 275.3 Q 480.45 275.8 480.85 276.7 Z M 475.15 267.4 Q 475.65 268.2 476.55 268.2 Q 477.25 268.2 477.85 267.7 Q 478.45 267.2 478.45 266.5 Q 478.45 257.2 466.15 244.5 Q 465.55 243.9 464.75 243.9 Q 464.05 243.9 463.55 244.4 Q 463.05 244.9 463.05 245.7 Q 463.05 248.3 464.45 251.55 Q 465.85 254.8 467.35 256.95 Q 468.85 259.1 471.6 262.7 Q 474.35 266.3 475.15 267.4 Z " fill="black"/>
    <rect x="490.5" y="54" width="32.5" height="75" stroke="red" stroke-width="1" fill="none"/>
    <path d="M 506.6 97.4 Q 502.5 98.6 499.2 98.6 Q 495.7 98.6 493.1 96.35 Q 490.5 94.1 490.5 90.7 Q 490.5 87.7 492.6 85.6 Q 494.7 83.5 497.7 83.5 Q 499.6 83.5 501.2 84.55 Q 502.8 85.6 503.4 87.4 Q 503.7 88.1 504.05 90 Q 504.4 91.9 504.95 92.6 Q 505.5 93.3 506.8 93.3 Q 507.9 93.3 510.15 90.6 Q 512.4 87.9 512.8 86.5 L 516.4 74.7 Q 516.5 74.4 516.5 74.2 Q 516.5 73.5 515.95 72.95 Q 515.4 72.4 514.6 72.4 Q 514.3 72.4 514.1 72.5 Q 509.9 73.6 507 73.6 Q 503.5 73.6 500.9 71.35 Q 498.3 69.1 498.3 65.7 Q 498.3 62.699997 500.45 60.6 Q 502.6 58.5 505.6 58.5 Q 507.5 58.5 509.05 59.55 Q 510.6 60.6 511.2 62.4 Q 511.5 63.1 511.85 65 Q 512.2 66.9 512.75 67.6 Q 513.3 68.3 514.6 68.3 Q 515.6 68.3 517.6 65.9 Q 519.6 63.5 520.3 62 Q 520.7 61.1 521.7 61.1 Q 522.7 61.1 523.1 62 L 505.2 129 Q 504.1 130 502.5 130 Q 500.8 130 499.7 129 L 508.8 99.6 Q 508.9 99.3 508.9 99 Q 508.9 98.3 508.4 97.8 Q 507.9 97.3 507.1 97.3 Q 506.9 97.3 506.6 97.4 Z " fill="black"/>
    <rect x="490.5" y="272" width="32.5" height="75" stroke="red" stroke-width="1" fill="none"/>
    <path d="M 506.6 315.4 Q 502.5 316.6 499.2 316.6 Q 495.7 316.6 493.1 314.35 Q 490.5 312.1 490.5 308.7 Q 490.5 305.7 492.6 303.6 Q 494.7 301.5 497.7 301.5 Q 499.6 301.5 501.2 302.55 Q 502.8 303.6 503.4 305.4 Q 503.7 306.1 504.05 308 Q 504.4 309.9 504.95 310.6 Q 505.5 311.3 506.8 311.3 Q 507.9 311.3 510.15 308.6 Q 512.4 305.9 512.8 304.5 L 516.4 292.7 Q 516.5 292.4 516.5 292.2 Q 516.5 291.5 515.95 290.95 Q 515.4 290.4 514.6 290.4 Q 514.3 290.4 514.1 290.5 Q 509.9 291.6 507 291.6 Q 503.5 291.6 500.9 289.35 Q 498.3 287.1 498.3 283.7 Q 498.3 280.7 500.45 278.6 Q 502.6 276.5 505.6 276.5 Q 507.5 276.5 509.05 277.55 Q 510.6 278.6 511.2 280.4 Q 511.5 281.1 511.85 283 Q 512.2 284.9 512.75 285.6 Q 513.3 286.3 514.6 286.3 Q 515.6 286.3 517.6 283.9 Q 519.6 281.5 520.3 280 Q 520.7 279.1 521.7 279.1 Q 522.7 279.1 523.1 280 L 505.2 347 Q 504.1 348 502.5 348 Q 500.8 348 499.7 347 L 508.8 317.6 Q 508.9 317.3 508.9 317 Q 508.9 316.3 508.4 315.8 Q 507.9 315.3 507.1 315.3 Q 506.9 315.3 506.6 315.4 Z " fill="black"/>
    <rect x="550.5" y="99" width="10" height="10" stroke="orange" stroke-width="1" fill="none"/>
    <rect x="550.5" y="292" width="10" height="10" stroke="orange" stroke-width="1" fill="none"/>
    <line x1="41.5" y1="1.5" x2="41.5" y2="100" stroke="black" stroke-width="3"/>
    <line x1="44.5" y1="120.5" x2="44.5" y2="219" stroke="black" stroke-width="3"/>
    <line x1="224" y1="26.5" x2="224" y2="125" stroke="black" stroke-width="3"/>
    <line x1="162" y1="120.5" x2="162" y2="219" stroke="black" stroke-width="3"/>
    <line x1="312" y1="108" x2="312" y2="206.5" stroke="black" stroke-width="3"/>
    <line x1="461.5" y1="26.5" x2="461.5" y2="125" stroke="black" stroke-width="3"/>
    <line x1="12" y1="301" x2="12" y2="399.5" stroke="black" stroke-width="3"/>
    <line x1="191.5" y1="219.5" x2="191.5" y2="318" stroke="black" stroke-width="3"/>
    <line x1="312" y1="301" x2="312" y2="399.5" stroke="black" stroke-width="3"/>
    <line x1="461.5" y1="219.5" x2="461.5" y2="318" stroke="black" stroke-width="3"/>
    <rect x="0" y="0" width="561" height="401" stroke="black" stroke-width="1" fill="none"/>
</svg>
