<svg xmlns="http://www.w3.org/2000/svg" xmlns:xlink="http://www.w3.org/1999/xlink" width="852.25" height="309.1" viewBox="0 0 852.25 309.1">
    <line x1="1.25" y1="164.5" x2="851" y2="164.5" stroke="black" stroke-width="2.5"/>
    <line x1="1.25" y1="189.5" x2="851" y2="189.5" stroke="black" stroke-width="2.5"/>
    <line x1="1.25" y1="214.5" x2="851" y2="214.5" stroke="black" stroke-width="2.5"/>
    <line x1="1.25" y1="239.5" x2="851" y2="239.5" stroke="black" stroke-width="2.5"/>
    <line x1="1.25" y1="264.5" x2="851" y2="264.5" stroke="black" stroke-width="2.5"/>
    <path d="M 26.050001 183 Q 23.75 175.7 22.85 170 Q 22.050001 165.2 22.050001 158.79999 Q 22.050001 156.6 22.15 154.4 Q 22.550001 144.9 26.050001 136.95 Q 29.550001 129 36.55 124.799995 Q 37.05 124.5 37.850002 124.5 Q 38.55 124.5 39.05 125 Q 44.65 130.6 47.65 139.29999 Q 50.65 148 50.65 156.9 Q 50.65 167.2 46.25 177.1 Q 42.05 187 34.45 194.6 Q 33.850002 195.2 34.05 196.2 L 38.05 212.2 Q 38.350002 213.8 40.05 213.6 Q 41.65 213.4 43.15 213.4 Q 48.95 213.4 53.65 215.7 Q 58.350002 218 61.25 221.7 Q 64.15 225.4 65.700005 229.85 Q 67.25 234.3 67.25 239 Q 67.25 247.6 62.45 254.55 Q 57.65 261.5 50.95 263.7 Q 49.55 264.2 49.850002 265.8 Q 52.350002 277.6 52.45 285.7 Q 52.45 288.8 52.05 291.8 Q 51.25 298.7 46.05 303.9 Q 40.850002 309.1 33.65 309.1 Q 24.85 309.1 18.75 303.8 Q 12.650001 298.5 12.650001 289.9 Q 12.650001 285.5 15.75 282.3 Q 18.85 279.1 23.050001 279.1 Q 27.35 279.1 30.300001 282.15 Q 33.25 285.2 33.25 289.4 Q 33.25 293 30.85 295.7 Q 28.45 298.5 25.050001 298.8 Q 23.85 298.9 23.45 300 Q 23.050001 301.1 24.25 302 Q 27.85 304.8 33.050003 304.8 Q 38.75 304.8 42.9 300.7 Q 47.05 296.6 47.75 291.4 Q 48.25 287.8 48.25 284.2 Q 48.25 276.4 45.850002 266.9 Q 45.45 265.2 43.65 265.4 Q 39.65 265.9 36.25 265.9 Q 21.45 265.9 11.35 256.6 Q 1.25 247.3 1.25 231.3 Q 1.25 226.4 2.4 221.65 Q 3.55 216.9 5 213.45 Q 6.4500003 210 9.5 205.45 Q 12.55 200.9 14.400001 198.5 Q 16.25 196.1 20.25 191.35 Q 24.25 186.6 25.75 184.7 Q 26.35 184 26.050001 183 Z M 41.65 228.7 L 48.15 258.2 Q 48.45 259.5 49.95 259.5 Q 50.350002 259.5 50.65 259.4 Q 54.75 257.7 57.45 252.8 Q 60.15 247.9 60.15 243.1 Q 60.15 236.1 56.05 231.3 Q 51.850002 226.4 43.45 226.4 Q 42.75 226.4 42.2 226.95 Q 41.65 227.5 41.65 228.2 Q 41.55 228.5 41.65 228.7 Z M 27.85 200.9 Q 26.25 202.7 23.1 206.05 Q 19.95 209.4 18.4 211.15 Q 16.85 212.9 14.6 216.1 Q 12.35 219.3 11.25 222 Q 10.150001 224.7 9.3 228.6 Q 8.450001 232.5 8.450001 236.9 Q 8.450001 243 12.2 248.7 Q 15.95 254.4 22.5 258 Q 29.050001 261.6 36.55 261.6 Q 39.25 261.6 42.55 261.3 Q 43.350002 261.2 43.850002 260.55 Q 44.350002 259.9 44.15 259.1 L 37.65 229.2 Q 37.350002 227.8 35.75 227.8 Q 35.45 227.8 35.05 227.9 Q 30.45 229.6 28.550001 232.7 Q 26.65 235.8 26.65 240.5 Q 26.65 246 32.65 250 Q 33.350002 250.5 33.350002 251.5 Q 33.350002 252.3 32.7 253 Q 32.050003 253.7 31.15 253.7 Q 30.65 253.7 30.25 253.5 Q 24.550001 250.5 21.800001 245.35 Q 19.050001 240.2 19.050001 234.5 Q 19.050001 229 23 223.15 Q 26.95 217.3 32.85 215.1 Q 34.350002 214.5 34.05 213 L 31.050001 201.7 Q 30.85 200.6 29.65 200.4 Q 28.45 200.2 27.85 200.9 Z M 44.65 142.7 Q 43.850002 140.1 41.95 140.1 Q 41.350002 140.1 40.850002 140.4 Q 34.45 144.2 30.7 151.1 Q 26.95 158 26.95 165.7 Q 26.95 170.7 29.050001 178 Q 29.35 179.1 30.550001 179.3 Q 31.550001 179.4 32.25 178.6 Q 32.550003 178.2 35.100002 175.04999 Q 37.65 171.9 38.45 170.85 Q 39.25 169.79999 41.15 166.85 Q 43.05 163.9 43.8 161.95 Q 44.55 160 45.25 157.1 Q 45.95 154.2 45.95 151.29999 Q 45.95 147.1 44.65 142.7 Z " fill="black"/>
    <path d="M 49.43934 76.05649 Q 43.194313 72.23787 39.93258 65.51551 Q 36.670845 58.79316 36.670845 50.28083 Q 36.670845 40.495625 40.529236 33.49483 Q 44.38763 26.494038 51.229317 22.874302 Q 58.071003 19.254578 66.822 19.254578 Q 74.857 19.254578 85.35819 21.720764 L 84.6422 35.483692 L 78.993835 35.483692 L 77.084526 25.937153 Q 75.970764 25.062054 73.30569 24.26651 Q 70.64061 23.470966 66.18556 23.470966 Q 60.378082 23.470966 55.92303 26.334923 Q 51.46798 29.198887 48.962013 34.847256 Q 46.456047 40.495625 46.456047 48.530632 Q 46.456047 55.9292 48.484684 62.054893 Q 50.51333 68.18059 54.689934 71.879875 Q 58.866547 75.579155 64.91269 75.579155 Q 68.73131 75.579155 72.152145 74.664276 Q 75.57299 73.749405 77.40274 72.23787 L 77.40274 54.497215 L 67.378876 53.701668 L 67.378876 49.007957 L 90.608795 49.007957 L 90.608795 53.701668 L 85.99463 54.417664 L 85.99463 75.81782 Q 84.24443 75.89738 80.18715 77.17024 Q 76.05032 78.443115 72.39081 79.15911 Q 68.73131 79.8751 64.27625 79.8751 Q 55.68437 79.8751 49.43934 76.05649 Z " fill="black"/>
    <path d="M 97.85 55.1 Q 97.85 56.3 98.85 56.7 Q 100.05 57.2 100.85 56.4 Q 107.45 50.4 107.45 42.8 Q 107.45 40.1 106.3 38.1 Q 105.15 36.1 103.15 36.1 Q 100.95 36.1 99.55 38 Q 98.15 39.9 98.05 42.4 L 97.85 55.1 Z M 100.65 33 Q 104.85 30.9 107.55 30.9 Q 111.35 30.9 113.65 33.9 Q 115.95 36.9 115.95 41.1 Q 115.95 44 115.1 46.35 Q 114.25 48.7 112.45 50.65 Q 110.65 52.6 109.1 53.9 Q 107.55 55.2 105.05 57.05 Q 102.55 58.9 101.25 60 Q 100.75 60.4 99.95 61.5 Q 99.15 62.6 98.4 63.2 Q 97.65 63.800003 96.75 63.800003 Q 95.75 63.800003 95.1 63.1 Q 94.45 62.4 94.45 61.3 L 93.25 0.79999924 Q 94.55 0 95.95 0 Q 97.35 0 98.65 0.79999924 L 98.05 31.4 Q 98.05 32.4 98.85 32.9 Q 99.75 33.5 100.65 33 Z " fill="black"/>
    <path d="M 126.7504 75.10183 L 131.60323 74.38584 L 131.60323 40.97295 L 125.8753 39.540974 L 125.8753 35.24503 L 137.25159 33.81305 L 138.68356 34.847256 L 139.1609 38.029438 L 139.08134 40.57518 Q 141.86575 38.029438 146.6788 35.92124 Q 151.49185 33.81305 155.31046 33.81305 Q 159.6064 33.81305 162.2317 35.24503 Q 164.857 36.67701 166.20943 39.700077 Q 168.75517 37.55211 173.32956 35.682575 Q 177.90393 33.81305 181.88165 33.81305 Q 186.81404 33.81305 189.59845 35.682575 Q 192.38286 37.55211 193.5364 41.490055 Q 194.68994 45.428 194.68994 52.03103 L 194.68994 74.38584 L 200.41786 75.10183 L 200.41786 79 L 181.48389 79 L 181.48389 75.10183 L 186.41626 74.38584 L 186.41626 52.26969 Q 186.41626 47.65553 185.74005 44.9109 Q 185.06384 42.166267 183.1943 40.813843 Q 181.32478 39.461414 177.82439 39.461414 Q 175.19908 39.461414 172.25557 40.614956 Q 169.31206 41.768497 167.24364 43.35959 Q 167.95963 46.46221 167.95963 52.190136 L 167.95963 74.38584 L 173.608 75.10183 L 173.608 79 L 154.3558 79 L 154.3558 75.10183 L 159.6064 74.38584 L 159.6064 52.11058 Q 159.6064 47.33731 159.00975 44.712013 Q 158.41309 42.086716 156.74245 40.774067 Q 155.0718 39.461414 151.65096 39.461414 Q 148.78699 39.461414 145.56503 40.8934 Q 142.34308 42.32538 139.95645 44.234684 L 139.95645 74.38584 L 145.28659 75.10183 L 145.28659 79 L 126.7504 79 L 126.7504 75.10183 Z " fill="black"/>
    <path d="M 206.47 48.02 Q 206.47 48.86 207.17 49.14 Q 208.01 49.49 208.57 48.93 Q 213.19 44.73 213.19 39.41 Q 213.19 37.52 212.385 36.12 Q 211.58 34.72 210.18 34.72 Q 208.64 34.72 207.66 36.05 Q 206.68 37.38 206.61 39.13 L 206.47 48.02 Z M 208.43 32.55 Q 211.37 31.08 213.26 31.08 Q 215.92 31.08 217.53 33.18 Q 219.14 35.28 219.14 38.22 Q 219.14 40.25 218.545 41.895 Q 217.95 43.54 216.69 44.905 Q 215.43 46.27 214.345 47.18 Q 213.26 48.09 211.51 49.385002 Q 209.76 50.68 208.85 51.45 Q 208.5 51.73 207.94 52.5 Q 207.38 53.27 206.855 53.69 Q 206.33 54.11 205.7 54.11 Q 205 54.11 204.545 53.62 Q 204.09 53.13 204.09 52.36 L 203.25 10.010002 Q 204.16 9.450001 205.14 9.450001 Q 206.12 9.450001 207.03 10.010002 L 206.61 31.43 Q 206.61 32.13 207.17 32.48 Q 207.8 32.9 208.43 32.55 Z " fill="black"/>
    <path d="M 240.82756 14.670647 Q 243.59607 16.508354 244.95645 19.706446 Q 246.31683 22.904535 246.31683 26.914082 Q 246.31683 33.214798 243.6438 38.417664 Q 240.97076 43.620525 236.65096 46.890213 Q 232.33115 50.159904 227.51015 50.97136 L 226.4123 48.87112 Q 231.94928 47.057278 235.43378 43 Q 238.91826 38.942722 240.1593 33.548927 Q 238.96599 34.933174 236.91348 35.911697 Q 234.86098 36.890213 232.47435 36.890213 Q 229.18079 36.890213 226.72255 35.4821 Q 224.26431 34.073986 222.92781 31.472553 Q 221.5913 28.871122 221.5913 25.434368 Q 221.5913 22.045347 223.09486 19.181385 Q 224.59845 16.317421 227.41467 14.57518 Q 230.23091 12.832939 234.04953 12.832939 Q 238.05907 12.832939 240.82756 14.670647 Z M 238.05907 32.761337 Q 240.06384 31.544153 240.7321 30.159904 L 240.8753 27.964201 Q 240.8753 22.140812 239.32399 18.704056 Q 237.77267 15.267303 233.7154 15.267303 Q 231.51968 15.267303 229.96838 16.579956 Q 228.41707 17.892601 227.65334 19.99284 Q 226.88962 22.09308 226.88962 24.431982 Q 226.88962 29.34845 228.6796 31.663485 Q 230.46957 33.978523 233.47673 33.978523 Q 236.05429 33.978523 238.05907 32.761337 Z " fill="black"/>
    <line x1="268.25" y1="3" x2="243.25" y2="85.5" stroke="black" stroke-width="5"/>
    <path d="M 281.51254 24.823387 L 274.67084 23.868736 L 274.67084 19.89101 L 317.23248 19.89101 L 318.02805 33.415276 L 312.857 33.415276 L 310.47037 24.584728 L 290.02487 24.027843 L 290.02487 47.098648 L 304.42422 46.859985 L 305.77664 40.25696 L 309.99304 40.25696 L 309.99304 58.87271 L 305.8562 58.87271 L 304.42422 51.951473 L 290.02487 51.633255 L 290.02487 74.30629 L 302.43536 75.10183 L 302.43536 79 L 275.14816 79 L 275.14816 75.10183 L 281.51254 74.30629 L 281.51254 24.823387 Z " fill="black"/>
    <path d="M 342.69 30.36 L 342.69 41.34 Q 342.69 42.059998 343.14 42.510002 Q 343.59 42.96 344.31 42.96 Q 344.58 42.96 344.85 42.87 L 345.57 42.6 Q 345.84 42.510002 346.2 42.510002 Q 346.91998 42.510002 347.46 43.05 Q 348 43.59 348 44.31 L 348 49.71 Q 348 50.879997 346.83 51.33 L 343.77 52.5 Q 342.69 52.95 342.69 53.94 L 342.69 67.08 Q 342.69 67.8 342.195 68.295 Q 341.7 68.79 341.07 68.79 Q 340.35 68.79 339.855 68.295 Q 339.36 67.8 339.36 67.08 L 339.36 56.37 Q 339.36 55.65 338.865 55.199997 Q 338.37 54.75 337.74 54.75 Q 337.38 54.75 337.11 54.84 L 332.97 56.46 Q 331.89 56.82 331.89 57.9 L 331.89 71.03999 Q 331.89 71.759995 331.35 72.255 Q 330.81 72.75 330.18 72.75 Q 329.55 72.75 329.055 72.255 Q 328.56 71.759995 328.56 71.03999 L 328.56 60.33 Q 328.56 59.61 328.065 59.16 Q 327.57 58.71 326.94 58.71 Q 326.67 58.71 326.4 58.8 L 325.68 59.07 Q 325.5 59.16 325.05 59.16 Q 324.33 59.16 323.79 58.62 Q 323.25 58.08 323.25 57.36 L 323.25 51.96 Q 323.25 50.7 324.42 50.25 L 327.48 49.17 Q 328.56 48.9 328.56 47.64 L 328.56 36.66 Q 328.56 35.940002 328.065 35.489998 Q 327.57 35.04 326.94 35.04 Q 326.67 35.04 326.49 35.13 L 325.68 35.4 Q 325.5 35.489998 325.05 35.489998 Q 324.33 35.489998 323.79 34.95 Q 323.25 34.41 323.25 33.690002 L 323.25 28.29 Q 323.25 27.12 324.42 26.67 L 327.57 25.5 Q 328.56 25.05 328.56 24.060001 L 328.56 10.920002 Q 328.56 10.200001 329.055 9.705002 Q 329.55 9.209999 330.18 9.209999 Q 330.81 9.209999 331.35 9.705002 Q 331.89 10.200001 331.89 10.920002 L 331.89 21.630001 Q 331.89 22.35 332.385 22.800001 Q 332.88 23.25 333.6 23.25 Q 333.87 23.25 334.14 23.16 L 338.28 21.54 Q 339.36 21.09 339.36 20.01 L 339.36 6.960003 Q 339.36 6.2400017 339.855 5.7450027 Q 340.35 5.25 341.07 5.25 Q 341.7 5.25 342.195 5.7450027 Q 342.69 6.2400017 342.69 6.960003 L 342.69 17.760002 Q 342.69 18.39 343.14 18.84 Q 343.59 19.29 344.22 19.29 Q 344.49 19.29 344.85 19.2 L 345.57 18.93 Q 345.75 18.84 346.2 18.84 Q 346.91998 18.84 347.46 19.380001 Q 348 19.92 348 20.640001 L 348 26.04 Q 348 27.3 346.83 27.75 L 343.77 28.830002 Q 342.69 29.1 342.69 30.36 Z M 339.36 43.68 L 339.36 32.79 Q 339.36 32.16 338.865 31.665 Q 338.37 31.17 337.74 31.17 Q 337.47 31.17 337.2 31.26 L 332.97 32.79 Q 331.89 33.239998 331.89 34.32 L 331.89 45.21 Q 331.89 45.93 332.34 46.38 Q 332.79 46.829998 333.51 46.829998 Q 333.78 46.829998 334.05 46.739998 L 338.28 45.21 Q 339.36 44.76 339.36 43.68 Z " fill="black"/>
    <path d="M 105.25 217.9 Q 105.25 211.9 111.85 206.35 Q 118.45 200.8 125.35 200.8 Q 128.15 200.8 130.7 201.5 Q 133.25 202.2 135.55 204.7 Q 137.85 207.2 137.85 211.1 Q 137.85 216.6 131.15 222.4 Q 124.45 228.2 117.75 228.2 Q 114.95 228.2 112.4 227.5 Q 109.85 226.8 107.55 224.3 Q 105.25 221.8 105.25 217.9 Z " fill="black"/>
    <path d="M 304.25 217.9 Q 304.25 211.9 310.85 206.35 Q 317.45 200.8 324.35 200.8 Q 327.15 200.8 329.7 201.5 Q 332.25 202.2 334.55 204.7 Q 336.85 207.2 336.85 211.1 Q 336.85 216.6 330.15 222.4 Q 323.45 228.2 316.75 228.2 Q 313.95 228.2 311.4 227.5 Q 308.85 226.8 306.55 224.3 Q 304.25 221.8 304.25 217.9 Z " fill="black"/>
    <path d="M 394.8208 19.413685 L 403.5718 19.413685 L 422.90353 74.30629 L 427.8359 75.10183 L 427.8359 79 L 406.83353 79 L 406.83353 75.10183 L 413.43655 74.30629 L 409.69748 62.53222 L 386.4676 62.53222 L 382.72852 74.30629 L 389.5702 75.10183 L 389.5702 79 L 370.7158 79 L 370.7158 75.10183 L 375.64816 74.30629 L 394.8208 19.413685 Z M 399.83273 32.142403 L 397.84387 25.141605 L 395.93457 32.301514 L 387.89957 57.838505 L 408.18597 57.838505 L 399.83273 32.142403 Z " fill="black"/>
    <path d="M 379.25 217.9 Q 379.25 211.9 385.85 206.35 Q 392.45 200.8 399.35 200.8 Q 402.15 200.8 404.7 201.5 Q 407.25 202.2 409.55 204.7 Q 411.85 207.2 411.85 211.1 Q 411.85 216.6 405.15 222.4 Q 398.45 228.2 391.75 228.2 Q 388.95 228.2 386.4 227.5 Q 383.85 226.8 381.55 224.3 Q 379.25 221.8 379.25 217.9 Z " fill="black"/>
    <path d="M 454.25 217.9 Q 454.25 211.9 460.85 206.35 Q 467.45 200.8 474.35 200.8 Q 477.15 200.8 479.7 201.5 Q 482.25 202.2 484.55 204.7 Q 486.85 207.2 486.85 211.1 Q 486.85 216.6 480.15 222.4 Q 473.45 228.2 466.75 228.2 Q 463.95 228.2 461.4 227.5 Q 458.85 226.8 456.55 224.3 Q 454.25 221.8 454.25 217.9 Z " fill="black"/>
    <path d="M 524.8208 19.413685 L 533.5718 19.413685 L 552.90356 74.30629 L 557.83594 75.10183 L 557.83594 79 L 536.83356 79 L 536.83356 75.10183 L 543.4365 74.30629 L 539.6975 62.53222 L 516.4676 62.53222 L 512.7285 74.30629 L 519.5702 75.10183 L 519.5702 79 L 500.7158 79 L 500.7158 75.10183 L 505.64816 74.30629 L 524.8208 19.413685 Z M 529.83276 32.142403 L 527.8439 25.141605 L 525.9346 32.301514 L 517.89954 57.838505 L 538.186 57.838505 L 529.83276 32.142403 Z " fill="black"/>
    <path d="M 560.2504 75.10183 L 565.1032 74.38584 L 565.1032 40.97295 L 559.3753 39.540974 L 559.3753 35.24503 L 570.7516 33.81305 L 572.1836 34.847256 L 572.6609 38.029438 L 572.58136 40.57518 Q 575.3657 38.029438 580.1788 35.92124 Q 584.9918 33.81305 588.8105 33.81305 Q 593.1064 33.81305 595.7317 35.24503 Q 598.357 36.67701 599.7094 39.700077 Q 602.2552 37.55211 606.8295 35.682575 Q 611.40393 33.81305 615.38165 33.81305 Q 620.314 33.81305 623.09845 35.682575 Q 625.8829 37.55211 627.0364 41.490055 Q 628.18994 45.428 628.18994 52.03103 L 628.18994 74.38584 L 633.91785 75.10183 L 633.91785 79 L 614.9839 79 L 614.9839 75.10183 L 619.91626 74.38584 L 619.91626 52.26969 Q 619.91626 47.65553 619.24005 44.9109 Q 618.56384 42.166267 616.69434 40.813843 Q 614.82477 39.461414 611.3244 39.461414 Q 608.6991 39.461414 605.75555 40.614956 Q 602.8121 41.768497 600.74365 43.35959 Q 601.4596 46.46221 601.4596 52.190136 L 601.4596 74.38584 L 607.108 75.10183 L 607.108 79 L 587.85583 79 L 587.85583 75.10183 L 593.1064 74.38584 L 593.1064 52.11058 Q 593.1064 47.33731 592.50977 44.712013 Q 591.9131 42.086716 590.24243 40.774067 Q 588.5718 39.461414 585.15094 39.461414 Q 582.287 39.461414 579.06506 40.8934 Q 575.8431 42.32538 573.4564 44.234684 L 573.4564 74.38584 L 578.7866 75.10183 L 578.7866 79 L 560.2504 79 L 560.2504 75.10183 Z " fill="black"/>
    <path d="M 529.25 217.9 Q 529.25 211.9 535.85 206.35 Q 542.45 200.8 549.35 200.8 Q 552.15 200.8 554.7 201.5 Q 557.25 202.2 559.55 204.7 Q 561.85 207.2 561.85 211.1 Q 561.85 216.6 555.15 222.4 Q 548.45 228.2 541.75 228.2 Q 538.95 228.2 536.4 227.5 Q 533.85 226.8 531.55 224.3 Q 529.25 221.8 529.25 217.9 Z " fill="black"/>
    <path d="M 622.25 217.9 Q 622.25 211.9 628.85 206.35 Q 635.45 200.8 642.35 200.8 Q 645.15 200.8 647.7 201.5 Q 650.25 202.2 652.55 204.7 Q 654.85 207.2 654.85 211.1 Q 654.85 216.6 648.15 222.4 Q 641.45 228.2 634.75 228.2 Q 631.95 228.2 629.4 227.5 Q 626.85 226.8 624.55 224.3 Q 622.25 221.8 622.25 217.9 Z " fill="black"/>
    <path d="M 671.7625 24.823387 L 665.55725 23.868736 L 665.55725 19.89101 L 675.97894 19.89101 Q 678.4451 19.89101 683.05927 19.572796 Q 687.6734 19.254578 689.9805 19.254578 Q 704.77765 19.254578 711.9773 26.69292 Q 719.177 34.131264 719.177 47.575974 Q 719.177 56.963406 715.4777 64.242645 Q 711.77844 71.52188 705.0959 75.579155 Q 698.41327 79.63644 689.7418 79.63644 Q 687.8325 79.63644 683.2184 79.31822 Q 678.4451 79 676.0585 79 L 665.1595 79 L 665.1595 75.10183 L 671.7625 74.30629 L 671.7625 24.823387 Z M 687.3552 75.18138 L 689.7418 75.18138 Q 695.70844 75.10183 700.28284 72.15831 Q 704.8572 69.2148 707.40295 63.367542 Q 709.94867 57.520287 709.94867 49.167065 Q 709.94867 36.597454 704.4992 30.073986 Q 699.04974 23.550518 688.0712 23.550518 Q 685.7641 23.550518 682.5819 23.868736 Q 681.2295 24.107395 680.1953 24.107395 L 680.1953 74.54495 Q 682.97974 75.18138 687.3552 75.18138 Z " fill="black"/>
    <line x1="746.5" y1="3" x2="721.5" y2="85.5" stroke="black" stroke-width="5"/>
    <path d="M 759.7625 24.823387 L 752.92084 23.868736 L 752.92084 19.89101 L 795.4825 19.89101 L 796.278 33.415276 L 791.107 33.415276 L 788.72034 24.584728 L 768.27484 24.027843 L 768.27484 47.098648 L 782.6742 46.859985 L 784.0267 40.25696 L 788.24304 40.25696 L 788.24304 58.87271 L 784.1062 58.87271 L 782.6742 51.951473 L 768.27484 51.633255 L 768.27484 74.30629 L 780.68536 75.10183 L 780.68536 79 L 753.3982 79 L 753.3982 75.10183 L 759.7625 74.30629 L 759.7625 24.823387 Z " fill="black"/>
    <path d="M 820.94 30.36 L 820.94 41.34 Q 820.94 42.059998 821.39 42.510002 Q 821.84 42.96 822.56 42.96 Q 822.83 42.96 823.1 42.87 L 823.82 42.6 Q 824.09 42.510002 824.45 42.510002 Q 825.17 42.510002 825.71 43.05 Q 826.25 43.59 826.25 44.31 L 826.25 49.71 Q 826.25 50.879997 825.08 51.33 L 822.02 52.5 Q 820.94 52.95 820.94 53.94 L 820.94 67.08 Q 820.94 67.8 820.445 68.295 Q 819.95 68.79 819.32 68.79 Q 818.6 68.79 818.105 68.295 Q 817.61 67.8 817.61 67.08 L 817.61 56.37 Q 817.61 55.65 817.115 55.199997 Q 816.62 54.75 815.99 54.75 Q 815.63 54.75 815.36 54.84 L 811.22 56.46 Q 810.14 56.82 810.14 57.9 L 810.14 71.03999 Q 810.14 71.759995 809.6 72.255 Q 809.06 72.75 808.43 72.75 Q 807.8 72.75 807.305 72.255 Q 806.81 71.759995 806.81 71.03999 L 806.81 60.33 Q 806.81 59.61 806.315 59.16 Q 805.82 58.71 805.19 58.71 Q 804.92 58.71 804.65 58.8 L 803.93 59.07 Q 803.75 59.16 803.3 59.16 Q 802.58 59.16 802.04 58.62 Q 801.5 58.08 801.5 57.36 L 801.5 51.96 Q 801.5 50.7 802.67 50.25 L 805.73 49.17 Q 806.81 48.9 806.81 47.64 L 806.81 36.66 Q 806.81 35.940002 806.315 35.489998 Q 805.82 35.04 805.19 35.04 Q 804.92 35.04 804.74 35.13 L 803.93 35.4 Q 803.75 35.489998 803.3 35.489998 Q 802.58 35.489998 802.04 34.95 Q 801.5 34.41 801.5 33.690002 L 801.5 28.29 Q 801.5 27.12 802.67 26.67 L 805.82 25.5 Q 806.81 25.05 806.81 24.060001 L 806.81 10.920002 Q 806.81 10.200001 807.305 9.705002 Q 807.8 9.209999 808.43 9.209999 Q 809.06 9.209999 809.6 9.705002 Q 810.14 10.200001 810.14 10.920002 L 810.14 21.630001 Q 810.14 22.35 810.635 22.800001 Q 811.13 23.25 811.85 23.25 Q 812.12 23.25 812.39 23.16 L 816.53 21.54 Q 817.61 21.09 817.61 20.01 L 817.61 6.960003 Q 817.61 6.2400017 818.105 5.7450027 Q 818.6 5.25 819.32 5.25 Q 819.95 5.25 820.445 5.7450027 Q 820.94 6.2400017 820.94 6.960003 L 820.94 17.760002 Q 820.94 18.39 821.39 18.84 Q 821.84 19.29 822.47 19.29 Q 822.74 19.29 823.1 19.2 L 823.82 18.93 Q 824 18.84 824.45 18.84 Q 825.17 18.84 825.71 19.380001 Q 826.25 19.92 826.25 20.640001 L 826.25 26.04 Q 826.25 27.3 825.08 27.75 L 822.02 28.830002 Q 820.94 29.1 820.94 30.36 Z M 817.61 43.68 L 817.61 32.79 Q 817.61 32.16 817.115 31.665 Q 816.62 31.17 815.99 31.17 Q 815.72 31.17 815.45 31.26 L 811.22 32.79 Q 810.14 33.239998 810.14 34.32 L 810.14 45.21 Q 810.14 45.93 810.59 46.38 Q 811.04 46.829998 811.76 46.829998 Q 812.03 46.829998 812.3 46.739998 L 816.53 45.21 Q 817.61 44.76 817.61 43.68 Z " fill="black"/>
    <path d="M 697.25 217.9 Q 697.25 211.9 703.85 206.35 Q 710.45 200.8 717.35 200.8 Q 720.15 200.8 722.7 201.5 Q 725.25 202.2 727.55 204.7 Q 729.85 207.2 729.85 211.1 Q 729.85 216.6 723.15 222.4 Q 716.45 228.2 709.75 228.2 Q 706.95 228.2 704.4 227.5 Q 701.85 226.8 699.55 224.3 Q 697.25 221.8 697.25 217.9 Z " fill="black"/>
    <path d="M 772.25 217.9 Q 772.25 211.9 778.85 206.35 Q 785.45 200.8 792.35 200.8 Q 795.15 200.8 797.7 201.5 Q 800.25 202.2 802.55 204.7 Q 804.85 207.2 804.85 211.1 Q 804.85 216.6 798.15 222.4 Q 791.45 228.2 784.75 228.2 Q 781.95 228.2 779.4 227.5 Q 776.85 226.8 774.55 224.3 Q 772.25 221.8 772.25 217.9 Z " fill="black"/>
    <rect x="847.25" y="164.5" width="3.7500002" height="100" fill="black"/>
    <line x1="106.75" y1="218.5" x2="106.75" y2="303.7857" stroke="black" stroke-width="3"/>
    <line x1="305.75" y1="218.5" x2="305.75" y2="303.7857" stroke="black" stroke-width="3"/>
    <path d="M 105.25 303.7857 L 307.25 303.7857 L 307.25 288.7857 L 105.25 288.7857 " fill="black"/>
    <line x1="380.75" y1="218.5" x2="380.75" y2="303.7857" stroke="black" stroke-width="3"/>
    <line x1="455.75" y1="218.5" x2="455.75" y2="303.7857" stroke="black" stroke-width="3"/>
    <path d="M 379.25 303.7857 L 457.25 303.7857 L 457.25 288.7857 L 379.25 288.7857 " fill="black"/>
    <line x1="530.75" y1="218.5" x2="530.75" y2="303.7857" stroke="black" stroke-width="3"/>
    <line x1="623.75" y1="218.5" x2="623.75" y2="303.7857" stroke="black" stroke-width="3"/>
    <path d="M 529.25 303.7857 L 625.25 303.7857 L 625.25 288.7857 L 529.25 288.7857 " fill="black"/>
    <line x1="698.75" y1="218.5" x2="698.75" y2="303.7857" stroke="black" stroke-width="3"/>
    <line x1="773.75" y1="218.5" x2="773.75" y2="303.7857" stroke="black" stroke-width="3"/>
    <path d="M 697.25 303.7857 L 775.25 303.7857 L 775.25 288.7857 L 697.25 288.7857 " fill="black"/>
    <rect x="0" y="0" width="852.25" height="309.1" stroke="black" stroke-width="1" fill="none"/>
</svg>
