<svg xmlns="http://www.w3.org/2000/svg" xmlns:xlink="http://www.w3.org/1999/xlink" viewBox="0 0 501 1047.5">
	<rect x="0.5" y="148" width="10" height="10" stroke="orange" stroke-width="1" fill="none" />
	<rect x="0.5" y="403" width="10" height="10" stroke="orange" stroke-width="1" fill="none" />
	<rect x="0.5" y="556" width="10" height="10" stroke="orange" stroke-width="1" fill="none" />
	<rect x="10.5" y="128" width="32.5" height="25" stroke="lightgray" stroke-width="1" fill="none" />
	<path d="M 10.5 143.9 Q 10.5 137.9 17.1 132.35 Q 23.7 126.8 30.6 126.8 Q 33.4 126.8 35.95 127.5 Q 38.5 128.2 40.800003 130.7 Q 43.100002 133.2 43.100002 137.1 Q 43.100002 142.6 36.4 148.4 Q 29.7 154.2 23 154.2 Q 20.2 154.2 17.65 153.5 Q 15.1 152.8 12.8 150.3 Q 10.5 147.8 10.5 143.9 Z " fill="black" />
	<rect x="10.5" y="153" width="32.5" height="25" stroke="lightgray" stroke-width="1" fill="none" />
	<path d="M 10.5 168.9 Q 10.5 162.9 17.1 157.35 Q 23.7 151.8 30.6 151.8 Q 33.4 151.8 35.95 152.5 Q 38.5 153.2 40.800003 155.7 Q 43.100002 158.2 43.100002 162.1 Q 43.100002 167.6 36.4 173.4 Q 29.7 179.2 23 179.2 Q 20.2 179.2 17.65 178.5 Q 15.1 177.8 12.8 175.3 Q 10.5 172.8 10.5 168.9 Z " fill="black" />
	<rect x="40" y="25.5" width="3" height="115" stroke="lightgray" stroke-width="1" fill="none" />
	<rect x="10.5" y="13" width="50" height="25" stroke="lightgray" stroke-width="1" fill="none" />
	<rect x="10.5" y="165.5" width="3" height="115" stroke="lightgray" stroke-width="1" fill="none" />
	<rect x="10.5" y="268" width="50" height="25" stroke="lightgray" stroke-width="1" fill="none" />
	<rect x="10.5" y="395.5" width="32.5" height="25" stroke="lightgray" stroke-width="1" fill="none" />
	<path d="M 10.5 411.4 Q 10.5 405.4 17.1 399.85 Q 23.7 394.3 30.6 394.3 Q 33.4 394.3 35.95 395 Q 38.5 395.7 40.800003 398.2 Q 43.100002 400.7 43.100002 404.6 Q 43.100002 410.1 36.4 415.9 Q 29.7 421.7 23 421.7 Q 20.2 421.7 17.65 421 Q 15.1 420.3 12.8 417.8 Q 10.5 415.3 10.5 411.4 Z " fill="black" />
	<rect x="40" y="305.5" width="3" height="102.5" stroke="lightgray" stroke-width="1" fill="none" />
	<rect x="10.5" y="293" width="50" height="25" stroke="lightgray" stroke-width="1" fill="none" />
	<rect x="10.5" y="548.5" width="32.5" height="25" stroke="lightgray" stroke-width="1" fill="none" />
	<path d="M 10.5 564.4 Q 10.5 558.4 17.1 552.85 Q 23.7 547.3 30.6 547.3 Q 33.4 547.3 35.95 548 Q 38.5 548.7 40.800003 551.2 Q 43.100002 553.7 43.100002 557.6 Q 43.100002 563.1 36.4 568.9 Q 29.7 574.7 23 574.7 Q 20.2 574.7 17.65 574 Q 15.1 573.3 12.8 570.8 Q 10.5 568.3 10.5 564.4 Z " fill="black" />
	<rect x="40" y="458.5" width="3" height="102.5" stroke="lightgray" stroke-width="1" fill="none" />
	<rect x="10.5" y="446" width="50" height="25" stroke="lightgray" stroke-width="1" fill="none" />
	<rect x="70.5" y="165.5" width="32.5" height="25" stroke="lightgray" stroke-width="1" fill="none" />
	<path d="M 70.5 181.4 Q 70.5 175.4 77.1 169.85 Q 83.7 164.3 90.6 164.3 Q 93.4 164.3 95.95 165 Q 98.5 165.7 100.8 168.2 Q 103.100006 170.7 103.100006 174.6 Q 103.100006 180.1 96.4 185.9 Q 89.7 191.7 83 191.7 Q 80.2 191.7 77.65 191 Q 75.1 190.3 72.8 187.8 Q 70.5 185.3 70.5 181.4 Z " fill="black" />
	<rect x="70.5" y="408" width="32.5" height="25" stroke="lightgray" stroke-width="1" fill="none" />
	<path d="M 70.5 423.9 Q 70.5 417.9 77.1 412.35 Q 83.7 406.8 90.6 406.8 Q 93.4 406.8 95.95 407.5 Q 98.5 408.2 100.8 410.7 Q 103.100006 413.2 103.100006 417.1 Q 103.100006 422.6 96.4 428.4 Q 89.7 434.2 83 434.2 Q 80.2 434.2 77.65 433.5 Q 75.1 432.8 72.8 430.3 Q 70.5 427.8 70.5 423.9 Z " fill="black" />
	<rect x="70.5" y="561" width="32.5" height="25" stroke="lightgray" stroke-width="1" fill="none" />
	<path d="M 70.5 576.9 Q 70.5 570.9 77.1 565.35 Q 83.7 559.8 90.6 559.8 Q 93.4 559.8 95.95 560.5 Q 98.5 561.2 100.8 563.7 Q 103.100006 566.2 103.100006 570.1 Q 103.100006 575.6 96.4 581.4 Q 89.7 587.2 83 587.2 Q 80.2 587.2 77.65 586.5 Q 75.1 585.8 72.8 583.3 Q 70.5 580.8 70.5 576.9 Z " fill="black" />
	<rect x="130.5" y="115.5" width="32.5" height="25" stroke="lightgray" stroke-width="1" fill="none" />
	<path d="M 130.5 131.4 Q 130.5 125.4 137.1 119.85 Q 143.7 114.3 150.6 114.3 Q 153.4 114.3 155.95 115 Q 158.5 115.7 160.8 118.2 Q 163.1 120.7 163.1 124.6 Q 163.1 130.1 156.4 135.9 Q 149.7 141.7 143 141.7 Q 140.2 141.7 137.65 141 Q 135.1 140.3 132.8 137.8 Q 130.5 135.3 130.5 131.4 Z " fill="black" />
	<rect x="130.5" y="178" width="32.5" height="25" stroke="lightgray" stroke-width="1" fill="none" />
	<path d="M 130.5 193.9 Q 130.5 187.9 137.1 182.35 Q 143.7 176.8 150.6 176.8 Q 153.4 176.8 155.95 177.5 Q 158.5 178.2 160.8 180.7 Q 163.1 183.2 163.1 187.1 Q 163.1 192.6 156.4 198.4 Q 149.7 204.2 143 204.2 Q 140.2 204.2 137.65 203.5 Q 135.1 202.8 132.8 200.3 Q 130.5 197.8 130.5 193.9 Z " fill="black" />
	<rect x="130.5" y="190.5" width="3" height="102.5" stroke="lightgray" stroke-width="1" fill="none" />
	<rect x="130.5" y="280.5" width="32.5" height="25" stroke="lightgray" stroke-width="1" fill="none" />
	<rect x="130.5" y="420.5" width="32.5" height="25" stroke="lightgray" stroke-width="1" fill="none" />
	<path d="M 130.5 436.4 Q 130.5 430.4 137.1 424.85 Q 143.7 419.3 150.6 419.3 Q 153.4 419.3 155.95 420 Q 158.5 420.7 160.8 423.2 Q 163.1 425.7 163.1 429.6 Q 163.1 435.1 156.4 440.9 Q 149.7 446.7 143 446.7 Q 140.2 446.7 137.65 446 Q 135.1 445.3 132.8 442.8 Q 130.5 440.3 130.5 436.4 Z " fill="black" />
	<rect x="130.5" y="573.5" width="32.5" height="25" stroke="lightgray" stroke-width="1" fill="none" />
	<path d="M 130.5 589.4 Q 130.5 583.4 137.1 577.85 Q 143.7 572.3 150.6 572.3 Q 153.4 572.3 155.95 573 Q 158.5 573.7 160.8 576.2 Q 163.1 578.7 163.1 582.6 Q 163.1 588.1 156.4 593.9 Q 149.7 599.7 143 599.7 Q 140.2 599.7 137.65 599 Q 135.1 598.3 132.8 595.8 Q 130.5 593.3 130.5 589.4 Z " fill="black" />
	<rect x="190.5" y="103" width="32.5" height="25" stroke="lightgray" stroke-width="1" fill="none" />
	<path d="M 190.5 118.9 Q 190.5 112.9 197.1 107.35 Q 203.7 101.8 210.6 101.8 Q 213.4 101.8 215.95 102.5 Q 218.5 103.2 220.8 105.7 Q 223.1 108.2 223.1 112.1 Q 223.1 117.6 216.4 123.4 Q 209.7 129.2 203 129.2 Q 200.2 129.2 197.65 128.5 Q 195.1 127.8 192.8 125.3 Q 190.5 122.8 190.5 118.9 Z " fill="black" />
	<rect x="220" y="13" width="3" height="102.5" stroke="lightgray" stroke-width="1" fill="none" />
	<rect x="190.5" y="0.5" width="32.5" height="25" stroke="lightgray" stroke-width="1" fill="none" />
	<rect x="190.5" y="433" width="32.5" height="25" stroke="lightgray" stroke-width="1" fill="none" />
	<path d="M 190.5 448.9 Q 190.5 442.9 197.1 437.35 Q 203.7 431.8 210.6 431.8 Q 213.4 431.8 215.95 432.5 Q 218.5 433.2 220.8 435.7 Q 223.1 438.2 223.1 442.1 Q 223.1 447.6 216.4 453.4 Q 209.7 459.2 203 459.2 Q 200.2 459.2 197.65 458.5 Q 195.1 457.8 192.8 455.3 Q 190.5 452.8 190.5 448.9 Z " fill="black" />
	<rect x="220" y="318" width="3" height="127.5" stroke="lightgray" stroke-width="1" fill="none" />
	<rect x="190.5" y="305.5" width="32.5" height="25" stroke="lightgray" stroke-width="1" fill="none" />
	<rect x="190.5" y="586" width="32.5" height="25" stroke="lightgray" stroke-width="1" fill="none" />
	<path d="M 190.5 601.9 Q 190.5 595.9 197.1 590.35 Q 203.7 584.8 210.6 584.8 Q 213.4 584.8 215.95 585.5 Q 218.5 586.2 220.8 588.7 Q 223.1 591.2 223.1 595.1 Q 223.1 600.6 216.4 606.4 Q 209.7 612.2 203 612.2 Q 200.2 612.2 197.65 611.5 Q 195.1 610.8 192.8 608.3 Q 190.5 605.8 190.5 601.9 Z " fill="black" />
	<rect x="220" y="471" width="3" height="127.5" stroke="lightgray" stroke-width="1" fill="none" />
	<rect x="190.5" y="458.5" width="32.5" height="25" stroke="lightgray" stroke-width="1" fill="none" />
	<rect x="250.5" y="103" width="32.5" height="25" stroke="lightgray" stroke-width="1" fill="none" />
	<path d="M 250.5 118.9 Q 250.5 112.9 257.1 107.35 Q 263.7 101.8 270.6 101.8 Q 273.4 101.8 275.95 102.5 Q 278.5 103.2 280.8 105.7 Q 283.1 108.2 283.1 112.1 Q 283.1 117.6 276.4 123.4 Q 269.7 129.2 263 129.2 Q 260.2 129.2 257.65 128.5 Q 255.1 127.8 252.8 125.3 Q 250.5 122.8 250.5 118.9 Z " fill="black" />
	<rect x="250.5" y="115.5" width="3" height="102.5" stroke="lightgray" stroke-width="1" fill="none" />
	<rect x="250.5" y="205.5" width="50" height="25" stroke="lightgray" stroke-width="1" fill="none" />
	<rect x="250.5" y="370.5" width="32.5" height="25" stroke="lightgray" stroke-width="1" fill="none" />
	<path d="M 250.5 386.4 Q 250.5 380.4 257.1 374.85 Q 263.7 369.3 270.6 369.3 Q 273.4 369.3 275.95 370 Q 278.5 370.7 280.8 373.2 Q 283.1 375.7 283.1 379.6 Q 283.1 385.1 276.4 390.9 Q 269.7 396.7 263 396.7 Q 260.2 396.7 257.65 396 Q 255.1 395.3 252.8 392.8 Q 250.5 390.3 250.5 386.4 Z " fill="black" />
	<rect x="250.5" y="383" width="3" height="102.5" stroke="lightgray" stroke-width="1" fill="none" />
	<rect x="250.5" y="473" width="50" height="25" stroke="lightgray" stroke-width="1" fill="none" />
	<rect x="250.5" y="523.5" width="32.5" height="25" stroke="lightgray" stroke-width="1" fill="none" />
	<path d="M 250.5 539.4 Q 250.5 533.4 257.1 527.85 Q 263.7 522.3 270.6 522.3 Q 273.4 522.3 275.95 523 Q 278.5 523.7 280.8 526.2 Q 283.1 528.7 283.1 532.6 Q 283.1 538.1 276.4 543.9 Q 269.7 549.7 263 549.7 Q 260.2 549.7 257.65 549 Q 255.1 548.3 252.8 545.8 Q 250.5 543.3 250.5 539.4 Z " fill="black" />
	<rect x="250.5" y="536" width="3" height="102.5" stroke="lightgray" stroke-width="1" fill="none" />
	<rect x="250.5" y="626" width="50" height="25" stroke="lightgray" stroke-width="1" fill="none" />
	<ellipse cx="315.5" cy="158" rx="5" ry="5" stroke="gray" stroke-width="1" fill="none" />
	<rect x="310.5" y="370.5" width="32.5" height="25" stroke="lightgray" stroke-width="1" fill="none" />
	<path d="M 310.5 386.4 Q 310.5 380.4 317.1 374.85 Q 323.7 369.3 330.6 369.3 Q 333.4 369.3 335.95 370 Q 338.5 370.7 340.8 373.2 Q 343.1 375.7 343.1 379.6 Q 343.1 385.1 336.4 390.9 Q 329.7 396.7 323 396.7 Q 320.2 396.7 317.65 396 Q 315.1 395.3 312.8 392.8 Q 310.5 390.3 310.5 386.4 Z " fill="black" />
	<rect x="310.5" y="523.5" width="32.5" height="25" stroke="lightgray" stroke-width="1" fill="none" />
	<path d="M 310.5 539.4 Q 310.5 533.4 317.1 527.85 Q 323.7 522.3 330.6 522.3 Q 333.4 522.3 335.95 523 Q 338.5 523.7 340.8 526.2 Q 343.1 528.7 343.1 532.6 Q 343.1 538.1 336.4 543.9 Q 329.7 549.7 323 549.7 Q 320.2 549.7 317.65 549 Q 315.1 548.3 312.8 545.8 Q 310.5 543.3 310.5 539.4 Z " fill="black" />
	<rect x="370.5" y="90.5" width="32.5" height="25" stroke="lightgray" stroke-width="1" fill="none" />
	<path d="M 370.5 106.4 Q 370.5 100.4 377.1 94.85 Q 383.7 89.3 390.6 89.3 Q 393.4 89.3 395.95 90 Q 398.5 90.7 400.8 93.2 Q 403.1 95.7 403.1 99.6 Q 403.1 105.1 396.4 110.9 Q 389.7 116.7 383 116.7 Q 380.2 116.7 377.65 116 Q 375.1 115.3 372.8 112.8 Q 370.5 110.3 370.5 106.4 Z " fill="black" />
	<rect x="370.5" y="358" width="32.5" height="25" stroke="lightgray" stroke-width="1" fill="none" />
	<path d="M 370.5 373.9 Q 370.5 367.9 377.1 362.35 Q 383.7 356.8 390.6 356.8 Q 393.4 356.8 395.95 357.5 Q 398.5 358.2 400.8 360.7 Q 403.1 363.2 403.1 367.1 Q 403.1 372.6 396.4 378.4 Q 389.7 384.2 383 384.2 Q 380.2 384.2 377.65 383.5 Q 375.1 382.8 372.8 380.3 Q 370.5 377.8 370.5 373.9 Z " fill="black" />
	<rect x="370.5" y="511" width="32.5" height="25" stroke="lightgray" stroke-width="1" fill="none" />
	<path d="M 370.5 526.9 Q 370.5 520.9 377.1 515.35 Q 383.7 509.8 390.6 509.8 Q 393.4 509.8 395.95 510.5 Q 398.5 511.2 400.8 513.7 Q 403.1 516.2 403.1 520.1 Q 403.1 525.6 396.4 531.4 Q 389.7 537.2 383 537.2 Q 380.2 537.2 377.65 536.5 Q 375.1 535.8 372.8 533.3 Q 370.5 530.8 370.5 526.9 Z " fill="black" />
	<rect x="430.5" y="78" width="32.5" height="25" stroke="lightgray" stroke-width="1" fill="none" />
	<path d="M 430.5 93.9 Q 430.5 87.9 437.1 82.35 Q 443.7 76.8 450.6 76.8 Q 453.4 76.8 455.95 77.5 Q 458.5 78.2 460.8 80.7 Q 463.1 83.2 463.1 87.1 Q 463.1 92.6 456.4 98.4 Q 449.7 104.2 443 104.2 Q 440.2 104.2 437.65 103.5 Q 435.1 102.8 432.8 100.3 Q 430.5 97.8 430.5 93.9 Z " fill="black" />
	<rect x="430.5" y="90.5" width="3" height="115" stroke="lightgray" stroke-width="1" fill="none" />
	<rect x="430.5" y="193" width="32.5" height="25" stroke="lightgray" stroke-width="1" fill="none" />
	<rect x="430.5" y="345.5" width="32.5" height="25" stroke="lightgray" stroke-width="1" fill="none" />
	<path d="M 430.5 361.4 Q 430.5 355.4 437.1 349.85 Q 443.7 344.3 450.6 344.3 Q 453.4 344.3 455.95 345 Q 458.5 345.7 460.8 348.2 Q 463.1 350.7 463.1 354.6 Q 463.1 360.1 456.4 365.9 Q 449.7 371.7 443 371.7 Q 440.2 371.7 437.65 371 Q 435.1 370.3 432.8 367.8 Q 430.5 365.3 430.5 361.4 Z " fill="black" />
	<rect x="430.5" y="358" width="3" height="127.5" stroke="lightgray" stroke-width="1" fill="none" />
	<rect x="430.5" y="473" width="32.5" height="25" stroke="lightgray" stroke-width="1" fill="none" />
	<rect x="430.5" y="498.5" width="32.5" height="25" stroke="lightgray" stroke-width="1" fill="none" />
	<path d="M 430.5 514.4 Q 430.5 508.4 437.1 502.85 Q 443.7 497.3 450.6 497.3 Q 453.4 497.3 455.95 498 Q 458.5 498.7 460.8 501.2 Q 463.1 503.7 463.1 507.6 Q 463.1 513.1 456.4 518.9 Q 449.7 524.7 443 524.7 Q 440.2 524.7 437.65 524 Q 435.1 523.3 432.8 520.8 Q 430.5 518.3 430.5 514.4 Z " fill="black" />
	<rect x="430.5" y="511" width="3" height="127.5" stroke="lightgray" stroke-width="1" fill="none" />
	<rect x="430.5" y="626" width="32.5" height="25" stroke="lightgray" stroke-width="1" fill="none" />
	<rect x="490.5" y="148" width="10" height="10" stroke="orange" stroke-width="1" fill="none" />
	<rect x="490.5" y="403" width="10" height="10" stroke="orange" stroke-width="1" fill="none" />
	<rect x="490.5" y="556" width="10" height="10" stroke="orange" stroke-width="1" fill="none" />
	<line x1="10.5" y1="165.5" x2="10.5" y2="280.5" stroke="red" stroke-width="2" />
	<line x1="130.5" y1="190.5" x2="130.5" y2="293" stroke="red" stroke-width="2" />
	<rect x="65.5" y="148" width="10" height="10" fill="orange" />
	<line x1="70.5" y1="178" x2="70.5" y2="286.75" stroke="red" stroke-width="2" />
	<line x1="10.5" y1="280.5" x2="130.5" y2="293" stroke="blue" stroke-width="2" />
	<line x1="10.5" y1="255.5" x2="70.5" y2="261.75" stroke="red" stroke-width="2" />
	<rect x="70.5" y="178" width="3" height="108.75" fill="black" />
	<line x1="43" y1="25.5" x2="43" y2="140.5" stroke="red" stroke-width="2" />
	<line x1="223" y1="13" x2="223" y2="115.5" stroke="red" stroke-width="2" />
	<rect x="158" y="148" width="10" height="10" fill="orange" />
	<line x1="163" y1="17.166672" x2="163" y2="128" stroke="red" stroke-width="2" />
	<line x1="43" y1="25.5" x2="223" y2="13" stroke="blue" stroke-width="2" />
	<line x1="163" y1="42.16667" x2="223" y2="38" stroke="red" stroke-width="2" />
	<line x1="250.5" y1="115.5" x2="250.5" y2="218" stroke="red" stroke-width="2" />
	<line x1="430.5" y1="90.5" x2="430.5" y2="205.5" stroke="red" stroke-width="2" />
	<rect x="365.5" y="148" width="10" height="10" fill="orange" />
	<line x1="370.5" y1="103" x2="370.5" y2="209.66666" stroke="red" stroke-width="2" />
	<line x1="250.5" y1="218" x2="430.5" y2="205.5" stroke="blue" stroke-width="2" />
	<line x1="370.5" y1="184.66666" x2="430.5" y2="180.5" stroke="red" stroke-width="2" />
	<line x1="43" y1="305.5" x2="43" y2="408" stroke="red" stroke-width="2" />
	<line x1="223" y1="318" x2="223" y2="445.5" stroke="red" stroke-width="2" />
	<rect x="98" y="403" width="10" height="10" fill="orange" />
	<line x1="103" y1="564.6666" x2="103" y2="420.5" stroke="red" stroke-width="2" />
	<rect x="158" y="403" width="10" height="10" fill="orange" />
	<line x1="163" y1="568.8334" x2="163" y2="433" stroke="red" stroke-width="2" />
	<line x1="43" y1="305.5" x2="223" y2="318" stroke="blue" stroke-width="2" />
	<line x1="43" y1="330.5" x2="223" y2="343" stroke="blue" stroke-width="2" />
	<line x1="250.5" y1="383" x2="250.5" y2="485.5" stroke="red" stroke-width="2" />
	<line x1="430.5" y1="358" x2="430.5" y2="485.5" stroke="red" stroke-width="2" />
	<rect x="305.5" y="403" width="10" height="10" fill="orange" />
	<line x1="310.5" y1="383" x2="310.5" y2="740.5" stroke="red" stroke-width="2" />
	<rect x="365.5" y="403" width="10" height="10" fill="orange" />
	<line x1="370.5" y1="370.5" x2="370.5" y2="740.5" stroke="red" stroke-width="2" />
	<line x1="250.5" y1="485.5" x2="430.5" y2="485.5" stroke="blue" stroke-width="2" />
	<line x1="250.5" y1="460.5" x2="430.5" y2="460.5" stroke="blue" stroke-width="2" />
	<line x1="43" y1="458.5" x2="43" y2="561" stroke="red" stroke-width="2" />
	<line x1="223" y1="471" x2="223" y2="598.5" stroke="red" stroke-width="2" />
	<rect x="98" y="556" width="10" height="10" fill="orange" />
	<line x1="103" y1="870.6667" x2="103" y2="573.5" stroke="red" stroke-width="2" />
	<rect x="158" y="556" width="10" height="10" fill="orange" />
	<line x1="163" y1="874.8333" x2="163" y2="586" stroke="red" stroke-width="2" />
	<line x1="43" y1="458.5" x2="223" y2="471" stroke="blue" stroke-width="2" />
	<line x1="43" y1="483.5" x2="223" y2="496" stroke="blue" stroke-width="2" />
	<line x1="250.5" y1="536" x2="250.5" y2="638.5" stroke="red" stroke-width="2" />
	<line x1="430.5" y1="511" x2="430.5" y2="638.5" stroke="red" stroke-width="2" />
	<rect x="305.5" y="556" width="10" height="10" fill="orange" />
	<line x1="310.5" y1="536" x2="310.5" y2="1046.5" stroke="red" stroke-width="2" />
	<rect x="365.5" y="556" width="10" height="10" fill="orange" />
	<line x1="370.5" y1="523.5" x2="370.5" y2="1046.5" stroke="red" stroke-width="2" />
	<line x1="250.5" y1="638.5" x2="430.5" y2="638.5" stroke="blue" stroke-width="2" />
	<line x1="250.5" y1="613.5" x2="430.5" y2="613.5" stroke="blue" stroke-width="2" />
	<rect x="0" y="0" width="501" height="1047.5" stroke="black" stroke-width="1" fill="none" />
</svg>
