<svg xmlns="http://www.w3.org/2000/svg" xmlns:xlink="http://www.w3.org/1999/xlink" viewBox="0 0 776 243.5">
    <rect x="30.500002" y="110.5" width="10" height="10" stroke="orange" stroke-width="1" fill="none"/>
    <rect x="30.500002" y="153" width="32.5" height="25" stroke="lightgray" stroke-width="1" fill="none"/>
    <path d="M 30.500002 168.9 Q 30.500002 162.9 37.100002 157.35 Q 43.7 151.8 50.600002 151.8 Q 53.4 151.8 55.950005 152.5 Q 58.5 153.2 60.800003 155.7 Q 63.100006 158.2 63.100006 162.1 Q 63.100006 167.6 56.4 173.4 Q 49.700005 179.2 43 179.2 Q 40.2 179.2 37.65 178.5 Q 35.100002 177.8 32.800003 175.3 Q 30.500002 172.8 30.500002 168.9 Z " fill="black"/>
    <rect x="0.5" y="128" width="30.000002" height="75" stroke="lightgray" stroke-width="1" fill="none"/>
    <path d="M 22.1 155.9 L 22.1 168.1 Q 22.1 168.9 22.6 169.4 Q 23.1 169.9 23.9 169.9 Q 24.2 169.9 24.5 169.8 L 25.300001 169.5 Q 25.6 169.4 26 169.4 Q 26.800001 169.4 27.4 170 Q 28 170.6 28 171.4 L 28 177.4 Q 28 178.7 26.7 179.2 L 23.300001 180.5 Q 22.1 181 22.1 182.1 L 22.1 196.7 Q 22.1 197.5 21.550001 198.05 Q 21 198.6 20.300001 198.6 Q 19.5 198.6 18.95 198.05 Q 18.4 197.5 18.4 196.7 L 18.4 184.8 Q 18.4 184 17.85 183.5 Q 17.300001 183 16.6 183 Q 16.2 183 15.900001 183.1 L 11.300001 184.9 Q 10.1 185.3 10.1 186.5 L 10.1 201.1 Q 10.1 201.9 9.5 202.45 Q 8.9 203 8.200001 203 Q 7.5 203 6.950001 202.45 Q 6.3999996 201.9 6.3999996 201.1 L 6.3999996 189.2 Q 6.3999996 188.4 5.8500004 187.9 Q 5.300001 187.4 4.6000004 187.4 Q 4.299999 187.4 4 187.5 L 3.2000008 187.8 Q 3 187.9 2.5 187.9 Q 1.7000008 187.9 1.1000004 187.3 Q 0.5 186.7 0.5 185.9 L 0.5 179.9 Q 0.5 178.5 1.7999992 178 L 5.200001 176.8 Q 6.3999996 176.5 6.3999996 175.1 L 6.3999996 162.9 Q 6.3999996 162.1 5.8500004 161.6 Q 5.300001 161.1 4.6000004 161.1 Q 4.299999 161.1 4.1000004 161.2 L 3.2000008 161.5 Q 3 161.6 2.5 161.6 Q 1.7000008 161.6 1.1000004 161 Q 0.5 160.4 0.5 159.6 L 0.5 153.6 Q 0.5 152.3 1.7999992 151.8 L 5.300001 150.5 Q 6.3999996 150 6.3999996 148.9 L 6.3999996 134.3 Q 6.3999996 133.5 6.950001 132.95 Q 7.5 132.4 8.200001 132.4 Q 8.9 132.4 9.5 132.95 Q 10.1 133.5 10.1 134.3 L 10.1 146.2 Q 10.1 147 10.65 147.5 Q 11.199999 148 12 148 Q 12.300001 148 12.6 147.9 L 17.2 146.1 Q 18.4 145.6 18.4 144.4 L 18.4 129.9 Q 18.4 129.1 18.95 128.55 Q 19.5 128 20.300001 128 Q 21 128 21.550001 128.55 Q 22.1 129.1 22.1 129.9 L 22.1 141.9 Q 22.1 142.6 22.6 143.1 Q 23.1 143.6 23.800001 143.6 Q 24.1 143.6 24.5 143.5 L 25.300001 143.2 Q 25.5 143.1 26 143.1 Q 26.800001 143.1 27.4 143.7 Q 28 144.3 28 145.1 L 28 151.1 Q 28 152.5 26.7 153 L 23.300001 154.2 Q 22.1 154.5 22.1 155.9 Z M 18.4 170.7 L 18.4 158.6 Q 18.4 157.9 17.85 157.35 Q 17.300001 156.8 16.6 156.8 Q 16.3 156.8 16 156.9 L 11.300001 158.6 Q 10.1 159.1 10.1 160.3 L 10.1 172.4 Q 10.1 173.2 10.6 173.7 Q 11.1 174.2 11.9 174.2 Q 12.199999 174.2 12.5 174.1 L 17.2 172.4 Q 18.4 171.9 18.4 170.7 Z " fill="black"/>
    <rect x="60" y="38" width="3" height="127.5" stroke="lightgray" stroke-width="1" fill="none"/>
    <rect x="30.500002" y="25.5" width="50" height="25" stroke="lightgray" stroke-width="1" fill="none"/>
    <rect x="105.5" y="103" width="32.5" height="25" stroke="lightgray" stroke-width="1" fill="none"/>
    <path d="M 105.5 118.9 Q 105.5 112.9 112.1 107.35 Q 118.7 101.8 125.6 101.8 Q 128.40001 101.8 130.95 102.5 Q 133.5 103.2 135.8 105.7 Q 138.1 108.2 138.1 112.1 Q 138.1 117.6 131.40001 123.4 Q 124.7 129.2 118 129.2 Q 115.2 129.2 112.65 128.5 Q 110.1 127.8 107.8 125.3 Q 105.5 122.8 105.5 118.9 Z " fill="black"/>
    <rect x="135" y="13" width="3" height="102.5" stroke="lightgray" stroke-width="1" fill="none"/>
    <rect x="105.5" y="0.5" width="32.5" height="25" stroke="lightgray" stroke-width="1" fill="none"/>
    <rect x="180.5" y="53" width="32.5" height="25" stroke="lightgray" stroke-width="1" fill="none"/>
    <path d="M 180.5 68.9 Q 180.5 62.9 187.1 57.35 Q 193.7 51.8 200.6 51.8 Q 203.4 51.8 205.95 52.5 Q 208.5 53.2 210.8 55.7 Q 213.1 58.2 213.1 62.1 Q 213.1 67.6 206.4 73.4 Q 199.7 79.2 193 79.2 Q 190.2 79.2 187.65 78.5 Q 185.1 77.8 182.8 75.3 Q 180.5 72.8 180.5 68.9 Z " fill="black"/>
    <rect x="180.5" y="65.5" width="3" height="140" stroke="lightgray" stroke-width="1" fill="none"/>
    <rect x="180.5" y="193" width="50" height="25" stroke="lightgray" stroke-width="1" fill="none"/>
    <rect x="255.5" y="115.5" width="32.5" height="25" stroke="lightgray" stroke-width="1" fill="none"/>
    <path d="M 255.5 131.4 Q 255.5 125.4 262.1 119.85 Q 268.7 114.3 275.6 114.3 Q 278.4 114.3 280.95 115 Q 283.5 115.7 285.80002 118.2 Q 288.1 120.7 288.1 124.6 Q 288.1 130.1 281.4 135.9 Q 274.7 141.7 268 141.7 Q 265.2 141.7 262.65 141 Q 260.1 140.3 257.80002 137.8 Q 255.5 135.3 255.5 131.4 Z " fill="black"/>
    <rect x="255.5" y="128" width="3" height="102.5" stroke="lightgray" stroke-width="1" fill="none"/>
    <rect x="255.5" y="218" width="32.5" height="25" stroke="lightgray" stroke-width="1" fill="none"/>
    <rect x="330.5" y="153" width="32.5" height="25" stroke="lightgray" stroke-width="1" fill="none"/>
    <path d="M 330.5 168.9 Q 330.5 162.9 337.1 157.35 Q 343.7 151.8 350.6 151.8 Q 353.4 151.8 355.95 152.5 Q 358.5 153.2 360.8 155.7 Q 363.1 158.2 363.1 162.1 Q 363.1 167.6 356.4 173.4 Q 349.7 179.2 343 179.2 Q 340.2 179.2 337.65 178.5 Q 335.1 177.8 332.8 175.3 Q 330.5 172.8 330.5 168.9 Z " fill="black"/>
    <rect x="360" y="50.5" width="3" height="115" stroke="lightgray" stroke-width="1" fill="none"/>
    <rect x="330.5" y="38" width="50" height="25" stroke="lightgray" stroke-width="1" fill="none"/>
    <rect x="390.5" y="140.5" width="32.5" height="25" stroke="lightgray" stroke-width="1" fill="none"/>
    <path d="M 390.5 156.4 Q 390.5 150.4 397.1 144.85 Q 403.7 139.3 410.6 139.3 Q 413.4 139.3 415.95 140 Q 418.5 140.7 420.8 143.2 Q 423.1 145.7 423.1 149.6 Q 423.1 155.1 416.4 160.9 Q 409.7 166.7 403 166.7 Q 400.2 166.7 397.65 166 Q 395.1 165.3 392.8 162.8 Q 390.5 160.3 390.5 156.4 Z " fill="black"/>
    <rect x="450.5" y="165.5" width="32.5" height="25" stroke="lightgray" stroke-width="1" fill="none"/>
    <path d="M 450.5 181.4 Q 450.5 175.4 457.1 169.85 Q 463.7 164.3 470.6 164.3 Q 473.4 164.3 475.95 165 Q 478.5 165.7 480.8 168.2 Q 483.1 170.7 483.1 174.6 Q 483.1 180.1 476.4 185.9 Q 469.7 191.7 463 191.7 Q 460.2 191.7 457.65 191 Q 455.1 190.3 452.8 187.8 Q 450.5 185.3 450.5 181.4 Z " fill="black"/>
    <rect x="450.5" y="140.5" width="32.5" height="25" stroke="lightgray" stroke-width="1" fill="none"/>
    <path d="M 450.5 156.4 Q 450.5 150.4 457.1 144.85 Q 463.7 139.3 470.6 139.3 Q 473.4 139.3 475.95 140 Q 478.5 140.7 480.8 143.2 Q 483.1 145.7 483.1 149.6 Q 483.1 155.1 476.4 160.9 Q 469.7 166.7 463 166.7 Q 460.2 166.7 457.65 166 Q 455.1 165.3 452.8 162.8 Q 450.5 160.3 450.5 156.4 Z " fill="black"/>
    <rect x="510.5" y="115.5" width="32.5" height="25" stroke="lightgray" stroke-width="1" fill="none"/>
    <path d="M 510.5 131.4 Q 510.5 125.4 517.10004 119.85 Q 523.7 114.3 530.60004 114.3 Q 533.4 114.3 535.95 115 Q 538.5 115.7 540.8 118.2 Q 543.1 120.7 543.1 124.6 Q 543.1 130.1 536.4 135.9 Q 529.7 141.7 523 141.7 Q 520.2 141.7 517.65 141 Q 515.10004 140.3 512.8 137.8 Q 510.5 135.3 510.5 131.4 Z " fill="black"/>
    <rect x="540" y="25.5" width="3" height="102.5" stroke="lightgray" stroke-width="1" fill="none"/>
    <rect x="510.5" y="13" width="32.5" height="25" stroke="lightgray" stroke-width="1" fill="none"/>
    <rect x="570.5" y="65.5" width="32.5" height="25" stroke="lightgray" stroke-width="1" fill="none"/>
    <path d="M 570.5 81.4 Q 570.5 75.4 577.1 69.85 Q 583.7 64.3 590.6 64.3 Q 593.4 64.3 595.95 65 Q 598.5 65.7 600.8 68.2 Q 603.1 70.7 603.1 74.6 Q 603.1 80.1 596.4 85.9 Q 589.7 91.7 583 91.7 Q 580.2 91.7 577.65 91 Q 575.1 90.3 572.8 87.8 Q 570.5 85.3 570.5 81.4 Z " fill="black"/>
    <rect x="570.5" y="78" width="3" height="102.5" stroke="lightgray" stroke-width="1" fill="none"/>
    <rect x="570.5" y="168" width="50" height="25" stroke="lightgray" stroke-width="1" fill="none"/>
    <rect x="635.5" y="28" width="32.5" height="25" stroke="lightgray" stroke-width="1" fill="none"/>
    <path d="M 635.5 43.9 Q 635.5 37.9 642.1 32.35 Q 648.7 26.800003 655.6 26.800003 Q 658.4 26.800003 660.95 27.5 Q 663.5 28.199997 665.8 30.699997 Q 668.1 33.199997 668.1 37.1 Q 668.1 42.6 661.4 48.4 Q 654.7 54.2 648 54.2 Q 645.2 54.2 642.65 53.5 Q 640.1 52.8 637.8 50.300003 Q 635.5 47.800003 635.5 43.9 Z " fill="black"/>
    <rect x="635.5" y="53" width="32.5" height="25" stroke="lightgray" stroke-width="1" fill="none"/>
    <path d="M 635.5 68.9 Q 635.5 62.9 642.1 57.35 Q 648.7 51.8 655.6 51.8 Q 658.4 51.8 660.95 52.5 Q 663.5 53.2 665.8 55.7 Q 668.1 58.2 668.1 62.1 Q 668.1 67.6 661.4 73.4 Q 654.7 79.2 648 79.2 Q 645.2 79.2 642.65 78.5 Q 640.1 77.8 637.8 75.3 Q 635.5 72.8 635.5 68.9 Z " fill="black"/>
    <rect x="700.5" y="40.5" width="32.5" height="25" stroke="lightgray" stroke-width="1" fill="none"/>
    <path d="M 700.5 56.4 Q 700.5 50.4 707.1 44.85 Q 713.7 39.300003 720.6 39.300003 Q 723.4 39.300003 725.95 40 Q 728.5 40.699997 730.8 43.199997 Q 733.1 45.699997 733.1 49.6 Q 733.1 55.1 726.4 60.9 Q 719.7 66.7 713 66.7 Q 710.2 66.7 707.65 66 Q 705.1 65.3 702.8 62.8 Q 700.5 60.3 700.5 56.4 Z " fill="black"/>
    <rect x="700.5" y="53" width="3" height="115" stroke="lightgray" stroke-width="1" fill="none"/>
    <rect x="700.5" y="155.5" width="32.5" height="25" stroke="lightgray" stroke-width="1" fill="none"/>
    <rect x="765.5" y="110.5" width="10" height="10" stroke="orange" stroke-width="1" fill="none"/>
    <line x1="63" y1="38" x2="63" y2="165.5" stroke="red" stroke-width="2"/>
    <line x1="138" y1="13" x2="138" y2="115.5" stroke="red" stroke-width="2"/>
    <line x1="63" y1="38" x2="138" y2="13" stroke="blue" stroke-width="2"/>
    <line x1="63" y1="63" x2="138" y2="38" stroke="blue" stroke-width="2"/>
    <line x1="180.5" y1="65.5" x2="180.5" y2="205.5" stroke="red" stroke-width="2"/>
    <line x1="255.5" y1="128" x2="255.5" y2="230.5" stroke="red" stroke-width="2"/>
    <line x1="180.5" y1="205.5" x2="255.5" y2="230.5" stroke="blue" stroke-width="2"/>
    <line x1="180.5" y1="180.5" x2="255.5" y2="205.5" stroke="blue" stroke-width="2"/>
    <line x1="363" y1="50.5" x2="363" y2="165.5" stroke="red" stroke-width="2"/>
    <line x1="543" y1="25.5" x2="543" y2="128" stroke="red" stroke-width="2"/>
    <rect x="418" y="110.5" width="10" height="10" fill="orange"/>
    <line x1="423" y1="42.166664" x2="423" y2="153" stroke="red" stroke-width="2"/>
    <rect x="478" y="110.5" width="10" height="10" fill="orange"/>
    <line x1="483" y1="33.83333" x2="483" y2="153" stroke="red" stroke-width="2"/>
    <line x1="363" y1="50.5" x2="543" y2="25.5" stroke="blue" stroke-width="2"/>
    <line x1="363" y1="75.5" x2="543" y2="50.5" stroke="blue" stroke-width="2"/>
    <line x1="570.5" y1="78" x2="570.5" y2="180.5" stroke="red" stroke-width="2"/>
    <line x1="700.5" y1="53" x2="700.5" y2="168" stroke="red" stroke-width="2"/>
    <rect x="630.5" y="110.5" width="10" height="10" fill="orange"/>
    <line x1="635.5" y1="65.5" x2="635.5" y2="174.25" stroke="red" stroke-width="2"/>
    <line x1="570.5" y1="180.5" x2="700.5" y2="168" stroke="blue" stroke-width="2"/>
    <line x1="570.5" y1="155.5" x2="700.5" y2="143" stroke="blue" stroke-width="2"/>
    <rect x="0" y="0" width="776" height="243.5" stroke="black" stroke-width="1" fill="none"/>
</svg>
