<svg xmlns="http://www.w3.org/2000/svg" xmlns:xlink="http://www.w3.org/1999/xlink" viewBox="0 0 442.5 241.2857">
    <line x1="1.25" y1="50.5" x2="441.25" y2="50.5" stroke="black" stroke-width="2.5"/>
    <line x1="1.25" y1="75.5" x2="441.25" y2="75.5" stroke="black" stroke-width="2.5"/>
    <line x1="1.25" y1="100.5" x2="441.25" y2="100.5" stroke="black" stroke-width="2.5"/>
    <line x1="1.25" y1="125.5" x2="441.25" y2="125.5" stroke="black" stroke-width="2.5"/>
    <line x1="1.25" y1="150.5" x2="441.25" y2="150.5" stroke="black" stroke-width="2.5"/>
    <rect x="1.25" y="0.5" width="10" height="200" stroke="orange" stroke-width="1" fill="none"/>
    <rect x="11.25" y="88" width="32.5" height="25" stroke="red" stroke-width="1" fill="none"/>
    <path d="M 11.25 103.9 Q 11.25 97.9 17.85 92.35 Q 24.45 86.8 31.35 86.8 Q 34.15 86.8 36.7 87.5 Q 39.25 88.2 41.550003 90.7 Q 43.850002 93.2 43.850002 97.1 Q 43.850002 102.6 37.15 108.4 Q 30.45 114.2 23.75 114.2 Q 20.95 114.2 18.4 113.5 Q 15.85 112.8 13.55 110.3 Q 11.25 107.8 11.25 103.9 Z " fill="black"/>
    <rect x="43.75" y="88" width="5" height="25" stroke="red" stroke-width="1" fill="none"/>
    <rect x="11.25" y="138" width="32.5" height="25" stroke="red" stroke-width="1" fill="none"/>
    <path d="M 11.25 153.9 Q 11.25 147.9 17.85 142.35 Q 24.45 136.8 31.35 136.8 Q 34.15 136.8 36.7 137.5 Q 39.25 138.2 41.550003 140.7 Q 43.850002 143.2 43.850002 147.1 Q 43.850002 152.6 37.15 158.4 Q 30.45 164.2 23.75 164.2 Q 20.95 164.2 18.4 163.5 Q 15.85 162.8 13.55 160.3 Q 11.25 157.8 11.25 153.9 Z " fill="black"/>
    <rect x="43.75" y="138" width="5" height="25" stroke="red" stroke-width="1" fill="none"/>
    <rect x="40.75" y="11.214287" width="3" height="89.28571" stroke="red" stroke-width="1" fill="none"/>
    <rect x="11.25" y="150.5" width="3" height="89.285706" stroke="red" stroke-width="1" fill="none"/>
    <rect x="116.25" y="28" width="25" height="70" stroke="red" stroke-width="1" fill="none"/>
    <path d="M 126.75 73.4 Q 127.45 73.4 127.9 72.95 Q 128.35 72.5 128.35 71.9 Q 128.35 71.3 127.95 70.9 L 120.75 62.8 Q 117.75 59.4 117.75 56.5 Q 117.75 54 124.85 47.8 Q 128.55 44.5 128.55 39.5 Q 128.55 35.6 126.05 32.6 L 122.55 28.399994 Q 122.15 27.899994 122.15 27.399994 Q 122.15 25.899994 123.55 25.899994 Q 124.45 25.899994 125.05 26.599998 L 140.05 44.4 Q 141.05 45.6 141.05 46.9 Q 141.05 48 140.25 49.199997 Q 139.45 50.4 138.55 51.25 Q 137.65 52.1 135.9 53.55 Q 134.15 55 133.45 55.7 Q 129.25 59.6 129.25 64.3 Q 129.25 67.9 133.35 72.3 L 141.75 81.4 Q 142.15 81.8 142.15 82.4 Q 142.15 83 141.7 83.45 Q 141.25 83.9 140.75 83.9 Q 140.05 83.9 138.65 82.8 Q 134.95 80 130.75 80 Q 127.85 80 125.7 82.25 Q 123.55 84.5 123.55 87.4 Q 123.55 88.7 123.75 89.75 Q 123.95 90.8 124.5 91.9 Q 125.05 93 125.25 93.4 Q 125.45 93.8 126.35 95.05 Q 127.25 96.3 127.35 96.4 Q 127.65 96.8 127.55 97.3 Q 127.45 97.8 127 98.05 Q 126.55 98.3 126.05 98.2 Q 125.55 98.100006 124.75 97.3 Q 121.35 93.8 118.8 89.45 Q 116.25 85.1 116.25 81.9 Q 116.25 78 119 75.7 Q 121.75 73.4 126.75 73.4 Z " fill="black"/>
    <rect x="116.25" y="138" width="32.5" height="25" stroke="red" stroke-width="1" fill="none"/>
    <path d="M 116.25 153.9 Q 116.25 147.9 122.85 142.35 Q 129.45 136.8 136.35 136.8 Q 139.15 136.8 141.7 137.5 Q 144.25 138.2 146.55 140.7 Q 148.85 143.2 148.85 147.1 Q 148.85 152.6 142.15 158.4 Q 135.45 164.2 128.75 164.2 Q 125.95 164.2 123.4 163.5 Q 120.85 162.8 118.55 160.3 Q 116.25 157.8 116.25 153.9 Z " fill="black"/>
    <rect x="148.75" y="138" width="5" height="25" stroke="red" stroke-width="1" fill="none"/>
    <rect x="116.25" y="150.5" width="3" height="89.285706" stroke="red" stroke-width="1" fill="none"/>
    <rect x="221.25" y="88" width="32.5" height="25" stroke="red" stroke-width="1" fill="none"/>
    <path d="M 221.25 103.9 Q 221.25 97.9 227.85 92.35 Q 234.45 86.8 241.35 86.8 Q 244.15 86.8 246.7 87.5 Q 249.25 88.2 251.55 90.7 Q 253.85 93.2 253.85 97.1 Q 253.85 102.6 247.15 108.4 Q 240.45 114.2 233.75 114.2 Q 230.95 114.2 228.4 113.5 Q 225.85 112.8 223.55 110.3 Q 221.25 107.8 221.25 103.9 Z " fill="black"/>
    <rect x="253.75" y="88" width="5" height="25" stroke="red" stroke-width="1" fill="none"/>
    <rect x="221.25" y="128" width="25" height="70" stroke="red" stroke-width="1" fill="none"/>
    <path d="M 231.75 173.4 Q 232.45 173.4 232.9 172.95 Q 233.35 172.5 233.35 171.9 Q 233.35 171.3 232.95 170.9 L 225.75 162.8 Q 222.75 159.4 222.75 156.5 Q 222.75 154 229.85 147.8 Q 233.55 144.5 233.55 139.5 Q 233.55 135.6 231.05 132.6 L 227.55 128.4 Q 227.15 127.899994 227.15 127.399994 Q 227.15 125.899994 228.55 125.899994 Q 229.45 125.899994 230.05 126.6 L 245.05 144.4 Q 246.05 145.6 246.05 146.9 Q 246.05 148 245.25 149.2 Q 244.45 150.4 243.55 151.25 Q 242.65 152.1 240.9 153.55 Q 239.15 155 238.45 155.7 Q 234.25 159.6 234.25 164.3 Q 234.25 167.9 238.35 172.3 L 246.75 181.4 Q 247.15 181.8 247.15 182.4 Q 247.15 183 246.7 183.45 Q 246.25 183.9 245.75 183.9 Q 245.05 183.9 243.65 182.8 Q 239.95 180 235.75 180 Q 232.85 180 230.7 182.25 Q 228.55 184.5 228.55 187.4 Q 228.55 188.7 228.75 189.75 Q 228.95 190.8 229.5 191.9 Q 230.05 193 230.25 193.4 Q 230.45 193.8 231.35 195.05 Q 232.25 196.3 232.35 196.4 Q 232.65 196.8 232.55 197.3 Q 232.45 197.8 232 198.05 Q 231.55 198.3 231.05 198.2 Q 230.55 198.1 229.75 197.3 Q 226.35 193.8 223.8 189.45 Q 221.25 185.1 221.25 181.9 Q 221.25 178 224 175.7 Q 226.75 173.4 231.75 173.4 Z " fill="black"/>
    <rect x="250.75" y="11.214287" width="3" height="89.28571" stroke="red" stroke-width="1" fill="none"/>
    <rect x="326.25" y="88" width="32.5" height="25" stroke="red" stroke-width="1" fill="none"/>
    <path d="M 326.25 103.9 Q 326.25 97.9 332.85 92.35 Q 339.45 86.8 346.35 86.8 Q 349.15 86.8 351.7 87.5 Q 354.25 88.2 356.55 90.7 Q 358.85 93.2 358.85 97.1 Q 358.85 102.6 352.15 108.4 Q 345.45 114.2 338.75 114.2 Q 335.95 114.2 333.4 113.5 Q 330.85 112.8 328.55 110.3 Q 326.25 107.8 326.25 103.9 Z " fill="black"/>
    <rect x="358.75" y="88" width="5" height="25" stroke="red" stroke-width="1" fill="none"/>
    <rect x="326.25" y="138" width="32.5" height="25" stroke="red" stroke-width="1" fill="none"/>
    <path d="M 326.25 153.9 Q 326.25 147.9 332.85 142.35 Q 339.45 136.8 346.35 136.8 Q 349.15 136.8 351.7 137.5 Q 354.25 138.2 356.55 140.7 Q 358.85 143.2 358.85 147.1 Q 358.85 152.6 352.15 158.4 Q 345.45 164.2 338.75 164.2 Q 335.95 164.2 333.4 163.5 Q 330.85 162.8 328.55 160.3 Q 326.25 157.8 326.25 153.9 Z " fill="black"/>
    <rect x="358.75" y="138" width="5" height="25" stroke="red" stroke-width="1" fill="none"/>
    <rect x="355.75" y="11.214287" width="3" height="89.28571" stroke="red" stroke-width="1" fill="none"/>
    <rect x="326.25" y="150.5" width="3" height="89.285706" stroke="red" stroke-width="1" fill="none"/>
    <rect x="431.25" y="0.5" width="10" height="200" stroke="orange" stroke-width="1" fill="none"/>
    <line x1="42.25" y1="11.214287" x2="42.25" y2="96.5" stroke="black" stroke-width="3"/>
    <line x1="12.75" y1="154.5" x2="12.75" y2="239.7857" stroke="black" stroke-width="3"/>
    <line x1="117.75" y1="154.5" x2="117.75" y2="239.7857" stroke="black" stroke-width="3"/>
    <line x1="252.25" y1="11.214287" x2="252.25" y2="96.5" stroke="black" stroke-width="3"/>
    <line x1="357.25" y1="11.214287" x2="357.25" y2="96.5" stroke="black" stroke-width="3"/>
    <line x1="327.75" y1="154.5" x2="327.75" y2="239.7857" stroke="black" stroke-width="3"/>
    <rect x="0" y="0" width="442.5" height="241.2857" stroke="black" stroke-width="1" fill="none"/>
</svg>
