<svg xmlns="http://www.w3.org/2000/svg" xmlns:xlink="http://www.w3.org/1999/xlink" width="853.75" height="166.98572" viewBox="0 0 853.75 166.98572">
    <defs visibility="hidden"/>
    <line x1="8.75" y1="28.285713" x2="852.5" y2="28.285713" stroke="black" stroke-width="2.5"/>
    <line x1="8.75" y1="53.285713" x2="852.5" y2="53.285713" stroke="black" stroke-width="2.5"/>
    <line x1="8.75" y1="78.28571" x2="852.5" y2="78.28571" stroke="black" stroke-width="2.5"/>
    <line x1="8.75" y1="103.28571" x2="852.5" y2="103.28571" stroke="black" stroke-width="2.5"/>
    <line x1="8.75" y1="128.2857" x2="852.5" y2="128.2857" stroke="black" stroke-width="2.5"/>
    <path d="M 8.75 151.7857 Q 8.75 147.38571 13.55 143.48572 Q 18.35 139.58571 27.35 139.58571 Q 33.45 139.58571 38.45 141.0357 Q 43.45 142.48572 46.95 146.0357 Q 50.45 149.58572 50.45 154.7857 Q 50.45 159.98572 45.9 163.48572 Q 41.350002 166.98572 33.25 166.98572 Q 28.45 166.98572 24.45 166.2857 Q 20.45 165.58572 16.75 163.98572 Q 13.05 162.38571 10.9 159.2857 Q 8.75 156.18571 8.75 151.7857 Z M 27.35 142.2857 Q 18.55 142.2857 18.55 145.38571 Q 18.55 148.88571 23.900002 156.58572 Q 29.25 164.2857 32.85 164.2857 Q 41.45 164.2857 41.45 161.18571 Q 41.45 157.38571 35.9 149.83572 Q 30.35 142.2857 27.35 142.2857 Z " fill="black"/>
    <rect x="0" y="152.0357" width="58.75" height="2.5" fill="black"/>
    <path d="M 148.75 139.2857 Q 148.75 134.88571 153.55 130.98572 Q 158.35 127.08571 167.35 127.08571 Q 173.45 127.08571 178.45 128.5357 Q 183.45 129.98572 186.95 133.5357 Q 190.45 137.08571 190.45 142.2857 Q 190.45 147.48572 185.9 150.98572 Q 181.35 154.48572 173.25 154.48572 Q 168.45 154.48572 164.45 153.7857 Q 160.45 153.08572 156.75 151.48572 Q 153.05 149.88571 150.9 146.7857 Q 148.75 143.68571 148.75 139.2857 Z M 167.35 129.7857 Q 158.55 129.7857 158.55 132.88571 Q 158.55 136.38571 163.9 144.08572 Q 169.25 151.7857 172.85 151.7857 Q 181.45 151.7857 181.45 148.68571 Q 181.45 144.88571 175.9 137.33571 Q 170.35 129.7857 167.35 129.7857 Z " fill="black"/>
    <path d="M 288.75 126.78571 Q 288.75 122.38571 293.55 118.48572 Q 298.35 114.58571 307.35 114.58571 Q 313.45 114.58571 318.45 116.03571 Q 323.45 117.48572 326.95 121.03571 Q 330.45 124.58571 330.45 129.7857 Q 330.45 134.98572 325.9 138.48572 Q 321.35 141.98572 313.25 141.98572 Q 308.45 141.98572 304.45 141.2857 Q 300.45 140.58571 296.75 138.98572 Q 293.05 137.38571 290.9 134.2857 Q 288.75 131.18571 288.75 126.78571 Z M 307.35 117.28571 Q 298.55 117.28571 298.55 120.38571 Q 298.55 123.88571 303.9 131.58571 Q 309.25 139.2857 312.85 139.2857 Q 321.45 139.2857 321.45 136.18571 Q 321.45 132.38571 315.9 124.83571 Q 310.35 117.28571 307.35 117.28571 Z " fill="black"/>
    <path d="M 453.65 105.685715 Q 450.75 105.685715 441.4 112.23572 Q 432.05 118.78571 432.05 121.78571 Q 432.05 123.88571 433.85 124.88571 Q 435.65 125.88571 438.15 125.88571 Q 441.05 125.88571 450.4 119.33571 Q 459.75 112.78571 459.75 109.78571 Q 459.75 107.685715 457.95 106.685715 Q 456.15 105.685715 453.65 105.685715 Z M 428.75 119.58571 Q 428.75 112.38571 434.95 107.23572 Q 441.15 102.08571 449.95 102.08571 Q 452.95 102.08571 455.55 102.685715 Q 458.15 103.28571 460.55 105.685715 Q 462.95 108.08571 462.95 111.98572 Q 462.95 119.185715 456.75 124.33571 Q 450.55 129.48572 441.75 129.48572 Q 438.75 129.48572 436.15 128.88571 Q 433.55 128.2857 431.15 125.88571 Q 428.75 123.48572 428.75 119.58571 Z " fill="black"/>
    <path d="M 593.65 93.185715 Q 590.75 93.185715 581.4 99.73572 Q 572.05 106.28571 572.05 109.28571 Q 572.05 111.38571 573.85 112.38571 Q 575.65 113.38571 578.15 113.38571 Q 581.05 113.38571 590.4 106.83571 Q 599.75 100.28571 599.75 97.28571 Q 599.75 95.185715 597.95 94.185715 Q 596.15 93.185715 593.65 93.185715 Z M 568.75 107.08571 Q 568.75 99.88571 574.95 94.73572 Q 581.15 89.58572 589.95 89.58572 Q 592.95 89.58572 595.55 90.185715 Q 598.15 90.78571 600.55 93.185715 Q 602.95 95.58571 602.95 99.48572 Q 602.95 106.685715 596.75 111.83571 Q 590.55 116.98572 581.75 116.98572 Q 578.75 116.98572 576.15 116.38571 Q 573.55 115.78571 571.15 113.38571 Q 568.75 110.98572 568.75 107.08571 Z " fill="black"/>
    <path d="M 733.65 80.685715 Q 730.75 80.685715 721.4 87.23571 Q 712.05 93.78571 712.05 96.78571 Q 712.05 98.88571 713.85 99.88571 Q 715.65 100.88571 718.15 100.88571 Q 721.05 100.88571 730.4 94.33571 Q 739.75 87.78571 739.75 84.78571 Q 739.75 82.685715 737.95 81.685715 Q 736.15 80.685715 733.65 80.685715 Z M 708.75 94.58571 Q 708.75 87.38571 714.95 82.23571 Q 721.15 77.08572 729.95 77.08572 Q 732.95 77.08572 735.55 77.685715 Q 738.15 78.28571 740.55 80.685715 Q 742.95 83.08572 742.95 86.98571 Q 742.95 94.185715 736.75 99.33571 Q 730.55 104.48572 721.75 104.48572 Q 718.75 104.48572 716.15 103.88571 Q 713.55 103.28571 711.15 100.88571 Q 708.75 98.48572 708.75 94.58571 Z " fill="black"/>
    <rect x="848.75" y="28.285713" width="3.7500002" height="100" fill="black"/>
    <line x1="461.5" y1="26.5" x2="461.5" y2="111.78571" stroke="black" stroke-width="3"/>
    <line x1="601.5" y1="14" x2="601.5" y2="99.28571" stroke="black" stroke-width="3"/>
    <line x1="741.5" y1="1.5" x2="741.5" y2="86.78571" stroke="black" stroke-width="3"/>
    <rect x="0" y="0" width="853.75" height="166.98572" stroke="white" stroke-width="1" fill="none"/>
</svg>
