<svg xmlns="http://www.w3.org/2000/svg" xmlns:xlink="http://www.w3.org/1999/xlink" viewBox="0 0 232.70001 142.13571">
    <line x1="1.35" y1="40.785713" x2="231.35" y2="40.785713" stroke="black" stroke-width="2.7"/>
    <line x1="1.35" y1="65.78571" x2="231.35" y2="65.78571" stroke="black" stroke-width="2.7"/>
    <line x1="1.35" y1="90.78571" x2="231.35" y2="90.78571" stroke="black" stroke-width="2.7"/>
    <line x1="1.35" y1="115.78571" x2="231.35" y2="115.78571" stroke="black" stroke-width="2.7"/>
    <line x1="1.35" y1="140.7857" x2="231.35" y2="140.7857" stroke="black" stroke-width="2.7"/>
    <rect x="1.35" y="85.78571" width="10" height="10" stroke="orange" stroke-width="1" fill="none"/>
    <rect x="11.35" y="103.28571" width="32.5" height="25" stroke="red" stroke-width="1" fill="none"/>
    <path d="M 11.35 119.185715 Q 11.35 113.185715 17.95 107.63571 Q 24.550001 102.08572 31.45 102.08572 Q 34.25 102.08572 36.8 102.78571 Q 39.35 103.48571 41.65 105.98571 Q 43.95 108.48572 43.95 112.38571 Q 43.95 117.88571 37.25 123.685715 Q 30.550001 129.48572 23.85 129.48572 Q 21.050001 129.48572 18.5 128.7857 Q 15.950001 128.08571 13.650001 125.58571 Q 11.35 123.08571 11.35 119.185715 Z " fill="black"/>
    <rect x="11.35" y="78.28571" width="32.5" height="25" stroke="red" stroke-width="1" fill="none"/>
    <path d="M 11.35 94.185715 Q 11.35 88.185715 17.95 82.63571 Q 24.550001 77.08572 31.45 77.08572 Q 34.25 77.08572 36.8 77.78571 Q 39.35 78.48571 41.65 80.98571 Q 43.95 83.48571 43.95 87.38571 Q 43.95 92.88571 37.25 98.685715 Q 30.550001 104.48571 23.85 104.48571 Q 21.050001 104.48571 18.5 103.78571 Q 15.950001 103.08572 13.650001 100.58572 Q 11.35 98.08572 11.35 94.185715 Z " fill="black"/>
    <rect x="43.85" y="1.5" width="35" height="75" stroke="red" stroke-width="1" fill="none"/>
    <rect x="36.35" y="78.28571" width="25" height="25" stroke="red" stroke-width="1" fill="none"/>
    <rect x="36.35" y="78.28571" width="25" height="25" fill="red"/>
    <rect x="36.35" y="103.28571" width="25" height="25" stroke="red" stroke-width="1" fill="none"/>
    <rect x="36.35" y="103.28571" width="25" height="25" fill="green"/>
    <rect x="36.35" y="78.28571" width="25" height="25" stroke="red" stroke-width="1" fill="none"/>
    <rect x="36.35" y="78.28571" width="25" height="25" fill="red"/>
    <rect x="36.35" y="103.28571" width="25" height="25" stroke="red" stroke-width="1" fill="none"/>
    <rect x="36.35" y="103.28571" width="25" height="25" fill="green"/>
    <rect x="40.85" y="1.5" width="3" height="114.28571" stroke="red" stroke-width="1" fill="none"/>
    <rect x="116.35" y="103.28571" width="32.5" height="25" stroke="red" stroke-width="1" fill="none"/>
    <path d="M 116.35 119.185715 Q 116.35 113.185715 122.95 107.63571 Q 129.55 102.08572 136.45001 102.08572 Q 139.25 102.08572 141.8 102.78571 Q 144.35 103.48571 146.65001 105.98571 Q 148.95001 108.48572 148.95001 112.38571 Q 148.95001 117.88571 142.25 123.685715 Q 135.55 129.48572 128.85 129.48572 Q 126.049995 129.48572 123.5 128.7857 Q 120.95 128.08571 118.65 125.58571 Q 116.35 123.08571 116.35 119.185715 Z " fill="black"/>
    <rect x="148.85" y="90.78571" width="32.5" height="25" stroke="red" stroke-width="1" fill="none"/>
    <path d="M 148.85 106.685715 Q 148.85 100.685715 155.45001 95.13571 Q 162.05 89.58572 168.95001 89.58572 Q 171.75 89.58572 174.3 90.28571 Q 176.85 90.98571 179.15001 93.48571 Q 181.45001 95.98571 181.45001 99.88571 Q 181.45001 105.38571 174.75 111.185715 Q 168.05 116.98572 161.35 116.98572 Q 158.55 116.98572 156 116.28571 Q 153.45001 115.58571 151.15001 113.08571 Q 148.85 110.58571 148.85 106.685715 Z " fill="black"/>
    <rect x="148.85" y="14" width="35" height="75" stroke="red" stroke-width="1" fill="none"/>
    <rect x="116.35" y="90.78571" width="25" height="25" stroke="red" stroke-width="1" fill="none"/>
    <rect x="116.35" y="90.78571" width="25" height="25" fill="gray"/>
    <rect x="116.35" y="103.28571" width="25" height="25" stroke="red" stroke-width="1" fill="none"/>
    <rect x="116.35" y="103.28571" width="25" height="25" fill="lime"/>
    <rect x="116.35" y="90.78571" width="25" height="25" stroke="red" stroke-width="1" fill="none"/>
    <rect x="116.35" y="90.78571" width="25" height="25" fill="gray"/>
    <rect x="116.35" y="103.28571" width="25" height="25" stroke="red" stroke-width="1" fill="none"/>
    <rect x="116.35" y="103.28571" width="25" height="25" fill="lime"/>
    <rect x="145.85" y="14" width="3" height="101.78571" stroke="red" stroke-width="1" fill="none"/>
    <rect x="221.35" y="85.78571" width="10" height="10" stroke="orange" stroke-width="1" fill="none"/>
    <line x1="42.35" y1="1.5" x2="42.35" y2="111.78571" stroke="black" stroke-width="3"/>
    <line x1="147.35" y1="14" x2="147.35" y2="111.78571" stroke="black" stroke-width="3"/>
    <rect x="0" y="0" width="232.70001" height="142.13571" stroke="black" stroke-width="1" fill="none"/>
</svg>
