<svg xmlns="http://www.w3.org/2000/svg" xmlns:xlink="http://www.w3.org/1999/xlink" viewBox="0 0 377.5 457.65002">
    <line x1="1.25" y1="50.5" x2="376.25" y2="50.5" stroke="black" stroke-width="2.5"/>
    <line x1="1.25" y1="75.5" x2="376.25" y2="75.5" stroke="black" stroke-width="2.5"/>
    <line x1="1.25" y1="100.5" x2="376.25" y2="100.5" stroke="black" stroke-width="2.5"/>
    <line x1="1.25" y1="125.5" x2="376.25" y2="125.5" stroke="black" stroke-width="2.5"/>
    <line x1="1.25" y1="150.5" x2="376.25" y2="150.5" stroke="black" stroke-width="2.5"/>
    <line x1="1.25" y1="250.5" x2="376.25" y2="250.5" stroke="black" stroke-width="2.5"/>
    <line x1="1.25" y1="275.5" x2="376.25" y2="275.5" stroke="black" stroke-width="2.5"/>
    <line x1="1.25" y1="300.5" x2="376.25" y2="300.5" stroke="black" stroke-width="2.5"/>
    <line x1="1.25" y1="325.5" x2="376.25" y2="325.5" stroke="black" stroke-width="2.5"/>
    <line x1="1.25" y1="350.5" x2="376.25" y2="350.5" stroke="black" stroke-width="2.5"/>
    <rect x="1.25" y="0.5" width="10" height="200" stroke="orange" stroke-width="1" fill="none"/>
    <rect x="1.25" y="200.5" width="10" height="200" stroke="orange" stroke-width="1" fill="none"/>
    <rect x="1.25" y="411" width="10" height="25" stroke="orange" stroke-width="1" fill="none"/>
    <rect x="11.25" y="10.5" width="74" height="186" stroke="orange" stroke-width="1" fill="none"/>
    <path d="M 36.050003 69 Q 33.75 61.7 32.85 56 Q 32.050003 51.199997 32.050003 44.799995 Q 32.050003 42.6 32.15 40.4 Q 32.550003 30.900002 36.050003 22.949997 Q 39.550003 15 46.55 10.799995 Q 47.05 10.5 47.850002 10.5 Q 48.55 10.5 49.05 11 Q 54.65 16.599998 57.65 25.299995 Q 60.65 34 60.65 42.9 Q 60.65 53.199997 56.25 63.1 Q 52.05 73 44.45 80.6 Q 43.850002 81.2 44.05 82.2 L 48.05 98.2 Q 48.350002 99.8 50.05 99.6 Q 51.65 99.4 53.15 99.4 Q 58.95 99.4 63.65 101.7 Q 68.350006 104 71.25 107.7 Q 74.15 111.4 75.700005 115.85 Q 77.25 120.3 77.25 125 Q 77.25 133.6 72.45 140.55 Q 67.65 147.5 60.95 149.7 Q 59.55 150.2 59.850002 151.8 Q 62.350002 163.6 62.45 171.7 Q 62.45 174.8 62.05 177.8 Q 61.25 184.7 56.05 189.9 Q 50.850002 195.1 43.65 195.1 Q 34.85 195.1 28.75 189.8 Q 22.650002 184.5 22.650002 175.9 Q 22.650002 171.5 25.75 168.3 Q 28.85 165.1 33.050003 165.1 Q 37.35 165.1 40.300003 168.15 Q 43.25 171.2 43.25 175.4 Q 43.25 179 40.85 181.7 Q 38.45 184.5 35.050003 184.8 Q 33.85 184.9 33.45 186 Q 33.050003 187.1 34.25 188 Q 37.85 190.8 43.050003 190.8 Q 48.75 190.8 52.9 186.7 Q 57.05 182.6 57.75 177.4 Q 58.25 173.8 58.25 170.2 Q 58.25 162.4 55.850002 152.9 Q 55.45 151.2 53.65 151.4 Q 49.65 151.9 46.25 151.9 Q 31.45 151.9 21.35 142.6 Q 11.25 133.3 11.25 117.3 Q 11.25 112.4 12.4 107.65 Q 13.55 102.9 15 99.45 Q 16.45 96 19.5 91.45 Q 22.55 86.899994 24.400002 84.5 Q 26.25 82.1 30.25 77.35 Q 34.25 72.6 35.75 70.7 Q 36.35 70 36.050003 69 Z M 51.65 114.7 L 58.15 144.2 Q 58.45 145.5 59.95 145.5 Q 60.350002 145.5 60.65 145.4 Q 64.75 143.7 67.45 138.8 Q 70.15 133.9 70.15 129.1 Q 70.15 122.1 66.05 117.3 Q 61.850002 112.4 53.45 112.4 Q 52.75 112.4 52.2 112.95 Q 51.65 113.5 51.65 114.2 Q 51.55 114.5 51.65 114.7 Z M 37.85 86.899994 Q 36.25 88.7 33.1 92.05 Q 29.95 95.4 28.4 97.15 Q 26.85 98.9 24.6 102.1 Q 22.35 105.3 21.25 108 Q 20.150002 110.7 19.3 114.6 Q 18.45 118.5 18.45 122.9 Q 18.45 129 22.2 134.7 Q 25.95 140.4 32.5 144 Q 39.050003 147.6 46.55 147.6 Q 49.25 147.6 52.55 147.3 Q 53.350002 147.2 53.850002 146.55 Q 54.350002 145.9 54.15 145.1 L 47.65 115.2 Q 47.350002 113.8 45.75 113.8 Q 45.45 113.8 45.05 113.9 Q 40.45 115.6 38.550003 118.7 Q 36.65 121.8 36.65 126.5 Q 36.65 132 42.65 136 Q 43.350002 136.5 43.350002 137.5 Q 43.350002 138.3 42.7 139 Q 42.050003 139.7 41.15 139.7 Q 40.65 139.7 40.25 139.5 Q 34.550003 136.5 31.800001 131.35 Q 29.050001 126.2 29.050001 120.5 Q 29.050001 115 33 109.15 Q 36.95 103.3 42.85 101.1 Q 44.350002 100.5 44.05 99 L 41.050003 87.7 Q 40.85 86.6 39.65 86.399994 Q 38.45 86.2 37.85 86.899994 Z M 54.65 28.699997 Q 53.850002 26.099998 51.95 26.099998 Q 51.350002 26.099998 50.850002 26.400002 Q 44.45 30.199997 40.7 37.1 Q 36.95 44 36.95 51.699997 Q 36.95 56.699997 39.050003 64 Q 39.35 65.1 40.550003 65.3 Q 41.550003 65.399994 42.25 64.6 Q 42.550003 64.2 45.100002 61.049995 Q 47.65 57.9 48.45 56.85 Q 49.25 55.799995 51.15 52.85 Q 53.05 49.9 53.8 47.949997 Q 54.55 46 55.25 43.1 Q 55.95 40.199997 55.95 37.299995 Q 55.95 33.1 54.65 28.699997 Z " fill="black"/>
    <rect x="11.25" y="250.5" width="74" height="84" stroke="orange" stroke-width="1" fill="none"/>
    <path d="M 68.25 288 Q 68.25 285.9 69.75 284.4 Q 71.25 282.9 73.350006 282.9 Q 75.450005 282.9 76.950005 284.4 Q 78.450005 285.9 78.450005 288 Q 78.450005 290.1 76.950005 291.6 Q 75.450005 293.1 73.350006 293.1 Q 71.25 293.1 69.75 291.6 Q 68.25 290.1 68.25 288 Z M 68.25 263 Q 68.25 260.9 69.75 259.4 Q 71.25 257.9 73.350006 257.9 Q 75.450005 257.9 76.950005 259.4 Q 78.450005 260.9 78.450005 263 Q 78.450005 265.1 76.950005 266.6 Q 75.450005 268.1 73.350006 268.1 Q 71.25 268.1 69.75 266.6 Q 68.25 265.1 68.25 263 Z M 23.45 263.6 Q 27.95 263.6 30.85 266.5 Q 33.75 269.4 33.75 273.6 Q 33.75 278 30.85 281.1 Q 27.95 284.2 23.75 284.2 Q 19.25 284.2 15.9 281.1 Q 12.55 278 12.55 273.6 Q 12.55 262.8 19.75 256 Q 26.95 249.2 37.65 249.2 Q 49.75 249.2 57.4 256.15 Q 65.05 263.1 65.05 274.3 Q 65.05 309.7 13.65 332.4 Q 12.95 332.7 12.55 332.7 Q 11.25 332.7 11.25 331.4 Q 11.25 330.7 12.55 329.9 Q 20.55 325.2 25.8 321.6 Q 31.050001 318 36.65 312.9 Q 42.25 307.8 45.45 302.65 Q 48.65 297.5 50.75 290.5 Q 52.850002 283.5 52.850002 275.3 Q 52.850002 264.9 48.3 258.6 Q 43.75 252.3 35.85 252.3 Q 31.050001 252.3 27.150002 254.55 Q 23.25 256.8 21.75 260.7 Q 21.35 262 21.85 262.7 Q 22.55 263.6 23.45 263.6 Z " fill="black"/>
    <ellipse cx="16.25" cy="428.5" rx="5" ry="5" stroke="gray" stroke-width="1" fill="none"/>
    <rect x="85.25" y="13" width="60.000004" height="150" stroke="orange" stroke-width="1" fill="none"/>
    <path d="M 106.85 40.9 L 106.85 53.1 Q 106.85 53.9 107.35 54.4 Q 107.85 54.9 108.65 54.9 Q 108.95 54.9 109.25 54.8 L 110.05 54.5 Q 110.35 54.4 110.75 54.4 Q 111.55 54.4 112.15 55 Q 112.75 55.6 112.75 56.4 L 112.75 62.4 Q 112.75 63.7 111.45 64.2 L 108.05 65.5 Q 106.85 66 106.85 67.1 L 106.85 81.7 Q 106.85 82.5 106.3 83.05 Q 105.75 83.600006 105.05 83.600006 Q 104.25 83.600006 103.7 83.05 Q 103.15 82.5 103.15 81.7 L 103.15 69.8 Q 103.15 69 102.6 68.5 Q 102.05 68 101.35 68 Q 100.95 68 100.65 68.1 L 96.05 69.9 Q 94.85 70.3 94.85 71.5 L 94.85 86.100006 Q 94.85 86.9 94.25 87.45 Q 93.65 88 92.95 88 Q 92.25 88 91.7 87.45 Q 91.15 86.9 91.15 86.100006 L 91.15 74.2 Q 91.15 73.4 90.6 72.9 Q 90.05 72.4 89.35 72.4 Q 89.05 72.4 88.75 72.5 L 87.95 72.8 Q 87.75 72.9 87.25 72.9 Q 86.45 72.9 85.85 72.3 Q 85.25 71.7 85.25 70.9 L 85.25 64.9 Q 85.25 63.5 86.55 63 L 89.95 61.8 Q 91.15 61.5 91.15 60.1 L 91.15 47.9 Q 91.15 47.1 90.6 46.6 Q 90.05 46.1 89.35 46.1 Q 89.05 46.1 88.85 46.2 L 87.95 46.5 Q 87.75 46.6 87.25 46.6 Q 86.45 46.6 85.85 46 Q 85.25 45.4 85.25 44.6 L 85.25 38.6 Q 85.25 37.3 86.55 36.8 L 90.05 35.5 Q 91.15 35 91.15 33.9 L 91.15 19.300003 Q 91.15 18.5 91.7 17.949997 Q 92.25 17.399994 92.95 17.399994 Q 93.65 17.399994 94.25 17.949997 Q 94.85 18.5 94.85 19.300003 L 94.85 31.199997 Q 94.85 32 95.4 32.5 Q 95.95 33 96.75 33 Q 97.05 33 97.35 32.9 L 101.95 31.099998 Q 103.15 30.599998 103.15 29.400002 L 103.15 14.899994 Q 103.15 14.099998 103.7 13.550003 Q 104.25 13 105.05 13 Q 105.75 13 106.3 13.550003 Q 106.85 14.099998 106.85 14.899994 L 106.85 26.900002 Q 106.85 27.599998 107.35 28.099998 Q 107.85 28.599998 108.55 28.599998 Q 108.85 28.599998 109.25 28.5 L 110.05 28.199997 Q 110.25 28.099998 110.75 28.099998 Q 111.55 28.099998 112.15 28.699997 Q 112.75 29.300003 112.75 30.099998 L 112.75 36.1 Q 112.75 37.5 111.45 38 L 108.05 39.2 Q 106.85 39.5 106.85 40.9 Z M 103.15 55.7 L 103.15 43.6 Q 103.15 42.9 102.6 42.35 Q 102.05 41.8 101.35 41.8 Q 101.05 41.8 100.75 41.9 L 96.05 43.6 Q 94.85 44.1 94.85 45.3 L 94.85 57.4 Q 94.85 58.2 95.35 58.7 Q 95.85 59.2 96.65 59.2 Q 96.95 59.2 97.25 59.1 L 101.95 57.4 Q 103.15 56.9 103.15 55.7 Z M 136.85 78.4 L 136.85 90.6 Q 136.85 91.4 137.35 91.9 Q 137.85 92.4 138.65 92.4 Q 138.95001 92.4 139.25 92.3 L 140.05 92 Q 140.35 91.9 140.75 91.9 Q 141.55 91.9 142.15 92.5 Q 142.75 93.1 142.75 93.9 L 142.75 99.9 Q 142.75 101.2 141.45001 101.7 L 138.05 103 Q 136.85 103.5 136.85 104.6 L 136.85 119.2 Q 136.85 120 136.3 120.55 Q 135.75 121.100006 135.05 121.100006 Q 134.25 121.100006 133.70001 120.55 Q 133.15 120 133.15 119.2 L 133.15 107.3 Q 133.15 106.5 132.6 106 Q 132.05 105.5 131.35 105.5 Q 130.95 105.5 130.65 105.6 L 126.05 107.4 Q 124.850006 107.8 124.850006 109 L 124.850006 123.600006 Q 124.850006 124.4 124.25 124.95 Q 123.65 125.5 122.95 125.5 Q 122.25 125.5 121.7 124.95 Q 121.15 124.4 121.15 123.600006 L 121.15 111.7 Q 121.15 110.9 120.600006 110.4 Q 120.05 109.9 119.350006 109.9 Q 119.05 109.9 118.75 110 L 117.95 110.3 Q 117.75 110.4 117.25 110.4 Q 116.450005 110.4 115.850006 109.8 Q 115.25 109.2 115.25 108.4 L 115.25 102.4 Q 115.25 101 116.55 100.5 L 119.95 99.3 Q 121.15 99 121.15 97.6 L 121.15 85.4 Q 121.15 84.6 120.600006 84.1 Q 120.05 83.6 119.350006 83.6 Q 119.05 83.6 118.850006 83.7 L 117.95 84 Q 117.75 84.1 117.25 84.1 Q 116.450005 84.1 115.850006 83.5 Q 115.25 82.9 115.25 82.1 L 115.25 76.1 Q 115.25 74.8 116.55 74.3 L 120.05 73 Q 121.15 72.5 121.15 71.4 L 121.15 56.8 Q 121.15 56 121.7 55.45 Q 122.25 54.899998 122.95 54.899998 Q 123.65 54.899998 124.25 55.45 Q 124.850006 56 124.850006 56.8 L 124.850006 68.7 Q 124.850006 69.5 125.4 70 Q 125.95 70.5 126.75 70.5 Q 127.05 70.5 127.350006 70.4 L 131.95001 68.6 Q 133.15 68.1 133.15 66.9 L 133.15 52.399998 Q 133.15 51.6 133.70001 51.05 Q 134.25 50.5 135.05 50.5 Q 135.75 50.5 136.3 51.05 Q 136.85 51.6 136.85 52.399998 L 136.85 64.4 Q 136.85 65.1 137.35 65.6 Q 137.85 66.1 138.55 66.1 Q 138.85 66.1 139.25 66 L 140.05 65.7 Q 140.25 65.6 140.75 65.6 Q 141.55 65.6 142.15 66.2 Q 142.75 66.8 142.75 67.6 L 142.75 73.6 Q 142.75 75 141.45001 75.5 L 138.05 76.7 Q 136.85 77 136.85 78.4 Z M 133.15 93.2 L 133.15 81.1 Q 133.15 80.4 132.6 79.85 Q 132.05 79.3 131.35 79.3 Q 131.05 79.3 130.75 79.4 L 126.05 81.1 Q 124.850006 81.6 124.850006 82.8 L 124.850006 94.9 Q 124.850006 95.7 125.350006 96.2 Q 125.850006 96.7 126.65 96.7 Q 126.95 96.7 127.25 96.6 L 131.95001 94.9 Q 133.15 94.4 133.15 93.2 Z " fill="black"/>
    <rect x="85.25" y="213" width="60.000004" height="150" stroke="orange" stroke-width="1" fill="none"/>
    <path d="M 106.85 240.9 L 106.85 253.1 Q 106.85 253.9 107.35 254.4 Q 107.85 254.9 108.65 254.9 Q 108.95 254.9 109.25 254.8 L 110.05 254.5 Q 110.35 254.4 110.75 254.4 Q 111.55 254.4 112.15 255 Q 112.75 255.6 112.75 256.4 L 112.75 262.4 Q 112.75 263.7 111.45 264.2 L 108.05 265.5 Q 106.85 266 106.85 267.1 L 106.85 281.7 Q 106.85 282.5 106.3 283.05 Q 105.75 283.6 105.05 283.6 Q 104.25 283.6 103.7 283.05 Q 103.15 282.5 103.15 281.7 L 103.15 269.8 Q 103.15 269 102.6 268.5 Q 102.05 268 101.35 268 Q 100.95 268 100.65 268.1 L 96.05 269.9 Q 94.85 270.3 94.85 271.5 L 94.85 286.1 Q 94.85 286.9 94.25 287.45 Q 93.65 288 92.95 288 Q 92.25 288 91.7 287.45 Q 91.15 286.9 91.15 286.1 L 91.15 274.2 Q 91.15 273.4 90.6 272.9 Q 90.05 272.4 89.35 272.4 Q 89.05 272.4 88.75 272.5 L 87.95 272.8 Q 87.75 272.9 87.25 272.9 Q 86.45 272.9 85.85 272.3 Q 85.25 271.7 85.25 270.9 L 85.25 264.9 Q 85.25 263.5 86.55 263 L 89.95 261.8 Q 91.15 261.5 91.15 260.1 L 91.15 247.9 Q 91.15 247.1 90.6 246.6 Q 90.05 246.1 89.35 246.1 Q 89.05 246.1 88.85 246.2 L 87.95 246.5 Q 87.75 246.6 87.25 246.6 Q 86.45 246.6 85.85 246 Q 85.25 245.4 85.25 244.6 L 85.25 238.6 Q 85.25 237.3 86.55 236.8 L 90.05 235.5 Q 91.15 235 91.15 233.9 L 91.15 219.3 Q 91.15 218.5 91.7 217.95 Q 92.25 217.4 92.95 217.4 Q 93.65 217.4 94.25 217.95 Q 94.85 218.5 94.85 219.3 L 94.85 231.2 Q 94.85 232 95.4 232.5 Q 95.95 233 96.75 233 Q 97.05 233 97.35 232.9 L 101.95 231.1 Q 103.15 230.6 103.15 229.4 L 103.15 214.9 Q 103.15 214.1 103.7 213.55 Q 104.25 213 105.05 213 Q 105.75 213 106.3 213.55 Q 106.85 214.1 106.85 214.9 L 106.85 226.9 Q 106.85 227.6 107.35 228.1 Q 107.85 228.6 108.55 228.6 Q 108.85 228.6 109.25 228.5 L 110.05 228.2 Q 110.25 228.1 110.75 228.1 Q 111.55 228.1 112.15 228.7 Q 112.75 229.3 112.75 230.1 L 112.75 236.1 Q 112.75 237.5 111.45 238 L 108.05 239.2 Q 106.85 239.5 106.85 240.9 Z M 103.15 255.7 L 103.15 243.6 Q 103.15 242.9 102.6 242.35 Q 102.05 241.8 101.35 241.8 Q 101.05 241.8 100.75 241.9 L 96.05 243.6 Q 94.85 244.1 94.85 245.3 L 94.85 257.4 Q 94.85 258.2 95.35 258.7 Q 95.85 259.2 96.65 259.2 Q 96.95 259.2 97.25 259.1 L 101.95 257.4 Q 103.15 256.9 103.15 255.7 Z M 136.85 278.4 L 136.85 290.6 Q 136.85 291.4 137.35 291.9 Q 137.85 292.4 138.65 292.4 Q 138.95001 292.4 139.25 292.3 L 140.05 292 Q 140.35 291.9 140.75 291.9 Q 141.55 291.9 142.15 292.5 Q 142.75 293.1 142.75 293.9 L 142.75 299.9 Q 142.75 301.2 141.45001 301.7 L 138.05 303 Q 136.85 303.5 136.85 304.6 L 136.85 319.2 Q 136.85 320 136.3 320.55 Q 135.75 321.1 135.05 321.1 Q 134.25 321.1 133.70001 320.55 Q 133.15 320 133.15 319.2 L 133.15 307.3 Q 133.15 306.5 132.6 306 Q 132.05 305.5 131.35 305.5 Q 130.95 305.5 130.65 305.6 L 126.05 307.4 Q 124.850006 307.8 124.850006 309 L 124.850006 323.6 Q 124.850006 324.4 124.25 324.95 Q 123.65 325.5 122.95 325.5 Q 122.25 325.5 121.7 324.95 Q 121.15 324.4 121.15 323.6 L 121.15 311.7 Q 121.15 310.9 120.600006 310.4 Q 120.05 309.9 119.350006 309.9 Q 119.05 309.9 118.75 310 L 117.95 310.3 Q 117.75 310.4 117.25 310.4 Q 116.450005 310.4 115.850006 309.8 Q 115.25 309.2 115.25 308.4 L 115.25 302.4 Q 115.25 301 116.55 300.5 L 119.95 299.3 Q 121.15 299 121.15 297.6 L 121.15 285.4 Q 121.15 284.6 120.600006 284.1 Q 120.05 283.6 119.350006 283.6 Q 119.05 283.6 118.850006 283.7 L 117.95 284 Q 117.75 284.1 117.25 284.1 Q 116.450005 284.1 115.850006 283.5 Q 115.25 282.9 115.25 282.1 L 115.25 276.1 Q 115.25 274.8 116.55 274.3 L 120.05 273 Q 121.15 272.5 121.15 271.4 L 121.15 256.8 Q 121.15 256 121.7 255.45 Q 122.25 254.9 122.95 254.9 Q 123.65 254.9 124.25 255.45 Q 124.850006 256 124.850006 256.8 L 124.850006 268.7 Q 124.850006 269.5 125.4 270 Q 125.95 270.5 126.75 270.5 Q 127.05 270.5 127.350006 270.4 L 131.95001 268.6 Q 133.15 268.1 133.15 266.9 L 133.15 252.4 Q 133.15 251.6 133.70001 251.05 Q 134.25 250.5 135.05 250.5 Q 135.75 250.5 136.3 251.05 Q 136.85 251.6 136.85 252.4 L 136.85 264.4 Q 136.85 265.1 137.35 265.6 Q 137.85 266.1 138.55 266.1 Q 138.85 266.1 139.25 266 L 140.05 265.7 Q 140.25 265.6 140.75 265.6 Q 141.55 265.6 142.15 266.2 Q 142.75 266.8 142.75 267.6 L 142.75 273.6 Q 142.75 275 141.45001 275.5 L 138.05 276.7 Q 136.85 277 136.85 278.4 Z M 133.15 293.2 L 133.15 281.1 Q 133.15 280.4 132.6 279.85 Q 132.05 279.3 131.35 279.3 Q 131.05 279.3 130.75 279.4 L 126.05 281.1 Q 124.850006 281.6 124.850006 282.8 L 124.850006 294.9 Q 124.850006 295.7 125.350006 296.2 Q 125.850006 296.7 126.65 296.7 Q 126.95 296.7 127.25 296.6 L 131.95001 294.9 Q 133.15 294.4 133.15 293.2 Z " fill="black"/>
    <ellipse cx="90.25" cy="428.5" rx="5" ry="5" stroke="gray" stroke-width="1" fill="none"/>
    <rect x="145.25" y="88" width="32.5" height="25" stroke="red" stroke-width="1" fill="none"/>
    <path d="M 145.25 103.9 Q 145.25 97.9 151.85 92.35 Q 158.45 86.8 165.35 86.8 Q 168.15 86.8 170.7 87.5 Q 173.25 88.2 175.55 90.7 Q 177.85 93.2 177.85 97.1 Q 177.85 102.6 171.15 108.4 Q 164.45 114.2 157.75 114.2 Q 154.95 114.2 152.4 113.5 Q 149.85 112.8 147.55 110.3 Q 145.25 107.8 145.25 103.9 Z " fill="black"/>
    <rect x="177.75" y="88" width="5" height="25" stroke="red" stroke-width="1" fill="none"/>
    <rect x="145.25" y="100.5" width="3" height="89.28571" stroke="red" stroke-width="1" fill="none"/>
    <rect x="145.25" y="288" width="32.5" height="25" stroke="red" stroke-width="1" fill="none"/>
    <path d="M 145.25 303.9 Q 145.25 297.9 151.85 292.35 Q 158.45 286.8 165.35 286.8 Q 168.15 286.8 170.7 287.5 Q 173.25 288.2 175.55 290.7 Q 177.85 293.2 177.85 297.1 Q 177.85 302.6 171.15 308.4 Q 164.45 314.2 157.75 314.2 Q 154.95 314.2 152.4 313.5 Q 149.85 312.8 147.55 310.3 Q 145.25 307.8 145.25 303.9 Z " fill="black"/>
    <rect x="177.75" y="288" width="5" height="25" stroke="red" stroke-width="1" fill="none"/>
    <rect x="145.25" y="300.5" width="3" height="89.28571" stroke="red" stroke-width="1" fill="none"/>
    <rect x="108.72256" y="389.85" width="12.5" height="67.3" stroke="red" stroke-width="1" fill="none"/>
    <rect x="121.22256" y="389.85" width="20.638424" height="67.3" stroke="red" stroke-width="1" fill="none"/>
    <path d="M 130.1963 407.51993 Q 129.19391 407.9018 127.045944 408.42685 Q 124.89797 408.9519 123.56146 409.14282 L 123.08413 406.46982 Q 125.5185 405.94473 128.0722 404.7037 Q 130.6259 403.46265 132.34427 401.98294 L 132.39201 401.98294 L 135.3037 402.46027 L 135.3037 429.3815 L 141.22255 429.8111 L 141.22255 432.15 L 124.03879 432.15 L 124.03879 429.8111 L 130.1963 429.3815 L 130.1963 407.51993 Z " fill="black"/>
    <rect x="141.86098" y="389.85" width="27.225536" height="67.3" stroke="red" stroke-width="1" fill="none"/>
    <path d="M 152.17123 424.44116 Q 155.84665 421.2192 158.0185 417.78244 Q 160.19034 414.3457 160.19034 411.2908 Q 160.19034 408.6655 158.61516 407.1142 Q 157.03998 405.5629 154.12828 405.5629 Q 151.40752 405.5629 149.45047 406.63687 Q 147.49344 407.71085 145.82278 409.28604 L 144.29535 407.13806 Q 145.96599 405.18103 149.06862 403.58197 Q 152.17123 401.98294 155.70346 401.98294 Q 159.04475 401.98294 161.33592 403.2001 Q 163.62709 404.4173 164.72495 406.37433 Q 165.82278 408.3314 165.82278 410.6703 Q 165.82278 415.3958 161.28818 420.38388 Q 156.75357 425.37195 149.9278 429.33377 L 164.72495 428.2359 L 166.39558 424.1309 L 168.82996 424.60822 L 167.5889 432.15 L 144.8204 432.15 L 144.10442 430.14523 Q 148.49582 427.66312 152.17123 424.44116 Z " fill="black"/>
    <rect x="169.08652" y="389.85" width="24.218376" height="67.3" stroke="red" stroke-width="1" fill="none"/>
    <path d="M 174.14618 439.6679 Q 172.80966 439.50082 171.90274 439.26218 L 171.90274 436.5414 Q 173.47792 437.01874 175.67363 437.01874 Q 179.44452 437.01874 182.18915 435.8254 Q 184.93378 434.63208 186.38962 432.5796 Q 187.84546 430.52707 187.84546 428.0927 Q 187.84546 424.8469 185.86456 423.05692 Q 183.88365 421.26694 179.77864 421.2192 L 178.29892 421.60107 Q 176.72375 422.0784 176.77148 422.03067 L 175.96002 419.50082 Q 177.9648 419.11896 179.73091 418.35526 Q 182.69034 417.1142 184.50418 415.0378 Q 186.31802 412.96146 186.31802 410.62256 Q 186.31802 407.9018 184.71898 406.63687 Q 183.11993 405.37195 180.63783 405.37195 Q 178.48985 405.37195 176.50896 406.13568 Q 174.52805 406.8994 173.09607 407.99725 L 171.80728 405.84927 Q 173.1438 404.51276 176.07936 403.24783 Q 179.01492 401.98294 182.06981 401.98294 Q 186.41348 401.98294 189.08652 403.86838 Q 191.75955 405.7538 191.75955 409.62018 Q 191.75955 413.0092 189.08652 415.77768 Q 186.41348 418.54617 182.73807 419.83496 Q 183.2154 419.78723 184.07458 419.78723 Q 186.89081 419.78723 189.03879 420.83734 Q 191.18675 421.88745 192.3562 423.67743 Q 193.52567 425.4674 193.52567 427.71085 Q 193.52567 431.19534 191.42542 433.96384 Q 189.32518 436.73233 185.4827 438.28363 Q 181.64021 439.83496 176.58055 439.83496 Q 175.4827 439.83496 174.14618 439.6679 Z " fill="black"/>
    <rect x="259.25" y="88" width="32.5" height="25" stroke="red" stroke-width="1" fill="none"/>
    <path d="M 259.25 103.9 Q 259.25 97.9 265.85 92.35 Q 272.45 86.8 279.35 86.8 Q 282.15 86.8 284.7 87.5 Q 287.25 88.2 289.55 90.7 Q 291.85 93.2 291.85 97.1 Q 291.85 102.6 285.15 108.4 Q 278.45 114.2 271.75 114.2 Q 268.95 114.2 266.4 113.5 Q 263.85 112.8 261.55 110.3 Q 259.25 107.8 259.25 103.9 Z " fill="black"/>
    <rect x="291.75" y="88" width="5" height="25" stroke="red" stroke-width="1" fill="none"/>
    <rect x="259.25" y="100.5" width="3" height="89.28571" stroke="red" stroke-width="1" fill="none"/>
    <rect x="259.25" y="288" width="32.5" height="25" stroke="red" stroke-width="1" fill="none"/>
    <path d="M 259.25 303.9 Q 259.25 297.9 265.85 292.35 Q 272.45 286.8 279.35 286.8 Q 282.15 286.8 284.7 287.5 Q 287.25 288.2 289.55 290.7 Q 291.85 293.2 291.85 297.1 Q 291.85 302.6 285.15 308.4 Q 278.45 314.2 271.75 314.2 Q 268.95 314.2 266.4 313.5 Q 263.85 312.8 261.55 310.3 Q 259.25 307.8 259.25 303.9 Z " fill="black"/>
    <rect x="291.75" y="288" width="5" height="25" stroke="red" stroke-width="1" fill="none"/>
    <rect x="259.25" y="300.5" width="3" height="89.28571" stroke="red" stroke-width="1" fill="none"/>
    <rect x="193.48628" y="389.85" width="12.5" height="67.3" stroke="red" stroke-width="1" fill="none"/>
    <rect x="205.98628" y="389.85" width="24.457039" height="67.3" stroke="red" stroke-width="1" fill="none"/>
    <path d="M 211.06981 428.90417 Q 208.03879 425.1333 208.03879 418.83258 Q 208.03879 414.67984 209.61397 411.52948 Q 211.18915 408.37912 214.02924 406.66074 Q 216.86934 404.94235 220.49702 404.94235 Q 224.93616 404.94235 227.3944 407.4006 Q 229.85263 409.85883 229.99582 414.44116 Q 229.99582 417.35284 229.6617 418.8803 L 213.24165 418.8803 Q 213.33711 423.60583 215.43736 426.49368 Q 217.5376 429.3815 221.40395 429.3815 Q 223.31325 429.3815 225.38962 428.68936 Q 227.46599 427.99725 228.61157 427.0426 L 229.5185 429.14282 Q 228.13425 430.57483 225.41348 431.62494 Q 222.69272 432.67505 219.8765 432.67505 Q 214.10085 432.67505 211.06981 428.90417 Z M 224.74522 416.35046 Q 224.88843 415.34808 224.88843 414.29797 Q 224.8407 411.19534 223.57578 409.40536 Q 222.31087 407.6154 219.5901 407.6154 Q 216.82161 407.6154 215.17482 409.62018 Q 213.52805 411.62494 213.28938 416.35046 L 224.74522 416.35046 Z " fill="black"/>
    <rect x="230.44333" y="389.85" width="15.387827" height="67.3" stroke="red" stroke-width="1" fill="none"/>
    <path d="M 236.07579 396.5414 L 232.20944 396.01636 L 232.20944 393.96384 L 239.89441 393.05692 L 239.98987 393.05692 L 241.04 393.77292 L 241.04 429.42923 L 245.09726 429.8111 L 245.09726 432.15 L 232.20944 432.15 L 232.20944 429.8111 L 236.07579 429.3815 L 236.07579 396.5414 Z " fill="black"/>
    <rect x="245.83115" y="389.85" width="24.457039" height="67.3" stroke="red" stroke-width="1" fill="none"/>
    <path d="M 250.91467 428.90417 Q 247.88365 425.1333 247.88365 418.83258 Q 247.88365 414.67984 249.45883 411.52948 Q 251.03401 408.37912 253.8741 406.66074 Q 256.7142 404.94235 260.3419 404.94235 Q 264.78104 404.94235 267.23926 407.4006 Q 269.69748 409.85883 269.8407 414.44116 Q 269.8407 417.35284 269.50656 418.8803 L 253.08652 418.8803 Q 253.18198 423.60583 255.28223 426.49368 Q 257.38245 429.3815 261.2488 429.3815 Q 263.1581 429.3815 265.2345 428.68936 Q 267.31085 427.99725 268.45645 427.0426 L 269.36337 429.14282 Q 267.97913 430.57483 265.25836 431.62494 Q 262.5376 432.67505 259.72137 432.67505 Q 253.94571 432.67505 250.91467 428.90417 Z M 264.5901 416.35046 Q 264.7333 415.34808 264.7333 414.29797 Q 264.68555 411.19534 263.42065 409.40536 Q 262.15573 407.6154 259.43497 407.6154 Q 256.66647 407.6154 255.01968 409.62018 Q 253.37291 411.62494 253.13425 416.35046 L 264.5901 416.35046 Z " fill="black"/>
    <rect x="270.28818" y="389.85" width="15.149163" height="67.3" stroke="red" stroke-width="1" fill="none"/>
    <path d="M 275.77744 400.02588 Q 275.0137 399.1667 275.0137 397.8302 Q 275.0137 396.30273 275.9445 395.30035 Q 276.87527 394.29797 278.4982 394.29797 Q 280.12112 394.29797 280.88483 395.15717 Q 281.64856 396.01636 281.64856 397.35284 Q 281.64856 398.97577 280.71777 399.93042 Q 279.787 400.88507 278.11633 400.88507 L 278.0686 400.88507 Q 276.54117 400.88507 275.77744 400.02588 Z M 276.1593 409.33377 L 272.53162 408.47458 L 272.53162 405.94473 L 279.93018 405.0378 L 280.02563 405.0378 L 281.1235 405.897 L 281.1235 429.42923 L 284.9421 429.8111 L 284.9421 432.15 L 272.29294 432.15 L 272.29294 429.8111 L 276.1593 429.3815 L 276.1593 409.33377 Z " fill="black"/>
    <rect x="285.43735" y="389.85" width="21.83174" height="67.3" stroke="red" stroke-width="1" fill="none"/>
    <path d="M 292.02444 428.3314 Q 292.5018 429.04736 294.0531 429.62015 Q 295.6044 430.19296 297.32278 430.19296 Q 300.04355 430.19296 301.33234 429.14282 Q 302.62112 428.0927 302.62112 426.23114 Q 302.62112 424.94235 301.80966 423.9877 Q 300.9982 423.03305 299.54236 422.29318 Q 298.08652 421.55334 295.36575 420.5032 Q 291.69034 419.11896 289.99582 417.1858 Q 288.3013 415.25262 288.3013 412.10226 Q 288.3013 410.002 289.56622 408.42685 Q 290.83115 406.85165 293.05072 405.9686 Q 295.2703 405.08557 297.99106 405.08557 Q 300.18674 405.08557 301.83353 405.41968 Q 303.48032 405.7538 304.4827 406.08795 Q 305.48508 406.42206 305.8192 406.51755 L 305.8192 412.4364 L 302.9075 412.4364 L 301.95285 408.90417 Q 301.66647 408.3314 300.4254 407.92566 Q 299.18436 407.51993 297.65692 407.51993 Q 295.50894 407.51993 294.1963 408.47458 Q 292.88364 409.42923 292.88364 411.05215 Q 292.88364 412.48413 293.57578 413.41492 Q 294.26788 414.3457 295.31802 414.9185 Q 296.36813 415.49127 298.18198 416.255 L 299.13663 416.63687 Q 301.80966 417.68698 303.48032 418.64163 Q 305.15094 419.59628 306.27267 421.1476 Q 307.39438 422.6989 307.39438 424.94235 Q 307.39438 428.47458 304.64975 430.57483 Q 301.90512 432.67505 297.13187 432.67505 Q 294.79297 432.67505 292.23926 432.03067 Q 289.68555 431.38626 288.06265 430.71802 L 288.06265 424.60822 L 291.16528 424.60822 L 292.02444 428.3314 Z " fill="black"/>
    <rect x="307.2691" y="389.85" width="27.177803" height="67.3" stroke="red" stroke-width="1" fill="none"/>
    <path d="M 311.1832 411.38626 Q 312.94928 408.2359 315.83713 406.58914 Q 318.72495 404.94235 322.0185 404.94235 Q 328.03284 404.94235 331.06384 408.761 Q 334.09488 412.5796 334.09488 418.78485 Q 334.09488 423.1285 332.32877 426.27887 Q 330.56265 429.42923 327.67484 431.05215 Q 324.787 432.67505 321.49344 432.67505 Q 315.47913 432.67505 312.4481 428.85645 Q 309.41708 425.0378 309.41708 418.83258 Q 309.41708 414.53662 311.1832 411.38626 Z M 326.8395 427.23352 Q 328.60562 424.51276 328.60562 419.1667 Q 328.60562 413.86838 326.9827 410.76575 Q 325.3598 407.66312 321.77985 407.66312 Q 318.4863 407.66312 316.69632 410.38388 Q 314.90634 413.10464 314.90634 418.4507 Q 314.90634 423.74905 316.57697 426.85165 Q 318.24762 429.95428 321.77985 429.95428 Q 325.0734 429.95428 326.8395 427.23352 Z " fill="black"/>
    <rect x="334.4469" y="389.85" width="31.330547" height="67.3" stroke="red" stroke-width="1" fill="none"/>
    <path d="M 339.45883 409.33377 L 336.02206 408.47458 L 336.02206 405.897 L 342.84784 405.0378 L 342.99106 405.0378 L 343.99344 405.897 L 343.99344 407.9018 L 343.9457 409.04736 Q 345.6641 407.51993 348.48032 406.27887 Q 351.29654 405.0378 353.8741 405.0378 Q 356.88126 405.0378 358.52805 406.1834 Q 360.17484 407.32898 360.84308 409.69177 Q 361.51135 412.05453 361.51135 416.0641 L 361.51135 429.42923 L 364.85263 429.76337 L 364.85263 432.15 L 353.53998 432.15 L 353.53998 429.8111 L 356.4994 429.42923 L 356.4994 416.01636 Q 356.4994 413.2001 356.11755 411.60107 Q 355.7357 410.002 354.68555 409.21445 Q 353.63544 408.42685 351.63068 408.42685 Q 349.9123 408.42685 347.95526 409.28604 Q 345.9982 410.14523 344.47076 411.2908 L 344.47076 429.3815 L 347.71658 429.8111 L 347.71658 432.15 L 336.45166 432.15 L 336.45166 429.8111 L 339.45883 429.3815 L 339.45883 409.33377 Z " fill="black"/>
    <rect x="366.25" y="0.5" width="10" height="200" stroke="orange" stroke-width="1" fill="none"/>
    <rect x="366.25" y="200.5" width="10" height="200" stroke="orange" stroke-width="1" fill="none"/>
    <rect x="366.25" y="411" width="10" height="25" stroke="orange" stroke-width="1" fill="none"/>
    <line x1="146.75" y1="104.5" x2="146.75" y2="189.7857" stroke="black" stroke-width="3"/>
    <line x1="260.75" y1="104.5" x2="260.75" y2="189.7857" stroke="black" stroke-width="3"/>
    <line x1="146.75" y1="304.5" x2="146.75" y2="389.7857" stroke="black" stroke-width="3"/>
    <line x1="260.75" y1="304.5" x2="260.75" y2="389.7857" stroke="black" stroke-width="3"/>
    <rect x="0" y="0" width="377.5" height="457.65002" stroke="black" stroke-width="1" fill="none"/>
</svg>
