<svg xmlns="http://www.w3.org/2000/svg" xmlns:xlink="http://www.w3.org/1999/xlink" width="959.25" height="204.25" viewBox="0 0 959.25 204.25">
    <line x1="1.25" y1="50.5" x2="958" y2="50.5" stroke="black" stroke-width="2.5"/>
    <line x1="1.25" y1="75.5" x2="958" y2="75.5" stroke="black" stroke-width="2.5"/>
    <line x1="1.25" y1="100.5" x2="958" y2="100.5" stroke="black" stroke-width="2.5"/>
    <line x1="1.25" y1="125.5" x2="958" y2="125.5" stroke="black" stroke-width="2.5"/>
    <line x1="1.25" y1="150.5" x2="958" y2="150.5" stroke="black" stroke-width="2.5"/>
    <rect x="1.25" y="10.5" width="74" height="186" stroke="orange" stroke-width="1" fill="none"/>
    <path d="M 26.050001 69 Q 23.75 61.7 22.85 56 Q 22.050001 51.199997 22.050001 44.799995 Q 22.050001 42.6 22.15 40.4 Q 22.550001 30.900002 26.050001 22.949997 Q 29.550001 15 36.55 10.799995 Q 37.05 10.5 37.850002 10.5 Q 38.55 10.5 39.05 11 Q 44.65 16.599998 47.65 25.299995 Q 50.65 34 50.65 42.9 Q 50.65 53.199997 46.25 63.1 Q 42.05 73 34.45 80.6 Q 33.850002 81.2 34.05 82.2 L 38.05 98.2 Q 38.350002 99.8 40.05 99.6 Q 41.65 99.4 43.15 99.4 Q 48.95 99.4 53.65 101.7 Q 58.350002 104 61.25 107.7 Q 64.15 111.4 65.700005 115.85 Q 67.25 120.3 67.25 125 Q 67.25 133.6 62.45 140.55 Q 57.65 147.5 50.95 149.7 Q 49.55 150.2 49.850002 151.8 Q 52.350002 163.6 52.45 171.7 Q 52.45 174.8 52.05 177.8 Q 51.25 184.7 46.05 189.9 Q 40.850002 195.1 33.65 195.1 Q 24.85 195.1 18.75 189.8 Q 12.650001 184.5 12.650001 175.9 Q 12.650001 171.5 15.75 168.3 Q 18.85 165.1 23.050001 165.1 Q 27.35 165.1 30.300001 168.15 Q 33.25 171.2 33.25 175.4 Q 33.25 179 30.85 181.7 Q 28.45 184.5 25.050001 184.8 Q 23.85 184.9 23.45 186 Q 23.050001 187.1 24.25 188 Q 27.85 190.8 33.050003 190.8 Q 38.75 190.8 42.9 186.7 Q 47.05 182.6 47.75 177.4 Q 48.25 173.8 48.25 170.2 Q 48.25 162.4 45.850002 152.9 Q 45.45 151.2 43.65 151.4 Q 39.65 151.9 36.25 151.9 Q 21.45 151.9 11.35 142.6 Q 1.25 133.3 1.25 117.3 Q 1.25 112.4 2.4 107.65 Q 3.55 102.9 5 99.45 Q 6.4500003 96 9.5 91.45 Q 12.55 86.899994 14.400001 84.5 Q 16.25 82.1 20.25 77.35 Q 24.25 72.6 25.75 70.7 Q 26.35 70 26.050001 69 Z M 41.65 114.7 L 48.15 144.2 Q 48.45 145.5 49.95 145.5 Q 50.350002 145.5 50.65 145.4 Q 54.75 143.7 57.45 138.8 Q 60.15 133.9 60.15 129.1 Q 60.15 122.1 56.05 117.3 Q 51.850002 112.4 43.45 112.4 Q 42.75 112.4 42.2 112.95 Q 41.65 113.5 41.65 114.2 Q 41.55 114.5 41.65 114.7 Z M 27.85 86.899994 Q 26.25 88.7 23.1 92.05 Q 19.95 95.4 18.4 97.15 Q 16.85 98.9 14.6 102.1 Q 12.35 105.3 11.25 108 Q 10.150001 110.7 9.3 114.6 Q 8.450001 118.5 8.450001 122.9 Q 8.450001 129 12.2 134.7 Q 15.95 140.4 22.5 144 Q 29.050001 147.6 36.55 147.6 Q 39.25 147.6 42.55 147.3 Q 43.350002 147.2 43.850002 146.55 Q 44.350002 145.9 44.15 145.1 L 37.65 115.2 Q 37.350002 113.8 35.75 113.8 Q 35.45 113.8 35.05 113.9 Q 30.45 115.6 28.550001 118.7 Q 26.65 121.8 26.65 126.5 Q 26.65 132 32.65 136 Q 33.350002 136.5 33.350002 137.5 Q 33.350002 138.3 32.7 139 Q 32.050003 139.7 31.15 139.7 Q 30.65 139.7 30.25 139.5 Q 24.550001 136.5 21.800001 131.35 Q 19.050001 126.2 19.050001 120.5 Q 19.050001 115 23 109.15 Q 26.95 103.3 32.85 101.1 Q 34.350002 100.5 34.05 99 L 31.050001 87.7 Q 30.85 86.6 29.65 86.399994 Q 28.45 86.2 27.85 86.899994 Z M 44.65 28.699997 Q 43.850002 26.099998 41.95 26.099998 Q 41.350002 26.099998 40.850002 26.400002 Q 34.45 30.199997 30.7 37.1 Q 26.95 44 26.95 51.699997 Q 26.95 56.699997 29.050001 64 Q 29.35 65.1 30.550001 65.3 Q 31.550001 65.399994 32.25 64.6 Q 32.550003 64.2 35.100002 61.049995 Q 37.65 57.9 38.45 56.85 Q 39.25 55.799995 41.15 52.85 Q 43.05 49.9 43.8 47.949997 Q 44.55 46 45.25 43.1 Q 45.95 40.199997 45.95 37.299995 Q 45.95 33.1 44.65 28.699997 Z " fill="black"/>
    <rect x="75.25" y="0.5" width="30" height="200" stroke="orange" stroke-width="1" fill="none"/>
    <path d="M 114.25 178.9 Q 114.25 172.9 120.85 167.35 Q 127.45 161.8 134.35 161.8 Q 137.15 161.8 139.7 162.5 Q 142.25 163.2 144.55 165.7 Q 146.85 168.2 146.85 172.1 Q 146.85 177.6 140.15 183.4 Q 133.45 189.2 126.75 189.2 Q 123.95 189.2 121.4 188.5 Q 118.85 187.8 116.55 185.3 Q 114.25 182.8 114.25 178.9 Z " fill="black"/>
    <rect x="105.5" y="174.25" width="50" height="2.5" fill="black"/>
    <path d="M 219.25 166.4 Q 219.25 160.4 225.85 154.85 Q 232.45 149.3 239.35 149.3 Q 242.15 149.3 244.7 150 Q 247.25 150.7 249.55 153.2 Q 251.85 155.7 251.85 159.6 Q 251.85 165.1 245.15 170.9 Q 238.45 176.7 231.75 176.7 Q 228.95 176.7 226.4 176 Q 223.85 175.3 221.55 172.8 Q 219.25 170.3 219.25 166.4 Z " fill="black"/>
    <path d="M 324.25 153.9 Q 324.25 147.9 330.85 142.35 Q 337.45 136.8 344.35 136.8 Q 347.15 136.8 349.7 137.5 Q 352.25 138.2 354.55 140.7 Q 356.85 143.2 356.85 147.1 Q 356.85 152.6 350.15 158.4 Q 343.45 164.2 336.75 164.2 Q 333.95 164.2 331.4 163.5 Q 328.85 162.8 326.55 160.3 Q 324.25 157.8 324.25 153.9 Z " fill="black"/>
    <path d="M 429.25 141.4 Q 429.25 135.4 435.85 129.85 Q 442.45 124.3 449.35 124.3 Q 452.15 124.3 454.7 125 Q 457.25 125.7 459.55 128.2 Q 461.85 130.7 461.85 134.6 Q 461.85 140.1 455.15 145.9 Q 448.45 151.7 441.75 151.7 Q 438.95 151.7 436.4 151 Q 433.85 150.3 431.55 147.8 Q 429.25 145.3 429.25 141.4 Z " fill="black"/>
    <path d="M 534.25 128.9 Q 534.25 122.9 540.85 117.35 Q 547.45 111.8 554.35 111.8 Q 557.15 111.8 559.7 112.5 Q 562.25 113.2 564.55 115.7 Q 566.85 118.2 566.85 122.1 Q 566.85 127.6 560.15 133.4 Q 553.45 139.2 546.75 139.2 Q 543.95 139.2 541.4 138.5 Q 538.85 137.8 536.55 135.3 Q 534.25 132.8 534.25 128.9 Z " fill="black"/>
    <path d="M 639.25 116.4 Q 639.25 110.4 645.85 104.85 Q 652.45 99.3 659.35 99.3 Q 662.15 99.3 664.7 100 Q 667.25 100.7 669.55 103.2 Q 671.85 105.7 671.85 109.6 Q 671.85 115.1 665.15 120.9 Q 658.45 126.7 651.75 126.7 Q 648.95 126.7 646.4 126 Q 643.85 125.3 641.55 122.8 Q 639.25 120.3 639.25 116.4 Z " fill="black"/>
    <path d="M 744.25 103.9 Q 744.25 97.9 750.85 92.35 Q 757.45 86.8 764.35 86.8 Q 767.15 86.8 769.7 87.5 Q 772.25 88.2 774.55 90.7 Q 776.85 93.2 776.85 97.1 Q 776.85 102.6 770.15 108.4 Q 763.45 114.2 756.75 114.2 Q 753.95 114.2 751.4 113.5 Q 748.85 112.8 746.55 110.3 Q 744.25 107.8 744.25 103.9 Z " fill="black"/>
    <path d="M 849.25 91.4 Q 849.25 85.4 855.85 79.85 Q 862.45 74.3 869.35 74.3 Q 872.15 74.3 874.7 75 Q 877.25 75.7 879.55 78.2 Q 881.85 80.7 881.85 84.6 Q 881.85 90.1 875.15 95.9 Q 868.45 101.7 861.75 101.7 Q 858.95 101.7 856.4 101 Q 853.85 100.3 851.55 97.8 Q 849.25 95.3 849.25 91.4 Z " fill="black"/>
    <rect x="954.25" y="50.5" width="3.7500002" height="100" stroke="orange" stroke-width="1" fill="none"/>
    <rect x="954.25" y="50.5" width="3.7500002" height="100" fill="black"/>
    <line x1="145.25" y1="86.21429" x2="145.25" y2="171.5" stroke="black" stroke-width="3"/>
    <line x1="250.25" y1="73.71429" x2="250.25" y2="159" stroke="black" stroke-width="3"/>
    <line x1="355.25" y1="61.214287" x2="355.25" y2="146.5" stroke="black" stroke-width="3"/>
    <line x1="460.25" y1="48.714287" x2="460.25" y2="134" stroke="black" stroke-width="3"/>
    <line x1="565.25" y1="36.214287" x2="565.25" y2="121.5" stroke="black" stroke-width="3"/>
    <line x1="670.25" y1="23.714287" x2="670.25" y2="109" stroke="black" stroke-width="3"/>
    <line x1="745.75" y1="104.5" x2="745.75" y2="189.7857" stroke="black" stroke-width="3"/>
    <line x1="850.75" y1="92" x2="850.75" y2="177.2857" stroke="black" stroke-width="3"/>
    <path d="M 159.25 179.5 L 209.25 167 " stroke="dodgerblue" stroke-width="5" fill="none"/>
    <path d="M 184.50458 143.25 L 182.18115 143.25 L 182.18115 128.30557 Q 182.18115 126.44111 182.2959 124.77743 Q 181.9947 125.07861 181.62181 125.40848 Q 181.24892 125.73835 178.2084 128.20518 L 176.9463 126.57019 L 182.49669 122.28191 L 184.50458 122.28191 L 184.50458 143.25 Z " fill="black"/>
    <path d="M 264.25 167 L 314.25 154.5 " stroke="dodgerblue" stroke-width="5" fill="none"/>
    <path d="M 289.50458 130.75 L 287.18115 130.75 L 287.18115 115.80557 Q 287.18115 113.94111 287.2959 112.27743 Q 286.99472 112.57861 286.62183 112.90848 Q 286.24893 113.23835 283.2084 115.705185 L 281.94632 114.07019 L 287.49667 109.78191 L 289.50458 109.78191 L 289.50458 130.75 Z " fill="black"/>
    <path d="M 369.25 154.5 L 394.25 163.25 L 419.25 142 " stroke="tomato" stroke-width="5" fill="none"/>
    <path d="M 406.3009 178.03989 L 390.1123 204.25 L 387.54868 204.25 L 403.73727 178.03989 L 406.3009 178.03989 Z M 389.7717 178.03989 L 392.33533 178.03989 L 392.33533 193.74445 L 389.95096 193.74445 L 389.95096 183.36438 Q 389.95096 181.73297 390.05853 180.11949 Q 389.66412 180.51389 389.18008 180.91727 Q 388.69604 181.32063 386.27582 183.02376 L 385.07468 181.3027 L 389.7717 178.03989 Z M 411.12344 204.23207 L 400.29517 204.23207 L 400.29517 202.36761 L 404.5261 198.24426 Q 406.12164 196.70248 406.85666 195.83301 Q 407.5917 194.96352 407.8875 194.28227 Q 408.18332 193.60101 408.18332 192.63293 Q 408.18332 191.41385 407.46622 190.79535 Q 406.7491 190.17685 405.61966 190.17685 Q 404.68744 190.17685 403.809 190.51749 Q 402.93054 190.8581 401.69354 191.75449 L 400.5103 190.17685 Q 402.85883 188.18689 405.5838 188.18689 Q 407.95026 188.18689 409.2679 189.35219 Q 410.5856 190.51749 410.5856 192.52536 Q 410.5856 193.95956 409.78784 195.31311 Q 408.99005 196.66663 406.3547 199.14064 L 403.2353 202.0987 L 411.12344 202.0987 L 411.12344 204.23207 Z " fill="black"/>
    <path d="M 474.25 142 L 524.25 129.5 " stroke="dodgerblue" stroke-width="5" fill="none"/>
    <path d="M 499.50458 105.75 L 497.18115 105.75 L 497.18115 90.80557 Q 497.18115 88.94111 497.2959 87.27743 Q 496.99472 87.57861 496.62183 87.90848 Q 496.24893 88.23835 493.2084 90.705185 L 491.94632 89.07019 L 497.49667 84.78191 L 499.50458 84.78191 L 499.50458 105.75 Z " fill="black"/>
    <path d="M 579.25 129.5 L 629.25 117 " stroke="dodgerblue" stroke-width="5" fill="none"/>
    <path d="M 604.5046 93.25 L 602.18115 93.25 L 602.18115 78.30557 Q 602.18115 76.44111 602.2959 74.77743 Q 601.9947 75.07861 601.6218 75.40848 Q 601.2489 75.73835 598.20844 78.205185 L 596.9463 76.57019 L 602.4967 72.28191 L 604.5046 72.28191 L 604.5046 93.25 Z " fill="black"/>
    <path d="M 684.25 117 L 734.25 104.5 " stroke="dodgerblue" stroke-width="5" fill="none"/>
    <path d="M 709.5046 80.75 L 707.18115 80.75 L 707.18115 65.80557 Q 707.18115 63.94111 707.2959 62.277428 Q 706.9947 62.578613 706.6218 62.908478 Q 706.2489 63.23835 703.20844 65.705185 L 701.9463 64.07019 L 707.4967 59.781914 L 709.5046 59.781914 L 709.5046 80.75 Z " fill="black"/>
    <path d="M 789.25 104.5 L 814.25 113.25 L 839.25 92 " stroke="tomato" stroke-width="5" fill="none"/>
    <path d="M 826.3009 128.03989 L 810.1123 154.25 L 807.54865 154.25 L 823.73724 128.03989 L 826.3009 128.03989 Z M 809.77167 128.03989 L 812.3353 128.03989 L 812.3353 143.74445 L 809.951 143.74445 L 809.951 133.36438 Q 809.951 131.73297 810.05853 130.11949 Q 809.6641 130.5139 809.18005 130.91727 Q 808.69604 131.32063 806.2758 133.02376 L 805.07465 131.3027 L 809.77167 128.03989 Z M 831.1234 154.23207 L 820.29517 154.23207 L 820.29517 152.3676 L 824.52606 148.24426 Q 826.12164 146.70248 826.8567 145.83301 Q 827.5917 144.96352 827.8875 144.28227 Q 828.1833 143.60101 828.1833 142.63293 Q 828.1833 141.41385 827.4662 140.79535 Q 826.7491 140.17685 825.6197 140.17685 Q 824.68744 140.17685 823.80896 140.51749 Q 822.93054 140.85811 821.69354 141.75449 L 820.5103 140.17685 Q 822.8588 138.18689 825.5838 138.18689 Q 827.95026 138.18689 829.26794 139.35219 Q 830.58563 140.51749 830.58563 142.52536 Q 830.58563 143.95956 829.78784 145.31311 Q 828.99005 146.66664 826.3547 149.14064 L 823.2353 152.0987 L 831.1234 152.0987 L 831.1234 154.23207 Z " fill="black"/>
    <rect x="0" y="0" width="959.25" height="204.25" stroke="black" stroke-width="1" fill="none"/>
</svg>
