<svg xmlns="http://www.w3.org/2000/svg" xmlns:xlink="http://www.w3.org/1999/xlink" viewBox="0 0 619.5 250.74904">
    <line x1="1.25" y1="50.5" x2="618.25" y2="50.5" stroke="black" stroke-width="2.5"/>
    <line x1="1.25" y1="75.5" x2="618.25" y2="75.5" stroke="black" stroke-width="2.5"/>
    <line x1="1.25" y1="100.5" x2="618.25" y2="100.5" stroke="black" stroke-width="2.5"/>
    <line x1="1.25" y1="125.5" x2="618.25" y2="125.5" stroke="black" stroke-width="2.5"/>
    <line x1="1.25" y1="150.5" x2="618.25" y2="150.5" stroke="black" stroke-width="2.5"/>
    <rect x="1.25" y="0.5" width="10" height="200" stroke="orange" stroke-width="1" fill="none"/>
    <rect x="1.25" y="218" width="10" height="25" stroke="orange" stroke-width="1" fill="none"/>
    <rect x="11.25" y="10.5" width="74" height="186" stroke="orange" stroke-width="1" fill="none"/>
    <path d="M 36.050003 69 Q 33.75 61.7 32.85 56 Q 32.050003 51.199997 32.050003 44.799995 Q 32.050003 42.6 32.15 40.4 Q 32.550003 30.900002 36.050003 22.949997 Q 39.550003 15 46.55 10.799995 Q 47.05 10.5 47.850002 10.5 Q 48.55 10.5 49.05 11 Q 54.65 16.599998 57.65 25.299995 Q 60.65 34 60.65 42.9 Q 60.65 53.199997 56.25 63.1 Q 52.05 73 44.45 80.6 Q 43.850002 81.2 44.05 82.2 L 48.05 98.2 Q 48.350002 99.8 50.05 99.6 Q 51.65 99.4 53.15 99.4 Q 58.95 99.4 63.65 101.7 Q 68.350006 104 71.25 107.7 Q 74.15 111.4 75.700005 115.85 Q 77.25 120.3 77.25 125 Q 77.25 133.6 72.45 140.55 Q 67.65 147.5 60.95 149.7 Q 59.55 150.2 59.850002 151.8 Q 62.350002 163.6 62.45 171.7 Q 62.45 174.8 62.05 177.8 Q 61.25 184.7 56.05 189.9 Q 50.850002 195.1 43.65 195.1 Q 34.85 195.1 28.75 189.8 Q 22.650002 184.5 22.650002 175.9 Q 22.650002 171.5 25.75 168.3 Q 28.85 165.1 33.050003 165.1 Q 37.35 165.1 40.300003 168.15 Q 43.25 171.2 43.25 175.4 Q 43.25 179 40.85 181.7 Q 38.45 184.5 35.050003 184.8 Q 33.85 184.9 33.45 186 Q 33.050003 187.1 34.25 188 Q 37.85 190.8 43.050003 190.8 Q 48.75 190.8 52.9 186.7 Q 57.05 182.6 57.75 177.4 Q 58.25 173.8 58.25 170.2 Q 58.25 162.4 55.850002 152.9 Q 55.45 151.2 53.65 151.4 Q 49.65 151.9 46.25 151.9 Q 31.45 151.9 21.35 142.6 Q 11.25 133.3 11.25 117.3 Q 11.25 112.4 12.4 107.65 Q 13.55 102.9 15 99.45 Q 16.45 96 19.5 91.45 Q 22.55 86.899994 24.400002 84.5 Q 26.25 82.1 30.25 77.35 Q 34.25 72.6 35.75 70.7 Q 36.35 70 36.050003 69 Z M 51.65 114.7 L 58.15 144.2 Q 58.45 145.5 59.95 145.5 Q 60.350002 145.5 60.65 145.4 Q 64.75 143.7 67.45 138.8 Q 70.15 133.9 70.15 129.1 Q 70.15 122.1 66.05 117.3 Q 61.850002 112.4 53.45 112.4 Q 52.75 112.4 52.2 112.95 Q 51.65 113.5 51.65 114.2 Q 51.55 114.5 51.65 114.7 Z M 37.85 86.899994 Q 36.25 88.7 33.1 92.05 Q 29.95 95.4 28.4 97.15 Q 26.85 98.9 24.6 102.1 Q 22.35 105.3 21.25 108 Q 20.150002 110.7 19.3 114.6 Q 18.45 118.5 18.45 122.9 Q 18.45 129 22.2 134.7 Q 25.95 140.4 32.5 144 Q 39.050003 147.6 46.55 147.6 Q 49.25 147.6 52.55 147.3 Q 53.350002 147.2 53.850002 146.55 Q 54.350002 145.9 54.15 145.1 L 47.65 115.2 Q 47.350002 113.8 45.75 113.8 Q 45.45 113.8 45.05 113.9 Q 40.45 115.6 38.550003 118.7 Q 36.65 121.8 36.65 126.5 Q 36.65 132 42.65 136 Q 43.350002 136.5 43.350002 137.5 Q 43.350002 138.3 42.7 139 Q 42.050003 139.7 41.15 139.7 Q 40.65 139.7 40.25 139.5 Q 34.550003 136.5 31.800001 131.35 Q 29.050001 126.2 29.050001 120.5 Q 29.050001 115 33 109.15 Q 36.95 103.3 42.85 101.1 Q 44.350002 100.5 44.05 99 L 41.050003 87.7 Q 40.85 86.6 39.65 86.399994 Q 38.45 86.2 37.85 86.899994 Z M 54.65 28.699997 Q 53.850002 26.099998 51.95 26.099998 Q 51.350002 26.099998 50.850002 26.400002 Q 44.45 30.199997 40.7 37.1 Q 36.95 44 36.95 51.699997 Q 36.95 56.699997 39.050003 64 Q 39.35 65.1 40.550003 65.3 Q 41.550003 65.399994 42.25 64.6 Q 42.550003 64.2 45.100002 61.049995 Q 47.65 57.9 48.45 56.85 Q 49.25 55.799995 51.15 52.85 Q 53.05 49.9 53.8 47.949997 Q 54.55 46 55.25 43.1 Q 55.95 40.199997 55.95 37.299995 Q 55.95 33.1 54.65 28.699997 Z " fill="black"/>
    <ellipse cx="16.25" cy="235.5" rx="5" ry="5" stroke="gray" stroke-width="1" fill="none"/>
    <path d="M 91.25 178.9 Q 91.25 172.9 97.85 167.35 Q 104.45 161.8 111.35 161.8 Q 114.15 161.8 116.7 162.5 Q 119.25 163.2 121.55 165.7 Q 123.850006 168.2 123.850006 172.1 Q 123.850006 177.6 117.15 183.4 Q 110.45 189.2 103.75 189.2 Q 100.95 189.2 98.4 188.5 Q 95.85 187.8 93.55 185.3 Q 91.25 182.8 91.25 178.9 Z " fill="black"/>
    <rect x="85" y="174.25" width="45" height="2.5" fill="black"/>
    <path d="M 84.65493 206.64403 L 80.88405 206.07123 L 80.88405 203.6846 L 93.86734 203.6846 L 93.86734 206.07123 L 89.76233 206.64403 L 89.76233 219.48413 L 106.56424 219.48413 L 106.56424 206.64403 L 102.69789 206.07123 L 102.69789 203.6846 L 115.49025 203.6846 L 115.49025 206.07123 L 111.71937 206.64403 L 111.71937 236.33377 L 115.49025 236.8111 L 115.49025 239.15 L 102.650154 239.15 L 102.650154 236.8111 L 106.56424 236.33377 L 106.56424 222.44354 L 89.76233 222.44354 L 89.76233 236.33377 L 93.91507 236.8111 L 93.91507 239.15 L 80.78858 239.15 L 80.78858 236.8111 L 84.65493 236.33377 L 84.65493 206.64403 Z " fill="black"/>
    <path d="M 120.68716 235.90417 Q 117.65613 232.13329 117.65613 225.83258 Q 117.65613 221.67982 119.23131 218.52946 Q 120.80649 215.37912 123.64658 213.66074 Q 126.48668 211.94235 130.11436 211.94235 Q 134.5535 211.94235 137.01173 214.40059 Q 139.46997 216.85883 139.61316 221.44116 Q 139.61316 224.35286 139.27904 225.88031 L 122.85899 225.88031 Q 122.95446 230.60583 125.054695 233.49367 Q 127.15494 236.3815 131.02129 236.3815 Q 132.93059 236.3815 135.00696 235.68938 Q 137.08333 234.99725 138.22891 234.0426 L 139.13583 236.14284 Q 137.75159 237.57481 135.03082 238.62494 Q 132.31006 239.67505 129.49384 239.67505 Q 123.71818 239.67505 120.68716 235.90417 Z M 134.36256 223.35046 Q 134.50577 222.34808 134.50577 221.29797 Q 134.45804 218.19534 133.19312 216.40536 Q 131.9282 214.61539 129.20744 214.61539 Q 126.43894 214.61539 124.79217 216.62016 Q 123.145386 218.62494 122.90672 223.35046 L 134.36256 223.35046 Z " fill="black"/>
    <path d="M 145.54993 207.0259 Q 144.78621 206.1667 144.78621 204.83018 Q 144.78621 203.30273 145.717 202.30035 Q 146.64778 201.29797 148.27069 201.29797 Q 149.8936 201.29797 150.65733 202.15717 Q 151.42105 203.01634 151.42105 204.35286 Q 151.42105 205.97577 150.49026 206.93042 Q 149.55948 207.88507 147.8411 207.88507 L 147.79337 207.88507 Q 146.31366 207.88507 145.54993 207.0259 Z M 142.06544 212.94475 L 149.464 212.03783 L 149.55948 212.03783 L 150.60959 212.897 L 150.60959 238.81587 Q 150.60959 242.77768 149.464 245.47458 Q 148.31842 248.17148 146.36139 249.46025 Q 144.40434 250.74904 141.96997 250.74904 Q 140.1084 250.74904 139.77428 250.5581 L 139.53561 248.31467 Q 139.91747 248.3624 140.65733 248.21921 Q 141.39719 248.076 142.1609 247.78961 Q 144.11795 247.12135 144.90553 244.56766 Q 145.69313 242.01396 145.69313 237.71802 L 145.69313 216.47696 L 142.06544 215.61777 L 142.06544 212.94475 Z " fill="black"/>
    <path d="M 170.25 166.4 Q 170.25 160.4 176.85 154.85 Q 183.45 149.3 190.35 149.3 Q 193.15 149.3 195.7 150 Q 198.25 150.7 200.55 153.2 Q 202.85 155.7 202.85 159.6 Q 202.85 165.1 196.15 170.9 Q 189.45 176.7 182.75 176.7 Q 179.95 176.7 177.4 176 Q 174.85 175.3 172.55 172.8 Q 170.25 170.3 170.25 166.4 Z " fill="black"/>
    <path d="M 173.41428 235.33138 Q 173.8916 236.04736 175.44292 236.62016 Q 176.99423 237.19295 178.7126 237.19295 Q 181.43336 237.19295 182.72215 236.14284 Q 184.01094 235.09271 184.01094 233.23114 Q 184.01094 231.94235 183.19948 230.9877 Q 182.38802 230.03305 180.93217 229.2932 Q 179.47633 228.55333 176.75557 227.50322 Q 173.08014 226.11897 171.38564 224.18579 Q 169.69113 222.25262 169.69113 219.10226 Q 169.69113 217.00201 170.95604 215.42685 Q 172.22096 213.85167 174.44052 212.96861 Q 176.6601 212.08556 179.38086 212.08556 Q 181.57657 212.08556 183.22334 212.41968 Q 184.87012 212.75381 185.87251 213.08795 Q 186.8749 213.42207 187.20903 213.51755 L 187.20903 219.43639 L 184.29733 219.43639 L 183.34268 215.90417 Q 183.05627 215.33138 181.81523 214.92566 Q 180.57417 214.51993 179.04674 214.51993 Q 176.89876 214.51993 175.58612 215.47458 Q 174.27347 216.42923 174.27347 218.05214 Q 174.27347 219.48413 174.96559 220.41492 Q 175.65771 221.3457 176.70782 221.91849 Q 177.75795 222.49129 179.5718 223.255 L 180.52644 223.63687 Q 183.19948 224.68698 184.87012 225.64163 Q 186.54077 226.5963 187.66249 228.14761 Q 188.78421 229.69891 188.78421 231.94235 Q 188.78421 235.47458 186.03957 237.57481 Q 183.29495 239.67505 178.52167 239.67505 Q 176.18277 239.67505 173.62907 239.03065 Q 171.07538 238.38628 169.45247 237.71802 L 169.45247 231.60823 L 172.55508 231.60823 L 173.41428 235.33138 Z " fill="black"/>
    <path d="M 195.29375 225.37912 Q 199.78062 223.255 206.65413 223.11182 L 206.65413 221.7753 Q 206.65413 219.53186 206.1768 218.24307 Q 205.69948 216.95428 204.53003 216.35764 Q 203.36058 215.76097 201.2126 215.76097 Q 198.77823 215.76097 196.84506 216.4531 Q 194.9119 217.14522 193.00258 218.14761 L 191.80927 215.66551 Q 192.4298 215.14044 194.10043 214.28125 Q 195.77107 213.42207 197.96678 212.75381 Q 200.16249 212.08556 202.35818 212.08556 Q 205.74721 212.08556 207.72812 213.01634 Q 209.70901 213.94713 210.5682 215.99963 Q 211.4274 218.05214 211.4274 221.48889 L 211.4274 236.8111 L 214.24362 236.8111 L 214.24362 238.91133 Q 213.28897 239.15 211.83313 239.38866 Q 210.37729 239.62732 209.27943 239.62732 Q 207.94292 239.62732 207.46559 239.22159 Q 206.98827 238.81587 206.98827 237.43161 L 206.98827 235.85645 Q 205.55627 237.28842 203.4799 238.48174 Q 201.40353 239.67505 198.77823 239.67505 Q 195.34148 239.67505 193.07417 237.69415 Q 190.80687 235.71324 190.80687 231.99008 Q 190.80687 227.50322 195.29375 225.37912 Z M 203.6947 235.66551 Q 205.31761 234.90178 206.65413 233.85167 L 206.65413 225.64163 Q 201.45126 225.64163 198.80211 227.24069 Q 196.15294 228.83974 196.15294 231.4173 Q 196.15294 233.99486 197.41785 235.21205 Q 198.68277 236.42923 200.83075 236.42923 Q 202.0718 236.42923 203.6947 235.66551 Z " fill="black"/>
    <path d="M 245.25 153.9 Q 245.25 147.9 251.85 142.35 Q 258.45 136.8 265.35 136.8 Q 268.15 136.8 270.7 137.5 Q 273.25 138.2 275.55 140.7 Q 277.85 143.2 277.85 147.1 Q 277.85 152.6 271.15 158.4 Q 264.45 164.2 257.75 164.2 Q 254.95 164.2 252.4 163.5 Q 249.85 162.8 247.55 160.3 Q 245.25 157.8 245.25 153.9 Z " fill="black"/>
    <path d="M 239.29138 206.64403 L 235.56822 206.07123 L 235.56822 203.6846 L 241.91667 203.6846 Q 243.63506 203.6846 245.3057 203.54141 Q 247.88326 203.35046 250.17442 203.35046 Q 257.09567 203.39821 259.95963 205.92804 Q 262.8236 208.45787 262.8236 213.56528 Q 262.8236 217.38388 261.0575 220.20012 Q 259.29138 223.01634 256.1649 224.49606 Q 253.03839 225.97577 248.98111 225.97577 Q 247.59686 225.97577 246.16489 225.90417 Q 244.7329 225.83258 244.39877 225.78484 L 244.39877 236.28603 L 250.93816 236.8111 L 250.93816 239.15 L 235.32956 239.15 L 235.32956 236.8111 L 239.29138 236.33377 L 239.29138 206.64403 Z M 248.98111 223.39821 Q 252.752 223.39821 255.11476 221.10704 Q 257.47754 218.81586 257.47754 213.613 Q 257.47754 209.508 255.42502 207.71802 Q 253.37251 205.92804 249.02884 205.92804 Q 247.5014 205.92804 245.78302 206.11897 Q 244.7329 206.21443 244.39877 206.21443 L 244.39877 223.15955 Q 245.73529 223.39821 248.98111 223.39821 Z " fill="black"/>
    <path d="M 268.11594 235.90417 Q 265.08493 232.13329 265.08493 225.83258 Q 265.08493 221.67982 266.6601 218.52946 Q 268.23526 215.37912 271.07538 213.66074 Q 273.91547 211.94235 277.54315 211.94235 Q 281.9823 211.94235 284.44052 214.40059 Q 286.89874 216.85883 287.04196 221.44116 Q 287.04196 224.35286 286.70782 225.88031 L 270.28778 225.88031 Q 270.38324 230.60583 272.4835 233.49367 Q 274.5837 236.3815 278.45007 236.3815 Q 280.35938 236.3815 282.43576 235.68938 Q 284.51212 234.99725 285.6577 234.0426 L 286.56464 236.14284 Q 285.1804 237.57481 282.45963 238.62494 Q 279.73886 239.67505 276.92264 239.67505 Q 271.14697 239.67505 268.11594 235.90417 Z M 281.79135 223.35046 Q 281.93457 222.34808 281.93457 221.29797 Q 281.8868 218.19534 280.62192 216.40536 Q 279.357 214.61539 276.63623 214.61539 Q 273.86774 214.61539 272.22095 216.62016 Q 270.5742 218.62494 270.3355 223.35046 L 281.79135 223.35046 Z " fill="black"/>
    <path d="M 293.74243 238.38628 Q 292.4059 237.14522 292.4059 234.13806 L 292.4059 215.80872 L 288.96915 215.80872 L 288.96915 213.66074 Q 289.20782 213.613 290.30566 213.3266 Q 291.40353 213.0402 291.78537 212.80154 Q 292.5491 212.37195 292.9787 211.08316 Q 293.36057 210.17624 293.88562 208.17148 Q 294.41068 206.1667 294.50613 205.78485 L 297.3224 205.78485 L 297.41785 212.65836 L 305.3892 212.65836 L 305.3892 215.80872 L 297.41785 215.80872 L 297.41785 230.46265 Q 297.41785 233.18341 297.5849 234.28127 Q 297.75198 235.3791 298.3009 235.71324 Q 298.84982 236.04736 300.18634 236.04736 Q 301.47513 236.04736 303.02643 235.71324 Q 304.57776 235.3791 305.43692 234.99725 L 306.15292 237.14522 Q 305.00732 238.00441 302.45364 238.81587 Q 299.89993 239.62732 297.7997 239.62732 Q 295.07895 239.62732 293.74243 238.38628 Z " fill="black"/>
    <path d="M 323.25 141.4 Q 323.25 135.4 329.85 129.85 Q 336.45 124.3 343.35 124.3 Q 346.15 124.3 348.7 125 Q 351.25 125.7 353.55 128.2 Q 355.85 130.7 355.85 134.6 Q 355.85 140.1 349.15 145.9 Q 342.45 151.7 335.75 151.7 Q 332.95 151.7 330.4 151 Q 327.85 150.3 325.55 147.8 Q 323.25 145.3 323.25 141.4 Z " fill="black"/>
    <path d="M 321.8956 236.8111 L 325.47556 236.52469 L 325.47556 216.33377 L 322.0388 215.47458 L 322.0388 212.897 L 328.62592 212.03783 L 328.72137 212.03783 L 329.77148 212.897 L 329.77148 213.7562 L 329.6283 217.47935 L 329.77148 217.47935 Q 330.2488 216.6679 331.48987 215.37912 Q 332.73093 214.09033 334.68796 213.01634 Q 336.645 211.94235 338.93616 211.94235 Q 339.8908 211.94235 340.51135 212.18103 L 340.51135 217.52708 Q 340.17722 217.28842 339.43735 217.07362 Q 338.6975 216.85883 337.7906 216.85883 Q 333.82877 216.85883 330.43976 219.2932 L 330.43976 236.47696 L 336.5018 236.85883 L 336.5018 239.15 L 321.8956 239.15 L 321.8956 236.8111 Z " fill="black"/>
    <path d="M 344.68198 218.38628 Q 346.44806 215.23592 349.3359 213.58914 Q 352.22372 211.94235 355.51727 211.94235 Q 361.53162 211.94235 364.56262 215.76097 Q 367.59366 219.57959 367.59366 225.78484 Q 367.59366 230.12851 365.82755 233.27887 Q 364.06143 236.42923 361.1736 238.05214 Q 358.28577 239.67505 354.99222 239.67505 Q 348.9779 239.67505 345.94687 235.85645 Q 342.91586 232.03783 342.91586 225.83258 Q 342.91586 221.53662 344.68198 218.38628 Z M 360.3383 234.23352 Q 362.1044 231.51276 362.1044 226.1667 Q 362.1044 220.86838 360.48148 217.76575 Q 358.85858 214.66312 355.27863 214.66312 Q 351.98508 214.66312 350.1951 217.38388 Q 348.40512 220.10464 348.40512 225.45071 Q 348.40512 230.74904 350.07574 233.85167 Q 351.7464 236.95428 355.27863 236.95428 Q 358.57217 236.95428 360.3383 234.23352 Z " fill="black"/>
    <path d="M 398.25 128.9 Q 398.25 122.9 404.85 117.35 Q 411.45 111.8 418.35 111.8 Q 421.15 111.8 423.7 112.5 Q 426.25 113.2 428.55 115.7 Q 430.85 118.2 430.85 122.1 Q 430.85 127.6 424.15 133.4 Q 417.45 139.2 410.75 139.2 Q 407.95 139.2 405.4 138.5 Q 402.85 137.8 400.55 135.3 Q 398.25 132.8 398.25 128.9 Z " fill="black"/>
    <path d="M 392.0368 216.33377 L 388.60004 215.47458 L 388.60004 212.897 L 395.4258 212.03783 L 395.56903 212.03783 L 396.5714 212.897 L 396.5714 214.9018 L 396.52368 216.04736 Q 398.24207 214.51993 401.0583 213.27887 Q 403.8745 212.03783 406.4521 212.03783 Q 409.45923 212.03783 411.10602 213.18341 Q 412.7528 214.329 413.42105 216.69176 Q 414.0893 219.05453 414.0893 223.06407 L 414.0893 236.42923 L 417.4306 236.76337 L 417.4306 239.15 L 406.11795 239.15 L 406.11795 236.8111 L 409.07736 236.42923 L 409.07736 223.01634 Q 409.07736 220.20012 408.69553 218.60107 Q 408.31366 217.00201 407.26352 216.21443 Q 406.2134 215.42685 404.20865 215.42685 Q 402.49026 215.42685 400.53323 216.28604 Q 398.57617 217.14522 397.04874 218.2908 L 397.04874 236.3815 L 400.29456 236.8111 L 400.29456 239.15 L 389.02963 239.15 L 389.02963 236.8111 L 392.0368 236.3815 L 392.0368 216.33377 Z " fill="black"/>
    <path d="M 423.43893 235.90417 Q 420.40793 232.13329 420.40793 225.83258 Q 420.40793 221.67982 421.9831 218.52946 Q 423.55826 215.37912 426.39838 213.66074 Q 429.23846 211.94235 432.86615 211.94235 Q 437.3053 211.94235 439.76352 214.40059 Q 442.22174 216.85883 442.36496 221.44116 Q 442.36496 224.35286 442.03082 225.88031 L 425.61078 225.88031 Q 425.70624 230.60583 427.8065 233.49367 Q 429.9067 236.3815 433.77307 236.3815 Q 435.68237 236.3815 437.75876 235.68938 Q 439.8351 234.99725 440.9807 234.0426 L 441.88763 236.14284 Q 440.5034 237.57481 437.78262 238.62494 Q 435.06186 239.67505 432.24564 239.67505 Q 426.46997 239.67505 423.43893 235.90417 Z M 437.11435 223.35046 Q 437.25757 222.34808 437.25757 221.29797 Q 437.2098 218.19534 435.94492 216.40536 Q 434.68 214.61539 431.95923 214.61539 Q 429.19073 214.61539 427.54395 216.62016 Q 425.8972 218.62494 425.6585 223.35046 L 437.11435 223.35046 Z " fill="black"/>
    <path d="M 448.4449 203.54141 L 444.57855 203.01634 L 444.57855 200.96384 L 452.26352 200.05692 L 452.35898 200.05692 L 453.4091 200.7729 L 453.4091 236.42923 L 457.46637 236.8111 L 457.46637 239.15 L 444.57855 239.15 L 444.57855 236.8111 L 448.4449 236.3815 L 448.4449 203.54141 Z " fill="black"/>
    <path d="M 503.25 128.9 Q 503.25 122.9 509.85 117.35 Q 516.45 111.8 523.35 111.8 Q 526.15 111.8 528.7 112.5 Q 531.25 113.2 533.55 115.7 Q 535.85 118.2 535.85 122.1 Q 535.85 127.6 529.15 133.4 Q 522.45 139.2 515.75 139.2 Q 512.95 139.2 510.4 138.5 Q 507.85 137.8 505.55 135.3 Q 503.25 132.8 503.25 128.9 Z " fill="black"/>
    <path d="M 507.60757 203.54141 L 503.74124 203.01634 L 503.74124 200.96384 L 511.4262 200.05692 L 511.52167 200.05692 L 512.5718 200.7729 L 512.5718 236.42923 L 516.6291 236.8111 L 516.6291 239.15 L 503.74124 239.15 L 503.74124 236.8111 L 507.60757 236.3815 L 507.60757 203.54141 Z " fill="black"/>
    <path d="M 523.9978 225.37912 Q 528.4847 223.255 535.3582 223.11182 L 535.3582 221.7753 Q 535.3582 219.53186 534.88086 218.24307 Q 534.40356 216.95428 533.2341 216.35764 Q 532.06464 215.76097 529.9167 215.76097 Q 527.4823 215.76097 525.54913 216.4531 Q 523.61597 217.14522 521.70667 218.14761 L 520.5133 215.66551 Q 521.13385 215.14044 522.8045 214.28125 Q 524.47516 213.42207 526.67084 212.75381 Q 528.8666 212.08556 531.06226 212.08556 Q 534.4513 212.08556 536.4322 213.01634 Q 538.4131 213.94713 539.2723 215.99963 Q 540.1315 218.05214 540.1315 221.48889 L 540.1315 236.8111 L 542.9477 236.8111 L 542.9477 238.91133 Q 541.99304 239.15 540.5372 239.38866 Q 539.08136 239.62732 537.9835 239.62732 Q 536.647 239.62732 536.1697 239.22159 Q 535.6923 238.81587 535.6923 237.43161 L 535.6923 235.85645 Q 534.2604 237.28842 532.18396 238.48174 Q 530.1076 239.67505 527.4823 239.67505 Q 524.04553 239.67505 521.77826 237.69415 Q 519.5109 235.71324 519.5109 231.99008 Q 519.5109 227.50322 523.9978 225.37912 Z M 532.3988 235.66551 Q 534.02167 234.90178 535.3582 233.85167 L 535.3582 225.64163 Q 530.15533 225.64163 527.50616 227.24069 Q 524.857 228.83974 524.857 231.4173 Q 524.857 233.99486 526.12195 235.21205 Q 527.38684 236.42923 529.5348 236.42923 Q 530.7759 236.42923 532.3988 235.66551 Z " fill="black"/>
    <rect x="608.25" y="0.5" width="10" height="200" stroke="orange" stroke-width="1" fill="none"/>
    <rect x="608.25" y="218" width="10" height="25" stroke="orange" stroke-width="1" fill="none"/>
    <line x1="122.25" y1="86.21429" x2="122.25" y2="171.5" stroke="black" stroke-width="3"/>
    <line x1="201.25" y1="73.71429" x2="201.25" y2="159" stroke="black" stroke-width="3"/>
    <path d="M 120.75 86.21429 L 202.75 73.71429 L 202.75 88.71429 L 120.75 101.21429 " fill="black"/>
    <line x1="276.25" y1="61.214287" x2="276.25" y2="146.5" stroke="black" stroke-width="3"/>
    <line x1="354.25" y1="48.714287" x2="354.25" y2="134" stroke="black" stroke-width="3"/>
    <path d="M 274.75 61.214287 L 355.75 48.714287 L 355.75 63.714287 L 274.75 76.21429 " fill="black"/>
    <line x1="429.25" y1="36.214287" x2="429.25" y2="121.5" stroke="black" stroke-width="3"/>
    <line x1="534.25" y1="36.214287" x2="534.25" y2="121.5" stroke="black" stroke-width="3"/>
    <rect x="0" y="0" width="619.5" height="250.74904" stroke="black" stroke-width="1" fill="none"/>
</svg>
