<svg xmlns="http://www.w3.org/2000/svg" xmlns:xlink="http://www.w3.org/1999/xlink" viewBox="0 0 276 107.95">
    <rect x="0.5" y="76.75" width="10" height="10" stroke="orange" stroke-width="1" fill="none"/>
    <rect x="40.5" y="0.5" width="2.5" height="87.5" stroke="blue" stroke-width="1" fill="none"/>
    <rect x="40.5" y="0.5" width="2.5" height="87.5" fill="black"/>
    <rect x="10.5" y="81.75" width="32.5" height="25" stroke="blue" stroke-width="1" fill="none"/>
    <path d="M 10.5 97.65 Q 10.5 91.65 17.1 86.1 Q 23.7 80.55 30.6 80.55 Q 33.4 80.55 35.95 81.25 Q 38.5 81.95 40.800003 84.45 Q 43.100002 86.95 43.100002 90.85 Q 43.100002 96.35 36.4 102.15 Q 29.7 107.95 23 107.95 Q 20.2 107.95 17.65 107.25 Q 15.1 106.55 12.8 104.05 Q 10.5 101.55 10.5 97.65 Z " fill="black"/>
    <rect x="115.5" y="0.5" width="2.5" height="87.5" stroke="blue" stroke-width="1" fill="none"/>
    <rect x="115.5" y="0.5" width="2.5" height="87.5" fill="black"/>
    <rect x="85.5" y="81.75" width="32.5" height="25" stroke="blue" stroke-width="1" fill="none"/>
    <path d="M 85.5 97.65 Q 85.5 91.65 92.1 86.1 Q 98.7 80.55 105.6 80.55 Q 108.4 80.55 110.95 81.25 Q 113.5 81.95 115.8 84.45 Q 118.100006 86.95 118.100006 90.85 Q 118.100006 96.35 111.4 102.15 Q 104.7 107.95 98 107.95 Q 95.2 107.95 92.65 107.25 Q 90.1 106.55 87.8 104.05 Q 85.5 101.55 85.5 97.65 Z " fill="black"/>
    <rect x="190.5" y="0.5" width="2.5" height="87.5" stroke="blue" stroke-width="1" fill="none"/>
    <rect x="190.5" y="0.5" width="2.5" height="87.5" fill="black"/>
    <rect x="160.5" y="81.75" width="32.5" height="25" stroke="blue" stroke-width="1" fill="none"/>
    <path d="M 160.5 97.65 Q 160.5 91.65 167.1 86.1 Q 173.7 80.55 180.6 80.55 Q 183.4 80.55 185.95 81.25 Q 188.5 81.95 190.8 84.45 Q 193.1 86.95 193.1 90.85 Q 193.1 96.35 186.4 102.15 Q 179.7 107.95 173 107.95 Q 170.2 107.95 167.65 107.25 Q 165.1 106.55 162.8 104.05 Q 160.5 101.55 160.5 97.65 Z " fill="black"/>
    <rect x="265.5" y="76.75" width="10" height="10" stroke="orange" stroke-width="1" fill="none"/>
    <rect x="0" y="0" width="276" height="107.95" stroke="black" stroke-width="1" fill="none"/>
</svg>
