<svg xmlns="http://www.w3.org/2000/svg" xmlns:xlink="http://www.w3.org/1999/xlink" width="306.16785" height="103" viewBox="0 0 306.16785 103">
    <rect x="1.5" y="1.5" width="100" height="100" stroke="black" stroke-width="3" fill="none"/>
    <path d="M 184.26253 24.823387 L 177.73906 23.868736 L 177.73906 19.89101 L 188.47891 19.89101 Q 191.18378 19.89101 195.3206 19.572796 Q 199.13922 19.254578 200.96898 19.254578 Q 211.9475 19.254578 216.68098 22.675419 Q 221.41447 26.096264 221.41447 32.699284 Q 221.41447 38.347652 218.15274 42.404934 Q 214.891 46.46221 209.24265 47.49642 Q 216.87987 47.33731 221.25537 51.07637 Q 225.63086 54.815434 225.63086 61.259346 Q 225.63086 69.29435 219.94272 74.38584 Q 214.25458 79.477325 201.12808 79.477325 Q 198.26411 79.477325 195.63882 79.23866 Q 189.43356 79 188.24025 79 L 177.65952 79 L 177.65952 75.10183 L 184.26253 74.30629 L 184.26253 24.823387 Z M 197.22992 46.06444 L 201.60541 46.06444 Q 207.17422 46.06444 210.03818 42.961815 Q 212.90215 39.859188 212.90215 34.131264 Q 212.90215 28.56245 210.03818 25.976929 Q 207.17422 23.39141 200.25298 23.39141 Q 197.38902 23.39141 194.36595 23.709625 L 192.69531 23.868736 L 192.69531 45.984882 Q 193.80907 46.06444 197.22992 46.06444 Z M 200.96898 75.18138 Q 209.00398 75.18138 212.6237 71.879875 Q 216.24344 68.57836 216.24344 62.373108 Q 216.24344 56.247414 213.10103 53.463005 Q 209.95863 50.6786 202.95784 50.6786 Q 194.84328 50.6786 192.69531 50.837708 L 192.69531 74.54495 Q 194.52505 75.18138 200.96898 75.18138 Z " fill="black"/>
    <path d="M 232.5004 75.10183 L 237.35323 74.38584 L 237.35323 40.97295 L 231.6253 39.540974 L 231.6253 35.24503 L 243.00159 33.81305 L 244.43356 34.847256 L 244.9109 38.029438 L 244.83134 40.57518 Q 247.61575 38.029438 252.4288 35.92124 Q 257.24185 33.81305 261.06046 33.81305 Q 265.35638 33.81305 267.9817 35.24503 Q 270.607 36.67701 271.9594 39.700077 Q 274.5052 37.55211 279.07956 35.682575 Q 283.65393 33.81305 287.63165 33.81305 Q 292.56403 33.81305 295.34845 35.682575 Q 298.13287 37.55211 299.2864 41.490055 Q 300.43994 45.428 300.43994 52.03103 L 300.43994 74.38584 L 306.16785 75.10183 L 306.16785 79 L 287.2339 79 L 287.2339 75.10183 L 292.16626 74.38584 L 292.16626 52.26969 Q 292.16626 47.65553 291.49005 44.9109 Q 290.81384 42.166267 288.9443 40.813843 Q 287.07477 39.461414 283.5744 39.461414 Q 280.9491 39.461414 278.00555 40.614956 Q 275.06207 41.768497 272.99365 43.35959 Q 273.70963 46.46221 273.70963 52.190136 L 273.70963 74.38584 L 279.358 75.10183 L 279.358 79 L 260.1058 79 L 260.1058 75.10183 L 265.35638 74.38584 L 265.35638 52.11058 Q 265.35638 47.33731 264.75977 44.712013 Q 264.1631 42.086716 262.49243 40.774067 Q 260.82178 39.461414 257.40094 39.461414 Q 254.53699 39.461414 251.31503 40.8934 Q 248.09308 42.32538 245.70645 44.234684 L 245.70645 74.38584 L 251.03659 75.10183 L 251.03659 79 L 232.5004 79 L 232.5004 75.10183 Z " fill="black"/>
    <rect x="0" y="0" width="306.16785" height="103" stroke="white" stroke-width="1" fill="none"/>
</svg>
