<svg xmlns="http://www.w3.org/2000/svg" xmlns:xlink="http://www.w3.org/1999/xlink" viewBox="0 0 1204 561.5">
    <rect x="0.5" y="160.5" width="10" height="10" stroke="orange" stroke-width="1" fill="none"/>
    <rect x="0.5" y="453.5" width="10" height="10" stroke="orange" stroke-width="1" fill="none"/>
    <rect x="10.5" y="128" width="32.5" height="25" stroke="lightgray" stroke-width="1" fill="none"/>
    <path d="M 10.5 143.9 Q 10.5 137.9 17.1 132.35 Q 23.7 126.8 30.6 126.8 Q 33.4 126.8 35.95 127.5 Q 38.5 128.2 40.800003 130.7 Q 43.100002 133.2 43.100002 137.1 Q 43.100002 142.6 36.4 148.4 Q 29.7 154.2 23 154.2 Q 20.2 154.2 17.65 153.5 Q 15.1 152.8 12.8 150.3 Q 10.5 147.8 10.5 143.9 Z " fill="black"/>
    <rect x="10.5" y="165.5" width="32.5" height="25" stroke="lightgray" stroke-width="1" fill="none"/>
    <path d="M 10.5 181.4 Q 10.5 175.4 17.1 169.85 Q 23.7 164.3 30.6 164.3 Q 33.4 164.3 35.95 165 Q 38.5 165.7 40.800003 168.2 Q 43.100002 170.7 43.100002 174.6 Q 43.100002 180.1 36.4 185.9 Q 29.7 191.7 23 191.7 Q 20.2 191.7 17.65 191 Q 15.1 190.3 12.8 187.8 Q 10.5 185.3 10.5 181.4 Z " fill="black"/>
    <rect x="40" y="38" width="3" height="102.5" stroke="lightgray" stroke-width="1" fill="none"/>
    <rect x="40" y="38" width="3" height="102.5" fill="black"/>
    <rect x="10.5" y="178" width="3" height="152.5" stroke="lightgray" stroke-width="1" fill="none"/>
    <rect x="10.5" y="178" width="3" height="152.5" fill="black"/>
    <rect x="10.5" y="318" width="50" height="25" stroke="lightgray" stroke-width="1" fill="none"/>
    <rect x="10.5" y="446" width="32.5" height="25" stroke="lightgray" stroke-width="1" fill="none"/>
    <path d="M 10.5 461.9 Q 10.5 455.9 17.1 450.35 Q 23.7 444.8 30.6 444.8 Q 33.4 444.8 35.95 445.5 Q 38.5 446.2 40.800003 448.7 Q 43.100002 451.2 43.100002 455.1 Q 43.100002 460.6 36.4 466.4 Q 29.7 472.2 23 472.2 Q 20.2 472.2 17.65 471.5 Q 15.1 470.8 12.8 468.3 Q 10.5 465.8 10.5 461.9 Z " fill="black"/>
    <rect x="40" y="356" width="3" height="102.5" stroke="lightgray" stroke-width="1" fill="none"/>
    <rect x="40" y="356" width="3" height="102.5" fill="black"/>
    <rect x="10.5" y="343.5" width="50" height="25" stroke="lightgray" stroke-width="1" fill="none"/>
    <rect x="73.5" y="190.5" width="32.5" height="25" stroke="lightgray" stroke-width="1" fill="none"/>
    <path d="M 73.5 206.4 Q 73.5 200.4 80.1 194.85 Q 86.7 189.3 93.6 189.3 Q 96.4 189.3 98.95 190 Q 101.5 190.7 103.8 193.2 Q 106.100006 195.7 106.100006 199.6 Q 106.100006 205.1 99.4 210.9 Q 92.7 216.7 86 216.7 Q 83.2 216.7 80.65 216 Q 78.1 215.3 75.8 212.8 Q 73.5 210.3 73.5 206.4 Z " fill="black"/>
    <rect x="43.5" y="165.5" width="30.000002" height="75" stroke="lightgray" stroke-width="1" fill="none"/>
    <path d="M 65.1 193.4 L 65.1 205.6 Q 65.1 206.4 65.6 206.9 Q 66.1 207.4 66.9 207.4 Q 67.2 207.4 67.5 207.3 L 68.3 207 Q 68.6 206.9 69 206.9 Q 69.8 206.9 70.4 207.5 Q 71 208.1 71 208.9 L 71 214.9 Q 71 216.2 69.7 216.7 L 66.3 218 Q 65.1 218.5 65.1 219.6 L 65.1 234.2 Q 65.1 235 64.55 235.55 Q 64 236.1 63.300003 236.1 Q 62.5 236.1 61.95 235.55 Q 61.4 235 61.4 234.2 L 61.4 222.3 Q 61.4 221.5 60.85 221 Q 60.300003 220.5 59.6 220.5 Q 59.2 220.5 58.9 220.6 L 54.3 222.4 Q 53.1 222.8 53.1 224 L 53.1 238.6 Q 53.1 239.4 52.5 239.95 Q 51.9 240.5 51.2 240.5 Q 50.5 240.5 49.95 239.95 Q 49.4 239.4 49.4 238.6 L 49.4 226.7 Q 49.4 225.9 48.85 225.4 Q 48.3 224.9 47.6 224.9 Q 47.3 224.9 47 225 L 46.2 225.3 Q 46 225.4 45.5 225.4 Q 44.7 225.4 44.1 224.8 Q 43.5 224.2 43.5 223.4 L 43.5 217.4 Q 43.5 216 44.8 215.5 L 48.2 214.3 Q 49.4 214 49.4 212.6 L 49.4 200.4 Q 49.4 199.6 48.85 199.1 Q 48.3 198.6 47.6 198.6 Q 47.3 198.6 47.1 198.7 L 46.2 199 Q 46 199.1 45.5 199.1 Q 44.7 199.1 44.1 198.5 Q 43.5 197.9 43.5 197.1 L 43.5 191.1 Q 43.5 189.8 44.8 189.3 L 48.3 188 Q 49.4 187.5 49.4 186.4 L 49.4 171.8 Q 49.4 171 49.95 170.45 Q 50.5 169.9 51.2 169.9 Q 51.9 169.9 52.5 170.45 Q 53.1 171 53.1 171.8 L 53.1 183.7 Q 53.1 184.5 53.65 185 Q 54.2 185.5 55 185.5 Q 55.3 185.5 55.6 185.4 L 60.2 183.6 Q 61.4 183.1 61.4 181.9 L 61.4 167.4 Q 61.4 166.6 61.95 166.05 Q 62.5 165.5 63.300003 165.5 Q 64 165.5 64.55 166.05 Q 65.1 166.6 65.1 167.4 L 65.1 179.4 Q 65.1 180.1 65.6 180.6 Q 66.1 181.1 66.8 181.1 Q 67.1 181.1 67.5 181 L 68.3 180.7 Q 68.5 180.6 69 180.6 Q 69.8 180.6 70.4 181.2 Q 71 181.8 71 182.6 L 71 188.6 Q 71 190 69.7 190.5 L 66.3 191.7 Q 65.1 192 65.1 193.4 Z M 61.4 208.2 L 61.4 196.1 Q 61.4 195.4 60.85 194.85 Q 60.300003 194.3 59.6 194.3 Q 59.3 194.3 59 194.4 L 54.3 196.1 Q 53.1 196.6 53.1 197.8 L 53.1 209.9 Q 53.1 210.7 53.6 211.2 Q 54.1 211.7 54.9 211.7 Q 55.2 211.7 55.5 211.6 L 60.2 209.9 Q 61.4 209.4 61.4 208.2 Z " fill="black"/>
    <ellipse cx="78.5" cy="463.5" rx="5" ry="5" stroke="gray" stroke-width="1" fill="none"/>
    <rect x="133.5" y="215.5" width="32.5" height="25" stroke="lightgray" stroke-width="1" fill="none"/>
    <path d="M 133.5 231.4 Q 133.5 225.4 140.1 219.85 Q 146.7 214.3 153.6 214.3 Q 156.4 214.3 158.95 215 Q 161.5 215.7 163.8 218.2 Q 166.1 220.7 166.1 224.6 Q 166.1 230.1 159.4 235.9 Q 152.7 241.7 146 241.7 Q 143.2 241.7 140.65 241 Q 138.1 240.3 135.8 237.8 Q 133.5 235.3 133.5 231.4 Z " fill="black"/>
    <rect x="133.5" y="471" width="32.5" height="25" stroke="lightgray" stroke-width="1" fill="none"/>
    <path d="M 133.5 486.9 Q 133.5 480.9 140.1 475.35 Q 146.7 469.8 153.6 469.8 Q 156.4 469.8 158.95 470.5 Q 161.5 471.2 163.8 473.7 Q 166.1 476.2 166.1 480.1 Q 166.1 485.6 159.4 491.4 Q 152.7 497.2 146 497.2 Q 143.2 497.2 140.65 496.5 Q 138.1 495.8 135.8 493.3 Q 133.5 490.8 133.5 486.9 Z " fill="black"/>
    <rect x="163" y="381" width="3" height="102.5" stroke="lightgray" stroke-width="1" fill="none"/>
    <rect x="163" y="381" width="3" height="102.5" fill="black"/>
    <rect x="133.5" y="368.5" width="32.5" height="25" stroke="lightgray" stroke-width="1" fill="none"/>
    <rect x="193.5" y="240.5" width="32.5" height="25" stroke="lightgray" stroke-width="1" fill="none"/>
    <path d="M 193.5 256.4 Q 193.5 250.4 200.1 244.85 Q 206.7 239.3 213.6 239.3 Q 216.4 239.3 218.95 240 Q 221.5 240.7 223.8 243.2 Q 226.1 245.7 226.1 249.6 Q 226.1 255.1 219.4 260.9 Q 212.7 266.7 206 266.7 Q 203.2 266.7 200.65 266 Q 198.1 265.3 195.8 262.8 Q 193.5 260.3 193.5 256.4 Z " fill="black"/>
    <rect x="193.5" y="253" width="3" height="102.5" stroke="lightgray" stroke-width="1" fill="none"/>
    <rect x="193.5" y="253" width="3" height="102.5" fill="black"/>
    <rect x="193.5" y="343" width="32.5" height="25" stroke="lightgray" stroke-width="1" fill="none"/>
    <ellipse cx="198.5" cy="463.5" rx="5" ry="5" stroke="gray" stroke-width="1" fill="none"/>
    <rect x="253.5" y="128" width="32.5" height="25" stroke="lightgray" stroke-width="1" fill="none"/>
    <path d="M 253.5 143.9 Q 253.5 137.9 260.1 132.35 Q 266.7 126.8 273.6 126.8 Q 276.4 126.8 278.95 127.5 Q 281.5 128.2 283.8 130.7 Q 286.1 133.2 286.1 137.1 Q 286.1 142.6 279.4 148.4 Q 272.7 154.2 266 154.2 Q 263.2 154.2 260.65 153.5 Q 258.1 152.8 255.8 150.3 Q 253.5 147.8 253.5 143.9 Z " fill="black"/>
    <rect x="253.5" y="190.5" width="32.5" height="25" stroke="lightgray" stroke-width="1" fill="none"/>
    <path d="M 253.5 206.4 Q 253.5 200.4 260.1 194.85 Q 266.7 189.3 273.6 189.3 Q 276.4 189.3 278.95 190 Q 281.5 190.7 283.8 193.2 Q 286.1 195.7 286.1 199.6 Q 286.1 205.1 279.4 210.9 Q 272.7 216.7 266 216.7 Q 263.2 216.7 260.65 216 Q 258.1 215.3 255.8 212.8 Q 253.5 210.3 253.5 206.4 Z " fill="black"/>
    <rect x="283" y="38" width="3" height="102.5" stroke="lightgray" stroke-width="1" fill="none"/>
    <rect x="283" y="38" width="3" height="102.5" fill="black"/>
    <rect x="253.5" y="203" width="3" height="102.5" stroke="lightgray" stroke-width="1" fill="none"/>
    <rect x="253.5" y="203" width="3" height="102.5" fill="black"/>
    <rect x="253.5" y="293" width="50" height="25" stroke="lightgray" stroke-width="1" fill="none"/>
    <rect x="253.5" y="496" width="32.5" height="25" stroke="lightgray" stroke-width="1" fill="none"/>
    <path d="M 253.5 511.9 Q 253.5 505.9 260.1 500.35 Q 266.7 494.8 273.6 494.8 Q 276.4 494.8 278.95 495.5 Q 281.5 496.2 283.8 498.7 Q 286.1 501.2 286.1 505.1 Q 286.1 510.6 279.4 516.4 Q 272.7 522.2 266 522.2 Q 263.2 522.2 260.65 521.5 Q 258.1 520.8 255.8 518.3 Q 253.5 515.8 253.5 511.9 Z " fill="black"/>
    <rect x="283" y="393.5" width="3" height="115" stroke="lightgray" stroke-width="1" fill="none"/>
    <rect x="283" y="393.5" width="3" height="115" fill="black"/>
    <rect x="253.5" y="381" width="50" height="25" stroke="lightgray" stroke-width="1" fill="none"/>
    <rect x="328.5" y="178" width="32.5" height="25" stroke="lightgray" stroke-width="1" fill="none"/>
    <path d="M 328.5 193.9 Q 328.5 187.9 335.1 182.35 Q 341.7 176.8 348.6 176.8 Q 351.4 176.8 353.95 177.5 Q 356.5 178.2 358.8 180.7 Q 361.1 183.2 361.1 187.1 Q 361.1 192.6 354.4 198.4 Q 347.7 204.2 341 204.2 Q 338.2 204.2 335.65 203.5 Q 333.1 202.8 330.8 200.3 Q 328.5 197.8 328.5 193.9 Z " fill="black"/>
    <rect x="328.5" y="458.5" width="32.5" height="25" stroke="lightgray" stroke-width="1" fill="none"/>
    <path d="M 328.5 474.4 Q 328.5 468.4 335.1 462.85 Q 341.7 457.3 348.6 457.3 Q 351.4 457.3 353.95 458 Q 356.5 458.7 358.8 461.2 Q 361.1 463.7 361.1 467.6 Q 361.1 473.1 354.4 478.9 Q 347.7 484.7 341 484.7 Q 338.2 484.7 335.65 484 Q 333.1 483.3 330.8 480.8 Q 328.5 478.3 328.5 474.4 Z " fill="black"/>
    <rect x="358" y="368.5" width="3" height="102.5" stroke="lightgray" stroke-width="1" fill="none"/>
    <rect x="358" y="368.5" width="3" height="102.5" fill="black"/>
    <rect x="328.5" y="356" width="32.5" height="25" stroke="lightgray" stroke-width="1" fill="none"/>
    <rect x="388.5" y="165.5" width="32.5" height="25" stroke="lightgray" stroke-width="1" fill="none"/>
    <path d="M 388.5 181.4 Q 388.5 175.4 395.1 169.85 Q 401.7 164.3 408.6 164.3 Q 411.4 164.3 413.95 165 Q 416.5 165.7 418.8 168.2 Q 421.1 170.7 421.1 174.6 Q 421.1 180.1 414.4 185.9 Q 407.7 191.7 401 191.7 Q 398.2 191.7 395.65 191 Q 393.1 190.3 390.8 187.8 Q 388.5 185.3 388.5 181.4 Z " fill="black"/>
    <rect x="388.5" y="178" width="3" height="115" stroke="lightgray" stroke-width="1" fill="none"/>
    <rect x="388.5" y="178" width="3" height="115" fill="black"/>
    <rect x="388.5" y="280.5" width="32.5" height="25" stroke="lightgray" stroke-width="1" fill="none"/>
    <ellipse cx="393.5" cy="463.5" rx="5" ry="5" stroke="gray" stroke-width="1" fill="none"/>
    <rect x="448.5" y="135.5" width="5" height="60" stroke="orange" stroke-width="1" fill="none"/>
    <rect x="448.5" y="428.5" width="5" height="60" stroke="orange" stroke-width="1" fill="none"/>
    <rect x="453.5" y="140.5" width="32.5" height="25" stroke="lightgray" stroke-width="1" fill="none"/>
    <path d="M 453.5 156.4 Q 453.5 150.4 460.1 144.85 Q 466.7 139.3 473.6 139.3 Q 476.4 139.3 478.95 140 Q 481.5 140.7 483.8 143.2 Q 486.1 145.7 486.1 149.6 Q 486.1 155.1 479.4 160.9 Q 472.7 166.7 466 166.7 Q 463.2 166.7 460.65 166 Q 458.1 165.3 455.8 162.8 Q 453.5 160.3 453.5 156.4 Z " fill="black"/>
    <rect x="453.5" y="178" width="32.5" height="25" stroke="lightgray" stroke-width="1" fill="none"/>
    <path d="M 453.5 193.9 Q 453.5 187.9 460.1 182.35 Q 466.7 176.8 473.6 176.8 Q 476.4 176.8 478.95 177.5 Q 481.5 178.2 483.8 180.7 Q 486.1 183.2 486.1 187.1 Q 486.1 192.6 479.4 198.4 Q 472.7 204.2 466 204.2 Q 463.2 204.2 460.65 203.5 Q 458.1 202.8 455.8 200.3 Q 453.5 197.8 453.5 193.9 Z " fill="black"/>
    <rect x="486" y="184.25" width="20" height="12.5" stroke="lightgray" stroke-width="1" fill="none"/>
    <path d="M 492.25 190.5 Q 492.25 188.2 493.85 186.6 Q 495.45 185 497.75 185 Q 500.05 185 501.65 186.6 Q 503.25 188.2 503.25 190.5 Q 503.25 192.8 501.65 194.4 Q 500.05 196 497.75 196 Q 495.45 196 493.85 194.4 Q 492.25 192.8 492.25 190.5 Z " fill="black"/>
    <rect x="483" y="38" width="3" height="115" stroke="lightgray" stroke-width="1" fill="none"/>
    <rect x="483" y="38" width="3" height="115" fill="black"/>
    <rect x="453.5" y="25.5" width="50" height="25" stroke="lightgray" stroke-width="1" fill="none"/>
    <rect x="453.5" y="190.5" width="3" height="102.5" stroke="lightgray" stroke-width="1" fill="none"/>
    <rect x="453.5" y="190.5" width="3" height="102.5" fill="black"/>
    <rect x="453.5" y="446" width="32.5" height="25" stroke="lightgray" stroke-width="1" fill="none"/>
    <path d="M 453.5 461.9 Q 453.5 455.9 460.1 450.35 Q 466.7 444.8 473.6 444.8 Q 476.4 444.8 478.95 445.5 Q 481.5 446.2 483.8 448.7 Q 486.1 451.2 486.1 455.1 Q 486.1 460.6 479.4 466.4 Q 472.7 472.2 466 472.2 Q 463.2 472.2 460.65 471.5 Q 458.1 470.8 455.8 468.3 Q 453.5 465.8 453.5 461.9 Z " fill="black"/>
    <rect x="483" y="356" width="3" height="102.5" stroke="lightgray" stroke-width="1" fill="none"/>
    <rect x="483" y="356" width="3" height="102.5" fill="black"/>
    <rect x="453.5" y="343.5" width="50" height="25" stroke="lightgray" stroke-width="1" fill="none"/>
    <rect x="513.5" y="128" width="32.5" height="25" stroke="lightgray" stroke-width="1" fill="none"/>
    <path d="M 513.5 143.9 Q 513.5 137.9 520.1 132.35 Q 526.7 126.8 533.6 126.8 Q 536.4 126.8 538.95 127.5 Q 541.5 128.2 543.8 130.7 Q 546.1 133.2 546.1 137.1 Q 546.1 142.6 539.4 148.4 Q 532.7 154.2 526 154.2 Q 523.2 154.2 520.65 153.5 Q 518.1 152.8 515.8 150.3 Q 513.5 147.8 513.5 143.9 Z " fill="black"/>
    <ellipse cx="518.5" cy="463.5" rx="5" ry="5" stroke="gray" stroke-width="1" fill="none"/>
    <ellipse cx="578.5" cy="170.5" rx="5" ry="5" stroke="gray" stroke-width="1" fill="none"/>
    <rect x="573.5" y="471" width="32.5" height="25" stroke="lightgray" stroke-width="1" fill="none"/>
    <path d="M 573.5 486.9 Q 573.5 480.9 580.1 475.35 Q 586.7 469.8 593.6 469.8 Q 596.4 469.8 598.95 470.5 Q 601.5 471.2 603.8 473.7 Q 606.1 476.2 606.1 480.1 Q 606.1 485.6 599.4 491.4 Q 592.7 497.2 586 497.2 Q 583.2 497.2 580.65 496.5 Q 578.1 495.8 575.8 493.3 Q 573.5 490.8 573.5 486.9 Z " fill="black"/>
    <rect x="603" y="381" width="3" height="102.5" stroke="lightgray" stroke-width="1" fill="none"/>
    <rect x="603" y="381" width="3" height="102.5" fill="black"/>
    <rect x="573.5" y="368.5" width="32.5" height="25" stroke="lightgray" stroke-width="1" fill="none"/>
    <rect x="633.5" y="115.5" width="32.5" height="25" stroke="lightgray" stroke-width="1" fill="none"/>
    <path d="M 633.5 131.4 Q 633.5 125.4 640.1 119.85 Q 646.7 114.3 653.6 114.3 Q 656.4 114.3 658.95 115 Q 661.5 115.7 663.8 118.2 Q 666.1 120.7 666.1 124.6 Q 666.1 130.1 659.4 135.9 Q 652.7 141.7 646 141.7 Q 643.2 141.7 640.65 141 Q 638.1 140.3 635.8 137.8 Q 633.5 135.3 633.5 131.4 Z " fill="black"/>
    <rect x="663" y="25.5" width="3" height="102.5" stroke="lightgray" stroke-width="1" fill="none"/>
    <rect x="663" y="25.5" width="3" height="102.5" fill="black"/>
    <rect x="633.5" y="13" width="32.5" height="25" stroke="lightgray" stroke-width="1" fill="none"/>
    <ellipse cx="638.5" cy="463.5" rx="5" ry="5" stroke="gray" stroke-width="1" fill="none"/>
    <rect x="693.5" y="103" width="32.5" height="25" stroke="lightgray" stroke-width="1" fill="none"/>
    <path d="M 693.5 118.9 Q 693.5 112.9 700.1 107.35 Q 706.7 101.8 713.6 101.8 Q 716.4 101.8 718.95 102.5 Q 721.5 103.2 723.8 105.7 Q 726.1 108.2 726.1 112.1 Q 726.1 117.6 719.4 123.4 Q 712.7 129.2 706 129.2 Q 703.2 129.2 700.65 128.5 Q 698.1 127.8 695.8 125.3 Q 693.5 122.8 693.5 118.9 Z " fill="black"/>
    <rect x="723" y="13" width="3" height="102.5" stroke="lightgray" stroke-width="1" fill="none"/>
    <rect x="723" y="13" width="3" height="102.5" fill="black"/>
    <rect x="693.5" y="0.5" width="50" height="25" stroke="lightgray" stroke-width="1" fill="none"/>
    <rect x="693.5" y="496" width="32.5" height="25" stroke="lightgray" stroke-width="1" fill="none"/>
    <path d="M 693.5 511.9 Q 693.5 505.9 700.1 500.35 Q 706.7 494.8 713.6 494.8 Q 716.4 494.8 718.95 495.5 Q 721.5 496.2 723.8 498.7 Q 726.1 501.2 726.1 505.1 Q 726.1 510.6 719.4 516.4 Q 712.7 522.2 706 522.2 Q 703.2 522.2 700.65 521.5 Q 698.1 520.8 695.8 518.3 Q 693.5 515.8 693.5 511.9 Z " fill="black"/>
    <rect x="723" y="393.5" width="3" height="115" stroke="lightgray" stroke-width="1" fill="none"/>
    <rect x="723" y="393.5" width="3" height="115" fill="black"/>
    <rect x="693.5" y="381" width="50" height="25" stroke="lightgray" stroke-width="1" fill="none"/>
    <rect x="753.5" y="128" width="32.5" height="25" stroke="lightgray" stroke-width="1" fill="none"/>
    <path d="M 753.5 143.9 Q 753.5 137.9 760.1 132.35 Q 766.7 126.8 773.6 126.8 Q 776.4 126.8 778.95 127.5 Q 781.5 128.2 783.8 130.7 Q 786.1 133.2 786.1 137.1 Q 786.1 142.6 779.4 148.4 Q 772.7 154.2 766 154.2 Q 763.2 154.2 760.65 153.5 Q 758.1 152.8 755.8 150.3 Q 753.5 147.8 753.5 143.9 Z " fill="black"/>
    <rect x="786" y="134.25" width="20" height="12.5" stroke="lightgray" stroke-width="1" fill="none"/>
    <path d="M 792.25 140.5 Q 792.25 138.2 793.85 136.6 Q 795.45 135 797.75 135 Q 800.05 135 801.65 136.6 Q 803.25 138.2 803.25 140.5 Q 803.25 142.8 801.65 144.4 Q 800.05 146 797.75 146 Q 795.45 146 793.85 144.4 Q 792.25 142.8 792.25 140.5 Z " fill="black"/>
    <rect x="783" y="38" width="3" height="102.5" stroke="lightgray" stroke-width="1" fill="none"/>
    <rect x="783" y="38" width="3" height="102.5" fill="black"/>
    <rect x="753.5" y="25.5" width="32.5" height="25" stroke="lightgray" stroke-width="1" fill="none"/>
    <ellipse cx="758.5" cy="463.5" rx="5" ry="5" stroke="gray" stroke-width="1" fill="none"/>
    <rect x="813.5" y="190.5" width="32.5" height="25" stroke="lightgray" stroke-width="1" fill="none"/>
    <path d="M 813.5 206.4 Q 813.5 200.4 820.1 194.85 Q 826.7 189.3 833.6 189.3 Q 836.4 189.3 838.95 190 Q 841.5 190.7 843.8 193.2 Q 846.1 195.7 846.1 199.6 Q 846.1 205.1 839.4 210.9 Q 832.7 216.7 826 216.7 Q 823.2 216.7 820.65 216 Q 818.1 215.3 815.8 212.8 Q 813.5 210.3 813.5 206.4 Z " fill="black"/>
    <rect x="813.5" y="203" width="3" height="102.5" stroke="lightgray" stroke-width="1" fill="none"/>
    <rect x="813.5" y="203" width="3" height="102.5" fill="black"/>
    <rect x="813.5" y="458.5" width="32.5" height="25" stroke="lightgray" stroke-width="1" fill="none"/>
    <path d="M 813.5 474.4 Q 813.5 468.4 820.1 462.85 Q 826.7 457.3 833.6 457.3 Q 836.4 457.3 838.95 458 Q 841.5 458.7 843.8 461.2 Q 846.1 463.7 846.1 467.6 Q 846.1 473.1 839.4 478.9 Q 832.7 484.7 826 484.7 Q 823.2 484.7 820.65 484 Q 818.1 483.3 815.8 480.8 Q 813.5 478.3 813.5 474.4 Z " fill="black"/>
    <rect x="843" y="368.5" width="3" height="102.5" stroke="lightgray" stroke-width="1" fill="none"/>
    <rect x="843" y="368.5" width="3" height="102.5" fill="black"/>
    <rect x="813.5" y="356" width="32.5" height="25" stroke="lightgray" stroke-width="1" fill="none"/>
    <rect x="888.5" y="135.5" width="5" height="60" stroke="orange" stroke-width="1" fill="none"/>
    <rect x="888.5" y="428.5" width="5" height="60" stroke="orange" stroke-width="1" fill="none"/>
    <rect x="893.5" y="190.5" width="32.5" height="25" stroke="lightgray" stroke-width="1" fill="none"/>
    <path d="M 893.5 206.4 Q 893.5 200.4 900.1 194.85 Q 906.7 189.3 913.6 189.3 Q 916.4 189.3 918.95 190 Q 921.5 190.7 923.8 193.2 Q 926.1 195.7 926.1 199.6 Q 926.1 205.1 919.4 210.9 Q 912.7 216.7 906 216.7 Q 903.2 216.7 900.65 216 Q 898.1 215.3 895.8 212.8 Q 893.5 210.3 893.5 206.4 Z " fill="black"/>
    <rect x="923" y="100.5" width="3" height="102.5" stroke="lightgray" stroke-width="1" fill="none"/>
    <rect x="923" y="100.5" width="3" height="102.5" fill="black"/>
    <rect x="893.5" y="446" width="32.5" height="25" stroke="lightgray" stroke-width="1" fill="none"/>
    <path d="M 893.5 461.9 Q 893.5 455.9 900.1 450.35 Q 906.7 444.8 913.6 444.8 Q 916.4 444.8 918.95 445.5 Q 921.5 446.2 923.8 448.7 Q 926.1 451.2 926.1 455.1 Q 926.1 460.6 919.4 466.4 Q 912.7 472.2 906 472.2 Q 903.2 472.2 900.65 471.5 Q 898.1 470.8 895.8 468.3 Q 893.5 465.8 893.5 461.9 Z " fill="black"/>
    <rect x="893.5" y="458.5" width="3" height="102.5" stroke="lightgray" stroke-width="1" fill="none"/>
    <rect x="893.5" y="458.5" width="3" height="102.5" fill="black"/>
    <rect x="968.5" y="140.5" width="25" height="50" stroke="lightgray" stroke-width="1" fill="none"/>
    <path d="M 984.2 159 Q 980 160.1 977.2 160.1 Q 973.7 160.1 971.1 157.85 Q 968.5 155.6 968.5 152.2 Q 968.5 149.2 970.65 147.1 Q 972.8 145 975.8 145 Q 977.7 145 979.25 146.05 Q 980.8 147.1 981.4 148.9 Q 981.6 149.5 982 151.45 Q 982.4 153.4 983 154.1 Q 983.6 154.8 984.9 154.8 Q 986 154.8 988.15 152.35 Q 990.3 149.9 991 148.5 Q 991.4 147.6 992.4 147.6 Q 993.4 147.6 993.8 148.5 L 981.5 190.5 Q 980.4 191.5 978.8 191.5 Q 977.1 191.5 976 190.5 L 986.4 161.4 Q 986.8 160.3 986.1 159.6 Q 985.3 158.6 984.2 159 Z " fill="black"/>
    <ellipse cx="973.5" cy="463.5" rx="5" ry="5" stroke="gray" stroke-width="1" fill="none"/>
    <rect x="1043.5" y="103" width="32.5" height="25" stroke="lightgray" stroke-width="1" fill="none"/>
    <path d="M 1043.5 118.9 Q 1043.5 112.9 1050.1 107.35 Q 1056.7 101.8 1063.6 101.8 Q 1066.4 101.8 1068.95 102.5 Q 1071.5 103.2 1073.8 105.7 Q 1076.1 108.2 1076.1 112.1 Q 1076.1 117.6 1069.4 123.4 Q 1062.7 129.2 1056 129.2 Q 1053.2 129.2 1050.65 128.5 Q 1048.1 127.8 1045.8 125.3 Q 1043.5 122.8 1043.5 118.9 Z " fill="black"/>
    <rect x="1043.5" y="115.5" width="3" height="102.5" stroke="lightgray" stroke-width="1" fill="none"/>
    <rect x="1043.5" y="115.5" width="3" height="102.5" fill="black"/>
    <rect x="1043.5" y="205.5" width="50" height="25" stroke="lightgray" stroke-width="1" fill="none"/>
    <rect x="1043.5" y="423.5" width="25" height="70" stroke="lightgray" stroke-width="1" fill="none"/>
    <path d="M 1054 468.9 Q 1054.7 468.9 1055.15 468.45 Q 1055.6 468 1055.6 467.4 Q 1055.6 466.8 1055.2 466.4 L 1048 458.3 Q 1045 454.9 1045 452 Q 1045 449.5 1052.1 443.3 Q 1055.8 440 1055.8 435 Q 1055.8 431.1 1053.3 428.1 L 1049.8 423.9 Q 1049.4 423.4 1049.4 422.9 Q 1049.4 421.4 1050.8 421.4 Q 1051.7 421.4 1052.3 422.1 L 1067.3 439.9 Q 1068.3 441.1 1068.3 442.4 Q 1068.3 443.5 1067.5 444.7 Q 1066.7 445.9 1065.8 446.75 Q 1064.9 447.6 1063.15 449.05 Q 1061.4 450.5 1060.7 451.2 Q 1056.5 455.1 1056.5 459.8 Q 1056.5 463.4 1060.6 467.8 L 1069 476.9 Q 1069.4 477.3 1069.4 477.9 Q 1069.4 478.5 1068.95 478.95 Q 1068.5 479.4 1068 479.4 Q 1067.3 479.4 1065.9 478.3 Q 1062.2 475.5 1058 475.5 Q 1055.1 475.5 1052.95 477.75 Q 1050.8 480 1050.8 482.9 Q 1050.8 484.2 1051 485.25 Q 1051.2 486.3 1051.75 487.4 Q 1052.3 488.5 1052.5 488.9 Q 1052.7 489.3 1053.6 490.55 Q 1054.5 491.8 1054.6 491.9 Q 1054.9 492.3 1054.8 492.8 Q 1054.7 493.3 1054.25 493.55 Q 1053.8 493.8 1053.3 493.7 Q 1052.8 493.6 1052 492.8 Q 1048.6 489.3 1046.05 484.95 Q 1043.5 480.6 1043.5 477.4 Q 1043.5 473.5 1046.25 471.2 Q 1049 468.9 1054 468.9 Z " fill="black"/>
    <rect x="1118.5" y="78" width="32.5" height="25" stroke="lightgray" stroke-width="1" fill="none"/>
    <path d="M 1118.5 93.9 Q 1118.5 87.9 1125.1 82.35 Q 1131.7 76.8 1138.6 76.8 Q 1141.4 76.8 1143.95 77.5 Q 1146.5 78.2 1148.8 80.7 Q 1151.1 83.2 1151.1 87.1 Q 1151.1 92.6 1144.4 98.4 Q 1137.7 104.2 1131 104.2 Q 1128.2 104.2 1125.65 103.5 Q 1123.1 102.8 1120.8 100.3 Q 1118.5 97.8 1118.5 93.9 Z " fill="black"/>
    <rect x="1118.5" y="90.5" width="3" height="102.5" stroke="lightgray" stroke-width="1" fill="none"/>
    <rect x="1118.5" y="90.5" width="3" height="102.5" fill="black"/>
    <rect x="1118.5" y="180.5" width="32.5" height="25" stroke="lightgray" stroke-width="1" fill="none"/>
    <ellipse cx="1123.5" cy="463.5" rx="5" ry="5" stroke="gray" stroke-width="1" fill="none"/>
    <rect x="1193.5" y="160.5" width="10" height="10" stroke="orange" stroke-width="1" fill="none"/>
    <rect x="1193.5" y="453.5" width="10" height="10" stroke="orange" stroke-width="1" fill="none"/>
    <path d="M 10.5 316.5 L 196.5 341.5 L 196.5 356.5 L 10.5 331.5 Z " fill="black"/>
    <rect x="73.5" y="203" width="3" height="136.10655" fill="black"/>
    <rect x="133.5" y="228" width="3" height="119.30328" fill="black"/>
    <path d="M 253.5 291.5 L 391.5 279 L 391.5 294 L 253.5 306.5 Z " fill="black"/>
    <rect x="328.5" y="190.5" width="3" height="108.05556" fill="black"/>
    <path d="M 483 37 L 666 24.5 L 666 39.5 L 483 52 Z " fill="black"/>
    <rect x="543" y="33.83333" width="3" height="106.66667" fill="black"/>
    <path d="M 723 12 L 786 37 L 786 52 L 723 27 Z " fill="black"/>
    <path d="M 1043.5 204 L 1121.5 179 L 1121.5 194 L 1043.5 219 Z " fill="black"/>
    <path d="M 40 355 L 166 380 L 166 395 L 40 370 Z " fill="black"/>
    <path d="M 283 392.5 L 361 367.5 L 361 382.5 L 283 407.5 Z " fill="black"/>
    <path d="M 483 355 L 606 380 L 606 395 L 483 370 Z " fill="black"/>
    <path d="M 723 392.5 L 846 367.5 L 846 382.5 L 723 407.5 Z " fill="black"/>
    <rect x="0" y="0" width="1204" height="561.5" stroke="black" stroke-width="1" fill="none"/>
</svg>
