<svg xmlns="http://www.w3.org/2000/svg" xmlns:xlink="http://www.w3.org/1999/xlink" viewBox="0 0 867.69995 129.63571">
    <line x1="1.35" y1="1.3499985" x2="866.35" y2="1.3499985" stroke="black" stroke-width="2.7"/>
    <line x1="1.35" y1="26.349998" x2="866.35" y2="26.349998" stroke="black" stroke-width="2.7"/>
    <line x1="1.35" y1="51.35" x2="866.35" y2="51.35" stroke="black" stroke-width="2.7"/>
    <line x1="1.35" y1="76.35" x2="866.35" y2="76.35" stroke="black" stroke-width="2.7"/>
    <line x1="1.35" y1="101.35" x2="866.35" y2="101.35" stroke="black" stroke-width="2.7"/>
    <rect x="1.35" y="46.35" width="10" height="10" stroke="orange" stroke-width="1" fill="none"/>
    <rect x="11.35" y="13.849998" width="32.5" height="25" stroke="red" stroke-width="1" fill="none"/>
    <path d="M 11.35 29.749998 Q 11.35 23.749998 17.95 18.199997 Q 24.550001 12.649998 31.45 12.649998 Q 34.25 12.649998 36.8 13.349998 Q 39.35 14.049999 41.65 16.55 Q 43.95 19.05 43.95 22.949999 Q 43.95 28.449999 37.25 34.25 Q 30.550001 40.05 23.85 40.05 Q 21.050001 40.05 18.5 39.35 Q 15.950001 38.649998 13.650001 36.149998 Q 11.35 33.649998 11.35 29.749998 Z " fill="black"/>
    <rect x="43.85" y="13.849998" width="25" height="25" stroke="red" stroke-width="1" fill="none"/>
    <rect x="11.35" y="40.63571" width="35" height="75" stroke="red" stroke-width="1" fill="none"/>
    <rect x="11.35" y="26.349998" width="3" height="89.28571" stroke="red" stroke-width="1" fill="none"/>
    <rect x="116.35" y="13.849998" width="32.5" height="25" stroke="red" stroke-width="1" fill="none"/>
    <path d="M 116.35 29.749998 Q 116.35 23.749998 122.95 18.199997 Q 129.55 12.649998 136.45001 12.649998 Q 139.25 12.649998 141.8 13.349998 Q 144.35 14.049999 146.65001 16.55 Q 148.95001 19.05 148.95001 22.949999 Q 148.95001 28.449999 142.25 34.25 Q 135.55 40.05 128.85 40.05 Q 126.049995 40.05 123.5 39.35 Q 120.95 38.649998 118.65 36.149998 Q 116.35 33.649998 116.35 29.749998 Z " fill="black"/>
    <rect x="116.35" y="40.63571" width="35" height="75" stroke="red" stroke-width="1" fill="none"/>
    <rect x="116.35" y="26.349998" width="3" height="89.28571" stroke="red" stroke-width="1" fill="none"/>
    <rect x="221.35" y="16.349998" width="25" height="70" stroke="red" stroke-width="1" fill="none"/>
    <path d="M 231.85 61.75 Q 232.55 61.75 233 61.3 Q 233.45001 60.85 233.45001 60.25 Q 233.45001 59.649998 233.05 59.25 L 225.85 51.149998 Q 222.85 47.75 222.85 44.85 Q 222.85 42.35 229.95001 36.149998 Q 233.65001 32.85 233.65001 27.849998 Q 233.65001 23.949999 231.15001 20.949997 L 227.65001 16.749996 Q 227.25 16.249996 227.25 15.749996 Q 227.25 14.249996 228.65001 14.249996 Q 229.55 14.249996 230.15001 14.949997 L 245.15001 32.75 Q 246.15001 33.949997 246.15001 35.25 Q 246.15001 36.35 245.35 37.549995 Q 244.55 38.75 243.65001 39.6 Q 242.75 40.449997 241 41.899998 Q 239.25 43.35 238.55 44.05 Q 234.35 47.949997 234.35 52.649998 Q 234.35 56.25 238.45001 60.649998 L 246.85 69.75 Q 247.25 70.15 247.25 70.75 Q 247.25 71.35 246.8 71.8 Q 246.35 72.25 245.85 72.25 Q 245.15001 72.25 243.75 71.15 Q 240.05 68.35 235.85 68.35 Q 232.95001 68.35 230.8 70.6 Q 228.65001 72.85 228.65001 75.75 Q 228.65001 77.05 228.85 78.1 Q 229.05 79.15 229.6 80.25 Q 230.15001 81.35 230.35 81.75 Q 230.55 82.15 231.45001 83.4 Q 232.35 84.65 232.45001 84.75 Q 232.75 85.15 232.65001 85.65 Q 232.55 86.149994 232.1 86.399994 Q 231.65001 86.649994 231.15001 86.55 Q 230.65001 86.45 229.85 85.65 Q 226.45001 82.15 223.90001 77.8 Q 221.35 73.45 221.35 70.25 Q 221.35 66.35 224.1 64.049995 Q 226.85 61.75 231.85 61.75 Z " fill="black"/>
    <rect x="326.35" y="13.849998" width="32.5" height="25" stroke="red" stroke-width="1" fill="none"/>
    <path d="M 326.35 29.749998 Q 326.35 23.749998 332.95 18.199997 Q 339.55002 12.649998 346.45 12.649998 Q 349.25 12.649998 351.80002 13.349998 Q 354.35 14.049999 356.65 16.55 Q 358.95 19.05 358.95 22.949999 Q 358.95 28.449999 352.25 34.25 Q 345.55002 40.05 338.85 40.05 Q 336.05002 40.05 333.5 39.35 Q 330.95 38.649998 328.65 36.149998 Q 326.35 33.649998 326.35 29.749998 Z " fill="black"/>
    <rect x="358.85" y="13.849998" width="25" height="25" stroke="red" stroke-width="1" fill="none"/>
    <rect x="326.35" y="40.63571" width="35" height="75" stroke="red" stroke-width="1" fill="none"/>
    <rect x="326.35" y="26.349998" width="3" height="89.28571" stroke="red" stroke-width="1" fill="none"/>
    <rect x="431.35" y="21.349998" width="5" height="60" stroke="orange" stroke-width="1" fill="none"/>
    <rect x="436.35" y="13.849998" width="32.5" height="25" stroke="red" stroke-width="1" fill="none"/>
    <path d="M 436.35 29.749998 Q 436.35 23.749998 442.95 18.199997 Q 449.55002 12.649998 456.45 12.649998 Q 459.25 12.649998 461.80002 13.349998 Q 464.35 14.049999 466.65 16.55 Q 468.95 19.05 468.95 22.949999 Q 468.95 28.449999 462.25 34.25 Q 455.55002 40.05 448.85 40.05 Q 446.05002 40.05 443.5 39.35 Q 440.95 38.649998 438.65 36.149998 Q 436.35 33.649998 436.35 29.749998 Z " fill="black"/>
    <rect x="436.35" y="40.63571" width="35" height="75" stroke="red" stroke-width="1" fill="none"/>
    <rect x="436.35" y="26.349998" width="3" height="89.28571" stroke="red" stroke-width="1" fill="none"/>
    <rect x="541.35" y="16.349998" width="25" height="70" stroke="red" stroke-width="1" fill="none"/>
    <path d="M 551.85 61.75 Q 552.55 61.75 553 61.3 Q 553.44995 60.85 553.44995 60.25 Q 553.44995 59.649998 553.05 59.25 L 545.85 51.149998 Q 542.85 47.75 542.85 44.85 Q 542.85 42.35 549.94995 36.149998 Q 553.64996 32.85 553.64996 27.849998 Q 553.64996 23.949999 551.14996 20.949997 L 547.64996 16.749996 Q 547.25 16.249996 547.25 15.749996 Q 547.25 14.249996 548.64996 14.249996 Q 549.55 14.249996 550.14996 14.949997 L 565.14996 32.75 Q 566.14996 33.949997 566.14996 35.25 Q 566.14996 36.35 565.35 37.549995 Q 564.55 38.75 563.64996 39.6 Q 562.75 40.449997 561 41.899998 Q 559.25 43.35 558.55 44.05 Q 554.35 47.949997 554.35 52.649998 Q 554.35 56.25 558.44995 60.649998 L 566.85 69.75 Q 567.25 70.15 567.25 70.75 Q 567.25 71.35 566.8 71.8 Q 566.35 72.25 565.85 72.25 Q 565.14996 72.25 563.75 71.15 Q 560.05 68.35 555.85 68.35 Q 552.94995 68.35 550.8 70.6 Q 548.64996 72.85 548.64996 75.75 Q 548.64996 77.05 548.85 78.1 Q 549.05 79.15 549.6 80.25 Q 550.14996 81.35 550.35 81.75 Q 550.55 82.15 551.44995 83.4 Q 552.35 84.65 552.44995 84.75 Q 552.75 85.15 552.64996 85.65 Q 552.55 86.149994 552.1 86.399994 Q 551.64996 86.649994 551.14996 86.55 Q 550.64996 86.45 549.85 85.65 Q 546.44995 82.15 543.89996 77.8 Q 541.35 73.45 541.35 70.25 Q 541.35 66.35 544.1 64.049995 Q 546.85 61.75 551.85 61.75 Z " fill="black"/>
    <rect x="646.35" y="13.849998" width="32.5" height="25" stroke="red" stroke-width="1" fill="none"/>
    <path d="M 646.35 29.749998 Q 646.35 23.749998 652.94995 18.199997 Q 659.55 12.649998 666.44995 12.649998 Q 669.25 12.649998 671.8 13.349998 Q 674.35 14.049999 676.64996 16.55 Q 678.94995 19.05 678.94995 22.949999 Q 678.94995 28.449999 672.25 34.25 Q 665.55 40.05 658.85 40.05 Q 656.05 40.05 653.5 39.35 Q 650.94995 38.649998 648.64996 36.149998 Q 646.35 33.649998 646.35 29.749998 Z " fill="black"/>
    <rect x="678.85" y="13.849998" width="25" height="25" stroke="red" stroke-width="1" fill="none"/>
    <rect x="646.35" y="40.63571" width="35" height="75" stroke="red" stroke-width="1" fill="none"/>
    <rect x="646.35" y="26.349998" width="3" height="89.28571" stroke="red" stroke-width="1" fill="none"/>
    <rect x="751.35" y="26.349998" width="32.5" height="25" stroke="red" stroke-width="1" fill="none"/>
    <path d="M 751.35 42.25 Q 751.35 36.25 757.94995 30.699997 Q 764.55 25.149998 771.44995 25.149998 Q 774.25 25.149998 776.8 25.849998 Q 779.35 26.55 781.64996 29.05 Q 783.94995 31.55 783.94995 35.449997 Q 783.94995 40.949997 777.25 46.75 Q 770.55 52.55 763.85 52.55 Q 761.05 52.55 758.5 51.85 Q 755.94995 51.149998 753.64996 48.649998 Q 751.35 46.149998 751.35 42.25 Z " fill="black"/>
    <rect x="751.35" y="53.13571" width="35" height="75" stroke="red" stroke-width="1" fill="none"/>
    <rect x="751.35" y="38.85" width="3" height="89.28571" stroke="red" stroke-width="1" fill="none"/>
    <rect x="856.35" y="46.35" width="10" height="10" stroke="orange" stroke-width="1" fill="none"/>
    <line x1="12.85" y1="30.349998" x2="12.85" y2="115.63571" stroke="black" stroke-width="3"/>
    <line x1="117.85" y1="30.349998" x2="117.85" y2="115.63571" stroke="black" stroke-width="3"/>
    <line x1="327.85" y1="30.349998" x2="327.85" y2="115.63571" stroke="black" stroke-width="3"/>
    <line x1="437.85" y1="30.349998" x2="437.85" y2="115.63571" stroke="black" stroke-width="3"/>
    <line x1="647.85" y1="30.349998" x2="647.85" y2="115.63571" stroke="black" stroke-width="3"/>
    <line x1="752.85" y1="42.85" x2="752.85" y2="128.13571" stroke="black" stroke-width="3"/>
    <rect x="0" y="0" width="867.69995" height="129.63571" stroke="black" stroke-width="1" fill="none"/>
</svg>
