<svg xmlns="http://www.w3.org/2000/svg" xmlns:xlink="http://www.w3.org/1999/xlink" viewBox="0 0 251 281">
    <rect x="0.5" y="135.5" width="10" height="10" stroke="orange" stroke-width="1" fill="none"/>
    <rect x="0.5" y="103" width="32.5" height="25" stroke="lightgray" stroke-width="1" fill="none"/>
    <path d="M 0.5 118.9 Q 0.5 112.9 7.1 107.35 Q 13.7 101.8 20.6 101.8 Q 23.4 101.8 25.95 102.5 Q 28.5 103.2 30.800001 105.7 Q 33.100002 108.2 33.100002 112.1 Q 33.100002 117.6 26.4 123.4 Q 19.7 129.2 13 129.2 Q 10.2 129.2 7.65 128.5 Q 5.1 127.8 2.8 125.3 Q 0.5 122.8 0.5 118.9 Z " fill="black"/>
    <rect x="0.5" y="165.5" width="32.5" height="25" stroke="lightgray" stroke-width="1" fill="none"/>
    <path d="M 0.5 181.4 Q 0.5 175.4 7.1 169.85 Q 13.7 164.3 20.6 164.3 Q 23.4 164.3 25.95 165 Q 28.5 165.7 30.800001 168.2 Q 33.100002 170.7 33.100002 174.6 Q 33.100002 180.1 26.4 185.9 Q 19.7 191.7 13 191.7 Q 10.2 191.7 7.65 191 Q 5.1 190.3 2.8 187.8 Q 0.5 185.3 0.5 181.4 Z " fill="black"/>
    <rect x="30" y="13" width="3" height="102.5" stroke="lightgray" stroke-width="1" fill="none"/>
    <rect x="30" y="13" width="3" height="102.5" fill="black"/>
    <rect x="0.5" y="178" width="3" height="90" stroke="lightgray" stroke-width="1" fill="none"/>
    <rect x="0.5" y="178" width="3" height="90" fill="black"/>
    <rect x="60.5" y="153" width="32.5" height="25" stroke="lightgray" stroke-width="1" fill="none"/>
    <path d="M 60.5 168.9 Q 60.5 162.9 67.1 157.35 Q 73.7 151.8 80.6 151.8 Q 83.4 151.8 85.95 152.5 Q 88.5 153.2 90.8 155.7 Q 93.100006 158.2 93.100006 162.1 Q 93.100006 167.6 86.4 173.4 Q 79.7 179.2 73 179.2 Q 70.2 179.2 67.65 178.5 Q 65.1 177.8 62.8 175.3 Q 60.5 172.8 60.5 168.9 Z " fill="black"/>
    <rect x="120.5" y="90.5" width="32.5" height="25" stroke="lightgray" stroke-width="1" fill="none"/>
    <path d="M 120.5 106.4 Q 120.5 100.4 127.1 94.85 Q 133.7 89.3 140.6 89.3 Q 143.4 89.3 145.95 90 Q 148.5 90.7 150.8 93.2 Q 153.1 95.7 153.1 99.6 Q 153.1 105.1 146.4 110.9 Q 139.7 116.7 133 116.7 Q 130.2 116.7 127.65 116 Q 125.1 115.3 122.8 112.8 Q 120.5 110.3 120.5 106.4 Z " fill="black"/>
    <rect x="120.5" y="178" width="32.5" height="25" stroke="lightgray" stroke-width="1" fill="none"/>
    <path d="M 120.5 193.9 Q 120.5 187.9 127.1 182.35 Q 133.7 176.8 140.6 176.8 Q 143.4 176.8 145.95 177.5 Q 148.5 178.2 150.8 180.7 Q 153.1 183.2 153.1 187.1 Q 153.1 192.6 146.4 198.4 Q 139.7 204.2 133 204.2 Q 130.2 204.2 127.65 203.5 Q 125.1 202.8 122.8 200.3 Q 120.5 197.8 120.5 193.9 Z " fill="black"/>
    <rect x="120.5" y="190.5" width="3" height="90" stroke="lightgray" stroke-width="1" fill="none"/>
    <rect x="120.5" y="190.5" width="3" height="90" fill="black"/>
    <rect x="180.5" y="78" width="32.5" height="25" stroke="lightgray" stroke-width="1" fill="none"/>
    <path d="M 180.5 93.9 Q 180.5 87.9 187.1 82.35 Q 193.7 76.8 200.6 76.8 Q 203.4 76.8 205.95 77.5 Q 208.5 78.2 210.8 80.7 Q 213.1 83.2 213.1 87.1 Q 213.1 92.6 206.4 98.4 Q 199.7 104.2 193 104.2 Q 190.2 104.2 187.65 103.5 Q 185.1 102.8 182.8 100.3 Q 180.5 97.8 180.5 93.9 Z " fill="black"/>
    <rect x="210" y="0.5" width="3" height="90" stroke="lightgray" stroke-width="1" fill="none"/>
    <rect x="210" y="0.5" width="3" height="90" fill="black"/>
    <rect x="240.5" y="135.5" width="10" height="10" stroke="orange" stroke-width="1" fill="none"/>
    <path d="M 0.5 255 L 123.5 267.5 L 123.5 280.5 L 0.5 268 Z " fill="black"/>
    <path d="M 30 13 L 213 0.5 L 213 13.5 L 30 26 Z " fill="black"/>
    <rect x="0" y="0" width="251" height="281" stroke="black" stroke-width="1" fill="none"/>
</svg>
