<svg xmlns="http://www.w3.org/2000/svg" xmlns:xlink="http://www.w3.org/1999/xlink" viewBox="0 0 262.5 207.7857">
    <line x1="1.25" y1="50.5" x2="261.25" y2="50.5" stroke="black" stroke-width="2.5"/>
    <line x1="1.25" y1="75.5" x2="261.25" y2="75.5" stroke="black" stroke-width="2.5"/>
    <line x1="1.25" y1="100.5" x2="261.25" y2="100.5" stroke="black" stroke-width="2.5"/>
    <line x1="1.25" y1="125.5" x2="261.25" y2="125.5" stroke="black" stroke-width="2.5"/>
    <line x1="1.25" y1="150.5" x2="261.25" y2="150.5" stroke="black" stroke-width="2.5"/>
    <rect x="1.25" y="0.5" width="10" height="200" stroke="orange" stroke-width="1" fill="none"/>
    <rect x="11.25" y="88" width="32.5" height="25" stroke="red" stroke-width="1" fill="none"/>
    <path d="M 11.25 103.9 Q 11.25 97.9 17.85 92.35 Q 24.45 86.8 31.35 86.8 Q 34.15 86.8 36.7 87.5 Q 39.25 88.2 41.550003 90.7 Q 43.850002 93.2 43.850002 97.1 Q 43.850002 102.6 37.15 108.4 Q 30.45 114.2 23.75 114.2 Q 20.95 114.2 18.4 113.5 Q 15.85 112.8 13.55 110.3 Q 11.25 107.8 11.25 103.9 Z " fill="black"/>
    <rect x="43.75" y="88" width="5" height="25" stroke="red" stroke-width="1" fill="none"/>
    <rect x="11.25" y="100.5" width="3" height="89.28571" stroke="red" stroke-width="1" fill="none"/>
    <rect x="11.25" y="177.2857" width="50" height="25" stroke="red" stroke-width="1" fill="none"/>
    <rect x="22.5" y="197.2857" width="10" height="10" stroke="red" stroke-width="1" fill="none"/>
    <ellipse cx="27.5" cy="202.2857" rx="5" ry="5" stroke="red" stroke-width="1" fill="none"/>
    <rect x="22.5" y="70.5" width="10" height="10" stroke="red" stroke-width="1" fill="none"/>
    <ellipse cx="27.5" cy="75.5" rx="5" ry="5" stroke="purple" stroke-width="1" fill="none"/>
    <rect x="71.25" y="75.5" width="32.5" height="25" stroke="red" stroke-width="1" fill="none"/>
    <path d="M 71.25 91.4 Q 71.25 85.4 77.85 79.85 Q 84.45 74.3 91.35 74.3 Q 94.15 74.3 96.7 75 Q 99.25 75.7 101.55 78.2 Q 103.850006 80.7 103.850006 84.6 Q 103.850006 90.1 97.15 95.9 Q 90.45 101.7 83.75 101.7 Q 80.95 101.7 78.4 101 Q 75.85 100.3 73.55 97.8 Q 71.25 95.3 71.25 91.4 Z " fill="black"/>
    <rect x="103.75" y="75.5" width="5" height="25" stroke="red" stroke-width="1" fill="none"/>
    <rect x="82.5" y="58" width="10" height="10" stroke="red" stroke-width="1" fill="none"/>
    <ellipse cx="87.5" cy="63" rx="5" ry="5" stroke="purple" stroke-width="1" fill="none"/>
    <rect x="82.5" y="193.11905" width="10" height="10" stroke="red" stroke-width="1" fill="none"/>
    <ellipse cx="87.5" cy="198.11905" rx="5" ry="5" stroke="red" stroke-width="1" fill="none"/>
    <rect x="131.25" y="63" width="32.5" height="25" stroke="red" stroke-width="1" fill="none"/>
    <path d="M 131.25 78.9 Q 131.25 72.9 137.85 67.35 Q 144.45 61.8 151.35 61.8 Q 154.15 61.8 156.7 62.5 Q 159.25 63.2 161.55 65.7 Q 163.85 68.2 163.85 72.1 Q 163.85 77.6 157.15 83.4 Q 150.45 89.2 143.75 89.2 Q 140.95 89.2 138.4 88.5 Q 135.85 87.8 133.55 85.3 Q 131.25 82.8 131.25 78.9 Z " fill="black"/>
    <rect x="163.75" y="63" width="5" height="25" stroke="red" stroke-width="1" fill="none"/>
    <rect x="142.5" y="45.5" width="10" height="10" stroke="red" stroke-width="1" fill="none"/>
    <ellipse cx="147.5" cy="50.5" rx="5" ry="5" stroke="purple" stroke-width="1" fill="none"/>
    <rect x="142.5" y="188.95238" width="10" height="10" stroke="red" stroke-width="1" fill="none"/>
    <ellipse cx="147.5" cy="193.95238" rx="5" ry="5" stroke="red" stroke-width="1" fill="none"/>
    <rect x="191.25" y="50.5" width="32.5" height="25" stroke="red" stroke-width="1" fill="none"/>
    <path d="M 191.25 66.4 Q 191.25 60.4 197.85 54.85 Q 204.45 49.3 211.35 49.3 Q 214.15 49.3 216.7 50 Q 219.25 50.7 221.55 53.2 Q 223.85 55.7 223.85 59.6 Q 223.85 65.1 217.15 70.9 Q 210.45 76.7 203.75 76.7 Q 200.95 76.7 198.4 76 Q 195.85 75.3 193.55 72.8 Q 191.25 70.3 191.25 66.4 Z " fill="black"/>
    <rect x="223.75" y="50.5" width="5" height="25" stroke="red" stroke-width="1" fill="none"/>
    <rect x="191.25" y="63" width="3" height="114.28571" stroke="red" stroke-width="1" fill="none"/>
    <rect x="191.25" y="164.7857" width="32.5" height="25" stroke="red" stroke-width="1" fill="none"/>
    <rect x="202.5" y="184.7857" width="10" height="10" stroke="red" stroke-width="1" fill="none"/>
    <ellipse cx="207.5" cy="189.7857" rx="5" ry="5" stroke="red" stroke-width="1" fill="none"/>
    <rect x="202.5" y="33" width="10" height="10" stroke="red" stroke-width="1" fill="none"/>
    <ellipse cx="207.5" cy="38" rx="5" ry="5" stroke="purple" stroke-width="1" fill="none"/>
    <rect x="251.25" y="0.5" width="10" height="200" stroke="orange" stroke-width="1" fill="none"/>
    <line x1="12.75" y1="104.5" x2="12.75" y2="189.7857" stroke="black" stroke-width="3"/>
    <line x1="192.75" y1="67" x2="192.75" y2="177.2857" stroke="black" stroke-width="3"/>
    <line x1="72.75" y1="92" x2="72.75" y2="185.61905" stroke="black" stroke-width="3"/>
    <line x1="132.75" y1="79.5" x2="132.75" y2="181.45238" stroke="black" stroke-width="3"/>
    <path d="M 11.25 189.7857 L 194.25 177.2857 L 194.25 162.2857 L 11.25 174.7857 " fill="black"/>
    <path d="M 12.75 164.7857 L 192.75 152.2857 L 192.75 137.2857 L 12.75 149.7857 " fill="black"/>
    <rect x="0" y="0" width="262.5" height="207.7857" stroke="black" stroke-width="1" fill="none"/>
</svg>
