<svg xmlns="http://www.w3.org/2000/svg" xmlns:xlink="http://www.w3.org/1999/xlink" width="683.5" height="201" viewBox="0 0 683.5 201">
    <line x1="1.25" y1="50.5" x2="682.25" y2="50.5" stroke="black" stroke-width="2.5"/>
    <line x1="1.25" y1="75.5" x2="682.25" y2="75.5" stroke="black" stroke-width="2.5"/>
    <line x1="1.25" y1="100.5" x2="682.25" y2="100.5" stroke="black" stroke-width="2.5"/>
    <line x1="1.25" y1="125.5" x2="682.25" y2="125.5" stroke="black" stroke-width="2.5"/>
    <line x1="1.25" y1="150.5" x2="682.25" y2="150.5" stroke="black" stroke-width="2.5"/>
    <rect x="1.25" y="88" width="32.5" height="25" stroke="red" stroke-width="1" fill="none"/>
    <path d="M 1.25 103.9 Q 1.25 97.9 7.85 92.35 Q 14.45 86.8 21.35 86.8 Q 24.15 86.8 26.7 87.5 Q 29.25 88.2 31.550001 90.7 Q 33.850002 93.2 33.850002 97.1 Q 33.850002 102.6 27.15 108.4 Q 20.45 114.2 13.75 114.2 Q 10.95 114.2 8.4 113.5 Q 5.85 112.8 3.55 110.3 Q 1.25 107.8 1.25 103.9 Z " fill="black"/>
    <rect x="33.75" y="88" width="5" height="25" stroke="red" stroke-width="1" fill="none"/>
    <rect x="1.25" y="100.5" width="3" height="89.28571" stroke="red" stroke-width="1" fill="none"/>
    <rect x="106.25" y="88" width="32.5" height="25" stroke="red" stroke-width="1" fill="none"/>
    <path d="M 106.25 103.9 Q 106.25 97.9 112.85 92.35 Q 119.45 86.8 126.35 86.8 Q 129.15 86.8 131.7 87.5 Q 134.25 88.2 136.55 90.7 Q 138.85 93.2 138.85 97.1 Q 138.85 102.6 132.15 108.4 Q 125.45 114.2 118.75 114.2 Q 115.95 114.2 113.4 113.5 Q 110.85 112.8 108.55 110.3 Q 106.25 107.8 106.25 103.9 Z " fill="black"/>
    <rect x="138.75" y="88" width="5" height="25" stroke="red" stroke-width="1" fill="none"/>
    <rect x="106.25" y="100.5" width="3" height="89.28571" stroke="red" stroke-width="1" fill="none"/>
    <rect x="211.25" y="100.5" width="32.5" height="25" stroke="red" stroke-width="1" fill="none"/>
    <path d="M 211.25 116.4 Q 211.25 110.4 217.85 104.85 Q 224.45 99.3 231.35 99.3 Q 234.15 99.3 236.7 100 Q 239.25 100.7 241.55 103.2 Q 243.85 105.7 243.85 109.6 Q 243.85 115.1 237.15 120.9 Q 230.45 126.7 223.75 126.7 Q 220.95 126.7 218.4 126 Q 215.85 125.3 213.55 122.8 Q 211.25 120.3 211.25 116.4 Z " fill="black"/>
    <rect x="243.75" y="100.5" width="5" height="25" stroke="red" stroke-width="1" fill="none"/>
    <rect x="240.75" y="23.714287" width="3" height="89.28571" stroke="red" stroke-width="1" fill="none"/>
    <rect x="316.25" y="63" width="32.5" height="25" stroke="red" stroke-width="1" fill="none"/>
    <path d="M 316.25 78.9 Q 316.25 72.9 322.85 67.35 Q 329.45 61.8 336.35 61.8 Q 339.15 61.8 341.7 62.5 Q 344.25 63.2 346.55 65.7 Q 348.85 68.2 348.85 72.1 Q 348.85 77.6 342.15 83.4 Q 335.45 89.2 328.75 89.2 Q 325.95 89.2 323.4 88.5 Q 320.85 87.8 318.55 85.3 Q 316.25 82.8 316.25 78.9 Z " fill="black"/>
    <rect x="348.75" y="63" width="5" height="25" stroke="red" stroke-width="1" fill="none"/>
    <rect x="316.25" y="75.5" width="3" height="89.28571" stroke="red" stroke-width="1" fill="none"/>
    <rect x="421.25" y="0.5" width="30" height="200" stroke="orange" stroke-width="1" fill="none"/>
    <rect x="451.25" y="88" width="32.5" height="25" stroke="red" stroke-width="1" fill="none"/>
    <path d="M 451.25 103.9 Q 451.25 97.9 457.85 92.35 Q 464.45 86.8 471.35 86.8 Q 474.15 86.8 476.7 87.5 Q 479.25 88.2 481.55 90.7 Q 483.85 93.2 483.85 97.1 Q 483.85 102.6 477.15 108.4 Q 470.45 114.2 463.75 114.2 Q 460.95 114.2 458.4 113.5 Q 455.85 112.8 453.55 110.3 Q 451.25 107.8 451.25 103.9 Z " fill="black"/>
    <rect x="483.75" y="88" width="5" height="25" stroke="red" stroke-width="1" fill="none"/>
    <rect x="451.25" y="100.5" width="3" height="89.28571" stroke="red" stroke-width="1" fill="none"/>
    <rect x="556.25" y="88" width="32.5" height="25" stroke="red" stroke-width="1" fill="none"/>
    <path d="M 556.25 103.9 Q 556.25 97.9 562.85 92.35 Q 569.45 86.8 576.35 86.8 Q 579.15 86.8 581.7 87.5 Q 584.25 88.2 586.55 90.7 Q 588.85 93.2 588.85 97.1 Q 588.85 102.6 582.15 108.4 Q 575.45 114.2 568.75 114.2 Q 565.95 114.2 563.4 113.5 Q 560.85 112.8 558.55 110.3 Q 556.25 107.8 556.25 103.9 Z " fill="black"/>
    <rect x="588.75" y="88" width="5" height="25" stroke="red" stroke-width="1" fill="none"/>
    <rect x="556.25" y="100.5" width="3" height="89.28571" stroke="red" stroke-width="1" fill="none"/>
    <rect x="661.25" y="50.5" width="21" height="100" stroke="orange" stroke-width="1" fill="none"/>
    <path d="M 661.25 50.5 L 666.75 50.5 L 666.75 150.5 L 661.25 150.5 M 676.75 50.5 L 682.25 50.5 L 682.25 150.5 L 676.75 150.5 " fill="black"/>
    <line x1="2.75" y1="104.5" x2="2.75" y2="189.7857" stroke="black" stroke-width="3"/>
    <line x1="107.75" y1="104.5" x2="107.75" y2="189.7857" stroke="black" stroke-width="3"/>
    <line x1="242.25" y1="23.714287" x2="242.25" y2="109" stroke="black" stroke-width="3"/>
    <line x1="317.75" y1="79.5" x2="317.75" y2="164.7857" stroke="black" stroke-width="3"/>
    <line x1="452.75" y1="104.5" x2="452.75" y2="189.7857" stroke="black" stroke-width="3"/>
    <line x1="557.75" y1="104.5" x2="557.75" y2="189.7857" stroke="black" stroke-width="3"/>
    <rect x="0" y="0" width="683.5" height="201" stroke="black" stroke-width="1" fill="none"/>
</svg>
