<svg xmlns="http://www.w3.org/2000/svg" xmlns:xlink="http://www.w3.org/1999/xlink" viewBox="0 0 474 363.45">
    <rect x="0.5" y="54.25" width="5" height="80" stroke="orange" stroke-width="1" fill="none"/>
    <rect x="0.5" y="154.25" width="5" height="80" stroke="orange" stroke-width="1" fill="none"/>
    <rect x="0.5" y="282.25" width="5" height="80" stroke="orange" stroke-width="1" fill="none"/>
    <rect x="7.5" y="64.25" width="30" height="60" stroke="orange" stroke-width="1" fill="none"/>
    <rect x="7.5" y="164.25" width="30" height="60" stroke="orange" stroke-width="1" fill="none"/>
    <ellipse cx="12.5" cy="327.25" rx="5" ry="5" stroke="gray" stroke-width="1" fill="none"/>
    <rect x="67.5" y="0.5" width="2.5" height="137.5" stroke="blue" stroke-width="1" fill="none"/>
    <rect x="37.5" y="131.75" width="32.5" height="25" stroke="blue" stroke-width="1" fill="none"/>
    <rect x="37.5" y="94.25" width="32.5" height="25" stroke="blue" stroke-width="1" fill="none"/>
    <rect x="70" y="81.75" width="32.5" height="25" stroke="blue" stroke-width="1" fill="none"/>
    <rect x="37.5" y="194.25" width="2.5" height="87.5" stroke="blue" stroke-width="1" fill="none"/>
    <rect x="37.5" y="181.75" width="32.5" height="25" stroke="blue" stroke-width="1" fill="none"/>
    <rect x="5.66" y="281.55" width="31.84" height="81.399994" stroke="blue" stroke-width="1" fill="none"/>
    <rect x="37.5" y="281.55" width="31.84" height="81.399994" stroke="blue" stroke-width="1" fill="none"/>
    <rect x="163.5" y="13" width="2.5" height="87.5" stroke="blue" stroke-width="1" fill="none"/>
    <rect x="133.5" y="94.25" width="32.5" height="25" stroke="blue" stroke-width="1" fill="none"/>
    <rect x="133.5" y="194.25" width="2.5" height="87.5" stroke="blue" stroke-width="1" fill="none"/>
    <rect x="133.5" y="181.75" width="32.5" height="25" stroke="blue" stroke-width="1" fill="none"/>
    <rect x="118.62" y="281.55" width="29.76" height="81.399994" stroke="blue" stroke-width="1" fill="none"/>
    <rect x="229.5" y="64.25" width="5" height="60" stroke="orange" stroke-width="1" fill="none"/>
    <rect x="229.5" y="164.25" width="5" height="60" stroke="orange" stroke-width="1" fill="none"/>
    <ellipse cx="234.5" cy="327.25" rx="5" ry="5" stroke="gray" stroke-width="1" fill="none"/>
    <rect x="264.5" y="94.25" width="2.5" height="87.5" stroke="blue" stroke-width="1" fill="none"/>
    <rect x="264.5" y="81.75" width="32.5" height="25" stroke="blue" stroke-width="1" fill="none"/>
    <rect x="234.5" y="56.75" width="30.000002" height="75" stroke="blue" stroke-width="1" fill="none"/>
    <rect x="264.5" y="194.25" width="2.5" height="87.5" stroke="blue" stroke-width="1" fill="none"/>
    <rect x="264.5" y="181.75" width="32.5" height="25" stroke="blue" stroke-width="1" fill="none"/>
    <rect x="206.9" y="281.55" width="38.399998" height="81.399994" stroke="blue" stroke-width="1" fill="none"/>
    <rect x="245.3" y="281.55" width="38.399998" height="81.399994" stroke="blue" stroke-width="1" fill="none"/>
    <rect x="283.7" y="281.55" width="38.399998" height="81.399994" stroke="blue" stroke-width="1" fill="none"/>
    <rect x="390.5" y="13" width="2.5" height="87.5" stroke="blue" stroke-width="1" fill="none"/>
    <rect x="360.5" y="94.25" width="32.5" height="25" stroke="blue" stroke-width="1" fill="none"/>
    <rect x="360.5" y="194.25" width="2.5" height="87.5" stroke="blue" stroke-width="1" fill="none"/>
    <rect x="360.5" y="181.75" width="32.5" height="25" stroke="blue" stroke-width="1" fill="none"/>
    <ellipse cx="365.5" cy="327.25" rx="5" ry="5" stroke="gray" stroke-width="1" fill="none"/>
    <rect x="450.5" y="25.5" width="2.5" height="87.5" stroke="blue" stroke-width="1" fill="none"/>
    <rect x="420.5" y="106.75" width="32.5" height="25" stroke="blue" stroke-width="1" fill="none"/>
    <rect x="393" y="69.25" width="27.5" height="75" stroke="blue" stroke-width="1" fill="none"/>
    <ellipse cx="425.5" cy="199.25" rx="5" ry="5" stroke="gray" stroke-width="1" fill="none"/>
    <rect x="405.62" y="281.55" width="29.76" height="81.399994" stroke="blue" stroke-width="1" fill="none"/>
    <rect x="468.5" y="54.25" width="5" height="80" stroke="orange" stroke-width="1" fill="none"/>
    <rect x="468.5" y="154.25" width="5" height="80" stroke="orange" stroke-width="1" fill="none"/>
    <rect x="468.5" y="282.25" width="5" height="80" stroke="orange" stroke-width="1" fill="none"/>
    <rect x="0" y="0" width="474" height="363.45" stroke="black" stroke-width="1" fill="none"/>
</svg>
