<svg xmlns="http://www.w3.org/2000/svg" xmlns:xlink="http://www.w3.org/1999/xlink" width="649" height="479.1941" viewBox="0 0 649 479.1941">
    <line x1="1.25" y1="328.6941" x2="647.75" y2="328.6941" stroke="black" stroke-width="2.5"/>
    <line x1="1.25" y1="353.6941" x2="647.75" y2="353.6941" stroke="black" stroke-width="2.5"/>
    <line x1="1.25" y1="378.6941" x2="647.75" y2="378.6941" stroke="black" stroke-width="2.5"/>
    <line x1="1.25" y1="403.6941" x2="647.75" y2="403.6941" stroke="black" stroke-width="2.5"/>
    <line x1="1.25" y1="428.6941" x2="647.75" y2="428.6941" stroke="black" stroke-width="2.5"/>
    <ellipse cx="6.25" cy="220.6941" rx="5" ry="5" stroke="gray" stroke-width="1" fill="none"/>
    <rect x="1.25" y="288.6941" width="74" height="186" stroke="orange" stroke-width="1" fill="none"/>
    <path d="M 26.050001 347.1941 Q 23.75 339.8941 22.85 334.1941 Q 22.050001 329.3941 22.050001 322.9941 Q 22.050001 320.7941 22.15 318.59412 Q 22.550001 309.09412 26.050001 301.1441 Q 29.550001 293.1941 36.55 288.9941 Q 37.05 288.6941 37.850002 288.6941 Q 38.55 288.6941 39.05 289.1941 Q 44.65 294.7941 47.65 303.4941 Q 50.65 312.1941 50.65 321.09412 Q 50.65 331.3941 46.25 341.2941 Q 42.05 351.1941 34.45 358.79413 Q 33.850002 359.3941 34.05 360.3941 L 38.05 376.3941 Q 38.350002 377.9941 40.05 377.79413 Q 41.65 377.59412 43.15 377.59412 Q 48.95 377.59412 53.65 379.8941 Q 58.350002 382.1941 61.25 385.8941 Q 64.15 389.59412 65.700005 394.04413 Q 67.25 398.4941 67.25 403.1941 Q 67.25 411.79413 62.45 418.7441 Q 57.65 425.6941 50.95 427.8941 Q 49.55 428.3941 49.850002 429.9941 Q 52.350002 441.79413 52.45 449.8941 Q 52.45 452.9941 52.05 455.9941 Q 51.25 462.8941 46.05 468.09412 Q 40.850002 473.29413 33.65 473.29413 Q 24.85 473.29413 18.75 467.9941 Q 12.650001 462.6941 12.650001 454.09412 Q 12.650001 449.6941 15.75 446.4941 Q 18.85 443.29413 23.050001 443.29413 Q 27.35 443.29413 30.300001 446.34412 Q 33.25 449.3941 33.25 453.59412 Q 33.25 457.1941 30.85 459.8941 Q 28.45 462.6941 25.050001 462.9941 Q 23.85 463.09412 23.45 464.1941 Q 23.050001 465.29413 24.25 466.1941 Q 27.85 468.9941 33.050003 468.9941 Q 38.75 468.9941 42.9 464.8941 Q 47.05 460.79413 47.75 455.59412 Q 48.25 451.9941 48.25 448.3941 Q 48.25 440.59412 45.850002 431.09412 Q 45.45 429.3941 43.65 429.59412 Q 39.65 430.09412 36.25 430.09412 Q 21.45 430.09412 11.35 420.79413 Q 1.25 411.4941 1.25 395.4941 Q 1.25 390.59412 2.4 385.84412 Q 3.55 381.09412 5 377.6441 Q 6.4500003 374.1941 9.5 369.6441 Q 12.55 365.09412 14.400001 362.6941 Q 16.25 360.29413 20.25 355.54413 Q 24.25 350.79413 25.75 348.8941 Q 26.35 348.1941 26.050001 347.1941 Z M 41.65 392.8941 L 48.15 422.3941 Q 48.45 423.6941 49.95 423.6941 Q 50.350002 423.6941 50.65 423.59412 Q 54.75 421.8941 57.45 416.9941 Q 60.15 412.09412 60.15 407.29413 Q 60.15 400.29413 56.05 395.4941 Q 51.850002 390.59412 43.45 390.59412 Q 42.75 390.59412 42.2 391.1441 Q 41.65 391.6941 41.65 392.3941 Q 41.55 392.6941 41.65 392.8941 Z M 27.85 365.09412 Q 26.25 366.8941 23.1 370.2441 Q 19.95 373.59412 18.4 375.34412 Q 16.85 377.09412 14.6 380.29413 Q 12.35 383.4941 11.25 386.1941 Q 10.150001 388.8941 9.3 392.79413 Q 8.450001 396.6941 8.450001 401.09412 Q 8.450001 407.1941 12.2 412.8941 Q 15.95 418.59412 22.5 422.1941 Q 29.050001 425.79413 36.55 425.79413 Q 39.25 425.79413 42.55 425.4941 Q 43.350002 425.3941 43.850002 424.7441 Q 44.350002 424.09412 44.15 423.29413 L 37.65 393.3941 Q 37.350002 391.9941 35.75 391.9941 Q 35.45 391.9941 35.05 392.09412 Q 30.45 393.79413 28.550001 396.8941 Q 26.65 399.9941 26.65 404.6941 Q 26.65 410.1941 32.65 414.1941 Q 33.350002 414.6941 33.350002 415.6941 Q 33.350002 416.4941 32.7 417.1941 Q 32.050003 417.8941 31.15 417.8941 Q 30.65 417.8941 30.25 417.6941 Q 24.550001 414.6941 21.800001 409.54413 Q 19.050001 404.3941 19.050001 398.6941 Q 19.050001 393.1941 23 387.34412 Q 26.95 381.4941 32.85 379.29413 Q 34.350002 378.6941 34.05 377.1941 L 31.050001 365.8941 Q 30.85 364.79413 29.65 364.59412 Q 28.45 364.3941 27.85 365.09412 Z M 44.65 306.8941 Q 43.850002 304.2941 41.95 304.2941 Q 41.350002 304.2941 40.850002 304.59412 Q 34.45 308.3941 30.7 315.2941 Q 26.95 322.1941 26.95 329.8941 Q 26.95 334.8941 29.050001 342.1941 Q 29.35 343.2941 30.550001 343.4941 Q 31.550001 343.59412 32.25 342.7941 Q 32.550003 342.3941 35.100002 339.2441 Q 37.65 336.09412 38.45 335.0441 Q 39.25 333.9941 41.15 331.0441 Q 43.05 328.09412 43.8 326.1441 Q 44.55 324.1941 45.25 321.2941 Q 45.95 318.3941 45.95 315.4941 Q 45.95 311.2941 44.65 306.8941 Z " fill="black"/>
    <ellipse cx="80.25" cy="220.6941" rx="5" ry="5" stroke="gray" stroke-width="1" fill="none"/>
    <rect x="75.25" y="291.1941" width="60.000004" height="150" stroke="orange" stroke-width="1" fill="none"/>
    <path d="M 96.85 319.09412 L 96.85 331.2941 Q 96.85 332.09412 97.35 332.59412 Q 97.85 333.09412 98.65 333.09412 Q 98.95 333.09412 99.25 332.9941 L 100.05 332.6941 Q 100.35 332.59412 100.75 332.59412 Q 101.55 332.59412 102.15 333.1941 Q 102.75 333.7941 102.75 334.59412 L 102.75 340.59412 Q 102.75 341.8941 101.45 342.3941 L 98.05 343.6941 Q 96.85 344.1941 96.85 345.29413 L 96.85 359.8941 Q 96.85 360.6941 96.3 361.2441 Q 95.75 361.79413 95.05 361.79413 Q 94.25 361.79413 93.7 361.2441 Q 93.15 360.6941 93.15 359.8941 L 93.15 347.9941 Q 93.15 347.1941 92.6 346.6941 Q 92.05 346.1941 91.35 346.1941 Q 90.95 346.1941 90.65 346.29413 L 86.05 348.09412 Q 84.85 348.4941 84.85 349.6941 L 84.85 364.29413 Q 84.85 365.09412 84.25 365.6441 Q 83.65 366.1941 82.95 366.1941 Q 82.25 366.1941 81.7 365.6441 Q 81.15 365.09412 81.15 364.29413 L 81.15 352.3941 Q 81.15 351.59412 80.6 351.09412 Q 80.05 350.59412 79.35 350.59412 Q 79.05 350.59412 78.75 350.6941 L 77.95 350.9941 Q 77.75 351.09412 77.25 351.09412 Q 76.45 351.09412 75.85 350.4941 Q 75.25 349.8941 75.25 349.09412 L 75.25 343.09412 Q 75.25 341.6941 76.55 341.1941 L 79.95 339.9941 Q 81.15 339.6941 81.15 338.2941 L 81.15 326.09412 Q 81.15 325.2941 80.6 324.7941 Q 80.05 324.2941 79.35 324.2941 Q 79.05 324.2941 78.85 324.3941 L 77.95 324.6941 Q 77.75 324.7941 77.25 324.7941 Q 76.45 324.7941 75.85 324.1941 Q 75.25 323.59412 75.25 322.7941 L 75.25 316.7941 Q 75.25 315.4941 76.55 314.9941 L 80.05 313.6941 Q 81.15 313.1941 81.15 312.09412 L 81.15 297.4941 Q 81.15 296.6941 81.7 296.1441 Q 82.25 295.59412 82.95 295.59412 Q 83.65 295.59412 84.25 296.1441 Q 84.85 296.6941 84.85 297.4941 L 84.85 309.3941 Q 84.85 310.1941 85.4 310.6941 Q 85.95 311.1941 86.75 311.1941 Q 87.05 311.1941 87.35 311.09412 L 91.95 309.2941 Q 93.15 308.7941 93.15 307.59412 L 93.15 293.09412 Q 93.15 292.2941 93.7 291.7441 Q 94.25 291.1941 95.05 291.1941 Q 95.75 291.1941 96.3 291.7441 Q 96.85 292.2941 96.85 293.09412 L 96.85 305.09412 Q 96.85 305.7941 97.35 306.2941 Q 97.85 306.7941 98.55 306.7941 Q 98.85 306.7941 99.25 306.6941 L 100.05 306.3941 Q 100.25 306.2941 100.75 306.2941 Q 101.55 306.2941 102.15 306.8941 Q 102.75 307.4941 102.75 308.2941 L 102.75 314.2941 Q 102.75 315.6941 101.45 316.1941 L 98.05 317.3941 Q 96.85 317.6941 96.85 319.09412 Z M 93.15 333.8941 L 93.15 321.7941 Q 93.15 321.09412 92.6 320.5441 Q 92.05 319.9941 91.35 319.9941 Q 91.05 319.9941 90.75 320.09412 L 86.05 321.7941 Q 84.85 322.2941 84.85 323.4941 L 84.85 335.59412 Q 84.85 336.3941 85.35 336.8941 Q 85.85 337.3941 86.65 337.3941 Q 86.95 337.3941 87.25 337.2941 L 91.95 335.59412 Q 93.15 335.09412 93.15 333.8941 Z M 126.850006 356.59412 L 126.850006 368.79413 Q 126.850006 369.59412 127.350006 370.09412 Q 127.850006 370.59412 128.65 370.59412 Q 128.95001 370.59412 129.25 370.4941 L 130.05 370.1941 Q 130.35 370.09412 130.75 370.09412 Q 131.55 370.09412 132.15 370.6941 Q 132.75 371.29413 132.75 372.09412 L 132.75 378.09412 Q 132.75 379.3941 131.45001 379.8941 L 128.05 381.1941 Q 126.850006 381.6941 126.850006 382.79413 L 126.850006 397.3941 Q 126.850006 398.1941 126.3 398.7441 Q 125.75 399.29413 125.05 399.29413 Q 124.25 399.29413 123.700005 398.7441 Q 123.15 398.1941 123.15 397.3941 L 123.15 385.4941 Q 123.15 384.6941 122.600006 384.1941 Q 122.05 383.6941 121.350006 383.6941 Q 120.95 383.6941 120.65 383.79413 L 116.05 385.59412 Q 114.850006 385.9941 114.850006 387.1941 L 114.850006 401.79413 Q 114.850006 402.59412 114.25 403.1441 Q 113.65 403.6941 112.95 403.6941 Q 112.25 403.6941 111.7 403.1441 Q 111.15 402.59412 111.15 401.79413 L 111.15 389.8941 Q 111.15 389.09412 110.600006 388.59412 Q 110.05 388.09412 109.350006 388.09412 Q 109.05 388.09412 108.75 388.1941 L 107.95 388.4941 Q 107.75 388.59412 107.25 388.59412 Q 106.450005 388.59412 105.850006 387.9941 Q 105.25 387.3941 105.25 386.59412 L 105.25 380.59412 Q 105.25 379.1941 106.55 378.6941 L 109.95 377.4941 Q 111.15 377.1941 111.15 375.79413 L 111.15 363.59412 Q 111.15 362.79413 110.600006 362.29413 Q 110.05 361.79413 109.350006 361.79413 Q 109.05 361.79413 108.850006 361.8941 L 107.95 362.1941 Q 107.75 362.29413 107.25 362.29413 Q 106.450005 362.29413 105.850006 361.6941 Q 105.25 361.09412 105.25 360.29413 L 105.25 354.29413 Q 105.25 352.9941 106.55 352.4941 L 110.05 351.1941 Q 111.15 350.6941 111.15 349.59412 L 111.15 334.9941 Q 111.15 334.1941 111.7 333.6441 Q 112.25 333.09412 112.95 333.09412 Q 113.65 333.09412 114.25 333.6441 Q 114.850006 334.1941 114.850006 334.9941 L 114.850006 346.8941 Q 114.850006 347.6941 115.4 348.1941 Q 115.95 348.6941 116.75 348.6941 Q 117.05 348.6941 117.350006 348.59412 L 121.950005 346.79413 Q 123.15 346.29413 123.15 345.09412 L 123.15 330.59412 Q 123.15 329.7941 123.700005 329.2441 Q 124.25 328.6941 125.05 328.6941 Q 125.75 328.6941 126.3 329.2441 Q 126.850006 329.7941 126.850006 330.59412 L 126.850006 342.59412 Q 126.850006 343.2941 127.350006 343.79413 Q 127.850006 344.29413 128.55 344.29413 Q 128.85 344.29413 129.25 344.1941 L 130.05 343.8941 Q 130.25 343.79413 130.75 343.79413 Q 131.55 343.79413 132.15 344.3941 Q 132.75 344.9941 132.75 345.79413 L 132.75 351.79413 Q 132.75 353.1941 131.45001 353.6941 L 128.05 354.8941 Q 126.850006 355.1941 126.850006 356.59412 Z M 123.15 371.3941 L 123.15 359.29413 Q 123.15 358.59412 122.600006 358.04413 Q 122.05 357.4941 121.350006 357.4941 Q 121.05 357.4941 120.75 357.59412 L 116.05 359.29413 Q 114.850006 359.79413 114.850006 360.9941 L 114.850006 373.09412 Q 114.850006 373.8941 115.350006 374.3941 Q 115.850006 374.8941 116.65 374.8941 Q 116.95 374.8941 117.25 374.79413 L 121.950005 373.09412 Q 123.15 372.59412 123.15 371.3941 Z " fill="black"/>
    <ellipse cx="140.25" cy="220.6941" rx="5" ry="5" stroke="gray" stroke-width="1" fill="none"/>
    <rect x="135.25" y="278.6941" width="30" height="200" stroke="orange" stroke-width="1" fill="none"/>
    <rect x="152.75" y="178.1941" width="75" height="75" stroke="red" stroke-width="1" fill="none"/>
    <path d="M 189.54881 175 C 210.1722 175 226.89659 192.88417 226.89659 214.88881 C 226.89659 236.89359 210.1722 254.77774 189.54881 254.77774 C 168.9254 254.77774 152.1996 236.89359 152.1996 214.88881 C 152.1996 192.88417 168.9254 175 189.54881 175 Z M 189.54881 181.38821 C 172.2098 181.38821 158.116 196.3888 158.116 214.88881 C 158.116 233.38882 172.2098 248.3894 189.54881 248.3894 C 206.8864 248.3894 220.98021 233.38882 220.98021 214.88881 C 220.98021 196.3888 206.8864 181.38821 189.54881 181.38821 Z M 191.9455 233.1941 L 187.87953 233.1941 L 187.87953 207.04137 Q 187.87953 203.77855 188.08032 200.86711 Q 187.55324 201.39418 186.90068 201.97145 Q 186.24812 202.5487 180.92722 206.86568 L 178.71854 204.00444 L 188.4317 196.49995 L 191.9455 196.49995 L 191.9455 233.1941 Z " fill="black"/>
    <rect x="165.25" y="428.6941" width="32.5" height="25" stroke="red" stroke-width="1" fill="none"/>
    <path d="M 165.25 444.59412 Q 165.25 438.59412 171.85 433.04413 Q 178.45 427.4941 185.35 427.4941 Q 188.15 427.4941 190.7 428.1941 Q 193.25 428.8941 195.55 431.3941 Q 197.85 433.8941 197.85 437.79413 Q 197.85 443.29413 191.15 449.09412 Q 184.45 454.8941 177.75 454.8941 Q 174.95 454.8941 172.4 454.1941 Q 169.85 453.4941 167.55 450.9941 Q 165.25 448.4941 165.25 444.59412 Z " fill="black"/>
    <rect x="197.75" y="428.6941" width="5" height="25" stroke="red" stroke-width="1" fill="none"/>
    <rect x="194.75" y="351.9084" width="3" height="89.28571" stroke="red" stroke-width="1" fill="none"/>
    <rect x="257.75" y="78.19411" width="75" height="75" stroke="red" stroke-width="1" fill="none"/>
    <path d="M 294.54883 75 C 315.17218 75 331.8966 92.88417 331.8966 114.88881 C 331.8966 136.89359 315.17218 154.77774 294.54883 154.77774 C 273.9254 154.77774 257.1996 136.89359 257.1996 114.88881 C 257.1996 92.88417 273.9254 75 294.54883 75 Z M 294.54883 81.388214 C 277.20978 81.388214 263.116 96.38879 263.116 114.88881 C 263.116 133.38882 277.20978 148.3894 294.54883 148.3894 C 311.8864 148.3894 325.98022 133.38882 325.98022 114.88881 C 325.98022 96.38879 311.8864 81.388214 294.54883 81.388214 Z M 292.97992 110.78106 Q 298.7777 110.78106 302.10327 113.65485 Q 305.42883 116.52864 305.42883 121.523254 Q 305.42883 127.22064 301.8021 130.45836 Q 298.17532 133.69608 291.8003 133.69608 Q 285.60092 133.69608 282.3381 131.71329 L 282.3381 127.69751 Q 284.095 128.82695 286.70526 129.46696 Q 289.31552 130.10698 291.8505 130.10698 Q 296.26782 130.10698 298.71497 128.0238 Q 301.16208 125.94061 301.16208 122.00013 Q 301.16208 114.31996 291.7501 114.31996 Q 289.36572 114.31996 285.37503 115.04782 L 283.21655 113.6674 L 284.597 96.499954 L 302.84366 96.499954 L 302.84366 100.34004 L 288.16098 100.34004 L 287.23233 111.35832 Q 290.11868 110.78106 292.97992 110.78106 Z " fill="black"/>
    <rect x="270.25" y="378.6941" width="32.5" height="25" stroke="red" stroke-width="1" fill="none"/>
    <path d="M 270.25 394.59412 Q 270.25 388.59412 276.85 383.04413 Q 283.45 377.4941 290.35 377.4941 Q 293.15 377.4941 295.7 378.1941 Q 298.25 378.8941 300.55 381.3941 Q 302.85 383.8941 302.85 387.79413 Q 302.85 393.29413 296.15 399.09412 Q 289.45 404.8941 282.75 404.8941 Q 279.95 404.8941 277.4 404.1941 Q 274.85 403.4941 272.55 400.9941 Q 270.25 398.4941 270.25 394.59412 Z " fill="black"/>
    <rect x="302.75" y="378.6941" width="5" height="25" stroke="red" stroke-width="1" fill="none"/>
    <rect x="299.75" y="301.9084" width="3" height="89.28571" stroke="red" stroke-width="1" fill="none"/>
    <rect x="362.75" y="53.194107" width="75" height="75" stroke="red" stroke-width="1" fill="none"/>
    <path d="M 399.54883 50 C 420.17218 50 436.8966 67.88417 436.8966 89.88881 C 436.8966 111.893585 420.17218 129.77774 399.54883 129.77774 C 378.9254 129.77774 362.1996 111.893585 362.1996 89.88881 C 362.1996 67.88417 378.9254 50 399.54883 50 Z M 399.54883 56.388214 C 382.20978 56.388214 368.116 71.388794 368.116 89.88881 C 368.116 108.388824 382.20978 123.389404 399.54883 123.389404 C 416.8864 123.389404 430.98022 108.388824 430.98022 89.88881 C 430.98022 71.388794 416.8864 56.388214 399.54883 56.388214 Z M 386.93652 92.507484 Q 386.93652 81.68999 391.14056 76.331436 Q 395.34457 70.972885 403.5769 70.972885 Q 406.41306 70.972885 408.04446 71.44975 L 408.04446 75.038864 Q 406.11188 74.41139 403.6271 74.41139 Q 397.72894 74.41139 394.6167 78.08833 Q 391.5045 81.765274 391.2033 89.64624 L 391.5045 89.64624 Q 394.26532 85.329285 400.2388 85.329285 Q 405.18323 85.329285 408.03192 88.31602 Q 410.8806 91.30275 410.8806 96.42287 Q 410.8806 102.14535 407.75583 105.420715 Q 404.63104 108.696075 399.31015 108.696075 Q 393.61276 108.696075 390.27466 104.41677 Q 386.93652 100.13746 386.93652 92.507484 Z M 399.25995 105.15717 Q 402.82394 105.15717 404.7942 102.91085 Q 406.76443 100.66453 406.76443 96.42287 Q 406.76443 92.78357 404.93222 90.70038 Q 403.10004 88.617195 399.46072 88.617195 Q 397.20187 88.617195 395.31946 89.545845 Q 393.43707 90.474495 392.3202 92.1059 Q 391.2033 93.73731 391.2033 95.49422 Q 391.2033 98.07937 392.20724 100.31315 Q 393.21118 102.54692 395.05594 103.85205 Q 396.9007 105.15717 399.25995 105.15717 Z " fill="black"/>
    <rect x="375.25" y="366.1941" width="32.5" height="25" stroke="red" stroke-width="1" fill="none"/>
    <path d="M 375.25 382.09412 Q 375.25 376.09412 381.85 370.54413 Q 388.45 364.9941 395.35 364.9941 Q 398.15 364.9941 400.7 365.6941 Q 403.25 366.3941 405.55 368.8941 Q 407.85 371.3941 407.85 375.29413 Q 407.85 380.79413 401.15 386.59412 Q 394.45 392.3941 387.75 392.3941 Q 384.95 392.3941 382.4 391.6941 Q 379.85 390.9941 377.55 388.4941 Q 375.25 385.9941 375.25 382.09412 Z " fill="black"/>
    <rect x="407.75" y="366.1941" width="5" height="25" stroke="red" stroke-width="1" fill="none"/>
    <rect x="375.25" y="378.6941" width="3" height="89.28571" stroke="red" stroke-width="1" fill="none"/>
    <rect x="467.75" y="28.194107" width="75" height="75" stroke="red" stroke-width="1" fill="none"/>
    <path d="M 504.54883 25 C 525.1722 25 541.8966 42.88417 541.8966 64.88881 C 541.8966 86.893585 525.1722 104.77775 504.54883 104.77775 C 483.9254 104.77775 467.1996 86.893585 467.1996 64.88881 C 467.1996 42.88417 483.9254 25 504.54883 25 Z M 504.54883 31.388214 C 487.20978 31.388214 473.116 46.388794 473.116 64.88881 C 473.116 83.388824 487.20978 98.389404 504.54883 98.389404 C 521.8864 98.389404 535.9802 83.388824 535.9802 64.88881 C 535.9802 46.388794 521.8864 31.388214 504.54883 31.388214 Z M 496.1531 83.19411 L 511.36285 50.340042 L 491.35928 50.340042 L 491.35928 46.499954 L 515.7802 46.499954 L 515.7802 49.83806 L 500.77124 83.19411 L 496.1531 83.19411 Z " fill="black"/>
    <rect x="480.25" y="353.6941" width="32.5" height="25" stroke="red" stroke-width="1" fill="none"/>
    <path d="M 480.25 369.59412 Q 480.25 363.59412 486.85 358.04413 Q 493.45 352.4941 500.35 352.4941 Q 503.15 352.4941 505.7 353.1941 Q 508.25 353.8941 510.55 356.3941 Q 512.85 358.8941 512.85 362.79413 Q 512.85 368.29413 506.15 374.09412 Q 499.45 379.8941 492.75 379.8941 Q 489.95 379.8941 487.4 379.1941 Q 484.85 378.4941 482.55 375.9941 Q 480.25 373.4941 480.25 369.59412 Z " fill="black"/>
    <rect x="512.75" y="353.6941" width="5" height="25" stroke="red" stroke-width="1" fill="none"/>
    <rect x="480.25" y="366.1941" width="3" height="89.28571" stroke="red" stroke-width="1" fill="none"/>
    <rect x="572.75" y="3.194107" width="75" height="75" stroke="red" stroke-width="1" fill="none"/>
    <path d="M 609.5488 0 C 630.1722 0 646.8966 17.88417 646.8966 39.88881 C 646.8966 61.893585 630.1722 79.777756 609.5488 79.777756 C 588.9254 79.777756 572.1996 61.893585 572.1996 39.88881 C 572.1996 17.88417 588.9254 0 609.5488 0 Z M 609.5488 6.388214 C 592.2098 6.388214 578.11597 21.388794 578.11597 39.88881 C 578.11597 58.388824 592.2098 73.389404 609.5488 73.389404 C 626.8864 73.389404 640.9802 58.388824 640.9802 39.88881 C 640.9802 21.388794 626.8864 6.388214 609.5488 6.388214 Z M 611.9455 58.194107 L 607.8795 58.194107 L 607.8795 32.041367 Q 607.8795 28.77855 608.0803 25.867111 Q 607.5532 26.39418 606.9007 26.97145 Q 606.2481 27.548721 600.9272 31.865677 L 598.71857 29.00444 L 608.4317 21.499954 L 611.9455 21.499954 L 611.9455 58.194107 Z " fill="black"/>
    <rect x="585.25" y="341.1941" width="32.5" height="25" stroke="red" stroke-width="1" fill="none"/>
    <path d="M 585.25 357.09412 Q 585.25 351.09412 591.85 345.54413 Q 598.45 339.9941 605.35 339.9941 Q 608.15 339.9941 610.7 340.6941 Q 613.25 341.3941 615.55 343.8941 Q 617.85 346.3941 617.85 350.29413 Q 617.85 355.79413 611.15 361.59412 Q 604.45 367.3941 597.75 367.3941 Q 594.95 367.3941 592.4 366.6941 Q 589.85 365.9941 587.55 363.4941 Q 585.25 360.9941 585.25 357.09412 Z " fill="black"/>
    <rect x="617.75" y="341.1941" width="5" height="25" stroke="red" stroke-width="1" fill="none"/>
    <rect x="585.25" y="353.6941" width="3" height="89.28571" stroke="red" stroke-width="1" fill="none"/>
    <line x1="196.25" y1="351.9084" x2="196.25" y2="437.1941" stroke="black" stroke-width="3"/>
    <line x1="301.25" y1="301.9084" x2="301.25" y2="387.1941" stroke="black" stroke-width="3"/>
    <line x1="376.75" y1="382.6941" x2="376.75" y2="467.9798" stroke="black" stroke-width="3"/>
    <line x1="481.75" y1="370.1941" x2="481.75" y2="455.4798" stroke="black" stroke-width="3"/>
    <line x1="586.75" y1="357.6941" x2="586.75" y2="442.9798" stroke="black" stroke-width="3"/>
    <rect x="0" y="0" width="649" height="479.1941" stroke="black" stroke-width="1" fill="none"/>
</svg>
