<svg xmlns="http://www.w3.org/2000/svg" xmlns:xlink="http://www.w3.org/1999/xlink" viewBox="0 0 289.5 409.3">
    <rect x="0.5" y="46.300003" width="10" height="10" stroke="orange" stroke-width="1" fill="none"/>
    <path d="M 0.5 102.5 L 0.5 100 L 100.5 100 L 100.5 102.5 L 0.5 102.5 Z M 0.5 77.5 L 0.5 75 L 100.5 75 L 100.5 77.5 L 0.5 77.5 Z M 0.5 52.500004 L 0.5 50.000004 L 100.5 50.000004 L 100.5 52.500004 L 0.5 52.500004 Z M 0.5 27.5 L 0.5 25 L 100.5 25 L 100.5 27.5 L 0.5 27.5 Z M 0.5 2.5 L 0.5 0 L 100.5 0 L 100.5 2.5 L 0.5 2.5 Z " fill="orange"/>
    <rect x="0.5" y="196.3" width="10" height="10" stroke="orange" stroke-width="1" fill="none"/>
    <path d="M 0.5 252.5 L 0.5 250 L 100.5 250 L 100.5 252.5 L 0.5 252.5 Z M 0.5 227.5 L 0.5 225 L 100.5 225 L 100.5 227.5 L 0.5 227.5 Z M 0.5 202.5 L 0.5 200 L 100.5 200 L 100.5 202.5 L 0.5 202.5 Z M 0.5 177.5 L 0.5 175 L 100.5 175 L 100.5 177.5 L 0.5 177.5 Z M 0.5 152.5 L 0.5 150 L 100.5 150 L 100.5 152.5 L 0.5 152.5 Z " fill="orange"/>
    <rect x="0.5" y="316.3" width="10" height="10" stroke="orange" stroke-width="1" fill="none"/>
    <path d="M 0.5 372.5 L 0.5 370 L 100.5 370 L 100.5 372.5 L 0.5 372.5 Z M 0.5 347.5 L 0.5 345 L 100.5 345 L 100.5 347.5 L 0.5 347.5 Z M 0.5 322.5 L 0.5 320 L 100.5 320 L 100.5 322.5 L 0.5 322.5 Z M 0.5 297.5 L 0.5 295 L 100.5 295 L 100.5 297.5 L 0.5 297.5 Z M 0.5 272.5 L 0.5 270 L 100.5 270 L 100.5 272.5 L 0.5 272.5 Z " fill="orange"/>
    <rect x="10.5" y="1.300003" width="74" height="84" stroke="orange" stroke-width="1" fill="none"/>
    <path d="M 67.5 38.800003 Q 67.5 36.700005 69 35.200005 Q 70.5 33.700005 72.600006 33.700005 Q 74.700005 33.700005 76.200005 35.200005 Q 77.700005 36.700005 77.700005 38.800003 Q 77.700005 40.9 76.200005 42.4 Q 74.700005 43.9 72.600006 43.9 Q 70.5 43.9 69 42.4 Q 67.5 40.9 67.5 38.800003 Z M 67.5 13.800003 Q 67.5 11.700005 69 10.200005 Q 70.5 8.700005 72.600006 8.700005 Q 74.700005 8.700005 76.200005 10.200005 Q 77.700005 11.700005 77.700005 13.800003 Q 77.700005 15.900002 76.200005 17.400002 Q 74.700005 18.900002 72.600006 18.900002 Q 70.5 18.900002 69 17.400002 Q 67.5 15.900002 67.5 13.800003 Z M 22.7 14.400002 Q 27.2 14.400002 30.1 17.300003 Q 33 20.200003 33 24.400003 Q 33 28.800003 30.1 31.900003 Q 27.2 35.000004 23 35.000004 Q 18.5 35.000004 15.15 31.900003 Q 11.8 28.800003 11.8 24.400003 Q 11.8 13.600002 19 6.800003 Q 26.2 0 36.9 0 Q 49 0 56.65 6.9500046 Q 64.3 13.900002 64.3 25.100002 Q 64.3 60.500004 12.9 83.200005 Q 12.2 83.5 11.8 83.5 Q 10.5 83.5 10.5 82.200005 Q 10.5 81.5 11.8 80.700005 Q 19.8 76 25.05 72.40001 Q 30.300001 68.8 35.9 63.700005 Q 41.5 58.600002 44.7 53.450005 Q 47.9 48.300003 50 41.300003 Q 52.100002 34.300003 52.100002 26.100002 Q 52.100002 15.700005 47.55 9.400002 Q 43 3.1000023 35.1 3.1000023 Q 30.300001 3.1000023 26.400002 5.3500023 Q 22.5 7.6000023 21 11.500004 Q 20.6 12.800003 21.1 13.500004 Q 21.8 14.400002 22.7 14.400002 Z " fill="black"/>
    <rect x="10.5" y="85.3" width="74" height="186" stroke="orange" stroke-width="1" fill="none"/>
    <path d="M 35.300003 143.8 Q 33 136.5 32.1 130.8 Q 31.300001 126 31.300001 119.6 Q 31.300001 117.4 31.4 115.200005 Q 31.800001 105.700005 35.300003 97.75 Q 38.800003 89.8 45.8 85.6 Q 46.3 85.3 47.100002 85.3 Q 47.8 85.3 48.3 85.8 Q 53.9 91.4 56.9 100.1 Q 59.9 108.8 59.9 117.700005 Q 59.9 128 55.5 137.9 Q 51.3 147.8 43.7 155.4 Q 43.100002 156 43.3 157 L 47.3 173 Q 47.600002 174.6 49.3 174.4 Q 50.9 174.20001 52.4 174.20001 Q 58.2 174.20001 62.9 176.5 Q 67.600006 178.8 70.5 182.5 Q 73.4 186.2 74.950005 190.65001 Q 76.5 195.1 76.5 199.8 Q 76.5 208.40001 71.7 215.35 Q 66.9 222.3 60.2 224.5 Q 58.8 225 59.100002 226.6 Q 61.600002 238.40001 61.7 246.5 Q 61.7 249.6 61.3 252.6 Q 60.5 259.5 55.3 264.7 Q 50.100002 269.90002 42.9 269.90002 Q 34.1 269.90002 28 264.6 Q 21.900002 259.3 21.900002 250.7 Q 21.900002 246.3 25 243.1 Q 28.1 239.90001 32.300003 239.90001 Q 36.6 239.90001 39.550003 242.95 Q 42.5 246 42.5 250.2 Q 42.5 253.8 40.1 256.5 Q 37.7 259.3 34.300003 259.6 Q 33.1 259.7 32.7 260.8 Q 32.300003 261.90002 33.5 262.8 Q 37.1 265.6 42.300003 265.6 Q 48 265.6 52.15 261.5 Q 56.3 257.40002 57 252.2 Q 57.5 248.6 57.5 245 Q 57.5 237.2 55.100002 227.7 Q 54.7 226 52.9 226.2 Q 48.9 226.7 45.5 226.7 Q 30.7 226.7 20.6 217.40001 Q 10.5 208.1 10.5 192.1 Q 10.5 187.2 11.65 182.45 Q 12.8 177.70001 14.25 174.25 Q 15.700001 170.8 18.75 166.25 Q 21.8 161.7 23.650002 159.3 Q 25.5 156.9 29.5 152.15 Q 33.5 147.4 35 145.5 Q 35.6 144.8 35.300003 143.8 Z M 50.9 189.5 L 57.4 219 Q 57.7 220.3 59.2 220.3 Q 59.600002 220.3 59.9 220.2 Q 64 218.5 66.7 213.6 Q 69.4 208.7 69.4 203.90001 Q 69.4 196.90001 65.3 192.1 Q 61.100002 187.2 52.7 187.2 Q 52 187.2 51.45 187.75 Q 50.9 188.3 50.9 189 Q 50.8 189.3 50.9 189.5 Z M 37.1 161.7 Q 35.5 163.5 32.35 166.85 Q 29.2 170.20001 27.65 171.95001 Q 26.1 173.70001 23.85 176.9 Q 21.6 180.1 20.5 182.8 Q 19.400002 185.5 18.55 189.40001 Q 17.7 193.3 17.7 197.7 Q 17.7 203.8 21.45 209.5 Q 25.2 215.2 31.75 218.8 Q 38.300003 222.40001 45.8 222.40001 Q 48.5 222.40001 51.8 222.1 Q 52.600002 222 53.100002 221.35 Q 53.600002 220.7 53.4 219.90001 L 46.9 190 Q 46.600002 188.6 45 188.6 Q 44.7 188.6 44.3 188.7 Q 39.7 190.40001 37.800003 193.5 Q 35.9 196.6 35.9 201.3 Q 35.9 206.8 41.9 210.8 Q 42.600002 211.3 42.600002 212.3 Q 42.600002 213.1 41.95 213.8 Q 41.300003 214.5 40.4 214.5 Q 39.9 214.5 39.5 214.3 Q 33.800003 211.3 31.050001 206.15001 Q 28.300001 201 28.300001 195.3 Q 28.300001 189.8 32.25 183.95 Q 36.2 178.1 42.1 175.9 Q 43.600002 175.3 43.3 173.8 L 40.300003 162.5 Q 40.1 161.4 38.9 161.2 Q 37.7 161 37.1 161.7 Z M 53.9 103.5 Q 53.100002 100.9 51.2 100.9 Q 50.600002 100.9 50.100002 101.200005 Q 43.7 105 39.95 111.9 Q 36.2 118.8 36.2 126.5 Q 36.2 131.5 38.300003 138.8 Q 38.6 139.9 39.800003 140.1 Q 40.800003 140.2 41.5 139.4 Q 41.800003 139 44.350002 135.85 Q 46.9 132.70001 47.7 131.65 Q 48.5 130.6 50.4 127.65 Q 52.3 124.700005 53.05 122.75 Q 53.8 120.8 54.5 117.9 Q 55.2 115 55.2 112.1 Q 55.2 107.9 53.9 103.5 Z " fill="black"/>
    <rect x="10.5" y="271.3" width="74" height="100" stroke="orange" stroke-width="1" fill="none"/>
    <path d="M 43.4 321.3 Q 43.4 328.59998 47.9 328.59998 Q 49.3 328.59998 51.65 327.05 Q 54 325.5 55.600002 325.5 Q 65 325.5 71.75 331.5 Q 78.5 337.5 78.5 346.3 Q 78.5 371.3 52 371.3 Q 45.7 371.3 41.25 367.2 Q 36.800003 363.09998 36.800003 357.09998 Q 36.800003 353.90002 39.050003 351.65002 Q 41.300003 349.40002 44.4 349.40002 Q 47.5 349.40002 49.75 351.65002 Q 52 353.90002 52 357.09998 Q 52 359.09998 49.55 360.90002 Q 47.100002 362.7 47.100002 364.7 Q 47.100002 366.40002 48.55 367.45 Q 50 368.5 52 368.5 Q 60.100002 368.5 63.05 362.90002 Q 66 357.3 66 346.3 Q 66 341.8 65.65 338.90002 Q 65.3 336 64.25 333.40002 Q 63.2 330.8 61.05 329.55 Q 58.9 328.3 55.600002 328.3 Q 50.4 328.3 47.5 332.65002 Q 44.600002 337 44.600002 343.2 Q 44.600002 344.59998 43.2 344.59998 Q 41.9 344.59998 41.9 343.2 Q 41.9 338.90002 40.15 333.75 Q 38.4 328.59998 35.9 325 Q 35.2 323.90002 33.800003 324.3 Q 32.6 324.59998 32.6 326 L 32.6 370.3 Q 32.6 371.3 31.6 371.3 L 29.5 371.3 Q 28.5 371.3 28.5 370.3 L 28.5 272.3 Q 28.5 271.3 29.5 271.3 L 31.6 271.3 Q 32.6 271.3 32.6 272.3 L 32.6 316.40002 Q 32.6 317.8 33.800003 318.2 Q 35.1 318.7 35.9 317.5 Q 38.4 313.90002 40.15 308.8 Q 41.9 303.7 41.9 299.40002 Q 41.9 298 43.2 298 Q 44.600002 298 44.600002 299.40002 Q 44.600002 305.6 47.5 309.95 Q 50.4 314.3 55.600002 314.3 Q 58.9 314.3 61.05 313.05 Q 63.2 311.8 64.25 309.2 Q 65.3 306.6 65.65 303.7 Q 66 300.8 66 296.3 Q 66 285.3 63.05 279.7 Q 60.100002 274.1 52 274.1 Q 50 274.1 48.55 275.15002 Q 47.100002 276.2 47.100002 277.90002 Q 47.100002 279.90002 49.55 281.7 Q 52 283.5 52 285.5 Q 52 288.7 49.75 290.95 Q 47.5 293.2 44.4 293.2 Q 41.300003 293.2 39.050003 290.95 Q 36.800003 288.7 36.800003 285.5 Q 36.800003 279.5 41.25 275.40002 Q 45.7 271.3 52 271.3 Q 78.5 271.3 78.5 296.3 Q 78.5 305.1 71.75 311.09998 Q 65 317.09998 55.600002 317.09998 Q 54 317.09998 51.65 315.55 Q 49.3 314 47.9 314 Q 43.4 314 43.4 321.3 Z M 23.400002 371.3 L 11.5 371.3 Q 10.5 371.3 10.5 370.3 L 10.5 272.3 Q 10.5 271.3 11.5 271.3 L 23.400002 271.3 Q 24.400002 271.3 24.400002 272.3 L 24.400002 370.3 Q 24.400002 371.3 23.400002 371.3 Z " fill="black"/>
    <rect x="84.5" y="51.300003" width="2.5" height="87.5" stroke="blue" stroke-width="1" fill="none"/>
    <rect x="84.5" y="51.300003" width="2.5" height="87.5" fill="black"/>
    <rect x="84.5" y="38.800003" width="32.5" height="25" stroke="blue" stroke-width="1" fill="none"/>
    <path d="M 84.5 54.700005 Q 84.5 48.700005 91.1 43.15 Q 97.7 37.600002 104.6 37.600002 Q 107.4 37.600002 109.95 38.300003 Q 112.5 39.000004 114.8 41.500004 Q 117.100006 44.000004 117.100006 47.9 Q 117.100006 53.4 110.4 59.200005 Q 103.7 65 97 65 Q 94.2 65 91.65 64.3 Q 89.1 63.600002 86.8 61.100002 Q 84.5 58.600002 84.5 54.700005 Z " fill="black"/>
    <rect x="84.5" y="201.3" width="2.5" height="87.5" stroke="blue" stroke-width="1" fill="none"/>
    <rect x="84.5" y="201.3" width="2.5" height="87.5" fill="black"/>
    <rect x="84.5" y="188.8" width="32.5" height="25" stroke="blue" stroke-width="1" fill="none"/>
    <path d="M 84.5 204.7 Q 84.5 198.7 91.1 193.15001 Q 97.7 187.6 104.6 187.6 Q 107.4 187.6 109.95 188.3 Q 112.5 189 114.8 191.5 Q 117.100006 194 117.100006 197.90001 Q 117.100006 203.40001 110.4 209.2 Q 103.7 215 97 215 Q 94.2 215 91.65 214.3 Q 89.1 213.6 86.8 211.1 Q 84.5 208.6 84.5 204.7 Z " fill="black"/>
    <rect x="84.5" y="321.3" width="2.5" height="87.5" stroke="blue" stroke-width="1" fill="none"/>
    <rect x="84.5" y="321.3" width="2.5" height="87.5" fill="black"/>
    <rect x="84.5" y="308.8" width="32.5" height="25" stroke="blue" stroke-width="1" fill="none"/>
    <path d="M 84.5 324.7 Q 84.5 318.7 91.1 313.15002 Q 97.7 307.59998 104.6 307.59998 Q 107.4 307.59998 109.95 308.3 Q 112.5 309 114.8 311.5 Q 117.100006 314 117.100006 317.90002 Q 117.100006 323.40002 110.4 329.2 Q 103.7 335 97 335 Q 94.2 335 91.65 334.3 Q 89.1 333.59998 86.8 331.09998 Q 84.5 328.59998 84.5 324.7 Z " fill="black"/>
    <rect x="189.5" y="46.300003" width="10" height="10" stroke="orange" stroke-width="1" fill="none"/>
    <path d="M 189.5 102.5 L 189.5 100 L 289.5 100 L 289.5 102.5 L 189.5 102.5 Z M 189.5 77.5 L 189.5 75 L 289.5 75 L 289.5 77.5 L 189.5 77.5 Z M 189.5 52.500004 L 189.5 50.000004 L 289.5 50.000004 L 289.5 52.500004 L 189.5 52.500004 Z M 189.5 27.5 L 189.5 25 L 289.5 25 L 289.5 27.5 L 189.5 27.5 Z M 189.5 2.5 L 189.5 0 L 289.5 0 L 289.5 2.5 L 189.5 2.5 Z " fill="orange"/>
    <rect x="189.5" y="196.3" width="10" height="10" stroke="orange" stroke-width="1" fill="none"/>
    <path d="M 189.5 252.5 L 189.5 250 L 289.5 250 L 289.5 252.5 L 189.5 252.5 Z M 189.5 227.5 L 189.5 225 L 289.5 225 L 289.5 227.5 L 189.5 227.5 Z M 189.5 202.5 L 189.5 200 L 289.5 200 L 289.5 202.5 L 189.5 202.5 Z M 189.5 177.5 L 189.5 175 L 289.5 175 L 289.5 177.5 L 189.5 177.5 Z M 189.5 152.5 L 189.5 150 L 289.5 150 L 289.5 152.5 L 189.5 152.5 Z " fill="orange"/>
    <rect x="189.5" y="316.3" width="10" height="10" stroke="orange" stroke-width="1" fill="none"/>
    <path d="M 189.5 372.5 L 189.5 370 L 289.5 370 L 289.5 372.5 L 189.5 372.5 Z M 189.5 347.5 L 189.5 345 L 289.5 345 L 289.5 347.5 L 189.5 347.5 Z M 189.5 322.5 L 189.5 320 L 289.5 320 L 289.5 322.5 L 189.5 322.5 Z M 189.5 297.5 L 189.5 295 L 289.5 295 L 289.5 297.5 L 189.5 297.5 Z M 189.5 272.5 L 189.5 270 L 289.5 270 L 289.5 272.5 L 189.5 272.5 Z " fill="orange"/>
    <rect x="0" y="0" width="289.5" height="409.3" stroke="black" stroke-width="1" fill="none"/>
</svg>
