<svg xmlns="http://www.w3.org/2000/svg" xmlns:xlink="http://www.w3.org/1999/xlink" viewBox="0 0 779 350.2">
    <rect x="0.5" y="123" width="10" height="10" stroke="orange" stroke-width="1" fill="none"/>
    <rect x="0.5" y="304" width="10" height="10" stroke="orange" stroke-width="1" fill="none"/>
    <rect x="10.5" y="12" width="74" height="186" stroke="orange" stroke-width="1" fill="none"/>
    <path d="M 35.300003 70.5 Q 33 63.199997 32.1 57.5 Q 31.300001 52.699997 31.300001 46.299995 Q 31.300001 44.1 31.4 41.9 Q 31.800001 32.4 35.300003 24.449997 Q 38.800003 16.5 45.8 12.299995 Q 46.3 12 47.100002 12 Q 47.8 12 48.3 12.5 Q 53.9 18.099998 56.9 26.799995 Q 59.9 35.5 59.9 44.4 Q 59.9 54.699997 55.5 64.6 Q 51.3 74.5 43.7 82.1 Q 43.100002 82.7 43.3 83.7 L 47.3 99.7 Q 47.600002 101.3 49.3 101.1 Q 50.9 100.9 52.4 100.9 Q 58.2 100.9 62.9 103.2 Q 67.600006 105.5 70.5 109.2 Q 73.4 112.9 74.950005 117.35 Q 76.5 121.8 76.5 126.5 Q 76.5 135.1 71.7 142.05 Q 66.9 149 60.2 151.2 Q 58.8 151.7 59.100002 153.3 Q 61.600002 165.1 61.7 173.2 Q 61.7 176.3 61.3 179.3 Q 60.5 186.2 55.3 191.4 Q 50.100002 196.6 42.9 196.6 Q 34.1 196.6 28 191.3 Q 21.900002 186 21.900002 177.4 Q 21.900002 173 25 169.8 Q 28.1 166.6 32.300003 166.6 Q 36.6 166.6 39.550003 169.65 Q 42.5 172.7 42.5 176.9 Q 42.5 180.5 40.1 183.2 Q 37.7 186 34.300003 186.3 Q 33.1 186.4 32.7 187.5 Q 32.300003 188.6 33.5 189.5 Q 37.1 192.3 42.300003 192.3 Q 48 192.3 52.15 188.2 Q 56.3 184.1 57 178.9 Q 57.5 175.3 57.5 171.7 Q 57.5 163.9 55.100002 154.4 Q 54.7 152.7 52.9 152.9 Q 48.9 153.4 45.5 153.4 Q 30.7 153.4 20.6 144.1 Q 10.5 134.8 10.5 118.8 Q 10.5 113.9 11.65 109.15 Q 12.8 104.4 14.25 100.95 Q 15.700001 97.5 18.75 92.95 Q 21.8 88.399994 23.650002 86 Q 25.5 83.6 29.5 78.85 Q 33.5 74.1 35 72.2 Q 35.6 71.5 35.300003 70.5 Z M 50.9 116.2 L 57.4 145.7 Q 57.7 147 59.2 147 Q 59.600002 147 59.9 146.9 Q 64 145.2 66.7 140.3 Q 69.4 135.4 69.4 130.6 Q 69.4 123.6 65.3 118.8 Q 61.100002 113.9 52.7 113.9 Q 52 113.9 51.45 114.45 Q 50.9 115 50.9 115.7 Q 50.8 116 50.9 116.2 Z M 37.1 88.399994 Q 35.5 90.2 32.35 93.55 Q 29.2 96.9 27.65 98.65 Q 26.1 100.4 23.85 103.6 Q 21.6 106.8 20.5 109.5 Q 19.400002 112.2 18.55 116.1 Q 17.7 120 17.7 124.4 Q 17.7 130.5 21.45 136.2 Q 25.2 141.9 31.75 145.5 Q 38.300003 149.1 45.8 149.1 Q 48.5 149.1 51.8 148.8 Q 52.600002 148.7 53.100002 148.05 Q 53.600002 147.4 53.4 146.6 L 46.9 116.7 Q 46.600002 115.3 45 115.3 Q 44.7 115.3 44.3 115.4 Q 39.7 117.1 37.800003 120.2 Q 35.9 123.3 35.9 128 Q 35.9 133.5 41.9 137.5 Q 42.600002 138 42.600002 139 Q 42.600002 139.8 41.95 140.5 Q 41.300003 141.2 40.4 141.2 Q 39.9 141.2 39.5 141 Q 33.800003 138 31.050001 132.85 Q 28.300001 127.7 28.300001 122 Q 28.300001 116.5 32.25 110.65 Q 36.2 104.8 42.1 102.6 Q 43.600002 102 43.3 100.5 L 40.300003 89.2 Q 40.1 88.1 38.9 87.899994 Q 37.7 87.7 37.1 88.399994 Z M 53.9 30.199997 Q 53.100002 27.599998 51.2 27.599998 Q 50.600002 27.599998 50.100002 27.900002 Q 43.7 31.699997 39.95 38.6 Q 36.2 45.5 36.2 53.199997 Q 36.2 58.199997 38.300003 65.5 Q 38.6 66.6 39.800003 66.8 Q 40.800003 66.899994 41.5 66.1 Q 41.800003 65.7 44.350002 62.549995 Q 46.9 59.4 47.7 58.35 Q 48.5 57.299995 50.4 54.35 Q 52.3 51.4 53.05 49.449997 Q 53.8 47.5 54.5 44.6 Q 55.2 41.699997 55.2 38.799995 Q 55.2 34.6 53.9 30.199997 Z " fill="black"/>
    <ellipse cx="15.5" cy="314" rx="5" ry="5" stroke="gray" stroke-width="1" fill="none"/>
    <rect x="114.5" y="128" width="32.5" height="25" stroke="lightgray" stroke-width="1" fill="none"/>
    <path d="M 114.5 143.9 Q 114.5 137.9 121.1 132.35 Q 127.7 126.8 134.6 126.8 Q 137.4 126.8 139.95 127.5 Q 142.5 128.2 144.8 130.7 Q 147.1 133.2 147.1 137.1 Q 147.1 142.6 140.4 148.4 Q 133.7 154.2 127 154.2 Q 124.2 154.2 121.65 153.5 Q 119.1 152.8 116.8 150.3 Q 114.5 147.8 114.5 143.9 Z " fill="black"/>
    <rect x="114.5" y="168" width="25" height="70" stroke="lightgray" stroke-width="1" fill="none"/>
    <path d="M 125 213.4 Q 125.7 213.4 126.15 212.95 Q 126.6 212.5 126.6 211.9 Q 126.6 211.3 126.2 210.9 L 119 202.8 Q 116 199.4 116 196.5 Q 116 194 123.1 187.8 Q 126.8 184.5 126.8 179.5 Q 126.8 175.6 124.3 172.6 L 120.8 168.4 Q 120.4 167.9 120.4 167.4 Q 120.4 165.9 121.8 165.9 Q 122.7 165.9 123.3 166.6 L 138.3 184.4 Q 139.3 185.6 139.3 186.9 Q 139.3 188 138.5 189.2 Q 137.7 190.4 136.8 191.25 Q 135.9 192.1 134.15 193.55 Q 132.4 195 131.7 195.7 Q 127.5 199.6 127.5 204.3 Q 127.5 207.9 131.6 212.3 L 140 221.4 Q 140.4 221.8 140.4 222.4 Q 140.4 223 139.95 223.45 Q 139.5 223.9 139 223.9 Q 138.3 223.9 136.9 222.8 Q 133.2 220 129 220 Q 126.1 220 123.95 222.25 Q 121.8 224.5 121.8 227.4 Q 121.8 228.7 122 229.75 Q 122.2 230.8 122.75 231.9 Q 123.3 233 123.5 233.4 Q 123.7 233.8 124.6 235.05 Q 125.5 236.3 125.6 236.4 Q 125.9 236.8 125.8 237.3 Q 125.7 237.8 125.25 238.05 Q 124.8 238.3 124.3 238.2 Q 123.8 238.1 123 237.3 Q 119.6 233.8 117.05 229.45 Q 114.5 225.1 114.5 221.9 Q 114.5 218 117.25 215.7 Q 120 213.4 125 213.4 Z " fill="black"/>
    <rect x="84.5" y="103" width="30.000002" height="75" stroke="lightgray" stroke-width="1" fill="none"/>
    <path d="M 106.1 130.9 L 106.1 143.1 Q 106.1 143.9 106.6 144.4 Q 107.1 144.9 107.9 144.9 Q 108.2 144.9 108.5 144.8 L 109.3 144.5 Q 109.6 144.4 110 144.4 Q 110.8 144.4 111.4 145 Q 112 145.6 112 146.4 L 112 152.4 Q 112 153.7 110.7 154.2 L 107.3 155.5 Q 106.1 156 106.1 157.1 L 106.1 171.7 Q 106.1 172.5 105.55 173.05 Q 105 173.6 104.3 173.6 Q 103.5 173.6 102.95 173.05 Q 102.4 172.5 102.4 171.7 L 102.4 159.8 Q 102.4 159 101.85 158.5 Q 101.3 158 100.6 158 Q 100.2 158 99.9 158.1 L 95.3 159.9 Q 94.1 160.3 94.1 161.5 L 94.1 176.1 Q 94.1 176.9 93.5 177.45 Q 92.9 178 92.2 178 Q 91.5 178 90.95 177.45 Q 90.4 176.9 90.4 176.1 L 90.4 164.2 Q 90.4 163.4 89.85 162.9 Q 89.3 162.4 88.6 162.4 Q 88.3 162.4 88 162.5 L 87.2 162.8 Q 87 162.9 86.5 162.9 Q 85.7 162.9 85.1 162.3 Q 84.5 161.7 84.5 160.9 L 84.5 154.9 Q 84.5 153.5 85.8 153 L 89.2 151.8 Q 90.4 151.5 90.4 150.1 L 90.4 137.9 Q 90.4 137.1 89.85 136.6 Q 89.3 136.1 88.6 136.1 Q 88.3 136.1 88.1 136.2 L 87.2 136.5 Q 87 136.6 86.5 136.6 Q 85.7 136.6 85.1 136 Q 84.5 135.4 84.5 134.6 L 84.5 128.6 Q 84.5 127.3 85.8 126.8 L 89.3 125.5 Q 90.4 125 90.4 123.9 L 90.4 109.3 Q 90.4 108.5 90.95 107.95 Q 91.5 107.399994 92.2 107.399994 Q 92.9 107.399994 93.5 107.95 Q 94.1 108.5 94.1 109.3 L 94.1 121.2 Q 94.1 122 94.65 122.5 Q 95.2 123 96 123 Q 96.3 123 96.6 122.9 L 101.2 121.1 Q 102.4 120.6 102.4 119.4 L 102.4 104.899994 Q 102.4 104.1 102.95 103.55 Q 103.5 103 104.3 103 Q 105 103 105.55 103.55 Q 106.1 104.1 106.1 104.899994 L 106.1 116.9 Q 106.1 117.6 106.6 118.1 Q 107.1 118.6 107.8 118.6 Q 108.1 118.6 108.5 118.5 L 109.3 118.2 Q 109.5 118.1 110 118.1 Q 110.8 118.1 111.4 118.7 Q 112 119.3 112 120.1 L 112 126.1 Q 112 127.5 110.7 128 L 107.3 129.2 Q 106.1 129.5 106.1 130.9 Z M 102.4 145.7 L 102.4 133.6 Q 102.4 132.9 101.85 132.35 Q 101.3 131.8 100.6 131.8 Q 100.3 131.8 100 131.9 L 95.3 133.6 Q 94.1 134.1 94.1 135.3 L 94.1 147.4 Q 94.1 148.2 94.6 148.7 Q 95.1 149.2 95.9 149.2 Q 96.2 149.2 96.5 149.1 L 101.2 147.4 Q 102.4 146.9 102.4 145.7 Z " fill="black"/>
    <rect x="144" y="50.5" width="3" height="90" stroke="lightgray" stroke-width="1" fill="none"/>
    <rect x="144" y="50.5" width="3" height="90" fill="black"/>
    <rect x="95.159996" y="268.3" width="31.84" height="81.399994" stroke="lightgray" stroke-width="1" fill="none"/>
    <path d="M 104.52 325.82 Q 103.079994 325.82 101.6 324.7 Q 100.119995 323.58002 99.119995 321.97998 Q 98.119995 320.38 98.119995 318.94 Q 98.119995 316.38 99.479996 314.94 Q 100.84 313.5 103.799995 312.3 L 111.95999 308.94 Q 113.56 308.3 113.84 307.82 Q 114.119995 307.34 114.2 305.74 L 114.35999 300.62 Q 114.439995 298.53998 113.2 297.02 Q 111.95999 295.5 109.64 295.5 Q 108.439995 295.5 107.24 295.9 Q 106.03999 296.3 105.24 296.94 Q 104.759995 297.26 104.6 297.9 Q 104.439995 298.53998 104.439995 299.26 Q 104.439995 299.58002 104.479996 299.97998 Q 104.52 300.38 104.52 300.7 Q 104.52 301.09998 103.52 301.78 Q 102.52 302.46 101.28 302.97998 Q 100.03999 303.5 99.24 303.5 Q 98.84 303.5 98.6 303.3 Q 98.35999 303.09998 98.35999 302.78 Q 98.35999 301.5 99.2 300.02 Q 100.03999 298.53998 101.56 297.26 Q 103.399994 295.58002 105.56 294.3 Q 107.71999 293.02002 109.799995 292.3 Q 111.88 291.58002 113.479996 291.58002 Q 116.35999 291.58002 118.24 293.62 Q 120.119995 295.66 120.03999 298.7 L 119.64 317.9 Q 119.56 319.58002 120.399994 320.62 Q 121.24 321.66 122.52 321.66 Q 124.52 321.66 125.479996 320.78 Q 125.88 320.38 126.119995 320.38 Q 126.52 320.38 126.759995 320.62 Q 127 320.86 127 321.26 Q 127 322.14 126.119995 323.02002 Q 124.84 324.3 123.35999 325.06 Q 121.88 325.82 120.59999 325.82 Q 116.92 325.82 114.759995 321.66 L 114.52 321.66 Q 111.88 323.82 109.479996 324.82 Q 107.079994 325.82 104.52 325.82 Z M 108.28 321.97998 Q 109.88 321.97998 110.99999 321.46 Q 112.119995 320.94 113 320.06 Q 113.399994 319.66 113.67999 318.97998 Q 113.95999 318.3 114.03999 316.78 L 114.2 312.86 Q 114.28 311.97998 114.119995 311.58002 Q 113.95999 311.18 113.479996 311.18 Q 113.31999 311.18 112.92 311.26 Q 112.52 311.34 111.88 311.58002 Q 107.64 313.09998 106 314.74 Q 104.35999 316.38 104.35999 317.74 Q 104.35999 319.82 105.6 320.9 Q 106.84 321.97998 108.28 321.97998 Z " fill="black"/>
    <rect x="127" y="268.3" width="31.84" height="81.399994" stroke="lightgray" stroke-width="1" fill="none"/>
    <path d="M 136.36 325.82 Q 134.92 325.82 133.44 324.7 Q 131.96 323.58002 130.96 321.97998 Q 129.96 320.38 129.96 318.94 Q 129.96 316.38 131.32 314.94 Q 132.68 313.5 135.64 312.3 L 143.8 308.94 Q 145.4 308.3 145.68 307.82 Q 145.95999 307.34 146.04 305.74 L 146.2 300.62 Q 146.28 298.53998 145.04 297.02 Q 143.8 295.5 141.48 295.5 Q 140.28 295.5 139.08 295.9 Q 137.88 296.3 137.08 296.94 Q 136.6 297.26 136.44 297.9 Q 136.28 298.53998 136.28 299.26 Q 136.28 299.58002 136.32 299.97998 Q 136.36 300.38 136.36 300.7 Q 136.36 301.09998 135.36 301.78 Q 134.36 302.46 133.12 302.97998 Q 131.88 303.5 131.08 303.5 Q 130.68 303.5 130.44 303.3 Q 130.2 303.09998 130.2 302.78 Q 130.2 301.5 131.04 300.02 Q 131.88 298.53998 133.4 297.26 Q 135.24 295.58002 137.4 294.3 Q 139.56 293.02002 141.64 292.3 Q 143.72 291.58002 145.32 291.58002 Q 148.2 291.58002 150.08 293.62 Q 151.95999 295.66 151.88 298.7 L 151.48 317.9 Q 151.4 319.58002 152.24 320.62 Q 153.08 321.66 154.36 321.66 Q 156.36 321.66 157.32 320.78 Q 157.72 320.38 157.95999 320.38 Q 158.36 320.38 158.6 320.62 Q 158.84 320.86 158.84 321.26 Q 158.84 322.14 157.95999 323.02002 Q 156.68 324.3 155.2 325.06 Q 153.72 325.82 152.44 325.82 Q 148.76 325.82 146.6 321.66 L 146.36 321.66 Q 143.72 323.82 141.32 324.82 Q 138.92 325.82 136.36 325.82 Z M 140.12 321.97998 Q 141.72 321.97998 142.84 321.46 Q 143.95999 320.94 144.84 320.06 Q 145.24 319.66 145.52 318.97998 Q 145.8 318.3 145.88 316.78 L 146.04 312.86 Q 146.12 311.97998 145.95999 311.58002 Q 145.8 311.18 145.32 311.18 Q 145.16 311.18 144.76 311.26 Q 144.36 311.34 143.72 311.58002 Q 139.48 313.09998 137.84 314.74 Q 136.2 316.38 136.2 317.74 Q 136.2 319.82 137.44 320.9 Q 138.68 321.97998 140.12 321.97998 Z " fill="black"/>
    <rect x="158.84" y="268.3" width="31.84" height="81.399994" stroke="lightgray" stroke-width="1" fill="none"/>
    <path d="M 168.2 325.82 Q 166.76 325.82 165.28 324.7 Q 163.8 323.58002 162.8 321.97998 Q 161.8 320.38 161.8 318.94 Q 161.8 316.38 163.16 314.94 Q 164.51999 313.5 167.48 312.3 L 175.64 308.94 Q 177.23999 308.3 177.51999 307.82 Q 177.79999 307.34 177.87999 305.74 L 178.04 300.62 Q 178.12 298.53998 176.87999 297.02 Q 175.64 295.5 173.31999 295.5 Q 172.12 295.5 170.92 295.9 Q 169.72 296.3 168.92 296.94 Q 168.44 297.26 168.28 297.9 Q 168.12 298.53998 168.12 299.26 Q 168.12 299.58002 168.16 299.97998 Q 168.2 300.38 168.2 300.7 Q 168.2 301.09998 167.2 301.78 Q 166.2 302.46 164.95999 302.97998 Q 163.72 303.5 162.92 303.5 Q 162.51999 303.5 162.28 303.3 Q 162.04 303.09998 162.04 302.78 Q 162.04 301.5 162.87999 300.02 Q 163.72 298.53998 165.23999 297.26 Q 167.08 295.58002 169.23999 294.3 Q 171.4 293.02002 173.48 292.3 Q 175.56 291.58002 177.16 291.58002 Q 180.04 291.58002 181.92 293.62 Q 183.79999 295.66 183.72 298.7 L 183.31999 317.9 Q 183.23999 319.58002 184.08 320.62 Q 184.92 321.66 186.2 321.66 Q 188.2 321.66 189.16 320.78 Q 189.56 320.38 189.79999 320.38 Q 190.2 320.38 190.44 320.62 Q 190.68 320.86 190.68 321.26 Q 190.68 322.14 189.79999 323.02002 Q 188.51999 324.3 187.04 325.06 Q 185.56 325.82 184.28 325.82 Q 180.59999 325.82 178.44 321.66 L 178.2 321.66 Q 175.56 323.82 173.16 324.82 Q 170.76 325.82 168.2 325.82 Z M 171.95999 321.97998 Q 173.56 321.97998 174.68 321.46 Q 175.79999 320.94 176.68 320.06 Q 177.08 319.66 177.36 318.97998 Q 177.64 318.3 177.72 316.78 L 177.87999 312.86 Q 177.95999 311.97998 177.79999 311.58002 Q 177.64 311.18 177.16 311.18 Q 177 311.18 176.59999 311.26 Q 176.2 311.34 175.56 311.58002 Q 171.31999 313.09998 169.68 314.74 Q 168.04 316.38 168.04 317.74 Q 168.04 319.82 169.28 320.9 Q 170.51999 321.97998 171.95999 321.97998 Z " fill="black"/>
    <rect x="219.5" y="153" width="32.5" height="25" stroke="lightgray" stroke-width="1" fill="none"/>
    <path d="M 219.5 168.9 Q 219.5 162.9 226.1 157.35 Q 232.7 151.8 239.6 151.8 Q 242.4 151.8 244.95 152.5 Q 247.5 153.2 249.8 155.7 Q 252.1 158.2 252.1 162.1 Q 252.1 167.6 245.4 173.4 Q 238.7 179.2 232 179.2 Q 229.2 179.2 226.65 178.5 Q 224.1 177.8 221.8 175.3 Q 219.5 172.8 219.5 168.9 Z " fill="black"/>
    <rect x="252" y="165.5" width="33.75" height="25" stroke="lightgray" stroke-width="1" fill="none"/>
    <path d="M 276.9 167.9 Q 274 167.9 264.65 174.45 Q 255.3 181 255.3 184 Q 255.3 186.1 257.1 187.1 Q 258.9 188.1 261.4 188.1 Q 264.3 188.1 273.65 181.55 Q 283 175 283 172 Q 283 169.9 281.2 168.9 Q 279.4 167.9 276.9 167.9 Z M 252 181.8 Q 252 174.6 258.2 169.45 Q 264.4 164.3 273.2 164.3 Q 276.2 164.3 278.8 164.9 Q 281.4 165.5 283.8 167.9 Q 286.2 170.3 286.2 174.2 Q 286.2 181.4 280 186.55 Q 273.8 191.7 265 191.7 Q 262 191.7 259.4 191.1 Q 256.8 190.5 254.4 188.1 Q 252 185.7 252 181.8 Z " fill="black"/>
    <rect x="285.75" y="171.75" width="20" height="12.5" stroke="lightgray" stroke-width="1" fill="none"/>
    <path d="M 292 178 Q 292 175.7 293.6 174.1 Q 295.2 172.5 297.5 172.5 Q 299.8 172.5 301.4 174.1 Q 303 175.7 303 178 Q 303 180.3 301.4 181.9 Q 299.8 183.5 297.5 183.5 Q 295.2 183.5 293.6 181.9 Q 292 180.3 292 178 Z " fill="black"/>
    <rect x="249" y="75.5" width="3" height="90" stroke="lightgray" stroke-width="1" fill="none"/>
    <rect x="249" y="75.5" width="3" height="90" fill="black"/>
    <rect x="252" y="178" width="3" height="90" stroke="lightgray" stroke-width="1" fill="none"/>
    <rect x="252" y="178" width="3" height="90" fill="black"/>
    <rect x="193.6" y="268.3" width="38.399998" height="81.399994" stroke="lightgray" stroke-width="1" fill="none"/>
    <path d="M 214.32 325.82 Q 212.56 325.82 210.8 325.5 Q 209.04001 325.18 207.44 324.78 Q 205.68001 324.3 204.36 323.9 Q 203.04001 323.5 202.64 323.5 Q 202.16 323.5 201.72 323.82 Q 201.28 324.14 200.88 324.53998 Q 200.48001 324.94 200.16 324.94 Q 199.84001 324.94 199.44 324.66 Q 199.04001 324.38 199.04001 323.97998 Q 199.04001 323.26 199.32 321.5 Q 199.6 319.74 199.6 318.22 L 199.6 279.41998 Q 199.6 277.34 198.56001 275.82 Q 197.52 274.3 195.92001 273.58002 Q 195.6 273.41998 195.24 273.14 Q 194.88 272.86 194.88 272.38 Q 194.88 271.97998 195.20001 271.82 Q 195.52 271.66 195.84001 271.58002 Q 196.88 271.34 198.68001 270.7 Q 200.48001 270.06 202.08 269.41998 Q 203.68001 268.78 204.24 268.53998 Q 204.72 268.3 204.96 268.3 Q 205.12001 268.3 205.28 268.46 Q 205.44 268.62 205.44 268.86 Q 205.44 269.18 205.32 271.53998 Q 205.20001 273.9 205.20001 277.26 L 205.20001 293.66 Q 205.20001 295.18 205.36 295.7 Q 205.52 296.22 205.92001 296.3 Q 208.40001 294.22 211.68001 292.9 Q 214.96 291.58002 217.6 291.58002 Q 221.68001 291.58002 224.92001 293.66 Q 228.16 295.74 230.08 299.3 Q 232 302.86 232 307.34 Q 232 312.78 229.76001 316.97998 Q 227.52 321.18 223.56 323.5 Q 219.6 325.82 214.32 325.82 Z M 216.16 323.34 Q 219.20001 323.34 221.40001 321.46 Q 223.6 319.58002 224.8 316.34 Q 226 313.09998 226 309.09998 Q 226 305.97998 224.84001 302.7 Q 223.68001 299.41998 221.24 297.18 Q 218.8 294.94 214.96 294.94 Q 211.76001 294.94 209.36 295.97998 Q 206.96 297.02 205.20001 298.62 L 205.20001 314.14 Q 205.20001 316.94 206.76001 319.02002 Q 208.32 321.09998 210.84001 322.22 Q 213.36 323.34 216.16 323.34 Z " fill="black"/>
    <rect x="232" y="268.3" width="38.399998" height="81.399994" stroke="lightgray" stroke-width="1" fill="none"/>
    <path d="M 252.72 325.82 Q 250.95999 325.82 249.2 325.5 Q 247.44 325.18 245.84 324.78 Q 244.08 324.3 242.76 323.9 Q 241.44 323.5 241.04 323.5 Q 240.56 323.5 240.12 323.82 Q 239.68 324.14 239.28 324.53998 Q 238.88 324.94 238.56 324.94 Q 238.24 324.94 237.84 324.66 Q 237.44 324.38 237.44 323.97998 Q 237.44 323.26 237.72 321.5 Q 238 319.74 238 318.22 L 238 279.41998 Q 238 277.34 236.96 275.82 Q 235.92 274.3 234.32 273.58002 Q 234 273.41998 233.64 273.14 Q 233.28 272.86 233.28 272.38 Q 233.28 271.97998 233.6 271.82 Q 233.92 271.66 234.24 271.58002 Q 235.28 271.34 237.08 270.7 Q 238.88 270.06 240.48 269.41998 Q 242.08 268.78 242.64 268.53998 Q 243.12 268.3 243.36 268.3 Q 243.52 268.3 243.68 268.46 Q 243.84 268.62 243.84 268.86 Q 243.84 269.18 243.72 271.53998 Q 243.6 273.9 243.6 277.26 L 243.6 293.66 Q 243.6 295.18 243.76 295.7 Q 243.92 296.22 244.32 296.3 Q 246.8 294.22 250.08 292.9 Q 253.36 291.58002 256 291.58002 Q 260.08 291.58002 263.32 293.66 Q 266.56 295.74 268.48 299.3 Q 270.4 302.86 270.4 307.34 Q 270.4 312.78 268.16 316.97998 Q 265.91998 321.18 261.96 323.5 Q 258 325.82 252.72 325.82 Z M 254.56 323.34 Q 257.6 323.34 259.8 321.46 Q 262 319.58002 263.2 316.34 Q 264.4 313.09998 264.4 309.09998 Q 264.4 305.97998 263.24 302.7 Q 262.08 299.41998 259.64 297.18 Q 257.2 294.94 253.36 294.94 Q 250.16 294.94 247.76 295.97998 Q 245.36 297.02 243.6 298.62 L 243.6 314.14 Q 243.6 316.94 245.16 319.02002 Q 246.72 321.09998 249.24 322.22 Q 251.76 323.34 254.56 323.34 Z " fill="black"/>
    <rect x="270.4" y="268.3" width="38.399998" height="81.399994" stroke="lightgray" stroke-width="1" fill="none"/>
    <path d="M 291.12 325.82 Q 289.36 325.82 287.6 325.5 Q 285.84 325.18 284.24 324.78 Q 282.47998 324.3 281.16 323.9 Q 279.84 323.5 279.44 323.5 Q 278.96 323.5 278.52 323.82 Q 278.08 324.14 277.68 324.53998 Q 277.28 324.94 276.96 324.94 Q 276.63998 324.94 276.24 324.66 Q 275.84 324.38 275.84 323.97998 Q 275.84 323.26 276.12 321.5 Q 276.4 319.74 276.4 318.22 L 276.4 279.41998 Q 276.4 277.34 275.36 275.82 Q 274.32 274.3 272.72 273.58002 Q 272.4 273.41998 272.04 273.14 Q 271.68 272.86 271.68 272.38 Q 271.68 271.97998 272 271.82 Q 272.32 271.66 272.63998 271.58002 Q 273.68 271.34 275.47998 270.7 Q 277.28 270.06 278.88 269.41998 Q 280.47998 268.78 281.03998 268.53998 Q 281.52 268.3 281.75998 268.3 Q 281.91998 268.3 282.08 268.46 Q 282.24 268.62 282.24 268.86 Q 282.24 269.18 282.12 271.53998 Q 282 273.9 282 277.26 L 282 293.66 Q 282 295.18 282.16 295.7 Q 282.32 296.22 282.72 296.3 Q 285.19998 294.22 288.47998 292.9 Q 291.75998 291.58002 294.4 291.58002 Q 298.47998 291.58002 301.72 293.66 Q 304.96 295.74 306.88 299.3 Q 308.8 302.86 308.8 307.34 Q 308.8 312.78 306.56 316.97998 Q 304.32 321.18 300.36 323.5 Q 296.4 325.82 291.12 325.82 Z M 292.96 323.34 Q 296 323.34 298.19998 321.46 Q 300.4 319.58002 301.6 316.34 Q 302.8 313.09998 302.8 309.09998 Q 302.8 305.97998 301.63998 302.7 Q 300.47998 299.41998 298.03998 297.18 Q 295.6 294.94 291.75998 294.94 Q 288.56 294.94 286.16 295.97998 Q 283.75998 297.02 282 298.62 L 282 314.14 Q 282 316.94 283.56 319.02002 Q 285.12 321.09998 287.63998 322.22 Q 290.16 323.34 292.96 323.34 Z " fill="black"/>
    <rect x="333.5" y="140.5" width="32.5" height="25" stroke="lightgray" stroke-width="1" fill="none"/>
    <path d="M 333.5 156.4 Q 333.5 150.4 340.1 144.85 Q 346.7 139.3 353.6 139.3 Q 356.4 139.3 358.95 140 Q 361.5 140.7 363.8 143.2 Q 366.1 145.7 366.1 149.6 Q 366.1 155.1 359.4 160.9 Q 352.7 166.7 346 166.7 Q 343.2 166.7 340.65 166 Q 338.1 165.3 335.8 162.8 Q 333.5 160.3 333.5 156.4 Z " fill="black"/>
    <rect x="306" y="103" width="27.5" height="75" stroke="lightgray" stroke-width="1" fill="none"/>
    <path d="M 310.6 161.6 Q 310.6 162.8 311.6 163.2 Q 312.8 163.7 313.6 162.9 Q 320.2 156.9 320.2 149.3 Q 320.2 146.6 319.05 144.6 Q 317.9 142.6 315.9 142.6 Q 313.7 142.6 312.3 144.5 Q 310.9 146.4 310.8 148.9 L 310.6 161.6 Z M 313.4 139.5 Q 317.6 137.4 320.3 137.4 Q 324.1 137.4 326.4 140.4 Q 328.7 143.4 328.7 147.6 Q 328.7 150.5 327.85 152.85 Q 327 155.2 325.2 157.15 Q 323.4 159.1 321.85 160.4 Q 320.3 161.7 317.8 163.55 Q 315.3 165.4 314 166.5 Q 313.5 166.9 312.7 168 Q 311.9 169.1 311.15 169.7 Q 310.4 170.3 309.5 170.3 Q 308.5 170.3 307.85 169.6 Q 307.2 168.9 307.2 167.8 L 306 107.3 Q 307.3 106.5 308.7 106.5 Q 310.1 106.5 311.4 107.3 L 310.8 137.9 Q 310.8 138.9 311.6 139.4 Q 312.5 140 313.4 139.5 Z " fill="black"/>
    <rect x="363" y="63" width="3" height="90" stroke="lightgray" stroke-width="1" fill="none"/>
    <rect x="363" y="63" width="3" height="90" fill="black"/>
    <ellipse cx="338.5" cy="314" rx="5" ry="5" stroke="gray" stroke-width="1" fill="none"/>
    <rect x="393.5" y="78" width="32.5" height="75" stroke="lightgray" stroke-width="1" fill="none"/>
    <path d="M 409.6 121.4 Q 405.5 122.6 402.2 122.6 Q 398.7 122.6 396.1 120.35 Q 393.5 118.1 393.5 114.7 Q 393.5 111.7 395.6 109.6 Q 397.7 107.5 400.7 107.5 Q 402.6 107.5 404.2 108.55 Q 405.8 109.6 406.4 111.4 Q 406.7 112.1 407.05 114 Q 407.4 115.9 407.95 116.6 Q 408.5 117.3 409.8 117.3 Q 410.9 117.3 413.15 114.6 Q 415.4 111.9 415.8 110.5 L 419.4 98.7 Q 419.5 98.4 419.5 98.2 Q 419.5 97.5 418.95 96.95 Q 418.4 96.4 417.6 96.4 Q 417.3 96.4 417.1 96.5 Q 412.9 97.6 410 97.6 Q 406.5 97.6 403.9 95.35 Q 401.3 93.1 401.3 89.7 Q 401.3 86.7 403.45 84.6 Q 405.6 82.5 408.6 82.5 Q 410.5 82.5 412.05 83.55 Q 413.6 84.6 414.2 86.4 Q 414.5 87.1 414.85 89 Q 415.2 90.9 415.75 91.6 Q 416.3 92.3 417.6 92.3 Q 418.6 92.3 420.6 89.9 Q 422.6 87.5 423.3 86 Q 423.7 85.1 424.7 85.1 Q 425.7 85.1 426.1 86 L 408.2 153 Q 407.1 154 405.5 154 Q 403.8 154 402.7 153 L 411.8 123.6 Q 411.9 123.3 411.9 123 Q 411.9 122.3 411.4 121.8 Q 410.9 121.3 410.1 121.3 Q 409.9 121.3 409.6 121.4 Z " fill="black"/>
    <ellipse cx="398.5" cy="314" rx="5" ry="5" stroke="gray" stroke-width="1" fill="none"/>
    <rect x="453.5" y="115.5" width="32.5" height="25" stroke="lightgray" stroke-width="1" fill="none"/>
    <path d="M 453.5 131.4 Q 453.5 125.4 460.1 119.85 Q 466.7 114.3 473.6 114.3 Q 476.4 114.3 478.95 115 Q 481.5 115.7 483.8 118.2 Q 486.1 120.7 486.1 124.6 Q 486.1 130.1 479.4 135.9 Q 472.7 141.7 466 141.7 Q 463.2 141.7 460.65 141 Q 458.1 140.3 455.8 137.8 Q 453.5 135.3 453.5 131.4 Z " fill="black"/>
    <rect x="483" y="38" width="3" height="90" stroke="lightgray" stroke-width="1" fill="none"/>
    <rect x="483" y="38" width="3" height="90" fill="black"/>
    <ellipse cx="458.5" cy="314" rx="5" ry="5" stroke="gray" stroke-width="1" fill="none"/>
    <rect x="513.5" y="90.5" width="32.5" height="25" stroke="lightgray" stroke-width="1" fill="none"/>
    <path d="M 513.5 106.4 Q 513.5 100.4 520.1 94.85 Q 526.7 89.3 533.6 89.3 Q 536.4 89.3 538.95 90 Q 541.5 90.7 543.8 93.2 Q 546.1 95.7 546.1 99.6 Q 546.1 105.1 539.4 110.9 Q 532.7 116.7 526 116.7 Q 523.2 116.7 520.65 116 Q 518.1 115.3 515.8 112.8 Q 513.5 110.3 513.5 106.4 Z " fill="black"/>
    <rect x="543" y="13" width="3" height="90" stroke="lightgray" stroke-width="1" fill="none"/>
    <rect x="543" y="13" width="3" height="90" fill="black"/>
    <ellipse cx="518.5" cy="314" rx="5" ry="5" stroke="gray" stroke-width="1" fill="none"/>
    <rect x="618.5" y="78" width="32.5" height="25" stroke="lightgray" stroke-width="1" fill="none"/>
    <path d="M 618.5 93.9 Q 618.5 87.9 625.1 82.35 Q 631.7 76.8 638.6 76.8 Q 641.4 76.8 643.95 77.5 Q 646.5 78.2 648.8 80.7 Q 651.1 83.2 651.1 87.1 Q 651.1 92.6 644.4 98.4 Q 637.7 104.2 631 104.2 Q 628.2 104.2 625.65 103.5 Q 623.1 102.8 620.8 100.3 Q 618.5 97.8 618.5 93.9 Z " fill="black"/>
    <rect x="648" y="0.5" width="3" height="90" stroke="lightgray" stroke-width="1" fill="none"/>
    <rect x="648" y="0.5" width="3" height="90" fill="black"/>
    <rect x="597.6667" y="268.3" width="31.84" height="81.399994" stroke="lightgray" stroke-width="1" fill="none"/>
    <path d="M 607.0267 325.82 Q 605.5867 325.82 604.1067 324.7 Q 602.6267 323.58002 601.6267 321.97998 Q 600.6267 320.38 600.6267 318.94 Q 600.6267 316.38 601.9867 314.94 Q 603.3467 313.5 606.3067 312.3 L 614.4667 308.94 Q 616.0667 308.3 616.3467 307.82 Q 616.6267 307.34 616.70667 305.74 L 616.8667 300.62 Q 616.94666 298.53998 615.70667 297.02 Q 614.4667 295.5 612.14667 295.5 Q 610.9467 295.5 609.7467 295.9 Q 608.5467 296.3 607.7467 296.94 Q 607.26666 297.26 607.1067 297.9 Q 606.9467 298.53998 606.9467 299.26 Q 606.9467 299.58002 606.9867 299.97998 Q 607.0267 300.38 607.0267 300.7 Q 607.0267 301.09998 606.0267 301.78 Q 605.0267 302.46 603.7867 302.97998 Q 602.5467 303.5 601.7467 303.5 Q 601.3467 303.5 601.1067 303.3 Q 600.8667 303.09998 600.8667 302.78 Q 600.8667 301.5 601.70667 300.02 Q 602.5467 298.53998 604.0667 297.26 Q 605.9067 295.58002 608.0667 294.3 Q 610.2267 293.02002 612.3067 292.3 Q 614.38666 291.58002 615.9867 291.58002 Q 618.8667 291.58002 620.7467 293.62 Q 622.6267 295.66 622.5467 298.7 L 622.14667 317.9 Q 622.0667 319.58002 622.9067 320.62 Q 623.7467 321.66 625.0267 321.66 Q 627.0267 321.66 627.9867 320.78 Q 628.38666 320.38 628.6267 320.38 Q 629.0267 320.38 629.26666 320.62 Q 629.5067 320.86 629.5067 321.26 Q 629.5067 322.14 628.6267 323.02002 Q 627.3467 324.3 625.8667 325.06 Q 624.38666 325.82 623.1067 325.82 Q 619.4267 325.82 617.26666 321.66 L 617.0267 321.66 Q 614.38666 323.82 611.9867 324.82 Q 609.5867 325.82 607.0267 325.82 Z M 610.7867 321.97998 Q 612.38666 321.97998 613.5067 321.46 Q 614.6267 320.94 615.5067 320.06 Q 615.9067 319.66 616.1867 318.97998 Q 616.4667 318.3 616.5467 316.78 L 616.70667 312.86 Q 616.7867 311.97998 616.6267 311.58002 Q 616.4667 311.18 615.9867 311.18 Q 615.82666 311.18 615.4267 311.26 Q 615.0267 311.34 614.38666 311.58002 Q 610.14667 313.09998 608.5067 314.74 Q 606.8667 316.38 606.8667 317.74 Q 606.8667 319.82 608.1067 320.9 Q 609.3467 321.97998 610.7867 321.97998 Z " fill="black"/>
    <rect x="629.50665" y="268.3" width="38.399998" height="81.399994" stroke="lightgray" stroke-width="1" fill="none"/>
    <path d="M 650.2266 325.82 Q 648.4667 325.82 646.70667 325.5 Q 644.94666 325.18 643.3467 324.78 Q 641.5867 324.3 640.26666 323.9 Q 638.94666 323.5 638.54663 323.5 Q 638.06665 323.5 637.62665 323.82 Q 637.18665 324.14 636.7867 324.53998 Q 636.38666 324.94 636.06665 324.94 Q 635.74664 324.94 635.3467 324.66 Q 634.94666 324.38 634.94666 323.97998 Q 634.94666 323.26 635.2266 321.5 Q 635.50665 319.74 635.50665 318.22 L 635.50665 279.41998 Q 635.50665 277.34 634.4667 275.82 Q 633.42664 274.3 631.82666 273.58002 Q 631.50665 273.41998 631.14667 273.14 Q 630.7867 272.86 630.7867 272.38 Q 630.7867 271.97998 631.1066 271.82 Q 631.42664 271.66 631.74664 271.58002 Q 632.7867 271.34 634.5867 270.7 Q 636.38666 270.06 637.98663 269.41998 Q 639.5867 268.78 640.14667 268.53998 Q 640.62665 268.3 640.86664 268.3 Q 641.0267 268.3 641.18665 268.46 Q 641.3467 268.62 641.3467 268.86 Q 641.3467 269.18 641.2266 271.53998 Q 641.1066 273.9 641.1066 277.26 L 641.1066 293.66 Q 641.1066 295.18 641.26666 295.7 Q 641.42664 296.22 641.82666 296.3 Q 644.30664 294.22 647.5867 292.9 Q 650.86664 291.58002 653.50665 291.58002 Q 657.5867 291.58002 660.82666 293.66 Q 664.06665 295.74 665.98663 299.3 Q 667.9067 302.86 667.9067 307.34 Q 667.9067 312.78 665.6666 316.97998 Q 663.42664 321.18 659.4667 323.5 Q 655.50665 325.82 650.2266 325.82 Z M 652.06665 323.34 Q 655.1066 323.34 657.30664 321.46 Q 659.50665 319.58002 660.70667 316.34 Q 661.9067 313.09998 661.9067 309.09998 Q 661.9067 305.97998 660.74664 302.7 Q 659.5867 299.41998 657.14667 297.18 Q 654.70667 294.94 650.86664 294.94 Q 647.6666 294.94 645.26666 295.97998 Q 642.86664 297.02 641.1066 298.62 L 641.1066 314.14 Q 641.1066 316.94 642.6666 319.02002 Q 644.2266 321.09998 646.74664 322.22 Q 649.26666 323.34 652.06665 323.34 Z " fill="black"/>
    <rect x="667.9067" y="268.3" width="29.76" height="81.399994" stroke="lightgray" stroke-width="1" fill="none"/>
    <path d="M 684.94666 325.9 Q 680.94666 325.9 677.70667 323.86 Q 674.4667 321.82 672.5867 318.26 Q 670.70667 314.7 670.70667 310.3 Q 670.70667 305.09998 672.9867 300.86 Q 675.26666 296.62 679.1067 294.1 Q 682.94666 291.58002 687.5867 291.58002 Q 692.7867 291.58002 696.70667 294.38 Q 697.6667 295.1 697.6667 295.9 Q 697.6667 296.53998 697.1067 297.34 Q 696.5467 298.14 695.7467 298.66 Q 694.94666 299.18 694.2267 299.18 Q 693.82666 299.18 693.4267 298.9 Q 693.0267 298.62 692.5467 298.3 Q 690.7867 296.94 688.62665 295.74 Q 686.4667 294.53998 685.0267 294.53998 Q 681.1067 294.53998 678.6667 298.18 Q 676.2267 301.82 676.2267 307.74 Q 676.2267 311.5 677.8667 314.53998 Q 679.50665 317.58002 682.26666 319.34 Q 685.0267 321.09998 688.38666 321.09998 Q 690.70667 321.09998 692.38666 320.34 Q 694.06665 319.58002 695.9867 317.66 Q 696.14667 317.5 696.38666 317.38 Q 696.62665 317.26 696.7867 317.26 Q 697.6667 317.26 697.6667 318.38 Q 697.6667 318.86 697.38666 319.46 Q 697.1067 320.06 696.4667 320.86 Q 695.18665 322.46 693.4267 323.62 Q 691.6667 324.78 689.5467 325.34 Q 687.4267 325.9 684.94666 325.9 Z " fill="black"/>
    <rect x="693.5" y="140.5" width="32.5" height="25" stroke="lightgray" stroke-width="1" fill="none"/>
    <path d="M 693.5 156.4 Q 693.5 150.4 700.1 144.85 Q 706.7 139.3 713.6 139.3 Q 716.4 139.3 718.95 140 Q 721.5 140.7 723.8 143.2 Q 726.1 145.7 726.1 149.6 Q 726.1 155.1 719.4 160.9 Q 712.7 166.7 706 166.7 Q 703.2 166.7 700.65 166 Q 698.1 165.3 695.8 162.8 Q 693.5 160.3 693.5 156.4 Z " fill="black"/>
    <rect x="723" y="25.5" width="3" height="127.5" stroke="lightgray" stroke-width="1" fill="none"/>
    <rect x="723" y="25.5" width="3" height="127.5" fill="black"/>
    <ellipse cx="698.5" cy="314" rx="5" ry="5" stroke="gray" stroke-width="1" fill="none"/>
    <rect x="768.5" y="123" width="10" height="10" stroke="orange" stroke-width="1" fill="none"/>
    <rect x="768.5" y="304" width="10" height="10" stroke="orange" stroke-width="1" fill="none"/>
    <rect x="0" y="0" width="779" height="350.2" stroke="black" stroke-width="1" fill="none"/>
</svg>
