<svg xmlns="http://www.w3.org/2000/svg" xmlns:xlink="http://www.w3.org/1999/xlink" viewBox="0 0 684.5 278.7">
    <line x1="1.25" y1="50.5" x2="683.25" y2="50.5" stroke="black" stroke-width="2.5"/>
    <line x1="1.25" y1="75.5" x2="683.25" y2="75.5" stroke="black" stroke-width="2.5"/>
    <line x1="1.25" y1="100.5" x2="683.25" y2="100.5" stroke="black" stroke-width="2.5"/>
    <line x1="1.25" y1="125.5" x2="683.25" y2="125.5" stroke="black" stroke-width="2.5"/>
    <line x1="1.25" y1="150.5" x2="683.25" y2="150.5" stroke="black" stroke-width="2.5"/>
    <rect x="1.25" y="0.5" width="10" height="200" stroke="orange" stroke-width="1" fill="none"/>
    <rect x="1.25" y="225" width="10" height="25" stroke="orange" stroke-width="1" fill="none"/>
    <rect x="11.25" y="10.5" width="74" height="186" stroke="orange" stroke-width="1" fill="none"/>
    <path d="M 36.050003 69 Q 33.75 61.7 32.85 56 Q 32.050003 51.199997 32.050003 44.799995 Q 32.050003 42.6 32.15 40.4 Q 32.550003 30.900002 36.050003 22.949997 Q 39.550003 15 46.55 10.799995 Q 47.05 10.5 47.850002 10.5 Q 48.55 10.5 49.05 11 Q 54.65 16.599998 57.65 25.299995 Q 60.65 34 60.65 42.9 Q 60.65 53.199997 56.25 63.1 Q 52.05 73 44.45 80.6 Q 43.850002 81.2 44.05 82.2 L 48.05 98.2 Q 48.350002 99.8 50.05 99.6 Q 51.65 99.4 53.15 99.4 Q 58.95 99.4 63.65 101.7 Q 68.350006 104 71.25 107.7 Q 74.15 111.4 75.700005 115.85 Q 77.25 120.3 77.25 125 Q 77.25 133.6 72.45 140.55 Q 67.65 147.5 60.95 149.7 Q 59.55 150.2 59.850002 151.8 Q 62.350002 163.6 62.45 171.7 Q 62.45 174.8 62.05 177.8 Q 61.25 184.7 56.05 189.9 Q 50.850002 195.1 43.65 195.1 Q 34.85 195.1 28.75 189.8 Q 22.650002 184.5 22.650002 175.9 Q 22.650002 171.5 25.75 168.3 Q 28.85 165.1 33.050003 165.1 Q 37.35 165.1 40.300003 168.15 Q 43.25 171.2 43.25 175.4 Q 43.25 179 40.85 181.7 Q 38.45 184.5 35.050003 184.8 Q 33.85 184.9 33.45 186 Q 33.050003 187.1 34.25 188 Q 37.85 190.8 43.050003 190.8 Q 48.75 190.8 52.9 186.7 Q 57.05 182.6 57.75 177.4 Q 58.25 173.8 58.25 170.2 Q 58.25 162.4 55.850002 152.9 Q 55.45 151.2 53.65 151.4 Q 49.65 151.9 46.25 151.9 Q 31.45 151.9 21.35 142.6 Q 11.25 133.3 11.25 117.3 Q 11.25 112.4 12.4 107.65 Q 13.55 102.9 15 99.45 Q 16.45 96 19.5 91.45 Q 22.55 86.899994 24.400002 84.5 Q 26.25 82.1 30.25 77.35 Q 34.25 72.6 35.75 70.7 Q 36.35 70 36.050003 69 Z M 51.65 114.7 L 58.15 144.2 Q 58.45 145.5 59.95 145.5 Q 60.350002 145.5 60.65 145.4 Q 64.75 143.7 67.45 138.8 Q 70.15 133.9 70.15 129.1 Q 70.15 122.1 66.05 117.3 Q 61.850002 112.4 53.45 112.4 Q 52.75 112.4 52.2 112.95 Q 51.65 113.5 51.65 114.2 Q 51.55 114.5 51.65 114.7 Z M 37.85 86.899994 Q 36.25 88.7 33.1 92.05 Q 29.95 95.4 28.4 97.15 Q 26.85 98.9 24.6 102.1 Q 22.35 105.3 21.25 108 Q 20.150002 110.7 19.3 114.6 Q 18.45 118.5 18.45 122.9 Q 18.45 129 22.2 134.7 Q 25.95 140.4 32.5 144 Q 39.050003 147.6 46.55 147.6 Q 49.25 147.6 52.55 147.3 Q 53.350002 147.2 53.850002 146.55 Q 54.350002 145.9 54.15 145.1 L 47.65 115.2 Q 47.350002 113.8 45.75 113.8 Q 45.45 113.8 45.05 113.9 Q 40.45 115.6 38.550003 118.7 Q 36.65 121.8 36.65 126.5 Q 36.65 132 42.65 136 Q 43.350002 136.5 43.350002 137.5 Q 43.350002 138.3 42.7 139 Q 42.050003 139.7 41.15 139.7 Q 40.65 139.7 40.25 139.5 Q 34.550003 136.5 31.800001 131.35 Q 29.050001 126.2 29.050001 120.5 Q 29.050001 115 33 109.15 Q 36.95 103.3 42.85 101.1 Q 44.350002 100.5 44.05 99 L 41.050003 87.7 Q 40.85 86.6 39.65 86.399994 Q 38.45 86.2 37.85 86.899994 Z M 54.65 28.699997 Q 53.850002 26.099998 51.95 26.099998 Q 51.350002 26.099998 50.850002 26.400002 Q 44.45 30.199997 40.7 37.1 Q 36.95 44 36.95 51.699997 Q 36.95 56.699997 39.050003 64 Q 39.35 65.1 40.550003 65.3 Q 41.550003 65.399994 42.25 64.6 Q 42.550003 64.2 45.100002 61.049995 Q 47.65 57.9 48.45 56.85 Q 49.25 55.799995 51.15 52.85 Q 53.05 49.9 53.8 47.949997 Q 54.55 46 55.25 43.1 Q 55.95 40.199997 55.95 37.299995 Q 55.95 33.1 54.65 28.699997 Z " fill="black"/>
    <ellipse cx="16.25" cy="242.5" rx="5" ry="5" stroke="gray" stroke-width="1" fill="none"/>
    <rect x="91.25" y="163" width="32.5" height="25" stroke="red" stroke-width="1" fill="none"/>
    <path d="M 91.25 178.9 Q 91.25 172.9 97.85 167.35 Q 104.45 161.8 111.35 161.8 Q 114.15 161.8 116.7 162.5 Q 119.25 163.2 121.55 165.7 Q 123.850006 168.2 123.850006 172.1 Q 123.850006 177.6 117.15 183.4 Q 110.45 189.2 103.75 189.2 Q 100.95 189.2 98.4 188.5 Q 95.85 187.8 93.55 185.3 Q 91.25 182.8 91.25 178.9 Z " fill="black"/>
    <rect x="123.75" y="163" width="5" height="25" stroke="red" stroke-width="1" fill="none"/>
    <rect x="85" y="174.25" width="45" height="2.5" stroke="red" stroke-width="1" fill="none"/>
    <rect x="85" y="174.25" width="45" height="2.5" fill="black"/>
    <rect x="120.75" y="86.21429" width="3" height="89.28571" stroke="red" stroke-width="1" fill="none"/>
    <rect x="91.25" y="73.71429" width="50" height="25" stroke="red" stroke-width="1" fill="none"/>
    <rect x="57.73953" y="196.8" width="12.5" height="81.399994" stroke="red" stroke-width="1" fill="none"/>
    <rect x="70.23953" y="196.8" width="50.895786" height="81.399994" stroke="red" stroke-width="1" fill="none"/>
    <path d="M 78.57684 209.8587 L 73.548996 209.09499 L 73.548996 205.91281 L 90.86006 205.91281 L 90.86006 209.09499 L 85.3867 209.8587 L 85.3867 226.97884 L 107.789246 226.97884 L 107.789246 209.8587 L 102.634125 209.09499 L 102.634125 205.91281 L 119.690605 205.91281 L 119.690605 209.09499 L 114.66276 209.8587 L 114.66276 249.44502 L 119.690605 250.08147 L 119.690605 253.2 L 102.57048 253.2 L 102.57048 250.08147 L 107.789246 249.44502 L 107.789246 230.92474 L 85.3867 230.92474 L 85.3867 249.44502 L 90.9237 250.08147 L 90.9237 253.2 L 73.421715 253.2 L 73.421715 250.08147 L 78.57684 249.44502 L 78.57684 209.8587 Z " fill="black"/>
    <rect x="121.135315" y="196.8" width="32.20366" height="81.399994" stroke="red" stroke-width="1" fill="none"/>
    <path d="M 127.91336 248.87224 Q 123.87199 243.84439 123.87199 235.44344 Q 123.87199 229.90645 125.97223 225.70596 Q 128.07246 221.5055 131.85925 219.21432 Q 135.64606 216.92316 140.48297 216.92316 Q 146.40182 216.92316 149.67947 220.20079 Q 152.9571 223.47844 153.14804 229.58823 Q 153.14804 233.47049 152.70253 235.50708 L 130.80914 235.50708 Q 130.93643 241.8078 133.73674 245.65823 Q 136.53706 249.50867 141.6922 249.50867 Q 144.23795 249.50867 147.00644 248.58583 Q 149.77493 247.66301 151.30238 246.39014 L 152.51161 249.19044 Q 150.66594 251.09976 147.03825 252.49992 Q 143.41057 253.90007 139.6556 253.90007 Q 131.95473 253.90007 127.91336 248.87224 Z M 146.14725 232.13397 Q 146.33818 230.79745 146.33818 229.3973 Q 146.27454 225.26047 144.58798 222.87383 Q 142.90143 220.48718 139.27374 220.48718 Q 135.58241 220.48718 133.3867 223.16022 Q 131.19101 225.83325 130.87279 232.13397 L 146.14725 232.13397 Z " fill="black"/>
    <rect x="153.33897" y="196.8" width="17.43198" height="81.399994" stroke="red" stroke-width="1" fill="none"/>
    <path d="M 160.65799 210.36786 Q 159.6397 209.22227 159.6397 207.44025 Q 159.6397 205.40366 160.88074 204.06714 Q 162.1218 202.73062 164.28568 202.73062 Q 166.44955 202.73062 167.46785 203.87622 Q 168.48615 205.0218 168.48615 206.80382 Q 168.48615 208.9677 167.2451 210.24057 Q 166.00404 211.51344 163.71288 211.51344 L 163.64923 211.51344 Q 161.67628 211.51344 160.65799 210.36786 Z M 156.01201 218.25967 L 165.87675 217.05045 L 166.00404 217.05045 L 167.4042 218.19601 L 167.4042 252.75449 Q 167.4042 258.03693 165.87675 261.63275 Q 164.34932 265.22864 161.73993 266.94702 Q 159.13054 268.6654 155.88472 268.6654 Q 153.40262 268.6654 152.9571 268.41083 L 152.6389 265.41956 Q 153.14804 265.48322 154.13452 265.2923 Q 155.121 265.10135 156.1393 264.71948 Q 158.74867 263.8285 159.7988 260.42352 Q 160.84892 257.01862 160.84892 251.2907 L 160.84892 222.9693 L 156.01201 221.8237 L 156.01201 218.25967 Z " fill="black"/>
    <rect x="191.25" y="150.5" width="32.5" height="25" stroke="red" stroke-width="1" fill="none"/>
    <path d="M 191.25 166.4 Q 191.25 160.4 197.85 154.85 Q 204.45 149.3 211.35 149.3 Q 214.15 149.3 216.7 150 Q 219.25 150.7 221.55 153.2 Q 223.85 155.7 223.85 159.6 Q 223.85 165.1 217.15 170.9 Q 210.45 176.7 203.75 176.7 Q 200.95 176.7 198.4 176 Q 195.85 175.3 193.55 172.8 Q 191.25 170.3 191.25 166.4 Z " fill="black"/>
    <rect x="223.75" y="150.5" width="5" height="25" stroke="red" stroke-width="1" fill="none"/>
    <rect x="220.75" y="73.71429" width="3" height="89.28571" stroke="red" stroke-width="1" fill="none"/>
    <rect x="191.25" y="61.214287" width="32.5" height="25" stroke="red" stroke-width="1" fill="none"/>
    <rect x="170.34096" y="196.8" width="12.5" height="81.399994" stroke="red" stroke-width="1" fill="none"/>
    <rect x="182.84096" y="196.8" width="28.35322" height="81.399994" stroke="red" stroke-width="1" fill="none"/>
    <path d="M 191.62378 248.1085 Q 192.26021 249.06317 194.32863 249.82689 Q 196.39705 250.5906 198.68822 250.5906 Q 202.3159 250.5906 204.03427 249.19044 Q 205.75266 247.7903 205.75266 245.3082 Q 205.75266 243.58981 204.67072 242.31694 Q 203.58878 241.04407 201.64764 240.0576 Q 199.70651 239.07112 196.07883 237.67096 Q 191.17827 235.8253 188.91891 233.24773 Q 186.65958 230.67017 186.65958 226.4697 Q 186.65958 223.66937 188.34613 221.56912 Q 190.03268 219.4689 192.99211 218.29149 Q 195.95154 217.11407 199.57922 217.11407 Q 202.50684 217.11407 204.70253 217.55959 Q 206.89824 218.0051 208.23476 218.45059 Q 209.57126 218.8961 210.01677 219.02339 L 210.01677 226.91519 L 206.1345 226.91519 L 204.86163 222.20557 Q 204.47978 221.44183 202.82504 220.90088 Q 201.17032 220.3599 199.13371 220.3599 Q 196.26976 220.3599 194.51956 221.63278 Q 192.76936 222.90564 192.76936 225.06952 Q 192.76936 226.97884 193.69218 228.21988 Q 194.61502 229.46094 196.01518 230.22466 Q 197.41534 230.98839 199.8338 232.00668 L 201.10667 232.51582 Q 204.67072 233.91599 206.89824 235.18886 Q 209.12576 236.46173 210.62138 238.53015 Q 212.117 240.59857 212.117 243.58981 Q 212.117 248.29944 208.4575 251.09976 Q 204.798 253.90007 198.43364 253.90007 Q 195.3151 253.90007 191.91017 253.0409 Q 188.50523 252.1817 186.34135 251.2907 L 186.34135 243.1443 L 190.4782 243.1443 L 191.62378 248.1085 Z " fill="black"/>
    <rect x="211.19418" y="196.8" width="34.373905" height="81.399994" stroke="red" stroke-width="1" fill="none"/>
    <path d="M 220.04065 234.83882 Q 226.02315 232.00668 235.18782 231.81575 L 235.18782 230.03372 Q 235.18782 227.04248 234.55138 225.3241 Q 233.91495 223.60573 232.35568 222.81018 Q 230.79642 222.01463 227.93245 222.01463 Q 224.68663 222.01463 222.10905 222.93747 Q 219.5315 223.86029 216.98575 225.19681 L 215.39465 221.88734 Q 216.22203 221.18727 218.44955 220.04169 Q 220.67708 218.8961 223.60469 218.0051 Q 226.53229 217.11407 229.4599 217.11407 Q 233.97859 217.11407 236.6198 218.35513 Q 239.261 219.59618 240.40659 222.33286 Q 241.55217 225.06952 241.55217 229.65187 L 241.55217 250.08147 L 245.30714 250.08147 L 245.30714 252.88177 Q 244.03427 253.2 242.09314 253.51822 Q 240.15202 253.83643 238.68822 253.83643 Q 236.90619 253.83643 236.26976 253.29546 Q 235.63333 252.75449 235.63333 250.90883 L 235.63333 248.8086 Q 233.72401 250.7179 230.95552 252.30899 Q 228.18703 253.90007 224.68663 253.90007 Q 220.10428 253.90007 217.08122 251.25887 Q 214.05815 248.61766 214.05815 243.65346 Q 214.05815 237.67096 220.04065 234.83882 Z M 231.24191 248.55402 Q 233.40579 247.53572 235.18782 246.13556 L 235.18782 235.18886 Q 228.25067 235.18886 224.71844 237.32092 Q 221.18623 239.45299 221.18623 242.88974 Q 221.18623 246.32649 222.87279 247.9494 Q 224.55934 249.57231 227.4233 249.57231 Q 229.07803 249.57231 231.24191 248.55402 Z " fill="black"/>
    <rect x="278.25" y="138" width="32.5" height="25" stroke="red" stroke-width="1" fill="none"/>
    <path d="M 278.25 153.9 Q 278.25 147.9 284.85 142.35 Q 291.45 136.8 298.35 136.8 Q 301.15 136.8 303.7 137.5 Q 306.25 138.2 308.55 140.7 Q 310.85 143.2 310.85 147.1 Q 310.85 152.6 304.15 158.4 Q 297.45 164.2 290.75 164.2 Q 287.95 164.2 285.4 163.5 Q 282.85 162.8 280.55 160.3 Q 278.25 157.8 278.25 153.9 Z " fill="black"/>
    <rect x="310.75" y="138" width="5" height="25" stroke="red" stroke-width="1" fill="none"/>
    <rect x="307.75" y="61.214287" width="3" height="89.28571" stroke="red" stroke-width="1" fill="none"/>
    <rect x="278.25" y="48.714287" width="50" height="25" stroke="red" stroke-width="1" fill="none"/>
    <rect x="245.67296" y="196.8" width="12.5" height="81.399994" stroke="red" stroke-width="1" fill="none"/>
    <rect x="258.17297" y="196.8" width="40.32458" height="81.399994" stroke="red" stroke-width="1" fill="none"/>
    <path d="M 266.51028 209.8587 L 261.54608 209.09499 L 261.54608 205.91281 L 270.01068 205.91281 Q 272.30185 205.91281 274.5294 205.72188 Q 277.96613 205.4673 281.02103 205.4673 Q 290.24933 205.53094 294.06796 208.90405 Q 297.88657 212.27716 297.88657 219.08704 Q 297.88657 224.17853 295.53177 227.93349 Q 293.17694 231.68846 289.0083 233.6614 Q 284.83963 235.63437 279.42993 235.63437 Q 277.58426 235.63437 275.67496 235.5389 Q 273.76566 235.44344 273.32016 235.37979 L 273.32016 249.38138 L 282.0393 250.08147 L 282.0393 253.2 L 261.22787 253.2 L 261.22787 250.08147 L 266.51028 249.44502 L 266.51028 209.8587 Z M 279.42993 232.19762 Q 284.45776 232.19762 287.60812 229.14272 Q 290.75848 226.08783 290.75848 219.15067 Q 290.75848 213.67732 288.02182 211.2907 Q 285.28516 208.90405 279.4936 208.90405 Q 277.45697 208.90405 275.1658 209.15863 Q 273.76566 209.28592 273.32016 209.28592 L 273.32016 231.8794 Q 275.10217 232.19762 279.42993 232.19762 Z " fill="black"/>
    <rect x="298.49756" y="196.8" width="32.20366" height="81.399994" stroke="red" stroke-width="1" fill="none"/>
    <path d="M 305.2756 248.87224 Q 301.23422 243.84439 301.23422 235.44344 Q 301.23422 229.90645 303.33447 225.70596 Q 305.43472 221.5055 309.2215 219.21432 Q 313.0083 216.92316 317.8452 216.92316 Q 323.76407 216.92316 327.04172 220.20079 Q 330.31937 223.47844 330.51028 229.58823 Q 330.51028 233.47049 330.0648 235.50708 L 308.1714 235.50708 Q 308.29868 241.8078 311.099 245.65823 Q 313.8993 249.50867 319.05444 249.50867 Q 321.6002 249.50867 324.36868 248.58583 Q 327.13718 247.66301 328.6646 246.39014 L 329.87384 249.19044 Q 328.0282 251.09976 324.4005 252.49992 Q 320.77283 253.90007 317.01785 253.90007 Q 309.31696 253.90007 305.2756 248.87224 Z M 323.5095 232.13397 Q 323.7004 230.79745 323.7004 229.3973 Q 323.63678 225.26047 321.95023 222.87383 Q 320.26367 220.48718 316.636 220.48718 Q 312.94464 220.48718 310.74896 223.16022 Q 308.55325 225.83325 308.23502 232.13397 L 323.5095 232.13397 Z " fill="black"/>
    <rect x="330.7012" y="196.8" width="25.202864" height="81.399994" stroke="red" stroke-width="1" fill="none"/>
    <path d="M 339.0385 252.1817 Q 337.2565 250.52696 337.2565 246.51743 L 337.2565 222.07828 L 332.67416 222.07828 L 332.67416 219.21432 Q 332.99237 219.15067 334.45618 218.76881 Q 335.91998 218.38695 336.42914 218.06873 Q 337.44742 217.49594 338.0202 215.77756 Q 338.52936 214.56833 339.22943 211.89531 Q 339.92953 209.22227 340.05682 208.71313 L 343.81177 208.71313 L 343.93906 217.8778 L 354.56754 217.8778 L 354.56754 222.07828 L 343.93906 222.07828 L 343.93906 241.61687 Q 343.93906 245.24455 344.16183 246.70834 Q 344.38458 248.17215 345.1165 248.61766 Q 345.8484 249.06317 347.6304 249.06317 Q 349.3488 249.06317 351.41718 248.61766 Q 353.4856 248.17215 354.6312 247.66301 L 355.58585 250.52696 Q 354.0584 251.67255 350.65347 252.75449 Q 347.24854 253.83643 344.4482 253.83643 Q 340.82053 253.83643 339.0385 252.1817 Z " fill="black"/>
    <rect x="377.25" y="125.5" width="32.5" height="25" stroke="red" stroke-width="1" fill="none"/>
    <path d="M 377.25 141.4 Q 377.25 135.4 383.85 129.85 Q 390.45 124.3 397.35 124.3 Q 400.15 124.3 402.7 125 Q 405.25 125.7 407.55 128.2 Q 409.85 130.7 409.85 134.6 Q 409.85 140.1 403.15 145.9 Q 396.45 151.7 389.75 151.7 Q 386.95 151.7 384.4 151 Q 381.85 150.3 379.55 147.8 Q 377.25 145.3 377.25 141.4 Z " fill="black"/>
    <rect x="409.75" y="125.5" width="5" height="25" stroke="red" stroke-width="1" fill="none"/>
    <rect x="406.75" y="48.714287" width="3" height="89.28571" stroke="red" stroke-width="1" fill="none"/>
    <rect x="377.25" y="36.214287" width="32.5" height="25" stroke="red" stroke-width="1" fill="none"/>
    <rect x="356.08426" y="196.8" width="12.5" height="81.399994" stroke="red" stroke-width="1" fill="none"/>
    <rect x="368.58426" y="196.8" width="27.303102" height="81.399994" stroke="red" stroke-width="1" fill="none"/>
    <path d="M 371.5755 250.08147 L 376.3488 249.6996 L 376.3488 222.77835 L 371.76645 221.63278 L 371.76645 218.19601 L 380.54926 217.05045 L 380.67654 217.05045 L 382.0767 218.19601 L 382.0767 219.34161 L 381.88577 224.3058 L 382.0767 224.3058 Q 382.71313 223.22386 384.36786 221.5055 Q 386.0226 219.78711 388.632 218.35513 Q 391.24136 216.92316 394.29626 216.92316 Q 395.56915 216.92316 396.3965 217.24136 L 396.3965 224.36945 Q 395.951 224.05124 394.96454 223.76483 Q 393.97806 223.47844 392.76883 223.47844 Q 387.48642 223.47844 382.9677 226.72426 L 382.9677 249.63596 L 391.05045 250.14511 L 391.05045 253.2 L 371.5755 253.2 L 371.5755 250.08147 Z " fill="black"/>
    <rect x="395.88736" y="196.8" width="36.19411" height="81.399994" stroke="red" stroke-width="1" fill="none"/>
    <path d="M 401.10614 225.51503 Q 403.46094 221.31456 407.31137 219.11885 Q 411.16183 216.92316 415.55322 216.92316 Q 423.57233 216.92316 427.61368 222.01463 Q 431.65506 227.10612 431.65506 235.37979 Q 431.65506 241.17136 429.30023 245.37184 Q 426.94543 249.57231 423.095 251.73619 Q 419.24457 253.90007 414.85315 253.90007 Q 406.83405 253.90007 402.7927 248.8086 Q 398.7513 243.7171 398.7513 235.44344 Q 398.7513 229.71552 401.10614 225.51503 Z M 421.98123 246.64471 Q 424.33606 243.01703 424.33606 235.88895 Q 424.33606 228.8245 422.17215 224.68767 Q 420.00827 220.55084 415.23502 220.55084 Q 410.8436 220.55084 408.45697 224.17853 Q 406.07034 227.80621 406.07034 234.93428 Q 406.07034 241.99872 408.29785 246.13556 Q 410.5254 250.27238 415.23502 250.27238 Q 419.6264 250.27238 421.98123 246.64471 Z " fill="black"/>
    <rect x="463.25" y="113" width="32.5" height="25" stroke="red" stroke-width="1" fill="none"/>
    <path d="M 463.25 128.9 Q 463.25 122.9 469.85 117.35 Q 476.45 111.8 483.35 111.8 Q 486.15 111.8 488.7 112.5 Q 491.25 113.2 493.55 115.7 Q 495.85 118.2 495.85 122.1 Q 495.85 127.6 489.15 133.4 Q 482.45 139.2 475.75 139.2 Q 472.95 139.2 470.4 138.5 Q 467.85 137.8 465.55 135.3 Q 463.25 132.8 463.25 128.9 Z " fill="black"/>
    <rect x="495.75" y="113" width="5" height="25" stroke="red" stroke-width="1" fill="none"/>
    <rect x="492.75" y="36.214287" width="3" height="89.28571" stroke="red" stroke-width="1" fill="none"/>
    <rect x="432.1198" y="196.8" width="12.5" height="81.399994" stroke="red" stroke-width="1" fill="none"/>
    <rect x="444.6198" y="196.8" width="42.2848" height="81.399994" stroke="red" stroke-width="1" fill="none"/>
    <path d="M 451.3024 222.77835 L 446.72006 221.63278 L 446.72006 218.19601 L 455.82108 217.05045 L 456.01202 217.05045 L 457.34854 218.19601 L 457.34854 220.86905 L 457.28488 222.3965 Q 459.57605 220.3599 463.33102 218.70517 Q 467.086 217.05045 470.52277 217.05045 Q 474.5323 217.05045 476.728 218.57788 Q 478.9237 220.10533 479.81473 223.25568 Q 480.70572 226.40604 480.70572 231.7521 L 480.70572 249.57231 L 485.16077 250.01782 L 485.16077 253.2 L 470.07724 253.2 L 470.07724 250.08147 L 474.02316 249.57231 L 474.02316 231.68846 Q 474.02316 227.93349 473.514 225.80142 Q 473.00485 223.66937 471.6047 222.61925 Q 470.20453 221.56912 467.5315 221.56912 Q 465.24033 221.56912 462.63095 222.71472 Q 460.02155 223.86029 457.98495 225.38776 L 457.98495 249.50867 L 462.31274 250.08147 L 462.31274 253.2 L 447.29285 253.2 L 447.29285 250.08147 L 451.3024 249.50867 L 451.3024 222.77835 Z " fill="black"/>
    <rect x="486.9046" y="196.8" width="32.20366" height="81.399994" stroke="red" stroke-width="1" fill="none"/>
    <path d="M 493.68265 248.87224 Q 489.64127 243.84439 489.64127 235.44344 Q 489.64127 229.90645 491.74152 225.70596 Q 493.84177 221.5055 497.62854 219.21432 Q 501.41534 216.92316 506.25226 216.92316 Q 512.17114 216.92316 515.4487 220.20079 Q 518.7264 223.47844 518.91736 229.58823 Q 518.91736 233.47049 518.4718 235.50708 L 496.57843 235.50708 Q 496.70572 241.8078 499.50604 245.65823 Q 502.30634 249.50867 507.4615 249.50867 Q 510.00723 249.50867 512.77576 248.58583 Q 515.5442 247.66301 517.07166 246.39014 L 518.2809 249.19044 Q 516.43524 251.09976 512.80756 252.49992 Q 509.17987 253.90007 505.4249 253.90007 Q 497.724 253.90007 493.68265 248.87224 Z M 511.91653 232.13397 Q 512.1074 230.79745 512.1074 229.3973 Q 512.0438 225.26047 510.35727 222.87383 Q 508.67072 220.48718 505.04303 220.48718 Q 501.35168 220.48718 499.156 223.16022 Q 496.9603 225.83325 496.64206 232.13397 L 511.91653 232.13397 Z " fill="black"/>
    <rect x="519.1083" y="196.8" width="18.902147" height="81.399994" stroke="red" stroke-width="1" fill="none"/>
    <path d="M 526.6182 205.72188 L 521.4631 205.0218 L 521.4631 202.28513 L 531.7097 201.0759 L 531.837 201.0759 L 533.2372 202.03055 L 533.2372 249.57231 L 538.64685 250.08147 L 538.64685 253.2 L 521.4631 253.2 L 521.4631 250.08147 L 526.6182 249.50867 L 526.6182 205.72188 Z " fill="black"/>
    <rect x="568.25" y="113" width="32.5" height="25" stroke="red" stroke-width="1" fill="none"/>
    <path d="M 568.25 128.9 Q 568.25 122.9 574.85 117.35 Q 581.45 111.8 588.35 111.8 Q 591.15 111.8 593.7 112.5 Q 596.25 113.2 598.55 115.7 Q 600.85 118.2 600.85 122.1 Q 600.85 127.6 594.15 133.4 Q 587.45 139.2 580.75 139.2 Q 577.95 139.2 575.4 138.5 Q 572.85 137.8 570.55 135.3 Q 568.25 132.8 568.25 128.9 Z " fill="black"/>
    <rect x="600.75" y="113" width="5" height="25" stroke="red" stroke-width="1" fill="none"/>
    <rect x="597.75" y="36.214287" width="3" height="89.28571" stroke="red" stroke-width="1" fill="none"/>
    <rect x="550.49133" y="196.8" width="12.5" height="81.399994" stroke="red" stroke-width="1" fill="none"/>
    <rect x="562.99133" y="196.8" width="18.902147" height="81.399994" stroke="red" stroke-width="1" fill="none"/>
    <path d="M 570.5013 205.72188 L 565.3461 205.0218 L 565.3461 202.28513 L 575.5928 201.0759 L 575.72003 201.0759 L 577.12024 202.03055 L 577.12024 249.57231 L 582.5299 250.08147 L 582.5299 253.2 L 565.3461 253.2 L 565.3461 250.08147 L 570.5013 249.50867 L 570.5013 205.72188 Z " fill="black"/>
    <rect x="581.89343" y="196.8" width="34.373905" height="81.399994" stroke="red" stroke-width="1" fill="none"/>
    <path d="M 590.73987 234.83882 Q 596.7224 232.00668 605.8871 231.81575 L 605.8871 230.03372 Q 605.8871 227.04248 605.2506 225.3241 Q 604.6142 223.60573 603.05493 222.81018 Q 601.49567 222.01463 598.6317 222.01463 Q 595.38586 222.01463 592.8083 222.93747 Q 590.2307 223.86029 587.685 225.19681 L 586.09393 221.88734 Q 586.92126 221.18727 589.1488 220.04169 Q 591.37634 218.8961 594.30396 218.0051 Q 597.23157 217.11407 600.1591 217.11407 Q 604.67786 217.11407 607.31903 218.35513 Q 609.96027 219.59618 611.10583 222.33286 Q 612.2514 225.06952 612.2514 229.65187 L 612.2514 250.08147 L 616.0064 250.08147 L 616.0064 252.88177 Q 614.7335 253.2 612.7924 253.51822 Q 610.85126 253.83643 609.38745 253.83643 Q 607.60547 253.83643 606.969 253.29546 Q 606.3326 252.75449 606.3326 250.90883 L 606.3326 248.8086 Q 604.4233 250.7179 601.6548 252.30899 Q 598.8863 253.90007 595.38586 253.90007 Q 590.8035 253.90007 587.78046 251.25887 Q 584.7574 248.61766 584.7574 243.65346 Q 584.7574 237.67096 590.73987 234.83882 Z M 601.94116 248.55402 Q 604.10504 247.53572 605.8871 246.13556 L 605.8871 235.18886 Q 598.9499 235.18886 595.4177 237.32092 Q 591.8855 239.45299 591.8855 242.88974 Q 591.8855 246.32649 593.572 247.9494 Q 595.2586 249.57231 598.12256 249.57231 Q 599.7773 249.57231 601.94116 248.55402 Z " fill="black"/>
    <rect x="673.25" y="0.5" width="10" height="200" stroke="orange" stroke-width="1" fill="none"/>
    <rect x="673.25" y="225" width="10" height="25" stroke="orange" stroke-width="1" fill="none"/>
    <line x1="122.25" y1="86.21429" x2="122.25" y2="171.5" stroke="black" stroke-width="3"/>
    <line x1="222.25" y1="73.71429" x2="222.25" y2="159" stroke="black" stroke-width="3"/>
    <path d="M 120.75 86.21429 L 223.75 73.71429 L 223.75 88.71429 L 120.75 101.21429 " fill="black"/>
    <line x1="309.25" y1="61.214287" x2="309.25" y2="146.5" stroke="black" stroke-width="3"/>
    <line x1="408.25" y1="48.714287" x2="408.25" y2="134" stroke="black" stroke-width="3"/>
    <path d="M 307.75 61.214287 L 409.75 48.714287 L 409.75 63.714287 L 307.75 76.21429 " fill="black"/>
    <line x1="494.25" y1="36.214287" x2="494.25" y2="121.5" stroke="black" stroke-width="3"/>
    <line x1="599.25" y1="36.214287" x2="599.25" y2="121.5" stroke="black" stroke-width="3"/>
    <rect x="0" y="0" width="684.5" height="278.7" stroke="black" stroke-width="1" fill="none"/>
</svg>
