<svg xmlns="http://www.w3.org/2000/svg" xmlns:xlink="http://www.w3.org/1999/xlink" viewBox="0 0 1205 217">
    <rect x="0.5" y="111.5" width="10" height="10" stroke="orange" stroke-width="1" fill="none"/>
    <rect x="10.5" y="0.5" width="74" height="186" stroke="orange" stroke-width="1" fill="none"/>
    <path d="M 35.300003 59 Q 33 51.699997 32.1 46 Q 31.300001 41.199997 31.300001 34.799995 Q 31.300001 32.6 31.4 30.400002 Q 31.800001 20.900002 35.300003 12.949997 Q 38.800003 5 45.8 0.7999954 Q 46.3 0.5 47.100002 0.5 Q 47.8 0.5 48.3 1 Q 53.9 6.5999985 56.9 15.299995 Q 59.9 24 59.9 32.9 Q 59.9 43.199997 55.5 53.1 Q 51.3 63 43.7 70.6 Q 43.100002 71.2 43.3 72.2 L 47.3 88.2 Q 47.600002 89.8 49.3 89.6 Q 50.9 89.4 52.4 89.4 Q 58.2 89.4 62.9 91.7 Q 67.600006 94 70.5 97.7 Q 73.4 101.4 74.950005 105.85 Q 76.5 110.3 76.5 115 Q 76.5 123.6 71.7 130.55 Q 66.9 137.5 60.2 139.7 Q 58.8 140.2 59.100002 141.8 Q 61.600002 153.6 61.7 161.7 Q 61.7 164.8 61.3 167.8 Q 60.5 174.7 55.3 179.9 Q 50.100002 185.1 42.9 185.1 Q 34.1 185.1 28 179.8 Q 21.900002 174.5 21.900002 165.9 Q 21.900002 161.5 25 158.3 Q 28.1 155.1 32.300003 155.1 Q 36.6 155.1 39.550003 158.15 Q 42.5 161.2 42.5 165.4 Q 42.5 169 40.1 171.7 Q 37.7 174.5 34.300003 174.8 Q 33.1 174.9 32.7 176 Q 32.300003 177.1 33.5 178 Q 37.1 180.8 42.300003 180.8 Q 48 180.8 52.15 176.7 Q 56.3 172.6 57 167.4 Q 57.5 163.8 57.5 160.2 Q 57.5 152.4 55.100002 142.9 Q 54.7 141.2 52.9 141.4 Q 48.9 141.9 45.5 141.9 Q 30.7 141.9 20.6 132.6 Q 10.5 123.3 10.5 107.3 Q 10.5 102.4 11.65 97.65 Q 12.8 92.9 14.25 89.45 Q 15.700001 86 18.75 81.45 Q 21.8 76.899994 23.650002 74.5 Q 25.5 72.1 29.5 67.35 Q 33.5 62.6 35 60.7 Q 35.6 60 35.300003 59 Z M 50.9 104.7 L 57.4 134.2 Q 57.7 135.5 59.2 135.5 Q 59.600002 135.5 59.9 135.4 Q 64 133.7 66.7 128.8 Q 69.4 123.9 69.4 119.1 Q 69.4 112.1 65.3 107.3 Q 61.100002 102.4 52.7 102.4 Q 52 102.4 51.45 102.95 Q 50.9 103.5 50.9 104.2 Q 50.8 104.5 50.9 104.7 Z M 37.1 76.899994 Q 35.5 78.7 32.35 82.05 Q 29.2 85.4 27.65 87.15 Q 26.1 88.9 23.85 92.1 Q 21.6 95.3 20.5 98 Q 19.400002 100.7 18.55 104.6 Q 17.7 108.5 17.7 112.9 Q 17.7 119 21.45 124.7 Q 25.2 130.4 31.75 134 Q 38.300003 137.6 45.8 137.6 Q 48.5 137.6 51.8 137.3 Q 52.600002 137.2 53.100002 136.55 Q 53.600002 135.9 53.4 135.1 L 46.9 105.2 Q 46.600002 103.8 45 103.8 Q 44.7 103.8 44.3 103.9 Q 39.7 105.6 37.800003 108.7 Q 35.9 111.8 35.9 116.5 Q 35.9 122 41.9 126 Q 42.600002 126.5 42.600002 127.5 Q 42.600002 128.3 41.95 129 Q 41.300003 129.7 40.4 129.7 Q 39.9 129.7 39.5 129.5 Q 33.800003 126.5 31.050001 121.35 Q 28.300001 116.2 28.300001 110.5 Q 28.300001 105 32.25 99.15 Q 36.2 93.3 42.1 91.1 Q 43.600002 90.5 43.3 89 L 40.300003 77.7 Q 40.1 76.6 38.9 76.399994 Q 37.7 76.2 37.1 76.899994 Z M 53.9 18.699997 Q 53.100002 16.099998 51.2 16.099998 Q 50.600002 16.099998 50.100002 16.400002 Q 43.7 20.199997 39.95 27.099998 Q 36.2 34 36.2 41.699997 Q 36.2 46.699997 38.300003 54 Q 38.6 55.1 39.800003 55.3 Q 40.800003 55.399998 41.5 54.6 Q 41.800003 54.2 44.350002 51.049995 Q 46.9 47.9 47.7 46.85 Q 48.5 45.799995 50.4 42.85 Q 52.3 39.9 53.05 37.949997 Q 53.8 36 54.5 33.1 Q 55.2 30.199997 55.2 27.299995 Q 55.2 23.099998 53.9 18.699997 Z " fill="black"/>
    <rect x="84.5" y="116.5" width="2.5" height="87.5" stroke="blue" stroke-width="1" fill="none"/>
    <rect x="84.5" y="116.5" width="2.5" height="87.5" fill="black"/>
    <rect x="84.5" y="104" width="32.5" height="25" stroke="blue" stroke-width="1" fill="none"/>
    <path d="M 84.5 119.9 Q 84.5 113.9 91.1 108.35 Q 97.7 102.8 104.6 102.8 Q 107.4 102.8 109.95 103.5 Q 112.5 104.2 114.8 106.7 Q 117.100006 109.2 117.100006 113.1 Q 117.100006 118.6 110.4 124.4 Q 103.7 130.2 97 130.2 Q 94.2 130.2 91.65 129.5 Q 89.1 128.8 86.8 126.3 Q 84.5 123.8 84.5 119.9 Z " fill="black"/>
    <rect x="84.5" y="116.5" width="2.5" height="100" stroke="blue" stroke-width="1" fill="none"/>
    <rect x="84.5" y="116.5" width="2.5" height="100" fill="black"/>
    <rect x="219.5" y="35.25" width="2.5" height="87.5" stroke="blue" stroke-width="1" fill="none"/>
    <rect x="219.5" y="35.25" width="2.5" height="87.5" fill="black"/>
    <rect x="189.5" y="116.5" width="32.5" height="25" stroke="blue" stroke-width="1" fill="none"/>
    <path d="M 189.5 132.4 Q 189.5 126.4 196.1 120.85 Q 202.7 115.3 209.6 115.3 Q 212.4 115.3 214.95 116 Q 217.5 116.7 219.8 119.2 Q 222.1 121.7 222.1 125.6 Q 222.1 131.1 215.4 136.9 Q 208.7 142.7 202 142.7 Q 199.2 142.7 196.65 142 Q 194.1 141.3 191.8 138.8 Q 189.5 136.3 189.5 132.4 Z " fill="black"/>
    <rect x="189.5" y="29" width="2.5" height="100" stroke="blue" stroke-width="1" fill="none"/>
    <rect x="189.5" y="29" width="2.5" height="100" fill="black"/>
    <rect x="294.5" y="116.5" width="2.5" height="87.5" stroke="blue" stroke-width="1" fill="none"/>
    <rect x="294.5" y="116.5" width="2.5" height="87.5" fill="black"/>
    <rect x="294.5" y="104" width="32.5" height="25" stroke="blue" stroke-width="1" fill="none"/>
    <path d="M 294.5 119.9 Q 294.5 113.9 301.1 108.35 Q 307.7 102.8 314.6 102.8 Q 317.4 102.8 319.95 103.5 Q 322.5 104.2 324.8 106.7 Q 327.1 109.2 327.1 113.1 Q 327.1 118.6 320.4 124.4 Q 313.7 130.2 307 130.2 Q 304.2 130.2 301.65 129.5 Q 299.1 128.8 296.8 126.3 Q 294.5 123.8 294.5 119.9 Z " fill="black"/>
    <rect x="294.5" y="116.5" width="2.5" height="100" stroke="blue" stroke-width="1" fill="none"/>
    <rect x="294.5" y="116.5" width="2.5" height="100" fill="black"/>
    <rect x="369.5" y="116.5" width="2.5" height="87.5" stroke="blue" stroke-width="1" fill="none"/>
    <rect x="369.5" y="116.5" width="2.5" height="87.5" fill="black"/>
    <rect x="369.5" y="104" width="32.5" height="25" stroke="blue" stroke-width="1" fill="none"/>
    <path d="M 369.5 119.9 Q 369.5 113.9 376.1 108.35 Q 382.7 102.8 389.6 102.8 Q 392.4 102.8 394.95 103.5 Q 397.5 104.2 399.8 106.7 Q 402.1 109.2 402.1 113.1 Q 402.1 118.6 395.4 124.4 Q 388.7 130.2 382 130.2 Q 379.2 130.2 376.65 129.5 Q 374.1 128.8 371.8 126.3 Q 369.5 123.8 369.5 119.9 Z " fill="black"/>
    <rect x="369.5" y="116.5" width="2.5" height="100" stroke="blue" stroke-width="1" fill="none"/>
    <rect x="369.5" y="116.5" width="2.5" height="100" fill="black"/>
    <rect x="474.5" y="35.25" width="2.5" height="87.5" stroke="blue" stroke-width="1" fill="none"/>
    <rect x="474.5" y="35.25" width="2.5" height="87.5" fill="black"/>
    <rect x="444.5" y="116.5" width="32.5" height="25" stroke="blue" stroke-width="1" fill="none"/>
    <path d="M 444.5 132.4 Q 444.5 126.4 451.1 120.85 Q 457.7 115.3 464.6 115.3 Q 467.4 115.3 469.95 116 Q 472.5 116.7 474.8 119.2 Q 477.1 121.7 477.1 125.6 Q 477.1 131.1 470.4 136.9 Q 463.7 142.7 457 142.7 Q 454.2 142.7 451.65 142 Q 449.1 141.3 446.8 138.8 Q 444.5 136.3 444.5 132.4 Z " fill="black"/>
    <rect x="444.5" y="29" width="2.5" height="100" stroke="blue" stroke-width="1" fill="none"/>
    <rect x="444.5" y="29" width="2.5" height="100" fill="black"/>
    <rect x="549.5" y="35.25" width="2.5" height="87.5" stroke="blue" stroke-width="1" fill="none"/>
    <rect x="549.5" y="35.25" width="2.5" height="87.5" fill="black"/>
    <rect x="519.5" y="116.5" width="32.5" height="25" stroke="blue" stroke-width="1" fill="none"/>
    <path d="M 519.5 132.4 Q 519.5 126.4 526.1 120.85 Q 532.7 115.3 539.6 115.3 Q 542.4 115.3 544.95 116 Q 547.5 116.7 549.8 119.2 Q 552.1 121.7 552.1 125.6 Q 552.1 131.1 545.4 136.9 Q 538.7 142.7 532 142.7 Q 529.2 142.7 526.65 142 Q 524.1 141.3 521.8 138.8 Q 519.5 136.3 519.5 132.4 Z " fill="black"/>
    <rect x="519.5" y="29" width="2.5" height="100" stroke="blue" stroke-width="1" fill="none"/>
    <rect x="519.5" y="29" width="2.5" height="100" fill="black"/>
    <rect x="624.5" y="22.75" width="2.5" height="87.5" stroke="blue" stroke-width="1" fill="none"/>
    <rect x="624.5" y="22.75" width="2.5" height="87.5" fill="black"/>
    <rect x="594.5" y="104" width="32.5" height="25" stroke="blue" stroke-width="1" fill="none"/>
    <path d="M 594.5 119.9 Q 594.5 113.9 601.1 108.35 Q 607.7 102.8 614.6 102.8 Q 617.4 102.8 619.95 103.5 Q 622.5 104.2 624.8 106.7 Q 627.1 109.2 627.1 113.1 Q 627.1 118.6 620.4 124.4 Q 613.7 130.2 607 130.2 Q 604.2 130.2 601.65 129.5 Q 599.1 128.8 596.8 126.3 Q 594.5 123.8 594.5 119.9 Z " fill="black"/>
    <rect x="594.5" y="16.5" width="2.5" height="100" stroke="blue" stroke-width="1" fill="none"/>
    <rect x="594.5" y="16.5" width="2.5" height="100" fill="black"/>
    <rect x="699.5" y="47.75" width="2.5" height="87.5" stroke="blue" stroke-width="1" fill="none"/>
    <rect x="699.5" y="47.75" width="2.5" height="87.5" fill="black"/>
    <rect x="669.5" y="129" width="32.5" height="25" stroke="blue" stroke-width="1" fill="none"/>
    <path d="M 669.5 144.9 Q 669.5 138.9 676.1 133.35 Q 682.7 127.8 689.6 127.8 Q 692.4 127.8 694.95 128.5 Q 697.5 129.2 699.8 131.7 Q 702.1 134.2 702.1 138.1 Q 702.1 143.6 695.4 149.4 Q 688.7 155.2 682 155.2 Q 679.2 155.2 676.65 154.5 Q 674.1 153.8 671.8 151.3 Q 669.5 148.8 669.5 144.9 Z " fill="black"/>
    <rect x="669.5" y="41.5" width="2.5" height="100" stroke="blue" stroke-width="1" fill="none"/>
    <rect x="669.5" y="41.5" width="2.5" height="100" fill="black"/>
    <rect x="774.5" y="47.75" width="2.5" height="87.5" stroke="blue" stroke-width="1" fill="none"/>
    <rect x="774.5" y="47.75" width="2.5" height="87.5" fill="black"/>
    <rect x="744.5" y="129" width="32.5" height="25" stroke="blue" stroke-width="1" fill="none"/>
    <path d="M 744.5 144.9 Q 744.5 138.9 751.1 133.35 Q 757.7 127.8 764.6 127.8 Q 767.4 127.8 769.95 128.5 Q 772.5 129.2 774.8 131.7 Q 777.1 134.2 777.1 138.1 Q 777.1 143.6 770.4 149.4 Q 763.7 155.2 757 155.2 Q 754.2 155.2 751.65 154.5 Q 749.1 153.8 746.8 151.3 Q 744.5 148.8 744.5 144.9 Z " fill="black"/>
    <rect x="744.5" y="41.5" width="2.5" height="100" stroke="blue" stroke-width="1" fill="none"/>
    <rect x="744.5" y="41.5" width="2.5" height="100" fill="black"/>
    <rect x="849.5" y="22.75" width="2.5" height="87.5" stroke="blue" stroke-width="1" fill="none"/>
    <rect x="849.5" y="22.75" width="2.5" height="87.5" fill="black"/>
    <rect x="819.5" y="104" width="32.5" height="25" stroke="blue" stroke-width="1" fill="none"/>
    <path d="M 819.5 119.9 Q 819.5 113.9 826.1 108.35 Q 832.7 102.8 839.6 102.8 Q 842.4 102.8 844.95 103.5 Q 847.5 104.2 849.8 106.7 Q 852.1 109.2 852.1 113.1 Q 852.1 118.6 845.4 124.4 Q 838.7 130.2 832 130.2 Q 829.2 130.2 826.65 129.5 Q 824.1 128.8 821.8 126.3 Q 819.5 123.8 819.5 119.9 Z " fill="black"/>
    <rect x="819.5" y="16.5" width="2.5" height="100" stroke="blue" stroke-width="1" fill="none"/>
    <rect x="819.5" y="16.5" width="2.5" height="100" fill="black"/>
    <rect x="894.5" y="91.5" width="2.5" height="87.5" stroke="blue" stroke-width="1" fill="none"/>
    <rect x="894.5" y="91.5" width="2.5" height="87.5" fill="black"/>
    <rect x="894.5" y="79" width="32.5" height="25" stroke="blue" stroke-width="1" fill="none"/>
    <path d="M 894.5 94.9 Q 894.5 88.9 901.1 83.35 Q 907.7 77.8 914.6 77.8 Q 917.4 77.8 919.95 78.5 Q 922.5 79.2 924.8 81.7 Q 927.1 84.2 927.1 88.1 Q 927.1 93.6 920.4 99.4 Q 913.7 105.2 907 105.2 Q 904.2 105.2 901.65 104.5 Q 899.1 103.8 896.8 101.3 Q 894.5 98.8 894.5 94.9 Z " fill="black"/>
    <rect x="894.5" y="91.5" width="2.5" height="100" stroke="blue" stroke-width="1" fill="none"/>
    <rect x="894.5" y="91.5" width="2.5" height="100" fill="black"/>
    <rect x="969.5" y="116.5" width="2.5" height="87.5" stroke="blue" stroke-width="1" fill="none"/>
    <rect x="969.5" y="116.5" width="2.5" height="87.5" fill="black"/>
    <rect x="969.5" y="104" width="32.5" height="25" stroke="blue" stroke-width="1" fill="none"/>
    <path d="M 969.5 119.9 Q 969.5 113.9 976.1 108.35 Q 982.7 102.8 989.6 102.8 Q 992.4 102.8 994.95 103.5 Q 997.5 104.2 999.8 106.7 Q 1002.1 109.2 1002.1 113.1 Q 1002.1 118.6 995.4 124.4 Q 988.7 130.2 982 130.2 Q 979.2 130.2 976.65 129.5 Q 974.1 128.8 971.8 126.3 Q 969.5 123.8 969.5 119.9 Z " fill="black"/>
    <rect x="969.5" y="116.5" width="2.5" height="100" stroke="blue" stroke-width="1" fill="none"/>
    <rect x="969.5" y="116.5" width="2.5" height="100" fill="black"/>
    <rect x="1044.5" y="116.5" width="2.5" height="87.5" stroke="blue" stroke-width="1" fill="none"/>
    <rect x="1044.5" y="116.5" width="2.5" height="87.5" fill="black"/>
    <rect x="1044.5" y="104" width="32.5" height="25" stroke="blue" stroke-width="1" fill="none"/>
    <path d="M 1044.5 119.9 Q 1044.5 113.9 1051.1 108.35 Q 1057.7 102.8 1064.6 102.8 Q 1067.4 102.8 1069.95 103.5 Q 1072.5 104.2 1074.8 106.7 Q 1077.1 109.2 1077.1 113.1 Q 1077.1 118.6 1070.4 124.4 Q 1063.7 130.2 1057 130.2 Q 1054.2 130.2 1051.65 129.5 Q 1049.1 128.8 1046.8 126.3 Q 1044.5 123.8 1044.5 119.9 Z " fill="black"/>
    <rect x="1044.5" y="116.5" width="2.5" height="100" stroke="blue" stroke-width="1" fill="none"/>
    <rect x="1044.5" y="116.5" width="2.5" height="100" fill="black"/>
    <rect x="1119.5" y="91.5" width="2.5" height="87.5" stroke="blue" stroke-width="1" fill="none"/>
    <rect x="1119.5" y="91.5" width="2.5" height="87.5" fill="black"/>
    <rect x="1119.5" y="79" width="32.5" height="25" stroke="blue" stroke-width="1" fill="none"/>
    <path d="M 1119.5 94.9 Q 1119.5 88.9 1126.1 83.35 Q 1132.7 77.8 1139.6 77.8 Q 1142.4 77.8 1144.95 78.5 Q 1147.5 79.2 1149.8 81.7 Q 1152.1 84.2 1152.1 88.1 Q 1152.1 93.6 1145.4 99.4 Q 1138.7 105.2 1132 105.2 Q 1129.2 105.2 1126.65 104.5 Q 1124.1 103.8 1121.8 101.3 Q 1119.5 98.8 1119.5 94.9 Z " fill="black"/>
    <rect x="1119.5" y="91.5" width="2.5" height="100" stroke="blue" stroke-width="1" fill="none"/>
    <rect x="1119.5" y="91.5" width="2.5" height="100" fill="black"/>
    <rect x="1194.5" y="111.5" width="10" height="10" stroke="orange" stroke-width="1" fill="none"/>
    <rect x="0" y="0" width="1205" height="217" stroke="black" stroke-width="1" fill="none"/>
</svg>
