<svg xmlns="http://www.w3.org/2000/svg" xmlns:xlink="http://www.w3.org/1999/xlink" viewBox="0 0 561 263.45">
    <rect x="0.5" y="54.25" width="5" height="80" stroke="orange" stroke-width="1" fill="none"/>
    <rect x="0.5" y="182.25" width="5" height="80" stroke="orange" stroke-width="1" fill="none"/>
    <rect x="5.5" y="44.25" width="40" height="100" stroke="orange" stroke-width="1" fill="none"/>
    <ellipse cx="10.5" cy="227.25" rx="5" ry="5" stroke="gray" stroke-width="1" fill="none"/>
    <rect x="45.5" y="94.25" width="2.5" height="87.5" stroke="blue" stroke-width="1" fill="none"/>
    <rect x="45.5" y="81.75" width="32.5" height="25" stroke="blue" stroke-width="1" fill="none"/>
    <rect x="45.5" y="94.25" width="2.5" height="87.5" fill="black"/>
    <path d="M 45.5 97.65 Q 45.5 91.65 52.1 86.1 Q 58.7 80.55 65.6 80.55 Q 68.4 80.55 70.95 81.25 Q 73.5 81.95 75.8 84.45 Q 78.100006 86.95 78.100006 90.85 Q 78.100006 96.35 71.4 102.15 Q 64.7 107.95 58 107.95 Q 55.2 107.95 52.65 107.25 Q 50.1 106.55 47.8 104.05 Q 45.5 101.55 45.5 97.65 Z " fill="black"/>
    <rect x="10.239998" y="181.55" width="31.84" height="81.399994" stroke="blue" stroke-width="1" fill="none"/>
    <rect x="42.079998" y="181.55" width="31.84" height="81.399994" stroke="blue" stroke-width="1" fill="none"/>
    <rect x="73.92" y="181.55" width="31.84" height="81.399994" stroke="blue" stroke-width="1" fill="none"/>
    <path d="M 19.599998 239.06999 Q 18.159998 239.06999 16.679998 237.95 Q 15.199998 236.83 14.199998 235.23 Q 13.199998 233.63 13.199998 232.19 Q 13.199998 229.63 14.559998 228.19 Q 15.919998 226.75 18.879997 225.55 L 27.039997 222.19 Q 28.639997 221.54999 28.919998 221.07 Q 29.199997 220.59 29.279997 218.98999 L 29.439997 213.87 Q 29.519997 211.79 28.279997 210.26999 Q 27.039997 208.75 24.719997 208.75 Q 23.519997 208.75 22.319998 209.15 Q 21.119999 209.54999 20.319998 210.19 Q 19.839996 210.51 19.679996 211.15 Q 19.519997 211.79 19.519997 212.51 Q 19.519997 212.83 19.559998 213.23 Q 19.599998 213.63 19.599998 213.95 Q 19.599998 214.35 18.599998 215.03 Q 17.599998 215.70999 16.359997 216.23 Q 15.119998 216.75 14.319998 216.75 Q 13.919998 216.75 13.679997 216.54999 Q 13.439998 216.35 13.439998 216.03 Q 13.439998 214.75 14.279998 213.26999 Q 15.119998 211.79 16.639997 210.51 Q 18.479998 208.83 20.639997 207.54999 Q 22.799997 206.26999 24.879997 205.55 Q 26.959997 204.83 28.559998 204.83 Q 31.439997 204.83 33.32 206.87 Q 35.199997 208.91 35.119995 211.95 L 34.719997 231.15 Q 34.64 232.83 35.479996 233.87 Q 36.32 234.91 37.6 234.91 Q 39.6 234.91 40.559998 234.03 Q 40.96 233.63 41.199997 233.63 Q 41.6 233.63 41.839996 233.87 Q 42.079998 234.11 42.079998 234.51 Q 42.079998 235.39 41.199997 236.27 Q 39.92 237.55 38.439995 238.31 Q 36.96 239.06999 35.679996 239.06999 Q 31.999998 239.06999 29.839998 234.91 L 29.599997 234.91 Q 26.959997 237.06999 24.559998 238.06999 Q 22.159998 239.06999 19.599998 239.06999 Z M 23.359997 235.23 Q 24.959997 235.23 26.079998 234.70999 Q 27.199997 234.19 28.079998 233.31 Q 28.479998 232.91 28.759998 232.23 Q 29.039997 231.55 29.119997 230.03 L 29.279997 226.11 Q 29.359997 225.23 29.199997 224.83 Q 29.039997 224.43 28.559998 224.43 Q 28.399998 224.43 27.999998 224.51 Q 27.599997 224.59 26.959997 224.83 Q 22.719997 226.34999 21.079998 227.98999 Q 19.439999 229.63 19.439999 230.98999 Q 19.439999 233.06999 20.679996 234.15 Q 21.919998 235.23 23.359997 235.23 Z " fill="black"/>
    <path d="M 51.44 239.06999 Q 49.999996 239.06999 48.519997 237.95 Q 47.039997 236.83 46.039997 235.23 Q 45.039997 233.63 45.039997 232.19 Q 45.039997 229.63 46.399998 228.19 Q 47.76 226.75 50.719997 225.55 L 58.879997 222.19 Q 60.479996 221.54999 60.76 221.07 Q 61.039997 220.59 61.119995 218.98999 L 61.28 213.87 Q 61.359997 211.79 60.119995 210.26999 Q 58.879997 208.75 56.559998 208.75 Q 55.359997 208.75 54.159996 209.15 Q 52.96 209.54999 52.159996 210.19 Q 51.679996 210.51 51.519997 211.15 Q 51.359997 211.79 51.359997 212.51 Q 51.359997 212.83 51.399998 213.23 Q 51.44 213.63 51.44 213.95 Q 51.44 214.35 50.44 215.03 Q 49.44 215.70999 48.199997 216.23 Q 46.96 216.75 46.159996 216.75 Q 45.76 216.75 45.519997 216.54999 Q 45.28 216.35 45.28 216.03 Q 45.28 214.75 46.12 213.26999 Q 46.96 211.79 48.479996 210.51 Q 50.32 208.83 52.479996 207.54999 Q 54.64 206.26999 56.719997 205.55 Q 58.799995 204.83 60.399998 204.83 Q 63.28 204.83 65.159996 206.87 Q 67.03999 208.91 66.96 211.95 L 66.56 231.15 Q 66.479996 232.83 67.32 233.87 Q 68.159996 234.91 69.439995 234.91 Q 71.439995 234.91 72.399994 234.03 Q 72.799995 233.63 73.03999 233.63 Q 73.439995 233.63 73.67999 233.87 Q 73.92 234.11 73.92 234.51 Q 73.92 235.39 73.03999 236.27 Q 71.759995 237.55 70.28 238.31 Q 68.799995 239.06999 67.52 239.06999 Q 63.839996 239.06999 61.68 234.91 L 61.439995 234.91 Q 58.799995 237.06999 56.399998 238.06999 Q 54 239.06999 51.44 239.06999 Z M 55.199997 235.23 Q 56.799995 235.23 57.92 234.70999 Q 59.039997 234.19 59.92 233.31 Q 60.32 232.91 60.6 232.23 Q 60.879997 231.55 60.96 230.03 L 61.119995 226.11 Q 61.199997 225.23 61.039997 224.83 Q 60.879997 224.43 60.399998 224.43 Q 60.239998 224.43 59.839996 224.51 Q 59.439995 224.59 58.799995 224.83 Q 54.559998 226.34999 52.92 227.98999 Q 51.28 229.63 51.28 230.98999 Q 51.28 233.06999 52.519997 234.15 Q 53.76 235.23 55.199997 235.23 Z " fill="black"/>
    <path d="M 83.28 239.06999 Q 81.84 239.06999 80.36 237.95 Q 78.88 236.83 77.88 235.23 Q 76.88 233.63 76.88 232.19 Q 76.88 229.63 78.24 228.19 Q 79.6 226.75 82.56 225.55 L 90.72 222.19 Q 92.32 221.54999 92.6 221.07 Q 92.88 220.59 92.96 218.98999 L 93.119995 213.87 Q 93.2 211.79 91.96 210.26999 Q 90.72 208.75 88.399994 208.75 Q 87.2 208.75 86 209.15 Q 84.799995 209.54999 84 210.19 Q 83.52 210.51 83.36 211.15 Q 83.2 211.79 83.2 212.51 Q 83.2 212.83 83.24 213.23 Q 83.28 213.63 83.28 213.95 Q 83.28 214.35 82.28 215.03 Q 81.28 215.70999 80.04 216.23 Q 78.799995 216.75 78 216.75 Q 77.6 216.75 77.36 216.54999 Q 77.119995 216.35 77.119995 216.03 Q 77.119995 214.75 77.96 213.26999 Q 78.799995 211.79 80.32 210.51 Q 82.159996 208.83 84.32 207.54999 Q 86.479996 206.26999 88.56 205.55 Q 90.64 204.83 92.24 204.83 Q 95.119995 204.83 97 206.87 Q 98.88 208.91 98.799995 211.95 L 98.399994 231.15 Q 98.32 232.83 99.159996 233.87 Q 100 234.91 101.28 234.91 Q 103.28 234.91 104.24 234.03 Q 104.64 233.63 104.88 233.63 Q 105.28 233.63 105.52 233.87 Q 105.759995 234.11 105.759995 234.51 Q 105.759995 235.39 104.88 236.27 Q 103.6 237.55 102.119995 238.31 Q 100.64 239.06999 99.36 239.06999 Q 95.68 239.06999 93.52 234.91 L 93.28 234.91 Q 90.64 237.06999 88.24 238.06999 Q 85.84 239.06999 83.28 239.06999 Z M 87.04 235.23 Q 88.64 235.23 89.759995 234.70999 Q 90.88 234.19 91.759995 233.31 Q 92.159996 232.91 92.44 232.23 Q 92.72 231.55 92.799995 230.03 L 92.96 226.11 Q 93.03999 225.23 92.88 224.83 Q 92.72 224.43 92.24 224.43 Q 92.08 224.43 91.68 224.51 Q 91.28 224.59 90.64 224.83 Q 86.399994 226.34999 84.759995 227.98999 Q 83.119995 229.63 83.119995 230.98999 Q 83.119995 233.06999 84.36 234.15 Q 85.6 235.23 87.04 235.23 Z " fill="black"/>
    <rect x="180.5" y="25.5" width="2.5" height="87.5" stroke="blue" stroke-width="1" fill="none"/>
    <rect x="150.5" y="106.75" width="32.5" height="25" stroke="blue" stroke-width="1" fill="none"/>
    <rect x="180.5" y="25.5" width="2.5" height="87.5" fill="black"/>
    <path d="M 150.5 122.65 Q 150.5 116.65 157.1 111.1 Q 163.7 105.55 170.6 105.55 Q 173.4 105.55 175.95 106.25 Q 178.5 106.95 180.8 109.45 Q 183.1 111.95 183.1 115.85 Q 183.1 121.35 176.4 127.15 Q 169.7 132.95 163 132.95 Q 160.2 132.95 157.65 132.25 Q 155.1 131.55 152.8 129.05 Q 150.5 126.55 150.5 122.65 Z " fill="black"/>
    <ellipse cx="155.5" cy="227.25" rx="5" ry="5" stroke="gray" stroke-width="1" fill="none"/>
    <rect x="285.5" y="13" width="2.5" height="87.5" stroke="blue" stroke-width="1" fill="none"/>
    <rect x="255.5" y="94.25" width="32.5" height="25" stroke="blue" stroke-width="1" fill="none"/>
    <rect x="285.5" y="13" width="2.5" height="87.5" fill="black"/>
    <path d="M 255.5 110.15 Q 255.5 104.15 262.1 98.6 Q 268.7 93.05 275.6 93.05 Q 278.4 93.05 280.95 93.75 Q 283.5 94.45 285.8 96.95 Q 288.1 99.45 288.1 103.35 Q 288.1 108.85 281.4 114.65 Q 274.7 120.45 268 120.45 Q 265.2 120.45 262.65 119.75 Q 260.1 119.05 257.8 116.55 Q 255.5 114.05 255.5 110.15 Z " fill="black"/>
    <rect x="248.8" y="181.55" width="38.399998" height="81.399994" stroke="blue" stroke-width="1" fill="none"/>
    <path d="M 269.52 239.06999 Q 267.76 239.06999 266 238.75 Q 264.24 238.43 262.64 238.03 Q 260.88 237.55 259.56 237.15 Q 258.24 236.75 257.84 236.75 Q 257.36002 236.75 256.92 237.06999 Q 256.47998 237.39 256.08002 237.79 Q 255.68001 238.19 255.36 238.19 Q 255.04001 238.19 254.64 237.91 Q 254.24 237.62999 254.24 237.23 Q 254.24 236.51 254.52 234.75 Q 254.8 232.98999 254.8 231.47 L 254.8 192.67 Q 254.8 190.59 253.76001 189.07 Q 252.72 187.55 251.12001 186.83 Q 250.8 186.67 250.44 186.39 Q 250.08 186.11 250.08 185.63 Q 250.08 185.23 250.40001 185.07 Q 250.72 184.91 251.04001 184.83 Q 252.08 184.59 253.88 183.95 Q 255.68001 183.31 257.28 182.67 Q 258.88 182.03 259.44 181.79 Q 259.92 181.55 260.16 181.55 Q 260.32 181.55 260.48 181.70999 Q 260.64 181.87 260.64 182.11 Q 260.64 182.43 260.52 184.79 Q 260.4 187.15 260.4 190.51 L 260.4 206.91 Q 260.4 208.43 260.56 208.95 Q 260.72 209.47 261.12 209.54999 Q 263.6 207.47 266.88 206.15 Q 270.16 204.83 272.8 204.83 Q 276.88 204.83 280.12 206.91 Q 283.36 208.98999 285.28 212.54999 Q 287.2 216.11 287.2 220.59 Q 287.2 226.03 284.96 230.23 Q 282.72 234.43 278.76 236.75 Q 274.8 239.06999 269.52 239.06999 Z M 271.36002 236.59 Q 274.4 236.59 276.6 234.70999 Q 278.8 232.83 280 229.59 Q 281.2 226.34999 281.2 222.34999 Q 281.2 219.23 280.04 215.95 Q 278.88 212.67 276.44 210.43 Q 274 208.19 270.16 208.19 Q 266.96 208.19 264.56 209.23 Q 262.16 210.26999 260.4 211.87 L 260.4 227.39 Q 260.4 230.19 261.96 232.27 Q 263.52 234.34999 266.04 235.47 Q 268.56 236.59 271.36002 236.59 Z " fill="black"/>
    <rect x="360.5" y="0.5" width="2.5" height="87.5" stroke="blue" stroke-width="1" fill="none"/>
    <rect x="330.5" y="81.75" width="32.5" height="25" stroke="blue" stroke-width="1" fill="none"/>
    <rect x="360.5" y="0.5" width="2.5" height="87.5" fill="black"/>
    <path d="M 330.5 97.65 Q 330.5 91.65 337.1 86.1 Q 343.7 80.55 350.6 80.55 Q 353.4 80.55 355.95 81.25 Q 358.5 81.95 360.8 84.45 Q 363.1 86.95 363.1 90.85 Q 363.1 96.35 356.4 102.15 Q 349.7 107.95 343 107.95 Q 340.2 107.95 337.65 107.25 Q 335.1 106.55 332.8 104.05 Q 330.5 101.55 330.5 97.65 Z " fill="black"/>
    <ellipse cx="335.5" cy="227.25" rx="5" ry="5" stroke="gray" stroke-width="1" fill="none"/>
    <rect x="405.5" y="56.75" width="2.5" height="87.5" stroke="blue" stroke-width="1" fill="none"/>
    <rect x="405.5" y="44.25" width="32.5" height="25" stroke="blue" stroke-width="1" fill="none"/>
    <rect x="405.5" y="56.75" width="2.5" height="87.5" fill="black"/>
    <path d="M 405.5 60.15 Q 405.5 54.15 412.1 48.6 Q 418.7 43.05 425.6 43.05 Q 428.4 43.05 430.95 43.75 Q 433.5 44.45 435.8 46.95 Q 438.1 49.45 438.1 53.35 Q 438.1 58.85 431.4 64.65 Q 424.7 70.45 418 70.45 Q 415.2 70.45 412.65 69.75 Q 410.1 69.05 407.8 66.55 Q 405.5 64.05 405.5 60.15 Z " fill="black"/>
    <ellipse cx="410.5" cy="227.25" rx="5" ry="5" stroke="gray" stroke-width="1" fill="none"/>
    <rect x="480.5" y="69.25" width="2.5" height="87.5" stroke="blue" stroke-width="1" fill="none"/>
    <rect x="480.5" y="56.75" width="32.5" height="25" stroke="blue" stroke-width="1" fill="none"/>
    <rect x="480.5" y="69.25" width="2.5" height="87.5" fill="black"/>
    <path d="M 480.5 72.65 Q 480.5 66.65 487.1 61.1 Q 493.7 55.55 500.6 55.55 Q 503.4 55.55 505.95 56.25 Q 508.5 56.95 510.8 59.45 Q 513.1 61.95 513.1 65.85 Q 513.1 71.35 506.4 77.15 Q 499.7 82.95 493 82.95 Q 490.2 82.95 487.65 82.25 Q 485.1 81.55 482.8 79.05 Q 480.5 76.55 480.5 72.65 Z " fill="black"/>
    <ellipse cx="485.5" cy="227.25" rx="5" ry="5" stroke="gray" stroke-width="1" fill="none"/>
    <rect x="555.5" y="54.25" width="5" height="80" stroke="orange" stroke-width="1" fill="none"/>
    <rect x="555.5" y="182.25" width="5" height="80" stroke="orange" stroke-width="1" fill="none"/>
    <rect x="0" y="0" width="561" height="263.45" stroke="black" stroke-width="1" fill="none"/>
</svg>
