<svg xmlns="http://www.w3.org/2000/svg" xmlns:xlink="http://www.w3.org/1999/xlink" viewBox="0 0 749 350.2">
    <rect x="0.5" y="123" width="10" height="10" stroke="orange" stroke-width="1" fill="none"/>
    <rect x="0.5" y="304" width="10" height="10" stroke="orange" stroke-width="1" fill="none"/>
    <rect x="10.5" y="12" width="74" height="186" stroke="orange" stroke-width="1" fill="none"/>
    <path d="M 35.300003 70.5 Q 33 63.199997 32.1 57.5 Q 31.300001 52.699997 31.300001 46.299995 Q 31.300001 44.1 31.4 41.9 Q 31.800001 32.4 35.300003 24.449997 Q 38.800003 16.5 45.8 12.299995 Q 46.3 12 47.100002 12 Q 47.8 12 48.3 12.5 Q 53.9 18.099998 56.9 26.799995 Q 59.9 35.5 59.9 44.4 Q 59.9 54.699997 55.5 64.6 Q 51.3 74.5 43.7 82.1 Q 43.100002 82.7 43.3 83.7 L 47.3 99.7 Q 47.600002 101.3 49.3 101.1 Q 50.9 100.9 52.4 100.9 Q 58.2 100.9 62.9 103.2 Q 67.600006 105.5 70.5 109.2 Q 73.4 112.9 74.950005 117.35 Q 76.5 121.8 76.5 126.5 Q 76.5 135.1 71.7 142.05 Q 66.9 149 60.2 151.2 Q 58.8 151.7 59.100002 153.3 Q 61.600002 165.1 61.7 173.2 Q 61.7 176.3 61.3 179.3 Q 60.5 186.2 55.3 191.4 Q 50.100002 196.6 42.9 196.6 Q 34.1 196.6 28 191.3 Q 21.900002 186 21.900002 177.4 Q 21.900002 173 25 169.8 Q 28.1 166.6 32.300003 166.6 Q 36.6 166.6 39.550003 169.65 Q 42.5 172.7 42.5 176.9 Q 42.5 180.5 40.1 183.2 Q 37.7 186 34.300003 186.3 Q 33.1 186.4 32.7 187.5 Q 32.300003 188.6 33.5 189.5 Q 37.1 192.3 42.300003 192.3 Q 48 192.3 52.15 188.2 Q 56.3 184.1 57 178.9 Q 57.5 175.3 57.5 171.7 Q 57.5 163.9 55.100002 154.4 Q 54.7 152.7 52.9 152.9 Q 48.9 153.4 45.5 153.4 Q 30.7 153.4 20.6 144.1 Q 10.5 134.8 10.5 118.8 Q 10.5 113.9 11.65 109.15 Q 12.8 104.4 14.25 100.95 Q 15.700001 97.5 18.75 92.95 Q 21.8 88.399994 23.650002 86 Q 25.5 83.6 29.5 78.85 Q 33.5 74.1 35 72.2 Q 35.6 71.5 35.300003 70.5 Z M 50.9 116.2 L 57.4 145.7 Q 57.7 147 59.2 147 Q 59.600002 147 59.9 146.9 Q 64 145.2 66.7 140.3 Q 69.4 135.4 69.4 130.6 Q 69.4 123.6 65.3 118.8 Q 61.100002 113.9 52.7 113.9 Q 52 113.9 51.45 114.45 Q 50.9 115 50.9 115.7 Q 50.8 116 50.9 116.2 Z M 37.1 88.399994 Q 35.5 90.2 32.35 93.55 Q 29.2 96.9 27.65 98.65 Q 26.1 100.4 23.85 103.6 Q 21.6 106.8 20.5 109.5 Q 19.400002 112.2 18.55 116.1 Q 17.7 120 17.7 124.4 Q 17.7 130.5 21.45 136.2 Q 25.2 141.9 31.75 145.5 Q 38.300003 149.1 45.8 149.1 Q 48.5 149.1 51.8 148.8 Q 52.600002 148.7 53.100002 148.05 Q 53.600002 147.4 53.4 146.6 L 46.9 116.7 Q 46.600002 115.3 45 115.3 Q 44.7 115.3 44.3 115.4 Q 39.7 117.1 37.800003 120.2 Q 35.9 123.3 35.9 128 Q 35.9 133.5 41.9 137.5 Q 42.600002 138 42.600002 139 Q 42.600002 139.8 41.95 140.5 Q 41.300003 141.2 40.4 141.2 Q 39.9 141.2 39.5 141 Q 33.800003 138 31.050001 132.85 Q 28.300001 127.7 28.300001 122 Q 28.300001 116.5 32.25 110.65 Q 36.2 104.8 42.1 102.6 Q 43.600002 102 43.3 100.5 L 40.300003 89.2 Q 40.1 88.1 38.9 87.899994 Q 37.7 87.7 37.1 88.399994 Z M 53.9 30.199997 Q 53.100002 27.599998 51.2 27.599998 Q 50.600002 27.599998 50.100002 27.900002 Q 43.7 31.699997 39.95 38.6 Q 36.2 45.5 36.2 53.199997 Q 36.2 58.199997 38.300003 65.5 Q 38.6 66.6 39.800003 66.8 Q 40.800003 66.899994 41.5 66.1 Q 41.800003 65.7 44.350002 62.549995 Q 46.9 59.4 47.7 58.35 Q 48.5 57.299995 50.4 54.35 Q 52.3 51.4 53.05 49.449997 Q 53.8 47.5 54.5 44.6 Q 55.2 41.699997 55.2 38.799995 Q 55.2 34.6 53.9 30.199997 Z " fill="black"/>
    <ellipse cx="15.5" cy="314" rx="5" ry="5" stroke="gray" stroke-width="1" fill="none"/>
    <rect x="84.5" y="103" width="32.5" height="25" stroke="lightgray" stroke-width="1" fill="none"/>
    <path d="M 84.5 118.9 Q 84.5 112.9 91.1 107.35 Q 97.7 101.8 104.6 101.8 Q 107.4 101.8 109.95 102.5 Q 112.5 103.2 114.8 105.7 Q 117.100006 108.2 117.100006 112.1 Q 117.100006 117.6 110.4 123.4 Q 103.7 129.2 97 129.2 Q 94.2 129.2 91.65 128.5 Q 89.1 127.8 86.8 125.3 Q 84.5 122.8 84.5 118.9 Z " fill="black"/>
    <rect x="84.5" y="143" width="25" height="70" stroke="lightgray" stroke-width="1" fill="none"/>
    <path d="M 95 188.4 Q 95.7 188.4 96.15 187.95 Q 96.6 187.5 96.6 186.9 Q 96.6 186.3 96.2 185.9 L 89 177.8 Q 86 174.4 86 171.5 Q 86 169 93.1 162.8 Q 96.8 159.5 96.8 154.5 Q 96.8 150.6 94.3 147.6 L 90.8 143.4 Q 90.4 142.9 90.4 142.4 Q 90.4 140.9 91.8 140.9 Q 92.7 140.9 93.3 141.6 L 108.3 159.4 Q 109.3 160.6 109.3 161.9 Q 109.3 163 108.5 164.2 Q 107.7 165.4 106.8 166.25 Q 105.9 167.1 104.15 168.55 Q 102.4 170 101.7 170.7 Q 97.5 174.6 97.5 179.3 Q 97.5 182.9 101.6 187.3 L 110 196.4 Q 110.4 196.8 110.4 197.4 Q 110.4 198 109.95 198.45 Q 109.5 198.9 109 198.9 Q 108.3 198.9 106.9 197.8 Q 103.2 195 99 195 Q 96.1 195 93.95 197.25 Q 91.8 199.5 91.8 202.4 Q 91.8 203.7 92 204.75 Q 92.2 205.8 92.75 206.9 Q 93.3 208 93.5 208.4 Q 93.7 208.8 94.6 210.05 Q 95.5 211.3 95.6 211.4 Q 95.9 211.8 95.8 212.3 Q 95.7 212.8 95.25 213.05 Q 94.8 213.3 94.3 213.2 Q 93.8 213.1 93 212.3 Q 89.6 208.8 87.05 204.45 Q 84.5 200.1 84.5 196.9 Q 84.5 193 87.25 190.7 Q 90 188.4 95 188.4 Z " fill="black"/>
    <rect x="114" y="25.5" width="3" height="90" stroke="lightgray" stroke-width="1" fill="none"/>
    <rect x="114" y="25.5" width="3" height="90" fill="black"/>
    <rect x="54.546665" y="268.3" width="31.84" height="81.399994" stroke="lightgray" stroke-width="1" fill="none"/>
    <path d="M 63.906666 325.82 Q 62.466663 325.82 60.986664 324.7 Q 59.506664 323.58002 58.506664 321.97998 Q 57.506664 320.38 57.506664 318.94 Q 57.506664 316.38 58.866665 314.94 Q 60.226665 313.5 63.186665 312.3 L 71.346664 308.94 Q 72.94666 308.3 73.22667 307.82 Q 73.50667 307.34 73.58666 305.74 L 73.746666 300.62 Q 73.82666 298.53998 72.58666 297.02 Q 71.346664 295.5 69.026665 295.5 Q 67.82667 295.5 66.62666 295.9 Q 65.42667 296.3 64.62666 296.94 Q 64.14667 297.26 63.986664 297.9 Q 63.826664 298.53998 63.826664 299.26 Q 63.826664 299.58002 63.866665 299.97998 Q 63.906666 300.38 63.906666 300.7 Q 63.906666 301.09998 62.906666 301.78 Q 61.906666 302.46 60.666664 302.97998 Q 59.426666 303.5 58.626663 303.5 Q 58.226665 303.5 57.986664 303.3 Q 57.746666 303.09998 57.746666 302.78 Q 57.746666 301.5 58.586666 300.02 Q 59.426666 298.53998 60.946663 297.26 Q 62.786667 295.58002 64.94666 294.3 Q 67.10667 293.02002 69.18666 292.3 Q 71.26666 291.58002 72.86667 291.58002 Q 75.746666 291.58002 77.62666 293.62 Q 79.50667 295.66 79.42667 298.7 L 79.026665 317.9 Q 78.94666 319.58002 79.78667 320.62 Q 80.62666 321.66 81.90666 321.66 Q 83.90666 321.66 84.86667 320.78 Q 85.26666 320.38 85.50667 320.38 Q 85.90666 320.38 86.14667 320.62 Q 86.386665 320.86 86.386665 321.26 Q 86.386665 322.14 85.50667 323.02002 Q 84.22666 324.3 82.746666 325.06 Q 81.26666 325.82 79.986664 325.82 Q 76.30666 325.82 74.14667 321.66 L 73.90666 321.66 Q 71.26666 323.82 68.86667 324.82 Q 66.46667 325.82 63.906666 325.82 Z M 67.666664 321.97998 Q 69.26666 321.97998 70.386665 321.46 Q 71.50667 320.94 72.386665 320.06 Q 72.78667 319.66 73.066666 318.97998 Q 73.346664 318.3 73.42667 316.78 L 73.58666 312.86 Q 73.666664 311.97998 73.50667 311.58002 Q 73.346664 311.18 72.86667 311.18 Q 72.706665 311.18 72.30666 311.26 Q 71.90666 311.34 71.26666 311.58002 Q 67.026665 313.09998 65.386665 314.74 Q 63.746666 316.38 63.746666 317.74 Q 63.746666 319.82 64.986664 320.9 Q 66.22666 321.97998 67.666664 321.97998 Z " fill="black"/>
    <rect x="86.386665" y="268.3" width="31.84" height="81.399994" stroke="lightgray" stroke-width="1" fill="none"/>
    <path d="M 95.746666 325.82 Q 94.30666 325.82 92.82667 324.7 Q 91.346664 323.58002 90.346664 321.97998 Q 89.346664 320.38 89.346664 318.94 Q 89.346664 316.38 90.706665 314.94 Q 92.066666 313.5 95.026665 312.3 L 103.18666 308.94 Q 104.78667 308.3 105.066666 307.82 Q 105.346664 307.34 105.42667 305.74 L 105.58666 300.62 Q 105.666664 298.53998 104.42667 297.02 Q 103.18666 295.5 100.86667 295.5 Q 99.666664 295.5 98.46667 295.9 Q 97.26666 296.3 96.46667 296.94 Q 95.986664 297.26 95.82667 297.9 Q 95.666664 298.53998 95.666664 299.26 Q 95.666664 299.58002 95.706665 299.97998 Q 95.746666 300.38 95.746666 300.7 Q 95.746666 301.09998 94.746666 301.78 Q 93.746666 302.46 92.50667 302.97998 Q 91.26666 303.5 90.46667 303.5 Q 90.066666 303.5 89.82667 303.3 Q 89.58666 303.09998 89.58666 302.78 Q 89.58666 301.5 90.42667 300.02 Q 91.26666 298.53998 92.78667 297.26 Q 94.62666 295.58002 96.78667 294.3 Q 98.94666 293.02002 101.026665 292.3 Q 103.10667 291.58002 104.706665 291.58002 Q 107.58666 291.58002 109.46667 293.62 Q 111.346664 295.66 111.26666 298.7 L 110.86667 317.9 Q 110.78667 319.58002 111.62666 320.62 Q 112.46667 321.66 113.746666 321.66 Q 115.746666 321.66 116.706665 320.78 Q 117.10667 320.38 117.346664 320.38 Q 117.746666 320.38 117.986664 320.62 Q 118.22667 320.86 118.22667 321.26 Q 118.22667 322.14 117.346664 323.02002 Q 116.066666 324.3 114.58666 325.06 Q 113.10667 325.82 111.82666 325.82 Q 108.14667 325.82 105.986664 321.66 L 105.746666 321.66 Q 103.10667 323.82 100.706665 324.82 Q 98.30666 325.82 95.746666 325.82 Z M 99.50667 321.97998 Q 101.10667 321.97998 102.22666 321.46 Q 103.346664 320.94 104.22667 320.06 Q 104.62666 319.66 104.90666 318.97998 Q 105.18666 318.3 105.26666 316.78 L 105.42667 312.86 Q 105.50667 311.97998 105.346664 311.58002 Q 105.18666 311.18 104.706665 311.18 Q 104.54666 311.18 104.14667 311.26 Q 103.746666 311.34 103.10667 311.58002 Q 98.86667 313.09998 97.22667 314.74 Q 95.58666 316.38 95.58666 317.74 Q 95.58666 319.82 96.82667 320.9 Q 98.066666 321.97998 99.50667 321.97998 Z " fill="black"/>
    <rect x="118.22667" y="268.3" width="31.84" height="81.399994" stroke="lightgray" stroke-width="1" fill="none"/>
    <path d="M 127.58667 325.82 Q 126.14667 325.82 124.66667 324.7 Q 123.18667 323.58002 122.18667 321.97998 Q 121.18667 320.38 121.18667 318.94 Q 121.18667 316.38 122.54667 314.94 Q 123.90667 313.5 126.86667 312.3 L 135.02667 308.94 Q 136.62666 308.3 136.90668 307.82 Q 137.18668 307.34 137.26666 305.74 L 137.42667 300.62 Q 137.50667 298.53998 136.26666 297.02 Q 135.02667 295.5 132.70667 295.5 Q 131.50667 295.5 130.30667 295.9 Q 129.10667 296.3 128.30667 296.94 Q 127.82667 297.26 127.66667 297.9 Q 127.50667 298.53998 127.50667 299.26 Q 127.50667 299.58002 127.54667 299.97998 Q 127.58667 300.38 127.58667 300.7 Q 127.58667 301.09998 126.58667 301.78 Q 125.58667 302.46 124.34667 302.97998 Q 123.10667 303.5 122.30667 303.5 Q 121.90667 303.5 121.66667 303.3 Q 121.42667 303.09998 121.42667 302.78 Q 121.42667 301.5 122.26667 300.02 Q 123.10667 298.53998 124.62667 297.26 Q 126.46667 295.58002 128.62666 294.3 Q 130.78667 293.02002 132.86667 292.3 Q 134.94667 291.58002 136.54666 291.58002 Q 139.42667 291.58002 141.30667 293.62 Q 143.18668 295.66 143.10667 298.7 L 142.70667 317.9 Q 142.62666 319.58002 143.46667 320.62 Q 144.30667 321.66 145.58667 321.66 Q 147.58667 321.66 148.54666 320.78 Q 148.94667 320.38 149.18668 320.38 Q 149.58667 320.38 149.82666 320.62 Q 150.06667 320.86 150.06667 321.26 Q 150.06667 322.14 149.18668 323.02002 Q 147.90666 324.3 146.42667 325.06 Q 144.94667 325.82 143.66667 325.82 Q 139.98666 325.82 137.82668 321.66 L 137.58667 321.66 Q 134.94667 323.82 132.54666 324.82 Q 130.14667 325.82 127.58667 325.82 Z M 131.34666 321.97998 Q 132.94667 321.97998 134.06667 321.46 Q 135.18668 320.94 136.06667 320.06 Q 136.46667 319.66 136.74667 318.97998 Q 137.02667 318.3 137.10667 316.78 L 137.26666 312.86 Q 137.34666 311.97998 137.18668 311.58002 Q 137.02667 311.18 136.54666 311.18 Q 136.38667 311.18 135.98666 311.26 Q 135.58667 311.34 134.94667 311.58002 Q 130.70667 313.09998 129.06667 314.74 Q 127.42667 316.38 127.42667 317.74 Q 127.42667 319.82 128.66667 320.9 Q 129.90666 321.97998 131.34666 321.97998 Z " fill="black"/>
    <rect x="150.06667" y="268.3" width="31.84" height="81.399994" stroke="lightgray" stroke-width="1" fill="none"/>
    <path d="M 159.42667 325.82 Q 157.98666 325.82 156.50667 324.7 Q 155.02667 323.58002 154.02667 321.97998 Q 153.02667 320.38 153.02667 318.94 Q 153.02667 316.38 154.38666 314.94 Q 155.74666 313.5 158.70667 312.3 L 166.86667 308.94 Q 168.46666 308.3 168.74667 307.82 Q 169.02667 307.34 169.10666 305.74 L 169.26666 300.62 Q 169.34666 298.53998 168.10666 297.02 Q 166.86667 295.5 164.54666 295.5 Q 163.34666 295.5 162.14667 295.9 Q 160.94667 296.3 160.14667 296.94 Q 159.66667 297.26 159.50667 297.9 Q 159.34666 298.53998 159.34666 299.26 Q 159.34666 299.58002 159.38666 299.97998 Q 159.42667 300.38 159.42667 300.7 Q 159.42667 301.09998 158.42667 301.78 Q 157.42667 302.46 156.18666 302.97998 Q 154.94667 303.5 154.14667 303.5 Q 153.74666 303.5 153.50667 303.3 Q 153.26666 303.09998 153.26666 302.78 Q 153.26666 301.5 154.10666 300.02 Q 154.94667 298.53998 156.46666 297.26 Q 158.30667 295.58002 160.46666 294.3 Q 162.62666 293.02002 164.70667 292.3 Q 166.78667 291.58002 168.38666 291.58002 Q 171.26666 291.58002 173.14667 293.62 Q 175.02667 295.66 174.94667 298.7 L 174.54666 317.9 Q 174.46666 319.58002 175.30667 320.62 Q 176.14667 321.66 177.42667 321.66 Q 179.42667 321.66 180.38666 320.78 Q 180.78667 320.38 181.02667 320.38 Q 181.42667 320.38 181.66666 320.62 Q 181.90666 320.86 181.90666 321.26 Q 181.90666 322.14 181.02667 323.02002 Q 179.74666 324.3 178.26666 325.06 Q 176.78667 325.82 175.50667 325.82 Q 171.82666 325.82 169.66667 321.66 L 169.42667 321.66 Q 166.78667 323.82 164.38666 324.82 Q 161.98666 325.82 159.42667 325.82 Z M 163.18666 321.97998 Q 164.78667 321.97998 165.90666 321.46 Q 167.02667 320.94 167.90666 320.06 Q 168.30667 319.66 168.58667 318.97998 Q 168.86667 318.3 168.94667 316.78 L 169.10666 312.86 Q 169.18666 311.97998 169.02667 311.58002 Q 168.86667 311.18 168.38666 311.18 Q 168.22667 311.18 167.82666 311.26 Q 167.42667 311.34 166.78667 311.58002 Q 162.54666 313.09998 160.90666 314.74 Q 159.26666 316.38 159.26666 317.74 Q 159.26666 319.82 160.50667 320.9 Q 161.74666 321.97998 163.18666 321.97998 Z " fill="black"/>
    <rect x="207.5" y="153" width="32.5" height="25" stroke="lightgray" stroke-width="1" fill="none"/>
    <path d="M 207.5 168.9 Q 207.5 162.9 214.1 157.35 Q 220.7 151.8 227.6 151.8 Q 230.4 151.8 232.95 152.5 Q 235.5 153.2 237.8 155.7 Q 240.1 158.2 240.1 162.1 Q 240.1 167.6 233.4 173.4 Q 226.7 179.2 220 179.2 Q 217.2 179.2 214.65 178.5 Q 212.1 177.8 209.8 175.3 Q 207.5 172.8 207.5 168.9 Z " fill="black"/>
    <rect x="240" y="165.5" width="33.75" height="25" stroke="lightgray" stroke-width="1" fill="none"/>
    <path d="M 264.9 167.9 Q 262 167.9 252.65 174.45 Q 243.3 181 243.3 184 Q 243.3 186.1 245.1 187.1 Q 246.9 188.1 249.4 188.1 Q 252.3 188.1 261.65 181.55 Q 271 175 271 172 Q 271 169.9 269.2 168.9 Q 267.4 167.9 264.9 167.9 Z M 240 181.8 Q 240 174.6 246.2 169.45 Q 252.4 164.3 261.2 164.3 Q 264.2 164.3 266.8 164.9 Q 269.4 165.5 271.8 167.9 Q 274.2 170.3 274.2 174.2 Q 274.2 181.4 268 186.55 Q 261.8 191.7 253 191.7 Q 250 191.7 247.4 191.1 Q 244.8 190.5 242.4 188.1 Q 240 185.7 240 181.8 Z " fill="black"/>
    <rect x="237" y="50.5" width="3" height="115" stroke="lightgray" stroke-width="1" fill="none"/>
    <rect x="237" y="50.5" width="3" height="115" fill="black"/>
    <rect x="240" y="178" width="3" height="90" stroke="lightgray" stroke-width="1" fill="none"/>
    <rect x="240" y="178" width="3" height="90" fill="black"/>
    <rect x="181.6" y="268.3" width="38.399998" height="81.399994" stroke="lightgray" stroke-width="1" fill="none"/>
    <path d="M 202.32 325.82 Q 200.56 325.82 198.8 325.5 Q 197.04001 325.18 195.44 324.78 Q 193.68001 324.3 192.36 323.9 Q 191.04001 323.5 190.64 323.5 Q 190.16 323.5 189.72 323.82 Q 189.28 324.14 188.88 324.53998 Q 188.48001 324.94 188.16 324.94 Q 187.84001 324.94 187.44 324.66 Q 187.04001 324.38 187.04001 323.97998 Q 187.04001 323.26 187.32 321.5 Q 187.6 319.74 187.6 318.22 L 187.6 279.41998 Q 187.6 277.34 186.56001 275.82 Q 185.52 274.3 183.92001 273.58002 Q 183.6 273.41998 183.24 273.14 Q 182.88 272.86 182.88 272.38 Q 182.88 271.97998 183.20001 271.82 Q 183.52 271.66 183.84001 271.58002 Q 184.88 271.34 186.68001 270.7 Q 188.48001 270.06 190.08 269.41998 Q 191.68001 268.78 192.24 268.53998 Q 192.72 268.3 192.96 268.3 Q 193.12001 268.3 193.28 268.46 Q 193.44 268.62 193.44 268.86 Q 193.44 269.18 193.32 271.53998 Q 193.20001 273.9 193.20001 277.26 L 193.20001 293.66 Q 193.20001 295.18 193.36 295.7 Q 193.52 296.22 193.92001 296.3 Q 196.40001 294.22 199.68001 292.9 Q 202.96 291.58002 205.6 291.58002 Q 209.68001 291.58002 212.92001 293.66 Q 216.16 295.74 218.08 299.3 Q 220 302.86 220 307.34 Q 220 312.78 217.76001 316.97998 Q 215.52 321.18 211.56 323.5 Q 207.6 325.82 202.32 325.82 Z M 204.16 323.34 Q 207.20001 323.34 209.40001 321.46 Q 211.6 319.58002 212.8 316.34 Q 214 313.09998 214 309.09998 Q 214 305.97998 212.84001 302.7 Q 211.68001 299.41998 209.24 297.18 Q 206.8 294.94 202.96 294.94 Q 199.76001 294.94 197.36 295.97998 Q 194.96 297.02 193.20001 298.62 L 193.20001 314.14 Q 193.20001 316.94 194.76001 319.02002 Q 196.32 321.09998 198.84001 322.22 Q 201.36 323.34 204.16 323.34 Z " fill="black"/>
    <rect x="220" y="268.3" width="38.399998" height="81.399994" stroke="lightgray" stroke-width="1" fill="none"/>
    <path d="M 240.72 325.82 Q 238.95999 325.82 237.2 325.5 Q 235.44 325.18 233.84 324.78 Q 232.08 324.3 230.76 323.9 Q 229.44 323.5 229.04 323.5 Q 228.56 323.5 228.12 323.82 Q 227.68 324.14 227.28 324.53998 Q 226.88 324.94 226.56 324.94 Q 226.24 324.94 225.84 324.66 Q 225.44 324.38 225.44 323.97998 Q 225.44 323.26 225.72 321.5 Q 226 319.74 226 318.22 L 226 279.41998 Q 226 277.34 224.96 275.82 Q 223.92 274.3 222.32 273.58002 Q 222 273.41998 221.64 273.14 Q 221.28 272.86 221.28 272.38 Q 221.28 271.97998 221.6 271.82 Q 221.92 271.66 222.24 271.58002 Q 223.28 271.34 225.08 270.7 Q 226.88 270.06 228.48 269.41998 Q 230.08 268.78 230.64 268.53998 Q 231.12 268.3 231.36 268.3 Q 231.52 268.3 231.68 268.46 Q 231.84 268.62 231.84 268.86 Q 231.84 269.18 231.72 271.53998 Q 231.6 273.9 231.6 277.26 L 231.6 293.66 Q 231.6 295.18 231.76 295.7 Q 231.92 296.22 232.32 296.3 Q 234.8 294.22 238.08 292.9 Q 241.36 291.58002 244 291.58002 Q 248.08 291.58002 251.32 293.66 Q 254.56 295.74 256.47998 299.3 Q 258.4 302.86 258.4 307.34 Q 258.4 312.78 256.16 316.97998 Q 253.92 321.18 249.95999 323.5 Q 246 325.82 240.72 325.82 Z M 242.56 323.34 Q 245.6 323.34 247.8 321.46 Q 250 319.58002 251.2 316.34 Q 252.4 313.09998 252.4 309.09998 Q 252.4 305.97998 251.24 302.7 Q 250.08 299.41998 247.64 297.18 Q 245.2 294.94 241.36 294.94 Q 238.16 294.94 235.76 295.97998 Q 233.36 297.02 231.6 298.62 L 231.6 314.14 Q 231.6 316.94 233.16 319.02002 Q 234.72 321.09998 237.24 322.22 Q 239.76 323.34 242.56 323.34 Z " fill="black"/>
    <rect x="258.4" y="268.3" width="38.399998" height="81.399994" stroke="lightgray" stroke-width="1" fill="none"/>
    <path d="M 279.12 325.82 Q 277.36 325.82 275.6 325.5 Q 273.84 325.18 272.24 324.78 Q 270.47998 324.3 269.16 323.9 Q 267.84 323.5 267.44 323.5 Q 266.96 323.5 266.52 323.82 Q 266.08 324.14 265.68 324.53998 Q 265.28 324.94 264.96 324.94 Q 264.63998 324.94 264.24 324.66 Q 263.84 324.38 263.84 323.97998 Q 263.84 323.26 264.12 321.5 Q 264.4 319.74 264.4 318.22 L 264.4 279.41998 Q 264.4 277.34 263.36 275.82 Q 262.32 274.3 260.72 273.58002 Q 260.4 273.41998 260.04 273.14 Q 259.68 272.86 259.68 272.38 Q 259.68 271.97998 260 271.82 Q 260.32 271.66 260.63998 271.58002 Q 261.68 271.34 263.47998 270.7 Q 265.28 270.06 266.88 269.41998 Q 268.47998 268.78 269.03998 268.53998 Q 269.52 268.3 269.75998 268.3 Q 269.91998 268.3 270.08 268.46 Q 270.24 268.62 270.24 268.86 Q 270.24 269.18 270.12 271.53998 Q 270 273.9 270 277.26 L 270 293.66 Q 270 295.18 270.16 295.7 Q 270.32 296.22 270.72 296.3 Q 273.19998 294.22 276.47998 292.9 Q 279.75998 291.58002 282.4 291.58002 Q 286.47998 291.58002 289.72 293.66 Q 292.96 295.74 294.88 299.3 Q 296.8 302.86 296.8 307.34 Q 296.8 312.78 294.56 316.97998 Q 292.32 321.18 288.36 323.5 Q 284.4 325.82 279.12 325.82 Z M 280.96 323.34 Q 284 323.34 286.19998 321.46 Q 288.4 319.58002 289.6 316.34 Q 290.8 313.09998 290.8 309.09998 Q 290.8 305.97998 289.63998 302.7 Q 288.47998 299.41998 286.03998 297.18 Q 283.6 294.94 279.75998 294.94 Q 276.56 294.94 274.16 295.97998 Q 271.75998 297.02 270 298.62 L 270 314.14 Q 270 316.94 271.56 319.02002 Q 273.12 321.09998 275.63998 322.22 Q 278.16 323.34 280.96 323.34 Z " fill="black"/>
    <rect x="303.5" y="140.5" width="32.5" height="25" stroke="lightgray" stroke-width="1" fill="none"/>
    <path d="M 303.5 156.4 Q 303.5 150.4 310.1 144.85 Q 316.7 139.3 323.6 139.3 Q 326.4 139.3 328.95 140 Q 331.5 140.7 333.8 143.2 Q 336.1 145.7 336.1 149.6 Q 336.1 155.1 329.4 160.9 Q 322.7 166.7 316 166.7 Q 313.2 166.7 310.65 166 Q 308.1 165.3 305.8 162.8 Q 303.5 160.3 303.5 156.4 Z " fill="black"/>
    <rect x="273.5" y="115.5" width="30.000002" height="75" stroke="lightgray" stroke-width="1" fill="none"/>
    <path d="M 295.1 143.4 L 295.1 155.6 Q 295.1 156.4 295.6 156.9 Q 296.1 157.4 296.9 157.4 Q 297.2 157.4 297.5 157.3 L 298.3 157 Q 298.6 156.9 299 156.9 Q 299.8 156.9 300.4 157.5 Q 301 158.1 301 158.9 L 301 164.9 Q 301 166.2 299.7 166.7 L 296.3 168 Q 295.1 168.5 295.1 169.6 L 295.1 184.2 Q 295.1 185 294.55 185.55 Q 294 186.1 293.3 186.1 Q 292.5 186.1 291.95 185.55 Q 291.4 185 291.4 184.2 L 291.4 172.3 Q 291.4 171.5 290.85 171 Q 290.3 170.5 289.6 170.5 Q 289.2 170.5 288.9 170.6 L 284.3 172.4 Q 283.1 172.8 283.1 174 L 283.1 188.6 Q 283.1 189.4 282.5 189.95 Q 281.9 190.5 281.2 190.5 Q 280.5 190.5 279.95 189.95 Q 279.4 189.4 279.4 188.6 L 279.4 176.7 Q 279.4 175.9 278.85 175.4 Q 278.3 174.9 277.6 174.9 Q 277.3 174.9 277 175 L 276.2 175.3 Q 276 175.4 275.5 175.4 Q 274.7 175.4 274.1 174.8 Q 273.5 174.2 273.5 173.4 L 273.5 167.4 Q 273.5 166 274.8 165.5 L 278.2 164.3 Q 279.4 164 279.4 162.6 L 279.4 150.4 Q 279.4 149.6 278.85 149.1 Q 278.3 148.6 277.6 148.6 Q 277.3 148.6 277.1 148.7 L 276.2 149 Q 276 149.1 275.5 149.1 Q 274.7 149.1 274.1 148.5 Q 273.5 147.9 273.5 147.1 L 273.5 141.1 Q 273.5 139.8 274.8 139.3 L 278.3 138 Q 279.4 137.5 279.4 136.4 L 279.4 121.8 Q 279.4 121 279.95 120.45 Q 280.5 119.899994 281.2 119.899994 Q 281.9 119.899994 282.5 120.45 Q 283.1 121 283.1 121.8 L 283.1 133.7 Q 283.1 134.5 283.65 135 Q 284.2 135.5 285 135.5 Q 285.3 135.5 285.6 135.4 L 290.2 133.6 Q 291.4 133.1 291.4 131.9 L 291.4 117.399994 Q 291.4 116.6 291.95 116.05 Q 292.5 115.5 293.3 115.5 Q 294 115.5 294.55 116.05 Q 295.1 116.6 295.1 117.399994 L 295.1 129.4 Q 295.1 130.1 295.6 130.6 Q 296.1 131.1 296.8 131.1 Q 297.1 131.1 297.5 131 L 298.3 130.7 Q 298.5 130.6 299 130.6 Q 299.8 130.6 300.4 131.2 Q 301 131.8 301 132.6 L 301 138.6 Q 301 140 299.7 140.5 L 296.3 141.7 Q 295.1 142 295.1 143.4 Z M 291.4 158.2 L 291.4 146.1 Q 291.4 145.4 290.85 144.85 Q 290.3 144.3 289.6 144.3 Q 289.3 144.3 289 144.4 L 284.3 146.1 Q 283.1 146.6 283.1 147.8 L 283.1 159.9 Q 283.1 160.7 283.6 161.2 Q 284.1 161.7 284.9 161.7 Q 285.2 161.7 285.5 161.6 L 290.2 159.9 Q 291.4 159.4 291.4 158.2 Z " fill="black"/>
    <rect x="333" y="50.5" width="3" height="102.5" stroke="lightgray" stroke-width="1" fill="none"/>
    <rect x="333" y="50.5" width="3" height="102.5" fill="black"/>
    <ellipse cx="308.5" cy="314" rx="5" ry="5" stroke="gray" stroke-width="1" fill="none"/>
    <rect x="363.5" y="128" width="32.5" height="25" stroke="lightgray" stroke-width="1" fill="none"/>
    <path d="M 363.5 143.9 Q 363.5 137.9 370.1 132.35 Q 376.7 126.8 383.6 126.8 Q 386.4 126.8 388.95 127.5 Q 391.5 128.2 393.8 130.7 Q 396.1 133.2 396.1 137.1 Q 396.1 142.6 389.4 148.4 Q 382.7 154.2 376 154.2 Q 373.2 154.2 370.65 153.5 Q 368.1 152.8 365.8 150.3 Q 363.5 147.8 363.5 143.9 Z " fill="black"/>
    <ellipse cx="368.5" cy="314" rx="5" ry="5" stroke="gray" stroke-width="1" fill="none"/>
    <rect x="423.5" y="115.5" width="32.5" height="25" stroke="lightgray" stroke-width="1" fill="none"/>
    <path d="M 423.5 131.4 Q 423.5 125.4 430.1 119.85 Q 436.7 114.3 443.6 114.3 Q 446.4 114.3 448.95 115 Q 451.5 115.7 453.8 118.2 Q 456.1 120.7 456.1 124.6 Q 456.1 130.1 449.4 135.9 Q 442.7 141.7 436 141.7 Q 433.2 141.7 430.65 141 Q 428.1 140.3 425.8 137.8 Q 423.5 135.3 423.5 131.4 Z " fill="black"/>
    <ellipse cx="428.5" cy="314" rx="5" ry="5" stroke="gray" stroke-width="1" fill="none"/>
    <rect x="483.5" y="90.5" width="32.5" height="25" stroke="lightgray" stroke-width="1" fill="none"/>
    <path d="M 483.5 106.4 Q 483.5 100.4 490.1 94.85 Q 496.7 89.3 503.6 89.3 Q 506.4 89.3 508.95 90 Q 511.5 90.7 513.8 93.2 Q 516.1 95.7 516.1 99.6 Q 516.1 105.1 509.4 110.9 Q 502.7 116.7 496 116.7 Q 493.2 116.7 490.65 116 Q 488.1 115.3 485.8 112.8 Q 483.5 110.3 483.5 106.4 Z " fill="black"/>
    <rect x="513" y="13" width="3" height="90" stroke="lightgray" stroke-width="1" fill="none"/>
    <rect x="513" y="13" width="3" height="90" fill="black"/>
    <ellipse cx="488.5" cy="314" rx="5" ry="5" stroke="gray" stroke-width="1" fill="none"/>
    <rect x="588.5" y="78" width="32.5" height="25" stroke="lightgray" stroke-width="1" fill="none"/>
    <path d="M 588.5 93.9 Q 588.5 87.9 595.1 82.35 Q 601.7 76.8 608.6 76.8 Q 611.4 76.8 613.95 77.5 Q 616.5 78.2 618.8 80.7 Q 621.1 83.2 621.1 87.1 Q 621.1 92.6 614.4 98.4 Q 607.7 104.2 601 104.2 Q 598.2 104.2 595.65 103.5 Q 593.1 102.8 590.8 100.3 Q 588.5 97.8 588.5 93.9 Z " fill="black"/>
    <rect x="588.5" y="153" width="32.5" height="25" stroke="lightgray" stroke-width="1" fill="none"/>
    <path d="M 588.5 168.9 Q 588.5 162.9 595.1 157.35 Q 601.7 151.8 608.6 151.8 Q 611.4 151.8 613.95 152.5 Q 616.5 153.2 618.8 155.7 Q 621.1 158.2 621.1 162.1 Q 621.1 167.6 614.4 173.4 Q 607.7 179.2 601 179.2 Q 598.2 179.2 595.65 178.5 Q 593.1 177.8 590.8 175.3 Q 588.5 172.8 588.5 168.9 Z " fill="black"/>
    <rect x="618" y="0.5" width="3" height="90" stroke="lightgray" stroke-width="1" fill="none"/>
    <rect x="618" y="0.5" width="3" height="90" fill="black"/>
    <rect x="588.5" y="165.5" width="3" height="90" stroke="lightgray" stroke-width="1" fill="none"/>
    <rect x="588.5" y="165.5" width="3" height="90" fill="black"/>
    <rect x="567.6667" y="268.3" width="31.84" height="81.399994" stroke="lightgray" stroke-width="1" fill="none"/>
    <path d="M 577.0267 325.82 Q 575.5867 325.82 574.1067 324.7 Q 572.6267 323.58002 571.6267 321.97998 Q 570.6267 320.38 570.6267 318.94 Q 570.6267 316.38 571.9867 314.94 Q 573.3467 313.5 576.3067 312.3 L 584.4667 308.94 Q 586.0667 308.3 586.3467 307.82 Q 586.6267 307.34 586.70667 305.74 L 586.8667 300.62 Q 586.94666 298.53998 585.70667 297.02 Q 584.4667 295.5 582.14667 295.5 Q 580.9467 295.5 579.7467 295.9 Q 578.5467 296.3 577.7467 296.94 Q 577.26666 297.26 577.1067 297.9 Q 576.9467 298.53998 576.9467 299.26 Q 576.9467 299.58002 576.9867 299.97998 Q 577.0267 300.38 577.0267 300.7 Q 577.0267 301.09998 576.0267 301.78 Q 575.0267 302.46 573.7867 302.97998 Q 572.5467 303.5 571.7467 303.5 Q 571.3467 303.5 571.1067 303.3 Q 570.8667 303.09998 570.8667 302.78 Q 570.8667 301.5 571.70667 300.02 Q 572.5467 298.53998 574.0667 297.26 Q 575.9067 295.58002 578.0667 294.3 Q 580.2267 293.02002 582.3067 292.3 Q 584.38666 291.58002 585.9867 291.58002 Q 588.8667 291.58002 590.7467 293.62 Q 592.6267 295.66 592.5467 298.7 L 592.14667 317.9 Q 592.0667 319.58002 592.9067 320.62 Q 593.7467 321.66 595.0267 321.66 Q 597.0267 321.66 597.9867 320.78 Q 598.38666 320.38 598.6267 320.38 Q 599.0267 320.38 599.26666 320.62 Q 599.5067 320.86 599.5067 321.26 Q 599.5067 322.14 598.6267 323.02002 Q 597.3467 324.3 595.8667 325.06 Q 594.38666 325.82 593.1067 325.82 Q 589.4267 325.82 587.26666 321.66 L 587.0267 321.66 Q 584.38666 323.82 581.9867 324.82 Q 579.5867 325.82 577.0267 325.82 Z M 580.7867 321.97998 Q 582.38666 321.97998 583.5067 321.46 Q 584.6267 320.94 585.5067 320.06 Q 585.9067 319.66 586.1867 318.97998 Q 586.4667 318.3 586.5467 316.78 L 586.70667 312.86 Q 586.7867 311.97998 586.6267 311.58002 Q 586.4667 311.18 585.9867 311.18 Q 585.82666 311.18 585.4267 311.26 Q 585.0267 311.34 584.38666 311.58002 Q 580.14667 313.09998 578.5067 314.74 Q 576.8667 316.38 576.8667 317.74 Q 576.8667 319.82 578.1067 320.9 Q 579.3467 321.97998 580.7867 321.97998 Z " fill="black"/>
    <rect x="599.50665" y="268.3" width="38.399998" height="81.399994" stroke="lightgray" stroke-width="1" fill="none"/>
    <path d="M 620.2266 325.82 Q 618.4667 325.82 616.70667 325.5 Q 614.94666 325.18 613.3467 324.78 Q 611.5867 324.3 610.26666 323.9 Q 608.94666 323.5 608.54663 323.5 Q 608.06665 323.5 607.62665 323.82 Q 607.18665 324.14 606.7867 324.53998 Q 606.38666 324.94 606.06665 324.94 Q 605.74664 324.94 605.3467 324.66 Q 604.94666 324.38 604.94666 323.97998 Q 604.94666 323.26 605.2266 321.5 Q 605.50665 319.74 605.50665 318.22 L 605.50665 279.41998 Q 605.50665 277.34 604.4667 275.82 Q 603.42664 274.3 601.82666 273.58002 Q 601.50665 273.41998 601.14667 273.14 Q 600.7867 272.86 600.7867 272.38 Q 600.7867 271.97998 601.1066 271.82 Q 601.42664 271.66 601.74664 271.58002 Q 602.7867 271.34 604.5867 270.7 Q 606.38666 270.06 607.98663 269.41998 Q 609.5867 268.78 610.14667 268.53998 Q 610.62665 268.3 610.86664 268.3 Q 611.0267 268.3 611.18665 268.46 Q 611.3467 268.62 611.3467 268.86 Q 611.3467 269.18 611.2266 271.53998 Q 611.1066 273.9 611.1066 277.26 L 611.1066 293.66 Q 611.1066 295.18 611.26666 295.7 Q 611.42664 296.22 611.82666 296.3 Q 614.30664 294.22 617.5867 292.9 Q 620.86664 291.58002 623.50665 291.58002 Q 627.5867 291.58002 630.82666 293.66 Q 634.06665 295.74 635.98663 299.3 Q 637.9067 302.86 637.9067 307.34 Q 637.9067 312.78 635.6666 316.97998 Q 633.42664 321.18 629.4667 323.5 Q 625.50665 325.82 620.2266 325.82 Z M 622.06665 323.34 Q 625.1066 323.34 627.30664 321.46 Q 629.50665 319.58002 630.70667 316.34 Q 631.9067 313.09998 631.9067 309.09998 Q 631.9067 305.97998 630.74664 302.7 Q 629.5867 299.41998 627.14667 297.18 Q 624.70667 294.94 620.86664 294.94 Q 617.6666 294.94 615.26666 295.97998 Q 612.86664 297.02 611.1066 298.62 L 611.1066 314.14 Q 611.1066 316.94 612.6666 319.02002 Q 614.2266 321.09998 616.74664 322.22 Q 619.26666 323.34 622.06665 323.34 Z " fill="black"/>
    <rect x="637.9067" y="268.3" width="29.76" height="81.399994" stroke="lightgray" stroke-width="1" fill="none"/>
    <path d="M 654.94666 325.9 Q 650.94666 325.9 647.70667 323.86 Q 644.4667 321.82 642.5867 318.26 Q 640.70667 314.7 640.70667 310.3 Q 640.70667 305.09998 642.9867 300.86 Q 645.26666 296.62 649.1067 294.1 Q 652.94666 291.58002 657.5867 291.58002 Q 662.7867 291.58002 666.70667 294.38 Q 667.6667 295.1 667.6667 295.9 Q 667.6667 296.53998 667.1067 297.34 Q 666.5467 298.14 665.7467 298.66 Q 664.94666 299.18 664.2267 299.18 Q 663.82666 299.18 663.4267 298.9 Q 663.0267 298.62 662.5467 298.3 Q 660.7867 296.94 658.62665 295.74 Q 656.4667 294.53998 655.0267 294.53998 Q 651.1067 294.53998 648.6667 298.18 Q 646.2267 301.82 646.2267 307.74 Q 646.2267 311.5 647.8667 314.53998 Q 649.50665 317.58002 652.26666 319.34 Q 655.0267 321.09998 658.38666 321.09998 Q 660.70667 321.09998 662.38666 320.34 Q 664.06665 319.58002 665.9867 317.66 Q 666.14667 317.5 666.38666 317.38 Q 666.62665 317.26 666.7867 317.26 Q 667.6667 317.26 667.6667 318.38 Q 667.6667 318.86 667.38666 319.46 Q 667.1067 320.06 666.4667 320.86 Q 665.18665 322.46 663.4267 323.62 Q 661.6667 324.78 659.5467 325.34 Q 657.4267 325.9 654.94666 325.9 Z " fill="black"/>
    <rect x="663.5" y="140.5" width="32.5" height="25" stroke="lightgray" stroke-width="1" fill="none"/>
    <path d="M 663.5 156.4 Q 663.5 150.4 670.1 144.85 Q 676.7 139.3 683.6 139.3 Q 686.4 139.3 688.95 140 Q 691.5 140.7 693.8 143.2 Q 696.1 145.7 696.1 149.6 Q 696.1 155.1 689.4 160.9 Q 682.7 166.7 676 166.7 Q 673.2 166.7 670.65 166 Q 668.1 165.3 665.8 162.8 Q 663.5 160.3 663.5 156.4 Z " fill="black"/>
    <rect x="693" y="0.5" width="3" height="152.5" stroke="lightgray" stroke-width="1" fill="none"/>
    <rect x="693" y="0.5" width="3" height="152.5" fill="black"/>
    <ellipse cx="668.5" cy="314" rx="5" ry="5" stroke="gray" stroke-width="1" fill="none"/>
    <rect x="738.5" y="123" width="10" height="10" stroke="orange" stroke-width="1" fill="none"/>
    <rect x="738.5" y="304" width="10" height="10" stroke="orange" stroke-width="1" fill="none"/>
    <rect x="0" y="0" width="749" height="350.2" stroke="black" stroke-width="1" fill="none"/>
</svg>
