<svg xmlns="http://www.w3.org/2000/svg" xmlns:xlink="http://www.w3.org/1999/xlink" viewBox="0 0 518.5 325">
    <line x1="1.25" y1="50.5" x2="517.25" y2="50.5" stroke="black" stroke-width="2.5"/>
    <line x1="1.25" y1="75.5" x2="517.25" y2="75.5" stroke="black" stroke-width="2.5"/>
    <line x1="1.25" y1="100.5" x2="517.25" y2="100.5" stroke="black" stroke-width="2.5"/>
    <line x1="1.25" y1="125.5" x2="517.25" y2="125.5" stroke="black" stroke-width="2.5"/>
    <line x1="1.25" y1="150.5" x2="517.25" y2="150.5" stroke="black" stroke-width="2.5"/>
    <rect x="1.25" y="0.5" width="10" height="200" stroke="orange" stroke-width="1" fill="none"/>
    <rect x="1.25" y="216" width="10" height="25" stroke="orange" stroke-width="1" fill="none"/>
    <rect x="1.25" y="280" width="10" height="25" stroke="orange" stroke-width="1" fill="none"/>
    <rect x="11.25" y="10.5" width="74" height="186" stroke="orange" stroke-width="1" fill="none"/>
    <path d="M 36.050003 69 Q 33.75 61.7 32.85 56 Q 32.050003 51.199997 32.050003 44.799995 Q 32.050003 42.6 32.15 40.4 Q 32.550003 30.900002 36.050003 22.949997 Q 39.550003 15 46.55 10.799995 Q 47.05 10.5 47.850002 10.5 Q 48.55 10.5 49.05 11 Q 54.65 16.599998 57.65 25.299995 Q 60.65 34 60.65 42.9 Q 60.65 53.199997 56.25 63.1 Q 52.05 73 44.45 80.6 Q 43.850002 81.2 44.05 82.2 L 48.05 98.2 Q 48.350002 99.8 50.05 99.6 Q 51.65 99.4 53.15 99.4 Q 58.95 99.4 63.65 101.7 Q 68.350006 104 71.25 107.7 Q 74.15 111.4 75.700005 115.85 Q 77.25 120.3 77.25 125 Q 77.25 133.6 72.45 140.55 Q 67.65 147.5 60.95 149.7 Q 59.55 150.2 59.850002 151.8 Q 62.350002 163.6 62.45 171.7 Q 62.45 174.8 62.05 177.8 Q 61.25 184.7 56.05 189.9 Q 50.850002 195.1 43.65 195.1 Q 34.85 195.1 28.75 189.8 Q 22.650002 184.5 22.650002 175.9 Q 22.650002 171.5 25.75 168.3 Q 28.85 165.1 33.050003 165.1 Q 37.35 165.1 40.300003 168.15 Q 43.25 171.2 43.25 175.4 Q 43.25 179 40.85 181.7 Q 38.45 184.5 35.050003 184.8 Q 33.85 184.9 33.45 186 Q 33.050003 187.1 34.25 188 Q 37.85 190.8 43.050003 190.8 Q 48.75 190.8 52.9 186.7 Q 57.05 182.6 57.75 177.4 Q 58.25 173.8 58.25 170.2 Q 58.25 162.4 55.850002 152.9 Q 55.45 151.2 53.65 151.4 Q 49.65 151.9 46.25 151.9 Q 31.45 151.9 21.35 142.6 Q 11.25 133.3 11.25 117.3 Q 11.25 112.4 12.4 107.65 Q 13.55 102.9 15 99.45 Q 16.45 96 19.5 91.45 Q 22.55 86.899994 24.400002 84.5 Q 26.25 82.1 30.25 77.35 Q 34.25 72.6 35.75 70.7 Q 36.35 70 36.050003 69 Z M 51.65 114.7 L 58.15 144.2 Q 58.45 145.5 59.95 145.5 Q 60.350002 145.5 60.65 145.4 Q 64.75 143.7 67.45 138.8 Q 70.15 133.9 70.15 129.1 Q 70.15 122.1 66.05 117.3 Q 61.850002 112.4 53.45 112.4 Q 52.75 112.4 52.2 112.95 Q 51.65 113.5 51.65 114.2 Q 51.55 114.5 51.65 114.7 Z M 37.85 86.899994 Q 36.25 88.7 33.1 92.05 Q 29.95 95.4 28.4 97.15 Q 26.85 98.9 24.6 102.1 Q 22.35 105.3 21.25 108 Q 20.150002 110.7 19.3 114.6 Q 18.45 118.5 18.45 122.9 Q 18.45 129 22.2 134.7 Q 25.95 140.4 32.5 144 Q 39.050003 147.6 46.55 147.6 Q 49.25 147.6 52.55 147.3 Q 53.350002 147.2 53.850002 146.55 Q 54.350002 145.9 54.15 145.1 L 47.65 115.2 Q 47.350002 113.8 45.75 113.8 Q 45.45 113.8 45.05 113.9 Q 40.45 115.6 38.550003 118.7 Q 36.65 121.8 36.65 126.5 Q 36.65 132 42.65 136 Q 43.350002 136.5 43.350002 137.5 Q 43.350002 138.3 42.7 139 Q 42.050003 139.7 41.15 139.7 Q 40.65 139.7 40.25 139.5 Q 34.550003 136.5 31.800001 131.35 Q 29.050001 126.2 29.050001 120.5 Q 29.050001 115 33 109.15 Q 36.95 103.3 42.85 101.1 Q 44.350002 100.5 44.05 99 L 41.050003 87.7 Q 40.85 86.6 39.65 86.399994 Q 38.45 86.2 37.85 86.899994 Z M 54.65 28.699997 Q 53.850002 26.099998 51.95 26.099998 Q 51.350002 26.099998 50.850002 26.400002 Q 44.45 30.199997 40.7 37.1 Q 36.95 44 36.95 51.699997 Q 36.95 56.699997 39.050003 64 Q 39.35 65.1 40.550003 65.3 Q 41.550003 65.399994 42.25 64.6 Q 42.550003 64.2 45.100002 61.049995 Q 47.65 57.9 48.45 56.85 Q 49.25 55.799995 51.15 52.85 Q 53.05 49.9 53.8 47.949997 Q 54.55 46 55.25 43.1 Q 55.95 40.199997 55.95 37.299995 Q 55.95 33.1 54.65 28.699997 Z " fill="black"/>
    <ellipse cx="16.25" cy="233.5" rx="5" ry="5" stroke="gray" stroke-width="1" fill="none"/>
    <ellipse cx="16.25" cy="297.5" rx="5" ry="5" stroke="gray" stroke-width="1" fill="none"/>
    <rect x="85.25" y="88" width="32.5" height="25" stroke="red" stroke-width="1" fill="none"/>
    <path d="M 85.25 103.9 Q 85.25 97.9 91.85 92.35 Q 98.45 86.8 105.35 86.8 Q 108.15 86.8 110.7 87.5 Q 113.25 88.2 115.55 90.7 Q 117.850006 93.2 117.850006 97.1 Q 117.850006 102.6 111.15 108.4 Q 104.45 114.2 97.75 114.2 Q 94.95 114.2 92.4 113.5 Q 89.85 112.8 87.55 110.3 Q 85.25 107.8 85.25 103.9 Z " fill="black"/>
    <rect x="117.75" y="88" width="5" height="25" stroke="red" stroke-width="1" fill="none"/>
    <rect x="85.25" y="100.5" width="3" height="89.28571" stroke="red" stroke-width="1" fill="none"/>
    <rect x="59.901947" y="196.5" width="37.20167" height="64" stroke="red" stroke-width="1" fill="none"/>
    <path d="M 66.15493 202.99403 L 62.38405 202.42123 L 62.38405 200.0346 L 75.36734 200.0346 L 75.36734 202.42123 L 71.26233 202.99403 L 71.26233 215.83414 L 88.06424 215.83414 L 88.06424 202.99403 L 84.19789 202.42123 L 84.19789 200.0346 L 96.99025 200.0346 L 96.99025 202.42123 L 93.21937 202.99403 L 93.21937 232.68378 L 96.99025 233.1611 L 96.99025 235.5 L 84.150154 235.5 L 84.150154 233.1611 L 88.06424 232.68378 L 88.06424 218.79355 L 71.26233 218.79355 L 71.26233 232.68378 L 75.41507 233.1611 L 75.41507 235.5 L 62.28858 235.5 L 62.28858 233.1611 L 66.15493 232.68378 L 66.15493 202.99403 Z " fill="black"/>
    <rect x="97.10362" y="196.5" width="24.457039" height="64" stroke="red" stroke-width="1" fill="none"/>
    <path d="M 102.18716 232.25418 Q 99.15613 228.48329 99.15613 222.18259 Q 99.15613 218.02983 100.73131 214.87947 Q 102.30649 211.72913 105.14658 210.01074 Q 107.98668 208.29236 111.614365 208.29236 Q 116.0535 208.29236 118.511734 210.7506 Q 120.96997 213.20883 121.11317 217.79117 Q 121.11317 220.70287 120.77904 222.23032 L 104.35899 222.23032 Q 104.45446 226.95584 106.554695 229.84367 Q 108.65494 232.7315 112.521286 232.7315 Q 114.43059 232.7315 116.50696 232.03938 Q 118.583336 231.34726 119.72892 230.39261 L 120.63584 232.49284 Q 119.251595 233.92482 116.53083 234.97495 Q 113.81007 236.02505 110.993835 236.02505 Q 105.21818 236.02505 102.18716 232.25418 Z M 115.86257 219.70047 Q 116.00577 218.69809 116.00577 217.64798 Q 115.95804 214.54535 114.693115 212.75537 Q 113.42821 210.9654 110.70744 210.9654 Q 107.93894 210.9654 106.29217 212.97017 Q 104.645386 214.97495 104.40672 219.70047 L 115.86257 219.70047 Z " fill="black"/>
    <rect x="121.56066" y="196.5" width="14.385441" height="64" stroke="red" stroke-width="1" fill="none"/>
    <path d="M 127.04992 203.3759 Q 126.2862 202.51671 126.2862 201.18019 Q 126.2862 199.65274 127.21699 198.65036 Q 128.14777 197.64798 129.77069 197.64798 Q 131.3936 197.64798 132.15732 198.50717 Q 132.92104 199.36635 132.92104 200.70287 Q 132.92104 202.32578 131.99025 203.28043 Q 131.05946 204.23508 129.3411 204.23508 L 129.29337 204.23508 Q 127.813644 204.23508 127.04992 203.3759 Z M 123.56544 209.29475 L 130.964 208.38783 L 131.05946 208.38783 L 132.10959 209.24701 L 132.10959 235.16588 Q 132.10959 239.12769 130.964 241.82458 Q 129.81842 244.52148 127.861374 245.81026 Q 125.904335 247.09904 123.46997 247.09904 Q 121.60839 247.09904 121.27426 246.90811 L 121.0356 244.66467 Q 121.417465 244.7124 122.15732 244.56921 Q 122.89718 244.42601 123.6609 244.13962 Q 125.61794 243.47136 126.40553 240.91766 Q 127.193115 238.36397 127.193115 234.06802 L 127.193115 212.82697 L 123.56544 211.96777 L 123.56544 209.29475 Z " fill="black"/>
    <rect x="135.9461" y="196.5" width="12.5" height="64" stroke="red" stroke-width="1" fill="none"/>
    <rect x="63.64698" y="260.5" width="34.9105" height="64" stroke="red" stroke-width="1" fill="none"/>
    <path d="M 89.4465 297.56683 Q 88.18159 295.63367 85.84268 291.4809 Q 85.55629 290.95584 84.24364 288.6408 Q 82.930984 286.32578 81.80927 284.65515 Q 80.68755 282.9845 79.82836 282.02985 L 75.00736 287.47137 L 75.00736 296.68378 L 79.351036 297.1611 L 79.351036 299.5 L 65.93815 299.5 L 65.93815 297.1611 L 69.89996 296.68378 L 69.89996 266.99402 L 65.985886 266.42123 L 65.985886 264.0346 L 78.96918 264.0346 L 78.96918 266.42123 L 75.00736 266.99402 L 75.00736 283.70047 L 89.04077 266.99402 L 85.03123 266.42123 L 85.03123 264.0346 L 96.821205 264.0346 L 96.821205 266.42123 L 93.14578 266.99402 L 82.835526 278.54535 Q 84.506165 279.97733 86.39161 282.6981 Q 88.277054 285.41885 90.99782 289.71478 Q 93.336716 293.3902 94.410706 294.94153 Q 95.48469 296.49286 96.10521 296.63605 L 98.34865 297.1611 L 98.34865 299.5 L 91.52287 299.5 Q 90.71142 299.5 89.4465 297.56683 Z " fill="black"/>
    <rect x="98.55748" y="260.5" width="29.898567" height="64" stroke="red" stroke-width="1" fill="none"/>
    <path d="M 102.972755 311.28998 Q 102.185165 311.19452 101.851036 311.0036 L 101.851036 306.85083 Q 102.137436 307.04175 102.972755 307.13724 Q 103.808075 307.2327 104.5718 307.2327 Q 106.86297 307.2327 108.60521 305.63367 Q 110.34746 304.0346 111.97037 299.5 L 109.6792 299.5 L 100.609985 275.8723 L 98.41428 275.25177 L 98.41428 273.00836 L 109.91786 273.00836 L 109.91786 275.25177 L 106.24245 275.8246 L 110.92025 289.90573 L 113.11595 296.8747 L 115.16846 289.858 L 119.41667 275.8246 L 116.218575 275.25177 L 116.218575 273.00836 L 125.81285 273.00836 L 125.81285 275.25177 L 123.426216 275.8246 Q 116.40951 297.3043 115.16846 300.216 Q 113.54555 304.32098 112.20903 306.63605 Q 110.87251 308.95108 109.05867 310.16827 Q 107.24483 311.38544 104.5718 311.38544 Q 103.760345 311.38544 102.972755 311.28998 Z " fill="black"/>
    <rect x="128.45605" y="260.5" width="12.5" height="64" stroke="red" stroke-width="1" fill="none"/>
    <rect x="190.25" y="88" width="32.5" height="25" stroke="red" stroke-width="1" fill="none"/>
    <path d="M 190.25 103.9 Q 190.25 97.9 196.85 92.35 Q 203.45 86.8 210.35 86.8 Q 213.15 86.8 215.7 87.5 Q 218.25 88.2 220.55 90.7 Q 222.85 93.2 222.85 97.1 Q 222.85 102.6 216.15 108.4 Q 209.45 114.2 202.75 114.2 Q 199.95 114.2 197.4 113.5 Q 194.85 112.8 192.55 110.3 Q 190.25 107.8 190.25 103.9 Z " fill="black"/>
    <rect x="222.75" y="88" width="5" height="25" stroke="red" stroke-width="1" fill="none"/>
    <rect x="190.25" y="100.5" width="3" height="89.28571" stroke="red" stroke-width="1" fill="none"/>
    <rect x="162.7699" y="196.5" width="27.177803" height="64" stroke="red" stroke-width="1" fill="none"/>
    <path d="M 166.68398 214.73628 Q 168.45009 211.58592 171.33792 209.93915 Q 174.22574 208.29236 177.5193 208.29236 Q 183.53362 208.29236 186.56465 212.11098 Q 189.59567 215.9296 189.59567 222.13484 Q 189.59567 226.47852 187.82956 229.62888 Q 186.06345 232.77924 183.17563 234.40215 Q 180.2878 236.02505 176.99425 236.02505 Q 170.97992 236.02505 167.9489 232.20645 Q 164.91786 228.38782 164.91786 222.18259 Q 164.91786 217.88663 166.68398 214.73628 Z M 182.3403 230.58353 Q 184.10641 227.86276 184.10641 222.51671 Q 184.10641 217.21838 182.4835 214.11575 Q 180.8606 211.01312 177.28064 211.01312 Q 173.98708 211.01312 172.1971 213.73389 Q 170.40714 216.45465 170.40714 221.80072 Q 170.40714 227.09904 172.07777 230.20168 Q 173.74841 233.30429 177.28064 233.30429 Q 180.57419 233.30429 182.3403 230.58353 Z " fill="black"/>
    <rect x="189.9477" y="196.5" width="23.40692" height="64" stroke="red" stroke-width="1" fill="none"/>
    <path d="M 193.07419 215.26134 Q 194.6255 212.06325 197.65652 210.1778 Q 200.68755 208.29236 204.93576 208.29236 Q 206.98827 208.29236 208.46797 208.67422 Q 209.9477 209.05609 212.0002 209.72433 L 211.80927 217.07518 L 208.70663 217.07518 L 207.65652 212.20645 Q 207.37013 210.86993 204.02884 210.86993 Q 200.68755 210.86993 198.75438 213.56683 Q 196.8212 216.26373 196.8212 221.22792 Q 196.8212 226.86038 198.99304 229.79594 Q 201.16487 232.7315 204.64937 232.7315 Q 206.65414 232.7315 208.4441 232.11098 Q 210.23409 231.49045 211.52287 230.63127 L 212.4298 232.54057 Q 211.141 233.87709 208.63504 234.95108 Q 206.12907 236.02505 203.55151 236.02505 Q 199.63744 236.02505 196.94054 234.25896 Q 194.24364 232.49284 192.88326 229.41408 Q 191.52287 226.33533 191.52287 222.42123 Q 191.52287 218.45943 193.07419 215.26134 Z " fill="black"/>
    <rect x="213.35461" y="196.5" width="31.855608" height="64" stroke="red" stroke-width="1" fill="none"/>
    <path d="M 218.08015 199.89142 L 214.0706 199.36635 L 214.0706 197.31384 L 221.85103 196.40692 L 221.9465 196.40692 L 222.99661 197.12291 L 222.99661 208.1969 L 222.8057 212.25418 Q 224.33313 210.86993 227.00616 209.62888 Q 229.6792 208.38783 232.39996 208.38783 Q 235.40712 208.38783 237.07776 209.53342 Q 238.74841 210.679 239.41666 213.04176 Q 240.08493 215.40454 240.08493 219.41408 L 240.08493 232.7315 L 243.42621 233.1611 L 243.42621 235.5 L 232.0181 235.5 L 232.0181 233.1611 L 235.12073 232.7315 L 235.12073 219.36635 Q 235.12073 216.55013 234.73886 214.95108 Q 234.357 213.35202 233.30688 212.56444 Q 232.25676 211.77686 230.15652 211.77686 Q 228.43814 211.77686 226.48111 212.63605 Q 224.52406 213.49522 223.04436 214.64081 L 223.04436 232.7315 L 226.3379 233.1611 L 226.3379 235.5 L 215.21619 235.5 L 215.21619 233.1611 L 218.08015 232.77924 L 218.08015 199.89142 Z " fill="black"/>
    <rect x="245.21022" y="196.5" width="12.5" height="64" stroke="red" stroke-width="1" fill="none"/>
    <rect x="178.1617" y="260.5" width="21.115751" height="64" stroke="red" stroke-width="1" fill="none"/>
    <path d="M 180.40514 297.1611 L 183.98509 296.8747 L 183.98509 276.68378 L 180.54832 275.8246 L 180.54832 273.247 L 187.13544 272.38782 L 187.23091 272.38782 L 188.28102 273.247 L 188.28102 274.1062 L 188.13783 277.82935 L 188.28102 277.82935 Q 188.75836 277.01788 189.9994 275.72913 Q 191.24045 274.44034 193.1975 273.36633 Q 195.15454 272.29236 197.44571 272.29236 Q 198.40036 272.29236 199.02089 272.53104 L 199.02089 277.87708 Q 198.68675 277.63843 197.9469 277.42365 Q 197.20705 277.20883 196.30013 277.20883 Q 192.3383 277.20883 188.94928 279.6432 L 188.94928 296.82697 L 195.01134 297.20883 L 195.01134 299.5 L 180.40514 299.5 L 180.40514 297.1611 Z " fill="black"/>
    <rect x="199.27745" y="260.5" width="15.149163" height="64" stroke="red" stroke-width="1" fill="none"/>
    <path d="M 204.76671 267.37592 Q 204.00299 266.51672 204.00299 265.18018 Q 204.00299 263.65274 204.93378 262.65036 Q 205.86456 261.64798 207.48747 261.64798 Q 209.11038 261.64798 209.87411 262.50717 Q 210.63783 263.36633 210.63783 264.70288 Q 210.63783 266.32578 209.70705 267.28043 Q 208.77626 268.2351 207.1056 268.2351 L 207.05788 268.2351 Q 205.53043 268.2351 204.76671 267.37592 Z M 205.14857 276.68378 L 201.52089 275.8246 L 201.52089 273.29474 L 208.91945 272.38782 L 209.01492 272.38782 L 210.11278 273.247 L 210.11278 296.77924 L 213.93138 297.1611 L 213.93138 299.5 L 201.28223 299.5 L 201.28223 297.1611 L 205.14857 296.7315 L 205.14857 276.68378 Z " fill="black"/>
    <rect x="214.4266" y="260.5" width="12.5" height="64" stroke="red" stroke-width="1" fill="none"/>
    <rect x="297.25" y="88" width="32.5" height="25" stroke="red" stroke-width="1" fill="none"/>
    <path d="M 297.25 103.9 Q 297.25 97.9 303.85 92.35 Q 310.45 86.8 317.35 86.8 Q 320.15 86.8 322.7 87.5 Q 325.25 88.2 327.55 90.7 Q 329.85 93.2 329.85 97.1 Q 329.85 102.6 323.15 108.4 Q 316.45 114.2 309.75 114.2 Q 306.95 114.2 304.4 113.5 Q 301.85 112.8 299.55 110.3 Q 297.25 107.8 297.25 103.9 Z " fill="black"/>
    <rect x="329.75" y="88" width="5" height="25" stroke="red" stroke-width="1" fill="none"/>
    <rect x="297.25" y="100.5" width="3" height="89.28571" stroke="red" stroke-width="1" fill="none"/>
    <rect x="258.1808" y="196.5" width="31.855608" height="64" stroke="red" stroke-width="1" fill="none"/>
    <path d="M 262.9063 199.89142 L 258.8968 199.36635 L 258.8968 197.31384 L 266.67722 196.40692 L 266.77267 196.40692 L 267.82278 197.12291 L 267.82278 208.1969 L 267.63187 212.25418 Q 269.1593 210.86993 271.83234 209.62888 Q 274.50537 208.38783 277.22614 208.38783 Q 280.23328 208.38783 281.90393 209.53342 Q 283.5746 210.679 284.24283 213.04176 Q 284.9111 215.40454 284.9111 219.41408 L 284.9111 232.7315 L 288.25238 233.1611 L 288.25238 235.5 L 276.84427 235.5 L 276.84427 233.1611 L 279.9469 232.7315 L 279.9469 219.36635 Q 279.9469 216.55013 279.56503 214.95108 Q 279.18317 213.35202 278.13306 212.56444 Q 277.08295 211.77686 274.9827 211.77686 Q 273.2643 211.77686 271.30728 212.63605 Q 269.35025 213.49522 267.8705 214.64081 L 267.8705 232.7315 L 271.1641 233.1611 L 271.1641 235.5 L 260.04236 235.5 L 260.04236 233.1611 L 262.9063 232.77924 L 262.9063 199.89142 Z " fill="black"/>
    <rect x="290.0364" y="196.5" width="27.177803" height="64" stroke="red" stroke-width="1" fill="none"/>
    <path d="M 293.9505 214.73628 Q 295.71658 211.58592 298.60443 209.93915 Q 301.49225 208.29236 304.7858 208.29236 Q 310.80014 208.29236 313.83115 212.11098 Q 316.86218 215.9296 316.86218 222.13484 Q 316.86218 226.47852 315.09607 229.62888 Q 313.32996 232.77924 310.44214 234.40215 Q 307.55432 236.02505 304.26074 236.02505 Q 298.24643 236.02505 295.2154 232.20645 Q 292.1844 228.38782 292.1844 222.18259 Q 292.1844 217.88663 293.9505 214.73628 Z M 309.6068 230.58353 Q 311.37292 227.86276 311.37292 222.51671 Q 311.37292 217.21838 309.75 214.11575 Q 308.1271 211.01312 304.54715 211.01312 Q 301.2536 211.01312 299.46362 213.73389 Q 297.67365 216.45465 297.67365 221.80072 Q 297.67365 227.09904 299.34427 230.20168 Q 301.01492 233.30429 304.54715 233.30429 Q 307.8407 233.30429 309.6068 230.58353 Z " fill="black"/>
    <rect x="317.2142" y="196.5" width="29.08711" height="64" stroke="red" stroke-width="1" fill="none"/>
    <path d="M 343.51492 228.74582 Q 341.84427 232.11098 338.74164 234.06802 Q 335.63904 236.02505 331.48627 236.02505 Q 330.3407 236.02505 329.00418 235.83412 Q 327.66766 235.6432 326.8562 235.3568 L 326.99942 239.36635 L 326.99942 244.18735 L 331.9636 244.7124 L 331.9636 247.05132 L 318.64618 247.05132 L 318.64618 244.7124 L 322.08295 244.18735 L 322.08295 212.68378 L 318.59845 211.82458 L 318.59845 209.24701 L 325.3765 208.38783 L 325.47195 208.38783 L 326.47433 209.24701 L 326.47433 212.06325 Q 327.9063 210.48807 330.03043 209.39021 Q 332.15454 208.29236 334.77985 208.29236 Q 337.59607 208.29236 339.95883 209.6766 Q 342.3216 211.06085 343.75357 213.97255 Q 345.18555 216.88425 345.18555 221.3234 Q 345.18555 225.38068 343.51492 228.74582 Z M 329.43378 212.39737 Q 327.85858 213.1611 326.99942 214.06802 L 326.99942 232.06325 Q 327.33353 232.63603 328.6939 233.0895 Q 330.0543 233.54295 331.67722 233.54295 Q 335.35263 233.54295 337.61993 230.63127 Q 339.88724 227.71957 339.88724 221.84845 Q 339.88724 216.69331 337.9063 214.16348 Q 335.9254 211.63365 332.82278 211.63365 Q 331.00894 211.63365 329.43378 212.39737 Z " fill="black"/>
    <rect x="346.3013" y="196.5" width="29.08711" height="64" stroke="red" stroke-width="1" fill="none"/>
    <path d="M 372.60202 228.74582 Q 370.93137 232.11098 367.82874 234.06802 Q 364.72614 236.02505 360.57336 236.02505 Q 359.4278 236.02505 358.09128 235.83412 Q 356.75476 235.6432 355.9433 235.3568 L 356.08652 239.36635 L 356.08652 244.18735 L 361.0507 244.7124 L 361.0507 247.05132 L 347.73328 247.05132 L 347.73328 244.7124 L 351.17004 244.18735 L 351.17004 212.68378 L 347.68555 211.82458 L 347.68555 209.24701 L 354.4636 208.38783 L 354.55905 208.38783 L 355.56143 209.24701 L 355.56143 212.06325 Q 356.9934 210.48807 359.11752 209.39021 Q 361.24164 208.29236 363.86694 208.29236 Q 366.68317 208.29236 369.04593 209.6766 Q 371.4087 211.06085 372.84067 213.97255 Q 374.27264 216.88425 374.27264 221.3234 Q 374.27264 225.38068 372.60202 228.74582 Z M 358.52087 212.39737 Q 356.94568 213.1611 356.08652 214.06802 L 356.08652 232.06325 Q 356.42062 232.63603 357.781 233.0895 Q 359.1414 233.54295 360.7643 233.54295 Q 364.43973 233.54295 366.70703 230.63127 Q 368.97433 227.71957 368.97433 221.84845 Q 368.97433 216.69331 366.9934 214.16348 Q 365.0125 211.63365 361.90988 211.63365 Q 360.09604 211.63365 358.52087 212.39737 Z " fill="black"/>
    <rect x="375.38843" y="196.5" width="12.5" height="64" stroke="red" stroke-width="1" fill="none"/>
    <rect x="289.09766" y="260.5" width="24.457039" height="64" stroke="red" stroke-width="1" fill="none"/>
    <path d="M 294.18118 296.25418 Q 291.15018 292.48328 291.15018 286.18256 Q 291.15018 282.02985 292.72534 278.87946 Q 294.3005 275.72913 297.14063 274.01074 Q 299.9807 272.29236 303.6084 272.29236 Q 308.04755 272.29236 310.50577 274.7506 Q 312.964 277.20883 313.1072 281.79117 Q 313.1072 284.70288 312.77307 286.23032 L 296.35303 286.23032 Q 296.4485 290.95584 298.54874 293.8437 Q 300.64896 296.7315 304.51532 296.7315 Q 306.42462 296.7315 308.501 296.03937 Q 310.57736 295.34726 311.72296 294.3926 L 312.62988 296.49286 Q 311.24564 297.9248 308.52487 298.97495 Q 305.8041 300.02505 302.98788 300.02505 Q 297.21222 300.02505 294.18118 296.25418 Z M 307.8566 283.70047 Q 307.99982 282.6981 307.99982 281.64798 Q 307.95206 278.54535 306.68716 276.75537 Q 305.42224 274.9654 302.70148 274.9654 Q 299.93298 274.9654 298.2862 276.97015 Q 296.63943 278.97495 296.40076 283.70047 L 307.8566 283.70047 Z " fill="black"/>
    <rect x="313.5547" y="260.5" width="12.5" height="64" stroke="red" stroke-width="1" fill="none"/>
    <rect x="402.25" y="88" width="32.5" height="25" stroke="red" stroke-width="1" fill="none"/>
    <path d="M 402.25 103.9 Q 402.25 97.9 408.85 92.35 Q 415.45 86.8 422.35 86.8 Q 425.15 86.8 427.7 87.5 Q 430.25 88.2 432.55 90.7 Q 434.85 93.2 434.85 97.1 Q 434.85 102.6 428.15 108.4 Q 421.45 114.2 414.75 114.2 Q 411.95 114.2 409.4 113.5 Q 406.85 112.8 404.55 110.3 Q 402.25 107.8 402.25 103.9 Z " fill="black"/>
    <rect x="434.75" y="88" width="5" height="25" stroke="red" stroke-width="1" fill="none"/>
    <rect x="402.25" y="100.5" width="3" height="89.28571" stroke="red" stroke-width="1" fill="none"/>
    <ellipse cx="407.25" cy="233.5" rx="5" ry="5" stroke="gray" stroke-width="1" fill="none"/>
    <ellipse cx="407.25" cy="297.5" rx="5" ry="5" stroke="gray" stroke-width="1" fill="none"/>
    <rect x="507.25" y="0.5" width="10" height="200" stroke="orange" stroke-width="1" fill="none"/>
    <rect x="507.25" y="216" width="10" height="25" stroke="orange" stroke-width="1" fill="none"/>
    <rect x="507.25" y="280" width="10" height="25" stroke="orange" stroke-width="1" fill="none"/>
    <line x1="86.75" y1="104.5" x2="86.75" y2="189.7857" stroke="black" stroke-width="3"/>
    <line x1="191.75" y1="104.5" x2="191.75" y2="189.7857" stroke="black" stroke-width="3"/>
    <line x1="298.75" y1="104.5" x2="298.75" y2="189.7857" stroke="black" stroke-width="3"/>
    <line x1="403.75" y1="104.5" x2="403.75" y2="189.7857" stroke="black" stroke-width="3"/>
    <rect x="0" y="0" width="518.5" height="325" stroke="black" stroke-width="1" fill="none"/>
</svg>
