<svg xmlns="http://www.w3.org/2000/svg" xmlns:xlink="http://www.w3.org/1999/xlink" width="291.25" height="201" viewBox="0 0 291.25 201">
    <line x1="1.25" y1="50.5" x2="290" y2="50.5" stroke="black" stroke-width="2.5"/>
    <line x1="1.25" y1="75.5" x2="290" y2="75.5" stroke="black" stroke-width="2.5"/>
    <line x1="1.25" y1="100.5" x2="290" y2="100.5" stroke="black" stroke-width="2.5"/>
    <line x1="1.25" y1="125.5" x2="290" y2="125.5" stroke="black" stroke-width="2.5"/>
    <line x1="1.25" y1="150.5" x2="290" y2="150.5" stroke="black" stroke-width="2.5"/>
    <rect x="1.25" y="50.5" width="10" height="100" stroke="orange" stroke-width="1" fill="none"/>
    <rect x="11.25" y="10.5" width="74" height="186" stroke="orange" stroke-width="1" fill="none"/>
    <path d="M 36.050003 69 Q 33.75 61.7 32.85 56 Q 32.050003 51.199997 32.050003 44.799995 Q 32.050003 42.6 32.15 40.4 Q 32.550003 30.900002 36.050003 22.949997 Q 39.550003 15 46.55 10.799995 Q 47.05 10.5 47.850002 10.5 Q 48.55 10.5 49.05 11 Q 54.65 16.599998 57.65 25.299995 Q 60.65 34 60.65 42.9 Q 60.65 53.199997 56.25 63.1 Q 52.05 73 44.45 80.6 Q 43.850002 81.2 44.05 82.2 L 48.05 98.2 Q 48.350002 99.8 50.05 99.6 Q 51.65 99.4 53.15 99.4 Q 58.95 99.4 63.65 101.7 Q 68.350006 104 71.25 107.7 Q 74.15 111.4 75.700005 115.85 Q 77.25 120.3 77.25 125 Q 77.25 133.6 72.45 140.55 Q 67.65 147.5 60.95 149.7 Q 59.55 150.2 59.850002 151.8 Q 62.350002 163.6 62.45 171.7 Q 62.45 174.8 62.05 177.8 Q 61.25 184.7 56.05 189.9 Q 50.850002 195.1 43.65 195.1 Q 34.85 195.1 28.75 189.8 Q 22.650002 184.5 22.650002 175.9 Q 22.650002 171.5 25.75 168.3 Q 28.85 165.1 33.050003 165.1 Q 37.35 165.1 40.300003 168.15 Q 43.25 171.2 43.25 175.4 Q 43.25 179 40.85 181.7 Q 38.45 184.5 35.050003 184.8 Q 33.85 184.9 33.45 186 Q 33.050003 187.1 34.25 188 Q 37.85 190.8 43.050003 190.8 Q 48.75 190.8 52.9 186.7 Q 57.05 182.6 57.75 177.4 Q 58.25 173.8 58.25 170.2 Q 58.25 162.4 55.850002 152.9 Q 55.45 151.2 53.65 151.4 Q 49.65 151.9 46.25 151.9 Q 31.45 151.9 21.35 142.6 Q 11.25 133.3 11.25 117.3 Q 11.25 112.4 12.4 107.65 Q 13.55 102.9 15 99.45 Q 16.45 96 19.5 91.45 Q 22.55 86.899994 24.400002 84.5 Q 26.25 82.1 30.25 77.35 Q 34.25 72.6 35.75 70.7 Q 36.35 70 36.050003 69 Z M 51.65 114.7 L 58.15 144.2 Q 58.45 145.5 59.95 145.5 Q 60.350002 145.5 60.65 145.4 Q 64.75 143.7 67.45 138.8 Q 70.15 133.9 70.15 129.1 Q 70.15 122.1 66.05 117.3 Q 61.850002 112.4 53.45 112.4 Q 52.75 112.4 52.2 112.95 Q 51.65 113.5 51.65 114.2 Q 51.55 114.5 51.65 114.7 Z M 37.85 86.899994 Q 36.25 88.7 33.1 92.05 Q 29.95 95.4 28.4 97.15 Q 26.85 98.9 24.6 102.1 Q 22.35 105.3 21.25 108 Q 20.150002 110.7 19.3 114.6 Q 18.45 118.5 18.45 122.9 Q 18.45 129 22.2 134.7 Q 25.95 140.4 32.5 144 Q 39.050003 147.6 46.55 147.6 Q 49.25 147.6 52.55 147.3 Q 53.350002 147.2 53.850002 146.55 Q 54.350002 145.9 54.15 145.1 L 47.65 115.2 Q 47.350002 113.8 45.75 113.8 Q 45.45 113.8 45.05 113.9 Q 40.45 115.6 38.550003 118.7 Q 36.65 121.8 36.65 126.5 Q 36.65 132 42.65 136 Q 43.350002 136.5 43.350002 137.5 Q 43.350002 138.3 42.7 139 Q 42.050003 139.7 41.15 139.7 Q 40.65 139.7 40.25 139.5 Q 34.550003 136.5 31.800001 131.35 Q 29.050001 126.2 29.050001 120.5 Q 29.050001 115 33 109.15 Q 36.95 103.3 42.85 101.1 Q 44.350002 100.5 44.05 99 L 41.050003 87.7 Q 40.85 86.6 39.65 86.399994 Q 38.45 86.2 37.85 86.899994 Z M 54.65 28.699997 Q 53.850002 26.099998 51.95 26.099998 Q 51.350002 26.099998 50.850002 26.400002 Q 44.45 30.199997 40.7 37.1 Q 36.95 44 36.95 51.699997 Q 36.95 56.699997 39.050003 64 Q 39.35 65.1 40.550003 65.3 Q 41.550003 65.399994 42.25 64.6 Q 42.550003 64.2 45.100002 61.049995 Q 47.65 57.9 48.45 56.85 Q 49.25 55.799995 51.15 52.85 Q 53.05 49.9 53.8 47.949997 Q 54.55 46 55.25 43.1 Q 55.95 40.199997 55.95 37.299995 Q 55.95 33.1 54.65 28.699997 Z " fill="black"/>
    <rect x="85.25" y="0.5" width="30" height="200" stroke="orange" stroke-width="1" fill="none"/>
    <rect x="115.25" y="88" width="32.5" height="25" stroke="red" stroke-width="1" fill="none"/>
    <path d="M 115.25 103.9 Q 115.25 97.9 121.85 92.35 Q 128.45 86.8 135.35 86.8 Q 138.15 86.8 140.7 87.5 Q 143.25 88.2 145.55 90.7 Q 147.85 93.2 147.85 97.1 Q 147.85 102.6 141.15 108.4 Q 134.45 114.2 127.75 114.2 Q 124.95 114.2 122.4 113.5 Q 119.85 112.8 117.55 110.3 Q 115.25 107.8 115.25 103.9 Z " fill="black"/>
    <rect x="147.75" y="88" width="5" height="25" stroke="red" stroke-width="1" fill="none"/>
    <rect x="115.25" y="100.5" width="3" height="89.28571" stroke="red" stroke-width="1" fill="none"/>
    <rect x="152.5" y="63" width="137.5" height="110" stroke="red" stroke-width="1" fill="none"/>
    <path d="M 161.56921 82.45505 Q 165.30827 74.06206 169.96222 68.930786 Q 174.61615 63.799522 177.63922 62.128883 L 180.98051 64.43596 Q 178.51431 66.027054 174.97415 70.760544 Q 171.43398 75.49403 168.60979 83.44948 Q 165.7856 91.40494 165.7856 101.667465 Q 165.7856 112.168655 168.60979 120.36277 Q 171.43398 128.55688 175.01392 133.48926 Q 178.59387 138.42163 181.13962 140.17184 L 177.63922 142.63803 Q 174.37749 140.72871 169.92244 135.99522 Q 165.46738 131.26173 161.64877 122.43118 Q 157.83015 113.60064 157.83015 101.4288 Q 157.83015 90.84805 161.56921 82.45505 Z " fill="black"/>
    <path d="M 200.5708 73.10739 L 186.88744 73.58473 L 184.10303 90.21161 L 178.85243 90.21161 L 180.20485 68.89101 L 229.7673 68.89101 L 230.72195 90.21161 L 225.71002 90.21161 L 223.08472 73.58473 L 209.3218 73.10739 L 209.3218 123.30629 L 220.61853 124.10183 L 220.61853 128 L 190.22871 128 L 190.22871 124.10183 L 200.5708 123.30629 L 200.5708 73.10739 Z " fill="black"/>
    <path d="M 242.77646 87.45157 Q 240.44948 85.84059 239.23628 83.07607 Q 238.02307 80.311554 238.02307 76.93049 Q 238.02307 71.91856 240.44948 67.68228 Q 242.8759 63.446003 246.67462 60.72126 Q 250.47334 57.99652 254.45108 57.360085 L 255.36595 59.070503 Q 250.712 60.542263 247.52983 63.982994 Q 244.34766 67.42373 243.1941 71.799225 Q 244.18854 70.64568 245.93874 69.830246 Q 247.68893 69.01482 249.99602 69.01482 Q 254.13286 69.01482 256.34048 71.44123 Q 258.54813 73.867645 258.54813 78.16358 Q 258.54813 81.06732 257.33493 83.553406 Q 256.1217 86.03948 253.79475 87.55101 Q 251.46777 89.062546 248.32538 89.062546 Q 245.10342 89.062546 242.77646 87.45157 Z M 244.98409 72.45555 Q 243.31345 73.43009 242.677 74.54385 Q 242.59746 75.498505 242.59746 76.09517 Q 242.47812 80.90822 243.87033 83.97106 Q 245.26253 87.03391 248.56404 87.03391 Q 250.3938 87.03391 251.66667 85.90026 Q 252.93954 84.76661 253.55609 82.93685 Q 254.17264 81.1071 254.17264 79.07846 Q 254.17264 75.14052 252.72076 73.31076 Q 251.26889 71.481 248.8027 71.481 Q 246.65474 71.481 244.98409 72.45555 Z " fill="black"/>
    <path d="M 250.712 123.625 L 237.50597 123.625 L 236.47176 121.83502 Q 238.81862 117.379974 242.23946 110.04107 Q 245.66031 102.70216 248.36516 96.57648 L 249.39937 96.57648 L 252.58154 98.286896 L 241.84169 118.97106 L 240.2506 121.39748 L 250.712 120.84059 L 250.87112 113.08403 L 254.25218 112.80559 L 254.25218 120.64171 L 259.86078 120.363266 L 259.86078 123.625 L 254.25218 123.625 L 254.25218 130.02914 L 250.712 130.02914 L 250.712 123.625 Z " fill="black"/>
    <path d="M 201.71638 169.88992 Q 200.60263 169.7507 199.84686 169.55182 L 199.84686 167.28452 Q 201.1595 167.68228 202.98926 167.68228 Q 206.13167 167.68228 208.41885 166.68785 Q 210.70604 165.69342 211.91925 163.983 Q 213.13246 162.27258 213.13246 160.24393 Q 213.13246 157.53908 211.4817 156.04744 Q 209.83095 154.55579 206.4101 154.516 L 205.177 154.83423 Q 203.86436 155.232 203.90414 155.19223 L 203.22792 153.08403 Q 204.89857 152.76581 206.37033 152.12938 Q 208.83652 151.09517 210.34805 149.36485 Q 211.85959 147.63455 211.85959 145.68546 Q 211.85959 143.41815 210.52705 142.36406 Q 209.1945 141.30997 207.1261 141.30997 Q 205.33612 141.30997 203.68536 141.9464 Q 202.0346 142.58284 200.8413 143.49771 L 199.7673 141.70773 Q 200.88107 140.59396 203.32736 139.53989 Q 205.77367 138.48578 208.31941 138.48578 Q 211.93915 138.48578 214.16667 140.05698 Q 216.3942 141.62817 216.3942 144.85014 Q 216.3942 147.67432 214.16667 149.9814 Q 211.93915 152.28848 208.8763 153.36247 Q 209.27406 153.3227 209.99005 153.3227 Q 212.33691 153.3227 214.12689 154.19778 Q 215.91687 155.07289 216.8914 156.56454 Q 217.86595 158.05618 217.86595 159.92572 Q 217.86595 162.82945 216.11575 165.13654 Q 214.36555 167.44362 211.16348 168.73637 Q 207.96141 170.02914 203.74503 170.02914 Q 202.83015 170.02914 201.71638 169.88992 Z " fill="black"/>
    <path d="M 285.13922 122.2323 Q 281.40015 130.6253 276.74622 135.75656 Q 272.0923 140.88783 269.0692 142.55847 L 265.72794 140.25139 Q 268.19412 138.66031 271.73428 133.92682 Q 275.27448 129.19331 278.09863 121.23787 Q 280.92282 113.28242 280.92282 103.01989 Q 280.92282 92.51869 278.09863 84.324585 Q 275.27448 76.13046 271.69452 71.19809 Q 268.11456 66.26572 265.56882 64.51552 L 269.0692 62.049324 Q 272.33093 63.958633 276.786 68.69212 Q 281.24106 73.42561 285.05966 82.256165 Q 288.8783 91.086716 288.8783 103.25855 Q 288.8783 113.8393 285.13922 122.2323 Z " fill="black"/>
    <line x1="116.75" y1="104.5" x2="116.75" y2="189.7857" stroke="black" stroke-width="3"/>
    <rect x="0" y="0" width="291.25" height="201" stroke="black" stroke-width="1" fill="none"/>
</svg>
