<svg xmlns="http://www.w3.org/2000/svg" xmlns:xlink="http://www.w3.org/1999/xlink" viewBox="0 0 712.5 308.7">
    <rect x="0.5" y="111.5" width="10" height="10" stroke="orange" stroke-width="1" fill="none"/>
    <path d="M 0.5 167.7 L 0.5 165.2 L 100.5 165.2 L 100.5 167.7 L 0.5 167.7 Z M 0.5 142.7 L 0.5 140.2 L 100.5 140.2 L 100.5 142.7 L 0.5 142.7 Z M 0.5 117.7 L 0.5 115.2 L 100.5 115.2 L 100.5 117.7 L 0.5 117.7 Z M 0.5 92.7 L 0.5 90.2 L 100.5 90.2 L 100.5 92.7 L 0.5 92.7 Z M 0.5 67.7 L 0.5 65.2 L 100.5 65.2 L 100.5 67.7 L 0.5 67.7 Z " fill="orange"/>
    <rect x="0.5" y="252.5" width="10" height="10" stroke="orange" stroke-width="1" fill="none"/>
    <path d="M 0.5 308.7 L 0.5 306.2 L 100.5 306.2 L 100.5 308.7 L 0.5 308.7 Z M 0.5 283.7 L 0.5 281.2 L 100.5 281.2 L 100.5 283.7 L 0.5 283.7 Z M 0.5 258.7 L 0.5 256.2 L 100.5 256.2 L 100.5 258.7 L 0.5 258.7 Z M 0.5 233.7 L 0.5 231.2 L 100.5 231.2 L 100.5 233.7 L 0.5 233.7 Z M 0.5 208.7 L 0.5 206.2 L 100.5 206.2 L 100.5 208.7 L 0.5 208.7 Z " fill="orange"/>
    <rect x="10.5" y="0.5" width="74" height="186" stroke="orange" stroke-width="1" fill="none"/>
    <path d="M 35.300003 59 Q 33 51.699997 32.1 46 Q 31.300001 41.199997 31.300001 34.799995 Q 31.300001 32.6 31.4 30.400002 Q 31.800001 20.900002 35.300003 12.949997 Q 38.800003 5 45.8 0.7999954 Q 46.3 0.5 47.100002 0.5 Q 47.8 0.5 48.3 1 Q 53.9 6.5999985 56.9 15.299995 Q 59.9 24 59.9 32.9 Q 59.9 43.199997 55.5 53.1 Q 51.3 63 43.7 70.6 Q 43.100002 71.2 43.3 72.2 L 47.3 88.2 Q 47.600002 89.8 49.3 89.6 Q 50.9 89.4 52.4 89.4 Q 58.2 89.4 62.9 91.7 Q 67.600006 94 70.5 97.7 Q 73.4 101.4 74.950005 105.85 Q 76.5 110.3 76.5 115 Q 76.5 123.6 71.7 130.55 Q 66.9 137.5 60.2 139.7 Q 58.8 140.2 59.100002 141.8 Q 61.600002 153.6 61.7 161.7 Q 61.7 164.8 61.3 167.8 Q 60.5 174.7 55.3 179.9 Q 50.100002 185.1 42.9 185.1 Q 34.1 185.1 28 179.8 Q 21.900002 174.5 21.900002 165.9 Q 21.900002 161.5 25 158.3 Q 28.1 155.1 32.300003 155.1 Q 36.6 155.1 39.550003 158.15 Q 42.5 161.2 42.5 165.4 Q 42.5 169 40.1 171.7 Q 37.7 174.5 34.300003 174.8 Q 33.1 174.9 32.7 176 Q 32.300003 177.1 33.5 178 Q 37.1 180.8 42.300003 180.8 Q 48 180.8 52.15 176.7 Q 56.3 172.6 57 167.4 Q 57.5 163.8 57.5 160.2 Q 57.5 152.4 55.100002 142.9 Q 54.7 141.2 52.9 141.4 Q 48.9 141.9 45.5 141.9 Q 30.7 141.9 20.6 132.6 Q 10.5 123.3 10.5 107.3 Q 10.5 102.4 11.65 97.65 Q 12.8 92.9 14.25 89.45 Q 15.700001 86 18.75 81.45 Q 21.8 76.899994 23.650002 74.5 Q 25.5 72.1 29.5 67.35 Q 33.5 62.6 35 60.7 Q 35.6 60 35.300003 59 Z M 50.9 104.7 L 57.4 134.2 Q 57.7 135.5 59.2 135.5 Q 59.600002 135.5 59.9 135.4 Q 64 133.7 66.7 128.8 Q 69.4 123.9 69.4 119.1 Q 69.4 112.1 65.3 107.3 Q 61.100002 102.4 52.7 102.4 Q 52 102.4 51.45 102.95 Q 50.9 103.5 50.9 104.2 Q 50.8 104.5 50.9 104.7 Z M 37.1 76.899994 Q 35.5 78.7 32.35 82.05 Q 29.2 85.4 27.65 87.15 Q 26.1 88.9 23.85 92.1 Q 21.6 95.3 20.5 98 Q 19.400002 100.7 18.55 104.6 Q 17.7 108.5 17.7 112.9 Q 17.7 119 21.45 124.7 Q 25.2 130.4 31.75 134 Q 38.300003 137.6 45.8 137.6 Q 48.5 137.6 51.8 137.3 Q 52.600002 137.2 53.100002 136.55 Q 53.600002 135.9 53.4 135.1 L 46.9 105.2 Q 46.600002 103.8 45 103.8 Q 44.7 103.8 44.3 103.9 Q 39.7 105.6 37.800003 108.7 Q 35.9 111.8 35.9 116.5 Q 35.9 122 41.9 126 Q 42.600002 126.5 42.600002 127.5 Q 42.600002 128.3 41.95 129 Q 41.300003 129.7 40.4 129.7 Q 39.9 129.7 39.5 129.5 Q 33.800003 126.5 31.050001 121.35 Q 28.300001 116.2 28.300001 110.5 Q 28.300001 105 32.25 99.15 Q 36.2 93.3 42.1 91.1 Q 43.600002 90.5 43.3 89 L 40.300003 77.7 Q 40.1 76.6 38.9 76.399994 Q 37.7 76.2 37.1 76.899994 Z M 53.9 18.699997 Q 53.100002 16.099998 51.2 16.099998 Q 50.600002 16.099998 50.100002 16.400002 Q 43.7 20.199997 39.95 27.099998 Q 36.2 34 36.2 41.699997 Q 36.2 46.699997 38.300003 54 Q 38.6 55.1 39.800003 55.3 Q 40.800003 55.399998 41.5 54.6 Q 41.800003 54.2 44.350002 51.049995 Q 46.9 47.9 47.7 46.85 Q 48.5 45.799995 50.4 42.85 Q 52.3 39.9 53.05 37.949997 Q 53.8 36 54.5 33.1 Q 55.2 30.199997 55.2 27.299995 Q 55.2 23.099998 53.9 18.699997 Z " fill="black"/>
    <ellipse cx="15.5" cy="262.5" rx="5" ry="5" stroke="gray" stroke-width="1" fill="none"/>
    <rect x="84.5" y="116.5" width="2.5" height="87.5" stroke="blue" stroke-width="1" fill="none"/>
    <rect x="84.5" y="116.5" width="2.5" height="87.5" fill="black"/>
    <rect x="84.5" y="104" width="33.75" height="25" stroke="blue" stroke-width="1" fill="none"/>
    <path d="M 109.4 106.4 Q 106.5 106.4 97.15 112.95 Q 87.8 119.5 87.8 122.5 Q 87.8 124.6 89.6 125.6 Q 91.4 126.6 93.9 126.6 Q 96.8 126.6 106.15 120.05 Q 115.5 113.5 115.5 110.5 Q 115.5 108.4 113.7 107.4 Q 111.9 106.4 109.4 106.4 Z M 84.5 120.3 Q 84.5 113.1 90.7 107.95 Q 96.9 102.8 105.7 102.8 Q 108.7 102.8 111.3 103.4 Q 113.9 104 116.3 106.4 Q 118.7 108.8 118.7 112.7 Q 118.7 119.9 112.5 125.05 Q 106.3 130.2 97.5 130.2 Q 94.5 130.2 91.9 129.6 Q 89.3 129 86.9 126.6 Q 84.5 124.2 84.5 120.3 Z " fill="black"/>
    <rect x="49.239998" y="216.8" width="31.84" height="81.399994" stroke="blue" stroke-width="1" fill="none"/>
    <path d="M 58.6 274.32 Q 57.159996 274.32 55.679996 273.2 Q 54.199997 272.08002 53.199997 270.47998 Q 52.199997 268.88 52.199997 267.44 Q 52.199997 264.88 53.559998 263.44 Q 54.92 262 57.879997 260.8 L 66.03999 257.44 Q 67.64 256.8 67.92 256.32 Q 68.2 255.84 68.28 254.23999 L 68.439995 249.12 Q 68.52 247.04 67.28 245.51999 Q 66.03999 244 63.719997 244 Q 62.519997 244 61.32 244.4 Q 60.12 244.8 59.32 245.44 Q 58.839996 245.76 58.679996 246.4 Q 58.519997 247.04 58.519997 247.76 Q 58.519997 248.08 58.559998 248.48 Q 58.6 248.88 58.6 249.2 Q 58.6 249.59999 57.6 250.28 Q 56.6 250.95999 55.359997 251.48 Q 54.12 252 53.32 252 Q 52.92 252 52.679996 251.8 Q 52.44 251.59999 52.44 251.28 Q 52.44 250 53.28 248.51999 Q 54.12 247.04 55.64 245.76 Q 57.479996 244.08 59.64 242.79999 Q 61.799995 241.51999 63.879997 240.8 Q 65.96 240.08 67.56 240.08 Q 70.439995 240.08 72.32 242.12 Q 74.2 244.16 74.119995 247.2 L 73.72 266.4 Q 73.64 268.08002 74.479996 269.12 Q 75.32 270.16 76.6 270.16 Q 78.6 270.16 79.56 269.28 Q 79.96 268.88 80.2 268.88 Q 80.6 268.88 80.84 269.12 Q 81.08 269.36 81.08 269.76 Q 81.08 270.64 80.2 271.52002 Q 78.92 272.8 77.439995 273.56 Q 75.96 274.32 74.67999 274.32 Q 71 274.32 68.84 270.16 L 68.6 270.16 Q 65.96 272.32 63.559998 273.32 Q 61.159996 274.32 58.6 274.32 Z M 62.359997 270.47998 Q 63.96 270.47998 65.079994 269.96 Q 66.2 269.44 67.08 268.56 Q 67.479996 268.16 67.759995 267.47998 Q 68.03999 266.8 68.119995 265.28 L 68.28 261.36 Q 68.36 260.47998 68.2 260.08002 Q 68.03999 259.68 67.56 259.68 Q 67.399994 259.68 67 259.76 Q 66.6 259.84 65.96 260.08002 Q 61.719997 261.59998 60.079998 263.24 Q 58.44 264.88 58.44 266.24 Q 58.44 268.32 59.679996 269.4 Q 60.92 270.47998 62.359997 270.47998 Z " fill="black"/>
    <rect x="81.08" y="216.8" width="31.84" height="81.399994" stroke="blue" stroke-width="1" fill="none"/>
    <path d="M 90.44 274.32 Q 89 274.32 87.520004 273.2 Q 86.04 272.08002 85.04 270.47998 Q 84.04 268.88 84.04 267.44 Q 84.04 264.88 85.4 263.44 Q 86.76 262 89.72 260.8 L 97.880005 257.44 Q 99.48 256.8 99.76 256.32 Q 100.04 255.84 100.12 254.23999 L 100.28 249.12 Q 100.36 247.04 99.12 245.51999 Q 97.880005 244 95.56 244 Q 94.36 244 93.16 244.4 Q 91.96 244.8 91.16 245.44 Q 90.68 245.76 90.520004 246.4 Q 90.36 247.04 90.36 247.76 Q 90.36 248.08 90.4 248.48 Q 90.44 248.88 90.44 249.2 Q 90.44 249.59999 89.44 250.28 Q 88.44 250.95999 87.200005 251.48 Q 85.96 252 85.16 252 Q 84.76 252 84.520004 251.8 Q 84.28 251.59999 84.28 251.28 Q 84.28 250 85.12 248.51999 Q 85.96 247.04 87.48 245.76 Q 89.32 244.08 91.48 242.79999 Q 93.64 241.51999 95.72 240.8 Q 97.8 240.08 99.4 240.08 Q 102.28 240.08 104.16 242.12 Q 106.04 244.16 105.96 247.2 L 105.56 266.4 Q 105.48 268.08002 106.32 269.12 Q 107.16 270.16 108.44 270.16 Q 110.44 270.16 111.4 269.28 Q 111.8 268.88 112.04 268.88 Q 112.44 268.88 112.68 269.12 Q 112.92 269.36 112.92 269.76 Q 112.92 270.64 112.04 271.52002 Q 110.76 272.8 109.28 273.56 Q 107.8 274.32 106.520004 274.32 Q 102.840004 274.32 100.68 270.16 L 100.44 270.16 Q 97.8 272.32 95.4 273.32 Q 93 274.32 90.44 274.32 Z M 94.200005 270.47998 Q 95.8 270.47998 96.92 269.96 Q 98.04 269.44 98.92 268.56 Q 99.32 268.16 99.600006 267.47998 Q 99.880005 266.8 99.96 265.28 L 100.12 261.36 Q 100.2 260.47998 100.04 260.08002 Q 99.880005 259.68 99.4 259.68 Q 99.240005 259.68 98.840004 259.76 Q 98.44 259.84 97.8 260.08002 Q 93.56 261.59998 91.92 263.24 Q 90.28 264.88 90.28 266.24 Q 90.28 268.32 91.520004 269.4 Q 92.76 270.47998 94.200005 270.47998 Z " fill="black"/>
    <rect x="112.92" y="216.8" width="31.84" height="81.399994" stroke="blue" stroke-width="1" fill="none"/>
    <path d="M 122.28 274.32 Q 120.84 274.32 119.36 273.2 Q 117.88 272.08002 116.88 270.47998 Q 115.88 268.88 115.88 267.44 Q 115.88 264.88 117.24 263.44 Q 118.6 262 121.56 260.8 L 129.72 257.44 Q 131.31999 256.8 131.6 256.32 Q 131.88 255.84 131.95999 254.23999 L 132.12 249.12 Q 132.2 247.04 130.95999 245.51999 Q 129.72 244 127.399994 244 Q 126.2 244 125 244.4 Q 123.799995 244.8 123 245.44 Q 122.52 245.76 122.36 246.4 Q 122.2 247.04 122.2 247.76 Q 122.2 248.08 122.24 248.48 Q 122.28 248.88 122.28 249.2 Q 122.28 249.59999 121.28 250.28 Q 120.28 250.95999 119.04 251.48 Q 117.799995 252 117 252 Q 116.6 252 116.36 251.8 Q 116.119995 251.59999 116.119995 251.28 Q 116.119995 250 116.96 248.51999 Q 117.799995 247.04 119.32 245.76 Q 121.159996 244.08 123.32 242.79999 Q 125.479996 241.51999 127.56 240.8 Q 129.64 240.08 131.23999 240.08 Q 134.12 240.08 136 242.12 Q 137.88 244.16 137.8 247.2 L 137.4 266.4 Q 137.31999 268.08002 138.16 269.12 Q 139 270.16 140.28 270.16 Q 142.28 270.16 143.23999 269.28 Q 143.64 268.88 143.88 268.88 Q 144.28 268.88 144.51999 269.12 Q 144.76 269.36 144.76 269.76 Q 144.76 270.64 143.88 271.52002 Q 142.59999 272.8 141.12 273.56 Q 139.64 274.32 138.36 274.32 Q 134.68 274.32 132.52 270.16 L 132.28 270.16 Q 129.64 272.32 127.24 273.32 Q 124.84 274.32 122.28 274.32 Z M 126.04 270.47998 Q 127.64 270.47998 128.76 269.96 Q 129.88 269.44 130.76 268.56 Q 131.16 268.16 131.44 267.47998 Q 131.72 266.8 131.8 265.28 L 131.95999 261.36 Q 132.04 260.47998 131.88 260.08002 Q 131.72 259.68 131.23999 259.68 Q 131.08 259.68 130.68 259.76 Q 130.28 259.84 129.64 260.08002 Q 125.399994 261.59998 123.759995 263.24 Q 122.119995 264.88 122.119995 266.24 Q 122.119995 268.32 123.36 269.4 Q 124.6 270.47998 126.04 270.47998 Z " fill="black"/>
    <rect x="234.5" y="129" width="2.5" height="87.5" stroke="blue" stroke-width="1" fill="none"/>
    <rect x="234.5" y="129" width="2.5" height="87.5" fill="black"/>
    <rect x="234.5" y="116.5" width="32.5" height="25" stroke="blue" stroke-width="1" fill="none"/>
    <path d="M 234.5 132.4 Q 234.5 126.4 241.1 120.85 Q 247.7 115.3 254.6 115.3 Q 257.4 115.3 259.95 116 Q 262.5 116.7 264.8 119.2 Q 267.1 121.7 267.1 125.6 Q 267.1 131.1 260.4 136.9 Q 253.7 142.7 247 142.7 Q 244.2 142.7 241.65 142 Q 239.1 141.3 236.8 138.8 Q 234.5 136.3 234.5 132.4 Z " fill="black"/>
    <rect x="227.8" y="216.8" width="38.399998" height="81.399994" stroke="blue" stroke-width="1" fill="none"/>
    <path d="M 248.52 274.32 Q 246.76001 274.32 245 274 Q 243.24 273.68 241.64 273.28 Q 239.88 272.8 238.56 272.4 Q 237.24 272 236.84 272 Q 236.36 272 235.92 272.32 Q 235.48 272.64 235.08 273.03998 Q 234.68001 273.44 234.36 273.44 Q 234.04001 273.44 233.64 273.16 Q 233.24 272.88 233.24 272.47998 Q 233.24 271.76 233.52 270 Q 233.8 268.24 233.8 266.72 L 233.8 227.92 Q 233.8 225.84 232.76001 224.32 Q 231.72 222.8 230.12001 222.08 Q 229.8 221.92 229.44 221.64 Q 229.08 221.36 229.08 220.88 Q 229.08 220.48 229.40001 220.32 Q 229.72 220.16 230.04001 220.08 Q 231.08 219.84 232.88 219.2 Q 234.68001 218.56 236.28 217.92 Q 237.88 217.28 238.44 217.04 Q 238.92 216.8 239.16 216.8 Q 239.32 216.8 239.48 216.95999 Q 239.64 217.12 239.64 217.36 Q 239.64 217.68 239.52 220.04 Q 239.40001 222.4 239.40001 225.76 L 239.40001 242.16 Q 239.40001 243.68 239.56 244.2 Q 239.72 244.72 240.12 244.8 Q 242.6 242.72 245.88 241.4 Q 249.16 240.08 251.8 240.08 Q 255.88 240.08 259.12 242.16 Q 262.36 244.23999 264.28 247.8 Q 266.2 251.36 266.2 255.84 Q 266.2 261.28 263.96 265.47998 Q 261.72 269.68 257.76 272 Q 253.8 274.32 248.52 274.32 Z M 250.36 271.84 Q 253.4 271.84 255.6 269.96 Q 257.8 268.08002 259 264.84 Q 260.2 261.59998 260.2 257.59998 Q 260.2 254.48 259.04 251.2 Q 257.88 247.92 255.44 245.68 Q 253 243.44 249.16 243.44 Q 245.96 243.44 243.56 244.48 Q 241.16 245.51999 239.40001 247.12 L 239.40001 262.64 Q 239.40001 265.44 240.96 267.52002 Q 242.52 269.59998 245.04001 270.72 Q 247.56 271.84 250.36 271.84 Z " fill="black"/>
    <rect x="309.5" y="116.5" width="2.5" height="87.5" stroke="blue" stroke-width="1" fill="none"/>
    <rect x="309.5" y="116.5" width="2.5" height="87.5" fill="black"/>
    <rect x="309.5" y="104" width="32.5" height="25" stroke="blue" stroke-width="1" fill="none"/>
    <path d="M 309.5 119.9 Q 309.5 113.9 316.1 108.35 Q 322.7 102.8 329.6 102.8 Q 332.4 102.8 334.95 103.5 Q 337.5 104.2 339.8 106.7 Q 342.1 109.2 342.1 113.1 Q 342.1 118.6 335.4 124.4 Q 328.7 130.2 322 130.2 Q 319.2 130.2 316.65 129.5 Q 314.1 128.8 311.8 126.3 Q 309.5 123.8 309.5 119.9 Z " fill="black"/>
    <ellipse cx="314.5" cy="262.5" rx="5" ry="5" stroke="gray" stroke-width="1" fill="none"/>
    <rect x="369.5" y="79" width="2.5" height="87.5" stroke="blue" stroke-width="1" fill="none"/>
    <rect x="369.5" y="79" width="2.5" height="87.5" fill="black"/>
    <rect x="369.5" y="66.5" width="32.5" height="25" stroke="blue" stroke-width="1" fill="none"/>
    <path d="M 369.5 82.4 Q 369.5 76.4 376.1 70.85 Q 382.7 65.3 389.6 65.3 Q 392.4 65.3 394.95 66 Q 397.5 66.7 399.8 69.2 Q 402.1 71.7 402.1 75.6 Q 402.1 81.1 395.4 86.9 Q 388.7 92.7 382 92.7 Q 379.2 92.7 376.65 92 Q 374.1 91.3 371.8 88.8 Q 369.5 86.3 369.5 82.4 Z " fill="black"/>
    <ellipse cx="374.5" cy="262.5" rx="5" ry="5" stroke="gray" stroke-width="1" fill="none"/>
    <rect x="462.5" y="91.5" width="2.5" height="100" stroke="blue" stroke-width="1" fill="none"/>
    <rect x="462.5" y="91.5" width="2.5" height="100" fill="black"/>
    <rect x="462.5" y="79" width="32.5" height="25" stroke="blue" stroke-width="1" fill="none"/>
    <path d="M 462.5 94.9 Q 462.5 88.9 469.1 83.35 Q 475.7 77.8 482.6 77.8 Q 485.4 77.8 487.95 78.5 Q 490.5 79.2 492.8 81.7 Q 495.1 84.2 495.1 88.1 Q 495.1 93.6 488.4 99.4 Q 481.7 105.2 475 105.2 Q 472.2 105.2 469.65 104.5 Q 467.1 103.8 464.8 101.3 Q 462.5 98.8 462.5 94.9 Z " fill="black"/>
    <rect x="430" y="91.5" width="32.5" height="25" stroke="blue" stroke-width="1" fill="none"/>
    <path d="M 430 107.4 Q 430 101.4 436.6 95.85 Q 443.2 90.3 450.1 90.3 Q 452.9 90.3 455.45 91 Q 458 91.7 460.3 94.2 Q 462.6 96.7 462.6 100.6 Q 462.6 106.1 455.9 111.9 Q 449.2 117.7 442.5 117.7 Q 439.7 117.7 437.15 117 Q 434.6 116.3 432.3 113.8 Q 430 111.3 430 107.4 Z " fill="black"/>
    <rect x="402.5" y="54" width="27.5" height="75" stroke="blue" stroke-width="1" fill="none"/>
    <path d="M 407.1 112.6 Q 407.1 113.8 408.1 114.2 Q 409.3 114.7 410.1 113.9 Q 416.7 107.9 416.7 100.3 Q 416.7 97.6 415.55 95.6 Q 414.4 93.6 412.4 93.6 Q 410.2 93.6 408.8 95.5 Q 407.4 97.4 407.3 99.9 L 407.1 112.6 Z M 409.9 90.5 Q 414.1 88.4 416.8 88.4 Q 420.6 88.4 422.9 91.4 Q 425.2 94.4 425.2 98.6 Q 425.2 101.5 424.35 103.85 Q 423.5 106.2 421.7 108.15 Q 419.9 110.1 418.35 111.4 Q 416.8 112.7 414.3 114.55 Q 411.8 116.4 410.5 117.5 Q 410 117.9 409.2 119 Q 408.4 120.1 407.65 120.7 Q 406.9 121.3 406 121.3 Q 405 121.3 404.35 120.6 Q 403.7 119.9 403.7 118.8 L 402.5 58.3 Q 403.8 57.5 405.2 57.5 Q 406.6 57.5 407.9 58.3 L 407.3 88.9 Q 407.3 89.9 408.1 90.4 Q 409 91 409.9 90.5 Z " fill="black"/>
    <ellipse cx="467.5" cy="262.5" rx="5" ry="5" stroke="gray" stroke-width="1" fill="none"/>
    <rect x="537.5" y="129" width="2.5" height="87.5" stroke="blue" stroke-width="1" fill="none"/>
    <rect x="537.5" y="129" width="2.5" height="87.5" fill="black"/>
    <rect x="537.5" y="116.5" width="32.5" height="25" stroke="blue" stroke-width="1" fill="none"/>
    <path d="M 537.5 132.4 Q 537.5 126.4 544.1 120.85 Q 550.7 115.3 557.6 115.3 Q 560.4 115.3 562.95 116 Q 565.5 116.7 567.8 119.2 Q 570.1 121.7 570.1 125.6 Q 570.1 131.1 563.4 136.9 Q 556.7 142.7 550 142.7 Q 547.2 142.7 544.65 142 Q 542.1 141.3 539.8 138.8 Q 537.5 136.3 537.5 132.4 Z " fill="black"/>
    <rect x="507.5" y="91.5" width="30.000002" height="75" stroke="blue" stroke-width="1" fill="none"/>
    <path d="M 529.1 119.4 L 529.1 131.6 Q 529.1 132.4 529.6 132.9 Q 530.1 133.4 530.9 133.4 Q 531.2 133.4 531.5 133.3 L 532.3 133 Q 532.6 132.9 533 132.9 Q 533.8 132.9 534.4 133.5 Q 535 134.1 535 134.9 L 535 140.9 Q 535 142.2 533.7 142.7 L 530.3 144 Q 529.1 144.5 529.1 145.6 L 529.1 160.2 Q 529.1 161 528.55 161.55 Q 528 162.1 527.3 162.1 Q 526.5 162.1 525.95 161.55 Q 525.4 161 525.4 160.2 L 525.4 148.3 Q 525.4 147.5 524.85 147 Q 524.3 146.5 523.6 146.5 Q 523.2 146.5 522.9 146.6 L 518.3 148.4 Q 517.1 148.8 517.1 150 L 517.1 164.6 Q 517.1 165.4 516.5 165.95 Q 515.9 166.5 515.2 166.5 Q 514.5 166.5 513.95 165.95 Q 513.4 165.4 513.4 164.6 L 513.4 152.7 Q 513.4 151.9 512.85 151.4 Q 512.3 150.9 511.6 150.9 Q 511.3 150.9 511 151 L 510.2 151.3 Q 510 151.4 509.5 151.4 Q 508.7 151.4 508.1 150.8 Q 507.5 150.2 507.5 149.4 L 507.5 143.4 Q 507.5 142 508.8 141.5 L 512.2 140.3 Q 513.4 140 513.4 138.6 L 513.4 126.4 Q 513.4 125.6 512.85 125.1 Q 512.3 124.6 511.6 124.6 Q 511.3 124.6 511.1 124.7 L 510.2 125 Q 510 125.1 509.5 125.1 Q 508.7 125.1 508.1 124.5 Q 507.5 123.9 507.5 123.1 L 507.5 117.1 Q 507.5 115.8 508.8 115.3 L 512.3 114 Q 513.4 113.5 513.4 112.4 L 513.4 97.8 Q 513.4 97 513.95 96.45 Q 514.5 95.899994 515.2 95.899994 Q 515.9 95.899994 516.5 96.45 Q 517.1 97 517.1 97.8 L 517.1 109.7 Q 517.1 110.5 517.65 111 Q 518.2 111.5 519 111.5 Q 519.3 111.5 519.6 111.4 L 524.2 109.6 Q 525.4 109.1 525.4 107.9 L 525.4 93.399994 Q 525.4 92.6 525.95 92.05 Q 526.5 91.5 527.3 91.5 Q 528 91.5 528.55 92.05 Q 529.1 92.6 529.1 93.399994 L 529.1 105.4 Q 529.1 106.1 529.6 106.6 Q 530.1 107.1 530.8 107.1 Q 531.1 107.1 531.5 107 L 532.3 106.7 Q 532.5 106.6 533 106.6 Q 533.8 106.6 534.4 107.2 Q 535 107.8 535 108.6 L 535 114.6 Q 535 116 533.7 116.5 L 530.3 117.7 Q 529.1 118 529.1 119.4 Z M 525.4 134.2 L 525.4 122.1 Q 525.4 121.4 524.85 120.85 Q 524.3 120.3 523.6 120.3 Q 523.3 120.3 523 120.4 L 518.3 122.1 Q 517.1 122.6 517.1 123.8 L 517.1 135.9 Q 517.1 136.7 517.6 137.2 Q 518.1 137.7 518.9 137.7 Q 519.2 137.7 519.5 137.6 L 524.2 135.9 Q 525.4 135.4 525.4 134.2 Z " fill="black"/>
    <ellipse cx="542.5" cy="262.5" rx="5" ry="5" stroke="gray" stroke-width="1" fill="none"/>
    <rect x="612.5" y="111.5" width="10" height="10" stroke="orange" stroke-width="1" fill="none"/>
    <path d="M 612.5 167.7 L 612.5 165.2 L 712.5 165.2 L 712.5 167.7 L 612.5 167.7 Z M 612.5 142.7 L 612.5 140.2 L 712.5 140.2 L 712.5 142.7 L 612.5 142.7 Z M 612.5 117.7 L 612.5 115.2 L 712.5 115.2 L 712.5 117.7 L 612.5 117.7 Z M 612.5 92.7 L 612.5 90.2 L 712.5 90.2 L 712.5 92.7 L 612.5 92.7 Z M 612.5 67.7 L 612.5 65.2 L 712.5 65.2 L 712.5 67.7 L 612.5 67.7 Z " fill="orange"/>
    <rect x="612.5" y="252.5" width="10" height="10" stroke="orange" stroke-width="1" fill="none"/>
    <path d="M 612.5 308.7 L 612.5 306.2 L 712.5 306.2 L 712.5 308.7 L 612.5 308.7 Z M 612.5 283.7 L 612.5 281.2 L 712.5 281.2 L 712.5 283.7 L 612.5 283.7 Z M 612.5 258.7 L 612.5 256.2 L 712.5 256.2 L 712.5 258.7 L 612.5 258.7 Z M 612.5 233.7 L 612.5 231.2 L 712.5 231.2 L 712.5 233.7 L 612.5 233.7 Z M 612.5 208.7 L 612.5 206.2 L 712.5 206.2 L 712.5 208.7 L 612.5 208.7 Z " fill="orange"/>
    <rect x="0" y="0" width="712.5" height="308.7" stroke="black" stroke-width="1" fill="none"/>
</svg>
