<svg xmlns="http://www.w3.org/2000/svg" xmlns:xlink="http://www.w3.org/1999/xlink" viewBox="0 0 1018.69995 127.549995">
    <line x1="1.35" y1="1.3499985" x2="1017.35" y2="1.3499985" stroke="black" stroke-width="2.7"/>
    <line x1="1.35" y1="26.349998" x2="1017.35" y2="26.349998" stroke="black" stroke-width="2.7"/>
    <line x1="1.35" y1="51.35" x2="1017.35" y2="51.35" stroke="black" stroke-width="2.7"/>
    <line x1="1.35" y1="76.35" x2="1017.35" y2="76.35" stroke="black" stroke-width="2.7"/>
    <line x1="1.35" y1="101.35" x2="1017.35" y2="101.35" stroke="black" stroke-width="2.7"/>
    <rect x="1.35" y="46.35" width="10" height="10" stroke="orange" stroke-width="1" fill="none"/>
    <path d="M 1.35 117.25 Q 1.35 111.25 7.95 105.7 Q 14.55 100.149994 21.45 100.149994 Q 24.25 100.149994 26.800001 100.85 Q 29.35 101.55 31.650002 104.05 Q 33.95 106.55 33.95 110.45 Q 33.95 115.95 27.25 121.75 Q 20.550001 127.549995 13.85 127.549995 Q 11.05 127.549995 8.5 126.85 Q 5.95 126.15 3.65 123.65 Q 1.35 121.15 1.35 117.25 Z " fill="black"/>
    <path d="M 106.35 117.25 Q 106.35 111.25 112.95 105.7 Q 119.549995 100.149994 126.45 100.149994 Q 129.25 100.149994 131.8 100.85 Q 134.35 101.55 136.65001 104.05 Q 138.95001 106.55 138.95001 110.45 Q 138.95001 115.95 132.25 121.75 Q 125.549995 127.549995 118.85 127.549995 Q 116.049995 127.549995 113.5 126.85 Q 110.95 126.15 108.65 123.65 Q 106.35 121.15 106.35 117.25 Z " fill="black"/>
    <path d="M 181.35 117.25 Q 181.35 111.25 187.95001 105.7 Q 194.55 100.149994 201.45001 100.149994 Q 204.25 100.149994 206.8 100.85 Q 209.35 101.55 211.65001 104.05 Q 213.95001 106.55 213.95001 110.45 Q 213.95001 115.95 207.25 121.75 Q 200.55 127.549995 193.85 127.549995 Q 191.05 127.549995 188.5 126.85 Q 185.95001 126.15 183.65001 123.65 Q 181.35 121.15 181.35 117.25 Z " fill="black"/>
    <path d="M 256.35 117.25 Q 256.35 111.25 262.95 105.7 Q 269.55002 100.149994 276.45 100.149994 Q 279.25 100.149994 281.80002 100.85 Q 284.35 101.55 286.65 104.05 Q 288.95 106.55 288.95 110.45 Q 288.95 115.95 282.25 121.75 Q 275.55002 127.549995 268.85 127.549995 Q 266.05002 127.549995 263.5 126.85 Q 260.95 126.15 258.65 123.65 Q 256.35 121.15 256.35 117.25 Z " fill="black"/>
    <path d="M 316.35 117.25 Q 316.35 111.25 322.95 105.7 Q 329.55002 100.149994 336.45 100.149994 Q 339.25 100.149994 341.80002 100.85 Q 344.35 101.55 346.65 104.05 Q 348.95 106.55 348.95 110.45 Q 348.95 115.95 342.25 121.75 Q 335.55002 127.549995 328.85 127.549995 Q 326.05002 127.549995 323.5 126.85 Q 320.95 126.15 318.65 123.65 Q 316.35 121.15 316.35 117.25 Z " fill="black"/>
    <path d="M 376.35 117.25 Q 376.35 111.25 382.95 105.7 Q 389.55002 100.149994 396.45 100.149994 Q 399.25 100.149994 401.80002 100.85 Q 404.35 101.55 406.65 104.05 Q 408.95 106.55 408.95 110.45 Q 408.95 115.95 402.25 121.75 Q 395.55002 127.549995 388.85 127.549995 Q 386.05002 127.549995 383.5 126.85 Q 380.95 126.15 378.65 123.65 Q 376.35 121.15 376.35 117.25 Z " fill="black"/>
    <path d="M 436.35 117.25 Q 436.35 111.25 442.95 105.7 Q 449.55002 100.149994 456.45 100.149994 Q 459.25 100.149994 461.80002 100.85 Q 464.35 101.55 466.65 104.05 Q 468.95 106.55 468.95 110.45 Q 468.95 115.95 462.25 121.75 Q 455.55002 127.549995 448.85 127.549995 Q 446.05002 127.549995 443.5 126.85 Q 440.95 126.15 438.65 123.65 Q 436.35 121.15 436.35 117.25 Z " fill="black"/>
    <path d="M 504.35 104.75 Q 504.35 98.75 510.95 93.2 Q 517.55 87.649994 524.44995 87.649994 Q 527.25 87.649994 529.8 88.35 Q 532.35 89.05 534.64996 91.55 Q 536.94995 94.05 536.94995 97.95 Q 536.94995 103.45 530.25 109.25 Q 523.55 115.05 516.85 115.05 Q 514.05 115.05 511.5 114.35 Q 508.95 113.649994 506.65 111.149994 Q 504.35 108.649994 504.35 104.75 Z " fill="black"/>
    <path d="M 609.35 104.75 Q 609.35 98.75 615.94995 93.2 Q 622.55 87.649994 629.44995 87.649994 Q 632.25 87.649994 634.8 88.35 Q 637.35 89.05 639.64996 91.55 Q 641.94995 94.05 641.94995 97.95 Q 641.94995 103.45 635.25 109.25 Q 628.55 115.05 621.85 115.05 Q 619.05 115.05 616.5 114.35 Q 613.94995 113.649994 611.64996 111.149994 Q 609.35 108.649994 609.35 104.75 Z " fill="black"/>
    <path d="M 684.35 104.75 Q 684.35 98.75 690.94995 93.2 Q 697.55 87.649994 704.44995 87.649994 Q 707.25 87.649994 709.8 88.35 Q 712.35 89.05 714.64996 91.55 Q 716.94995 94.05 716.94995 97.95 Q 716.94995 103.45 710.25 109.25 Q 703.55 115.05 696.85 115.05 Q 694.05 115.05 691.5 114.35 Q 688.94995 113.649994 686.64996 111.149994 Q 684.35 108.649994 684.35 104.75 Z " fill="black"/>
    <path d="M 759.35 104.75 Q 759.35 98.75 765.94995 93.2 Q 772.55 87.649994 779.44995 87.649994 Q 782.25 87.649994 784.8 88.35 Q 787.35 89.05 789.64996 91.55 Q 791.94995 94.05 791.94995 97.95 Q 791.94995 103.45 785.25 109.25 Q 778.55 115.05 771.85 115.05 Q 769.05 115.05 766.5 114.35 Q 763.94995 113.649994 761.64996 111.149994 Q 759.35 108.649994 759.35 104.75 Z " fill="black"/>
    <path d="M 819.35 104.75 Q 819.35 98.75 825.94995 93.2 Q 832.55 87.649994 839.44995 87.649994 Q 842.25 87.649994 844.8 88.35 Q 847.35 89.05 849.64996 91.55 Q 851.94995 94.05 851.94995 97.95 Q 851.94995 103.45 845.25 109.25 Q 838.55 115.05 831.85 115.05 Q 829.05 115.05 826.5 114.35 Q 823.94995 113.649994 821.64996 111.149994 Q 819.35 108.649994 819.35 104.75 Z " fill="black"/>
    <path d="M 879.35 104.75 Q 879.35 98.75 885.94995 93.2 Q 892.55 87.649994 899.44995 87.649994 Q 902.25 87.649994 904.8 88.35 Q 907.35 89.05 909.64996 91.55 Q 911.94995 94.05 911.94995 97.95 Q 911.94995 103.45 905.25 109.25 Q 898.55 115.05 891.85 115.05 Q 889.05 115.05 886.5 114.35 Q 883.94995 113.649994 881.64996 111.149994 Q 879.35 108.649994 879.35 104.75 Z " fill="black"/>
    <path d="M 939.35 104.75 Q 939.35 98.75 945.94995 93.2 Q 952.55 87.649994 959.44995 87.649994 Q 962.25 87.649994 964.8 88.35 Q 967.35 89.05 969.64996 91.55 Q 971.94995 94.05 971.94995 97.95 Q 971.94995 103.45 965.25 109.25 Q 958.55 115.05 951.85 115.05 Q 949.05 115.05 946.5 114.35 Q 943.94995 113.649994 941.64996 111.149994 Q 939.35 108.649994 939.35 104.75 Z " fill="black"/>
    <rect x="1007.35" y="46.35" width="10" height="10" stroke="orange" stroke-width="1" fill="none"/>
    <line x1="32.35" y1="24.564285" x2="32.35" y2="109.85" stroke="black" stroke-width="3"/>
    <line x1="137.35" y1="24.564285" x2="137.35" y2="109.85" stroke="black" stroke-width="3"/>
    <line x1="212.35" y1="24.564285" x2="212.35" y2="109.85" stroke="black" stroke-width="3"/>
    <line x1="135.85" y1="24.564285" x2="213.85" y2="24.564285" stroke="blue" stroke-width="2"/>
    <path d="M 135.85 24.564285 L 213.85 24.564285 L 213.85 39.564285 L 135.85 39.564285 " fill="black"/>
    <line x1="287.35" y1="24.564285" x2="287.35" y2="109.85" stroke="black" stroke-width="3"/>
    <line x1="467.35" y1="24.564285" x2="467.35" y2="109.85" stroke="black" stroke-width="3"/>
    <line x1="347.35" y1="24.564285" x2="347.35" y2="109.85" stroke="black" stroke-width="3"/>
    <line x1="407.35" y1="24.564285" x2="407.35" y2="109.85" stroke="black" stroke-width="3"/>
    <line x1="285.85" y1="24.564285" x2="468.85" y2="24.564285" stroke="blue" stroke-width="2"/>
    <path d="M 285.85 24.564285 L 468.85 24.564285 L 468.85 39.564285 L 285.85 39.564285 " fill="black"/>
    <line x1="287.35" y1="49.564285" x2="467.35" y2="49.564285" stroke="blue" stroke-width="2"/>
    <path d="M 287.35 49.564285 L 467.35 49.564285 L 467.35 64.564285 L 287.35 64.564285 " fill="black"/>
    <line x1="535.35" y1="12.064285" x2="535.35" y2="97.35" stroke="black" stroke-width="3"/>
    <line x1="640.35" y1="12.064285" x2="640.35" y2="97.35" stroke="black" stroke-width="3"/>
    <line x1="715.35" y1="12.064285" x2="715.35" y2="97.35" stroke="black" stroke-width="3"/>
    <line x1="638.85" y1="12.064285" x2="716.85" y2="12.064285" stroke="blue" stroke-width="2"/>
    <path d="M 638.85 12.064285 L 716.85 12.064285 L 716.85 27.064285 L 638.85 27.064285 " fill="black"/>
    <line x1="790.35" y1="12.064285" x2="790.35" y2="97.35" stroke="black" stroke-width="3"/>
    <line x1="970.35" y1="12.064285" x2="970.35" y2="97.35" stroke="black" stroke-width="3"/>
    <line x1="850.35" y1="12.064285" x2="850.35" y2="97.35" stroke="black" stroke-width="3"/>
    <line x1="910.35" y1="12.064285" x2="910.35" y2="97.35" stroke="black" stroke-width="3"/>
    <line x1="788.85" y1="12.064285" x2="971.85" y2="12.064285" stroke="blue" stroke-width="2"/>
    <path d="M 788.85 12.064285 L 971.85 12.064285 L 971.85 27.064285 L 788.85 27.064285 " fill="black"/>
    <line x1="790.35" y1="37.064285" x2="970.35" y2="37.064285" stroke="blue" stroke-width="2"/>
    <path d="M 790.35 37.064285 L 970.35 37.064285 L 970.35 52.064285 L 790.35 52.064285 " fill="black"/>
    <rect x="0" y="0" width="1018.69995" height="127.549995" stroke="black" stroke-width="1" fill="none"/>
</svg>
