<svg xmlns="http://www.w3.org/2000/svg" xmlns:xlink="http://www.w3.org/1999/xlink" width="236.925rem" height="60.300003rem" viewBox="0 0 789.75 201">
	<line x1="1.25" y1="50.5" x2="788.5" y2="50.5" stroke="black" stroke-width="2.5" />
	<line x1="1.25" y1="75.5" x2="788.5" y2="75.5" stroke="black" stroke-width="2.5" />
	<line x1="1.25" y1="100.5" x2="788.5" y2="100.5" stroke="black" stroke-width="2.5" />
	<line x1="1.25" y1="125.5" x2="788.5" y2="125.5" stroke="black" stroke-width="2.5" />
	<line x1="1.25" y1="150.5" x2="788.5" y2="150.5" stroke="black" stroke-width="2.5" />
	<rect x="1.25" y="0.5" width="5" height="200" stroke="orange" stroke-width="1" fill="none" />
	<rect x="6.25" y="10.5" width="74" height="186" stroke="orange" stroke-width="1" fill="none" />
	<path d="M 31.050001 69 Q 28.75 61.7 27.85 56 Q 27.050001 51.199997 27.050001 44.799995 Q 27.050001 42.6 27.15 40.4 Q 27.550001 30.900002 31.050001 22.949997 Q 34.550003 15 41.55 10.799995 Q 42.05 10.5 42.850002 10.5 Q 43.55 10.5 44.05 11 Q 49.65 16.599998 52.65 25.299995 Q 55.65 34 55.65 42.9 Q 55.65 53.199997 51.25 63.1 Q 47.05 73 39.45 80.6 Q 38.850002 81.2 39.05 82.2 L 43.05 98.2 Q 43.350002 99.8 45.05 99.6 Q 46.65 99.4 48.15 99.4 Q 53.95 99.4 58.65 101.7 Q 63.350002 104 66.25 107.7 Q 69.15 111.4 70.700005 115.85 Q 72.25 120.3 72.25 125 Q 72.25 133.6 67.45 140.55 Q 62.65 147.5 55.95 149.7 Q 54.55 150.2 54.850002 151.8 Q 57.350002 163.6 57.45 171.7 Q 57.45 174.8 57.05 177.8 Q 56.25 184.7 51.05 189.9 Q 45.850002 195.1 38.65 195.1 Q 29.85 195.1 23.75 189.8 Q 17.650002 184.5 17.650002 175.9 Q 17.650002 171.5 20.75 168.3 Q 23.85 165.1 28.050001 165.1 Q 32.35 165.1 35.300003 168.15 Q 38.25 171.2 38.25 175.4 Q 38.25 179 35.85 181.7 Q 33.45 184.5 30.050001 184.8 Q 28.85 184.9 28.45 186 Q 28.050001 187.1 29.25 188 Q 32.85 190.8 38.050003 190.8 Q 43.75 190.8 47.9 186.7 Q 52.05 182.6 52.75 177.4 Q 53.25 173.8 53.25 170.2 Q 53.25 162.4 50.850002 152.9 Q 50.45 151.2 48.65 151.4 Q 44.65 151.9 41.25 151.9 Q 26.45 151.9 16.35 142.6 Q 6.25 133.3 6.25 117.3 Q 6.25 112.4 7.4 107.65 Q 8.55 102.9 10 99.45 Q 11.450001 96 14.5 91.45 Q 17.55 86.899994 19.400002 84.5 Q 21.25 82.1 25.25 77.35 Q 29.25 72.6 30.75 70.7 Q 31.35 70 31.050001 69 Z M 46.65 114.7 L 53.15 144.2 Q 53.45 145.5 54.95 145.5 Q 55.350002 145.5 55.65 145.4 Q 59.75 143.7 62.45 138.8 Q 65.15 133.9 65.15 129.1 Q 65.15 122.1 61.05 117.3 Q 56.850002 112.4 48.45 112.4 Q 47.75 112.4 47.2 112.95 Q 46.65 113.5 46.65 114.2 Q 46.55 114.5 46.65 114.7 Z M 32.85 86.899994 Q 31.25 88.7 28.1 92.05 Q 24.95 95.4 23.4 97.15 Q 21.85 98.9 19.6 102.1 Q 17.35 105.3 16.25 108 Q 15.150001 110.7 14.3 114.6 Q 13.450001 118.5 13.450001 122.9 Q 13.450001 129 17.2 134.7 Q 20.95 140.4 27.5 144 Q 34.050003 147.6 41.55 147.6 Q 44.25 147.6 47.55 147.3 Q 48.350002 147.2 48.850002 146.55 Q 49.350002 145.9 49.15 145.1 L 42.65 115.2 Q 42.350002 113.8 40.75 113.8 Q 40.45 113.8 40.05 113.9 Q 35.45 115.6 33.550003 118.7 Q 31.65 121.8 31.65 126.5 Q 31.65 132 37.65 136 Q 38.350002 136.5 38.350002 137.5 Q 38.350002 138.3 37.7 139 Q 37.050003 139.7 36.15 139.7 Q 35.65 139.7 35.25 139.5 Q 29.550001 136.5 26.800001 131.35 Q 24.050001 126.2 24.050001 120.5 Q 24.050001 115 28 109.15 Q 31.95 103.3 37.85 101.1 Q 39.350002 100.5 39.05 99 L 36.050003 87.7 Q 35.85 86.6 34.65 86.399994 Q 33.45 86.2 32.85 86.899994 Z M 49.65 28.699997 Q 48.850002 26.099998 46.95 26.099998 Q 46.350002 26.099998 45.850002 26.400002 Q 39.45 30.199997 35.7 37.1 Q 31.95 44 31.95 51.699997 Q 31.95 56.699997 34.050003 64 Q 34.35 65.1 35.550003 65.3 Q 36.550003 65.399994 37.25 64.6 Q 37.550003 64.2 40.100002 61.049995 Q 42.65 57.9 43.45 56.85 Q 44.25 55.799995 46.15 52.85 Q 48.05 49.9 48.8 47.949997 Q 49.55 46 50.25 43.1 Q 50.95 40.199997 50.95 37.299995 Q 50.95 33.1 49.65 28.699997 Z " fill="black" />
	<rect x="80.25" y="50.5" width="10" height="100" stroke="orange" stroke-width="1" fill="none" />
	<rect x="90.25" y="13" width="30.000002" height="150" stroke="orange" stroke-width="1" fill="none" />
	<path d="M 111.85 40.9 L 111.85 53.1 Q 111.85 53.9 112.35 54.4 Q 112.85 54.9 113.65 54.9 Q 113.95 54.9 114.25 54.8 L 115.05 54.5 Q 115.35 54.4 115.75 54.4 Q 116.55 54.4 117.15 55 Q 117.75 55.6 117.75 56.4 L 117.75 62.4 Q 117.75 63.7 116.45 64.2 L 113.05 65.5 Q 111.85 66 111.85 67.1 L 111.85 81.7 Q 111.85 82.5 111.3 83.05 Q 110.75 83.600006 110.05 83.600006 Q 109.25 83.600006 108.7 83.05 Q 108.15 82.5 108.15 81.7 L 108.15 69.8 Q 108.15 69 107.6 68.5 Q 107.05 68 106.35 68 Q 105.95 68 105.65 68.1 L 101.05 69.9 Q 99.85 70.3 99.85 71.5 L 99.85 86.100006 Q 99.85 86.9 99.25 87.45 Q 98.65 88 97.95 88 Q 97.25 88 96.7 87.45 Q 96.15 86.9 96.15 86.100006 L 96.15 74.2 Q 96.15 73.4 95.6 72.9 Q 95.05 72.4 94.35 72.4 Q 94.05 72.4 93.75 72.5 L 92.95 72.8 Q 92.75 72.9 92.25 72.9 Q 91.45 72.9 90.85 72.3 Q 90.25 71.7 90.25 70.9 L 90.25 64.9 Q 90.25 63.5 91.55 63 L 94.95 61.8 Q 96.15 61.5 96.15 60.1 L 96.15 47.9 Q 96.15 47.1 95.6 46.6 Q 95.05 46.1 94.35 46.1 Q 94.05 46.1 93.85 46.2 L 92.95 46.5 Q 92.75 46.6 92.25 46.6 Q 91.45 46.6 90.85 46 Q 90.25 45.4 90.25 44.6 L 90.25 38.6 Q 90.25 37.3 91.55 36.8 L 95.05 35.5 Q 96.15 35 96.15 33.9 L 96.15 19.300003 Q 96.15 18.5 96.7 17.949997 Q 97.25 17.399994 97.95 17.399994 Q 98.65 17.399994 99.25 17.949997 Q 99.85 18.5 99.85 19.300003 L 99.85 31.199997 Q 99.85 32 100.4 32.5 Q 100.95 33 101.75 33 Q 102.05 33 102.35 32.9 L 106.95 31.099998 Q 108.15 30.599998 108.15 29.400002 L 108.15 14.899994 Q 108.15 14.099998 108.7 13.550003 Q 109.25 13 110.05 13 Q 110.75 13 111.3 13.550003 Q 111.85 14.099998 111.85 14.899994 L 111.85 26.900002 Q 111.85 27.599998 112.35 28.099998 Q 112.85 28.599998 113.55 28.599998 Q 113.85 28.599998 114.25 28.5 L 115.05 28.199997 Q 115.25 28.099998 115.75 28.099998 Q 116.55 28.099998 117.15 28.699997 Q 117.75 29.300003 117.75 30.099998 L 117.75 36.1 Q 117.75 37.5 116.45 38 L 113.05 39.2 Q 111.85 39.5 111.85 40.9 Z M 108.15 55.7 L 108.15 43.6 Q 108.15 42.9 107.6 42.35 Q 107.05 41.8 106.35 41.8 Q 106.05 41.8 105.75 41.9 L 101.05 43.6 Q 99.85 44.1 99.85 45.3 L 99.85 57.4 Q 99.85 58.2 100.35 58.7 Q 100.85 59.2 101.65 59.2 Q 101.95 59.2 102.25 59.1 L 106.95 57.4 Q 108.15 56.9 108.15 55.7 Z " fill="black" />
	<rect x="120.25" y="50.5" width="10" height="100" stroke="orange" stroke-width="1" fill="none" />
	<rect x="130.25" y="25.5" width="42.5" height="150" stroke="orange" stroke-width="1" fill="none" />
	<path d="M 161.85 140.1 Q 162.15 143.6 164.05 145.95 Q 165.95 148.3 168.95 148.2 Q 170.15 148.1 170.15 149.3 Q 170.15 150.5 168.95 150.5 Q 166.75 150.5 162.4 149.9 Q 158.05 149.3 155.85 149.3 Q 153.65 149.3 149.3 149.9 Q 144.95 150.5 142.75 150.5 Q 141.55 150.5 141.55 149.3 Q 141.55 148.2 142.75 148.2 Q 145.75 148.2 147.85 145.8 Q 149.85 143.3 150.05 139.9 Q 150.15 139.2 149.55 138.65 Q 148.95 138.1 148.15 138.1 L 133.35 138.1 Q 131.75 138.1 131.05 137.3 Q 130.25 136.5 130.25 135.7 Q 130.25 135.3 130.45 135.2 Q 144.25 119.1 144.25 102.1 Q 144.25 101.4 144.65 100.95 Q 145.05 100.5 145.55 100.5 L 145.85 100.5 Q 150.15 101.8 152.95 101.85 Q 155.75 101.9 160.05 100.5 Q 160.25 100.5 160.55 100.5 Q 161.35 100.5 161.85 101.1 Q 162.25 101.5 161.75 102.1 L 135.95 132.1 Q 135.55 132.6 135.55 133.4 Q 135.55 134.1 136 134.6 Q 136.45 135.1 137.25 135.2 L 148.25 135.2 Q 149.05 135.2 149.55 134.65 Q 150.05 134.1 150.05 133.3 L 150.05 122.1 Q 150.05 120.5 150.85 119.9 Q 155.15 117.3 156.85 114.9 Q 157.85 113.7 159.55 109.9 Q 159.85 109.3 160.45 109.3 Q 160.95 109.3 161.35 109.7 Q 161.75 110.1 161.75 110.7 L 161.75 133.3 Q 161.75 134.1 162.25 134.6 Q 162.75 135.1 163.55 135.2 L 168.95 135.2 Q 169.65 135.2 170.05 135.6 Q 170.45 136 170.45 136.55 Q 170.45 137.1 170.05 137.6 Q 169.65 138.1 168.95 138.1 L 163.65 138.1 Q 162.75 138.1 162.25 138.75 Q 161.75 139.4 161.85 140.1 Z M 147.15 87.2 Q 150.75 88.2 153.65 90.3 Q 156.85 92.6 160.25 92.6 Q 163.95 92.6 164.65 89.7 Q 164.95 88.8 165.75 88.8 Q 166.95 88.8 166.95 90 Q 166.95 94.6 162.2 97.55 Q 157.45 100.5 153.15 100.5 Q 147.25 100.5 143.55 96.1 Q 141.75 93.9 138.75 93.9 Q 136.35 93.9 134.55 95.4 Q 132.75 96.9 132.55 99.4 Q 132.35 100.5 131.45 100.5 Q 130.25 100.5 130.25 99.4 Q 130.25 95.3 132 92 Q 133.75 88.7 136.35 86.65 Q 138.95 84.6 142 82.35 Q 145.05 80.1 147.65 78 Q 150.25 75.9 152 72.55 Q 153.75 69.2 153.75 65 Q 153.75 59.9 152.05 56.35 Q 150.35 52.8 146.75 52.8 Q 144.65 52.8 143.15 53.8 Q 141.65 54.8 141.65 56.5 Q 141.65 57.9 143.4 59.9 Q 145.15 61.9 145.15 63.3 Q 145.15 66.2 143.15 68.2 Q 141.15 70.2 138.35 70.2 Q 135.45 70.2 133.45 68.15 Q 131.45 66.1 131.45 63.3 Q 131.45 57.699997 135.95 54.1 Q 140.45 50.5 146.75 50.5 Q 154.25 50.5 159.85 54.55 Q 165.45 58.6 165.45 65 Q 165.45 67 165.15 68.7 Q 164.85 70.4 164.1 71.85 Q 163.35 73.3 162.7 74.4 Q 162.05 75.5 160.6 76.6 Q 159.15 77.7 158.4 78.35 Q 157.65 79 155.65 79.95 Q 153.65 80.9 152.9 81.25 Q 152.15 81.6 149.85 82.55 Q 147.55 83.5 146.95 83.8 Q 145.65 84.4 145.85 85.8 Q 146.05 87 147.15 87.2 Z " fill="black" />
	<rect x="173.25" y="50.5" width="10" height="100" stroke="orange" stroke-width="1" fill="none" />
	<rect x="183.25" y="25.5" width="42.5" height="150" stroke="orange" stroke-width="1" fill="none" />
	<path d="M 219.85 140.1 Q 220.15 143.6 222.05 145.95 Q 223.95 148.3 226.95 148.2 Q 228.15 148.1 228.15 149.3 Q 228.15 150.5 226.95 150.5 Q 224.75 150.5 220.4 149.9 Q 216.05 149.3 213.85 149.3 Q 211.65 149.3 207.3 149.9 Q 202.95 150.5 200.75 150.5 Q 199.55 150.5 199.55 149.3 Q 199.55 148.2 200.75 148.2 Q 203.75 148.2 205.85 145.8 Q 207.85 143.3 208.05 139.9 Q 208.15 139.2 207.55 138.65 Q 206.95 138.1 206.15 138.1 L 191.35 138.1 Q 189.75 138.1 189.05 137.3 Q 188.25 136.5 188.25 135.7 Q 188.25 135.3 188.45 135.2 Q 202.25 119.1 202.25 102.1 Q 202.25 101.4 202.65 100.95 Q 203.05 100.5 203.55 100.5 L 203.85 100.5 Q 208.15 101.8 210.95 101.85 Q 213.75 101.9 218.05 100.5 Q 218.25 100.5 218.55 100.5 Q 219.35 100.5 219.85 101.1 Q 220.25 101.5 219.75 102.1 L 193.95 132.1 Q 193.55 132.6 193.55 133.4 Q 193.55 134.1 194 134.6 Q 194.45 135.1 195.25 135.2 L 206.25 135.2 Q 207.05 135.2 207.55 134.65 Q 208.05 134.1 208.05 133.3 L 208.05 122.1 Q 208.05 120.5 208.85 119.9 Q 213.15 117.3 214.85 114.9 Q 215.85 113.7 217.55 109.9 Q 217.85 109.3 218.45 109.3 Q 218.95 109.3 219.35 109.7 Q 219.75 110.1 219.75 110.7 L 219.75 133.3 Q 219.75 134.1 220.25 134.6 Q 220.75 135.1 221.55 135.2 L 226.95 135.2 Q 227.65 135.2 228.05 135.6 Q 228.45 136 228.45 136.55 Q 228.45 137.1 228.05 137.6 Q 227.65 138.1 226.95 138.1 L 221.65 138.1 Q 220.75 138.1 220.25 138.75 Q 219.75 139.4 219.85 140.1 Z M 204.25 52.8 Q 198.35 52.8 198.35 56.1 Q 198.35 57.199997 200.15 58.449997 Q 201.95 59.7 201.95 60.8 Q 201.95 63.2 200.25 64.9 Q 198.55 66.6 196.15 66.6 Q 193.75 66.6 192.1 64.9 Q 190.45 63.2 190.45 60.8 Q 190.45 56.1 194.55 53.3 Q 198.65 50.5 204.25 50.5 Q 211.65 50.5 216.4 53.35 Q 221.15 56.199997 221.15 61.9 Q 221.15 65.7 220.35 67.9 Q 219.55 70.1 216.95 71.3 Q 215.55 71.9 215.55 73.4 Q 215.55 75 216.95 75.6 Q 222.55 78.2 222.55 86.5 Q 222.55 93.2 217.5 96.85 Q 212.45 100.5 204.65 100.5 Q 198.45 100.5 193.85 97.4 Q 189.25 94.3 189.25 89.2 Q 189.25 86.5 191.2 84.55 Q 193.15 82.6 195.85 82.6 Q 198.55 82.6 200.45 84.55 Q 202.35 86.5 202.35 89.2 Q 202.35 90.5 200.35 91.9 Q 198.35 93.3 198.35 94.5 Q 198.35 96.4 200.2 97.3 Q 202.05 98.2 204.65 98.2 Q 208.05 98.2 209.5 94.8 Q 210.95 91.4 210.95 86.5 L 210.95 84.9 Q 210.95 81.5 210.75 79.75 Q 210.55 78 209.4 76.45 Q 208.25 74.9 205.95 74.9 L 197.95 74.9 Q 196.55 74.9 196.55 73.4 Q 196.55 72 197.95 72 L 205.95 72 Q 207.75 72 208.8 71.4 Q 209.85 70.8 210.3 69.35 Q 210.75 67.9 210.85 66.6 Q 210.95 65.3 210.95 62.7 L 210.95 61.9 Q 210.95 52.8 204.25 52.8 Z " fill="black" />
	<rect x="226.25" y="50.5" width="10" height="100" stroke="orange" stroke-width="1" fill="none" />
	<rect x="236.25" y="25.5" width="42.5" height="150" stroke="orange" stroke-width="1" fill="none" />
	<path d="M 267.85 140.1 Q 268.15 143.6 270.05 145.95 Q 271.95 148.3 274.95 148.2 Q 276.15 148.1 276.15 149.3 Q 276.15 150.5 274.95 150.5 Q 272.75 150.5 268.4 149.9 Q 264.05 149.3 261.85 149.3 Q 259.65 149.3 255.3 149.9 Q 250.95 150.5 248.75 150.5 Q 247.55 150.5 247.55 149.3 Q 247.55 148.2 248.75 148.2 Q 251.75 148.2 253.85 145.8 Q 255.85 143.3 256.05 139.9 Q 256.15 139.2 255.55 138.65 Q 254.95 138.1 254.15 138.1 L 239.35 138.1 Q 237.75 138.1 237.05 137.3 Q 236.25 136.5 236.25 135.7 Q 236.25 135.3 236.45 135.2 Q 250.25 119.1 250.25 102.1 Q 250.25 101.4 250.65 100.95 Q 251.05 100.5 251.55 100.5 L 251.85 100.5 Q 256.15 101.8 258.95 101.85 Q 261.75 101.9 266.05 100.5 Q 266.25 100.5 266.55 100.5 Q 267.35 100.5 267.85 101.1 Q 268.25 101.5 267.75 102.1 L 241.95 132.1 Q 241.55 132.6 241.55 133.4 Q 241.55 134.1 242 134.6 Q 242.45 135.1 243.25 135.2 L 254.25 135.2 Q 255.05 135.2 255.55 134.65 Q 256.05 134.1 256.05 133.3 L 256.05 122.1 Q 256.05 120.5 256.85 119.9 Q 261.15 117.3 262.85 114.9 Q 263.85 113.7 265.55 109.9 Q 265.85 109.3 266.45 109.3 Q 266.95 109.3 267.35 109.7 Q 267.75 110.1 267.75 110.7 L 267.75 133.3 Q 267.75 134.1 268.25 134.6 Q 268.75 135.1 269.55 135.2 L 274.95 135.2 Q 275.65 135.2 276.05 135.6 Q 276.45 136 276.45 136.55 Q 276.45 137.1 276.05 137.6 Q 275.65 138.1 274.95 138.1 L 269.65 138.1 Q 268.75 138.1 268.25 138.75 Q 267.75 139.4 267.85 140.1 Z M 253.25 74.9 Q 251.45 74.9 250.3 75.6 Q 249.15 76.3 248.65 77.9 Q 248.15 79.5 248.05 80.95 Q 247.95 82.4 247.95 85.1 L 247.95 86.5 L 247.95 88 Q 247.95 90.7 248.05 92.15 Q 248.15 93.6 248.65 95.2 Q 249.15 96.8 250.3 97.5 Q 251.45 98.2 253.25 98.2 Q 255.35 98.2 256.6 97.4 Q 257.85 96.6 258.45 94.75 Q 259.05 92.9 259.2 91.15 Q 259.35 89.4 259.35 86.5 Q 259.35 80.6 258.25 77.75 Q 257.15 74.9 253.25 74.9 Z M 250.25 73.1 Q 251.95 72.6 253.25 72.6 Q 261.15 72.6 265.7 76.1 Q 270.25 79.6 270.25 86.5 Q 270.25 93.4 265.65 96.95 Q 261.05 100.5 253.25 100.5 Q 245.25 100.5 240.75 93.1 Q 236.25 85.7 236.25 75.5 Q 236.25 65.4 241.5 57.949997 Q 246.75 50.5 255.25 50.5 Q 260.85 50.5 264.95 53.35 Q 269.05 56.199997 269.05 60.8 Q 269.05 63.5 267.15 65.45 Q 265.25 67.4 262.55 67.4 Q 259.85 67.4 257.9 65.45 Q 255.95 63.5 255.95 60.8 Q 255.95 59.6 257.9 58.35 Q 259.85 57.1 259.85 55.9 Q 259.85 54.5 258.45 53.65 Q 257.05 52.8 255.25 52.8 Q 250.75 52.8 249.25 56.449997 Q 247.75 60.1 247.75 66.7 Q 247.75 69.8 247.85 71.4 Q 247.85 72.1 248.4 72.65 Q 248.95 73.2 249.75 73.2 Q 249.95 73.2 250.25 73.1 Z " fill="black" />
	<rect x="279.25" y="0.5" width="30" height="200" stroke="orange" stroke-width="1" fill="none" />
	<rect x="309.25" y="88" width="32.5" height="25" stroke="red" stroke-width="1" fill="none" />
	<path d="M 309.25 103.9 Q 309.25 97.9 315.85 92.35 Q 322.45 86.8 329.35 86.8 Q 332.15 86.8 334.7 87.5 Q 337.25 88.2 339.55 90.7 Q 341.85 93.2 341.85 97.1 Q 341.85 102.6 335.15 108.4 Q 328.45 114.2 321.75 114.2 Q 318.95 114.2 316.4 113.5 Q 313.85 112.8 311.55 110.3 Q 309.25 107.8 309.25 103.9 Z " fill="black" />
	<rect x="341.75" y="88" width="5" height="25" stroke="red" stroke-width="1" fill="none" />
	<rect x="309.25" y="100.5" width="3" height="89.28571" stroke="red" stroke-width="1" fill="none" />
	<rect x="414.25" y="100.5" width="32.5" height="25" stroke="red" stroke-width="1" fill="none" />
	<path d="M 414.25 116.4 Q 414.25 110.4 420.85 104.85 Q 427.45 99.3 434.35 99.3 Q 437.15 99.3 439.7 100 Q 442.25 100.7 444.55 103.2 Q 446.85 105.7 446.85 109.6 Q 446.85 115.1 440.15 120.9 Q 433.45 126.7 426.75 126.7 Q 423.95 126.7 421.4 126 Q 418.85 125.3 416.55 122.8 Q 414.25 120.3 414.25 116.4 Z " fill="black" />
	<rect x="446.75" y="100.5" width="5" height="25" stroke="red" stroke-width="1" fill="none" />
	<rect x="443.75" y="23.714287" width="3" height="89.28571" stroke="red" stroke-width="1" fill="none" />
	<rect x="519.25" y="50.5" width="22.5" height="100" stroke="orange" stroke-width="1" fill="none" />
	<path d="M 519.25 50.5 L 525.5 50.5 L 525.5 150.5 L 519.25 150.5 M 535.5 50.5 L 541.75 50.5 L 541.75 150.5 L 535.5 150.5 " fill="black" />
	<rect x="542.25" y="50.5" width="30" height="100" stroke="orange" stroke-width="1" fill="none" />
	<rect x="572.25" y="88" width="32.5" height="25" stroke="red" stroke-width="1" fill="none" />
	<path d="M 572.25 103.9 Q 572.25 97.9 578.85 92.35 Q 585.45 86.8 592.35 86.8 Q 595.15 86.8 597.7 87.5 Q 600.25 88.2 602.55 90.7 Q 604.85 93.2 604.85 97.1 Q 604.85 102.6 598.15 108.4 Q 591.45 114.2 584.75 114.2 Q 581.95 114.2 579.4 113.5 Q 576.85 112.8 574.55 110.3 Q 572.25 107.8 572.25 103.9 Z " fill="black" />
	<rect x="604.75" y="88" width="5" height="25" stroke="red" stroke-width="1" fill="none" />
	<rect x="572.25" y="100.5" width="3" height="89.28571" stroke="red" stroke-width="1" fill="none" />
	<rect x="677.25" y="75.5" width="32.5" height="25" stroke="red" stroke-width="1" fill="none" />
	<path d="M 677.25 91.4 Q 677.25 85.4 683.85 79.85 Q 690.45 74.3 697.35 74.3 Q 700.15 74.3 702.7 75 Q 705.25 75.7 707.55 78.2 Q 709.85 80.7 709.85 84.6 Q 709.85 90.1 703.15 95.9 Q 696.45 101.7 689.75 101.7 Q 686.95 101.7 684.4 101 Q 681.85 100.3 679.55 97.8 Q 677.25 95.3 677.25 91.4 Z " fill="black" />
	<rect x="709.75" y="75.5" width="5" height="25" stroke="red" stroke-width="1" fill="none" />
	<rect x="677.25" y="88" width="3" height="89.28571" stroke="red" stroke-width="1" fill="none" />
	<rect x="782.25" y="50.5" width="6.25" height="100" stroke="orange" stroke-width="1" fill="none" />
	<rect x="782.25" y="50.5" width="6.25" height="100" fill="black" />
	<line x1="310.75" y1="104.5" x2="310.75" y2="189.7857" stroke="black" stroke-width="3" />
	<line x1="445.25" y1="23.714287" x2="445.25" y2="109" stroke="black" stroke-width="3" />
	<line x1="573.75" y1="104.5" x2="573.75" y2="189.7857" stroke="black" stroke-width="3" />
	<line x1="678.75" y1="92" x2="678.75" y2="177.2857" stroke="black" stroke-width="3" />
	<rect x="0" y="0" width="789.75" height="201" stroke="black" stroke-width="1" fill="none" />
</svg>
