<svg xmlns="http://www.w3.org/2000/svg" xmlns:xlink="http://www.w3.org/1999/xlink" width="1022.75" height="623.4857" viewBox="0 0 1022.75 623.4857">
    <line x1="25" y1="168.2" x2="25" y2="520.2" stroke="black" stroke-width="2.5"/>
    <rect x="0" y="163.2" width="12.5" height="362" fill="black"/>
    <path d="M 0 163.2 L 25 153.2 L 25 155.2 L 12.5 163.2 " fill="black"/>
    <path d="M 0 525.2 L 25 535.2 L 25 533.2 L 12.5 525.2 " fill="black"/>
    <line x1="25" y1="168.2" x2="1021.5" y2="168.2" stroke="black" stroke-width="2.5"/>
    <line x1="25" y1="193.2" x2="1021.5" y2="193.2" stroke="black" stroke-width="2.5"/>
    <line x1="25" y1="218.2" x2="1021.5" y2="218.2" stroke="black" stroke-width="2.5"/>
    <line x1="25" y1="243.2" x2="1021.5" y2="243.2" stroke="black" stroke-width="2.5"/>
    <line x1="25" y1="268.2" x2="1021.5" y2="268.2" stroke="black" stroke-width="2.5"/>
    <line x1="25" y1="420.2" x2="1021.5" y2="420.2" stroke="black" stroke-width="2.5"/>
    <line x1="25" y1="445.2" x2="1021.5" y2="445.2" stroke="black" stroke-width="2.5"/>
    <line x1="25" y1="470.2" x2="1021.5" y2="470.2" stroke="black" stroke-width="2.5"/>
    <line x1="25" y1="495.2" x2="1021.5" y2="495.2" stroke="black" stroke-width="2.5"/>
    <line x1="25" y1="520.2" x2="1021.5" y2="520.2" stroke="black" stroke-width="2.5"/>
    <path d="M 59.800003 186.7 Q 57.5 179.4 56.6 173.7 Q 55.800003 168.9 55.800003 162.5 Q 55.800003 160.3 55.9 158.1 Q 56.300003 148.6 59.800003 140.65 Q 63.300003 132.7 70.3 128.5 Q 70.8 128.2 71.600006 128.2 Q 72.3 128.2 72.8 128.7 Q 78.4 134.3 81.4 143 Q 84.4 151.7 84.4 160.6 Q 84.4 170.9 80 180.8 Q 75.8 190.7 68.2 198.3 Q 67.600006 198.9 67.8 199.9 L 71.8 215.9 Q 72.100006 217.5 73.8 217.3 Q 75.4 217.09999 76.9 217.09999 Q 82.7 217.09999 87.4 219.4 Q 92.100006 221.7 95 225.4 Q 97.9 229.09999 99.450005 233.55 Q 101 238 101 242.7 Q 101 251.3 96.2 258.25 Q 91.4 265.2 84.7 267.4 Q 83.3 267.9 83.600006 269.5 Q 86.100006 281.30002 86.2 289.4 Q 86.2 292.5 85.8 295.5 Q 85 302.4 79.8 307.6 Q 74.600006 312.80002 67.4 312.80002 Q 58.6 312.80002 52.5 307.5 Q 46.4 302.2 46.4 293.6 Q 46.4 289.2 49.5 286 Q 52.6 282.80002 56.800003 282.80002 Q 61.1 282.80002 64.05 285.85 Q 67 288.9 67 293.1 Q 67 296.7 64.6 299.4 Q 62.2 302.2 58.800003 302.5 Q 57.6 302.6 57.2 303.7 Q 56.800003 304.80002 58 305.7 Q 61.6 308.5 66.8 308.5 Q 72.5 308.5 76.65 304.4 Q 80.8 300.30002 81.5 295.1 Q 82 291.5 82 287.9 Q 82 280.1 79.600006 270.6 Q 79.2 268.9 77.4 269.1 Q 73.4 269.6 70 269.6 Q 55.2 269.6 45.1 260.30002 Q 35 251 35 235 Q 35 230.09999 36.15 225.34999 Q 37.3 220.59999 38.75 217.15 Q 40.2 213.7 43.25 209.15 Q 46.3 204.59999 48.15 202.2 Q 50 199.8 54 195.05 Q 58 190.3 59.5 188.4 Q 60.1 187.7 59.800003 186.7 Z M 75.4 232.4 L 81.9 261.9 Q 82.2 263.2 83.7 263.2 Q 84.100006 263.2 84.4 263.1 Q 88.5 261.4 91.2 256.5 Q 93.9 251.59999 93.9 246.8 Q 93.9 239.8 89.8 235 Q 85.600006 230.09999 77.2 230.09999 Q 76.5 230.09999 75.95 230.65 Q 75.4 231.2 75.4 231.9 Q 75.3 232.2 75.4 232.4 Z M 61.6 204.59999 Q 60 206.4 56.85 209.75 Q 53.7 213.09999 52.15 214.84999 Q 50.6 216.59999 48.35 219.8 Q 46.1 223 45 225.7 Q 43.9 228.4 43.05 232.3 Q 42.2 236.2 42.2 240.59999 Q 42.2 246.7 45.95 252.4 Q 49.7 258.1 56.25 261.7 Q 62.800003 265.30002 70.3 265.30002 Q 73 265.30002 76.3 265 Q 77.100006 264.9 77.600006 264.25 Q 78.100006 263.6 77.9 262.80002 L 71.4 232.9 Q 71.100006 231.5 69.5 231.5 Q 69.2 231.5 68.8 231.59999 Q 64.2 233.3 62.300003 236.4 Q 60.4 239.5 60.4 244.2 Q 60.4 249.7 66.4 253.7 Q 67.100006 254.2 67.100006 255.2 Q 67.100006 256 66.45 256.7 Q 65.8 257.4 64.9 257.4 Q 64.4 257.4 64 257.2 Q 58.300003 254.2 55.550003 249.05 Q 52.800003 243.9 52.800003 238.2 Q 52.800003 232.7 56.75 226.84999 Q 60.7 221 66.6 218.8 Q 68.100006 218.2 67.8 216.7 L 64.8 205.4 Q 64.6 204.3 63.4 204.09999 Q 62.2 203.9 61.6 204.59999 Z M 78.4 146.4 Q 77.600006 143.8 75.7 143.8 Q 75.100006 143.8 74.600006 144.1 Q 68.2 147.9 64.45 154.8 Q 60.7 161.7 60.7 169.4 Q 60.7 174.4 62.800003 181.7 Q 63.1 182.8 64.3 183 Q 65.3 183.09999 66 182.3 Q 66.3 181.9 68.850006 178.75 Q 71.4 175.6 72.2 174.55 Q 73 173.5 74.9 170.55 Q 76.8 167.6 77.55 165.65 Q 78.3 163.7 79 160.8 Q 79.7 157.9 79.7 155 Q 79.7 150.8 78.4 146.4 Z " fill="black"/>
    <path d="M 92 457.7 Q 92 455.6 93.5 454.1 Q 95 452.6 97.100006 452.6 Q 99.200005 452.6 100.700005 454.1 Q 102.200005 455.6 102.200005 457.7 Q 102.200005 459.80002 100.700005 461.30002 Q 99.200005 462.80002 97.100006 462.80002 Q 95 462.80002 93.5 461.30002 Q 92 459.80002 92 457.7 Z M 92 432.7 Q 92 430.6 93.5 429.1 Q 95 427.6 97.100006 427.6 Q 99.200005 427.6 100.700005 429.1 Q 102.200005 430.6 102.200005 432.7 Q 102.200005 434.80002 100.700005 436.30002 Q 99.200005 437.80002 97.100006 437.80002 Q 95 437.80002 93.5 436.30002 Q 92 434.80002 92 432.7 Z M 47.2 433.30002 Q 51.7 433.30002 54.6 436.2 Q 57.5 439.1 57.5 443.30002 Q 57.5 447.7 54.6 450.80002 Q 51.7 453.90002 47.5 453.90002 Q 43 453.90002 39.65 450.80002 Q 36.3 447.7 36.3 443.30002 Q 36.3 432.5 43.5 425.7 Q 50.7 418.90002 61.4 418.90002 Q 73.5 418.90002 81.15 425.85 Q 88.8 432.80002 88.8 444 Q 88.8 479.40002 37.4 502.1 Q 36.7 502.40002 36.3 502.40002 Q 35 502.40002 35 501.1 Q 35 500.40002 36.3 499.6 Q 44.3 494.90002 49.55 491.30002 Q 54.800003 487.7 60.4 482.6 Q 66 477.5 69.2 472.35 Q 72.4 467.2 74.5 460.2 Q 76.600006 453.2 76.600006 445 Q 76.600006 434.6 72.05 428.30002 Q 67.5 422 59.6 422 Q 54.800003 422 50.9 424.25 Q 47 426.5 45.5 430.40002 Q 45.1 431.7 45.6 432.40002 Q 46.3 433.30002 47.2 433.30002 Z " fill="black"/>
    <path d="M 118.6 226.8 Q 118.6 228 119.6 228.4 Q 120.8 228.9 121.6 228.09999 Q 128.2 222.09999 128.2 214.5 Q 128.2 211.8 127.05 209.8 Q 125.9 207.8 123.9 207.8 Q 121.7 207.8 120.3 209.7 Q 118.9 211.59999 118.8 214.09999 L 118.6 226.8 Z M 121.4 204.7 Q 125.6 202.59999 128.3 202.59999 Q 132.1 202.59999 134.4 205.59999 Q 136.7 208.59999 136.7 212.8 Q 136.7 215.7 135.85 218.05 Q 135 220.4 133.2 222.34999 Q 131.4 224.3 129.85 225.59999 Q 128.3 226.9 125.8 228.75 Q 123.3 230.59999 122 231.7 Q 121.5 232.09999 120.7 233.2 Q 119.9 234.3 119.15 234.9 Q 118.4 235.5 117.5 235.5 Q 116.5 235.5 115.85 234.8 Q 115.2 234.09999 115.2 233 L 114 172.5 Q 115.3 171.7 116.7 171.7 Q 118.1 171.7 119.4 172.5 L 118.8 203.09999 Q 118.8 204.09999 119.6 204.59999 Q 120.5 205.2 121.4 204.7 Z " fill="black"/>
    <path d="M 118.6 503.80002 Q 118.6 505 119.6 505.40002 Q 120.8 505.90002 121.6 505.1 Q 128.2 499.1 128.2 491.5 Q 128.2 488.80002 127.05 486.80002 Q 125.9 484.80002 123.9 484.80002 Q 121.7 484.80002 120.3 486.7 Q 118.9 488.6 118.8 491.1 L 118.6 503.80002 Z M 121.4 481.7 Q 125.6 479.6 128.3 479.6 Q 132.1 479.6 134.4 482.6 Q 136.7 485.6 136.7 489.80002 Q 136.7 492.7 135.85 495.05002 Q 135 497.40002 133.2 499.35 Q 131.4 501.30002 129.85 502.6 Q 128.3 503.90002 125.8 505.75 Q 123.3 507.6 122 508.7 Q 121.5 509.1 120.7 510.2 Q 119.9 511.30002 119.15 511.90002 Q 118.4 512.5 117.5 512.5 Q 116.5 512.5 115.85 511.80002 Q 115.2 511.1 115.2 510 L 114 449.5 Q 115.3 448.7 116.7 448.7 Q 118.1 448.7 119.4 449.5 L 118.8 480.1 Q 118.8 481.1 119.6 481.6 Q 120.5 482.2 121.4 481.7 Z " fill="black"/>
    <path d="M 188.71002 26.358711 L 183.23668 25.594994 L 183.23668 22.412811 L 217.286 22.412811 L 217.92242 33.232224 L 213.7856 33.232224 L 211.8763 26.167786 L 195.51988 25.722279 L 195.51988 44.178917 L 207.03938 43.98799 L 208.12132 38.70557 L 211.49443 38.70557 L 211.49443 53.59817 L 208.18497 53.59817 L 207.03938 48.06118 L 195.51988 47.806602 L 195.51988 65.94503 L 205.44829 66.58147 L 205.44829 69.7 L 183.61853 69.7 L 183.61853 66.58147 L 188.71002 65.94503 L 188.71002 26.358711 Z " fill="black"/>
    <path d="M 181 259.1 Q 181 253.09999 187.6 247.55 Q 194.2 242 201.1 242 Q 203.9 242 206.45 242.7 Q 209 243.4 211.3 245.9 Q 213.6 248.4 213.6 252.3 Q 213.6 257.80002 206.9 263.6 Q 200.2 269.4 193.5 269.4 Q 190.7 269.4 188.15 268.7 Q 185.6 268 183.3 265.5 Q 181 263 181 259.1 Z " fill="black"/>
    <path d="M 181 296.6 Q 181 290.6 187.6 285.05002 Q 194.2 279.5 201.1 279.5 Q 203.9 279.5 206.45 280.2 Q 209 280.9 211.3 283.4 Q 213.6 285.9 213.6 289.80002 Q 213.6 295.30002 206.9 301.1 Q 200.2 306.9 193.5 306.9 Q 190.7 306.9 188.15 306.2 Q 185.6 305.5 183.3 303 Q 181 300.5 181 296.6 Z " fill="black"/>
    <rect x="172.25" y="291.95" width="50" height="2.5" fill="black"/>
    <path d="M 181 423.6 Q 181 417.6 187.6 412.05002 Q 194.2 406.5 201.1 406.5 Q 203.9 406.5 206.45 407.2 Q 209 407.90002 211.3 410.40002 Q 213.6 412.90002 213.6 416.80002 Q 213.6 422.30002 206.9 428.1 Q 200.2 433.90002 193.5 433.90002 Q 190.7 433.90002 188.15 433.2 Q 185.6 432.5 183.3 430 Q 181 427.5 181 423.6 Z " fill="black"/>
    <path d="M 181 448.6 Q 181 442.6 187.6 437.05002 Q 194.2 431.5 201.1 431.5 Q 203.9 431.5 206.45 432.2 Q 209 432.90002 211.3 435.40002 Q 213.6 437.90002 213.6 441.80002 Q 213.6 447.30002 206.9 453.1 Q 200.2 458.90002 193.5 458.90002 Q 190.7 458.90002 188.15 458.2 Q 185.6 457.5 183.3 455 Q 181 452.5 181 448.6 Z " fill="black"/>
    <path d="M 297.6241 67.37701 Q 292.6917 64.35394 290.146 58.880592 Q 287.60025 53.40724 287.60025 46.024582 Q 287.60025 38.896503 290.5915 33.423153 Q 293.58273 27.949806 298.8015 24.926735 Q 304.0203 21.903664 310.51193 21.903664 Q 315.41248 21.903664 322.286 23.43111 L 324.38623 23.81297 L 323.7498 35.268818 L 319.4857 35.268818 L 317.8946 27.18608 Q 317.00357 26.42236 314.80786 25.88139 Q 312.61218 25.340416 309.43 25.340416 Q 305.3568 25.340416 302.17462 27.66341 Q 298.99243 29.986397 297.1786 34.505093 Q 295.36475 39.02379 295.36475 45.324505 Q 295.36475 51.307003 296.95584 56.207558 Q 298.54694 61.108116 301.79276 64.0039 Q 305.03857 66.89968 309.81186 66.89968 Q 313.18497 66.89968 314.9988 66.32689 Q 316.81265 65.7541 318.0855 64.67216 L 320.75854 58.435085 L 324.7681 58.944233 L 323.24066 67.98162 Q 321.90414 68.045265 319.29474 68.872635 Q 317.00357 69.572716 314.87152 69.9864 Q 312.73947 70.40008 309.55728 70.40008 Q 302.5565 70.40008 297.6241 67.37701 Z " fill="black"/>
    <path d="M 286 246.59999 Q 286 240.59999 292.6 235.05 Q 299.2 229.5 306.1 229.5 Q 308.9 229.5 311.45 230.2 Q 314 230.9 316.3 233.4 Q 318.6 235.9 318.6 239.8 Q 318.6 245.3 311.9 251.09999 Q 305.2 256.9 298.5 256.9 Q 295.7 256.9 293.15 256.2 Q 290.6 255.5 288.3 253 Q 286 250.5 286 246.59999 Z " fill="black"/>
    <path d="M 286 271.6 Q 286 265.6 292.6 260.05002 Q 299.2 254.5 306.1 254.5 Q 308.9 254.5 311.45 255.2 Q 314 255.9 316.3 258.4 Q 318.6 260.9 318.6 264.80002 Q 318.6 270.30002 311.9 276.1 Q 305.2 281.9 298.5 281.9 Q 295.7 281.9 293.15 281.2 Q 290.6 280.5 288.3 278 Q 286 275.5 286 271.6 Z " fill="black"/>
    <path d="M 286 398.6 Q 286 392.6 292.6 387.05002 Q 299.2 381.5 306.1 381.5 Q 308.9 381.5 311.45 382.2 Q 314 382.90002 316.3 385.40002 Q 318.6 387.90002 318.6 391.80002 Q 318.6 397.30002 311.9 403.1 Q 305.2 408.90002 298.5 408.90002 Q 295.7 408.90002 293.15 408.2 Q 290.6 407.5 288.3 405 Q 286 402.5 286 398.6 Z " fill="black"/>
    <rect x="277.25" y="393.95" width="50" height="2.5" fill="black"/>
    <path d="M 286 486.1 Q 286 480.1 292.6 474.55002 Q 299.2 469 306.1 469 Q 308.9 469 311.45 469.7 Q 314 470.40002 316.3 472.90002 Q 318.6 475.40002 318.6 479.30002 Q 318.6 484.80002 311.9 490.6 Q 305.2 496.40002 298.5 496.40002 Q 295.7 496.40002 293.15 495.7 Q 290.6 495 288.3 492.5 Q 286 490 286 486.1 Z " fill="black"/>
    <path d="M 398.71002 26.358711 L 393.23666 25.594994 L 393.23666 22.412811 L 427.286 22.412811 L 427.92242 33.232224 L 423.78558 33.232224 L 421.87628 26.167786 L 405.5199 25.722279 L 405.5199 44.178917 L 417.03937 43.98799 L 418.1213 38.70557 L 421.49445 38.70557 L 421.49445 53.59817 L 418.18497 53.59817 L 417.03937 48.06118 L 405.5199 47.806602 L 405.5199 65.94503 L 415.4483 66.58147 L 415.4483 69.7 L 393.61853 69.7 L 393.61853 66.58147 L 398.71002 65.94503 L 398.71002 26.358711 Z " fill="black"/>
    <path d="M 391 234.09999 Q 391 228.09999 397.6 222.55 Q 404.2 217 411.1 217 Q 413.9 217 416.45 217.7 Q 419 218.4 421.3 220.9 Q 423.6 223.4 423.6 227.3 Q 423.6 232.8 416.9 238.59999 Q 410.2 244.4 403.5 244.4 Q 400.7 244.4 398.15 243.7 Q 395.6 243 393.3 240.5 Q 391 238 391 234.09999 Z " fill="black"/>
    <path d="M 391 259.1 Q 391 253.09999 397.6 247.55 Q 404.2 242 411.1 242 Q 413.9 242 416.45 242.7 Q 419 243.4 421.3 245.9 Q 423.6 248.4 423.6 252.3 Q 423.6 257.80002 416.9 263.6 Q 410.2 269.4 403.5 269.4 Q 400.7 269.4 398.15 268.7 Q 395.6 268 393.3 265.5 Q 391 263 391 259.1 Z " fill="black"/>
    <path d="M 391 398.6 Q 391 392.6 397.6 387.05002 Q 404.2 381.5 411.1 381.5 Q 413.9 381.5 416.45 382.2 Q 419 382.90002 421.3 385.40002 Q 423.6 387.90002 423.6 391.80002 Q 423.6 397.30002 416.9 403.1 Q 410.2 408.90002 403.5 408.90002 Q 400.7 408.90002 398.15 408.2 Q 395.6 407.5 393.3 405 Q 391 402.5 391 398.6 Z " fill="black"/>
    <rect x="382.25" y="393.95" width="50" height="2.5" fill="black"/>
    <path d="M 391 448.6 Q 391 442.6 397.6 437.05002 Q 404.2 431.5 411.1 431.5 Q 413.9 431.5 416.45 432.2 Q 419 432.90002 421.3 435.40002 Q 423.6 437.90002 423.6 441.80002 Q 423.6 447.30002 416.9 453.1 Q 410.2 458.90002 403.5 458.90002 Q 400.7 458.90002 398.15 458.2 Q 395.6 457.5 393.3 455 Q 391 452.5 391 448.6 Z " fill="black"/>
    <path d="M 494.96002 26.358711 L 489.74124 25.594994 L 489.74124 22.412811 L 498.33313 22.412811 Q 500.497 22.412811 503.8065 22.158237 Q 506.8614 21.903664 508.32516 21.903664 Q 517.10803 21.903664 520.8948 24.640339 Q 524.6816 27.377014 524.6816 32.65943 Q 524.6816 37.178123 522.0722 40.42395 Q 519.46277 43.66977 514.9441 44.49714 Q 521.0539 44.36985 524.5543 47.3611 Q 528.0547 50.35235 528.0547 55.507477 Q 528.0547 61.935482 523.50415 66.008675 Q 518.9537 70.08186 508.45245 70.08186 Q 506.1613 70.08186 504.06107 69.89093 Q 499.09686 69.7 498.1422 69.7 L 489.6776 69.7 L 489.6776 66.58147 L 494.96002 65.94503 L 494.96002 26.358711 Z M 505.33392 43.351555 L 508.83432 43.351555 Q 513.28937 43.351555 515.58057 40.869453 Q 517.8717 38.387352 517.8717 33.805016 Q 517.8717 29.349964 515.58057 27.281544 Q 513.28937 25.21313 507.75238 25.21313 Q 505.4612 25.21313 503.04276 25.467701 L 501.70624 25.594994 L 501.70624 43.28791 Q 502.59726 43.351555 505.33392 43.351555 Z M 508.32516 66.64511 Q 514.7532 66.64511 517.6489 64.0039 Q 520.54474 61.36269 520.54474 56.39849 Q 520.54474 51.497932 518.0308 49.27041 Q 515.5169 47.042885 509.91626 47.042885 Q 503.42462 47.042885 501.70624 47.17017 L 501.70624 66.135956 Q 503.17004 66.64511 508.32516 66.64511 Z " fill="black"/>
    <path d="M 535.43 44.08 Q 535.43 45.04 536.23 45.36 Q 537.19 45.760002 537.83 45.120003 Q 543.11 40.32 543.11 34.24 Q 543.11 32.08 542.19 30.480001 Q 541.27 28.880001 539.67 28.880001 Q 537.91 28.880001 536.79004 30.400002 Q 535.67004 31.920002 535.58997 33.92 L 535.43 44.08 Z M 537.67 26.400002 Q 541.03 24.720001 543.19 24.720001 Q 546.23 24.720001 548.07 27.12 Q 549.91 29.52 549.91 32.88 Q 549.91 35.2 549.23 37.08 Q 548.55 38.96 547.11 40.52 Q 545.67 42.08 544.43 43.120003 Q 543.19 44.16 541.19 45.64 Q 539.19 47.120003 538.15 48 Q 537.75 48.32 537.11 49.2 Q 536.47 50.08 535.87 50.56 Q 535.27 51.04 534.55 51.04 Q 533.75 51.04 533.23 50.48 Q 532.70996 49.92 532.70996 49.04 L 531.75 0.6400032 Q 532.79004 0 533.91003 0 Q 535.03 0 536.07 0.6400032 L 535.58997 25.12 Q 535.58997 25.920002 536.23 26.32 Q 536.95 26.800001 537.67 26.400002 Z " fill="black"/>
    <path d="M 496 221.59999 Q 496 215.59999 502.6 210.05 Q 509.2 204.5 516.1 204.5 Q 518.9 204.5 521.45 205.2 Q 524 205.9 526.3 208.4 Q 528.6 210.9 528.6 214.8 Q 528.6 220.3 521.9 226.09999 Q 515.2 231.9 508.5 231.9 Q 505.7 231.9 503.15 231.2 Q 500.6 230.5 498.3 228 Q 496 225.5 496 221.59999 Z " fill="black"/>
    <path d="M 496 259.1 Q 496 253.09999 502.6 247.55 Q 509.2 242 516.1 242 Q 518.9 242 521.45 242.7 Q 524 243.4 526.3 245.9 Q 528.6 248.4 528.6 252.3 Q 528.6 257.80002 521.9 263.6 Q 515.2 269.4 508.5 269.4 Q 505.7 269.4 503.15 268.7 Q 500.6 268 498.3 265.5 Q 496 263 496 259.1 Z " fill="black"/>
    <path d="M 496 386.1 Q 496 380.1 502.6 374.55002 Q 509.2 369 516.1 369 Q 518.9 369 521.45 369.7 Q 524 370.40002 526.3 372.90002 Q 528.6 375.40002 528.6 379.30002 Q 528.6 384.80002 521.9 390.6 Q 515.2 396.40002 508.5 396.40002 Q 505.7 396.40002 503.15 395.7 Q 500.6 395 498.3 392.5 Q 496 390 496 386.1 Z " fill="black"/>
    <rect x="487.25" y="393.95" width="50" height="2.5" fill="black"/>
    <path d="M 496 498.6 Q 496 492.6 502.6 487.05002 Q 509.2 481.5 516.1 481.5 Q 518.9 481.5 521.45 482.2 Q 524 482.90002 526.3 485.40002 Q 528.6 487.90002 528.6 491.80002 Q 528.6 497.30002 521.9 503.1 Q 515.2 508.90002 508.5 508.90002 Q 505.7 508.90002 503.15 508.2 Q 500.6 507.5 498.3 505 Q 496 502.5 496 498.6 Z " fill="black"/>
    <rect x="601" y="168.2" width="3.7500002" height="100" fill="black"/>
    <rect x="601" y="420.2" width="3.7500002" height="100" fill="black"/>
    <path d="M 651.71 26.358711 L 646.2367 25.594994 L 646.2367 22.412811 L 680.286 22.412811 L 680.9224 33.232224 L 676.7856 33.232224 L 674.8763 26.167786 L 658.5199 25.722279 L 658.5199 44.178917 L 670.03937 43.98799 L 671.12134 38.70557 L 674.49445 38.70557 L 674.49445 53.59817 L 671.18494 53.59817 L 670.03937 48.06118 L 658.5199 47.806602 L 658.5199 65.94503 L 668.4483 66.58147 L 668.4483 69.7 L 646.6185 69.7 L 646.6185 66.58147 L 651.71 65.94503 L 651.71 26.358711 Z " fill="black"/>
    <path d="M 644 234.09999 Q 644 228.09999 650.6 222.55 Q 657.2 217 664.1 217 Q 666.9 217 669.45 217.7 Q 672 218.4 674.3 220.9 Q 676.6 223.4 676.6 227.3 Q 676.6 232.8 669.9 238.59999 Q 663.2 244.4 656.5 244.4 Q 653.7 244.4 651.15 243.7 Q 648.6 243 646.3 240.5 Q 644 238 644 234.09999 Z " fill="black"/>
    <path d="M 644 259.1 Q 644 253.09999 650.6 247.55 Q 657.2 242 664.1 242 Q 666.9 242 669.45 242.7 Q 672 243.4 674.3 245.9 Q 676.6 248.4 676.6 252.3 Q 676.6 257.80002 669.9 263.6 Q 663.2 269.4 656.5 269.4 Q 653.7 269.4 651.15 268.7 Q 648.6 268 646.3 265.5 Q 644 263 644 259.1 Z " fill="black"/>
    <path d="M 644 398.6 Q 644 392.6 650.6 387.05002 Q 657.2 381.5 664.1 381.5 Q 666.9 381.5 669.45 382.2 Q 672 382.90002 674.3 385.40002 Q 676.6 387.90002 676.6 391.80002 Q 676.6 397.30002 669.9 403.1 Q 663.2 408.90002 656.5 408.90002 Q 653.7 408.90002 651.15 408.2 Q 648.6 407.5 646.3 405 Q 644 402.5 644 398.6 Z " fill="black"/>
    <rect x="635.25" y="393.95" width="50" height="2.5" fill="black"/>
    <path d="M 644 448.6 Q 644 442.6 650.6 437.05002 Q 657.2 431.5 664.1 431.5 Q 666.9 431.5 669.45 432.2 Q 672 432.90002 674.3 435.40002 Q 676.6 437.90002 676.6 441.80002 Q 676.6 447.30002 669.9 453.1 Q 663.2 458.90002 656.5 458.90002 Q 653.7 458.90002 651.15 458.2 Q 648.6 457.5 646.3 455 Q 644 452.5 644 448.6 Z " fill="black"/>
    <path d="M 760.6241 67.37701 Q 755.6917 64.35394 753.146 58.880592 Q 750.6002 53.40724 750.6002 46.024582 Q 750.6002 38.896503 753.5915 33.423153 Q 756.58276 27.949806 761.8015 24.926735 Q 767.02026 21.903664 773.5119 21.903664 Q 778.4125 21.903664 785.286 23.43111 L 787.3862 23.81297 L 786.7498 35.268818 L 782.48566 35.268818 L 780.8946 27.18608 Q 780.0036 26.42236 777.80786 25.88139 Q 775.6122 25.340416 772.43 25.340416 Q 768.3568 25.340416 765.1746 27.66341 Q 761.99243 29.986397 760.1786 34.505093 Q 758.36475 39.02379 758.36475 45.324505 Q 758.36475 51.307003 759.9559 56.207558 Q 761.54694 61.108116 764.7928 64.0039 Q 768.0386 66.89968 772.8118 66.89968 Q 776.18494 66.89968 777.9988 66.32689 Q 779.8126 65.7541 781.0855 64.67216 L 783.75854 58.435085 L 787.76807 58.944233 L 786.24066 67.98162 Q 784.9041 68.045265 782.29474 68.872635 Q 780.0036 69.572716 777.8715 69.9864 Q 775.73944 70.40008 772.55725 70.40008 Q 765.55646 70.40008 760.6241 67.37701 Z " fill="black"/>
    <path d="M 749 246.59999 Q 749 240.59999 755.6 235.05 Q 762.2 229.5 769.1 229.5 Q 771.9 229.5 774.45 230.2 Q 777 230.9 779.3 233.4 Q 781.6 235.9 781.6 239.8 Q 781.6 245.3 774.9 251.09999 Q 768.2 256.9 761.5 256.9 Q 758.7 256.9 756.15 256.2 Q 753.6 255.5 751.3 253 Q 749 250.5 749 246.59999 Z " fill="black"/>
    <path d="M 749 271.6 Q 749 265.6 755.6 260.05002 Q 762.2 254.5 769.1 254.5 Q 771.9 254.5 774.45 255.2 Q 777 255.9 779.3 258.4 Q 781.6 260.9 781.6 264.80002 Q 781.6 270.30002 774.9 276.1 Q 768.2 281.9 761.5 281.9 Q 758.7 281.9 756.15 281.2 Q 753.6 280.5 751.3 278 Q 749 275.5 749 271.6 Z " fill="black"/>
    <path d="M 749 398.6 Q 749 392.6 755.6 387.05002 Q 762.2 381.5 769.1 381.5 Q 771.9 381.5 774.45 382.2 Q 777 382.90002 779.3 385.40002 Q 781.6 387.90002 781.6 391.80002 Q 781.6 397.30002 774.9 403.1 Q 768.2 408.90002 761.5 408.90002 Q 758.7 408.90002 756.15 408.2 Q 753.6 407.5 751.3 405 Q 749 402.5 749 398.6 Z " fill="black"/>
    <rect x="740.25" y="393.95" width="50" height="2.5" fill="black"/>
    <path d="M 749 486.1 Q 749 480.1 755.6 474.55002 Q 762.2 469 769.1 469 Q 771.9 469 774.45 469.7 Q 777 470.40002 779.3 472.90002 Q 781.6 475.40002 781.6 479.30002 Q 781.6 484.80002 774.9 490.6 Q 768.2 496.40002 761.5 496.40002 Q 758.7 496.40002 756.15 495.7 Q 753.6 495 751.3 492.5 Q 749 490 749 486.1 Z " fill="black"/>
    <path d="M 861.71 26.358711 L 856.2367 25.594994 L 856.2367 22.412811 L 890.286 22.412811 L 890.9224 33.232224 L 886.7856 33.232224 L 884.8763 26.167786 L 868.5199 25.722279 L 868.5199 44.178917 L 880.03937 43.98799 L 881.12134 38.70557 L 884.49445 38.70557 L 884.49445 53.59817 L 881.18494 53.59817 L 880.03937 48.06118 L 868.5199 47.806602 L 868.5199 65.94503 L 878.4483 66.58147 L 878.4483 69.7 L 856.6185 69.7 L 856.6185 66.58147 L 861.71 65.94503 L 861.71 26.358711 Z " fill="black"/>
    <path d="M 878.9 245.59999 Q 876 245.59999 866.65 252.15 Q 857.3 258.7 857.3 261.7 Q 857.3 263.80002 859.1 264.80002 Q 860.9 265.80002 863.4 265.80002 Q 866.3 265.80002 875.65 259.25 Q 885 252.7 885 249.7 Q 885 247.59999 883.2 246.59999 Q 881.4 245.59999 878.9 245.59999 Z M 854 259.5 Q 854 252.3 860.2 247.15 Q 866.4 242 875.2 242 Q 878.2 242 880.8 242.59999 Q 883.4 243.2 885.8 245.59999 Q 888.2 248 888.2 251.9 Q 888.2 259.1 882 264.25 Q 875.8 269.4 867 269.4 Q 864 269.4 861.4 268.80002 Q 858.8 268.2 856.4 265.80002 Q 854 263.4 854 259.5 Z " fill="black"/>
    <path d="M 878.9 283.1 Q 876 283.1 866.65 289.65 Q 857.3 296.2 857.3 299.2 Q 857.3 301.30002 859.1 302.30002 Q 860.9 303.30002 863.4 303.30002 Q 866.3 303.30002 875.65 296.75 Q 885 290.2 885 287.2 Q 885 285.1 883.2 284.1 Q 881.4 283.1 878.9 283.1 Z M 854 297 Q 854 289.80002 860.2 284.65 Q 866.4 279.5 875.2 279.5 Q 878.2 279.5 880.8 280.1 Q 883.4 280.7 885.8 283.1 Q 888.2 285.5 888.2 289.4 Q 888.2 296.6 882 301.75 Q 875.8 306.9 867 306.9 Q 864 306.9 861.4 306.30002 Q 858.8 305.7 856.4 303.30002 Q 854 300.9 854 297 Z " fill="black"/>
    <rect x="845.25" y="291.95" width="51.75" height="2.5" fill="black"/>
    <path d="M 878.9 410.1 Q 876 410.1 866.65 416.65002 Q 857.3 423.2 857.3 426.2 Q 857.3 428.30002 859.1 429.30002 Q 860.9 430.30002 863.4 430.30002 Q 866.3 430.30002 875.65 423.75 Q 885 417.2 885 414.2 Q 885 412.1 883.2 411.1 Q 881.4 410.1 878.9 410.1 Z M 854 424 Q 854 416.80002 860.2 411.65002 Q 866.4 406.5 875.2 406.5 Q 878.2 406.5 880.8 407.1 Q 883.4 407.7 885.8 410.1 Q 888.2 412.5 888.2 416.40002 Q 888.2 423.6 882 428.75 Q 875.8 433.90002 867 433.90002 Q 864 433.90002 861.4 433.30002 Q 858.8 432.7 856.4 430.30002 Q 854 427.90002 854 424 Z " fill="black"/>
    <path d="M 878.9 522.6 Q 876 522.6 866.65 529.15 Q 857.3 535.7 857.3 538.7 Q 857.3 540.8 859.1 541.8 Q 860.9 542.8 863.4 542.8 Q 866.3 542.8 875.65 536.25 Q 885 529.7 885 526.7 Q 885 524.6 883.2 523.6 Q 881.4 522.6 878.9 522.6 Z M 854 536.5 Q 854 529.3 860.2 524.15 Q 866.4 519 875.2 519 Q 878.2 519 880.8 519.6 Q 883.4 520.2 885.8 522.6 Q 888.2 525 888.2 528.9 Q 888.2 536.1 882 541.25 Q 875.8 546.4 867 546.4 Q 864 546.4 861.4 545.8 Q 858.8 545.2 856.4 542.8 Q 854 540.4 854 536.5 Z " fill="black"/>
    <path d="M 1004 168.2 L 1007.75 168.2 L 1007.75 268.2 L 1004 268.2 M 1017.75 168.2 L 1021.5 168.2 L 1021.5 268.2 L 1017.75 268.2 " fill="black"/>
    <path d="M 1004 420.2 L 1007.75 420.2 L 1007.75 520.2 L 1004 520.2 M 1017.75 420.2 L 1021.5 420.2 L 1021.5 520.2 L 1017.75 520.2 " fill="black"/>
    <line x1="212" y1="166.41429" x2="212" y2="251.7" stroke="black" stroke-width="3"/>
    <line x1="182.5" y1="297.2" x2="182.5" y2="382.48572" stroke="black" stroke-width="3"/>
    <line x1="317" y1="153.91429" x2="317" y2="239.2" stroke="black" stroke-width="3"/>
    <line x1="287.5" y1="272.2" x2="287.5" y2="357.48572" stroke="black" stroke-width="3"/>
    <line x1="422" y1="141.41429" x2="422" y2="226.7" stroke="black" stroke-width="3"/>
    <line x1="392.5" y1="259.7" x2="392.5" y2="344.98572" stroke="black" stroke-width="3"/>
    <line x1="527" y1="128.91429" x2="527" y2="214.2" stroke="black" stroke-width="3"/>
    <line x1="497.5" y1="259.7" x2="497.5" y2="344.98572" stroke="black" stroke-width="3"/>
    <line x1="675" y1="141.41429" x2="675" y2="226.7" stroke="black" stroke-width="3"/>
    <line x1="645.5" y1="259.7" x2="645.5" y2="344.98572" stroke="black" stroke-width="3"/>
    <line x1="780" y1="153.91429" x2="780" y2="239.2" stroke="black" stroke-width="3"/>
    <line x1="750.5" y1="272.2" x2="750.5" y2="357.48572" stroke="black" stroke-width="3"/>
    <line x1="886.75" y1="166.41429" x2="886.75" y2="251.7" stroke="black" stroke-width="3"/>
    <line x1="855.5" y1="297.2" x2="855.5" y2="382.48572" stroke="black" stroke-width="3"/>
    <line x1="212" y1="330.9143" x2="212" y2="416.2" stroke="black" stroke-width="3"/>
    <line x1="182.5" y1="449.2" x2="182.5" y2="534.4857" stroke="black" stroke-width="3"/>
    <line x1="317" y1="305.9143" x2="317" y2="391.2" stroke="black" stroke-width="3"/>
    <line x1="287.5" y1="486.7" x2="287.5" y2="571.9857" stroke="black" stroke-width="3"/>
    <line x1="422" y1="305.9143" x2="422" y2="391.2" stroke="black" stroke-width="3"/>
    <line x1="392.5" y1="449.2" x2="392.5" y2="534.4857" stroke="black" stroke-width="3"/>
    <line x1="527" y1="293.4143" x2="527" y2="378.7" stroke="black" stroke-width="3"/>
    <line x1="497.5" y1="499.2" x2="497.5" y2="584.4857" stroke="black" stroke-width="3"/>
    <line x1="675" y1="305.9143" x2="675" y2="391.2" stroke="black" stroke-width="3"/>
    <line x1="645.5" y1="449.2" x2="645.5" y2="534.4857" stroke="black" stroke-width="3"/>
    <line x1="780" y1="305.9143" x2="780" y2="391.2" stroke="black" stroke-width="3"/>
    <line x1="750.5" y1="486.7" x2="750.5" y2="571.9857" stroke="black" stroke-width="3"/>
    <line x1="886.75" y1="330.9143" x2="886.75" y2="416.2" stroke="black" stroke-width="3"/>
    <line x1="855.5" y1="536.7" x2="855.5" y2="621.9857" stroke="black" stroke-width="3"/>
    <rect x="0" y="0" width="1022.75" height="623.4857" stroke="white" stroke-width="1" fill="none"/>
</svg>
