<svg xmlns="http://www.w3.org/2000/svg" xmlns:xlink="http://www.w3.org/1999/xlink" width="1092.25" height="254.55132" viewBox="0 0 1092.25 254.55132">
    <defs visibility="hidden"/>
    <line x1="1.25" y1="40" x2="1091" y2="40" stroke="black" stroke-width="2.5"/>
    <line x1="1.25" y1="65" x2="1091" y2="65" stroke="black" stroke-width="2.5"/>
    <line x1="1.25" y1="90" x2="1091" y2="90" stroke="black" stroke-width="2.5"/>
    <line x1="1.25" y1="115" x2="1091" y2="115" stroke="black" stroke-width="2.5"/>
    <line x1="1.25" y1="140" x2="1091" y2="140" stroke="black" stroke-width="2.5"/>
    <path d="M 36.050003 58.5 Q 33.75 51.2 32.85 45.5 Q 32.050003 40.699997 32.050003 34.299995 Q 32.050003 32.1 32.15 29.900002 Q 32.550003 20.400002 36.050003 12.449997 Q 39.550003 4.5 46.55 0.29999542 Q 47.05 0 47.850002 0 Q 48.55 0 49.05 0.5 Q 54.65 6.0999985 57.65 14.799995 Q 60.65 23.5 60.65 32.4 Q 60.65 42.699997 56.25 52.6 Q 52.05 62.5 44.45 70.1 Q 43.850002 70.7 44.05 71.7 L 48.05 87.7 Q 48.350002 89.3 50.05 89.1 Q 51.65 88.9 53.15 88.9 Q 58.95 88.9 63.65 91.2 Q 68.350006 93.5 71.25 97.2 Q 74.15 100.9 75.700005 105.35 Q 77.25 109.8 77.25 114.5 Q 77.25 123.1 72.45 130.05 Q 67.65 137 60.95 139.2 Q 59.55 139.7 59.850002 141.3 Q 62.350002 153.1 62.45 161.2 Q 62.45 164.3 62.05 167.3 Q 61.25 174.2 56.05 179.4 Q 50.850002 184.6 43.65 184.6 Q 34.85 184.6 28.75 179.3 Q 22.650002 174 22.650002 165.4 Q 22.650002 161 25.75 157.8 Q 28.85 154.6 33.050003 154.6 Q 37.35 154.6 40.300003 157.65 Q 43.25 160.7 43.25 164.9 Q 43.25 168.5 40.85 171.2 Q 38.45 174 35.050003 174.3 Q 33.85 174.4 33.45 175.5 Q 33.050003 176.6 34.25 177.5 Q 37.85 180.3 43.050003 180.3 Q 48.75 180.3 52.9 176.2 Q 57.05 172.1 57.75 166.9 Q 58.25 163.3 58.25 159.7 Q 58.25 151.9 55.850002 142.4 Q 55.45 140.7 53.65 140.9 Q 49.65 141.4 46.25 141.4 Q 31.45 141.4 21.35 132.1 Q 11.25 122.8 11.25 106.8 Q 11.25 101.9 12.4 97.15 Q 13.55 92.4 15 88.95 Q 16.45 85.5 19.5 80.95 Q 22.55 76.399994 24.400002 74 Q 26.25 71.6 30.25 66.85 Q 34.25 62.1 35.75 60.2 Q 36.35 59.5 36.050003 58.5 Z M 51.65 104.2 L 58.15 133.7 Q 58.45 135 59.95 135 Q 60.350002 135 60.65 134.9 Q 64.75 133.2 67.45 128.3 Q 70.15 123.4 70.15 118.6 Q 70.15 111.6 66.05 106.8 Q 61.850002 101.9 53.45 101.9 Q 52.75 101.9 52.2 102.45 Q 51.65 103 51.65 103.7 Q 51.55 104 51.65 104.2 Z M 37.85 76.399994 Q 36.25 78.2 33.1 81.55 Q 29.95 84.9 28.4 86.65 Q 26.85 88.4 24.6 91.6 Q 22.35 94.8 21.25 97.5 Q 20.150002 100.2 19.3 104.1 Q 18.45 108 18.45 112.4 Q 18.45 118.5 22.2 124.2 Q 25.95 129.9 32.5 133.5 Q 39.050003 137.1 46.55 137.1 Q 49.25 137.1 52.55 136.8 Q 53.350002 136.7 53.850002 136.05 Q 54.350002 135.4 54.15 134.6 L 47.65 104.7 Q 47.350002 103.3 45.75 103.3 Q 45.45 103.3 45.05 103.4 Q 40.45 105.1 38.550003 108.2 Q 36.65 111.3 36.65 116 Q 36.65 121.5 42.65 125.5 Q 43.350002 126 43.350002 127 Q 43.350002 127.8 42.7 128.5 Q 42.050003 129.2 41.15 129.2 Q 40.65 129.2 40.25 129 Q 34.550003 126 31.800001 120.85 Q 29.050001 115.7 29.050001 110 Q 29.050001 104.5 33 98.65 Q 36.95 92.8 42.85 90.6 Q 44.350002 90 44.05 88.5 L 41.050003 77.2 Q 40.85 76.1 39.65 75.899994 Q 38.45 75.7 37.85 76.399994 Z M 54.65 18.199997 Q 53.850002 15.599998 51.95 15.599998 Q 51.350002 15.599998 50.850002 15.900002 Q 44.45 19.699997 40.7 26.599998 Q 36.95 33.5 36.95 41.199997 Q 36.95 46.199997 39.050003 53.5 Q 39.35 54.6 40.550003 54.8 Q 41.550003 54.899998 42.25 54.1 Q 42.550003 53.7 45.100002 50.549995 Q 47.65 47.4 48.45 46.35 Q 49.25 45.299995 51.15 42.35 Q 53.05 39.4 53.8 37.449997 Q 54.55 35.5 55.25 32.6 Q 55.95 29.699997 55.95 26.799995 Q 55.95 22.599998 54.65 18.199997 Z " fill="black"/>
    <path d="M 111.85 30.400002 L 111.85 42.6 Q 111.85 43.4 112.35 43.9 Q 112.85 44.4 113.65 44.4 Q 113.95 44.4 114.25 44.3 L 115.05 44 Q 115.35 43.9 115.75 43.9 Q 116.55 43.9 117.15 44.5 Q 117.75 45.1 117.75 45.9 L 117.75 51.9 Q 117.75 53.2 116.45 53.7 L 113.05 55 Q 111.85 55.5 111.85 56.6 L 111.85 71.2 Q 111.85 72 111.3 72.55 Q 110.75 73.100006 110.05 73.100006 Q 109.25 73.100006 108.7 72.55 Q 108.15 72 108.15 71.2 L 108.15 59.300003 Q 108.15 58.5 107.6 58 Q 107.05 57.5 106.35 57.5 Q 105.95 57.5 105.65 57.6 L 101.05 59.4 Q 99.85 59.800003 99.85 61 L 99.85 75.600006 Q 99.85 76.4 99.25 76.95 Q 98.65 77.5 97.95 77.5 Q 97.25 77.5 96.7 76.95 Q 96.15 76.4 96.15 75.600006 L 96.15 63.7 Q 96.15 62.9 95.6 62.4 Q 95.05 61.9 94.35 61.9 Q 94.05 61.9 93.75 62 L 92.95 62.300003 Q 92.75 62.4 92.25 62.4 Q 91.45 62.4 90.85 61.800003 Q 90.25 61.2 90.25 60.4 L 90.25 54.4 Q 90.25 53 91.55 52.5 L 94.95 51.3 Q 96.15 51 96.15 49.6 L 96.15 37.4 Q 96.15 36.6 95.6 36.1 Q 95.05 35.6 94.35 35.6 Q 94.05 35.6 93.85 35.7 L 92.95 36 Q 92.75 36.1 92.25 36.1 Q 91.45 36.1 90.85 35.5 Q 90.25 34.9 90.25 34.1 L 90.25 28.099998 Q 90.25 26.8 91.55 26.3 L 95.05 25 Q 96.15 24.5 96.15 23.400002 L 96.15 8.800003 Q 96.15 8 96.7 7.449997 Q 97.25 6.899994 97.95 6.899994 Q 98.65 6.899994 99.25 7.449997 Q 99.85 8 99.85 8.800003 L 99.85 20.699997 Q 99.85 21.5 100.4 22 Q 100.95 22.5 101.75 22.5 Q 102.05 22.5 102.35 22.400002 L 106.95 20.599998 Q 108.15 20.099998 108.15 18.900002 L 108.15 4.399994 Q 108.15 3.5999985 108.7 3.050003 Q 109.25 2.5 110.05 2.5 Q 110.75 2.5 111.3 3.050003 Q 111.85 3.5999985 111.85 4.399994 L 111.85 16.400002 Q 111.85 17.099998 112.35 17.599998 Q 112.85 18.099998 113.55 18.099998 Q 113.85 18.099998 114.25 18 L 115.05 17.699997 Q 115.25 17.599998 115.75 17.599998 Q 116.55 17.599998 117.15 18.199997 Q 117.75 18.800003 117.75 19.599998 L 117.75 25.599998 Q 117.75 27 116.45 27.5 L 113.05 28.7 Q 111.85 29 111.85 30.400002 Z M 108.15 45.2 L 108.15 33.1 Q 108.15 32.4 107.6 31.849998 Q 107.05 31.3 106.35 31.3 Q 106.05 31.3 105.75 31.400002 L 101.05 33.1 Q 99.85 33.6 99.85 34.8 L 99.85 46.9 Q 99.85 47.7 100.35 48.2 Q 100.85 48.7 101.65 48.7 Q 101.95 48.7 102.25 48.6 L 106.95 46.9 Q 108.15 46.4 108.15 45.2 Z M 141.85 67.9 L 141.85 80.1 Q 141.85 80.9 142.35 81.4 Q 142.85 81.9 143.65 81.9 Q 143.95001 81.9 144.25 81.8 L 145.05 81.5 Q 145.35 81.4 145.75 81.4 Q 146.55 81.4 147.15 82 Q 147.75 82.6 147.75 83.4 L 147.75 89.4 Q 147.75 90.7 146.45001 91.2 L 143.05 92.5 Q 141.85 93 141.85 94.1 L 141.85 108.7 Q 141.85 109.5 141.3 110.05 Q 140.75 110.600006 140.05 110.600006 Q 139.25 110.600006 138.70001 110.05 Q 138.15 109.5 138.15 108.7 L 138.15 96.8 Q 138.15 96 137.6 95.5 Q 137.05 95 136.35 95 Q 135.95 95 135.65 95.1 L 131.05 96.9 Q 129.85 97.3 129.85 98.5 L 129.85 113.100006 Q 129.85 113.9 129.25 114.45 Q 128.65 115 127.95 115 Q 127.25 115 126.7 114.45 Q 126.15 113.9 126.15 113.100006 L 126.15 101.2 Q 126.15 100.4 125.600006 99.9 Q 125.05 99.4 124.350006 99.4 Q 124.05 99.4 123.75 99.5 L 122.95 99.8 Q 122.75 99.9 122.25 99.9 Q 121.450005 99.9 120.850006 99.3 Q 120.25 98.7 120.25 97.9 L 120.25 91.9 Q 120.25 90.5 121.55 90 L 124.95 88.8 Q 126.15 88.5 126.15 87.1 L 126.15 74.9 Q 126.15 74.1 125.600006 73.6 Q 125.05 73.1 124.350006 73.1 Q 124.05 73.1 123.850006 73.2 L 122.95 73.5 Q 122.75 73.6 122.25 73.6 Q 121.450005 73.6 120.850006 73 Q 120.25 72.4 120.25 71.6 L 120.25 65.6 Q 120.25 64.3 121.55 63.8 L 125.05 62.5 Q 126.15 62 126.15 60.9 L 126.15 46.3 Q 126.15 45.5 126.7 44.95 Q 127.25 44.399998 127.95 44.399998 Q 128.65 44.399998 129.25 44.95 Q 129.85 45.5 129.85 46.3 L 129.85 58.199997 Q 129.85 59 130.4 59.5 Q 130.95 60 131.75 60 Q 132.05 60 132.35 59.9 L 136.95001 58.1 Q 138.15 57.6 138.15 56.4 L 138.15 41.899998 Q 138.15 41.1 138.70001 40.55 Q 139.25 40 140.05 40 Q 140.75 40 141.3 40.55 Q 141.85 41.1 141.85 41.899998 L 141.85 53.9 Q 141.85 54.6 142.35 55.1 Q 142.85 55.6 143.55 55.6 Q 143.85 55.6 144.25 55.5 L 145.05 55.199997 Q 145.25 55.1 145.75 55.1 Q 146.55 55.1 147.15 55.699997 Q 147.75 56.3 147.75 57.1 L 147.75 63.1 Q 147.75 64.5 146.45001 65 L 143.05 66.2 Q 141.85 66.5 141.85 67.9 Z M 138.15 82.7 L 138.15 70.6 Q 138.15 69.9 137.6 69.35 Q 137.05 68.8 136.35 68.8 Q 136.05 68.8 135.75 68.9 L 131.05 70.6 Q 129.85 71.1 129.85 72.3 L 129.85 84.4 Q 129.85 85.2 130.35 85.7 Q 130.85 86.2 131.65 86.2 Q 131.95 86.2 132.25 86.1 L 136.95001 84.4 Q 138.15 83.9 138.15 82.7 Z " fill="black"/>
    <path d="M 206.85 129.6 Q 207.15 133.1 209.05 135.45 Q 210.95 137.8 213.95 137.7 Q 215.15 137.6 215.15 138.8 Q 215.15 140 213.95 140 Q 211.75 140 207.4 139.4 Q 203.05 138.8 200.85 138.8 Q 198.65 138.8 194.3 139.4 Q 189.95 140 187.75 140 Q 186.55 140 186.55 138.8 Q 186.55 137.7 187.75 137.7 Q 190.75 137.7 192.85 135.3 Q 194.85 132.8 195.05 129.4 Q 195.15 128.7 194.55 128.15 Q 193.95 127.6 193.15 127.6 L 178.35 127.6 Q 176.75 127.6 176.05 126.8 Q 175.25 126 175.25 125.2 Q 175.25 124.8 175.45 124.7 Q 189.25 108.6 189.25 91.6 Q 189.25 90.9 189.65 90.45 Q 190.05 90 190.55 90 L 190.85 90 Q 195.15 91.3 197.95 91.35 Q 200.75 91.4 205.05 90 Q 205.25 90 205.55 90 Q 206.35 90 206.85 90.6 Q 207.25 91 206.75 91.6 L 180.95 121.6 Q 180.55 122.1 180.55 122.9 Q 180.55 123.6 181 124.1 Q 181.45 124.6 182.25 124.7 L 193.25 124.7 Q 194.05 124.7 194.55 124.15 Q 195.05 123.6 195.05 122.8 L 195.05 111.6 Q 195.05 110 195.85 109.4 Q 200.15 106.8 201.85 104.4 Q 202.85 103.2 204.55 99.4 Q 204.85 98.8 205.45 98.8 Q 205.95 98.8 206.35 99.2 Q 206.75 99.6 206.75 100.2 L 206.75 122.8 Q 206.75 123.6 207.25 124.1 Q 207.75 124.6 208.55 124.7 L 213.95 124.7 Q 214.65 124.7 215.05 125.1 Q 215.45 125.5 215.45 126.05 Q 215.45 126.6 215.05 127.1 Q 214.65 127.6 213.95 127.6 L 208.65 127.6 Q 207.75 127.6 207.25 128.25 Q 206.75 128.9 206.85 129.6 Z M 191.25 42.3 Q 185.35 42.3 185.35 45.6 Q 185.35 46.699997 187.15 47.949997 Q 188.95 49.2 188.95 50.3 Q 188.95 52.7 187.25 54.4 Q 185.55 56.1 183.15 56.1 Q 180.75 56.1 179.1 54.4 Q 177.45 52.7 177.45 50.3 Q 177.45 45.6 181.55 42.8 Q 185.65 40 191.25 40 Q 198.65 40 203.4 42.85 Q 208.15 45.699997 208.15 51.4 Q 208.15 55.2 207.35 57.4 Q 206.55 59.6 203.95 60.8 Q 202.55 61.4 202.55 62.9 Q 202.55 64.5 203.95 65.1 Q 209.55 67.7 209.55 76 Q 209.55 82.7 204.5 86.35 Q 199.45 90 191.65 90 Q 185.45 90 180.85 86.9 Q 176.25 83.8 176.25 78.7 Q 176.25 76 178.2 74.05 Q 180.15 72.1 182.85 72.1 Q 185.55 72.1 187.45 74.05 Q 189.35 76 189.35 78.7 Q 189.35 80 187.35 81.4 Q 185.35 82.8 185.35 84 Q 185.35 85.9 187.2 86.8 Q 189.05 87.7 191.65 87.7 Q 195.05 87.7 196.5 84.3 Q 197.95 80.9 197.95 76 L 197.95 74.4 Q 197.95 71 197.75 69.25 Q 197.55 67.5 196.4 65.95 Q 195.25 64.4 192.95 64.4 L 184.95 64.4 Q 183.55 64.4 183.55 62.9 Q 183.55 61.5 184.95 61.5 L 192.95 61.5 Q 194.75 61.5 195.8 60.9 Q 196.85 60.3 197.3 58.85 Q 197.75 57.4 197.85 56.1 Q 197.95 54.8 197.95 52.2 L 197.95 51.4 Q 197.95 42.3 191.25 42.3 Z " fill="black"/>
    <path d="M 252.25 168.4 Q 252.25 162.4 258.85 156.85 Q 265.45 151.3 272.35 151.3 Q 275.15 151.3 277.7 152 Q 280.25 152.7 282.55 155.2 Q 284.85 157.7 284.85 161.6 Q 284.85 167.1 278.15 172.9 Q 271.45 178.7 264.75 178.7 Q 261.95 178.7 259.4 178 Q 256.85 177.3 254.55 174.8 Q 252.25 172.3 252.25 168.4 Z " fill="black"/>
    <rect x="243.5" y="163.75" width="50" height="2.5" fill="black"/>
    <path d="M 259.52475 222.76134 Q 261.07608 219.56325 264.1071 217.6778 Q 267.13812 215.79236 271.38632 215.79236 Q 273.43884 215.79236 274.91855 216.17422 Q 276.39825 216.55609 278.45078 217.22433 L 278.25986 224.57518 L 275.15723 224.57518 L 274.1071 219.70645 Q 273.8207 218.36993 270.4794 218.36993 Q 267.13812 218.36993 265.20496 221.06683 Q 263.2718 223.76372 263.2718 228.72792 Q 263.2718 234.36038 265.4436 237.29594 Q 267.61545 240.2315 271.09995 240.2315 Q 273.1047 240.2315 274.89468 239.61098 Q 276.68466 238.99045 277.97345 238.13127 L 278.88037 240.04057 Q 277.59158 241.37709 275.08563 242.45108 Q 272.57965 243.52505 270.00208 243.52505 Q 266.088 243.52505 263.3911 241.75896 Q 260.6942 239.99284 259.33383 236.91408 Q 257.97345 233.83533 257.97345 229.92123 Q 257.97345 225.95943 259.52475 222.76134 Z " fill="black"/>
    <path d="M 357.25 155.9 Q 357.25 149.9 363.85 144.35 Q 370.45 138.8 377.35 138.8 Q 380.15 138.8 382.7 139.5 Q 385.25 140.2 387.55 142.7 Q 389.85 145.2 389.85 149.1 Q 389.85 154.6 383.15 160.4 Q 376.45 166.2 369.75 166.2 Q 366.95 166.2 364.4 165.5 Q 361.85 164.8 359.55 162.3 Q 357.25 159.8 357.25 155.9 Z " fill="black"/>
    <path d="M 367.341 242.09308 Q 364.95438 240.6611 363.54626 237.70168 Q 362.13812 234.74225 362.13812 230.39857 Q 362.13812 226.3413 363.80878 223 Q 365.47943 219.6587 368.60593 217.72554 Q 371.73242 215.79236 375.98062 215.79236 Q 378.41498 215.79236 380.41977 216.31741 L 380.41977 207.39142 L 375.55103 206.81862 L 375.55103 204.76611 L 384.1429 203.90692 L 384.2861 203.90692 L 385.3362 204.67065 L 385.3362 240.56563 L 388.10474 240.56563 L 388.10474 242.76134 Q 386.57727 243.09546 385.45557 243.28639 Q 384.33383 243.47733 383.09277 243.47733 Q 381.85175 243.47733 381.3267 243.04773 Q 380.8016 242.61813 380.8016 241.23389 L 380.8016 239.70645 Q 379.4651 241.32936 377.29327 242.4272 Q 375.12143 243.52505 372.59158 243.52505 Q 369.72763 243.52505 367.341 242.09308 Z M 377.98538 239.30072 Q 379.6083 238.4654 380.41977 237.36754 L 380.41977 219.89737 Q 380.0379 219.32458 378.6298 218.87112 Q 377.22168 218.41766 375.64648 218.41766 Q 371.92334 218.41766 369.70377 221.25775 Q 367.4842 224.09785 367.4842 230.01671 Q 367.4842 235.17184 369.44122 237.65393 Q 371.3983 240.13603 374.50092 240.13603 Q 376.3625 240.13603 377.98538 239.30072 Z " fill="black"/>
    <path d="M 462.25 143.4 Q 462.25 137.4 468.85 131.85 Q 475.45 126.3 482.35 126.3 Q 485.15 126.3 487.7 127 Q 490.25 127.7 492.55 130.2 Q 494.85 132.7 494.85 136.6 Q 494.85 142.1 488.15 147.9 Q 481.45 153.7 474.75 153.7 Q 471.95 153.7 469.4 153 Q 466.85 152.3 464.55 149.8 Q 462.25 147.3 462.25 143.4 Z " fill="black"/>
    <path d="M 471.21927 239.75418 Q 468.18826 235.98329 468.18826 229.68257 Q 468.18826 225.52983 469.76343 222.37947 Q 471.3386 219.22913 474.1787 217.51074 Q 477.0188 215.79236 480.64648 215.79236 Q 485.08563 215.79236 487.54385 218.2506 Q 490.00208 220.70883 490.1453 225.29117 Q 490.1453 228.20287 489.81116 229.73032 L 473.3911 229.73032 Q 473.48657 234.45584 475.58682 237.34367 Q 477.68704 240.2315 481.5534 240.2315 Q 483.4627 240.2315 485.5391 239.53938 Q 487.61545 238.84726 488.76105 237.89261 L 489.66797 239.99284 Q 488.28372 241.42482 485.56296 242.47495 Q 482.8422 243.52505 480.02597 243.52505 Q 474.2503 243.52505 471.21927 239.75418 Z M 484.89468 227.20047 Q 485.0379 226.19809 485.0379 225.14798 Q 484.99014 222.04535 483.72525 220.25537 Q 482.46033 218.4654 479.73956 218.4654 Q 476.97107 218.4654 475.32428 220.47017 Q 473.67752 222.47495 473.43884 227.20047 L 484.89468 227.20047 Z " fill="black"/>
    <path d="M 567.25 130.9 Q 567.25 124.9 573.85 119.35 Q 580.45 113.8 587.35 113.8 Q 590.15 113.8 592.7 114.5 Q 595.25 115.2 597.55 117.7 Q 599.85 120.2 599.85 124.1 Q 599.85 129.6 593.15 135.4 Q 586.45 141.2 579.75 141.2 Q 576.95 141.2 574.4 140.5 Q 571.85 139.8 569.55 137.3 Q 567.25 134.8 567.25 130.9 Z " fill="black"/>
    <path d="M 578.03314 219.6587 L 573.54626 219.6587 L 573.54626 217.46301 L 578.03314 216.55609 L 578.03314 214.31265 Q 578.03314 211.35323 579.5844 208.87112 Q 581.13574 206.38902 583.6417 204.93317 Q 586.14764 203.47733 588.9639 203.47733 Q 590.5868 203.47733 591.78015 203.90692 L 591.78015 208.68019 Q 591.3505 208.29834 590.08563 207.94034 Q 588.8207 207.58234 587.2933 207.58234 Q 585.0498 207.58234 584.02356 208.7518 Q 582.9973 209.92123 582.9973 212.7852 L 582.9973 216.55609 L 589.5844 216.55609 L 589.5844 219.6587 L 582.9973 219.6587 L 582.9973 240.27924 L 588.29565 240.6611 L 588.29565 243 L 573.9758 243 L 573.9758 240.6611 L 578.03314 240.2315 L 578.03314 219.6587 Z " fill="black"/>
    <path d="M 672.25 118.4 Q 672.25 112.4 678.85 106.85 Q 685.45 101.3 692.35 101.3 Q 695.15 101.3 697.7 102 Q 700.25 102.7 702.55 105.2 Q 704.85 107.7 704.85 111.6 Q 704.85 117.1 698.15 122.9 Q 691.45 128.7 684.75 128.7 Q 681.95 128.7 679.4 128 Q 676.85 127.3 674.55 124.8 Q 672.25 122.3 672.25 118.4 Z " fill="black"/>
    <path d="M 668.64465 229.22911 Q 673.13153 227.10501 680.00507 226.96182 L 680.00507 225.6253 Q 680.00507 223.38187 679.5277 222.09308 Q 679.0504 220.80429 677.8809 220.20764 Q 676.7115 219.61098 674.56354 219.61098 Q 672.12915 219.61098 670.196 220.3031 Q 668.2628 220.99522 666.3535 221.99762 L 665.16016 219.51552 Q 665.7807 218.99045 667.45135 218.13127 Q 669.122 217.27208 671.3177 216.60382 Q 673.5134 215.93556 675.7091 215.93556 Q 679.09814 215.93556 681.07904 216.86635 Q 683.05994 217.79713 683.9191 219.84964 Q 684.7783 221.90215 684.7783 225.3389 L 684.7783 240.6611 L 687.59454 240.6611 L 687.59454 242.76134 Q 686.6399 243 685.184 243.23866 Q 683.7282 243.47733 682.6304 243.47733 Q 681.2938 243.47733 680.8165 243.0716 Q 680.3392 242.66588 680.3392 241.28162 L 680.3392 239.70645 Q 678.9072 241.13843 676.8308 242.33174 Q 674.75446 243.52505 672.12915 243.52505 Q 668.6924 243.52505 666.4251 241.54416 Q 664.1578 239.56325 664.1578 235.84009 Q 664.1578 231.35323 668.64465 229.22911 Z M 677.04565 239.51552 Q 678.6685 238.75179 680.00507 237.70168 L 680.00507 229.49165 Q 674.8022 229.49165 672.153 231.0907 Q 669.50385 232.68974 669.50385 235.2673 Q 669.50385 237.84486 670.7688 239.06206 Q 672.0337 240.27924 674.18164 240.27924 Q 675.4227 240.27924 677.04565 239.51552 Z " fill="black"/>
    <path d="M 714.2473 236.24582 Q 712.57666 239.61098 709.47406 241.56802 Q 706.3714 243.52505 702.2187 243.52505 Q 701.07306 243.52505 699.7366 243.33412 Q 698.4 243.1432 697.5886 242.8568 L 697.7318 246.86635 L 697.7318 251.68735 L 702.696 252.2124 L 702.696 254.55132 L 689.3786 254.55132 L 689.3786 252.2124 L 692.8153 251.68735 L 692.8153 220.18378 L 689.3309 219.32458 L 689.3309 216.74701 L 696.1089 215.88783 L 696.20435 215.88783 L 697.2067 216.74701 L 697.2067 219.56325 Q 698.63873 217.98807 700.7628 216.89021 Q 702.8869 215.79236 705.5122 215.79236 Q 708.3284 215.79236 710.6912 217.1766 Q 713.054 218.56085 714.48596 221.47255 Q 715.91797 224.38425 715.91797 228.8234 Q 715.91797 232.88068 714.2473 236.24582 Z M 700.16614 219.89737 Q 698.591 220.6611 697.7318 221.56802 L 697.7318 239.56325 Q 698.0659 240.13603 699.42633 240.5895 Q 700.7867 241.04295 702.4096 241.04295 Q 706.085 241.04295 708.3523 238.13127 Q 710.6196 235.21957 710.6196 229.34845 Q 710.6196 224.19331 708.63873 221.66348 Q 706.65784 219.13365 703.5552 219.13365 Q 701.74133 219.13365 700.16614 219.89737 Z " fill="black"/>
    <path d="M 723.6685 229.22911 Q 728.1554 227.10501 735.02893 226.96182 L 735.02893 225.6253 Q 735.02893 223.38187 734.5516 222.09308 Q 734.0743 220.80429 732.9048 220.20764 Q 731.73535 219.61098 729.5874 219.61098 Q 727.153 219.61098 725.21985 220.3031 Q 723.2867 220.99522 721.3774 221.99762 L 720.184 219.51552 Q 720.80457 218.99045 722.4752 218.13127 Q 724.1459 217.27208 726.34155 216.60382 Q 728.5373 215.93556 730.733 215.93556 Q 734.122 215.93556 736.1029 216.86635 Q 738.0838 217.79713 738.943 219.84964 Q 739.8022 221.90215 739.8022 225.3389 L 739.8022 240.6611 L 742.6184 240.6611 L 742.6184 242.76134 Q 741.66376 243 740.2079 243.23866 Q 738.7521 243.47733 737.65424 243.47733 Q 736.3177 243.47733 735.8404 243.0716 Q 735.36304 242.66588 735.36304 241.28162 L 735.36304 239.70645 Q 733.9311 241.13843 731.8547 242.33174 Q 729.7783 243.52505 727.153 243.52505 Q 723.71625 243.52505 721.449 241.54416 Q 719.18164 239.56325 719.18164 235.84009 Q 719.18164 231.35323 723.6685 229.22911 Z M 732.0695 239.51552 Q 733.6924 238.75179 735.02893 237.70168 L 735.02893 229.49165 Q 729.82605 229.49165 727.1769 231.0907 Q 724.5277 232.68974 724.5277 235.2673 Q 724.5277 237.84486 725.79266 239.06206 Q 727.05756 240.27924 729.2055 240.27924 Q 730.4466 240.27924 732.0695 239.51552 Z " fill="black"/>
    <path d="M 799.25 105.9 Q 799.25 99.9 805.85 94.35 Q 812.45 88.8 819.35 88.8 Q 822.15 88.8 824.7 89.5 Q 827.25 90.2 829.55 92.7 Q 831.85 95.2 831.85 99.1 Q 831.85 104.6 825.15 110.4 Q 818.45 116.2 811.75 116.2 Q 808.95 116.2 806.4 115.5 Q 803.85 114.8 801.55 112.3 Q 799.25 109.8 799.25 105.9 Z " fill="black"/>
    <path d="M 762.2691 229.22911 Q 766.756 227.10501 773.6295 226.96182 L 773.6295 225.6253 Q 773.6295 223.38187 773.15216 222.09308 Q 772.67487 220.80429 771.5054 220.20764 Q 770.33594 219.61098 768.188 219.61098 Q 765.7536 219.61098 763.82043 220.3031 Q 761.88727 220.99522 759.97797 221.99762 L 758.7846 219.51552 Q 759.40515 218.99045 761.0758 218.13127 Q 762.74646 217.27208 764.94214 216.60382 Q 767.1379 215.93556 769.33356 215.93556 Q 772.7226 215.93556 774.7035 216.86635 Q 776.6844 217.79713 777.5436 219.84964 Q 778.4028 221.90215 778.4028 225.3389 L 778.4028 240.6611 L 781.219 240.6611 L 781.219 242.76134 Q 780.26434 243 778.8085 243.23866 Q 777.35266 243.47733 776.2548 243.47733 Q 774.9183 243.47733 774.441 243.0716 Q 773.9636 242.66588 773.9636 241.28162 L 773.9636 239.70645 Q 772.5317 241.13843 770.45526 242.33174 Q 768.3789 243.52505 765.7536 243.52505 Q 762.31683 243.52505 760.04956 241.54416 Q 757.7822 239.56325 757.7822 235.84009 Q 757.7822 231.35323 762.2691 229.22911 Z M 770.6701 239.51552 Q 772.29297 238.75179 773.6295 237.70168 L 773.6295 229.49165 Q 768.42664 229.49165 765.77747 231.0907 Q 763.1283 232.68974 763.1283 235.2673 Q 763.1283 237.84486 764.39325 239.06206 Q 765.65814 240.27924 767.8061 240.27924 Q 769.0472 240.27924 770.6701 239.51552 Z " fill="black"/>
    <path d="M 807.8717 236.24582 Q 806.20105 239.61098 803.09845 241.56802 Q 799.9958 243.52505 795.8431 243.52505 Q 794.69745 243.52505 793.36096 243.33412 Q 792.0244 243.1432 791.213 242.8568 L 791.3562 246.86635 L 791.3562 251.68735 L 796.3204 252.2124 L 796.3204 254.55132 L 783.003 254.55132 L 783.003 252.2124 L 786.4397 251.68735 L 786.4397 220.18378 L 782.95526 219.32458 L 782.95526 216.74701 L 789.7333 215.88783 L 789.82874 215.88783 L 790.8311 216.74701 L 790.8311 219.56325 Q 792.2631 217.98807 794.3872 216.89021 Q 796.5113 215.79236 799.1366 215.79236 Q 801.9528 215.79236 804.3156 217.1766 Q 806.6784 218.56085 808.11035 221.47255 Q 809.54236 224.38425 809.54236 228.8234 Q 809.54236 232.88068 807.8717 236.24582 Z M 793.7905 219.89737 Q 792.2154 220.6611 791.3562 221.56802 L 791.3562 239.56325 Q 791.6903 240.13603 793.0507 240.5895 Q 794.4111 241.04295 796.034 241.04295 Q 799.7094 241.04295 801.9767 238.13127 Q 804.244 235.21957 804.244 229.34845 Q 804.244 224.19331 802.2631 221.66348 Q 800.2822 219.13365 797.17957 219.13365 Q 795.3657 219.13365 793.7905 219.89737 Z " fill="black"/>
    <path d="M 817.29297 229.22911 Q 821.77985 227.10501 828.6534 226.96182 L 828.6534 225.6253 Q 828.6534 223.38187 828.176 222.09308 Q 827.6987 220.80429 826.52924 220.20764 Q 825.3598 219.61098 823.21185 219.61098 Q 820.77747 219.61098 818.8443 220.3031 Q 816.91113 220.99522 815.00183 221.99762 L 813.8085 219.51552 Q 814.429 218.99045 816.0997 218.13127 Q 817.7703 217.27208 819.966 216.60382 Q 822.16174 215.93556 824.3574 215.93556 Q 827.74646 215.93556 829.72736 216.86635 Q 831.70825 217.79713 832.56744 219.84964 Q 833.42664 221.90215 833.42664 225.3389 L 833.42664 240.6611 L 836.24286 240.6611 L 836.24286 242.76134 Q 835.2882 243 833.83234 243.23866 Q 832.3765 243.47733 831.2787 243.47733 Q 829.94214 243.47733 829.46484 243.0716 Q 828.9875 242.66588 828.9875 241.28162 L 828.9875 239.70645 Q 827.55554 241.13843 825.4791 242.33174 Q 823.4028 243.52505 820.77747 243.52505 Q 817.3407 243.52505 815.0734 241.54416 Q 812.8061 239.56325 812.8061 235.84009 Q 812.8061 231.35323 817.29297 229.22911 Z M 825.694 239.51552 Q 827.31683 238.75179 828.6534 237.70168 L 828.6534 229.49165 Q 823.4505 229.49165 820.80133 231.0907 Q 818.15216 232.68974 818.15216 235.2673 Q 818.15216 237.84486 819.4171 239.06206 Q 820.682 240.27924 822.82996 240.27924 Q 824.07104 240.27924 825.694 239.51552 Z " fill="black"/>
    <path d="M 841.6068 220.18378 L 838.17004 219.32458 L 838.17004 216.74701 L 844.9958 215.88783 L 845.139 215.88783 L 846.14136 216.74701 L 846.14136 218.75179 L 846.0936 219.89737 Q 847.812 218.36993 850.62823 217.12888 Q 853.4445 215.88783 856.02203 215.88783 Q 859.02924 215.88783 860.67596 217.03342 Q 862.32275 218.179 862.991 220.54176 Q 863.6593 222.90454 863.6593 226.91408 L 863.6593 240.27924 L 867.00055 240.61337 L 867.00055 243 L 855.6879 243 L 855.6879 240.6611 L 858.64734 240.27924 L 858.64734 226.86635 Q 858.64734 224.05013 858.2655 222.45108 Q 857.8836 220.85204 856.8335 220.06444 Q 855.7834 219.27686 853.7786 219.27686 Q 852.06024 219.27686 850.1032 220.13605 Q 848.1462 220.99522 846.6187 222.14081 L 846.6187 240.2315 L 849.86456 240.6611 L 849.86456 243 L 838.5996 243 L 838.5996 240.6611 L 841.6068 240.2315 L 841.6068 220.18378 Z " fill="black"/>
    <path d="M 874.5125 239.18138 Q 874.98987 239.89737 876.54114 240.47017 Q 878.09247 241.04295 879.81085 241.04295 Q 882.5316 241.04295 883.8204 239.99284 Q 885.1092 238.94272 885.1092 237.08115 Q 885.1092 235.79236 884.2977 234.8377 Q 883.48627 233.88306 882.0304 233.1432 Q 880.5746 232.40334 877.8538 231.35323 Q 874.1784 229.96898 872.4839 228.0358 Q 870.78937 226.10263 870.78937 222.95227 Q 870.78937 220.85204 872.0543 219.27686 Q 873.3192 217.70168 875.53876 216.81862 Q 877.75836 215.93556 880.4791 215.93556 Q 882.6748 215.93556 884.3216 216.26968 Q 885.9684 216.60382 886.97076 216.93796 Q 887.97314 217.27208 888.30725 217.36755 L 888.30725 223.28639 L 885.39557 223.28639 L 884.4409 219.75418 Q 884.15454 219.18138 882.91345 218.77567 Q 881.6724 218.36993 880.14496 218.36993 Q 877.997 218.36993 876.6844 219.32458 Q 875.3717 220.27924 875.3717 221.90215 Q 875.3717 223.33414 876.06384 224.26492 Q 876.756 225.19571 877.8061 225.7685 Q 878.8562 226.3413 880.67004 227.10501 L 881.6247 227.48688 Q 884.2977 228.53699 885.9684 229.49165 Q 887.63904 230.4463 888.76074 231.99762 Q 889.88245 233.54892 889.88245 235.79236 Q 889.88245 239.32458 887.1378 241.42482 Q 884.3932 243.52505 879.61993 243.52505 Q 877.281 243.52505 874.7273 242.88066 Q 872.17365 242.23628 870.5507 241.56802 L 870.5507 235.45824 L 873.6533 235.45824 L 874.5125 239.18138 Z " fill="black"/>
    <path d="M 896.34424 239.18138 Q 896.8216 239.89737 898.37286 240.47017 Q 899.9242 241.04295 901.6426 241.04295 Q 904.36334 241.04295 905.6521 239.99284 Q 906.9409 238.94272 906.9409 237.08115 Q 906.9409 235.79236 906.12946 234.8377 Q 905.318 233.88306 903.8622 233.1432 Q 902.4063 232.40334 899.68555 231.35323 Q 896.01013 229.96898 894.3156 228.0358 Q 892.6211 226.10263 892.6211 222.95227 Q 892.6211 220.85204 893.88605 219.27686 Q 895.15094 217.70168 897.3705 216.81862 Q 899.5901 215.93556 902.31085 215.93556 Q 904.50653 215.93556 906.1533 216.26968 Q 907.8001 216.60382 908.8025 216.93796 Q 909.8049 217.27208 910.139 217.36755 L 910.139 223.28639 L 907.2273 223.28639 L 906.27264 219.75418 Q 905.98627 219.18138 904.7452 218.77567 Q 903.50415 218.36993 901.9767 218.36993 Q 899.82874 218.36993 898.5161 219.32458 Q 897.2034 220.27924 897.2034 221.90215 Q 897.2034 223.33414 897.89557 224.26492 Q 898.5877 225.19571 899.6378 225.7685 Q 900.6879 226.3413 902.5018 227.10501 L 903.4564 227.48688 Q 906.12946 228.53699 907.8001 229.49165 Q 909.47076 230.4463 910.59247 231.99762 Q 911.7142 233.54892 911.7142 235.79236 Q 911.7142 239.32458 908.96954 241.42482 Q 906.2249 243.52505 901.45166 243.52505 Q 899.11273 243.52505 896.559 242.88066 Q 894.0054 242.23628 892.38245 241.56802 L 892.38245 235.45824 L 895.48505 235.45824 L 896.34424 239.18138 Z " fill="black"/>
    <path d="M 915.5029 222.23628 Q 917.26904 219.08592 920.15686 217.43915 Q 923.04474 215.79236 926.33826 215.79236 Q 932.3526 215.79236 935.3836 219.61098 Q 938.4147 223.4296 938.4147 229.63484 Q 938.4147 233.97852 936.64856 237.12888 Q 934.88245 240.27924 931.99457 241.90215 Q 929.10675 243.52505 925.81323 243.52505 Q 919.7989 243.52505 916.7679 239.70645 Q 913.7368 235.88783 913.7368 229.68257 Q 913.7368 225.38663 915.5029 222.23628 Z M 931.1593 238.08353 Q 932.92535 235.36276 932.92535 230.01671 Q 932.92535 224.71838 931.3025 221.61575 Q 929.67957 218.51312 926.0996 218.51312 Q 922.806 218.51312 921.01605 221.23389 Q 919.2261 223.95465 919.2261 229.30072 Q 919.2261 234.59904 920.8967 237.70168 Q 922.5674 240.80429 926.0996 240.80429 Q 929.3932 240.80429 931.1593 238.08353 Z " fill="black"/>
    <path d="M 943.7787 220.18378 L 940.3419 219.32458 L 940.3419 216.74701 L 947.16766 215.88783 L 947.31085 215.88783 L 948.31323 216.74701 L 948.31323 218.75179 L 948.2655 219.89737 Q 949.9839 218.36993 952.8001 217.12888 Q 955.6164 215.88783 958.1939 215.88783 Q 961.2011 215.88783 962.84784 217.03342 Q 964.4946 218.179 965.1629 220.54176 Q 965.8312 222.90454 965.8312 226.91408 L 965.8312 240.27924 L 969.1724 240.61337 L 969.1724 243 L 957.8598 243 L 957.8598 240.6611 L 960.8192 240.27924 L 960.8192 226.86635 Q 960.8192 224.05013 960.4374 222.45108 Q 960.0555 220.85204 959.0054 220.06444 Q 957.95526 219.27686 955.9505 219.27686 Q 954.2321 219.27686 952.2751 220.13605 Q 950.31805 220.99522 948.7906 222.14081 L 948.7906 240.2315 L 952.03644 240.6611 L 952.03644 243 L 940.7715 243 L 940.7715 240.6611 L 943.7787 240.2315 L 943.7787 220.18378 Z " fill="black"/>
    <path d="M 982.25 93.4 Q 982.25 87.4 988.85 81.85 Q 995.45 76.3 1002.35 76.3 Q 1005.15 76.3 1007.7 77 Q 1010.25 77.7 1012.55 80.2 Q 1014.85 82.7 1014.85 86.6 Q 1014.85 92.1 1008.15 97.9 Q 1001.45 103.7 994.75 103.7 Q 991.95 103.7 989.4 103 Q 986.85 102.3 984.55 99.8 Q 982.25 97.3 982.25 93.4 Z " fill="black"/>
    <path d="M 996.8995 207.24821 L 1002.1501 207.24821 L 1013.74915 240.18378 L 1016.70856 240.6611 L 1016.70856 243 L 1004.1071 243 L 1004.1071 240.6611 L 1008.069 240.18378 L 1005.8255 233.11934 L 991.8876 233.11934 L 989.6441 240.18378 L 993.74915 240.6611 L 993.74915 243 L 982.43646 243 L 982.43646 240.6611 L 985.39594 240.18378 L 996.8995 207.24821 Z M 999.9067 214.88544 L 998.7133 210.68497 L 997.56775 214.98091 L 992.74677 230.3031 L 1004.9186 230.3031 L 999.9067 214.88544 Z " fill="black"/>
    <rect x="1087.25" y="40" width="3.7500002" height="100" fill="black"/>
    <line x1="283.25" y1="75.71429" x2="283.25" y2="161" stroke="black" stroke-width="3"/>
    <line x1="388.25" y1="63.214287" x2="388.25" y2="148.5" stroke="black" stroke-width="3"/>
    <line x1="493.25" y1="50.714287" x2="493.25" y2="136" stroke="black" stroke-width="3"/>
    <line x1="598.25" y1="38.214287" x2="598.25" y2="123.5" stroke="black" stroke-width="3"/>
    <line x1="703.25" y1="25.714287" x2="703.25" y2="111" stroke="black" stroke-width="3"/>
    <line x1="830.25" y1="13.214287" x2="830.25" y2="98.5" stroke="black" stroke-width="3"/>
    <line x1="983.75" y1="94" x2="983.75" y2="179.2857" stroke="black" stroke-width="3"/>
    <rect x="0" y="0" width="1092.25" height="254.55132" stroke="white" stroke-width="1" fill="none"/>
</svg>
