<svg xmlns="http://www.w3.org/2000/svg" xmlns:xlink="http://www.w3.org/1999/xlink" width="280.25" height="102.55" viewBox="0 0 280.25 102.55">
    <defs visibility="hidden"/>
    <line x1="1.25" y1="1.300003" x2="279" y2="1.300003" stroke="black" stroke-width="2.5"/>
    <line x1="1.25" y1="26.300003" x2="279" y2="26.300003" stroke="black" stroke-width="2.5"/>
    <line x1="1.25" y1="51.300003" x2="279" y2="51.300003" stroke="black" stroke-width="2.5"/>
    <line x1="1.25" y1="76.3" x2="279" y2="76.3" stroke="black" stroke-width="2.5"/>
    <line x1="1.25" y1="101.3" x2="279" y2="101.3" stroke="black" stroke-width="2.5"/>
    <path d="M 68.25 38.800003 Q 68.25 36.700005 69.75 35.200005 Q 71.25 33.700005 73.350006 33.700005 Q 75.450005 33.700005 76.950005 35.200005 Q 78.450005 36.700005 78.450005 38.800003 Q 78.450005 40.9 76.950005 42.4 Q 75.450005 43.9 73.350006 43.9 Q 71.25 43.9 69.75 42.4 Q 68.25 40.9 68.25 38.800003 Z M 68.25 13.800003 Q 68.25 11.700005 69.75 10.200005 Q 71.25 8.700005 73.350006 8.700005 Q 75.450005 8.700005 76.950005 10.200005 Q 78.450005 11.700005 78.450005 13.800003 Q 78.450005 15.900002 76.950005 17.400002 Q 75.450005 18.900002 73.350006 18.900002 Q 71.25 18.900002 69.75 17.400002 Q 68.25 15.900002 68.25 13.800003 Z M 23.45 14.400002 Q 27.95 14.400002 30.85 17.300003 Q 33.75 20.200003 33.75 24.400003 Q 33.75 28.800003 30.85 31.900003 Q 27.95 35.000004 23.75 35.000004 Q 19.25 35.000004 15.9 31.900003 Q 12.55 28.800003 12.55 24.400003 Q 12.55 13.600002 19.75 6.800003 Q 26.95 0 37.65 0 Q 49.75 0 57.4 6.9500046 Q 65.05 13.900002 65.05 25.100002 Q 65.05 60.500004 13.65 83.200005 Q 12.95 83.5 12.55 83.5 Q 11.25 83.5 11.25 82.200005 Q 11.25 81.5 12.55 80.700005 Q 20.55 76 25.8 72.40001 Q 31.050001 68.8 36.65 63.700005 Q 42.25 58.600002 45.45 53.450005 Q 48.65 48.300003 50.75 41.300003 Q 52.850002 34.300003 52.850002 26.100002 Q 52.850002 15.700005 48.3 9.400002 Q 43.75 3.1000023 35.85 3.1000023 Q 31.050001 3.1000023 27.150002 5.3500023 Q 23.25 7.6000023 21.75 11.500004 Q 21.35 12.800003 21.85 13.500004 Q 22.55 14.400002 23.45 14.400002 Z " fill="black"/>
    <path d="M 135.25 24.800003 Q 135.25 20.400003 140.05 16.500004 Q 144.85 12.600002 153.85 12.600002 Q 159.95 12.600002 164.95 14.050003 Q 169.95 15.500004 173.45 19.050003 Q 176.95 22.600002 176.95 27.800003 Q 176.95 33.000004 172.4 36.500004 Q 167.85 40.000004 159.75 40.000004 Q 154.95 40.000004 150.95 39.300003 Q 146.95 38.600002 143.25 37.000004 Q 139.55 35.4 137.4 32.300003 Q 135.25 29.200003 135.25 24.800003 Z M 153.85 15.300003 Q 145.05 15.300003 145.05 18.400002 Q 145.05 21.900003 150.4 29.600002 Q 155.75 37.300003 159.35 37.300003 Q 167.95 37.300003 167.95 34.200005 Q 167.95 30.400003 162.4 22.850002 Q 156.85 15.300003 153.85 15.300003 Z " fill="black"/>
    <rect x="275.25" y="1.300003" width="3.7500002" height="100" fill="black"/>
    <rect x="0" y="0" width="280.25" height="102.55" stroke="white" stroke-width="1" fill="none"/>
</svg>
