<svg xmlns="http://www.w3.org/2000/svg" xmlns:xlink="http://www.w3.org/1999/xlink" width="3097.25" height="442.3857" viewBox="0 0 3097.25 442.3857">
    <line x1="25" y1="49.600006" x2="25" y2="401.6" stroke="black" stroke-width="2.5"/>
    <rect x="0" y="44.600006" width="12.5" height="362" fill="black"/>
    <path d="M 0 44.600006 L 25 34.600006 L 25 36.600006 L 12.5 44.600006 " fill="black"/>
    <path d="M 0 406.6 L 25 416.6 L 25 414.6 L 12.5 406.6 " fill="black"/>
    <line x1="25" y1="49.600006" x2="3096" y2="49.600006" stroke="black" stroke-width="2.5"/>
    <line x1="25" y1="74.600006" x2="3096" y2="74.600006" stroke="black" stroke-width="2.5"/>
    <line x1="25" y1="99.600006" x2="3096" y2="99.600006" stroke="black" stroke-width="2.5"/>
    <line x1="25" y1="124.600006" x2="3096" y2="124.600006" stroke="black" stroke-width="2.5"/>
    <line x1="25" y1="149.6" x2="3096" y2="149.6" stroke="black" stroke-width="2.5"/>
    <line x1="25" y1="301.6" x2="3096" y2="301.6" stroke="black" stroke-width="2.5"/>
    <line x1="25" y1="326.6" x2="3096" y2="326.6" stroke="black" stroke-width="2.5"/>
    <line x1="25" y1="351.6" x2="3096" y2="351.6" stroke="black" stroke-width="2.5"/>
    <line x1="25" y1="376.6" x2="3096" y2="376.6" stroke="black" stroke-width="2.5"/>
    <line x1="25" y1="401.6" x2="3096" y2="401.6" stroke="black" stroke-width="2.5"/>
    <path d="M 59.800003 68.100006 Q 57.5 60.800007 56.6 55.100006 Q 55.800003 50.300003 55.800003 43.9 Q 55.800003 41.700005 55.9 39.500008 Q 56.300003 30.000008 59.800003 22.050003 Q 63.300003 14.100006 70.3 9.900002 Q 70.8 9.600006 71.600006 9.600006 Q 72.3 9.600006 72.8 10.100006 Q 78.4 15.700005 81.4 24.400002 Q 84.4 33.100006 84.4 42.000008 Q 84.4 52.300003 80 62.200005 Q 75.8 72.100006 68.2 79.700005 Q 67.600006 80.3 67.8 81.3 L 71.8 97.3 Q 72.100006 98.90001 73.8 98.700005 Q 75.4 98.50001 76.9 98.50001 Q 82.7 98.50001 87.4 100.8 Q 92.100006 103.100006 95 106.8 Q 97.9 110.50001 99.450005 114.950005 Q 101 119.40001 101 124.100006 Q 101 132.70001 96.2 139.65001 Q 91.4 146.6 84.7 148.8 Q 83.3 149.3 83.600006 150.90001 Q 86.100006 162.70001 86.2 170.8 Q 86.2 173.90001 85.8 176.90001 Q 85 183.8 79.8 189 Q 74.600006 194.20001 67.4 194.20001 Q 58.6 194.20001 52.5 188.90001 Q 46.4 183.6 46.4 175 Q 46.4 170.6 49.5 167.40001 Q 52.6 164.20001 56.800003 164.20001 Q 61.1 164.20001 64.05 167.25 Q 67 170.3 67 174.5 Q 67 178.1 64.6 180.8 Q 62.2 183.6 58.800003 183.90001 Q 57.6 184 57.2 185.1 Q 56.800003 186.20001 58 187.1 Q 61.6 189.90001 66.8 189.90001 Q 72.5 189.90001 76.65 185.8 Q 80.8 181.70001 81.5 176.5 Q 82 172.90001 82 169.3 Q 82 161.5 79.600006 152 Q 79.2 150.3 77.4 150.5 Q 73.4 151 70 151 Q 55.2 151 45.1 141.70001 Q 35 132.40001 35 116.40001 Q 35 111.50001 36.15 106.75001 Q 37.3 102.00001 38.75 98.55 Q 40.2 95.100006 43.25 90.55 Q 46.3 86 48.15 83.600006 Q 50 81.200005 54 76.450005 Q 58 71.700005 59.5 69.8 Q 60.1 69.100006 59.800003 68.100006 Z M 75.4 113.8 L 81.9 143.3 Q 82.2 144.6 83.7 144.6 Q 84.100006 144.6 84.4 144.5 Q 88.5 142.8 91.2 137.90001 Q 93.9 133 93.9 128.20001 Q 93.9 121.200005 89.8 116.40001 Q 85.600006 111.50001 77.2 111.50001 Q 76.5 111.50001 75.95 112.05 Q 75.4 112.600006 75.4 113.3 Q 75.3 113.600006 75.4 113.8 Z M 61.6 86 Q 60 87.8 56.85 91.15001 Q 53.7 94.50001 52.15 96.25001 Q 50.6 98.00001 48.35 101.200005 Q 46.1 104.40001 45 107.100006 Q 43.9 109.8 43.05 113.700005 Q 42.2 117.600006 42.2 122.00001 Q 42.2 128.1 45.95 133.8 Q 49.7 139.5 56.25 143.1 Q 62.800003 146.70001 70.3 146.70001 Q 73 146.70001 76.3 146.40001 Q 77.100006 146.3 77.600006 145.65001 Q 78.100006 145 77.9 144.20001 L 71.4 114.3 Q 71.100006 112.90001 69.5 112.90001 Q 69.2 112.90001 68.8 113.00001 Q 64.2 114.700005 62.300003 117.8 Q 60.4 120.90001 60.4 125.600006 Q 60.4 131.1 66.4 135.1 Q 67.100006 135.6 67.100006 136.6 Q 67.100006 137.40001 66.45 138.1 Q 65.8 138.8 64.9 138.8 Q 64.4 138.8 64 138.6 Q 58.300003 135.6 55.550003 130.45001 Q 52.800003 125.3 52.800003 119.600006 Q 52.800003 114.100006 56.75 108.25001 Q 60.7 102.40001 66.6 100.200005 Q 68.100006 99.600006 67.8 98.100006 L 64.8 86.8 Q 64.6 85.700005 63.4 85.5 Q 62.2 85.3 61.6 86 Z M 78.4 27.800003 Q 77.600006 25.200005 75.7 25.200005 Q 75.100006 25.200005 74.600006 25.500008 Q 68.2 29.300003 64.45 36.200005 Q 60.7 43.100006 60.7 50.800003 Q 60.7 55.800003 62.800003 63.100006 Q 63.1 64.200005 64.3 64.40001 Q 65.3 64.5 66 63.700005 Q 66.3 63.300007 68.850006 60.15 Q 71.4 57.000008 72.2 55.950005 Q 73 54.9 74.9 51.950005 Q 76.8 49.000008 77.55 47.050003 Q 78.3 45.100006 79 42.200005 Q 79.7 39.300003 79.7 36.4 Q 79.7 32.200005 78.4 27.800003 Z " fill="black"/>
    <path d="M 92 339.1 Q 92 337 93.5 335.5 Q 95 334 97.100006 334 Q 99.200005 334 100.700005 335.5 Q 102.200005 337 102.200005 339.1 Q 102.200005 341.2 100.700005 342.7 Q 99.200005 344.2 97.100006 344.2 Q 95 344.2 93.5 342.7 Q 92 341.2 92 339.1 Z M 92 314.1 Q 92 312 93.5 310.5 Q 95 309 97.100006 309 Q 99.200005 309 100.700005 310.5 Q 102.200005 312 102.200005 314.1 Q 102.200005 316.2 100.700005 317.7 Q 99.200005 319.2 97.100006 319.2 Q 95 319.2 93.5 317.7 Q 92 316.2 92 314.1 Z M 47.2 314.7 Q 51.7 314.7 54.6 317.6 Q 57.5 320.5 57.5 324.7 Q 57.5 329.1 54.6 332.2 Q 51.7 335.3 47.5 335.3 Q 43 335.3 39.65 332.2 Q 36.3 329.1 36.3 324.7 Q 36.3 313.90002 43.5 307.1 Q 50.7 300.3 61.4 300.3 Q 73.5 300.3 81.15 307.25 Q 88.8 314.2 88.8 325.40002 Q 88.8 360.80002 37.4 383.5 Q 36.7 383.80002 36.3 383.80002 Q 35 383.80002 35 382.5 Q 35 381.80002 36.3 381 Q 44.3 376.30002 49.55 372.7 Q 54.800003 369.1 60.4 364 Q 66 358.9 69.2 353.75 Q 72.4 348.6 74.5 341.6 Q 76.600006 334.6 76.600006 326.40002 Q 76.600006 316 72.05 309.7 Q 67.5 303.40002 59.6 303.40002 Q 54.800003 303.40002 50.9 305.65002 Q 47 307.90002 45.5 311.8 Q 45.1 313.1 45.6 313.8 Q 46.3 314.7 47.2 314.7 Z " fill="black"/>
    <path d="M 144.6 123.40001 Q 150.1 123.200005 154.2 118.90001 Q 158.3 114.600006 159.8 108.3 Q 160.1 107.3 161 107.3 Q 162.3 107.3 162.3 108.50001 Q 162.3 115.200005 156.25 120.55 Q 150.2 125.90001 144 125.90001 Q 143.8 125.90001 143.35 125.850006 Q 142.9 125.8 142.7 125.8 L 142.7 133.6 Q 142.7 134.6 141.7 134.6 L 140 134.6 Q 139 134.6 139 133.6 L 139 125.50001 Q 130.6 124.200005 125.6 118.90001 Q 119 112.00001 119 99.600006 Q 119 87.200005 125.6 80.3 Q 130.6 75.00001 139 73.700005 L 139 65.600006 Q 139 64.600006 140 64.600006 L 141.7 64.600006 Q 142.7 64.600006 142.7 65.600006 L 142.7 73.40001 L 144 73.40001 Q 150.5 73.40001 155.45 77.65001 Q 160.4 81.90001 161.5 88.40001 Q 161.6 88.90001 161.6 89.700005 Q 161.6 92.700005 159.65 94.8 Q 157.7 96.90001 154.9 96.90001 Q 151.5 96.90001 149.45 94.55 Q 147.4 92.200005 147.4 89.40001 Q 147.4 87.00001 148.75 84.850006 Q 150.1 82.700005 152.4 82.00001 Q 153.6 81.700005 153.7 80.700005 Q 153.9 79.600006 153 78.90001 Q 149.2 76.100006 144.5 75.90001 Q 143.7 75.90001 143.2 76.40001 Q 142.7 76.90001 142.7 77.700005 L 142.7 121.600006 Q 142.7 122.40001 143.2 122.90001 Q 143.7 123.40001 144.6 123.40001 Z M 139 119.3 L 139 79.90001 Q 139 78.700005 137.9 78.200005 Q 136.7 77.700005 135.9 78.700005 Q 133.9 80.8 133.3 84.50001 Q 132.7 88.200005 132.7 94.50001 L 132.7 99.600006 L 132.7 104.700005 Q 132.7 111.00001 133.3 114.700005 Q 133.9 118.40001 135.9 120.50001 Q 136.8 121.40001 137.9 121.00001 Q 139 120.50001 139 119.3 Z " fill="black"/>
    <path d="M 144.6 375.4 Q 150.1 375.2 154.2 370.9 Q 158.3 366.6 159.8 360.30002 Q 160.1 359.30002 161 359.30002 Q 162.3 359.30002 162.3 360.5 Q 162.3 367.2 156.25 372.55002 Q 150.2 377.9 144 377.9 Q 143.8 377.9 143.35 377.85 Q 142.9 377.80002 142.7 377.80002 L 142.7 385.6 Q 142.7 386.6 141.7 386.6 L 140 386.6 Q 139 386.6 139 385.6 L 139 377.5 Q 130.6 376.2 125.6 370.9 Q 119 364 119 351.6 Q 119 339.2 125.6 332.3 Q 130.6 327 139 325.7 L 139 317.6 Q 139 316.6 140 316.6 L 141.7 316.6 Q 142.7 316.6 142.7 317.6 L 142.7 325.40002 L 144 325.40002 Q 150.5 325.40002 155.45 329.65002 Q 160.4 333.90002 161.5 340.40002 Q 161.6 340.90002 161.6 341.7 Q 161.6 344.7 159.65 346.8 Q 157.7 348.90002 154.9 348.90002 Q 151.5 348.90002 149.45 346.55 Q 147.4 344.2 147.4 341.40002 Q 147.4 339 148.75 336.85 Q 150.1 334.7 152.4 334 Q 153.6 333.7 153.7 332.7 Q 153.9 331.6 153 330.90002 Q 149.2 328.1 144.5 327.90002 Q 143.7 327.90002 143.2 328.40002 Q 142.7 328.90002 142.7 329.7 L 142.7 373.6 Q 142.7 374.4 143.2 374.9 Q 143.7 375.4 144.6 375.4 Z M 139 371.30002 L 139 331.90002 Q 139 330.7 137.9 330.2 Q 136.7 329.7 135.9 330.7 Q 133.9 332.8 133.3 336.5 Q 132.7 340.2 132.7 346.5 L 132.7 351.6 L 132.7 356.7 Q 132.7 363 133.3 366.7 Q 133.9 370.4 135.9 372.5 Q 136.8 373.4 137.9 373 Q 139 372.5 139 371.30002 Z " fill="black"/>
    <rect x="192" y="87.100006" width="25" height="25" stroke="red" stroke-width="1" fill="none"/>
    <path d="M 202.5 172.5 Q 203.2 172.5 203.65 172.05 Q 204.1 171.6 204.1 171 Q 204.1 170.40001 203.7 170 L 196.5 161.90001 Q 193.5 158.5 193.5 155.6 Q 193.5 153.1 200.6 146.90001 Q 204.3 143.6 204.3 138.6 Q 204.3 134.70001 201.8 131.70001 L 198.3 127.5 Q 197.9 127 197.9 126.5 Q 197.9 125 199.3 125 Q 200.2 125 200.8 125.700005 L 215.8 143.5 Q 216.8 144.70001 216.8 146 Q 216.8 147.1 216 148.3 Q 215.2 149.5 214.3 150.35 Q 213.4 151.20001 211.65 152.65001 Q 209.9 154.1 209.2 154.8 Q 205 158.70001 205 163.40001 Q 205 167 209.1 171.40001 L 217.5 180.5 Q 217.9 180.90001 217.9 181.5 Q 217.9 182.1 217.45 182.55 Q 217 183 216.5 183 Q 215.8 183 214.4 181.90001 Q 210.7 179.1 206.5 179.1 Q 203.6 179.1 201.45 181.35 Q 199.3 183.6 199.3 186.5 Q 199.3 187.8 199.5 188.85 Q 199.7 189.90001 200.25 191 Q 200.8 192.1 201 192.5 Q 201.2 192.90001 202.1 194.15001 Q 203 195.40001 203.1 195.5 Q 203.4 195.90001 203.3 196.40001 Q 203.2 196.90001 202.75 197.15001 Q 202.3 197.40001 201.8 197.3 Q 201.3 197.20001 200.5 196.40001 Q 197.1 192.90001 194.55 188.55 Q 192 184.20001 192 181 Q 192 177.1 194.75 174.8 Q 197.5 172.5 202.5 172.5 Z " fill="black"/>
    <path d="M 192 317.5 Q 192 311.5 198.6 305.95 Q 205.2 300.40002 212.1 300.40002 Q 214.9 300.40002 217.45 301.1 Q 220 301.8 222.3 304.3 Q 224.6 306.8 224.6 310.7 Q 224.6 316.2 217.9 322 Q 211.2 327.8 204.5 327.8 Q 201.7 327.8 199.15 327.1 Q 196.6 326.40002 194.3 323.90002 Q 192 321.40002 192 317.5 Z " fill="black"/>
    <rect x="297" y="49.600006" width="3.7500002" height="100" fill="black"/>
    <rect x="297" y="301.6" width="3.7500002" height="100" fill="black"/>
    <path d="M 367.5 24.600006 L 332 24.600006 Q 331 24.600006 331 23.600006 L 331 11.000008 Q 331 10.000008 332 10.000008 L 367.5 10.000008 Q 368.5 10.000008 368.5 11.000008 L 368.5 23.600006 Q 368.5 24.600006 367.5 24.600006 Z " fill="black"/>
    <path d="M 367.5 149.6 L 332 149.6 Q 331 149.6 331 148.6 L 331 136 Q 331 135 332 135 L 367.5 135 Q 368.5 135 368.5 136 L 368.5 148.6 Q 368.5 149.6 367.5 149.6 Z " fill="black"/>
    <path d="M 331 342.5 Q 331 336.5 337.6 330.95 Q 344.2 325.40002 351.1 325.40002 Q 353.9 325.40002 356.45 326.1 Q 359 326.8 361.3 329.3 Q 363.6 331.8 363.6 335.7 Q 363.6 341.2 356.9 347 Q 350.2 352.8 343.5 352.8 Q 340.7 352.8 338.15 352.1 Q 335.6 351.40002 333.3 348.90002 Q 331 346.40002 331 342.5 Z " fill="black"/>
    <path d="M 436 317.5 Q 436 311.5 442.6 305.95 Q 449.2 300.40002 456.1 300.40002 Q 458.9 300.40002 461.45 301.1 Q 464 301.8 466.3 304.3 Q 468.6 306.8 468.6 310.7 Q 468.6 316.2 461.9 322 Q 455.2 327.8 448.5 327.8 Q 445.7 327.8 443.15 327.1 Q 440.6 326.40002 438.3 323.90002 Q 436 321.40002 436 317.5 Z " fill="black"/>
    <path d="M 541 305 Q 541 299 547.6 293.45 Q 554.2 287.90002 561.1 287.90002 Q 563.9 287.90002 566.45 288.6 Q 569 289.3 571.3 291.8 Q 573.6 294.3 573.6 298.2 Q 573.6 303.7 566.9 309.5 Q 560.2 315.3 553.5 315.3 Q 550.7 315.3 548.15 314.6 Q 545.6 313.90002 543.3 311.40002 Q 541 308.90002 541 305 Z " fill="black"/>
    <path d="M 646 317.5 Q 646 311.5 652.6 305.95 Q 659.2 300.40002 666.1 300.40002 Q 668.9 300.40002 671.45 301.1 Q 674 301.8 676.3 304.3 Q 678.6 306.8 678.6 310.7 Q 678.6 316.2 671.9 322 Q 665.2 327.8 658.5 327.8 Q 655.7 327.8 653.15 327.1 Q 650.6 326.40002 648.3 323.90002 Q 646 321.40002 646 317.5 Z " fill="black"/>
    <rect x="751" y="49.600006" width="3.7500002" height="100" fill="black"/>
    <rect x="751" y="301.6" width="3.7500002" height="100" fill="black"/>
    <path d="M 821.5 39.200005 L 786 39.200005 Q 785 39.200005 785 38.200005 L 785 25.600006 Q 785 24.600006 786 24.600006 L 821.5 24.600006 Q 822.5 24.600006 822.5 25.600006 L 822.5 38.200005 Q 822.5 39.200005 821.5 39.200005 Z " fill="black"/>
    <path d="M 821.5 164.20001 L 786 164.20001 Q 785 164.20001 785 163.20001 L 785 150.6 Q 785 149.6 786 149.6 L 821.5 149.6 Q 822.5 149.6 822.5 150.6 L 822.5 163.20001 Q 822.5 164.20001 821.5 164.20001 Z " fill="black"/>
    <path d="M 785 330 Q 785 324 791.6 318.45 Q 798.2 312.90002 805.1 312.90002 Q 807.9 312.90002 810.45 313.6 Q 813 314.3 815.3 316.8 Q 817.6 319.3 817.6 323.2 Q 817.6 328.7 810.9 334.5 Q 804.2 340.3 797.5 340.3 Q 794.7 340.3 792.15 339.6 Q 789.6 338.90002 787.3 336.40002 Q 785 333.90002 785 330 Z " fill="black"/>
    <path d="M 890 355 Q 890 349 896.6 343.45 Q 903.2 337.90002 910.1 337.90002 Q 912.9 337.90002 915.45 338.6 Q 918 339.3 920.3 341.8 Q 922.6 344.3 922.6 348.2 Q 922.6 353.7 915.9 359.5 Q 909.2 365.30002 902.5 365.30002 Q 899.7 365.30002 897.15 364.6 Q 894.6 363.9 892.3 361.4 Q 890 358.9 890 355 Z " fill="black"/>
    <path d="M 1005.5 47.500008 Q 1006.2 47.500008 1006.65 47.050007 Q 1007.1 46.600006 1007.1 46.000008 Q 1007.1 45.400005 1006.7 45.000008 L 999.5 36.900005 Q 996.5 33.500008 996.5 30.600006 Q 996.5 28.100006 1003.6 21.90001 Q 1007.3 18.600006 1007.3 13.600006 Q 1007.3 9.700005 1004.8 6.7000046 L 1001.3 2.5 Q 1000.9 2 1000.9 1.5 Q 1000.9 0 1002.3 0 Q 1003.2 0 1003.8 0.7000046 L 1018.8 18.500008 Q 1019.8 19.700005 1019.8 21.000008 Q 1019.8 22.100006 1019 23.300003 Q 1018.2 24.500008 1017.3 25.350006 Q 1016.4 26.200005 1014.65 27.65001 Q 1012.9 29.100006 1012.2 29.800003 Q 1008 33.700005 1008 38.400005 Q 1008 42.000008 1012.1 46.400005 L 1020.5 55.500008 Q 1020.9 55.90001 1020.9 56.500008 Q 1020.9 57.100006 1020.45 57.550007 Q 1020 58.000008 1019.5 58.000008 Q 1018.8 58.000008 1017.4 56.90001 Q 1013.7 54.100006 1009.5 54.100006 Q 1006.6 54.100006 1004.45 56.350006 Q 1002.3 58.600006 1002.3 61.500008 Q 1002.3 62.800007 1002.5 63.850006 Q 1002.7 64.90001 1003.25 66.00001 Q 1003.8 67.100006 1004 67.50001 Q 1004.2 67.90001 1005.1 69.15001 Q 1006 70.40001 1006.1 70.50001 Q 1006.4 70.90001 1006.3 71.40001 Q 1006.2 71.90001 1005.75 72.15001 Q 1005.3 72.40001 1004.8 72.3 Q 1004.3 72.20001 1003.5 71.40001 Q 1000.1 67.90001 997.55 63.550007 Q 995 59.200005 995 56.000008 Q 995 52.100006 997.75 49.800007 Q 1000.5 47.500008 1005.5 47.500008 Z " fill="black"/>
    <path d="M 1005.5 172.5 Q 1006.2 172.5 1006.65 172.05 Q 1007.1 171.6 1007.1 171 Q 1007.1 170.40001 1006.7 170 L 999.5 161.90001 Q 996.5 158.5 996.5 155.6 Q 996.5 153.1 1003.6 146.90001 Q 1007.3 143.6 1007.3 138.6 Q 1007.3 134.70001 1004.8 131.70001 L 1001.3 127.5 Q 1000.9 127 1000.9 126.5 Q 1000.9 125 1002.3 125 Q 1003.2 125 1003.8 125.700005 L 1018.8 143.5 Q 1019.8 144.70001 1019.8 146 Q 1019.8 147.1 1019 148.3 Q 1018.2 149.5 1017.3 150.35 Q 1016.4 151.20001 1014.65 152.65001 Q 1012.9 154.1 1012.2 154.8 Q 1008 158.70001 1008 163.40001 Q 1008 167 1012.1 171.40001 L 1020.5 180.5 Q 1020.9 180.90001 1020.9 181.5 Q 1020.9 182.1 1020.45 182.55 Q 1020 183 1019.5 183 Q 1018.8 183 1017.4 181.90001 Q 1013.7 179.1 1009.5 179.1 Q 1006.6 179.1 1004.45 181.35 Q 1002.3 183.6 1002.3 186.5 Q 1002.3 187.8 1002.5 188.85 Q 1002.7 189.90001 1003.25 191 Q 1003.8 192.1 1004 192.5 Q 1004.2 192.90001 1005.1 194.15001 Q 1006 195.40001 1006.1 195.5 Q 1006.4 195.90001 1006.3 196.40001 Q 1006.2 196.90001 1005.75 197.15001 Q 1005.3 197.40001 1004.8 197.3 Q 1004.3 197.20001 1003.5 196.40001 Q 1000.1 192.90001 997.55 188.55 Q 995 184.20001 995 181 Q 995 177.1 997.75 174.8 Q 1000.5 172.5 1005.5 172.5 Z " fill="black"/>
    <path d="M 995 342.5 Q 995 336.5 1001.6 330.95 Q 1008.2 325.40002 1015.1 325.40002 Q 1017.9 325.40002 1020.45 326.1 Q 1023 326.8 1025.3 329.3 Q 1027.6 331.8 1027.6 335.7 Q 1027.6 341.2 1020.9 347 Q 1014.2 352.8 1007.5 352.8 Q 1004.7 352.8 1002.15 352.1 Q 999.6 351.40002 997.3 348.90002 Q 995 346.40002 995 342.5 Z " fill="black"/>
    <line x1="1100" y1="62.100006" x2="1112.5" y2="24.600006" stroke="black" stroke-width="4"/>
    <line x1="1100" y1="314.1" x2="1112.5" y2="276.6" stroke="black" stroke-width="4"/>
    <path d="M 1158.5 72.50001 Q 1159.2 72.50001 1159.65 72.05 Q 1160.1 71.600006 1160.1 71.00001 Q 1160.1 70.40001 1159.7 70.00001 L 1152.5 61.900005 Q 1149.5 58.500008 1149.5 55.600006 Q 1149.5 53.100006 1156.6 46.900005 Q 1160.3 43.600006 1160.3 38.600006 Q 1160.3 34.700005 1157.8 31.700005 L 1154.3 27.5 Q 1153.9 27 1153.9 26.5 Q 1153.9 25 1155.3 25 Q 1156.2 25 1156.8 25.700005 L 1171.8 43.500008 Q 1172.8 44.700005 1172.8 46.000008 Q 1172.8 47.100006 1172 48.300003 Q 1171.2 49.500008 1170.3 50.350006 Q 1169.4 51.200005 1167.65 52.650005 Q 1165.9 54.100006 1165.2 54.800007 Q 1161 58.700005 1161 63.400005 Q 1161 67.00001 1165.1 71.40001 L 1173.5 80.50001 Q 1173.9 80.90001 1173.9 81.50001 Q 1173.9 82.100006 1173.45 82.55 Q 1173 83.00001 1172.5 83.00001 Q 1171.8 83.00001 1170.4 81.90001 Q 1166.7 79.100006 1162.5 79.100006 Q 1159.6 79.100006 1157.45 81.350006 Q 1155.3 83.600006 1155.3 86.50001 Q 1155.3 87.8 1155.5 88.850006 Q 1155.7 89.90001 1156.25 91.00001 Q 1156.8 92.100006 1157 92.50001 Q 1157.2 92.90001 1158.1 94.15001 Q 1159 95.40001 1159.1 95.50001 Q 1159.4 95.90001 1159.3 96.40001 Q 1159.2 96.90001 1158.75 97.15001 Q 1158.3 97.40001 1157.8 97.3 Q 1157.3 97.20001 1156.5 96.40001 Q 1153.1 92.90001 1150.55 88.55 Q 1148 84.200005 1148 81.00001 Q 1148 77.100006 1150.75 74.8 Q 1153.5 72.50001 1158.5 72.50001 Z " fill="black"/>
    <path d="M 1148 165.5 Q 1148 159.5 1154.6 153.95001 Q 1161.2 148.40001 1168.1 148.40001 Q 1170.9 148.40001 1173.45 149.1 Q 1176 149.8 1178.3 152.3 Q 1180.6 154.8 1180.6 158.70001 Q 1180.6 164.20001 1173.9 170 Q 1167.2 175.8 1160.5 175.8 Q 1157.7 175.8 1155.15 175.1 Q 1152.6 174.40001 1150.3 171.90001 Q 1148 169.40001 1148 165.5 Z " fill="black"/>
    <path d="M 1148 380 Q 1148 374 1154.6 368.45 Q 1161.2 362.9 1168.1 362.9 Q 1170.9 362.9 1173.45 363.6 Q 1176 364.30002 1178.3 366.80002 Q 1180.6 369.30002 1180.6 373.2 Q 1180.6 378.7 1173.9 384.5 Q 1167.2 390.30002 1160.5 390.30002 Q 1157.7 390.30002 1155.15 389.6 Q 1152.6 388.9 1150.3 386.4 Q 1148 383.9 1148 380 Z " fill="black"/>
    <rect x="1253" y="49.600006" width="3.7500002" height="100" fill="black"/>
    <rect x="1253" y="301.6" width="3.7500002" height="100" fill="black"/>
    <path d="M 1332.5 49.600006 L 1297 49.600006 Q 1296 49.600006 1296 48.600006 L 1296 36.000008 Q 1296 35.000008 1297 35.000008 L 1332.5 35.000008 Q 1333.5 35.000008 1333.5 36.000008 L 1333.5 48.600006 Q 1333.5 49.600006 1332.5 49.600006 Z " fill="black"/>
    <path d="M 1296 190.5 Q 1296 184.5 1302.6 178.95001 Q 1309.2 173.40001 1316.1 173.40001 Q 1318.9 173.40001 1321.45 174.1 Q 1324 174.8 1326.3 177.3 Q 1328.6 179.8 1328.6 183.70001 Q 1328.6 189.20001 1321.9 195 Q 1315.2 200.8 1308.5 200.8 Q 1305.7 200.8 1303.15 200.1 Q 1300.6 199.40001 1298.3 196.90001 Q 1296 194.40001 1296 190.5 Z " fill="black"/>
    <rect x="1287.25" y="173.35" width="50" height="2.5" fill="black"/>
    <path d="M 1296 405 Q 1296 399 1302.6 393.45 Q 1309.2 387.9 1316.1 387.9 Q 1318.9 387.9 1321.45 388.6 Q 1324 389.30002 1326.3 391.80002 Q 1328.6 394.30002 1328.6 398.2 Q 1328.6 403.7 1321.9 409.5 Q 1315.2 415.30002 1308.5 415.30002 Q 1305.7 415.30002 1303.15 414.6 Q 1300.6 413.9 1298.3 411.4 Q 1296 408.9 1296 405 Z " fill="black"/>
    <path d="M 1401 165.5 Q 1401 159.5 1407.6 153.95001 Q 1414.2 148.40001 1421.1 148.40001 Q 1423.9 148.40001 1426.45 149.1 Q 1429 149.8 1431.3 152.3 Q 1433.6 154.8 1433.6 158.70001 Q 1433.6 164.20001 1426.9 170 Q 1420.2 175.8 1413.5 175.8 Q 1410.7 175.8 1408.15 175.1 Q 1405.6 174.40001 1403.3 171.90001 Q 1401 169.40001 1401 165.5 Z " fill="black"/>
    <path d="M 1401 380 Q 1401 374 1407.6 368.45 Q 1414.2 362.9 1421.1 362.9 Q 1423.9 362.9 1426.45 363.6 Q 1429 364.30002 1431.3 366.80002 Q 1433.6 369.30002 1433.6 373.2 Q 1433.6 378.7 1426.9 384.5 Q 1420.2 390.30002 1413.5 390.30002 Q 1410.7 390.30002 1408.15 389.6 Q 1405.6 388.9 1403.3 386.4 Q 1401 383.9 1401 380 Z " fill="black"/>
    <path d="M 1506 153 Q 1506 147 1512.6 141.45001 Q 1519.2 135.90001 1526.1 135.90001 Q 1528.9 135.90001 1531.45 136.6 Q 1534 137.3 1536.3 139.8 Q 1538.6 142.3 1538.6 146.20001 Q 1538.6 151.70001 1531.9 157.5 Q 1525.2 163.3 1518.5 163.3 Q 1515.7 163.3 1513.15 162.6 Q 1510.6 161.90001 1508.3 159.40001 Q 1506 156.90001 1506 153 Z " fill="black"/>
    <path d="M 1506 367.5 Q 1506 361.5 1512.6 355.95 Q 1519.2 350.40002 1526.1 350.40002 Q 1528.9 350.40002 1531.45 351.1 Q 1534 351.8 1536.3 354.3 Q 1538.6 356.80002 1538.6 360.7 Q 1538.6 366.2 1531.9 372 Q 1525.2 377.80002 1518.5 377.80002 Q 1515.7 377.80002 1513.15 377.1 Q 1510.6 376.4 1508.3 373.9 Q 1506 371.4 1506 367.5 Z " fill="black"/>
    <path d="M 1611 165.5 Q 1611 159.5 1617.6 153.95001 Q 1624.2 148.40001 1631.1 148.40001 Q 1633.9 148.40001 1636.45 149.1 Q 1639 149.8 1641.3 152.3 Q 1643.6 154.8 1643.6 158.70001 Q 1643.6 164.20001 1636.9 170 Q 1630.2 175.8 1623.5 175.8 Q 1620.7 175.8 1618.15 175.1 Q 1615.6 174.40001 1613.3 171.90001 Q 1611 169.40001 1611 165.5 Z " fill="black"/>
    <path d="M 1611 380 Q 1611 374 1617.6 368.45 Q 1624.2 362.9 1631.1 362.9 Q 1633.9 362.9 1636.45 363.6 Q 1639 364.30002 1641.3 366.80002 Q 1643.6 369.30002 1643.6 373.2 Q 1643.6 378.7 1636.9 384.5 Q 1630.2 390.30002 1623.5 390.30002 Q 1620.7 390.30002 1618.15 389.6 Q 1615.6 388.9 1613.3 386.4 Q 1611 383.9 1611 380 Z " fill="black"/>
    <rect x="1716" y="49.600006" width="3.7500002" height="100" fill="black"/>
    <rect x="1716" y="301.6" width="3.7500002" height="100" fill="black"/>
    <path d="M 1795.5 64.200005 L 1760 64.200005 Q 1759 64.200005 1759 63.200005 L 1759 50.600006 Q 1759 49.600006 1760 49.600006 L 1795.5 49.600006 Q 1796.5 49.600006 1796.5 50.600006 L 1796.5 63.200005 Q 1796.5 64.200005 1795.5 64.200005 Z " fill="black"/>
    <path d="M 1759 178 Q 1759 172 1765.6 166.45001 Q 1772.2 160.90001 1779.1 160.90001 Q 1781.9 160.90001 1784.45 161.6 Q 1787 162.3 1789.3 164.8 Q 1791.6 167.3 1791.6 171.20001 Q 1791.6 176.70001 1784.9 182.5 Q 1778.2 188.3 1771.5 188.3 Q 1768.7 188.3 1766.15 187.6 Q 1763.6 186.90001 1761.3 184.40001 Q 1759 181.90001 1759 178 Z " fill="black"/>
    <rect x="1750.25" y="173.35" width="50" height="2.5" fill="black"/>
    <path d="M 1759 392.5 Q 1759 386.5 1765.6 380.95 Q 1772.2 375.4 1779.1 375.4 Q 1781.9 375.4 1784.45 376.1 Q 1787 376.80002 1789.3 379.30002 Q 1791.6 381.80002 1791.6 385.7 Q 1791.6 391.2 1784.9 397 Q 1778.2 402.80002 1771.5 402.80002 Q 1768.7 402.80002 1766.15 402.1 Q 1763.6 401.4 1761.3 398.9 Q 1759 396.4 1759 392.5 Z " fill="black"/>
    <path d="M 1864 203 Q 1864 197 1870.6 191.45001 Q 1877.2 185.90001 1884.1 185.90001 Q 1886.9 185.90001 1889.45 186.6 Q 1892 187.3 1894.3 189.8 Q 1896.6 192.3 1896.6 196.20001 Q 1896.6 201.70001 1889.9 207.5 Q 1883.2 213.3 1876.5 213.3 Q 1873.7 213.3 1871.15 212.6 Q 1868.6 211.90001 1866.3 209.40001 Q 1864 206.90001 1864 203 Z " fill="black"/>
    <rect x="1855.25" y="198.35" width="50" height="2.5" fill="black"/>
    <rect x="1855.25" y="173.35" width="50" height="2.5" fill="black"/>
    <path d="M 1864 355 Q 1864 349 1870.6 343.45 Q 1877.2 337.90002 1884.1 337.90002 Q 1886.9 337.90002 1889.45 338.6 Q 1892 339.3 1894.3 341.8 Q 1896.6 344.3 1896.6 348.2 Q 1896.6 353.7 1889.9 359.5 Q 1883.2 365.30002 1876.5 365.30002 Q 1873.7 365.30002 1871.15 364.6 Q 1868.6 363.9 1866.3 361.4 Q 1864 358.9 1864 355 Z " fill="black"/>
    <path d="M 1979.5 72.50001 Q 1980.2 72.50001 1980.65 72.05 Q 1981.1 71.600006 1981.1 71.00001 Q 1981.1 70.40001 1980.7 70.00001 L 1973.5 61.900005 Q 1970.5 58.500008 1970.5 55.600006 Q 1970.5 53.100006 1977.6 46.900005 Q 1981.3 43.600006 1981.3 38.600006 Q 1981.3 34.700005 1978.8 31.700005 L 1975.3 27.5 Q 1974.9 27 1974.9 26.5 Q 1974.9 25 1976.3 25 Q 1977.2 25 1977.8 25.700005 L 1992.8 43.500008 Q 1993.8 44.700005 1993.8 46.000008 Q 1993.8 47.100006 1993 48.300003 Q 1992.2 49.500008 1991.3 50.350006 Q 1990.4 51.200005 1988.65 52.650005 Q 1986.9 54.100006 1986.2 54.800007 Q 1982 58.700005 1982 63.400005 Q 1982 67.00001 1986.1 71.40001 L 1994.5 80.50001 Q 1994.9 80.90001 1994.9 81.50001 Q 1994.9 82.100006 1994.45 82.55 Q 1994 83.00001 1993.5 83.00001 Q 1992.8 83.00001 1991.4 81.90001 Q 1987.7 79.100006 1983.5 79.100006 Q 1980.6 79.100006 1978.45 81.350006 Q 1976.3 83.600006 1976.3 86.50001 Q 1976.3 87.8 1976.5 88.850006 Q 1976.7 89.90001 1977.25 91.00001 Q 1977.8 92.100006 1978 92.50001 Q 1978.2 92.90001 1979.1 94.15001 Q 1980 95.40001 1980.1 95.50001 Q 1980.4 95.90001 1980.3 96.40001 Q 1980.2 96.90001 1979.75 97.15001 Q 1979.3 97.40001 1978.8 97.3 Q 1978.3 97.20001 1977.5 96.40001 Q 1974.1 92.90001 1971.55 88.55 Q 1969 84.200005 1969 81.00001 Q 1969 77.100006 1971.75 74.8 Q 1974.5 72.50001 1979.5 72.50001 Z " fill="black"/>
    <path d="M 1969 190.5 Q 1969 184.5 1975.6 178.95001 Q 1982.2 173.40001 1989.1 173.40001 Q 1991.9 173.40001 1994.45 174.1 Q 1997 174.8 1999.3 177.3 Q 2001.6 179.8 2001.6 183.70001 Q 2001.6 189.20001 1994.9 195 Q 1988.2 200.8 1981.5 200.8 Q 1978.7 200.8 1976.15 200.1 Q 1973.6 199.40001 1971.3 196.90001 Q 1969 194.40001 1969 190.5 Z " fill="black"/>
    <rect x="1960.25" y="173.35" width="50" height="2.5" fill="black"/>
    <path d="M 1969 405 Q 1969 399 1975.6 393.45 Q 1982.2 387.9 1989.1 387.9 Q 1991.9 387.9 1994.45 388.6 Q 1997 389.30002 1999.3 391.80002 Q 2001.6 394.30002 2001.6 398.2 Q 2001.6 403.7 1994.9 409.5 Q 1988.2 415.30002 1981.5 415.30002 Q 1978.7 415.30002 1976.15 414.6 Q 1973.6 413.9 1971.3 411.4 Q 1969 408.9 1969 405 Z " fill="black"/>
    <line x1="2074" y1="62.100006" x2="2086.5" y2="24.600006" stroke="black" stroke-width="4"/>
    <line x1="2074" y1="314.1" x2="2086.5" y2="276.6" stroke="black" stroke-width="4"/>
    <path d="M 2131 128 Q 2131 122.00001 2137.6 116.450005 Q 2144.2 110.90001 2151.1 110.90001 Q 2153.9 110.90001 2156.45 111.600006 Q 2159 112.3 2161.3 114.8 Q 2163.6 117.3 2163.6 121.200005 Q 2163.6 126.700005 2156.9 132.5 Q 2150.2 138.3 2143.5 138.3 Q 2140.7 138.3 2138.15 137.6 Q 2135.6 136.90001 2133.3 134.40001 Q 2131 131.90001 2131 128 Z " fill="black"/>
    <path d="M 2131 178 Q 2131 172 2137.6 166.45001 Q 2144.2 160.90001 2151.1 160.90001 Q 2153.9 160.90001 2156.45 161.6 Q 2159 162.3 2161.3 164.8 Q 2163.6 167.3 2163.6 171.20001 Q 2163.6 176.70001 2156.9 182.5 Q 2150.2 188.3 2143.5 188.3 Q 2140.7 188.3 2138.15 187.6 Q 2135.6 186.90001 2133.3 184.40001 Q 2131 181.90001 2131 178 Z " fill="black"/>
    <rect x="2122.25" y="173.35" width="50" height="2.5" fill="black"/>
    <path d="M 2131 342.5 Q 2131 336.5 2137.6 330.95 Q 2144.2 325.40002 2151.1 325.40002 Q 2153.9 325.40002 2156.45 326.1 Q 2159 326.8 2161.3 329.3 Q 2163.6 331.8 2163.6 335.7 Q 2163.6 341.2 2156.9 347 Q 2150.2 352.8 2143.5 352.8 Q 2140.7 352.8 2138.15 352.1 Q 2135.6 351.40002 2133.3 348.90002 Q 2131 346.40002 2131 342.5 Z " fill="black"/>
    <rect x="2236" y="49.600006" width="3.7500002" height="100" fill="black"/>
    <rect x="2236" y="301.6" width="3.7500002" height="100" fill="black"/>
    <path d="M 2279 153 Q 2279 147 2285.6 141.45001 Q 2292.2 135.90001 2299.1 135.90001 Q 2301.9 135.90001 2304.45 136.6 Q 2307 137.3 2309.3 139.8 Q 2311.6 142.3 2311.6 146.20001 Q 2311.6 151.70001 2304.9 157.5 Q 2298.2 163.3 2291.5 163.3 Q 2288.7 163.3 2286.15 162.6 Q 2283.6 161.90001 2281.3 159.40001 Q 2279 156.90001 2279 153 Z " fill="black"/>
    <path d="M 2303.9 164.5 Q 2301 164.5 2291.65 171.05 Q 2282.3 177.6 2282.3 180.6 Q 2282.3 182.70001 2284.1 183.70001 Q 2285.9 184.70001 2288.4 184.70001 Q 2291.3 184.70001 2300.65 178.15001 Q 2310 171.6 2310 168.6 Q 2310 166.5 2308.2 165.5 Q 2306.4 164.5 2303.9 164.5 Z M 2279 178.40001 Q 2279 171.20001 2285.2 166.05 Q 2291.4 160.90001 2300.2 160.90001 Q 2303.2 160.90001 2305.8 161.5 Q 2308.4 162.1 2310.8 164.5 Q 2313.2 166.90001 2313.2 170.8 Q 2313.2 178 2307 183.15001 Q 2300.8 188.3 2292 188.3 Q 2289 188.3 2286.4 187.70001 Q 2283.8 187.1 2281.4 184.70001 Q 2279 182.3 2279 178.40001 Z " fill="black"/>
    <rect x="2270.25" y="173.35" width="51.75" height="2.5" fill="black"/>
    <path d="M 2279 367.5 Q 2279 361.5 2285.6 355.95 Q 2292.2 350.40002 2299.1 350.40002 Q 2301.9 350.40002 2304.45 351.1 Q 2307 351.8 2309.3 354.3 Q 2311.6 356.80002 2311.6 360.7 Q 2311.6 366.2 2304.9 372 Q 2298.2 377.80002 2291.5 377.80002 Q 2288.7 377.80002 2286.15 377.1 Q 2283.6 376.4 2281.3 373.9 Q 2279 371.4 2279 367.5 Z " fill="black"/>
    <path d="M 2384 128 Q 2384 122.00001 2390.6 116.450005 Q 2397.2 110.90001 2404.1 110.90001 Q 2406.9 110.90001 2409.45 111.600006 Q 2412 112.3 2414.3 114.8 Q 2416.6 117.3 2416.6 121.200005 Q 2416.6 126.700005 2409.9 132.5 Q 2403.2 138.3 2396.5 138.3 Q 2393.7 138.3 2391.15 137.6 Q 2388.6 136.90001 2386.3 134.40001 Q 2384 131.90001 2384 128 Z " fill="black"/>
    <path d="M 2384 342.5 Q 2384 336.5 2390.6 330.95 Q 2397.2 325.40002 2404.1 325.40002 Q 2406.9 325.40002 2409.45 326.1 Q 2412 326.8 2414.3 329.3 Q 2416.6 331.8 2416.6 335.7 Q 2416.6 341.2 2409.9 347 Q 2403.2 352.8 2396.5 352.8 Q 2393.7 352.8 2391.15 352.1 Q 2388.6 351.40002 2386.3 348.90002 Q 2384 346.40002 2384 342.5 Z " fill="black"/>
    <path d="M 2489 115.50001 Q 2489 109.50001 2495.6 103.950005 Q 2502.2 98.40001 2509.1 98.40001 Q 2511.9 98.40001 2514.45 99.100006 Q 2517 99.8 2519.3 102.3 Q 2521.6 104.8 2521.6 108.700005 Q 2521.6 114.200005 2514.9 120.00001 Q 2508.2 125.8 2501.5 125.8 Q 2498.7 125.8 2496.15 125.100006 Q 2493.6 124.40001 2491.3 121.90001 Q 2489 119.40001 2489 115.50001 Z " fill="black"/>
    <path d="M 2513.9 164.5 Q 2511 164.5 2501.65 171.05 Q 2492.3 177.6 2492.3 180.6 Q 2492.3 182.70001 2494.1 183.70001 Q 2495.9 184.70001 2498.4 184.70001 Q 2501.3 184.70001 2510.65 178.15001 Q 2520 171.6 2520 168.6 Q 2520 166.5 2518.2 165.5 Q 2516.4 164.5 2513.9 164.5 Z M 2489 178.40001 Q 2489 171.20001 2495.2 166.05 Q 2501.4 160.90001 2510.2 160.90001 Q 2513.2 160.90001 2515.8 161.5 Q 2518.4 162.1 2520.8 164.5 Q 2523.2 166.90001 2523.2 170.8 Q 2523.2 178 2517 183.15001 Q 2510.8 188.3 2502 188.3 Q 2499 188.3 2496.4 187.70001 Q 2493.8 187.1 2491.4 184.70001 Q 2489 182.3 2489 178.40001 Z " fill="black"/>
    <rect x="2480.25" y="173.35" width="51.75" height="2.5" fill="black"/>
    <path d="M 2489 330 Q 2489 324 2495.6 318.45 Q 2502.2 312.90002 2509.1 312.90002 Q 2511.9 312.90002 2514.45 313.6 Q 2517 314.3 2519.3 316.8 Q 2521.6 319.3 2521.6 323.2 Q 2521.6 328.7 2514.9 334.5 Q 2508.2 340.3 2501.5 340.3 Q 2498.7 340.3 2496.15 339.6 Q 2493.6 338.90002 2491.3 336.40002 Q 2489 333.90002 2489 330 Z " fill="black"/>
    <path d="M 2594 128 Q 2594 122.00001 2600.6 116.450005 Q 2607.2 110.90001 2614.1 110.90001 Q 2616.9 110.90001 2619.45 111.600006 Q 2622 112.3 2624.3 114.8 Q 2626.6 117.3 2626.6 121.200005 Q 2626.6 126.700005 2619.9 132.5 Q 2613.2 138.3 2606.5 138.3 Q 2603.7 138.3 2601.15 137.6 Q 2598.6 136.90001 2596.3 134.40001 Q 2594 131.90001 2594 128 Z " fill="black"/>
    <path d="M 2594 342.5 Q 2594 336.5 2600.6 330.95 Q 2607.2 325.40002 2614.1 325.40002 Q 2616.9 325.40002 2619.45 326.1 Q 2622 326.8 2624.3 329.3 Q 2626.6 331.8 2626.6 335.7 Q 2626.6 341.2 2619.9 347 Q 2613.2 352.8 2606.5 352.8 Q 2603.7 352.8 2601.15 352.1 Q 2598.6 351.40002 2596.3 348.90002 Q 2594 346.40002 2594 342.5 Z " fill="black"/>
    <rect x="2699" y="49.600006" width="3.7500002" height="100" fill="black"/>
    <rect x="2699" y="301.6" width="3.7500002" height="100" fill="black"/>
    <path d="M 2733 140.5 Q 2733 134.5 2739.6 128.95001 Q 2746.2 123.40001 2753.1 123.40001 Q 2755.9 123.40001 2758.45 124.100006 Q 2761 124.8 2763.3 127.3 Q 2765.6 129.8 2765.6 133.70001 Q 2765.6 139.20001 2758.9 145 Q 2752.2 150.8 2745.5 150.8 Q 2742.7 150.8 2740.15 150.1 Q 2737.6 149.40001 2735.3 146.90001 Q 2733 144.40001 2733 140.5 Z " fill="black"/>
    <path d="M 2733 165.5 Q 2733 159.5 2739.6 153.95001 Q 2746.2 148.40001 2753.1 148.40001 Q 2755.9 148.40001 2758.45 149.1 Q 2761 149.8 2763.3 152.3 Q 2765.6 154.8 2765.6 158.70001 Q 2765.6 164.20001 2758.9 170 Q 2752.2 175.8 2745.5 175.8 Q 2742.7 175.8 2740.15 175.1 Q 2737.6 174.40001 2735.3 171.90001 Q 2733 169.40001 2733 165.5 Z " fill="black"/>
    <path d="M 2733 355 Q 2733 349 2739.6 343.45 Q 2746.2 337.90002 2753.1 337.90002 Q 2755.9 337.90002 2758.45 338.6 Q 2761 339.3 2763.3 341.8 Q 2765.6 344.3 2765.6 348.2 Q 2765.6 353.7 2758.9 359.5 Q 2752.2 365.30002 2745.5 365.30002 Q 2742.7 365.30002 2740.15 364.6 Q 2737.6 363.9 2735.3 361.4 Q 2733 358.9 2733 355 Z " fill="black"/>
    <path d="M 2838 165.5 Q 2838 159.5 2844.6 153.95001 Q 2851.2 148.40001 2858.1 148.40001 Q 2860.9 148.40001 2863.45 149.1 Q 2866 149.8 2868.3 152.3 Q 2870.6 154.8 2870.6 158.70001 Q 2870.6 164.20001 2863.9 170 Q 2857.2 175.8 2850.5 175.8 Q 2847.7 175.8 2845.15 175.1 Q 2842.6 174.40001 2840.3 171.90001 Q 2838 169.40001 2838 165.5 Z " fill="black"/>
    <path d="M 2838 190.5 Q 2838 184.5 2844.6 178.95001 Q 2851.2 173.40001 2858.1 173.40001 Q 2860.9 173.40001 2863.45 174.1 Q 2866 174.8 2868.3 177.3 Q 2870.6 179.8 2870.6 183.70001 Q 2870.6 189.20001 2863.9 195 Q 2857.2 200.8 2850.5 200.8 Q 2847.7 200.8 2845.15 200.1 Q 2842.6 199.40001 2840.3 196.90001 Q 2838 194.40001 2838 190.5 Z " fill="black"/>
    <rect x="2829.25" y="173.35" width="50" height="2.5" fill="black"/>
    <path d="M 2838 317.5 Q 2838 311.5 2844.6 305.95 Q 2851.2 300.40002 2858.1 300.40002 Q 2860.9 300.40002 2863.45 301.1 Q 2866 301.8 2868.3 304.3 Q 2870.6 306.8 2870.6 310.7 Q 2870.6 316.2 2863.9 322 Q 2857.2 327.8 2850.5 327.8 Q 2847.7 327.8 2845.15 327.1 Q 2842.6 326.40002 2840.3 323.90002 Q 2838 321.40002 2838 317.5 Z " fill="black"/>
    <path d="M 2943 153 Q 2943 147 2949.6 141.45001 Q 2956.2 135.90001 2963.1 135.90001 Q 2965.9 135.90001 2968.45 136.6 Q 2971 137.3 2973.3 139.8 Q 2975.6 142.3 2975.6 146.20001 Q 2975.6 151.70001 2968.9 157.5 Q 2962.2 163.3 2955.5 163.3 Q 2952.7 163.3 2950.15 162.6 Q 2947.6 161.90001 2945.3 159.40001 Q 2943 156.90001 2943 153 Z " fill="black"/>
    <path d="M 2943 178 Q 2943 172 2949.6 166.45001 Q 2956.2 160.90001 2963.1 160.90001 Q 2965.9 160.90001 2968.45 161.6 Q 2971 162.3 2973.3 164.8 Q 2975.6 167.3 2975.6 171.20001 Q 2975.6 176.70001 2968.9 182.5 Q 2962.2 188.3 2955.5 188.3 Q 2952.7 188.3 2950.15 187.6 Q 2947.6 186.90001 2945.3 184.40001 Q 2943 181.90001 2943 178 Z " fill="black"/>
    <rect x="2934.25" y="173.35" width="50" height="2.5" fill="black"/>
    <path d="M 2943 367.5 Q 2943 361.5 2949.6 355.95 Q 2956.2 350.40002 2963.1 350.40002 Q 2965.9 350.40002 2968.45 351.1 Q 2971 351.8 2973.3 354.3 Q 2975.6 356.80002 2975.6 360.7 Q 2975.6 366.2 2968.9 372 Q 2962.2 377.80002 2955.5 377.80002 Q 2952.7 377.80002 2950.15 377.1 Q 2947.6 376.4 2945.3 373.9 Q 2943 371.4 2943 367.5 Z " fill="black"/>
    <line x1="3048" y1="62.100006" x2="3060.5" y2="24.600006" stroke="black" stroke-width="4"/>
    <line x1="3048" y1="314.1" x2="3060.5" y2="276.6" stroke="black" stroke-width="4"/>
    <line x1="1149.5" y1="166.1" x2="1149.5" y2="251.38571" stroke="black" stroke-width="3"/>
    <line x1="1297.5" y1="191.1" x2="1297.5" y2="276.3857" stroke="black" stroke-width="3"/>
    <line x1="1402.5" y1="166.1" x2="1402.5" y2="251.38571" stroke="black" stroke-width="3"/>
    <line x1="1507.5" y1="153.6" x2="1507.5" y2="238.88571" stroke="black" stroke-width="3"/>
    <line x1="1612.5" y1="166.1" x2="1612.5" y2="251.38571" stroke="black" stroke-width="3"/>
    <line x1="1760.5" y1="178.6" x2="1760.5" y2="263.8857" stroke="black" stroke-width="3"/>
    <line x1="1865.5" y1="203.6" x2="1865.5" y2="288.8857" stroke="black" stroke-width="3"/>
    <line x1="1970.5" y1="191.1" x2="1970.5" y2="276.3857" stroke="black" stroke-width="3"/>
    <line x1="2162" y1="35.314293" x2="2162" y2="120.600006" stroke="black" stroke-width="3"/>
    <line x1="2132.5" y1="178.6" x2="2132.5" y2="263.8857" stroke="black" stroke-width="3"/>
    <line x1="2310" y1="60.314293" x2="2310" y2="145.6" stroke="black" stroke-width="3"/>
    <line x1="2280.5" y1="178.6" x2="2280.5" y2="263.8857" stroke="black" stroke-width="3"/>
    <line x1="2415" y1="35.314293" x2="2415" y2="120.600006" stroke="black" stroke-width="3"/>
    <line x1="2520" y1="22.814293" x2="2520" y2="108.100006" stroke="black" stroke-width="3"/>
    <line x1="2490.5" y1="178.6" x2="2490.5" y2="263.8857" stroke="black" stroke-width="3"/>
    <line x1="2625" y1="35.314293" x2="2625" y2="120.600006" stroke="black" stroke-width="3"/>
    <line x1="2764" y1="47.814293" x2="2764" y2="133.1" stroke="black" stroke-width="3"/>
    <line x1="2734.5" y1="166.1" x2="2734.5" y2="251.38571" stroke="black" stroke-width="3"/>
    <line x1="2869" y1="72.81429" x2="2869" y2="158.1" stroke="black" stroke-width="3"/>
    <line x1="2839.5" y1="191.1" x2="2839.5" y2="276.3857" stroke="black" stroke-width="3"/>
    <line x1="2974" y1="60.314293" x2="2974" y2="145.6" stroke="black" stroke-width="3"/>
    <line x1="2944.5" y1="178.6" x2="2944.5" y2="263.8857" stroke="black" stroke-width="3"/>
    <line x1="193.5" y1="318.1" x2="193.5" y2="403.3857" stroke="black" stroke-width="3"/>
    <line x1="332.5" y1="343.1" x2="332.5" y2="428.3857" stroke="black" stroke-width="3"/>
    <line x1="437.5" y1="318.1" x2="437.5" y2="403.3857" stroke="black" stroke-width="3"/>
    <line x1="542.5" y1="305.6" x2="542.5" y2="390.8857" stroke="black" stroke-width="3"/>
    <line x1="647.5" y1="318.1" x2="647.5" y2="403.3857" stroke="black" stroke-width="3"/>
    <line x1="786.5" y1="330.6" x2="786.5" y2="415.8857" stroke="black" stroke-width="3"/>
    <line x1="891.5" y1="355.6" x2="891.5" y2="440.8857" stroke="black" stroke-width="3"/>
    <line x1="996.5" y1="343.1" x2="996.5" y2="428.3857" stroke="black" stroke-width="3"/>
    <line x1="1179" y1="287.3143" x2="1179" y2="372.6" stroke="black" stroke-width="3"/>
    <line x1="1327" y1="312.3143" x2="1327" y2="397.6" stroke="black" stroke-width="3"/>
    <line x1="1432" y1="287.3143" x2="1432" y2="372.6" stroke="black" stroke-width="3"/>
    <line x1="1537" y1="274.8143" x2="1537" y2="360.1" stroke="black" stroke-width="3"/>
    <line x1="1642" y1="287.3143" x2="1642" y2="372.6" stroke="black" stroke-width="3"/>
    <line x1="1790" y1="299.8143" x2="1790" y2="385.1" stroke="black" stroke-width="3"/>
    <line x1="1865.5" y1="355.6" x2="1865.5" y2="440.8857" stroke="black" stroke-width="3"/>
    <line x1="2000" y1="312.3143" x2="2000" y2="397.6" stroke="black" stroke-width="3"/>
    <line x1="2132.5" y1="343.1" x2="2132.5" y2="428.3857" stroke="black" stroke-width="3"/>
    <line x1="2310" y1="274.8143" x2="2310" y2="360.1" stroke="black" stroke-width="3"/>
    <line x1="2385.5" y1="343.1" x2="2385.5" y2="428.3857" stroke="black" stroke-width="3"/>
    <line x1="2490.5" y1="330.6" x2="2490.5" y2="415.8857" stroke="black" stroke-width="3"/>
    <line x1="2595.5" y1="343.1" x2="2595.5" y2="428.3857" stroke="black" stroke-width="3"/>
    <line x1="2734.5" y1="355.6" x2="2734.5" y2="440.8857" stroke="black" stroke-width="3"/>
    <line x1="2839.5" y1="318.1" x2="2839.5" y2="403.3857" stroke="black" stroke-width="3"/>
    <line x1="2974" y1="274.8143" x2="2974" y2="360.1" stroke="black" stroke-width="3"/>
    <rect x="0" y="0" width="3097.25" height="442.3857" stroke="white" stroke-width="1" fill="none"/>
</svg>
