<svg xmlns="http://www.w3.org/2000/svg" xmlns:xlink="http://www.w3.org/1999/xlink" viewBox="0 0 576 298">
	<rect x="15.5" y="74" width="10" height="10" stroke="orange" stroke-width="1" fill="none" />
	<rect x="15.5" y="189" width="10" height="10" stroke="orange" stroke-width="1" fill="none" />
	<rect x="25.5" y="66.5" width="32.5" height="25" stroke="lightgray" stroke-width="1" fill="none" />
	<path d="M 25.5 82.4 Q 25.5 76.4 32.1 70.85 Q 38.7 65.3 45.6 65.3 Q 48.4 65.3 50.95 66 Q 53.5 66.7 55.800003 69.2 Q 58.100002 71.7 58.100002 75.6 Q 58.100002 81.1 51.4 86.9 Q 44.7 92.7 38 92.7 Q 35.2 92.7 32.65 92 Q 30.1 91.3 27.8 88.8 Q 25.5 86.3 25.5 82.4 Z " fill="black" />
	<rect x="25.5" y="79" width="3" height="102.5" stroke="lightgray" stroke-width="1" fill="none" />
	<rect x="0.5" y="106.5" width="25" height="75" stroke="lightgray" stroke-width="1" fill="none" />
	<rect x="25.5" y="181.5" width="32.5" height="25" stroke="lightgray" stroke-width="1" fill="none" />
	<path d="M 25.5 197.4 Q 25.5 191.4 32.1 185.85 Q 38.7 180.3 45.6 180.3 Q 48.4 180.3 50.95 181 Q 53.5 181.7 55.800003 184.2 Q 58.100002 186.7 58.100002 190.6 Q 58.100002 196.1 51.4 201.9 Q 44.7 207.7 38 207.7 Q 35.2 207.7 32.65 207 Q 30.1 206.3 27.8 203.8 Q 25.5 201.3 25.5 197.4 Z " fill="black" />
	<rect x="25.5" y="194" width="3" height="102.5" stroke="lightgray" stroke-width="1" fill="none" />
	<rect x="0.5" y="221.5" width="25" height="75" stroke="lightgray" stroke-width="1" fill="none" />
	<rect x="100.5" y="54" width="25" height="50" stroke="lightgray" stroke-width="1" fill="none" />
	<path d="M 116.2 72.5 Q 112 73.6 109.2 73.6 Q 105.7 73.6 103.1 71.35 Q 100.5 69.1 100.5 65.7 Q 100.5 62.699997 102.65 60.6 Q 104.8 58.5 107.8 58.5 Q 109.7 58.5 111.25 59.55 Q 112.8 60.6 113.4 62.4 Q 113.6 63 114 64.95 Q 114.4 66.9 115 67.6 Q 115.6 68.3 116.9 68.3 Q 118 68.3 120.15 65.85 Q 122.3 63.4 123 62 Q 123.4 61.1 124.4 61.1 Q 125.4 61.1 125.8 62 L 113.5 104 Q 112.4 105 110.8 105 Q 109.1 105 108 104 L 118.4 74.9 Q 118.8 73.8 118.1 73.1 Q 117.3 72.1 116.2 72.5 Z " fill="black" />
	<rect x="100.5" y="169" width="25" height="50" stroke="lightgray" stroke-width="1" fill="none" />
	<path d="M 116.2 187.5 Q 112 188.6 109.2 188.6 Q 105.7 188.6 103.1 186.35 Q 100.5 184.1 100.5 180.7 Q 100.5 177.7 102.65 175.6 Q 104.8 173.5 107.8 173.5 Q 109.7 173.5 111.25 174.55 Q 112.8 175.6 113.4 177.4 Q 113.6 178 114 179.95 Q 114.4 181.9 115 182.6 Q 115.6 183.3 116.9 183.3 Q 118 183.3 120.15 180.85 Q 122.3 178.4 123 177 Q 123.4 176.1 124.4 176.1 Q 125.4 176.1 125.8 177 L 113.5 219 Q 112.4 220 110.8 220 Q 109.1 220 108 219 L 118.4 189.9 Q 118.8 188.8 118.1 188.1 Q 117.3 187.1 116.2 187.5 Z " fill="black" />
	<rect x="175.5" y="91.5" width="32.5" height="25" stroke="lightgray" stroke-width="1" fill="none" />
	<path d="M 175.5 107.4 Q 175.5 101.4 182.1 95.85 Q 188.7 90.3 195.6 90.3 Q 198.4 90.3 200.95 91 Q 203.5 91.7 205.8 94.2 Q 208.1 96.7 208.1 100.6 Q 208.1 106.1 201.4 111.9 Q 194.7 117.7 188 117.7 Q 185.2 117.7 182.65 117 Q 180.1 116.3 177.8 113.8 Q 175.5 111.3 175.5 107.4 Z " fill="black" />
	<rect x="205" y="1.5" width="3" height="102.5" stroke="lightgray" stroke-width="1" fill="none" />
	<rect x="206.5" y="1.5" width="25" height="75" stroke="lightgray" stroke-width="1" fill="none" />
	<path d="M 225.7 48.5 Q 225.7 38.8 213.4 26.5 Q 212.4 25.5 211.5 25.5 Q 209.7 25.5 209.7 28 L 209.7 31.300003 L 208.1 31.300003 L 208.1 1.5 L 209.7 1.5 Q 209.7 6.4000015 211.8 11.400002 Q 213.9 16.400002 216.85 20.7 Q 219.8 25 222.8 29.300003 Q 225.8 33.600002 227.9 38.600002 Q 230 43.600002 230 48.5 Q 230 53.5 226.7 57.9 Q 225.8 59.100002 224.5 59.100002 Q 223.8 59.100002 223.35 58.55 Q 222.9 58 222.9 57.2 Q 222.9 56.600002 223.2 56.2 Q 225.7 52.100002 225.7 48.5 Z " fill="black" />
	<rect x="175.5" y="206.5" width="32.5" height="25" stroke="lightgray" stroke-width="1" fill="none" />
	<path d="M 175.5 222.4 Q 175.5 216.4 182.1 210.85 Q 188.7 205.3 195.6 205.3 Q 198.4 205.3 200.95 206 Q 203.5 206.7 205.8 209.2 Q 208.1 211.7 208.1 215.6 Q 208.1 221.1 201.4 226.9 Q 194.7 232.7 188 232.7 Q 185.2 232.7 182.65 232 Q 180.1 231.3 177.8 228.8 Q 175.5 226.3 175.5 222.4 Z " fill="black" />
	<rect x="205" y="116.5" width="3" height="102.5" stroke="lightgray" stroke-width="1" fill="none" />
	<rect x="206.5" y="116.5" width="25" height="75" stroke="lightgray" stroke-width="1" fill="none" />
	<path d="M 225.7 163.5 Q 225.7 153.8 213.4 141.5 Q 212.4 140.5 211.5 140.5 Q 209.7 140.5 209.7 143 L 209.7 146.3 L 208.1 146.3 L 208.1 116.5 L 209.7 116.5 Q 209.7 121.4 211.8 126.4 Q 213.9 131.4 216.85 135.7 Q 219.8 140 222.8 144.3 Q 225.8 148.6 227.9 153.6 Q 230 158.6 230 163.5 Q 230 168.5 226.7 172.9 Q 225.8 174.1 224.5 174.1 Q 223.8 174.1 223.35 173.55 Q 222.9 173 222.9 172.2 Q 222.9 171.6 223.2 171.2 Q 225.7 167.1 225.7 163.5 Z " fill="black" />
	<rect x="250.5" y="54" width="25" height="50" stroke="lightgray" stroke-width="1" fill="none" />
	<path d="M 266.2 72.5 Q 262 73.6 259.2 73.6 Q 255.7 73.6 253.1 71.35 Q 250.5 69.1 250.5 65.7 Q 250.5 62.699997 252.65 60.6 Q 254.8 58.5 257.8 58.5 Q 259.7 58.5 261.25 59.55 Q 262.8 60.6 263.4 62.4 Q 263.6 63 264 64.95 Q 264.4 66.9 265 67.6 Q 265.6 68.3 266.9 68.3 Q 268 68.3 270.15 65.85 Q 272.3 63.4 273 62 Q 273.4 61.1 274.4 61.1 Q 275.4 61.1 275.8 62 L 263.5 104 Q 262.4 105 260.8 105 Q 259.1 105 258 104 L 268.4 74.9 Q 268.8 73.8 268.1 73.1 Q 267.3 72.1 266.2 72.5 Z " fill="black" />
	<rect x="250.5" y="169" width="25" height="50" stroke="lightgray" stroke-width="1" fill="none" />
	<path d="M 266.2 187.5 Q 262 188.6 259.2 188.6 Q 255.7 188.6 253.1 186.35 Q 250.5 184.1 250.5 180.7 Q 250.5 177.7 252.65 175.6 Q 254.8 173.5 257.8 173.5 Q 259.7 173.5 261.25 174.55 Q 262.8 175.6 263.4 177.4 Q 263.6 178 264 179.95 Q 264.4 181.9 265 182.6 Q 265.6 183.3 266.9 183.3 Q 268 183.3 270.15 180.85 Q 272.3 178.4 273 177 Q 273.4 176.1 274.4 176.1 Q 275.4 176.1 275.8 177 L 263.5 219 Q 262.4 220 260.8 220 Q 259.1 220 258 219 L 268.4 189.9 Q 268.8 188.8 268.1 188.1 Q 267.3 187.1 266.2 187.5 Z " fill="black" />
	<rect x="325.5" y="66.5" width="32.5" height="25" stroke="lightgray" stroke-width="1" fill="none" />
	<path d="M 325.5 82.4 Q 325.5 76.4 332.1 70.85 Q 338.7 65.3 345.6 65.3 Q 348.4 65.3 350.95 66 Q 353.5 66.7 355.8 69.2 Q 358.1 71.7 358.1 75.6 Q 358.1 81.1 351.4 86.9 Q 344.7 92.7 338 92.7 Q 335.2 92.7 332.65 92 Q 330.1 91.3 327.8 88.8 Q 325.5 86.3 325.5 82.4 Z " fill="black" />
	<rect x="325.5" y="79" width="3" height="102.5" stroke="lightgray" stroke-width="1" fill="none" />
	<rect x="300.5" y="106.5" width="25" height="75" stroke="lightgray" stroke-width="1" fill="none" />
	<rect x="325.5" y="181.5" width="32.5" height="25" stroke="lightgray" stroke-width="1" fill="none" />
	<path d="M 325.5 197.4 Q 325.5 191.4 332.1 185.85 Q 338.7 180.3 345.6 180.3 Q 348.4 180.3 350.95 181 Q 353.5 181.7 355.8 184.2 Q 358.1 186.7 358.1 190.6 Q 358.1 196.1 351.4 201.9 Q 344.7 207.7 338 207.7 Q 335.2 207.7 332.65 207 Q 330.1 206.3 327.8 203.8 Q 325.5 201.3 325.5 197.4 Z " fill="black" />
	<rect x="325.5" y="194" width="3" height="102.5" stroke="lightgray" stroke-width="1" fill="none" />
	<rect x="300.5" y="221.5" width="25" height="75" stroke="lightgray" stroke-width="1" fill="none" />
	<rect x="385.5" y="54" width="32.5" height="75" stroke="lightgray" stroke-width="1" fill="none" />
	<path d="M 401.6 97.4 Q 397.5 98.6 394.2 98.6 Q 390.7 98.6 388.1 96.35 Q 385.5 94.1 385.5 90.7 Q 385.5 87.7 387.6 85.6 Q 389.7 83.5 392.7 83.5 Q 394.6 83.5 396.2 84.55 Q 397.8 85.6 398.4 87.4 Q 398.7 88.1 399.05 90 Q 399.4 91.9 399.95 92.6 Q 400.5 93.3 401.8 93.3 Q 402.9 93.3 405.15 90.6 Q 407.4 87.9 407.8 86.5 L 411.4 74.7 Q 411.5 74.4 411.5 74.2 Q 411.5 73.5 410.95 72.95 Q 410.4 72.4 409.6 72.4 Q 409.3 72.4 409.1 72.5 Q 404.9 73.6 402 73.6 Q 398.5 73.6 395.9 71.35 Q 393.3 69.1 393.3 65.7 Q 393.3 62.699997 395.45 60.6 Q 397.6 58.5 400.6 58.5 Q 402.5 58.5 404.05 59.55 Q 405.6 60.6 406.2 62.4 Q 406.5 63.1 406.85 65 Q 407.2 66.9 407.75 67.6 Q 408.3 68.3 409.6 68.3 Q 410.6 68.3 412.6 65.9 Q 414.6 63.5 415.3 62 Q 415.7 61.1 416.7 61.1 Q 417.7 61.1 418.1 62 L 400.2 129 Q 399.1 130 397.5 130 Q 395.8 130 394.7 129 L 403.8 99.6 Q 403.9 99.3 403.9 99 Q 403.9 98.3 403.4 97.8 Q 402.9 97.3 402.1 97.3 Q 401.9 97.3 401.6 97.4 Z " fill="black" />
	<rect x="385.5" y="169" width="32.5" height="75" stroke="lightgray" stroke-width="1" fill="none" />
	<path d="M 401.6 212.4 Q 397.5 213.6 394.2 213.6 Q 390.7 213.6 388.1 211.35 Q 385.5 209.1 385.5 205.7 Q 385.5 202.7 387.6 200.6 Q 389.7 198.5 392.7 198.5 Q 394.6 198.5 396.2 199.55 Q 397.8 200.6 398.4 202.4 Q 398.7 203.1 399.05 205 Q 399.4 206.9 399.95 207.6 Q 400.5 208.3 401.8 208.3 Q 402.9 208.3 405.15 205.6 Q 407.4 202.9 407.8 201.5 L 411.4 189.7 Q 411.5 189.4 411.5 189.2 Q 411.5 188.5 410.95 187.95 Q 410.4 187.4 409.6 187.4 Q 409.3 187.4 409.1 187.5 Q 404.9 188.6 402 188.6 Q 398.5 188.6 395.9 186.35 Q 393.3 184.1 393.3 180.7 Q 393.3 177.7 395.45 175.6 Q 397.6 173.5 400.6 173.5 Q 402.5 173.5 404.05 174.55 Q 405.6 175.6 406.2 177.4 Q 406.5 178.1 406.85 180 Q 407.2 181.9 407.75 182.6 Q 408.3 183.3 409.6 183.3 Q 410.6 183.3 412.6 180.9 Q 414.6 178.5 415.3 177 Q 415.7 176.1 416.7 176.1 Q 417.7 176.1 418.1 177 L 400.2 244 Q 399.1 245 397.5 245 Q 395.8 245 394.7 244 L 403.8 214.6 Q 403.9 214.3 403.9 214 Q 403.9 213.3 403.4 212.8 Q 402.9 212.3 402.1 212.3 Q 401.9 212.3 401.6 212.4 Z " fill="black" />
	<rect x="445.5" y="91.5" width="32.5" height="25" stroke="lightgray" stroke-width="1" fill="none" />
	<path d="M 445.5 107.4 Q 445.5 101.4 452.1 95.85 Q 458.7 90.3 465.6 90.3 Q 468.4 90.3 470.95 91 Q 473.5 91.7 475.8 94.2 Q 478.1 96.7 478.1 100.6 Q 478.1 106.1 471.4 111.9 Q 464.7 117.7 458 117.7 Q 455.2 117.7 452.65 117 Q 450.1 116.3 447.8 113.8 Q 445.5 111.3 445.5 107.4 Z " fill="black" />
	<rect x="475" y="1.5" width="3" height="102.5" stroke="lightgray" stroke-width="1" fill="none" />
	<rect x="476.5" y="1.5" width="25" height="75" stroke="lightgray" stroke-width="1" fill="none" />
	<path d="M 498.1 58.7 Q 500.6 64.2 500.6 69.700005 Q 500.6 78.6 496.4 88 Q 495.7 89.200005 494.5 89.200005 Q 493.5 89.200005 492.75 88.4 Q 492 87.6 492.2 86.5 Q 496.4 78.1 496.4 69.700005 Q 496.4 59.9 482.8 46.9 Q 482.2 46.3 481.5 46.3 Q 480.8 46.3 480.25 46.850002 Q 479.7 47.4 479.7 48.2 L 479.7 51.5 L 478.1 51.5 L 478.1 1.5 L 479.7 1.5 Q 479.7 6.4000015 481.8 11.400002 Q 483.9 16.400002 486.85 20.7 Q 489.8 25 492.8 29.300003 Q 495.8 33.600002 497.9 38.600002 Q 500 43.600002 500 48.5 Q 500 52.600002 498 57.3 Q 497.7 57.8 498.1 58.7 Z M 492.4 49.4 Q 492.9 50.2 493.8 50.2 Q 494.5 50.2 495.1 49.7 Q 495.7 49.2 495.7 48.5 Q 495.7 39.2 483.4 26.5 Q 482.8 25.900002 482 25.900002 Q 481.3 25.900002 480.8 26.400002 Q 480.3 26.900002 480.3 27.7 Q 480.3 30.300003 481.7 33.55 Q 483.1 36.8 484.6 38.95 Q 486.1 41.100002 488.85 44.7 Q 491.6 48.3 492.4 49.4 Z " fill="black" />
	<rect x="445.5" y="206.5" width="32.5" height="25" stroke="lightgray" stroke-width="1" fill="none" />
	<path d="M 445.5 222.4 Q 445.5 216.4 452.1 210.85 Q 458.7 205.3 465.6 205.3 Q 468.4 205.3 470.95 206 Q 473.5 206.7 475.8 209.2 Q 478.1 211.7 478.1 215.6 Q 478.1 221.1 471.4 226.9 Q 464.7 232.7 458 232.7 Q 455.2 232.7 452.65 232 Q 450.1 231.3 447.8 228.8 Q 445.5 226.3 445.5 222.4 Z " fill="black" />
	<rect x="475" y="116.5" width="3" height="102.5" stroke="lightgray" stroke-width="1" fill="none" />
	<rect x="476.5" y="116.5" width="25" height="75" stroke="lightgray" stroke-width="1" fill="none" />
	<path d="M 498.1 173.7 Q 500.6 179.2 500.6 184.70001 Q 500.6 193.6 496.4 203 Q 495.7 204.20001 494.5 204.20001 Q 493.5 204.20001 492.75 203.4 Q 492 202.6 492.2 201.5 Q 496.4 193.1 496.4 184.70001 Q 496.4 174.9 482.8 161.9 Q 482.2 161.3 481.5 161.3 Q 480.8 161.3 480.25 161.85 Q 479.7 162.4 479.7 163.2 L 479.7 166.5 L 478.1 166.5 L 478.1 116.5 L 479.7 116.5 Q 479.7 121.4 481.8 126.4 Q 483.9 131.4 486.85 135.7 Q 489.8 140 492.8 144.3 Q 495.8 148.6 497.9 153.6 Q 500 158.6 500 163.5 Q 500 167.6 498 172.3 Q 497.7 172.8 498.1 173.7 Z M 492.4 164.4 Q 492.9 165.2 493.8 165.2 Q 494.5 165.2 495.1 164.7 Q 495.7 164.2 495.7 163.5 Q 495.7 154.2 483.4 141.5 Q 482.8 140.9 482 140.9 Q 481.3 140.9 480.8 141.4 Q 480.3 141.9 480.3 142.7 Q 480.3 145.3 481.7 148.55 Q 483.1 151.8 484.6 153.95 Q 486.1 156.1 488.85 159.7 Q 491.6 163.3 492.4 164.4 Z " fill="black" />
	<rect x="505.5" y="54" width="32.5" height="75" stroke="lightgray" stroke-width="1" fill="none" />
	<path d="M 521.6 97.4 Q 517.5 98.6 514.2 98.6 Q 510.7 98.6 508.1 96.35 Q 505.5 94.1 505.5 90.7 Q 505.5 87.7 507.6 85.6 Q 509.7 83.5 512.7 83.5 Q 514.6 83.5 516.2 84.55 Q 517.8 85.6 518.4 87.4 Q 518.7 88.1 519.05 90 Q 519.4 91.9 519.95 92.6 Q 520.5 93.3 521.8 93.3 Q 522.9 93.3 525.15 90.6 Q 527.4 87.9 527.8 86.5 L 531.4 74.7 Q 531.5 74.4 531.5 74.2 Q 531.5 73.5 530.95 72.95 Q 530.4 72.4 529.6 72.4 Q 529.3 72.4 529.1 72.5 Q 524.9 73.6 522 73.6 Q 518.5 73.6 515.9 71.35 Q 513.3 69.1 513.3 65.7 Q 513.3 62.699997 515.45 60.6 Q 517.6 58.5 520.6 58.5 Q 522.5 58.5 524.05 59.55 Q 525.6 60.6 526.2 62.4 Q 526.5 63.1 526.85 65 Q 527.2 66.9 527.75 67.6 Q 528.3 68.3 529.6 68.3 Q 530.6 68.3 532.6 65.9 Q 534.6 63.5 535.3 62 Q 535.7 61.1 536.7 61.1 Q 537.7 61.1 538.1 62 L 520.2 129 Q 519.1 130 517.5 130 Q 515.8 130 514.7 129 L 523.8 99.6 Q 523.9 99.3 523.9 99 Q 523.9 98.3 523.4 97.8 Q 522.9 97.3 522.1 97.3 Q 521.9 97.3 521.6 97.4 Z " fill="black" />
	<rect x="505.5" y="169" width="32.5" height="75" stroke="lightgray" stroke-width="1" fill="none" />
	<path d="M 521.6 212.4 Q 517.5 213.6 514.2 213.6 Q 510.7 213.6 508.1 211.35 Q 505.5 209.1 505.5 205.7 Q 505.5 202.7 507.6 200.6 Q 509.7 198.5 512.7 198.5 Q 514.6 198.5 516.2 199.55 Q 517.8 200.6 518.4 202.4 Q 518.7 203.1 519.05 205 Q 519.4 206.9 519.95 207.6 Q 520.5 208.3 521.8 208.3 Q 522.9 208.3 525.15 205.6 Q 527.4 202.9 527.8 201.5 L 531.4 189.7 Q 531.5 189.4 531.5 189.2 Q 531.5 188.5 530.95 187.95 Q 530.4 187.4 529.6 187.4 Q 529.3 187.4 529.1 187.5 Q 524.9 188.6 522 188.6 Q 518.5 188.6 515.9 186.35 Q 513.3 184.1 513.3 180.7 Q 513.3 177.7 515.45 175.6 Q 517.6 173.5 520.6 173.5 Q 522.5 173.5 524.05 174.55 Q 525.6 175.6 526.2 177.4 Q 526.5 178.1 526.85 180 Q 527.2 181.9 527.75 182.6 Q 528.3 183.3 529.6 183.3 Q 530.6 183.3 532.6 180.9 Q 534.6 178.5 535.3 177 Q 535.7 176.1 536.7 176.1 Q 537.7 176.1 538.1 177 L 520.2 244 Q 519.1 245 517.5 245 Q 515.8 245 514.7 244 L 523.8 214.6 Q 523.9 214.3 523.9 214 Q 523.9 213.3 523.4 212.8 Q 522.9 212.3 522.1 212.3 Q 521.9 212.3 521.6 212.4 Z " fill="black" />
	<rect x="565.5" y="74" width="10" height="10" stroke="orange" stroke-width="1" fill="none" />
	<rect x="565.5" y="189" width="10" height="10" stroke="orange" stroke-width="1" fill="none" />
	<line x1="27" y1="83" x2="27" y2="181.5" stroke="black" stroke-width="3" />
	<line x1="206.5" y1="1.5" x2="206.5" y2="100" stroke="black" stroke-width="3" />
	<line x1="327" y1="83" x2="327" y2="181.5" stroke="black" stroke-width="3" />
	<line x1="476.5" y1="1.5" x2="476.5" y2="100" stroke="black" stroke-width="3" />
	<line x1="27" y1="198" x2="27" y2="296.5" stroke="black" stroke-width="3" />
	<line x1="206.5" y1="116.5" x2="206.5" y2="215" stroke="black" stroke-width="3" />
	<line x1="327" y1="198" x2="327" y2="296.5" stroke="black" stroke-width="3" />
	<line x1="476.5" y1="116.5" x2="476.5" y2="215" stroke="black" stroke-width="3" />
	<rect x="0" y="0" width="576" height="298" stroke="black" stroke-width="1" fill="none" />
</svg>
