<svg xmlns="http://www.w3.org/2000/svg" xmlns:xlink="http://www.w3.org/1999/xlink" width="312.75" height="431.5714" viewBox="0 0 312.75 431.5714">
    <line x1="25" y1="65.78571" x2="25" y2="390.7857" stroke="black" stroke-width="2.5"/>
    <rect x="0" y="60.785713" width="12.5" height="335" fill="black"/>
    <path d="M 0 60.785713 L 25 50.785713 L 25 52.785713 L 12.5 60.785713 " fill="black"/>
    <path d="M 0 395.7857 L 25 405.7857 L 25 403.7857 L 12.5 395.7857 " fill="black"/>
    <line x1="25" y1="65.78571" x2="311.5" y2="65.78571" stroke="black" stroke-width="2.5"/>
    <line x1="25" y1="90.78571" x2="311.5" y2="90.78571" stroke="black" stroke-width="2.5"/>
    <line x1="25" y1="115.78571" x2="311.5" y2="115.78571" stroke="black" stroke-width="2.5"/>
    <line x1="25" y1="140.7857" x2="311.5" y2="140.7857" stroke="black" stroke-width="2.5"/>
    <line x1="25" y1="165.7857" x2="311.5" y2="165.7857" stroke="black" stroke-width="2.5"/>
    <line x1="25" y1="290.7857" x2="311.5" y2="290.7857" stroke="black" stroke-width="2.5"/>
    <line x1="25" y1="315.7857" x2="311.5" y2="315.7857" stroke="black" stroke-width="2.5"/>
    <line x1="25" y1="340.7857" x2="311.5" y2="340.7857" stroke="black" stroke-width="2.5"/>
    <line x1="25" y1="365.7857" x2="311.5" y2="365.7857" stroke="black" stroke-width="2.5"/>
    <line x1="25" y1="390.7857" x2="311.5" y2="390.7857" stroke="black" stroke-width="2.5"/>
    <path d="M 59.800003 84.28571 Q 57.5 76.98572 56.6 71.28571 Q 55.800003 66.48571 55.800003 60.08571 Q 55.800003 57.88571 55.9 55.685715 Q 56.300003 46.185715 59.800003 38.23571 Q 63.300003 30.285713 70.3 26.085709 Q 70.8 25.785713 71.600006 25.785713 Q 72.3 25.785713 72.8 26.285713 Q 78.4 31.885712 81.4 40.58571 Q 84.4 49.285713 84.4 58.185715 Q 84.4 68.48571 80 78.38571 Q 75.8 88.28571 68.2 95.88571 Q 67.600006 96.48572 67.8 97.48572 L 71.8 113.48571 Q 72.100006 115.08571 73.8 114.88571 Q 75.4 114.685715 76.9 114.685715 Q 82.7 114.685715 87.4 116.98571 Q 92.100006 119.28571 95 122.98571 Q 97.9 126.685715 99.450005 131.13571 Q 101 135.58571 101 140.2857 Q 101 148.88571 96.2 155.83571 Q 91.4 162.7857 84.7 164.98572 Q 83.3 165.48572 83.600006 167.08572 Q 86.100006 178.88571 86.2 186.98572 Q 86.2 190.08572 85.8 193.08572 Q 85 199.98572 79.8 205.18571 Q 74.600006 210.38571 67.4 210.38571 Q 58.6 210.38571 52.5 205.08572 Q 46.4 199.7857 46.4 191.18571 Q 46.4 186.7857 49.5 183.58572 Q 52.6 180.38571 56.800003 180.38571 Q 61.1 180.38571 64.05 183.43571 Q 67 186.48572 67 190.68571 Q 67 194.2857 64.6 196.98572 Q 62.2 199.7857 58.800003 200.08572 Q 57.6 200.18571 57.2 201.2857 Q 56.800003 202.38571 58 203.2857 Q 61.6 206.08572 66.8 206.08572 Q 72.5 206.08572 76.65 201.98572 Q 80.8 197.88571 81.5 192.68571 Q 82 189.08572 82 185.48572 Q 82 177.68571 79.600006 168.18571 Q 79.2 166.48572 77.4 166.68571 Q 73.4 167.18571 70 167.18571 Q 55.2 167.18571 45.1 157.88571 Q 35 148.58571 35 132.58571 Q 35 127.685715 36.15 122.935715 Q 37.3 118.185715 38.75 114.73571 Q 40.2 111.28571 43.25 106.73572 Q 46.3 102.185715 48.15 99.78571 Q 50 97.38571 54 92.63571 Q 58 87.88571 59.5 85.98572 Q 60.1 85.28571 59.800003 84.28571 Z M 75.4 129.98572 L 81.9 159.48572 Q 82.2 160.7857 83.7 160.7857 Q 84.100006 160.7857 84.4 160.68571 Q 88.5 158.98572 91.2 154.08571 Q 93.9 149.18571 93.9 144.38571 Q 93.9 137.38571 89.8 132.58571 Q 85.600006 127.685715 77.2 127.685715 Q 76.5 127.685715 75.95 128.23572 Q 75.4 128.7857 75.4 129.48572 Q 75.3 129.7857 75.4 129.98572 Z M 61.6 102.185715 Q 60 103.98572 56.85 107.33571 Q 53.7 110.685715 52.15 112.435715 Q 50.6 114.185715 48.35 117.38571 Q 46.1 120.58571 45 123.28571 Q 43.9 125.98571 43.05 129.88571 Q 42.2 133.7857 42.2 138.18571 Q 42.2 144.2857 45.95 149.98572 Q 49.7 155.68571 56.25 159.2857 Q 62.800003 162.88571 70.3 162.88571 Q 73 162.88571 76.3 162.58572 Q 77.100006 162.48572 77.600006 161.83572 Q 78.100006 161.18571 77.9 160.38571 L 71.4 130.48572 Q 71.100006 129.08571 69.5 129.08571 Q 69.2 129.08571 68.8 129.18571 Q 64.2 130.88571 62.300003 133.98572 Q 60.4 137.08571 60.4 141.7857 Q 60.4 147.2857 66.4 151.2857 Q 67.100006 151.7857 67.100006 152.7857 Q 67.100006 153.58571 66.45 154.2857 Q 65.8 154.98572 64.9 154.98572 Q 64.4 154.98572 64 154.7857 Q 58.300003 151.7857 55.550003 146.63571 Q 52.800003 141.48572 52.800003 135.7857 Q 52.800003 130.2857 56.75 124.435715 Q 60.7 118.58571 66.6 116.38571 Q 68.100006 115.78571 67.8 114.28571 L 64.8 102.98572 Q 64.6 101.88571 63.4 101.685715 Q 62.2 101.48572 61.6 102.185715 Z M 78.4 43.98571 Q 77.600006 41.38571 75.7 41.38571 Q 75.100006 41.38571 74.600006 41.685715 Q 68.2 45.48571 64.45 52.38571 Q 60.7 59.285713 60.7 66.98571 Q 60.7 71.98571 62.800003 79.28571 Q 63.1 80.38571 64.3 80.58571 Q 65.3 80.685715 66 79.88571 Q 66.3 79.48572 68.850006 76.33571 Q 71.4 73.185715 72.2 72.13571 Q 73 71.08571 74.9 68.13571 Q 76.8 65.185715 77.55 63.23571 Q 78.3 61.285713 79 58.38571 Q 79.7 55.48571 79.7 52.58571 Q 79.7 48.38571 78.4 43.98571 Z " fill="black"/>
    <path d="M 92 328.2857 Q 92 326.1857 93.5 324.6857 Q 95 323.1857 97.100006 323.1857 Q 99.200005 323.1857 100.700005 324.6857 Q 102.200005 326.1857 102.200005 328.2857 Q 102.200005 330.3857 100.700005 331.8857 Q 99.200005 333.3857 97.100006 333.3857 Q 95 333.3857 93.5 331.8857 Q 92 330.3857 92 328.2857 Z M 92 303.2857 Q 92 301.1857 93.5 299.6857 Q 95 298.1857 97.100006 298.1857 Q 99.200005 298.1857 100.700005 299.6857 Q 102.200005 301.1857 102.200005 303.2857 Q 102.200005 305.3857 100.700005 306.8857 Q 99.200005 308.3857 97.100006 308.3857 Q 95 308.3857 93.5 306.8857 Q 92 305.3857 92 303.2857 Z M 47.2 303.8857 Q 51.7 303.8857 54.6 306.7857 Q 57.5 309.6857 57.5 313.8857 Q 57.5 318.2857 54.6 321.3857 Q 51.7 324.48572 47.5 324.48572 Q 43 324.48572 39.65 321.3857 Q 36.3 318.2857 36.3 313.8857 Q 36.3 303.08572 43.5 296.2857 Q 50.7 289.48572 61.4 289.48572 Q 73.5 289.48572 81.15 296.4357 Q 88.8 303.3857 88.8 314.58572 Q 88.8 349.98572 37.4 372.6857 Q 36.7 372.98572 36.3 372.98572 Q 35 372.98572 35 371.6857 Q 35 370.98572 36.3 370.1857 Q 44.3 365.48572 49.55 361.8857 Q 54.800003 358.2857 60.4 353.1857 Q 66 348.08572 69.2 342.9357 Q 72.4 337.7857 74.5 330.7857 Q 76.600006 323.7857 76.600006 315.58572 Q 76.600006 305.1857 72.05 298.8857 Q 67.5 292.58572 59.6 292.58572 Q 54.800003 292.58572 50.9 294.83572 Q 47 297.08572 45.5 300.98572 Q 45.1 302.2857 45.6 302.98572 Q 46.3 303.8857 47.2 303.8857 Z " fill="black"/>
    <path d="M 169 144.18571 Q 169 138.18571 175.6 132.63571 Q 182.2 127.08572 189.1 127.08572 Q 191.9 127.08572 194.45 127.78571 Q 197 128.48572 199.3 130.98572 Q 201.6 133.48572 201.6 137.38571 Q 201.6 142.88571 194.9 148.68571 Q 188.2 154.48572 181.5 154.48572 Q 178.7 154.48572 176.15 153.7857 Q 173.6 153.08571 171.3 150.58571 Q 169 148.08571 169 144.18571 Z " fill="black"/>
    <path d="M 169 119.185715 Q 169 113.185715 175.6 107.63571 Q 182.2 102.08572 189.1 102.08572 Q 191.9 102.08572 194.45 102.78571 Q 197 103.48571 199.3 105.98571 Q 201.6 108.48571 201.6 112.38571 Q 201.6 117.88571 194.9 123.685715 Q 188.2 129.48572 181.5 129.48572 Q 178.7 129.48572 176.15 128.7857 Q 173.6 128.08571 171.3 125.58572 Q 169 123.08572 169 119.185715 Z " fill="black"/>
    <path d="M 169 181.68571 Q 169 175.68571 175.6 170.13571 Q 182.2 164.58571 189.1 164.58571 Q 191.9 164.58571 194.45 165.2857 Q 197 165.98572 199.3 168.48572 Q 201.6 170.98572 201.6 174.88571 Q 201.6 180.38571 194.9 186.18571 Q 188.2 191.98572 181.5 191.98572 Q 178.7 191.98572 176.15 191.2857 Q 173.6 190.58572 171.3 188.08572 Q 169 185.58572 169 181.68571 Z " fill="black"/>
    <path d="M 169 356.6857 Q 169 350.6857 175.6 345.1357 Q 182.2 339.58572 189.1 339.58572 Q 191.9 339.58572 194.45 340.2857 Q 197 340.98572 199.3 343.48572 Q 201.6 345.98572 201.6 349.8857 Q 201.6 355.3857 194.9 361.1857 Q 188.2 366.98572 181.5 366.98572 Q 178.7 366.98572 176.15 366.2857 Q 173.6 365.58572 171.3 363.08572 Q 169 360.58572 169 356.6857 Z " fill="black"/>
    <path d="M 160.6 343.6857 L 160.6 355.8857 Q 160.6 356.6857 161.1 357.1857 Q 161.6 357.6857 162.4 357.6857 Q 162.7 357.6857 163 357.58572 L 163.8 357.2857 Q 164.1 357.1857 164.5 357.1857 Q 165.3 357.1857 165.9 357.7857 Q 166.5 358.3857 166.5 359.1857 L 166.5 365.1857 Q 166.5 366.48572 165.2 366.98572 L 161.8 368.2857 Q 160.6 368.7857 160.6 369.8857 L 160.6 384.48572 Q 160.6 385.2857 160.05 385.8357 Q 159.5 386.3857 158.8 386.3857 Q 158 386.3857 157.45 385.8357 Q 156.9 385.2857 156.9 384.48572 L 156.9 372.5857 Q 156.9 371.7857 156.35 371.2857 Q 155.8 370.7857 155.1 370.7857 Q 154.7 370.7857 154.4 370.8857 L 149.8 372.6857 Q 148.6 373.0857 148.6 374.2857 L 148.6 388.8857 Q 148.6 389.6857 148 390.23572 Q 147.4 390.7857 146.7 390.7857 Q 146 390.7857 145.45 390.23572 Q 144.9 389.6857 144.9 388.8857 L 144.9 376.98572 Q 144.9 376.1857 144.35 375.6857 Q 143.8 375.1857 143.1 375.1857 Q 142.8 375.1857 142.5 375.2857 L 141.7 375.5857 Q 141.5 375.6857 141 375.6857 Q 140.2 375.6857 139.6 375.0857 Q 139 374.48572 139 373.6857 L 139 367.6857 Q 139 366.2857 140.3 365.7857 L 143.7 364.58572 Q 144.9 364.2857 144.9 362.8857 L 144.9 350.6857 Q 144.9 349.8857 144.35 349.3857 Q 143.8 348.8857 143.1 348.8857 Q 142.8 348.8857 142.6 348.98572 L 141.7 349.2857 Q 141.5 349.3857 141 349.3857 Q 140.2 349.3857 139.6 348.7857 Q 139 348.1857 139 347.3857 L 139 341.3857 Q 139 340.08572 140.3 339.58572 L 143.8 338.2857 Q 144.9 337.7857 144.9 336.6857 L 144.9 322.08572 Q 144.9 321.2857 145.45 320.73572 Q 146 320.1857 146.7 320.1857 Q 147.4 320.1857 148 320.73572 Q 148.6 321.2857 148.6 322.08572 L 148.6 333.98572 Q 148.6 334.7857 149.15 335.2857 Q 149.7 335.7857 150.5 335.7857 Q 150.8 335.7857 151.1 335.6857 L 155.7 333.8857 Q 156.9 333.3857 156.9 332.1857 L 156.9 317.6857 Q 156.9 316.8857 157.45 316.33572 Q 158 315.7857 158.8 315.7857 Q 159.5 315.7857 160.05 316.33572 Q 160.6 316.8857 160.6 317.6857 L 160.6 329.6857 Q 160.6 330.3857 161.1 330.8857 Q 161.6 331.3857 162.3 331.3857 Q 162.6 331.3857 163 331.2857 L 163.8 330.98572 Q 164 330.8857 164.5 330.8857 Q 165.3 330.8857 165.9 331.48572 Q 166.5 332.08572 166.5 332.8857 L 166.5 338.8857 Q 166.5 340.2857 165.2 340.7857 L 161.8 341.98572 Q 160.6 342.2857 160.6 343.6857 Z M 156.9 358.48572 L 156.9 346.3857 Q 156.9 345.6857 156.35 345.1357 Q 155.8 344.58572 155.1 344.58572 Q 154.8 344.58572 154.5 344.6857 L 149.8 346.3857 Q 148.6 346.8857 148.6 348.08572 L 148.6 360.1857 Q 148.6 360.98572 149.1 361.48572 Q 149.6 361.98572 150.4 361.98572 Q 150.7 361.98572 151 361.8857 L 155.7 360.1857 Q 156.9 359.6857 156.9 358.48572 Z " fill="black"/>
    <path d="M 274 156.68571 Q 274 150.68571 280.6 145.13571 Q 287.2 139.58571 294.1 139.58571 Q 296.9 139.58571 299.45 140.2857 Q 302 140.98572 304.3 143.48572 Q 306.6 145.98572 306.6 149.88571 Q 306.6 155.38571 299.9 161.18571 Q 293.2 166.98572 286.5 166.98572 Q 283.7 166.98572 281.15 166.2857 Q 278.6 165.58571 276.3 163.08571 Q 274 160.58571 274 156.68571 Z " fill="black"/>
    <path d="M 274 94.185715 Q 274 88.185715 280.6 82.63571 Q 287.2 77.08571 294.1 77.08571 Q 296.9 77.08571 299.45 77.78571 Q 302 78.48572 304.3 80.98572 Q 306.6 83.48572 306.6 87.38571 Q 306.6 92.88571 299.9 98.685715 Q 293.2 104.48571 286.5 104.48571 Q 283.7 104.48571 281.15 103.78571 Q 278.6 103.08572 276.3 100.58572 Q 274 98.08571 274 94.185715 Z " fill="black"/>
    <path d="M 274 181.68571 Q 274 175.68571 280.6 170.13571 Q 287.2 164.58571 294.1 164.58571 Q 296.9 164.58571 299.45 165.2857 Q 302 165.98572 304.3 168.48572 Q 306.6 170.98572 306.6 174.88571 Q 306.6 180.38571 299.9 186.18571 Q 293.2 191.98572 286.5 191.98572 Q 283.7 191.98572 281.15 191.2857 Q 278.6 190.58572 276.3 188.08572 Q 274 185.58572 274 181.68571 Z " fill="black"/>
    <path d="M 274 344.1857 Q 274 338.1857 280.6 332.6357 Q 287.2 327.08572 294.1 327.08572 Q 296.9 327.08572 299.45 327.7857 Q 302 328.48572 304.3 330.98572 Q 306.6 333.48572 306.6 337.3857 Q 306.6 342.8857 299.9 348.6857 Q 293.2 354.48572 286.5 354.48572 Q 283.7 354.48572 281.15 353.7857 Q 278.6 353.08572 276.3 350.58572 Q 274 348.08572 274 344.1857 Z " fill="black"/>
    <line x1="200" y1="26.5" x2="200" y2="136.7857" stroke="black" stroke-width="3"/>
    <line x1="170.5" y1="182.2857" x2="170.5" y2="267.5714" stroke="black" stroke-width="3"/>
    <line x1="305" y1="1.5" x2="305" y2="149.2857" stroke="black" stroke-width="3"/>
    <line x1="275.5" y1="182.2857" x2="275.5" y2="267.5714" stroke="black" stroke-width="3"/>
    <line x1="200" y1="264" x2="200" y2="349.2857" stroke="black" stroke-width="3"/>
    <line x1="275.5" y1="344.7857" x2="275.5" y2="430.0714" stroke="black" stroke-width="3"/>
    <path d="M 214 119.78571 L 239 122.28571 L 264 94.78571 " stroke="tomato" stroke-width="5" fill="none"/>
    <path d="M 251.05092 137.0756 L 234.86232 163.2857 L 232.29868 163.2857 L 248.48727 137.0756 L 251.05092 137.0756 Z M 234.5217 137.0756 L 237.08533 137.0756 L 237.08533 152.78015 L 234.70097 152.78015 L 234.70097 142.40009 Q 234.70097 140.76868 234.80853 139.1552 Q 234.41412 139.5496 233.93008 139.95297 Q 233.44604 140.35635 231.02582 142.05946 L 229.82466 140.33842 L 234.5217 137.0756 Z M 255.87343 163.26779 L 245.04518 163.26779 L 245.04518 161.40332 L 249.27608 157.27997 Q 250.87164 155.7382 251.60667 154.86871 Q 252.3417 153.99924 252.63751 153.31798 Q 252.9333 152.63673 252.9333 151.66864 Q 252.9333 150.44957 252.2162 149.83107 Q 251.4991 149.21257 250.36966 149.21257 Q 249.43744 149.21257 248.55898 149.55319 Q 247.68053 149.89381 246.44353 150.79019 L 245.26031 149.21257 Q 247.60883 147.22261 250.33382 147.22261 Q 252.70026 147.22261 254.01793 148.38791 Q 255.3356 149.55319 255.3356 151.56108 Q 255.3356 152.99529 254.53783 154.34882 Q 253.74005 155.70235 251.10469 158.17636 L 247.98529 161.1344 L 255.87343 161.1344 L 255.87343 163.26779 Z " fill="black"/>
    <path d="M 214 144.7857 L 264 157.2857 " stroke="dodgerblue" stroke-width="5" fill="none"/>
    <path d="M 239.25458 121.03571 L 236.93115 121.03571 L 236.93115 106.09129 Q 236.93115 104.22682 237.0459 102.56314 Q 236.7447 102.86433 236.37181 103.19419 Q 235.99892 103.52406 232.9584 105.9909 L 231.6963 104.355896 L 237.24669 100.06763 L 239.25458 100.06763 L 239.25458 121.03571 Z " fill="black"/>
    <line x1="214" y1="182.2857" x2="264" y2="182.2857" stroke="lime" stroke-width="5"/>
    <line x1="214" y1="357.2857" x2="264" y2="344.7857" stroke="black" stroke-width="5"/>
    <rect x="0" y="0" width="312.75" height="431.5714" stroke="white" stroke-width="1" fill="none"/>
</svg>
