<svg xmlns="http://www.w3.org/2000/svg" xmlns:xlink="http://www.w3.org/1999/xlink" width="145" height="269.0714" viewBox="0 0 145 269.0714">
    <line x1="1.25" y1="65.78571" x2="143.75" y2="65.78571" stroke="black" stroke-width="2.5"/>
    <line x1="1.25" y1="90.78571" x2="143.75" y2="90.78571" stroke="black" stroke-width="2.5"/>
    <line x1="1.25" y1="115.78571" x2="143.75" y2="115.78571" stroke="black" stroke-width="2.5"/>
    <line x1="1.25" y1="140.7857" x2="143.75" y2="140.7857" stroke="black" stroke-width="2.5"/>
    <line x1="1.25" y1="165.7857" x2="143.75" y2="165.7857" stroke="black" stroke-width="2.5"/>
    <path d="M 1.25 144.18571 Q 1.25 138.18571 7.85 132.63571 Q 14.45 127.08572 21.35 127.08572 Q 24.15 127.08572 26.7 127.78571 Q 29.25 128.48572 31.550001 130.98572 Q 33.850002 133.48572 33.850002 137.38571 Q 33.850002 142.88571 27.15 148.68571 Q 20.45 154.48572 13.75 154.48572 Q 10.95 154.48572 8.4 153.7857 Q 5.85 153.08571 3.55 150.58571 Q 1.25 148.08571 1.25 144.18571 Z " fill="black"/>
    <path d="M 1.25 119.185715 Q 1.25 113.185715 7.85 107.63571 Q 14.45 102.08572 21.35 102.08572 Q 24.15 102.08572 26.7 102.78571 Q 29.25 103.48571 31.550001 105.98571 Q 33.850002 108.48571 33.850002 112.38571 Q 33.850002 117.88571 27.15 123.685715 Q 20.45 129.48572 13.75 129.48572 Q 10.95 129.48572 8.4 128.7857 Q 5.85 128.08571 3.55 125.58572 Q 1.25 123.08572 1.25 119.185715 Z " fill="black"/>
    <path d="M 1.25 181.68571 Q 1.25 175.68571 7.85 170.13571 Q 14.45 164.58571 21.35 164.58571 Q 24.15 164.58571 26.7 165.2857 Q 29.25 165.98572 31.550001 168.48572 Q 33.850002 170.98572 33.850002 174.88571 Q 33.850002 180.38571 27.15 186.18571 Q 20.45 191.98572 13.75 191.98572 Q 10.95 191.98572 8.4 191.2857 Q 5.85 190.58572 3.55 188.08572 Q 1.25 185.58572 1.25 181.68571 Z " fill="black"/>
    <path d="M 106.25 156.68571 Q 106.25 150.68571 112.85 145.13571 Q 119.45 139.58571 126.35 139.58571 Q 129.15 139.58571 131.7 140.2857 Q 134.25 140.98572 136.55 143.48572 Q 138.85 145.98572 138.85 149.88571 Q 138.85 155.38571 132.15 161.18571 Q 125.45 166.98572 118.75 166.98572 Q 115.95 166.98572 113.4 166.2857 Q 110.85 165.58571 108.55 163.08571 Q 106.25 160.58571 106.25 156.68571 Z " fill="black"/>
    <path d="M 106.25 94.185715 Q 106.25 88.185715 112.85 82.63571 Q 119.45 77.08571 126.35 77.08571 Q 129.15 77.08571 131.7 77.78571 Q 134.25 78.48572 136.55 80.98572 Q 138.85 83.48572 138.85 87.38571 Q 138.85 92.88571 132.15 98.685715 Q 125.45 104.48571 118.75 104.48571 Q 115.95 104.48571 113.4 103.78571 Q 110.85 103.08572 108.55 100.58572 Q 106.25 98.08571 106.25 94.185715 Z " fill="black"/>
    <path d="M 106.25 181.68571 Q 106.25 175.68571 112.85 170.13571 Q 119.45 164.58571 126.35 164.58571 Q 129.15 164.58571 131.7 165.2857 Q 134.25 165.98572 136.55 168.48572 Q 138.85 170.98572 138.85 174.88571 Q 138.85 180.38571 132.15 186.18571 Q 125.45 191.98572 118.75 191.98572 Q 115.95 191.98572 113.4 191.2857 Q 110.85 190.58572 108.55 188.08572 Q 106.25 185.58572 106.25 181.68571 Z " fill="black"/>
    <line x1="32.25" y1="26.5" x2="32.25" y2="136.7857" stroke="black" stroke-width="3"/>
    <line x1="2.75" y1="182.2857" x2="2.75" y2="267.5714" stroke="black" stroke-width="3"/>
    <line x1="137.25" y1="1.5" x2="137.25" y2="149.2857" stroke="black" stroke-width="3"/>
    <line x1="107.75" y1="182.2857" x2="107.75" y2="267.5714" stroke="black" stroke-width="3"/>
    <path d="M 46.25 119.78571 L 71.25 122.28571 L 96.25 94.78571 " stroke="tomato" stroke-width="5" fill="none"/>
    <path d="M 83.30092 137.0756 L 67.11232 163.2857 L 64.548676 163.2857 L 80.737274 137.0756 L 83.30092 137.0756 Z M 66.77169 137.0756 L 69.335335 137.0756 L 69.335335 152.78015 L 66.950966 152.78015 L 66.950966 142.40009 Q 66.950966 140.76868 67.05853 139.1552 Q 66.66412 139.5496 66.180084 139.95297 Q 65.69604 140.35635 63.275814 142.05946 L 62.07467 140.33842 L 66.77169 137.0756 Z M 88.12343 163.26779 L 77.29518 163.26779 L 77.29518 161.40332 L 81.526085 157.27997 Q 83.12164 155.7382 83.85667 154.86871 Q 84.5917 153.99924 84.887505 153.31798 Q 85.18331 152.63673 85.18331 151.66864 Q 85.18331 150.44957 84.46621 149.83107 Q 83.7491 149.21257 82.61967 149.21257 Q 81.68743 149.21257 80.80898 149.55319 Q 79.93053 149.89381 78.69353 150.79019 L 77.51031 149.21257 Q 79.85882 147.22261 82.58381 147.22261 Q 84.95025 147.22261 86.26793 148.38791 Q 87.5856 149.55319 87.5856 151.56108 Q 87.5856 152.99529 86.78783 154.34882 Q 85.99005 155.70235 83.3547 158.17636 L 80.2353 161.1344 L 88.12343 161.1344 L 88.12343 163.26779 Z " fill="black"/>
    <path d="M 46.25 144.7857 L 96.25 157.2857 " stroke="dodgerblue" stroke-width="5" fill="none"/>
    <path d="M 71.50457 121.03571 L 69.18116 121.03571 L 69.18116 106.09129 Q 69.18116 104.22682 69.29589 102.56314 Q 68.99471 102.86433 68.62182 103.19419 Q 68.248924 103.52406 65.208405 105.9909 L 63.94631 104.355896 L 69.49668 100.06763 L 71.50457 100.06763 L 71.50457 121.03571 Z " fill="black"/>
    <line x1="46.25" y1="182.2857" x2="96.25" y2="182.2857" stroke="lime" stroke-width="5"/>
    <rect x="0" y="0" width="145" height="269.0714" stroke="black" stroke-width="1" fill="none"/>
</svg>
