<svg xmlns="http://www.w3.org/2000/svg" xmlns:xlink="http://www.w3.org/1999/xlink" width="145" height="175.2857" viewBox="0 0 145 175.2857">
    <line x1="1.25" y1="65.78571" x2="143.75" y2="65.78571" stroke="black" stroke-width="2.5"/>
    <line x1="1.25" y1="90.78571" x2="143.75" y2="90.78571" stroke="black" stroke-width="2.5"/>
    <line x1="1.25" y1="115.78571" x2="143.75" y2="115.78571" stroke="black" stroke-width="2.5"/>
    <line x1="1.25" y1="140.7857" x2="143.75" y2="140.7857" stroke="black" stroke-width="2.5"/>
    <line x1="1.25" y1="165.7857" x2="143.75" y2="165.7857" stroke="black" stroke-width="2.5"/>
    <path d="M 1.25 144.18571 Q 1.25 138.18571 7.85 132.63571 Q 14.45 127.08572 21.35 127.08572 Q 24.15 127.08572 26.7 127.78571 Q 29.25 128.48572 31.550001 130.98572 Q 33.850002 133.48572 33.850002 137.38571 Q 33.850002 142.88571 27.15 148.68571 Q 20.45 154.48572 13.75 154.48572 Q 10.95 154.48572 8.4 153.7857 Q 5.85 153.08571 3.55 150.58571 Q 1.25 148.08571 1.25 144.18571 Z " fill="black"/>
    <path d="M 1.25 119.185715 Q 1.25 113.185715 7.85 107.63571 Q 14.45 102.08572 21.35 102.08572 Q 24.15 102.08572 26.7 102.78571 Q 29.25 103.48571 31.550001 105.98571 Q 33.850002 108.48571 33.850002 112.38571 Q 33.850002 117.88571 27.15 123.685715 Q 20.45 129.48572 13.75 129.48572 Q 10.95 129.48572 8.4 128.7857 Q 5.85 128.08571 3.55 125.58572 Q 1.25 123.08572 1.25 119.185715 Z " fill="black"/>
    <path d="M 106.25 156.68571 Q 106.25 150.68571 112.85 145.13571 Q 119.45 139.58571 126.35 139.58571 Q 129.15 139.58571 131.7 140.2857 Q 134.25 140.98572 136.55 143.48572 Q 138.85 145.98572 138.85 149.88571 Q 138.85 155.38571 132.15 161.18571 Q 125.45 166.98572 118.75 166.98572 Q 115.95 166.98572 113.4 166.2857 Q 110.85 165.58571 108.55 163.08571 Q 106.25 160.58571 106.25 156.68571 Z " fill="black"/>
    <path d="M 106.25 94.185715 Q 106.25 88.185715 112.85 82.63571 Q 119.45 77.08571 126.35 77.08571 Q 129.15 77.08571 131.7 77.78571 Q 134.25 78.48572 136.55 80.98572 Q 138.85 83.48572 138.85 87.38571 Q 138.85 92.88571 132.15 98.685715 Q 125.45 104.48571 118.75 104.48571 Q 115.95 104.48571 113.4 103.78571 Q 110.85 103.08572 108.55 100.58572 Q 106.25 98.08571 106.25 94.185715 Z " fill="black"/>
    <path d="M 43.75 120.78571 L 70 123.28571 L 96.25 95.78571 M 77.690926 95.78571 L 75.948364 95.78571 L 75.948364 84.57739 Q 75.948364 83.17905 76.034424 81.93129 Q 75.80853 82.15717 75.52886 82.40457 Q 75.24919 82.65198 72.9688 84.5021 L 72.02223 83.27585 L 76.18501 80.05965 L 77.690926 80.05965 L 77.690926 95.78571 Z " stroke="red" stroke-width="4" fill="none"/>
    <path d="M 43.75 145.7857 L 43.75 160.7857 L 96.25 173.2857 L 96.25 158.2857 " stroke="gray" stroke-width="4" fill="none"/>
    <line x1="32.25" y1="26.5" x2="32.25" y2="136.7857" stroke="black" stroke-width="3"/>
    <line x1="137.25" y1="1.5" x2="137.25" y2="149.2857" stroke="black" stroke-width="3"/>
    <rect x="0" y="0" width="145" height="175.2857" stroke="black" stroke-width="1" fill="none"/>
</svg>
