<svg xmlns="http://www.w3.org/2000/svg" xmlns:xlink="http://www.w3.org/1999/xlink" viewBox="0 0 595.69995 401">
    <line x1="1.35" y1="54" x2="594.35" y2="54" stroke="black" stroke-width="2.7"/>
    <line x1="1.35" y1="79" x2="594.35" y2="79" stroke="black" stroke-width="2.7"/>
    <line x1="1.35" y1="104" x2="594.35" y2="104" stroke="black" stroke-width="2.7"/>
    <line x1="1.35" y1="129" x2="594.35" y2="129" stroke="black" stroke-width="2.7"/>
    <line x1="1.35" y1="154" x2="594.35" y2="154" stroke="black" stroke-width="2.7"/>
    <line x1="1.35" y1="247" x2="594.35" y2="247" stroke="black" stroke-width="2.7"/>
    <line x1="1.35" y1="272" x2="594.35" y2="272" stroke="black" stroke-width="2.7"/>
    <line x1="1.35" y1="297" x2="594.35" y2="297" stroke="black" stroke-width="2.7"/>
    <line x1="1.35" y1="322" x2="594.35" y2="322" stroke="black" stroke-width="2.7"/>
    <line x1="1.35" y1="347" x2="594.35" y2="347" stroke="black" stroke-width="2.7"/>
    <rect x="1.35" y="99" width="10" height="10" stroke="orange" stroke-width="1" fill="none"/>
    <rect x="1.35" y="292" width="10" height="10" stroke="orange" stroke-width="1" fill="none"/>
    <path d="M 11.35 107.4 Q 11.35 101.4 17.95 95.85 Q 24.550001 90.3 31.45 90.3 Q 34.25 90.3 36.8 91 Q 39.35 91.7 41.65 94.2 Q 43.95 96.7 43.95 100.6 Q 43.95 106.1 37.25 111.9 Q 30.550001 117.7 23.85 117.7 Q 21.050001 117.7 18.5 117 Q 15.950001 116.3 13.650001 113.8 Q 11.35 111.3 11.35 107.4 Z " fill="black"/>
    <path d="M 43.85 119.9 Q 43.85 113.9 50.449997 108.35 Q 57.05 102.8 63.949997 102.8 Q 66.75 102.8 69.299995 103.5 Q 71.85 104.2 74.15 106.7 Q 76.450005 109.2 76.450005 113.1 Q 76.450005 118.6 69.75 124.4 Q 63.05 130.2 56.35 130.2 Q 53.55 130.2 51 129.5 Q 48.449997 128.8 46.149998 126.3 Q 43.85 123.8 43.85 119.9 Z " fill="black"/>
    <path d="M 59.3 48.5 Q 59.3 38.800003 47 26.5 Q 46 25.5 45.1 25.5 Q 43.3 25.5 43.3 28 L 43.3 31.300003 L 41.699997 31.300003 L 41.699997 1.5 L 43.3 1.5 Q 43.3 6.4000015 45.399998 11.400002 Q 47.5 16.400002 50.449997 20.699997 Q 53.399998 25 56.4 29.300003 Q 59.4 33.600006 61.5 38.600006 Q 63.6 43.600002 63.6 48.5 Q 63.6 53.5 60.3 57.9 Q 59.4 59.100002 58.1 59.100002 Q 57.4 59.100002 56.949997 58.55 Q 56.5 58 56.5 57.2 Q 56.5 56.600002 56.8 56.2 Q 59.3 52.100002 59.3 48.5 Z " fill="black"/>
    <path d="M 48.5 192.3 Q 68.5 179.8 68.5 168.1 Q 68.5 160.2 64.4 151.79999 Q 64.2 150.7 64.95 149.9 Q 65.7 149.1 66.7 149.1 Q 68 149.1 68.7 150.2 Q 72.7 159.2 72.7 168.1 Q 72.7 172.2 71.2 176.2 Q 69.7 180.2 67.35 183.55 Q 65 186.9 62.15 190.2 Q 59.3 193.5 56.399998 196.85 Q 53.5 200.2 51.149998 203.55 Q 48.8 206.9 47.3 210.9 Q 45.8 214.9 45.8 219 L 44.199997 219 L 44.199997 187 L 45.8 187 L 45.8 190.7 Q 45.8 191.5 46.35 192 Q 46.899998 192.5 47.6 192.5 Q 48.1 192.5 48.5 192.3 Z " fill="black"/>
    <path d="M 11.35 300.4 Q 11.35 294.4 17.95 288.85 Q 24.550001 283.3 31.45 283.3 Q 34.25 283.3 36.8 284 Q 39.35 284.7 41.65 287.2 Q 43.95 289.7 43.95 293.6 Q 43.95 299.1 37.25 304.9 Q 30.550001 310.7 23.85 310.7 Q 21.050001 310.7 18.5 310 Q 15.950001 309.3 13.650001 306.8 Q 11.35 304.3 11.35 300.4 Z " fill="black"/>
    <path d="M 16 372.8 Q 36 360.3 36 348.6 Q 36 340.7 31.900002 332.3 Q 31.7 331.2 32.45 330.4 Q 33.2 329.6 34.199997 329.6 Q 35.5 329.6 36.199997 330.7 Q 40.199997 339.7 40.199997 348.6 Q 40.199997 352.7 38.699997 356.7 Q 37.199997 360.7 34.85 364.05 Q 32.5 367.4 29.650002 370.7 Q 26.800001 374 23.9 377.35 Q 21.000002 380.7 18.65 384.05 Q 16.300001 387.4 14.800001 391.4 Q 13.3 395.4 13.3 399.5 L 11.700001 399.5 L 11.700001 367.5 L 13.3 367.5 L 13.3 371.2 Q 13.3 372 13.85 372.5 Q 14.400001 373 15.1 373 Q 15.6 373 16 372.8 Z " fill="black"/>
    <path d="M 102.049995 35 Q 97.85 36.1 95.049995 36.1 Q 91.549995 36.1 88.95 33.85 Q 86.35 31.599998 86.35 28.199997 Q 86.35 25.199997 88.5 23.099998 Q 90.65 21 93.65 21 Q 95.549995 21 97.1 22.050003 Q 98.65 23.099998 99.25 24.900002 Q 99.45 25.5 99.85 27.449997 Q 100.25 29.400002 100.85 30.099998 Q 101.45 30.800003 102.75 30.800003 Q 103.85 30.800003 106 28.349998 Q 108.15 25.900002 108.85 24.5 Q 109.25 23.599998 110.25 23.599998 Q 111.25 23.599998 111.65 24.5 L 99.35 66.5 Q 98.25 67.5 96.65 67.5 Q 94.95 67.5 93.85 66.5 L 104.25 37.4 Q 104.65 36.300003 103.95 35.6 Q 103.15 34.6 102.049995 35 Z " fill="black"/>
    <path d="M 102.049995 160 Q 97.85 161.1 95.049995 161.1 Q 91.549995 161.1 88.95 158.85 Q 86.35 156.6 86.35 153.2 Q 86.35 150.2 88.5 148.1 Q 90.65 146 93.65 146 Q 95.549995 146 97.1 147.05 Q 98.65 148.1 99.25 149.9 Q 99.45 150.5 99.85 152.45 Q 100.25 154.4 100.85 155.1 Q 101.45 155.8 102.75 155.8 Q 103.85 155.8 106 153.35 Q 108.15 150.9 108.85 149.5 Q 109.25 148.6 110.25 148.6 Q 111.25 148.6 111.65 149.5 L 99.35 191.5 Q 98.25 192.5 96.65 192.5 Q 94.95 192.5 93.85 191.5 L 104.25 162.4 Q 104.65 161.3 103.95 160.6 Q 103.15 159.6 102.049995 160 Z " fill="black"/>
    <path d="M 102.049995 290.5 Q 97.85 291.6 95.049995 291.6 Q 91.549995 291.6 88.95 289.35 Q 86.35 287.1 86.35 283.7 Q 86.35 280.7 88.5 278.6 Q 90.65 276.5 93.65 276.5 Q 95.549995 276.5 97.1 277.55 Q 98.65 278.6 99.25 280.4 Q 99.45 281 99.85 282.95 Q 100.25 284.9 100.85 285.6 Q 101.45 286.3 102.75 286.3 Q 103.85 286.3 106 283.85 Q 108.15 281.4 108.85 280 Q 109.25 279.1 110.25 279.1 Q 111.25 279.1 111.65 280 L 99.35 322 Q 98.25 323 96.65 323 Q 94.95 323 93.85 322 L 104.25 292.9 Q 104.65 291.8 103.95 291.1 Q 103.15 290.1 102.049995 290.5 Z " fill="black"/>
    <path d="M 193.85 132.4 Q 193.85 126.4 200.45001 120.85 Q 207.05 115.3 213.95001 115.3 Q 216.75 115.3 219.3 116 Q 221.85 116.7 224.15001 119.2 Q 226.45001 121.7 226.45001 125.6 Q 226.45001 131.1 219.75 136.9 Q 213.05 142.7 206.35 142.7 Q 203.55 142.7 201 142 Q 198.45001 141.3 196.15001 138.8 Q 193.85 136.3 193.85 132.4 Z " fill="black"/>
    <path d="M 161.35 119.9 Q 161.35 113.9 167.95001 108.35 Q 174.55 102.8 181.45001 102.8 Q 184.25 102.8 186.8 103.5 Q 189.35 104.2 191.65001 106.7 Q 193.95001 109.2 193.95001 113.1 Q 193.95001 118.6 187.25 124.4 Q 180.55 130.2 173.85 130.2 Q 171.05 130.2 168.5 129.5 Q 165.95001 128.8 163.65001 126.3 Q 161.35 123.8 161.35 119.9 Z " fill="black"/>
    <path d="M 241.8 73.5 Q 241.8 63.8 229.5 51.5 Q 228.5 50.5 227.6 50.5 Q 225.8 50.5 225.8 53 L 225.8 56.300003 L 224.20001 56.300003 L 224.20001 26.5 L 225.8 26.5 Q 225.8 31.400002 227.90001 36.4 Q 230 41.4 232.95001 45.7 Q 235.90001 50 238.90001 54.300003 Q 241.90001 58.600002 244 63.600002 Q 246.1 68.600006 246.1 73.5 Q 246.1 78.5 242.8 82.9 Q 241.90001 84.100006 240.6 84.100006 Q 239.90001 84.100006 239.45001 83.55 Q 239 83 239 82.2 Q 239 81.600006 239.3 81.2 Q 241.8 77.100006 241.8 73.5 Z " fill="black"/>
    <path d="M 166 192.3 Q 186 179.8 186 168.1 Q 186 160.2 181.90001 151.79999 Q 181.70001 150.7 182.45001 149.9 Q 183.20001 149.1 184.20001 149.1 Q 185.5 149.1 186.20001 150.2 Q 190.20001 159.2 190.20001 168.1 Q 190.20001 172.2 188.70001 176.2 Q 187.20001 180.2 184.85 183.55 Q 182.5 186.9 179.65001 190.2 Q 176.8 193.5 173.90001 196.85 Q 171 200.2 168.65001 203.55 Q 166.3 206.9 164.8 210.9 Q 163.3 214.9 163.3 219 L 161.70001 219 L 161.70001 187 L 163.3 187 L 163.3 190.7 Q 163.3 191.5 163.85 192 Q 164.40001 192.5 165.1 192.5 Q 165.6 192.5 166 192.3 Z " fill="black"/>
    <path d="M 161.35 325.4 Q 161.35 319.4 167.95001 313.85 Q 174.55 308.3 181.45001 308.3 Q 184.25 308.3 186.8 309 Q 189.35 309.7 191.65001 312.2 Q 193.95001 314.7 193.95001 318.6 Q 193.95001 324.1 187.25 329.9 Q 180.55 335.7 173.85 335.7 Q 171.05 335.7 168.5 335 Q 165.95001 334.3 163.65001 331.8 Q 161.35 329.3 161.35 325.4 Z " fill="black"/>
    <path d="M 209.3 266.5 Q 209.3 256.8 197 244.5 Q 196 243.5 195.1 243.5 Q 193.3 243.5 193.3 246 L 193.3 249.3 L 191.70001 249.3 L 191.70001 219.5 L 193.3 219.5 Q 193.3 224.4 195.40001 229.4 Q 197.5 234.4 200.45001 238.7 Q 203.40001 243 206.40001 247.3 Q 209.40001 251.6 211.5 256.6 Q 213.6 261.6 213.6 266.5 Q 213.6 271.5 210.3 275.9 Q 209.40001 277.1 208.1 277.1 Q 207.40001 277.1 206.95001 276.55 Q 206.5 276 206.5 275.2 Q 206.5 274.6 206.8 274.2 Q 209.3 270.1 209.3 266.5 Z " fill="black"/>
    <path d="M 277.05002 35 Q 272.85 36.1 270.05002 36.1 Q 266.55002 36.1 263.95 33.85 Q 261.35 31.599998 261.35 28.199997 Q 261.35 25.199997 263.5 23.099998 Q 265.65 21 268.65 21 Q 270.55002 21 272.1 22.050003 Q 273.65 23.099998 274.25 24.900002 Q 274.45 25.5 274.85 27.449997 Q 275.25 29.400002 275.85 30.099998 Q 276.45 30.800003 277.75 30.800003 Q 278.85 30.800003 281 28.349998 Q 283.15 25.900002 283.85 24.5 Q 284.25 23.599998 285.25 23.599998 Q 286.25 23.599998 286.65 24.5 L 274.35 66.5 Q 273.25 67.5 271.65 67.5 Q 269.95 67.5 268.85 66.5 L 279.25 37.4 Q 279.65 36.300003 278.95 35.6 Q 278.15 34.6 277.05002 35 Z " fill="black"/>
    <path d="M 277.05002 160 Q 272.85 161.1 270.05002 161.1 Q 266.55002 161.1 263.95 158.85 Q 261.35 156.6 261.35 153.2 Q 261.35 150.2 263.5 148.1 Q 265.65 146 268.65 146 Q 270.55002 146 272.1 147.05 Q 273.65 148.1 274.25 149.9 Q 274.45 150.5 274.85 152.45 Q 275.25 154.4 275.85 155.1 Q 276.45 155.8 277.75 155.8 Q 278.85 155.8 281 153.35 Q 283.15 150.9 283.85 149.5 Q 284.25 148.6 285.25 148.6 Q 286.25 148.6 286.65 149.5 L 274.35 191.5 Q 273.25 192.5 271.65 192.5 Q 269.95 192.5 268.85 191.5 L 279.25 162.4 Q 279.65 161.3 278.95 160.6 Q 278.15 159.6 277.05002 160 Z " fill="black"/>
    <path d="M 277.05002 290.5 Q 272.85 291.6 270.05002 291.6 Q 266.55002 291.6 263.95 289.35 Q 261.35 287.1 261.35 283.7 Q 261.35 280.7 263.5 278.6 Q 265.65 276.5 268.65 276.5 Q 270.55002 276.5 272.1 277.55 Q 273.65 278.6 274.25 280.4 Q 274.45 281 274.85 282.95 Q 275.25 284.9 275.85 285.6 Q 276.45 286.3 277.75 286.3 Q 278.85 286.3 281 283.85 Q 283.15 281.4 283.85 280 Q 284.25 279.1 285.25 279.1 Q 286.25 279.1 286.65 280 L 274.35 322 Q 273.25 323 271.65 323 Q 269.95 323 268.85 322 L 279.25 292.9 Q 279.65 291.8 278.95 291.1 Q 278.15 290.1 277.05002 290.5 Z " fill="black"/>
    <path d="M 336.35 107.4 Q 336.35 101.4 342.95 95.85 Q 349.55002 90.3 356.45 90.3 Q 359.25 90.3 361.80002 91 Q 364.35 91.7 366.65 94.2 Q 368.95 96.7 368.95 100.6 Q 368.95 106.1 362.25 111.9 Q 355.55002 117.7 348.85 117.7 Q 346.05002 117.7 343.5 117 Q 340.95 116.3 338.65 113.8 Q 336.35 111.3 336.35 107.4 Z " fill="black"/>
    <path d="M 356.2 157.9 Q 354.80002 159.3 351.7 162.15 Q 348.6 165 346.7 166.95 Q 344.80002 168.9 342.65 171.6 Q 340.5 174.3 339.4 177.1 Q 338.30002 179.9 338.30002 182.8 Q 338.30002 183.6 338.9 184.1 Q 339.5 184.6 340.2 184.6 Q 340.7 184.6 341.1 184.4 Q 359.7 173.5 359.7 162.7 Q 359.7 160.4 359.30002 158.7 Q 359 157.3 357.6 157.3 Q 356.80002 157.3 356.2 157.9 Z M 361.80002 152.7 Q 363.9 157.5 363.9 162.7 Q 363.9 167.7 361.25 172.4 Q 358.6 177.1 354.85 180.85 Q 351.1 184.6 347.35 188.35 Q 343.6 192.1 340.95 196.8 Q 338.30002 201.5 338.30002 206.5 L 336.7 206.5 L 336.7 156.5 L 338.30002 156.5 L 338.30002 160.5 Q 338.30002 161.3 338.85 161.8 Q 339.4 162.3 340.1 162.3 Q 340.5 162.3 340.9 162.1 Q 361 151.5 361 140.2 Q 361 139.1 360.30002 136.9 Q 359.6 134.7 359.6 133.5 Q 359.6 132.5 360.30002 131.9 Q 361 131.29999 361.9 131.29999 Q 365.2 131.29999 365.2 140.2 Q 365.2 145.7 361.9 151 Q 361.4 151.8 361.80002 152.7 Z " fill="black"/>
    <path d="M 336.35 300.4 Q 336.35 294.4 342.95 288.85 Q 349.55002 283.3 356.45 283.3 Q 359.25 283.3 361.80002 284 Q 364.35 284.7 366.65 287.2 Q 368.95 289.7 368.95 293.6 Q 368.95 299.1 362.25 304.9 Q 355.55002 310.7 348.85 310.7 Q 346.05002 310.7 343.5 310 Q 340.95 309.3 338.65 306.8 Q 336.35 304.3 336.35 300.4 Z " fill="black"/>
    <path d="M 356.2 350.9 Q 354.80002 352.3 351.7 355.15 Q 348.6 358 346.7 359.95 Q 344.80002 361.9 342.65 364.6 Q 340.5 367.3 339.4 370.1 Q 338.30002 372.9 338.30002 375.8 Q 338.30002 376.6 338.9 377.1 Q 339.5 377.6 340.2 377.6 Q 340.7 377.6 341.1 377.4 Q 359.7 366.5 359.7 355.7 Q 359.7 353.4 359.30002 351.7 Q 359 350.3 357.6 350.3 Q 356.80002 350.3 356.2 350.9 Z M 361.80002 345.7 Q 363.9 350.5 363.9 355.7 Q 363.9 360.7 361.25 365.4 Q 358.6 370.1 354.85 373.85 Q 351.1 377.6 347.35 381.35 Q 343.6 385.1 340.95 389.8 Q 338.30002 394.5 338.30002 399.5 L 336.7 399.5 L 336.7 349.5 L 338.30002 349.5 L 338.30002 353.5 Q 338.30002 354.3 338.85 354.8 Q 339.4 355.3 340.1 355.3 Q 340.5 355.3 340.9 355.1 Q 361 344.5 361 333.2 Q 361 332.1 360.30002 329.9 Q 359.6 327.7 359.6 326.5 Q 359.6 325.5 360.30002 324.9 Q 361 324.3 361.9 324.3 Q 365.2 324.3 365.2 333.2 Q 365.2 338.7 361.9 344 Q 361.4 344.8 361.80002 345.7 Z " fill="black"/>
    <path d="M 412.45 97.4 Q 408.35 98.6 405.05002 98.6 Q 401.55002 98.6 398.95 96.35 Q 396.35 94.1 396.35 90.7 Q 396.35 87.7 398.45 85.6 Q 400.55002 83.5 403.55002 83.5 Q 405.45 83.5 407.05002 84.55 Q 408.65 85.6 409.25 87.4 Q 409.55002 88.1 409.9 90 Q 410.25 91.9 410.80002 92.6 Q 411.35 93.3 412.65 93.3 Q 413.75 93.3 416 90.6 Q 418.25 87.9 418.65 86.5 L 422.25 74.7 Q 422.35 74.4 422.35 74.2 Q 422.35 73.5 421.80002 72.95 Q 421.25 72.4 420.45 72.4 Q 420.15 72.4 419.95 72.5 Q 415.75 73.6 412.85 73.6 Q 409.35 73.6 406.75 71.35 Q 404.15 69.1 404.15 65.7 Q 404.15 62.699997 406.30002 60.6 Q 408.45 58.5 411.45 58.5 Q 413.35 58.5 414.9 59.55 Q 416.45 60.6 417.05002 62.4 Q 417.35 63.1 417.7 65 Q 418.05002 66.9 418.6 67.6 Q 419.15 68.3 420.45 68.3 Q 421.45 68.3 423.45 65.9 Q 425.45 63.5 426.15 62 Q 426.55002 61.1 427.55002 61.1 Q 428.55002 61.1 428.95 62 L 411.05002 129 Q 409.95 130 408.35 130 Q 406.65 130 405.55002 129 L 414.65 99.6 Q 414.75 99.3 414.75 99 Q 414.75 98.3 414.25 97.8 Q 413.75 97.3 412.95 97.3 Q 412.75 97.3 412.45 97.4 Z " fill="black"/>
    <path d="M 412.45 315.4 Q 408.35 316.6 405.05002 316.6 Q 401.55002 316.6 398.95 314.35 Q 396.35 312.1 396.35 308.7 Q 396.35 305.7 398.45 303.6 Q 400.55002 301.5 403.55002 301.5 Q 405.45 301.5 407.05002 302.55 Q 408.65 303.6 409.25 305.4 Q 409.55002 306.1 409.9 308 Q 410.25 309.9 410.80002 310.6 Q 411.35 311.3 412.65 311.3 Q 413.75 311.3 416 308.6 Q 418.25 305.9 418.65 304.5 L 422.25 292.7 Q 422.35 292.4 422.35 292.2 Q 422.35 291.5 421.80002 290.95 Q 421.25 290.4 420.45 290.4 Q 420.15 290.4 419.95 290.5 Q 415.75 291.6 412.85 291.6 Q 409.35 291.6 406.75 289.35 Q 404.15 287.1 404.15 283.7 Q 404.15 280.7 406.30002 278.6 Q 408.45 276.5 411.45 276.5 Q 413.35 276.5 414.9 277.55 Q 416.45 278.6 417.05002 280.4 Q 417.35 281.1 417.7 283 Q 418.05002 284.9 418.6 285.6 Q 419.15 286.3 420.45 286.3 Q 421.45 286.3 423.45 283.9 Q 425.45 281.5 426.15 280 Q 426.55002 279.1 427.55002 279.1 Q 428.55002 279.1 428.95 280 L 411.05002 347 Q 409.95 348 408.35 348 Q 406.65 348 405.55002 347 L 414.65 317.6 Q 414.75 317.3 414.75 317 Q 414.75 316.3 414.25 315.8 Q 413.75 315.3 412.95 315.3 Q 412.75 315.3 412.45 315.4 Z " fill="black"/>
    <path d="M 456.35 132.4 Q 456.35 126.4 462.95 120.85 Q 469.55002 115.3 476.45 115.3 Q 479.25 115.3 481.80002 116 Q 484.35 116.7 486.65 119.2 Q 488.95 121.7 488.95 125.6 Q 488.95 131.1 482.25 136.9 Q 475.55002 142.7 468.85 142.7 Q 466.05002 142.7 463.5 142 Q 460.95 141.3 458.65 138.8 Q 456.35 136.3 456.35 132.4 Z " fill="black"/>
    <path d="M 506.7 83.7 Q 509.2 89.2 509.2 94.700005 Q 509.2 103.6 505 113 Q 504.30002 114.200005 503.1 114.200005 Q 502.1 114.200005 501.35 113.4 Q 500.6 112.6 500.80002 111.5 Q 505 103.1 505 94.700005 Q 505 84.9 491.4 71.9 Q 490.80002 71.3 490.1 71.3 Q 489.4 71.3 488.85 71.850006 Q 488.30002 72.4 488.30002 73.2 L 488.30002 76.5 L 486.7 76.5 L 486.7 26.5 L 488.30002 26.5 Q 488.30002 31.400002 490.4 36.4 Q 492.5 41.4 495.45 45.7 Q 498.4 50 501.4 54.300003 Q 504.4 58.600002 506.5 63.600002 Q 508.6 68.600006 508.6 73.5 Q 508.6 77.600006 506.6 82.3 Q 506.30002 82.8 506.7 83.7 Z M 501 74.4 Q 501.5 75.2 502.4 75.2 Q 503.1 75.2 503.7 74.7 Q 504.30002 74.2 504.30002 73.5 Q 504.30002 64.2 492 51.5 Q 491.4 50.9 490.6 50.9 Q 489.9 50.9 489.4 51.4 Q 488.9 51.9 488.9 52.7 Q 488.9 55.300003 490.30002 58.55 Q 491.7 61.8 493.2 63.95 Q 494.7 66.100006 497.45 69.7 Q 500.2 73.3 501 74.4 Z " fill="black"/>
    <path d="M 456.35 325.4 Q 456.35 319.4 462.95 313.85 Q 469.55002 308.3 476.45 308.3 Q 479.25 308.3 481.80002 309 Q 484.35 309.7 486.65 312.2 Q 488.95 314.7 488.95 318.6 Q 488.95 324.1 482.25 329.9 Q 475.55002 335.7 468.85 335.7 Q 466.05002 335.7 463.5 335 Q 460.95 334.3 458.65 331.8 Q 456.35 329.3 456.35 325.4 Z " fill="black"/>
    <path d="M 506.7 276.7 Q 509.2 282.2 509.2 287.7 Q 509.2 296.6 505 306 Q 504.30002 307.2 503.1 307.2 Q 502.1 307.2 501.35 306.4 Q 500.6 305.6 500.80002 304.5 Q 505 296.1 505 287.7 Q 505 277.9 491.4 264.9 Q 490.80002 264.3 490.1 264.3 Q 489.4 264.3 488.85 264.85 Q 488.30002 265.4 488.30002 266.2 L 488.30002 269.5 L 486.7 269.5 L 486.7 219.5 L 488.30002 219.5 Q 488.30002 224.4 490.4 229.4 Q 492.5 234.4 495.45 238.7 Q 498.4 243 501.4 247.3 Q 504.4 251.6 506.5 256.6 Q 508.6 261.6 508.6 266.5 Q 508.6 270.6 506.6 275.3 Q 506.30002 275.8 506.7 276.7 Z M 501 267.4 Q 501.5 268.2 502.4 268.2 Q 503.1 268.2 503.7 267.7 Q 504.30002 267.2 504.30002 266.5 Q 504.30002 257.2 492 244.5 Q 491.4 243.9 490.6 243.9 Q 489.9 243.9 489.4 244.4 Q 488.9 244.9 488.9 245.7 Q 488.9 248.3 490.30002 251.55 Q 491.7 254.8 493.2 256.95 Q 494.7 259.1 497.45 262.7 Q 500.2 266.3 501 267.4 Z " fill="black"/>
    <path d="M 540.44995 97.4 Q 536.35 98.6 533.05 98.6 Q 529.55 98.6 526.94995 96.35 Q 524.35 94.1 524.35 90.7 Q 524.35 87.7 526.44995 85.6 Q 528.55 83.5 531.55 83.5 Q 533.44995 83.5 535.05 84.55 Q 536.64996 85.6 537.25 87.4 Q 537.55 88.1 537.89996 90 Q 538.25 91.9 538.8 92.6 Q 539.35 93.3 540.64996 93.3 Q 541.75 93.3 544 90.6 Q 546.25 87.9 546.64996 86.5 L 550.25 74.7 Q 550.35 74.4 550.35 74.2 Q 550.35 73.5 549.8 72.95 Q 549.25 72.4 548.44995 72.4 Q 548.14996 72.4 547.94995 72.5 Q 543.75 73.6 540.85 73.6 Q 537.35 73.6 534.75 71.35 Q 532.14996 69.1 532.14996 65.7 Q 532.14996 62.699997 534.3 60.6 Q 536.44995 58.5 539.44995 58.5 Q 541.35 58.5 542.89996 59.55 Q 544.44995 60.6 545.05 62.4 Q 545.35 63.1 545.69995 65 Q 546.05 66.9 546.6 67.6 Q 547.14996 68.3 548.44995 68.3 Q 549.44995 68.3 551.44995 65.9 Q 553.44995 63.5 554.14996 62 Q 554.55 61.1 555.55 61.1 Q 556.55 61.1 556.94995 62 L 539.05 129 Q 537.94995 130 536.35 130 Q 534.64996 130 533.55 129 L 542.64996 99.6 Q 542.75 99.3 542.75 99 Q 542.75 98.3 542.25 97.8 Q 541.75 97.3 540.94995 97.3 Q 540.75 97.3 540.44995 97.4 Z " fill="black"/>
    <path d="M 540.44995 315.4 Q 536.35 316.6 533.05 316.6 Q 529.55 316.6 526.94995 314.35 Q 524.35 312.1 524.35 308.7 Q 524.35 305.7 526.44995 303.6 Q 528.55 301.5 531.55 301.5 Q 533.44995 301.5 535.05 302.55 Q 536.64996 303.6 537.25 305.4 Q 537.55 306.1 537.89996 308 Q 538.25 309.9 538.8 310.6 Q 539.35 311.3 540.64996 311.3 Q 541.75 311.3 544 308.6 Q 546.25 305.9 546.64996 304.5 L 550.25 292.7 Q 550.35 292.4 550.35 292.2 Q 550.35 291.5 549.8 290.95 Q 549.25 290.4 548.44995 290.4 Q 548.14996 290.4 547.94995 290.5 Q 543.75 291.6 540.85 291.6 Q 537.35 291.6 534.75 289.35 Q 532.14996 287.1 532.14996 283.7 Q 532.14996 280.7 534.3 278.6 Q 536.44995 276.5 539.44995 276.5 Q 541.35 276.5 542.89996 277.55 Q 544.44995 278.6 545.05 280.4 Q 545.35 281.1 545.69995 283 Q 546.05 284.9 546.6 285.6 Q 547.14996 286.3 548.44995 286.3 Q 549.44995 286.3 551.44995 283.9 Q 553.44995 281.5 554.14996 280 Q 554.55 279.1 555.55 279.1 Q 556.55 279.1 556.94995 280 L 539.05 347 Q 537.94995 348 536.35 348 Q 534.64996 348 533.55 347 L 542.64996 317.6 Q 542.75 317.3 542.75 317 Q 542.75 316.3 542.25 315.8 Q 541.75 315.3 540.94995 315.3 Q 540.75 315.3 540.44995 315.4 Z " fill="black"/>
    <rect x="584.35" y="99" width="10" height="10" stroke="orange" stroke-width="1" fill="none"/>
    <rect x="584.35" y="292" width="10" height="10" stroke="orange" stroke-width="1" fill="none"/>
    <line x1="42.35" y1="1.5" x2="42.35" y2="100" stroke="black" stroke-width="3"/>
    <line x1="45.35" y1="120.5" x2="45.35" y2="219" stroke="black" stroke-width="3"/>
    <line x1="224.85" y1="26.5" x2="224.85" y2="125" stroke="black" stroke-width="3"/>
    <line x1="162.85" y1="120.5" x2="162.85" y2="219" stroke="black" stroke-width="3"/>
    <line x1="337.85" y1="108" x2="337.85" y2="206.5" stroke="black" stroke-width="3"/>
    <line x1="487.35" y1="26.5" x2="487.35" y2="125" stroke="black" stroke-width="3"/>
    <line x1="12.85" y1="301" x2="12.85" y2="399.5" stroke="black" stroke-width="3"/>
    <line x1="192.35" y1="219.5" x2="192.35" y2="318" stroke="black" stroke-width="3"/>
    <line x1="337.85" y1="301" x2="337.85" y2="399.5" stroke="black" stroke-width="3"/>
    <line x1="487.35" y1="219.5" x2="487.35" y2="318" stroke="black" stroke-width="3"/>
    <rect x="0" y="0" width="595.69995" height="401" stroke="black" stroke-width="1" fill="none"/>
</svg>
