<svg xmlns="http://www.w3.org/2000/svg" xmlns:xlink="http://www.w3.org/1999/xlink" viewBox="0 0 1118.7 500.5">
    <line x1="1.35" y1="79" x2="1117.35" y2="79" stroke="black" stroke-width="2.7"/>
    <line x1="1.35" y1="104" x2="1117.35" y2="104" stroke="black" stroke-width="2.7"/>
    <line x1="1.35" y1="129" x2="1117.35" y2="129" stroke="black" stroke-width="2.7"/>
    <line x1="1.35" y1="154" x2="1117.35" y2="154" stroke="black" stroke-width="2.7"/>
    <line x1="1.35" y1="179" x2="1117.35" y2="179" stroke="black" stroke-width="2.7"/>
    <line x1="1.35" y1="309" x2="1117.35" y2="309" stroke="black" stroke-width="2.7"/>
    <line x1="1.35" y1="334" x2="1117.35" y2="334" stroke="black" stroke-width="2.7"/>
    <line x1="1.35" y1="359" x2="1117.35" y2="359" stroke="black" stroke-width="2.7"/>
    <line x1="1.35" y1="384" x2="1117.35" y2="384" stroke="black" stroke-width="2.7"/>
    <line x1="1.35" y1="409" x2="1117.35" y2="409" stroke="black" stroke-width="2.7"/>
    <rect x="1.35" y="124" width="10" height="10" stroke="orange" stroke-width="1" fill="none"/>
    <rect x="1.35" y="354" width="10" height="10" stroke="orange" stroke-width="1" fill="none"/>
    <rect x="11.35" y="13" width="74" height="186" stroke="orange" stroke-width="1" fill="none"/>
    <path d="M 36.15 71.5 Q 33.85 64.2 32.95 58.5 Q 32.15 53.699997 32.15 47.299995 Q 32.15 45.1 32.25 42.9 Q 32.65 33.4 36.15 25.449997 Q 39.65 17.5 46.649998 13.299995 Q 47.149998 13 47.95 13 Q 48.649998 13 49.149998 13.5 Q 54.75 19.099998 57.75 27.799995 Q 60.75 36.5 60.75 45.4 Q 60.75 55.699997 56.35 65.6 Q 52.149998 75.5 44.55 83.1 Q 43.95 83.7 44.149998 84.7 L 48.149998 100.7 Q 48.45 102.3 50.149998 102.1 Q 51.75 101.9 53.25 101.9 Q 59.05 101.9 63.75 104.2 Q 68.450005 106.5 71.35 110.2 Q 74.25 113.9 75.8 118.35 Q 77.35 122.8 77.35 127.5 Q 77.35 136.1 72.549995 143.05 Q 67.75 150 61.05 152.2 Q 59.649998 152.7 59.95 154.3 Q 62.45 166.1 62.55 174.2 Q 62.55 177.3 62.149998 180.3 Q 61.35 187.2 56.149998 192.4 Q 50.95 197.6 43.75 197.6 Q 34.949997 197.6 28.85 192.3 Q 22.750002 187 22.750002 178.4 Q 22.750002 174 25.85 170.8 Q 28.95 167.6 33.15 167.6 Q 37.449997 167.6 40.4 170.65 Q 43.35 173.7 43.35 177.9 Q 43.35 181.5 40.949997 184.2 Q 38.55 187 35.15 187.3 Q 33.949997 187.4 33.55 188.5 Q 33.15 189.6 34.35 190.5 Q 37.949997 193.3 43.15 193.3 Q 48.85 193.3 53 189.2 Q 57.149998 185.1 57.85 179.9 Q 58.35 176.3 58.35 172.7 Q 58.35 164.9 55.95 155.4 Q 55.55 153.7 53.75 153.9 Q 49.75 154.4 46.35 154.4 Q 31.550001 154.4 21.45 145.1 Q 11.35 135.8 11.35 119.8 Q 11.35 114.9 12.5 110.15 Q 13.650001 105.4 15.1 101.95 Q 16.550001 98.5 19.6 93.95 Q 22.65 89.399994 24.500002 87 Q 26.35 84.6 30.35 79.85 Q 34.35 75.1 35.85 73.2 Q 36.449997 72.5 36.15 71.5 Z M 51.75 117.2 L 58.25 146.7 Q 58.55 148 60.05 148 Q 60.45 148 60.75 147.9 Q 64.85 146.2 67.549995 141.3 Q 70.25 136.4 70.25 131.6 Q 70.25 124.6 66.15 119.8 Q 61.95 114.9 53.55 114.9 Q 52.85 114.9 52.3 115.45 Q 51.75 116 51.75 116.7 Q 51.649998 117 51.75 117.2 Z M 37.949997 89.399994 Q 36.35 91.2 33.2 94.55 Q 30.050001 97.9 28.5 99.65 Q 26.95 101.4 24.7 104.6 Q 22.45 107.8 21.35 110.5 Q 20.250002 113.2 19.4 117.1 Q 18.550001 121 18.550001 125.4 Q 18.550001 131.5 22.300001 137.2 Q 26.050001 142.9 32.6 146.5 Q 39.15 150.1 46.649998 150.1 Q 49.35 150.1 52.649998 149.8 Q 53.45 149.7 53.95 149.05 Q 54.45 148.4 54.25 147.6 L 47.75 117.7 Q 47.45 116.3 45.85 116.3 Q 45.55 116.3 45.149998 116.4 Q 40.55 118.1 38.65 121.2 Q 36.75 124.3 36.75 129 Q 36.75 134.5 42.75 138.5 Q 43.45 139 43.45 140 Q 43.45 140.8 42.8 141.5 Q 42.15 142.2 41.25 142.2 Q 40.75 142.2 40.35 142 Q 34.65 139 31.900002 133.85 Q 29.150002 128.7 29.150002 123 Q 29.150002 117.5 33.1 111.65 Q 37.05 105.8 42.949997 103.6 Q 44.45 103 44.149998 101.5 L 41.15 90.2 Q 40.949997 89.1 39.75 88.899994 Q 38.55 88.7 37.949997 89.399994 Z M 54.75 31.199997 Q 53.95 28.599998 52.05 28.599998 Q 51.45 28.599998 50.95 28.900002 Q 44.55 32.699997 40.8 39.6 Q 37.05 46.5 37.05 54.199997 Q 37.05 59.199997 39.15 66.5 Q 39.449997 67.6 40.65 67.8 Q 41.65 67.899994 42.35 67.1 Q 42.65 66.7 45.2 63.549995 Q 47.75 60.4 48.55 59.35 Q 49.35 58.299995 51.25 55.35 Q 53.149998 52.4 53.899998 50.449997 Q 54.649998 48.5 55.35 45.6 Q 56.05 42.699997 56.05 39.799995 Q 56.05 35.6 54.75 31.199997 Z " fill="black"/>
    <rect x="11.35" y="309" width="74" height="84" stroke="orange" stroke-width="1" fill="none"/>
    <path d="M 68.35 346.5 Q 68.35 344.4 69.85 342.9 Q 71.35 341.4 73.450005 341.4 Q 75.55 341.4 77.05 342.9 Q 78.55 344.4 78.55 346.5 Q 78.55 348.6 77.05 350.1 Q 75.55 351.6 73.450005 351.6 Q 71.35 351.6 69.85 350.1 Q 68.35 348.6 68.35 346.5 Z M 68.35 321.5 Q 68.35 319.4 69.85 317.9 Q 71.35 316.4 73.450005 316.4 Q 75.55 316.4 77.05 317.9 Q 78.55 319.4 78.55 321.5 Q 78.55 323.6 77.05 325.1 Q 75.55 326.6 73.450005 326.6 Q 71.35 326.6 69.85 325.1 Q 68.35 323.6 68.35 321.5 Z M 23.550001 322.1 Q 28.050001 322.1 30.95 325 Q 33.85 327.9 33.85 332.1 Q 33.85 336.5 30.95 339.6 Q 28.050001 342.7 23.85 342.7 Q 19.35 342.7 16 339.6 Q 12.650001 336.5 12.650001 332.1 Q 12.650001 321.3 19.85 314.5 Q 27.050001 307.7 37.75 307.7 Q 49.85 307.7 57.5 314.65 Q 65.15 321.6 65.15 332.8 Q 65.15 368.2 13.75 390.9 Q 13.05 391.2 12.650001 391.2 Q 11.35 391.2 11.35 389.9 Q 11.35 389.2 12.650001 388.4 Q 20.65 383.7 25.9 380.1 Q 31.150002 376.5 36.75 371.4 Q 42.35 366.3 45.55 361.15 Q 48.75 356 50.85 349 Q 52.95 342 52.95 333.8 Q 52.95 323.4 48.399998 317.1 Q 43.85 310.8 35.949997 310.8 Q 31.150002 310.8 27.250002 313.05 Q 23.35 315.3 21.85 319.2 Q 21.45 320.5 21.95 321.2 Q 22.65 322.1 23.550001 322.1 Z " fill="black"/>
    <path d="M 85.35 132.4 Q 85.35 126.4 91.95 120.85 Q 98.549995 115.3 105.45 115.3 Q 108.25 115.3 110.799995 116 Q 113.35 116.7 115.65 119.2 Q 117.950005 121.7 117.950005 125.6 Q 117.950005 131.1 111.25 136.9 Q 104.549995 142.7 97.85 142.7 Q 95.049995 142.7 92.5 142 Q 89.95 141.3 87.65 138.8 Q 85.35 136.3 85.35 132.4 Z " fill="black"/>
    <path d="M 85.35 157.4 Q 85.35 151.4 91.95 145.85 Q 98.549995 140.3 105.45 140.3 Q 108.25 140.3 110.799995 141 Q 113.35 141.7 115.65 144.2 Q 117.950005 146.7 117.950005 150.6 Q 117.950005 156.1 111.25 161.9 Q 104.549995 167.7 97.85 167.7 Q 95.049995 167.7 92.5 167 Q 89.95 166.3 87.65 163.8 Q 85.35 161.3 85.35 157.4 Z " fill="black"/>
    <path d="M 85.35 399.9 Q 85.35 393.9 91.95 388.35 Q 98.549995 382.8 105.45 382.8 Q 108.25 382.8 110.799995 383.5 Q 113.35 384.2 115.65 386.7 Q 117.950005 389.2 117.950005 393.1 Q 117.950005 398.6 111.25 404.4 Q 104.549995 410.2 97.85 410.2 Q 95.049995 410.2 92.5 409.5 Q 89.95 408.8 87.65 406.3 Q 85.35 403.8 85.35 399.9 Z " fill="black"/>
    <path d="M 85.35 362.4 Q 85.35 356.4 91.95 350.85 Q 98.549995 345.3 105.45 345.3 Q 108.25 345.3 110.799995 346 Q 113.35 346.7 115.65 349.2 Q 117.950005 351.7 117.950005 355.6 Q 117.950005 361.1 111.25 366.9 Q 104.549995 372.7 97.85 372.7 Q 95.049995 372.7 92.5 372 Q 89.95 371.3 87.65 368.8 Q 85.35 366.3 85.35 362.4 Z " fill="black"/>
    <path d="M 190.35 107.4 Q 190.35 101.4 196.95001 95.85 Q 203.55 90.3 210.45001 90.3 Q 213.25 90.3 215.8 91 Q 218.35 91.7 220.65001 94.2 Q 222.95001 96.7 222.95001 100.6 Q 222.95001 106.1 216.25 111.9 Q 209.55 117.7 202.85 117.7 Q 200.05 117.7 197.5 117 Q 194.95001 116.3 192.65001 113.8 Q 190.35 111.3 190.35 107.4 Z " fill="black"/>
    <path d="M 190.35 157.4 Q 190.35 151.4 196.95001 145.85 Q 203.55 140.3 210.45001 140.3 Q 213.25 140.3 215.8 141 Q 218.35 141.7 220.65001 144.2 Q 222.95001 146.7 222.95001 150.6 Q 222.95001 156.1 216.25 161.9 Q 209.55 167.7 202.85 167.7 Q 200.05 167.7 197.5 167 Q 194.95001 166.3 192.65001 163.8 Q 190.35 161.3 190.35 157.4 Z " fill="black"/>
    <path d="M 190.35 324.9 Q 190.35 318.9 196.95001 313.35 Q 203.55 307.8 210.45001 307.8 Q 213.25 307.8 215.8 308.5 Q 218.35 309.2 220.65001 311.7 Q 222.95001 314.2 222.95001 318.1 Q 222.95001 323.6 216.25 329.4 Q 209.55 335.2 202.85 335.2 Q 200.05 335.2 197.5 334.5 Q 194.95001 333.8 192.65001 331.3 Q 190.35 328.8 190.35 324.9 Z " fill="black"/>
    <path d="M 190.35 362.4 Q 190.35 356.4 196.95001 350.85 Q 203.55 345.3 210.45001 345.3 Q 213.25 345.3 215.8 346 Q 218.35 346.7 220.65001 349.2 Q 222.95001 351.7 222.95001 355.6 Q 222.95001 361.1 216.25 366.9 Q 209.55 372.7 202.85 372.7 Q 200.05 372.7 197.5 372 Q 194.95001 371.3 192.65001 368.8 Q 190.35 366.3 190.35 362.4 Z " fill="black"/>
    <path d="M 295.35 94.9 Q 295.35 88.9 301.95 83.35 Q 308.55002 77.8 315.45 77.8 Q 318.25 77.8 320.80002 78.5 Q 323.35 79.2 325.65 81.7 Q 327.95 84.2 327.95 88.1 Q 327.95 93.6 321.25 99.4 Q 314.55002 105.2 307.85 105.2 Q 305.05002 105.2 302.5 104.5 Q 299.95 103.8 297.65 101.3 Q 295.35 98.8 295.35 94.9 Z " fill="black"/>
    <path d="M 295.35 399.9 Q 295.35 393.9 301.95 388.35 Q 308.55002 382.8 315.45 382.8 Q 318.25 382.8 320.80002 383.5 Q 323.35 384.2 325.65 386.7 Q 327.95 389.2 327.95 393.1 Q 327.95 398.6 321.25 404.4 Q 314.55002 410.2 307.85 410.2 Q 305.05002 410.2 302.5 409.5 Q 299.95 408.8 297.65 406.3 Q 295.35 403.8 295.35 399.9 Z " fill="black"/>
    <path d="M 370.35 169.9 Q 370.35 163.9 376.95 158.35 Q 383.55002 152.8 390.45 152.8 Q 393.25 152.8 395.80002 153.5 Q 398.35 154.2 400.65 156.7 Q 402.95 159.2 402.95 163.1 Q 402.95 168.6 396.25 174.4 Q 389.55002 180.2 382.85 180.2 Q 380.05002 180.2 377.5 179.5 Q 374.95 178.8 372.65 176.3 Q 370.35 173.8 370.35 169.9 Z " fill="black"/>
    <path d="M 370.35 324.9 Q 370.35 318.9 376.95 313.35 Q 383.55002 307.8 390.45 307.8 Q 393.25 307.8 395.80002 308.5 Q 398.35 309.2 400.65 311.7 Q 402.95 314.2 402.95 318.1 Q 402.95 323.6 396.25 329.4 Q 389.55002 335.2 382.85 335.2 Q 380.05002 335.2 377.5 334.5 Q 374.95 333.8 372.65 331.3 Q 370.35 328.8 370.35 324.9 Z " fill="black"/>
    <path d="M 445.35 94.9 Q 445.35 88.9 451.95 83.35 Q 458.55002 77.8 465.45 77.8 Q 468.25 77.8 470.80002 78.5 Q 473.35 79.2 475.65 81.7 Q 477.95 84.2 477.95 88.1 Q 477.95 93.6 471.25 99.4 Q 464.55002 105.2 457.85 105.2 Q 455.05002 105.2 452.5 104.5 Q 449.95 103.8 447.65 101.3 Q 445.35 98.8 445.35 94.9 Z " fill="black"/>
    <path d="M 445.35 399.9 Q 445.35 393.9 451.95 388.35 Q 458.55002 382.8 465.45 382.8 Q 468.25 382.8 470.80002 383.5 Q 473.35 384.2 475.65 386.7 Q 477.95 389.2 477.95 393.1 Q 477.95 398.6 471.25 404.4 Q 464.55002 410.2 457.85 410.2 Q 455.05002 410.2 452.5 409.5 Q 449.95 408.8 447.65 406.3 Q 445.35 403.8 445.35 399.9 Z " fill="black"/>
    <path d="M 505.35 119.9 Q 505.35 113.9 511.95 108.35 Q 518.55 102.8 525.44995 102.8 Q 528.25 102.8 530.8 103.5 Q 533.35 104.2 535.64996 106.7 Q 537.94995 109.2 537.94995 113.1 Q 537.94995 118.6 531.25 124.4 Q 524.55 130.2 517.85 130.2 Q 515.05 130.2 512.5 129.5 Q 509.95 128.8 507.65 126.3 Q 505.35 123.8 505.35 119.9 Z " fill="black"/>
    <path d="M 505.35 374.9 Q 505.35 368.9 511.95 363.35 Q 518.55 357.8 525.44995 357.8 Q 528.25 357.8 530.8 358.5 Q 533.35 359.2 535.64996 361.7 Q 537.94995 364.2 537.94995 368.1 Q 537.94995 373.6 531.25 379.4 Q 524.55 385.2 517.85 385.2 Q 515.05 385.2 512.5 384.5 Q 509.95 383.8 507.65 381.3 Q 505.35 378.8 505.35 374.9 Z " fill="black"/>
    <path d="M 565.35 144.9 Q 565.35 138.9 571.94995 133.35 Q 578.55 127.8 585.44995 127.8 Q 588.25 127.8 590.8 128.5 Q 593.35 129.2 595.64996 131.7 Q 597.94995 134.2 597.94995 138.1 Q 597.94995 143.6 591.25 149.4 Q 584.55 155.2 577.85 155.2 Q 575.05 155.2 572.5 154.5 Q 569.94995 153.8 567.64996 151.3 Q 565.35 148.8 565.35 144.9 Z " fill="black"/>
    <path d="M 565.35 349.9 Q 565.35 343.9 571.94995 338.35 Q 578.55 332.8 585.44995 332.8 Q 588.25 332.8 590.8 333.5 Q 593.35 334.2 595.64996 336.7 Q 597.94995 339.2 597.94995 343.1 Q 597.94995 348.6 591.25 354.4 Q 584.55 360.2 577.85 360.2 Q 575.05 360.2 572.5 359.5 Q 569.94995 358.8 567.64996 356.3 Q 565.35 353.8 565.35 349.9 Z " fill="black"/>
    <path d="M 625.35 169.9 Q 625.35 163.9 631.94995 158.35 Q 638.55 152.8 645.44995 152.8 Q 648.25 152.8 650.8 153.5 Q 653.35 154.2 655.64996 156.7 Q 657.94995 159.2 657.94995 163.1 Q 657.94995 168.6 651.25 174.4 Q 644.55 180.2 637.85 180.2 Q 635.05 180.2 632.5 179.5 Q 629.94995 178.8 627.64996 176.3 Q 625.35 173.8 625.35 169.9 Z " fill="black"/>
    <path d="M 625.35 324.9 Q 625.35 318.9 631.94995 313.35 Q 638.55 307.8 645.44995 307.8 Q 648.25 307.8 650.8 308.5 Q 653.35 309.2 655.64996 311.7 Q 657.94995 314.2 657.94995 318.1 Q 657.94995 323.6 651.25 329.4 Q 644.55 335.2 637.85 335.2 Q 635.05 335.2 632.5 334.5 Q 629.94995 333.8 627.64996 331.3 Q 625.35 328.8 625.35 324.9 Z " fill="black"/>
    <path d="M 685.35 107.4 Q 685.35 101.4 691.94995 95.85 Q 698.55 90.3 705.44995 90.3 Q 708.25 90.3 710.8 91 Q 713.35 91.7 715.64996 94.2 Q 717.94995 96.7 717.94995 100.6 Q 717.94995 106.1 711.25 111.9 Q 704.55 117.7 697.85 117.7 Q 695.05 117.7 692.5 117 Q 689.94995 116.3 687.64996 113.8 Q 685.35 111.3 685.35 107.4 Z " fill="black"/>
    <path d="M 685.35 412.4 Q 685.35 406.4 691.94995 400.85 Q 698.55 395.3 705.44995 395.3 Q 708.25 395.3 710.8 396 Q 713.35 396.7 715.64996 399.2 Q 717.94995 401.7 717.94995 405.6 Q 717.94995 411.1 711.25 416.9 Q 704.55 422.7 697.85 422.7 Q 695.05 422.7 692.5 422 Q 689.94995 421.3 687.64996 418.8 Q 685.35 416.3 685.35 412.4 Z " fill="black"/>
    <path d="M 760.35 182.4 Q 760.35 176.4 766.94995 170.85 Q 773.55 165.3 780.44995 165.3 Q 783.25 165.3 785.8 166 Q 788.35 166.7 790.64996 169.2 Q 792.94995 171.7 792.94995 175.6 Q 792.94995 181.1 786.25 186.9 Q 779.55 192.7 772.85 192.7 Q 770.05 192.7 767.5 192 Q 764.94995 191.3 762.64996 188.8 Q 760.35 186.3 760.35 182.4 Z " fill="black"/>
    <path d="M 760.35 337.4 Q 760.35 331.4 766.94995 325.85 Q 773.55 320.3 780.44995 320.3 Q 783.25 320.3 785.8 321 Q 788.35 321.7 790.64996 324.2 Q 792.94995 326.7 792.94995 330.6 Q 792.94995 336.1 786.25 341.9 Q 779.55 347.7 772.85 347.7 Q 770.05 347.7 767.5 347 Q 764.94995 346.3 762.64996 343.8 Q 760.35 341.3 760.35 337.4 Z " fill="black"/>
    <path d="M 835.35 107.4 Q 835.35 101.4 841.94995 95.85 Q 848.55 90.3 855.44995 90.3 Q 858.25 90.3 860.8 91 Q 863.35 91.7 865.64996 94.2 Q 867.94995 96.7 867.94995 100.6 Q 867.94995 106.1 861.25 111.9 Q 854.55 117.7 847.85 117.7 Q 845.05 117.7 842.5 117 Q 839.94995 116.3 837.64996 113.8 Q 835.35 111.3 835.35 107.4 Z " fill="black"/>
    <path d="M 835.35 412.4 Q 835.35 406.4 841.94995 400.85 Q 848.55 395.3 855.44995 395.3 Q 858.25 395.3 860.8 396 Q 863.35 396.7 865.64996 399.2 Q 867.94995 401.7 867.94995 405.6 Q 867.94995 411.1 861.25 416.9 Q 854.55 422.7 847.85 422.7 Q 845.05 422.7 842.5 422 Q 839.94995 421.3 837.64996 418.8 Q 835.35 416.3 835.35 412.4 Z " fill="black"/>
    <path d="M 903.35 132.4 Q 903.35 126.4 909.94995 120.85 Q 916.55 115.3 923.44995 115.3 Q 926.25 115.3 928.8 116 Q 931.35 116.7 933.64996 119.2 Q 935.94995 121.7 935.94995 125.6 Q 935.94995 131.1 929.25 136.9 Q 922.55 142.7 915.85 142.7 Q 913.05 142.7 910.5 142 Q 907.94995 141.3 905.64996 138.8 Q 903.35 136.3 903.35 132.4 Z " fill="black"/>
    <path d="M 903.35 387.4 Q 903.35 381.4 909.94995 375.85 Q 916.55 370.3 923.44995 370.3 Q 926.25 370.3 928.8 371 Q 931.35 371.7 933.64996 374.2 Q 935.94995 376.7 935.94995 380.6 Q 935.94995 386.1 929.25 391.9 Q 922.55 397.7 915.85 397.7 Q 913.05 397.7 910.5 397 Q 907.94995 396.3 905.64996 393.8 Q 903.35 391.3 903.35 387.4 Z " fill="black"/>
    <path d="M 971.35 157.4 Q 971.35 151.4 977.94995 145.85 Q 984.55 140.3 991.44995 140.3 Q 994.25 140.3 996.8 141 Q 999.35 141.7 1001.64996 144.2 Q 1003.94995 146.7 1003.94995 150.6 Q 1003.94995 156.1 997.25 161.9 Q 990.55 167.7 983.85 167.7 Q 981.05 167.7 978.5 167 Q 975.94995 166.3 973.64996 163.8 Q 971.35 161.3 971.35 157.4 Z " fill="black"/>
    <path d="M 971.35 362.4 Q 971.35 356.4 977.94995 350.85 Q 984.55 345.3 991.44995 345.3 Q 994.25 345.3 996.8 346 Q 999.35 346.7 1001.64996 349.2 Q 1003.94995 351.7 1003.94995 355.6 Q 1003.94995 361.1 997.25 366.9 Q 990.55 372.7 983.85 372.7 Q 981.05 372.7 978.5 372 Q 975.94995 371.3 973.64996 368.8 Q 971.35 366.3 971.35 362.4 Z " fill="black"/>
    <path d="M 1039.35 182.4 Q 1039.35 176.4 1045.95 170.85 Q 1052.5499 165.3 1059.45 165.3 Q 1062.25 165.3 1064.7999 166 Q 1067.35 166.7 1069.65 169.2 Q 1071.95 171.7 1071.95 175.6 Q 1071.95 181.1 1065.25 186.9 Q 1058.5499 192.7 1051.85 192.7 Q 1049.0499 192.7 1046.5 192 Q 1043.95 191.3 1041.65 188.8 Q 1039.35 186.3 1039.35 182.4 Z " fill="black"/>
    <path d="M 1039.35 337.4 Q 1039.35 331.4 1045.95 325.85 Q 1052.5499 320.3 1059.45 320.3 Q 1062.25 320.3 1064.7999 321 Q 1067.35 321.7 1069.65 324.2 Q 1071.95 326.7 1071.95 330.6 Q 1071.95 336.1 1065.25 341.9 Q 1058.5499 347.7 1051.85 347.7 Q 1049.0499 347.7 1046.5 347 Q 1043.95 346.3 1041.65 343.8 Q 1039.35 341.3 1039.35 337.4 Z " fill="black"/>
    <rect x="1107.35" y="124" width="10" height="10" stroke="orange" stroke-width="1" fill="none"/>
    <rect x="1107.35" y="354" width="10" height="10" stroke="orange" stroke-width="1" fill="none"/>
    <line x1="116.35" y1="26.5" x2="116.35" y2="125" stroke="black" stroke-width="3"/>
    <line x1="86.85" y1="158" x2="86.85" y2="256.5" stroke="black" stroke-width="3"/>
    <line x1="221.35" y1="1.5" x2="221.35" y2="100" stroke="black" stroke-width="3"/>
    <line x1="191.85" y1="158" x2="191.85" y2="256.5" stroke="black" stroke-width="3"/>
    <line x1="296.85" y1="95.5" x2="296.85" y2="244" stroke="black" stroke-width="3"/>
    <line x1="371.85" y1="170.5" x2="371.85" y2="269" stroke="black" stroke-width="3"/>
    <line x1="295.35" y1="244" x2="373.35" y2="269" stroke="blue" stroke-width="2"/>
    <path d="M 295.35 244 L 373.35 269 L 373.35 256.5 L 295.35 231.5 " fill="black"/>
    <line x1="446.85" y1="95.5" x2="446.85" y2="244" stroke="black" stroke-width="3"/>
    <line x1="626.85" y1="170.5" x2="626.85" y2="269" stroke="black" stroke-width="3"/>
    <line x1="506.85" y1="120.5" x2="506.85" y2="252.33334" stroke="black" stroke-width="3"/>
    <line x1="566.85" y1="145.5" x2="566.85" y2="260.6667" stroke="black" stroke-width="3"/>
    <line x1="445.35" y1="244" x2="628.35" y2="269" stroke="blue" stroke-width="2"/>
    <path d="M 445.35 244 L 628.35 269 L 628.35 256.5 L 445.35 231.5 " fill="black"/>
    <line x1="446.85" y1="219" x2="626.85" y2="244" stroke="blue" stroke-width="2"/>
    <path d="M 446.85 219 L 626.85 244 L 626.85 231.5 L 446.85 206.5 " fill="black"/>
    <line x1="716.35" y1="1.5" x2="716.35" y2="100" stroke="black" stroke-width="3"/>
    <line x1="791.35" y1="26.5" x2="791.35" y2="175" stroke="black" stroke-width="3"/>
    <line x1="714.85" y1="1.5" x2="792.85" y2="26.5" stroke="blue" stroke-width="2"/>
    <path d="M 714.85 1.5 L 792.85 26.5 L 792.85 39 L 714.85 14 " fill="black"/>
    <line x1="866.35" y1="1.5" x2="866.35" y2="100" stroke="black" stroke-width="3"/>
    <line x1="1070.35" y1="26.5" x2="1070.35" y2="175" stroke="black" stroke-width="3"/>
    <line x1="934.35" y1="9.833336" x2="934.35" y2="125" stroke="black" stroke-width="3"/>
    <line x1="1002.35" y1="18.166672" x2="1002.35" y2="150" stroke="black" stroke-width="3"/>
    <line x1="864.85" y1="1.5" x2="1071.85" y2="26.5" stroke="blue" stroke-width="2"/>
    <path d="M 864.85 1.5 L 1071.85 26.5 L 1071.85 39 L 864.85 14 " fill="black"/>
    <line x1="866.35" y1="26.5" x2="1070.35" y2="51.5" stroke="blue" stroke-width="2"/>
    <path d="M 866.35 26.5 L 1070.35 51.5 L 1070.35 64 L 866.35 39 " fill="black"/>
    <line x1="116.35" y1="256.5" x2="116.35" y2="392.5" stroke="black" stroke-width="3"/>
    <line x1="191.85" y1="325.5" x2="191.85" y2="461.5" stroke="black" stroke-width="3"/>
    <line x1="296.85" y1="400.5" x2="296.85" y2="499" stroke="black" stroke-width="3"/>
    <line x1="371.85" y1="325.5" x2="371.85" y2="474" stroke="black" stroke-width="3"/>
    <line x1="295.35" y1="499" x2="373.35" y2="474" stroke="blue" stroke-width="2"/>
    <path d="M 295.35 499 L 373.35 474 L 373.35 461.5 L 295.35 486.5 " fill="black"/>
    <line x1="446.85" y1="400.5" x2="446.85" y2="499" stroke="black" stroke-width="3"/>
    <line x1="626.85" y1="325.5" x2="626.85" y2="474" stroke="black" stroke-width="3"/>
    <line x1="506.85" y1="375.5" x2="506.85" y2="490.66666" stroke="black" stroke-width="3"/>
    <line x1="566.85" y1="350.5" x2="566.85" y2="482.33334" stroke="black" stroke-width="3"/>
    <line x1="445.35" y1="499" x2="628.35" y2="474" stroke="blue" stroke-width="2"/>
    <path d="M 445.35 499 L 628.35 474 L 628.35 461.5 L 445.35 486.5 " fill="black"/>
    <line x1="446.85" y1="474" x2="626.85" y2="449" stroke="blue" stroke-width="2"/>
    <path d="M 446.85 474 L 626.85 449 L 626.85 436.5 L 446.85 461.5 " fill="black"/>
    <line x1="716.35" y1="256.5" x2="716.35" y2="405" stroke="black" stroke-width="3"/>
    <line x1="791.35" y1="231.5" x2="791.35" y2="330" stroke="black" stroke-width="3"/>
    <line x1="714.85" y1="256.5" x2="792.85" y2="231.5" stroke="blue" stroke-width="2"/>
    <path d="M 714.85 256.5 L 792.85 231.5 L 792.85 244 L 714.85 269 " fill="black"/>
    <line x1="866.35" y1="256.5" x2="866.35" y2="405" stroke="black" stroke-width="3"/>
    <line x1="1070.35" y1="231.5" x2="1070.35" y2="330" stroke="black" stroke-width="3"/>
    <line x1="934.35" y1="248.16666" x2="934.35" y2="380" stroke="black" stroke-width="3"/>
    <line x1="1002.35" y1="239.83333" x2="1002.35" y2="355" stroke="black" stroke-width="3"/>
    <line x1="864.85" y1="256.5" x2="1071.85" y2="231.5" stroke="blue" stroke-width="2"/>
    <path d="M 864.85 256.5 L 1071.85 231.5 L 1071.85 244 L 864.85 269 " fill="black"/>
    <line x1="866.35" y1="281.5" x2="1070.35" y2="256.5" stroke="blue" stroke-width="2"/>
    <path d="M 866.35 281.5 L 1070.35 256.5 L 1070.35 269 L 866.35 294 " fill="black"/>
    <rect x="0" y="0" width="1118.7" height="500.5" stroke="black" stroke-width="1" fill="none"/>
</svg>
