<svg xmlns="http://www.w3.org/2000/svg" xmlns:xlink="http://www.w3.org/1999/xlink" width="703.5" height="401" viewBox="0 0 703.5 401">
    <line x1="1.25" y1="150.5" x2="702.25" y2="150.5" stroke="black" stroke-width="2.5"/>
    <line x1="1.25" y1="175.5" x2="702.25" y2="175.5" stroke="black" stroke-width="2.5"/>
    <line x1="1.25" y1="200.5" x2="702.25" y2="200.5" stroke="black" stroke-width="2.5"/>
    <line x1="1.25" y1="225.5" x2="702.25" y2="225.5" stroke="black" stroke-width="2.5"/>
    <line x1="1.25" y1="250.5" x2="702.25" y2="250.5" stroke="black" stroke-width="2.5"/>
    <rect x="1.25" y="0.5" width="20" height="400" stroke="orange" stroke-width="1" fill="none"/>
    <rect x="21.25" y="188" width="32.5" height="25" stroke="red" stroke-width="1" fill="none"/>
    <path d="M 21.25 203.9 Q 21.25 197.9 27.85 192.35 Q 34.45 186.8 41.35 186.8 Q 44.15 186.8 46.7 187.5 Q 49.25 188.2 51.550003 190.7 Q 53.850002 193.2 53.850002 197.1 Q 53.850002 202.6 47.15 208.4 Q 40.45 214.2 33.75 214.2 Q 30.95 214.2 28.4 213.5 Q 25.85 212.8 23.55 210.3 Q 21.25 207.8 21.25 203.9 Z " fill="black"/>
    <rect x="53.75" y="188" width="5" height="25" stroke="red" stroke-width="1" fill="none"/>
    <rect x="21.25" y="200.5" width="3" height="89.28571" stroke="red" stroke-width="1" fill="none"/>
    <rect x="126.25" y="188" width="32.5" height="25" stroke="red" stroke-width="1" fill="none"/>
    <path d="M 126.25 203.9 Q 126.25 197.9 132.85 192.35 Q 139.45 186.8 146.35 186.8 Q 149.15 186.8 151.7 187.5 Q 154.25 188.2 156.55 190.7 Q 158.85 193.2 158.85 197.1 Q 158.85 202.6 152.15 208.4 Q 145.45 214.2 138.75 214.2 Q 135.95 214.2 133.4 213.5 Q 130.85 212.8 128.55 210.3 Q 126.25 207.8 126.25 203.9 Z " fill="black"/>
    <rect x="158.75" y="188" width="5" height="25" stroke="red" stroke-width="1" fill="none"/>
    <rect x="126.25" y="200.5" width="3" height="89.28571" stroke="red" stroke-width="1" fill="none"/>
    <rect x="231.25" y="200.5" width="32.5" height="25" stroke="red" stroke-width="1" fill="none"/>
    <path d="M 231.25 216.4 Q 231.25 210.4 237.85 204.85 Q 244.45 199.3 251.35 199.3 Q 254.15 199.3 256.7 200 Q 259.25 200.7 261.55 203.2 Q 263.85 205.7 263.85 209.6 Q 263.85 215.1 257.15 220.9 Q 250.45 226.7 243.75 226.7 Q 240.95 226.7 238.4 226 Q 235.85 225.3 233.55 222.8 Q 231.25 220.3 231.25 216.4 Z " fill="black"/>
    <rect x="263.75" y="200.5" width="5" height="25" stroke="red" stroke-width="1" fill="none"/>
    <rect x="260.75" y="123.71429" width="3" height="89.28571" stroke="red" stroke-width="1" fill="none"/>
    <rect x="336.25" y="163" width="32.5" height="25" stroke="red" stroke-width="1" fill="none"/>
    <path d="M 336.25 178.9 Q 336.25 172.9 342.85 167.35 Q 349.45 161.8 356.35 161.8 Q 359.15 161.8 361.7 162.5 Q 364.25 163.2 366.55 165.7 Q 368.85 168.2 368.85 172.1 Q 368.85 177.6 362.15 183.4 Q 355.45 189.2 348.75 189.2 Q 345.95 189.2 343.4 188.5 Q 340.85 187.8 338.55 185.3 Q 336.25 182.8 336.25 178.9 Z " fill="black"/>
    <rect x="368.75" y="163" width="5" height="25" stroke="red" stroke-width="1" fill="none"/>
    <rect x="336.25" y="175.5" width="3" height="89.28571" stroke="red" stroke-width="1" fill="none"/>
    <rect x="441.25" y="100.5" width="30" height="200" stroke="orange" stroke-width="1" fill="none"/>
    <rect x="471.25" y="188" width="32.5" height="25" stroke="red" stroke-width="1" fill="none"/>
    <path d="M 471.25 203.9 Q 471.25 197.9 477.85 192.35 Q 484.45 186.8 491.35 186.8 Q 494.15 186.8 496.7 187.5 Q 499.25 188.2 501.55 190.7 Q 503.85 193.2 503.85 197.1 Q 503.85 202.6 497.15 208.4 Q 490.45 214.2 483.75 214.2 Q 480.95 214.2 478.4 213.5 Q 475.85 212.8 473.55 210.3 Q 471.25 207.8 471.25 203.9 Z " fill="black"/>
    <rect x="503.75" y="188" width="5" height="25" stroke="red" stroke-width="1" fill="none"/>
    <rect x="471.25" y="200.5" width="3" height="89.28571" stroke="red" stroke-width="1" fill="none"/>
    <rect x="576.25" y="188" width="32.5" height="25" stroke="red" stroke-width="1" fill="none"/>
    <path d="M 576.25 203.9 Q 576.25 197.9 582.85 192.35 Q 589.45 186.8 596.35 186.8 Q 599.15 186.8 601.7 187.5 Q 604.25 188.2 606.55 190.7 Q 608.85 193.2 608.85 197.1 Q 608.85 202.6 602.15 208.4 Q 595.45 214.2 588.75 214.2 Q 585.95 214.2 583.4 213.5 Q 580.85 212.8 578.55 210.3 Q 576.25 207.8 576.25 203.9 Z " fill="black"/>
    <rect x="608.75" y="188" width="5" height="25" stroke="red" stroke-width="1" fill="none"/>
    <rect x="576.25" y="200.5" width="3" height="89.28571" stroke="red" stroke-width="1" fill="none"/>
    <rect x="681.25" y="150.5" width="21" height="100" stroke="orange" stroke-width="1" fill="none"/>
    <path d="M 681.25 150.5 L 686.75 150.5 L 686.75 250.5 L 681.25 250.5 M 696.75 150.5 L 702.25 150.5 L 702.25 250.5 L 696.75 250.5 " fill="black"/>
    <line x1="22.75" y1="204.5" x2="22.75" y2="289.7857" stroke="black" stroke-width="3"/>
    <line x1="127.75" y1="204.5" x2="127.75" y2="289.7857" stroke="black" stroke-width="3"/>
    <line x1="262.25" y1="123.71429" x2="262.25" y2="209" stroke="black" stroke-width="3"/>
    <line x1="337.75" y1="179.5" x2="337.75" y2="264.7857" stroke="black" stroke-width="3"/>
    <line x1="472.75" y1="204.5" x2="472.75" y2="289.7857" stroke="black" stroke-width="3"/>
    <line x1="577.75" y1="204.5" x2="577.75" y2="289.7857" stroke="black" stroke-width="3"/>
    <rect x="0" y="0" width="703.5" height="401" stroke="black" stroke-width="1" fill="none"/>
</svg>
