<svg xmlns="http://www.w3.org/2000/svg" xmlns:xlink="http://www.w3.org/1999/xlink" viewBox="0 0 592.8 263.45">
    <rect x="32.300003" y="54.25" width="5" height="80" stroke="orange" stroke-width="1" fill="none"/>
    <rect x="32.300003" y="182.25" width="5" height="80" stroke="orange" stroke-width="1" fill="none"/>
    <rect x="37.300003" y="44.25" width="40" height="100" stroke="orange" stroke-width="1" fill="none"/>
    <ellipse cx="42.300003" cy="227.25" rx="5" ry="5" stroke="gray" stroke-width="1" fill="none"/>
    <rect x="77.3" y="94.25" width="2.5" height="87.5" stroke="blue" stroke-width="1" fill="none"/>
    <rect x="77.3" y="81.75" width="32.5" height="25" stroke="blue" stroke-width="1" fill="none"/>
    <rect x="32.300003" y="94.25" width="2.5" height="87.5" fill="black"/>
    <path d="M 32.300003 97.65 Q 32.300003 91.65 38.9 86.1 Q 45.500004 80.55 52.4 80.55 Q 55.200005 80.55 57.750004 81.25 Q 60.300003 81.95 62.600006 84.45 Q 64.90001 86.95 64.90001 90.85 Q 64.90001 96.35 58.200005 102.15 Q 51.500004 107.95 44.800003 107.95 Q 42.000004 107.95 39.450005 107.25 Q 36.9 106.55 34.600002 104.05 Q 32.300003 101.55 32.300003 97.65 Z " fill="black"/>
    <rect x="42.04" y="181.55" width="31.84" height="81.399994" stroke="blue" stroke-width="1" fill="none"/>
    <rect x="73.880005" y="181.55" width="31.84" height="81.399994" stroke="blue" stroke-width="1" fill="none"/>
    <rect x="105.72" y="181.55" width="31.84" height="81.399994" stroke="blue" stroke-width="1" fill="none"/>
    <path d="M 6.4000015 111.07 Q 4.960001 111.07 3.4800014 109.95 Q 2 108.83 1 107.23 Q 0 105.630005 0 104.19 Q 0 101.630005 1.3600006 100.19 Q 2.7200012 98.75 5.6800003 97.55 L 13.84 94.19 Q 15.440001 93.55 15.720001 93.07 Q 16 92.590004 16.08 90.990005 L 16.24 85.87 Q 16.32 83.79 15.08 82.270004 Q 13.84 80.75 11.52 80.75 Q 10.32 80.75 9.120001 81.15 Q 7.920002 81.55 7.120001 82.19 Q 6.6399994 82.51 6.4799995 83.15 Q 6.3199997 83.79 6.3199997 84.51 Q 6.3199997 84.83 6.3600006 85.23 Q 6.4000015 85.630005 6.4000015 85.95 Q 6.4000015 86.35 5.4000015 87.03 Q 4.4000015 87.71 3.1599998 88.23 Q 1.920002 88.75 1.1200008 88.75 Q 0.7200012 88.75 0.48000145 88.55 Q 0.24000168 88.35 0.24000168 88.03 Q 0.24000168 86.75 1.0800018 85.270004 Q 1.920002 83.79 3.4400005 82.51 Q 5.2800007 80.83 7.4400005 79.55 Q 9.6 78.270004 11.68 77.55 Q 13.76 76.83 15.360001 76.83 Q 18.24 76.83 20.12 78.87 Q 22 80.91 21.92 83.95 L 21.52 103.15 Q 21.44 104.83 22.28 105.87 Q 23.12 106.91 24.4 106.91 Q 26.4 106.91 27.36 106.03 Q 27.76 105.630005 28 105.630005 Q 28.4 105.630005 28.64 105.87 Q 28.880001 106.11 28.880001 106.51 Q 28.880001 107.39 28 108.270004 Q 26.72 109.55 25.24 110.31 Q 23.76 111.07 22.48 111.07 Q 18.800001 111.07 16.640001 106.91 L 16.4 106.91 Q 13.76 109.07 11.360001 110.07 Q 8.960001 111.07 6.4000015 111.07 Z M 10.16 107.23 Q 11.76 107.23 12.880001 106.71 Q 14 106.19 14.880001 105.31 Q 15.280001 104.91 15.560001 104.23 Q 15.84 103.55 15.92 102.03 L 16.08 98.11 Q 16.16 97.23 16 96.83 Q 15.84 96.43 15.360001 96.43 Q 15.200001 96.43 14.800001 96.51 Q 14.4 96.590004 13.76 96.83 Q 9.52 98.35 7.880001 99.99 Q 6.2400017 101.630005 6.2400017 102.99 Q 6.2400017 105.07 7.4799995 106.15 Q 8.720001 107.23 10.16 107.23 Z " fill="black"/>
    <path d="M 38.24 111.07 Q 36.8 111.07 35.32 109.95 Q 33.84 108.83 32.84 107.23 Q 31.84 105.630005 31.84 104.19 Q 31.84 101.630005 33.2 100.19 Q 34.56 98.75 37.52 97.55 L 45.68 94.19 Q 47.28 93.55 47.56 93.07 Q 47.84 92.590004 47.92 90.990005 L 48.08 85.87 Q 48.16 83.79 46.92 82.270004 Q 45.68 80.75 43.36 80.75 Q 42.16 80.75 40.96 81.15 Q 39.760002 81.55 38.96 82.19 Q 38.48 82.51 38.32 83.15 Q 38.16 83.79 38.16 84.51 Q 38.16 84.83 38.2 85.23 Q 38.24 85.630005 38.24 85.95 Q 38.24 86.35 37.24 87.03 Q 36.24 87.71 35 88.23 Q 33.760002 88.75 32.96 88.75 Q 32.56 88.75 32.32 88.55 Q 32.08 88.35 32.08 88.03 Q 32.08 86.75 32.920002 85.270004 Q 33.760002 83.79 35.28 82.51 Q 37.120003 80.83 39.28 79.55 Q 41.440002 78.270004 43.52 77.55 Q 45.6 76.83 47.2 76.83 Q 50.08 76.83 51.96 78.87 Q 53.84 80.91 53.760002 83.95 L 53.36 103.15 Q 53.28 104.83 54.120003 105.87 Q 54.96 106.91 56.239998 106.91 Q 58.239998 106.91 59.2 106.03 Q 59.6 105.630005 59.84 105.630005 Q 60.239998 105.630005 60.48 105.87 Q 60.72 106.11 60.72 106.51 Q 60.72 107.39 59.84 108.270004 Q 58.559998 109.55 57.08 110.31 Q 55.6 111.07 54.32 111.07 Q 50.64 111.07 48.480003 106.91 L 48.239998 106.91 Q 45.6 109.07 43.2 110.07 Q 40.800003 111.07 38.24 111.07 Z M 42 107.23 Q 43.6 107.23 44.72 106.71 Q 45.84 106.19 46.72 105.31 Q 47.120003 104.91 47.4 104.23 Q 47.68 103.55 47.760002 102.03 L 47.92 98.11 Q 48 97.23 47.84 96.83 Q 47.68 96.43 47.2 96.43 Q 47.04 96.43 46.64 96.51 Q 46.239998 96.590004 45.6 96.83 Q 41.36 98.35 39.72 99.99 Q 38.08 101.630005 38.08 102.99 Q 38.08 105.07 39.32 106.15 Q 40.56 107.23 42 107.23 Z " fill="black"/>
    <path d="M 70.08 111.07 Q 68.64 111.07 67.16 109.95 Q 65.68 108.83 64.68 107.23 Q 63.68 105.630005 63.68 104.19 Q 63.68 101.630005 65.04 100.19 Q 66.4 98.75 69.36 97.55 L 77.520004 94.19 Q 79.12 93.55 79.4 93.07 Q 79.68 92.590004 79.76 90.990005 L 79.92 85.87 Q 80 83.79 78.76 82.270004 Q 77.520004 80.75 75.2 80.75 Q 74 80.75 72.8 81.15 Q 71.600006 81.55 70.8 82.19 Q 70.32 82.51 70.16 83.15 Q 70 83.79 70 84.51 Q 70 84.83 70.04 85.23 Q 70.08 85.630005 70.08 85.95 Q 70.08 86.35 69.08 87.03 Q 68.08 87.71 66.84 88.23 Q 65.600006 88.75 64.8 88.75 Q 64.4 88.75 64.16 88.55 Q 63.920002 88.35 63.920002 88.03 Q 63.920002 86.75 64.76 85.270004 Q 65.600006 83.79 67.12 82.51 Q 68.96 80.83 71.12 79.55 Q 73.28 78.270004 75.36 77.55 Q 77.44 76.83 79.04 76.83 Q 81.92 76.83 83.8 78.87 Q 85.68 80.91 85.6 83.95 L 85.2 103.15 Q 85.12 104.83 85.96 105.87 Q 86.8 106.91 88.08 106.91 Q 90.08 106.91 91.04 106.03 Q 91.44 105.630005 91.68 105.630005 Q 92.08 105.630005 92.32 105.87 Q 92.56 106.11 92.56 106.51 Q 92.56 107.39 91.68 108.270004 Q 90.4 109.55 88.92 110.31 Q 87.44 111.07 86.16 111.07 Q 82.48 111.07 80.32 106.91 L 80.08 106.91 Q 77.44 109.07 75.04 110.07 Q 72.64 111.07 70.08 111.07 Z M 73.84 107.23 Q 75.44 107.23 76.56 106.71 Q 77.68 106.19 78.56 105.31 Q 78.96 104.91 79.240005 104.23 Q 79.520004 103.55 79.6 102.03 L 79.76 98.11 Q 79.84 97.23 79.68 96.83 Q 79.520004 96.43 79.04 96.43 Q 78.880005 96.43 78.48 96.51 Q 78.08 96.590004 77.44 96.83 Q 73.2 98.35 71.56 99.99 Q 69.92 101.630005 69.92 102.99 Q 69.92 105.07 71.16 106.15 Q 72.4 107.23 73.84 107.23 Z " fill="black"/>
    <rect x="212.3" y="25.5" width="2.5" height="87.5" stroke="blue" stroke-width="1" fill="none"/>
    <rect x="182.3" y="106.75" width="32.5" height="25" stroke="blue" stroke-width="1" fill="none"/>
    <rect x="62.300003" y="25.5" width="2.5" height="87.5" fill="black"/>
    <path d="M 32.300003 122.65 Q 32.300003 116.65 38.9 111.1 Q 45.500004 105.55 52.4 105.55 Q 55.200005 105.55 57.750004 106.25 Q 60.300003 106.95 62.600006 109.45 Q 64.90001 111.95 64.90001 115.85 Q 64.90001 121.35 58.200005 127.15 Q 51.500004 132.95 44.800003 132.95 Q 42.000004 132.95 39.450005 132.25 Q 36.9 131.55 34.600002 129.05 Q 32.300003 126.55 32.300003 122.65 Z " fill="black"/>
    <ellipse cx="187.3" cy="227.25" rx="5" ry="5" stroke="gray" stroke-width="1" fill="none"/>
    <rect x="317.3" y="13" width="2.5" height="87.5" stroke="blue" stroke-width="1" fill="none"/>
    <rect x="287.3" y="94.25" width="32.5" height="25" stroke="blue" stroke-width="1" fill="none"/>
    <rect x="62.300003" y="13" width="2.5" height="87.5" fill="black"/>
    <path d="M 32.300003 110.15 Q 32.300003 104.15 38.9 98.6 Q 45.500004 93.05 52.4 93.05 Q 55.200005 93.05 57.750004 93.75 Q 60.300003 94.45 62.600006 96.95 Q 64.90001 99.45 64.90001 103.35 Q 64.90001 108.85 58.200005 114.65 Q 51.500004 120.45 44.800003 120.45 Q 42.000004 120.45 39.450005 119.75 Q 36.9 119.05 34.600002 116.55 Q 32.300003 114.05 32.300003 110.15 Z " fill="black"/>
    <rect x="280.6" y="181.55" width="38.399998" height="81.399994" stroke="blue" stroke-width="1" fill="none"/>
    <path d="M 46.320004 111.07 Q 44.560005 111.07 42.800003 110.75 Q 41.040005 110.43 39.440002 110.03 Q 37.680004 109.55 36.360004 109.15 Q 35.040005 108.75 34.640003 108.75 Q 34.160004 108.75 33.720005 109.07 Q 33.280003 109.39 32.880005 109.79 Q 32.480003 110.19 32.160004 110.19 Q 31.840004 110.19 31.440004 109.91 Q 31.040005 109.630005 31.040005 109.23 Q 31.040005 108.51 31.320004 106.75 Q 31.600004 104.99 31.600004 103.47 L 31.600004 64.67 Q 31.600004 62.59 30.560005 61.070004 Q 29.520004 59.550003 27.920004 58.83 Q 27.600004 58.670002 27.240004 58.390003 Q 26.880005 58.11 26.880005 57.63 Q 26.880005 57.230003 27.200005 57.070004 Q 27.520004 56.910004 27.840004 56.83 Q 28.880005 56.59 30.680004 55.95 Q 32.480003 55.31 34.08 54.670002 Q 35.680004 54.030003 36.240005 53.79 Q 36.720005 53.550003 36.960003 53.550003 Q 37.120003 53.550003 37.280003 53.710003 Q 37.440002 53.870003 37.440002 54.11 Q 37.440002 54.43 37.320004 56.79 Q 37.200005 59.15 37.200005 62.510002 L 37.200005 78.91 Q 37.200005 80.43 37.360004 80.95 Q 37.520004 81.47 37.920006 81.55 Q 40.4 79.47 43.680004 78.15 Q 46.960003 76.83 49.600006 76.83 Q 53.680004 76.83 56.920006 78.91 Q 60.160004 80.990005 62.08 84.55 Q 64 88.11 64 92.590004 Q 64 98.03 61.760002 102.23 Q 59.520004 106.43 55.560005 108.75 Q 51.600006 111.07 46.320004 111.07 Z M 48.160004 108.590004 Q 51.200005 108.590004 53.4 106.71 Q 55.600006 104.83 56.800003 101.590004 Q 58 98.35 58 94.35 Q 58 91.23 56.840004 87.95 Q 55.680004 84.67 53.240005 82.43 Q 50.800003 80.19 46.960003 80.19 Q 43.760002 80.19 41.360004 81.23 Q 38.960003 82.270004 37.200005 83.87 L 37.200005 99.39 Q 37.200005 102.19 38.760002 104.270004 Q 40.320004 106.35 42.840004 107.47 Q 45.360004 108.590004 48.160004 108.590004 Z " fill="black"/>
    <rect x="392.3" y="0.5" width="2.5" height="87.5" stroke="blue" stroke-width="1" fill="none"/>
    <rect x="362.3" y="81.75" width="32.5" height="25" stroke="blue" stroke-width="1" fill="none"/>
    <rect x="62.300003" y="0.5" width="2.5" height="87.5" fill="black"/>
    <path d="M 32.300003 97.65 Q 32.300003 91.65 38.9 86.1 Q 45.500004 80.55 52.4 80.55 Q 55.200005 80.55 57.750004 81.25 Q 60.300003 81.95 62.600006 84.45 Q 64.90001 86.95 64.90001 90.85 Q 64.90001 96.35 58.200005 102.15 Q 51.500004 107.95 44.800003 107.95 Q 42.000004 107.95 39.450005 107.25 Q 36.9 106.55 34.600002 104.05 Q 32.300003 101.55 32.300003 97.65 Z " fill="black"/>
    <ellipse cx="367.3" cy="227.25" rx="5" ry="5" stroke="gray" stroke-width="1" fill="none"/>
    <rect x="437.3" y="56.75" width="2.5" height="87.5" stroke="blue" stroke-width="1" fill="none"/>
    <rect x="437.3" y="44.25" width="32.5" height="25" stroke="blue" stroke-width="1" fill="none"/>
    <rect x="32.300003" y="56.75" width="2.5" height="87.5" fill="black"/>
    <path d="M 32.300003 60.15 Q 32.300003 54.15 38.9 48.6 Q 45.500004 43.05 52.4 43.05 Q 55.200005 43.05 57.750004 43.75 Q 60.300003 44.45 62.600006 46.95 Q 64.90001 49.45 64.90001 53.35 Q 64.90001 58.85 58.200005 64.65 Q 51.500004 70.45 44.800003 70.45 Q 42.000004 70.45 39.450005 69.75 Q 36.9 69.05 34.600002 66.55 Q 32.300003 64.05 32.300003 60.15 Z " fill="black"/>
    <ellipse cx="442.3" cy="227.25" rx="5" ry="5" stroke="gray" stroke-width="1" fill="none"/>
    <rect x="512.3" y="69.25" width="2.5" height="87.5" stroke="blue" stroke-width="1" fill="none"/>
    <rect x="512.3" y="56.75" width="32.5" height="25" stroke="blue" stroke-width="1" fill="none"/>
    <rect x="32.300003" y="69.25" width="2.5" height="87.5" fill="black"/>
    <path d="M 32.300003 72.65 Q 32.300003 66.65 38.9 61.1 Q 45.500004 55.55 52.4 55.55 Q 55.200005 55.55 57.750004 56.25 Q 60.300003 56.95 62.600006 59.45 Q 64.90001 61.95 64.90001 65.85 Q 64.90001 71.35 58.200005 77.15 Q 51.500004 82.95 44.800003 82.95 Q 42.000004 82.95 39.450005 82.25 Q 36.9 81.55 34.600002 79.05 Q 32.300003 76.55 32.300003 72.65 Z " fill="black"/>
    <ellipse cx="517.3" cy="227.25" rx="5" ry="5" stroke="gray" stroke-width="1" fill="none"/>
    <rect x="587.3" y="54.25" width="5" height="80" stroke="orange" stroke-width="1" fill="none"/>
    <rect x="587.3" y="182.25" width="5" height="80" stroke="orange" stroke-width="1" fill="none"/>
    <rect x="0" y="0" width="592.8" height="263.45" stroke="black" stroke-width="1" fill="none"/>
</svg>
