<svg xmlns="http://www.w3.org/2000/svg" xmlns:xlink="http://www.w3.org/1999/xlink" viewBox="0 0 515 226">
    <rect x="0.5" y="120.5" width="10" height="10" stroke="orange" stroke-width="1" fill="none"/>
    <rect x="10.5" y="9.5" width="74" height="186" stroke="orange" stroke-width="1" fill="none"/>
    <path d="M 35.300003 68 Q 33 60.699997 32.1 55 Q 31.300001 50.199997 31.300001 43.799995 Q 31.300001 41.6 31.4 39.4 Q 31.800001 29.900002 35.300003 21.949997 Q 38.800003 14 45.8 9.799995 Q 46.3 9.5 47.100002 9.5 Q 47.8 9.5 48.3 10 Q 53.9 15.599998 56.9 24.299995 Q 59.9 33 59.9 41.9 Q 59.9 52.199997 55.5 62.1 Q 51.3 72 43.7 79.6 Q 43.100002 80.2 43.3 81.2 L 47.3 97.2 Q 47.600002 98.8 49.3 98.6 Q 50.9 98.4 52.4 98.4 Q 58.2 98.4 62.9 100.7 Q 67.600006 103 70.5 106.7 Q 73.4 110.4 74.950005 114.85 Q 76.5 119.3 76.5 124 Q 76.5 132.6 71.7 139.55 Q 66.9 146.5 60.2 148.7 Q 58.8 149.2 59.100002 150.8 Q 61.600002 162.6 61.7 170.7 Q 61.7 173.8 61.3 176.8 Q 60.5 183.7 55.3 188.9 Q 50.100002 194.1 42.9 194.1 Q 34.1 194.1 28 188.8 Q 21.900002 183.5 21.900002 174.9 Q 21.900002 170.5 25 167.3 Q 28.1 164.1 32.300003 164.1 Q 36.6 164.1 39.550003 167.15 Q 42.5 170.2 42.5 174.4 Q 42.5 178 40.1 180.7 Q 37.7 183.5 34.300003 183.8 Q 33.1 183.9 32.7 185 Q 32.300003 186.1 33.5 187 Q 37.1 189.8 42.300003 189.8 Q 48 189.8 52.15 185.7 Q 56.3 181.6 57 176.4 Q 57.5 172.8 57.5 169.2 Q 57.5 161.4 55.100002 151.9 Q 54.7 150.2 52.9 150.4 Q 48.9 150.9 45.5 150.9 Q 30.7 150.9 20.6 141.6 Q 10.5 132.3 10.5 116.3 Q 10.5 111.4 11.65 106.65 Q 12.8 101.9 14.25 98.45 Q 15.700001 95 18.75 90.45 Q 21.8 85.899994 23.650002 83.5 Q 25.5 81.1 29.5 76.35 Q 33.5 71.6 35 69.7 Q 35.6 69 35.300003 68 Z M 50.9 113.7 L 57.4 143.2 Q 57.7 144.5 59.2 144.5 Q 59.600002 144.5 59.9 144.4 Q 64 142.7 66.7 137.8 Q 69.4 132.9 69.4 128.1 Q 69.4 121.1 65.3 116.3 Q 61.100002 111.4 52.7 111.4 Q 52 111.4 51.45 111.95 Q 50.9 112.5 50.9 113.2 Q 50.8 113.5 50.9 113.7 Z M 37.1 85.899994 Q 35.5 87.7 32.35 91.05 Q 29.2 94.4 27.65 96.15 Q 26.1 97.9 23.85 101.1 Q 21.6 104.3 20.5 107 Q 19.400002 109.7 18.55 113.6 Q 17.7 117.5 17.7 121.9 Q 17.7 128 21.45 133.7 Q 25.2 139.4 31.75 143 Q 38.300003 146.6 45.8 146.6 Q 48.5 146.6 51.8 146.3 Q 52.600002 146.2 53.100002 145.55 Q 53.600002 144.9 53.4 144.1 L 46.9 114.2 Q 46.600002 112.8 45 112.8 Q 44.7 112.8 44.3 112.9 Q 39.7 114.6 37.800003 117.7 Q 35.9 120.8 35.9 125.5 Q 35.9 131 41.9 135 Q 42.600002 135.5 42.600002 136.5 Q 42.600002 137.3 41.95 138 Q 41.300003 138.7 40.4 138.7 Q 39.9 138.7 39.5 138.5 Q 33.800003 135.5 31.050001 130.35 Q 28.300001 125.2 28.300001 119.5 Q 28.300001 114 32.25 108.15 Q 36.2 102.3 42.1 100.1 Q 43.600002 99.5 43.3 98 L 40.300003 86.7 Q 40.1 85.6 38.9 85.399994 Q 37.7 85.2 37.1 85.899994 Z M 53.9 27.699997 Q 53.100002 25.099998 51.2 25.099998 Q 50.600002 25.099998 50.100002 25.400002 Q 43.7 29.199997 39.95 36.1 Q 36.2 43 36.2 50.699997 Q 36.2 55.699997 38.300003 63 Q 38.6 64.1 39.800003 64.3 Q 40.800003 64.399994 41.5 63.6 Q 41.800003 63.2 44.350002 60.049995 Q 46.9 56.9 47.7 55.85 Q 48.5 54.799995 50.4 51.85 Q 52.3 48.9 53.05 46.949997 Q 53.8 45 54.5 42.1 Q 55.2 39.199997 55.2 36.299995 Q 55.2 32.1 53.9 27.699997 Z " fill="black"/>
    <rect x="84.5" y="100.5" width="32.5" height="25" stroke="blue" stroke-width="1" fill="none"/>
    <path d="M 84.5 116.4 Q 84.5 110.4 91.1 104.85 Q 97.7 99.3 104.6 99.3 Q 107.4 99.3 109.95 100 Q 112.5 100.7 114.8 103.2 Q 117.100006 105.7 117.100006 109.6 Q 117.100006 115.1 110.4 120.9 Q 103.7 126.7 97 126.7 Q 94.2 126.7 91.65 126 Q 89.1 125.3 86.8 122.8 Q 84.5 120.3 84.5 116.4 Z " fill="black"/>
    <rect x="117" y="113" width="33.75" height="25" stroke="blue" stroke-width="1" fill="none"/>
    <path d="M 141.9 115.4 Q 139 115.4 129.65 121.95 Q 120.3 128.5 120.3 131.5 Q 120.3 133.6 122.1 134.6 Q 123.9 135.6 126.4 135.6 Q 129.3 135.6 138.65 129.05 Q 148 122.5 148 119.5 Q 148 117.4 146.2 116.4 Q 144.4 115.4 141.9 115.4 Z M 117 129.3 Q 117 122.1 123.2 116.95 Q 129.4 111.8 138.2 111.8 Q 141.2 111.8 143.8 112.4 Q 146.4 113 148.8 115.4 Q 151.2 117.8 151.2 121.7 Q 151.2 128.9 145 134.05 Q 138.8 139.2 130 139.2 Q 127 139.2 124.4 138.6 Q 121.8 138 119.4 135.6 Q 117 133.2 117 129.3 Z " fill="black"/>
    <rect x="84.5" y="13" width="2.5" height="100" stroke="blue" stroke-width="1" fill="none"/>
    <rect x="84.5" y="13" width="2.5" height="100" fill="blue"/>
    <rect x="84.5" y="125.5" width="2.5" height="100" stroke="blue" stroke-width="1" fill="none"/>
    <rect x="84.5" y="125.5" width="2.5" height="100" fill="blue"/>
    <rect x="189.5" y="113" width="32.5" height="25" stroke="blue" stroke-width="1" fill="none"/>
    <path d="M 189.5 128.9 Q 189.5 122.9 196.1 117.35 Q 202.7 111.8 209.6 111.8 Q 212.4 111.8 214.95 112.5 Q 217.5 113.2 219.8 115.7 Q 222.1 118.2 222.1 122.1 Q 222.1 127.6 215.4 133.4 Q 208.7 139.2 202 139.2 Q 199.2 139.2 196.65 138.5 Q 194.1 137.8 191.8 135.3 Q 189.5 132.8 189.5 128.9 Z " fill="black"/>
    <rect x="189.5" y="25.5" width="2.5" height="100" stroke="blue" stroke-width="1" fill="none"/>
    <rect x="189.5" y="25.5" width="2.5" height="100" fill="blue"/>
    <rect x="328.25" y="88" width="32.5" height="25" stroke="blue" stroke-width="1" fill="none"/>
    <path d="M 328.25 103.9 Q 328.25 97.9 334.85 92.35 Q 341.45 86.8 348.35 86.8 Q 351.15 86.8 353.7 87.5 Q 356.25 88.2 358.55 90.7 Q 360.85 93.2 360.85 97.1 Q 360.85 102.6 354.15 108.4 Q 347.45 114.2 340.75 114.2 Q 337.95 114.2 335.4 113.5 Q 332.85 112.8 330.55 110.3 Q 328.25 107.8 328.25 103.9 Z " fill="black"/>
    <rect x="294.5" y="63" width="33.75" height="25" stroke="blue" stroke-width="1" fill="none"/>
    <path d="M 319.4 65.4 Q 316.5 65.4 307.15 71.95 Q 297.8 78.5 297.8 81.5 Q 297.8 83.6 299.6 84.6 Q 301.4 85.6 303.9 85.6 Q 306.8 85.6 316.15 79.05 Q 325.5 72.5 325.5 69.5 Q 325.5 67.4 323.7 66.4 Q 321.9 65.4 319.4 65.4 Z M 294.5 79.3 Q 294.5 72.1 300.7 66.95 Q 306.9 61.8 315.7 61.8 Q 318.7 61.8 321.3 62.4 Q 323.9 63 326.3 65.4 Q 328.7 67.8 328.7 71.7 Q 328.7 78.9 322.5 84.05 Q 316.3 89.2 307.5 89.2 Q 304.5 89.2 301.9 88.6 Q 299.3 88 296.9 85.6 Q 294.5 83.2 294.5 79.3 Z " fill="black"/>
    <rect x="294.5" y="0.5" width="2.5" height="100" stroke="blue" stroke-width="1" fill="none"/>
    <rect x="294.5" y="0.5" width="2.5" height="100" fill="blue"/>
    <rect x="294.5" y="75.5" width="2.5" height="100" stroke="blue" stroke-width="1" fill="none"/>
    <rect x="294.5" y="75.5" width="2.5" height="100" fill="blue"/>
    <rect x="399.5" y="113" width="32.5" height="25" stroke="blue" stroke-width="1" fill="none"/>
    <path d="M 399.5 128.9 Q 399.5 122.9 406.1 117.35 Q 412.7 111.8 419.6 111.8 Q 422.4 111.8 424.95 112.5 Q 427.5 113.2 429.8 115.7 Q 432.1 118.2 432.1 122.1 Q 432.1 127.6 425.4 133.4 Q 418.7 139.2 412 139.2 Q 409.2 139.2 406.65 138.5 Q 404.1 137.8 401.8 135.3 Q 399.5 132.8 399.5 128.9 Z " fill="black"/>
    <rect x="399.5" y="25.5" width="2.5" height="100" stroke="blue" stroke-width="1" fill="none"/>
    <rect x="399.5" y="25.5" width="2.5" height="100" fill="blue"/>
    <rect x="504.5" y="120.5" width="10" height="10" stroke="orange" stroke-width="1" fill="none"/>
    <rect x="0" y="0" width="515" height="226" stroke="black" stroke-width="1" fill="none"/>
</svg>
