<svg xmlns="http://www.w3.org/2000/svg" xmlns:xlink="http://www.w3.org/1999/xlink" viewBox="0 0 543 363.45">
    <rect x="0.5" y="54.25" width="5" height="80" stroke="orange" stroke-width="1" fill="none"/>
    <rect x="0.5" y="154.25" width="5" height="80" stroke="orange" stroke-width="1" fill="none"/>
    <rect x="0.5" y="282.25" width="5" height="80" stroke="orange" stroke-width="1" fill="none"/>
    <rect x="7.5" y="64.25" width="30" height="60" stroke="orange" stroke-width="1" fill="none"/>
    <rect x="7.5" y="164.25" width="30" height="60" stroke="orange" stroke-width="1" fill="none"/>
    <ellipse cx="12.5" cy="327.25" rx="5" ry="5" stroke="gray" stroke-width="1" fill="none"/>
    <rect x="67.5" y="0.5" width="2.5" height="137.5" stroke="blue" stroke-width="1" fill="none"/>
    <rect x="37.5" y="131.75" width="32.5" height="25" stroke="blue" stroke-width="1" fill="none"/>
    <rect x="37.5" y="94.25" width="32.5" height="25" stroke="blue" stroke-width="1" fill="none"/>
    <rect x="70" y="81.75" width="32.5" height="25" stroke="blue" stroke-width="1" fill="none"/>
    <rect x="37.5" y="194.25" width="2.5" height="87.5" stroke="blue" stroke-width="1" fill="none"/>
    <rect x="37.5" y="181.75" width="32.5" height="25" stroke="blue" stroke-width="1" fill="none"/>
    <rect x="5.66" y="281.55" width="31.84" height="81.399994" stroke="blue" stroke-width="1" fill="none"/>
    <rect x="37.5" y="281.55" width="31.84" height="81.399994" stroke="blue" stroke-width="1" fill="none"/>
    <rect x="172.5" y="13" width="2.5" height="87.5" stroke="blue" stroke-width="1" fill="none"/>
    <rect x="142.5" y="94.25" width="32.5" height="25" stroke="blue" stroke-width="1" fill="none"/>
    <rect x="142.5" y="194.25" width="2.5" height="87.5" stroke="blue" stroke-width="1" fill="none"/>
    <rect x="142.5" y="181.75" width="32.5" height="25" stroke="blue" stroke-width="1" fill="none"/>
    <rect x="127.62" y="281.55" width="29.76" height="81.399994" stroke="blue" stroke-width="1" fill="none"/>
    <rect x="247.5" y="64.25" width="5" height="60" stroke="orange" stroke-width="1" fill="none"/>
    <rect x="247.5" y="164.25" width="5" height="60" stroke="orange" stroke-width="1" fill="none"/>
    <ellipse cx="252.5" cy="327.25" rx="5" ry="5" stroke="gray" stroke-width="1" fill="none"/>
    <rect x="282.5" y="94.25" width="2.5" height="87.5" stroke="blue" stroke-width="1" fill="none"/>
    <rect x="282.5" y="81.75" width="32.5" height="25" stroke="blue" stroke-width="1" fill="none"/>
    <rect x="252.5" y="56.75" width="30.000002" height="75" stroke="blue" stroke-width="1" fill="none"/>
    <rect x="282.5" y="194.25" width="2.5" height="87.5" stroke="blue" stroke-width="1" fill="none"/>
    <rect x="282.5" y="181.75" width="32.5" height="25" stroke="blue" stroke-width="1" fill="none"/>
    <rect x="224.9" y="281.55" width="38.399998" height="81.399994" stroke="blue" stroke-width="1" fill="none"/>
    <rect x="263.3" y="281.55" width="38.399998" height="81.399994" stroke="blue" stroke-width="1" fill="none"/>
    <rect x="301.7" y="281.55" width="38.399998" height="81.399994" stroke="blue" stroke-width="1" fill="none"/>
    <rect x="417.5" y="13" width="2.5" height="87.5" stroke="blue" stroke-width="1" fill="none"/>
    <rect x="387.5" y="94.25" width="32.5" height="25" stroke="blue" stroke-width="1" fill="none"/>
    <rect x="387.5" y="194.25" width="2.5" height="87.5" stroke="blue" stroke-width="1" fill="none"/>
    <rect x="387.5" y="181.75" width="32.5" height="25" stroke="blue" stroke-width="1" fill="none"/>
    <ellipse cx="392.5" cy="327.25" rx="5" ry="5" stroke="gray" stroke-width="1" fill="none"/>
    <rect x="492.5" y="25.5" width="2.5" height="87.5" stroke="blue" stroke-width="1" fill="none"/>
    <rect x="462.5" y="106.75" width="32.5" height="25" stroke="blue" stroke-width="1" fill="none"/>
    <rect x="435" y="69.25" width="27.5" height="75" stroke="blue" stroke-width="1" fill="none"/>
    <ellipse cx="467.5" cy="199.25" rx="5" ry="5" stroke="gray" stroke-width="1" fill="none"/>
    <rect x="447.62" y="281.55" width="29.76" height="81.399994" stroke="blue" stroke-width="1" fill="none"/>
    <rect x="537.5" y="54.25" width="5" height="80" stroke="orange" stroke-width="1" fill="none"/>
    <rect x="537.5" y="154.25" width="5" height="80" stroke="orange" stroke-width="1" fill="none"/>
    <rect x="537.5" y="282.25" width="5" height="80" stroke="orange" stroke-width="1" fill="none"/>
    <rect x="0" y="0" width="543" height="363.45" stroke="black" stroke-width="1" fill="none"/>
</svg>
