<svg xmlns="http://www.w3.org/2000/svg" xmlns:xlink="http://www.w3.org/1999/xlink" viewBox="0 0 742.5 308.7">
    <rect x="0.5" y="111.5" width="10" height="10" stroke="orange" stroke-width="1" fill="none"/>
    <path d="M 0.5 167.7 L 0.5 165.2 L 100.5 165.2 L 100.5 167.7 L 0.5 167.7 Z M 0.5 142.7 L 0.5 140.2 L 100.5 140.2 L 100.5 142.7 L 0.5 142.7 Z M 0.5 117.7 L 0.5 115.2 L 100.5 115.2 L 100.5 117.7 L 0.5 117.7 Z M 0.5 92.7 L 0.5 90.2 L 100.5 90.2 L 100.5 92.7 L 0.5 92.7 Z M 0.5 67.7 L 0.5 65.2 L 100.5 65.2 L 100.5 67.7 L 0.5 67.7 Z " fill="orange"/>
    <rect x="0.5" y="252.5" width="10" height="10" stroke="orange" stroke-width="1" fill="none"/>
    <path d="M 0.5 308.7 L 0.5 306.2 L 100.5 306.2 L 100.5 308.7 L 0.5 308.7 Z M 0.5 283.7 L 0.5 281.2 L 100.5 281.2 L 100.5 283.7 L 0.5 283.7 Z M 0.5 258.7 L 0.5 256.2 L 100.5 256.2 L 100.5 258.7 L 0.5 258.7 Z M 0.5 233.7 L 0.5 231.2 L 100.5 231.2 L 100.5 233.7 L 0.5 233.7 Z M 0.5 208.7 L 0.5 206.2 L 100.5 206.2 L 100.5 208.7 L 0.5 208.7 Z " fill="orange"/>
    <rect x="10.5" y="0.5" width="74" height="186" stroke="orange" stroke-width="1" fill="none"/>
    <path d="M 35.300003 59 Q 33 51.699997 32.1 46 Q 31.300001 41.199997 31.300001 34.799995 Q 31.300001 32.6 31.4 30.400002 Q 31.800001 20.900002 35.300003 12.949997 Q 38.800003 5 45.8 0.7999954 Q 46.3 0.5 47.100002 0.5 Q 47.8 0.5 48.3 1 Q 53.9 6.5999985 56.9 15.299995 Q 59.9 24 59.9 32.9 Q 59.9 43.199997 55.5 53.1 Q 51.3 63 43.7 70.6 Q 43.100002 71.2 43.3 72.2 L 47.3 88.2 Q 47.600002 89.8 49.3 89.6 Q 50.9 89.4 52.4 89.4 Q 58.2 89.4 62.9 91.7 Q 67.600006 94 70.5 97.7 Q 73.4 101.4 74.950005 105.85 Q 76.5 110.3 76.5 115 Q 76.5 123.6 71.7 130.55 Q 66.9 137.5 60.2 139.7 Q 58.8 140.2 59.100002 141.8 Q 61.600002 153.6 61.7 161.7 Q 61.7 164.8 61.3 167.8 Q 60.5 174.7 55.3 179.9 Q 50.100002 185.1 42.9 185.1 Q 34.1 185.1 28 179.8 Q 21.900002 174.5 21.900002 165.9 Q 21.900002 161.5 25 158.3 Q 28.1 155.1 32.300003 155.1 Q 36.6 155.1 39.550003 158.15 Q 42.5 161.2 42.5 165.4 Q 42.5 169 40.1 171.7 Q 37.7 174.5 34.300003 174.8 Q 33.1 174.9 32.7 176 Q 32.300003 177.1 33.5 178 Q 37.1 180.8 42.300003 180.8 Q 48 180.8 52.15 176.7 Q 56.3 172.6 57 167.4 Q 57.5 163.8 57.5 160.2 Q 57.5 152.4 55.100002 142.9 Q 54.7 141.2 52.9 141.4 Q 48.9 141.9 45.5 141.9 Q 30.7 141.9 20.6 132.6 Q 10.5 123.3 10.5 107.3 Q 10.5 102.4 11.65 97.65 Q 12.8 92.9 14.25 89.45 Q 15.700001 86 18.75 81.45 Q 21.8 76.899994 23.650002 74.5 Q 25.5 72.1 29.5 67.35 Q 33.5 62.6 35 60.7 Q 35.6 60 35.300003 59 Z M 50.9 104.7 L 57.4 134.2 Q 57.7 135.5 59.2 135.5 Q 59.600002 135.5 59.9 135.4 Q 64 133.7 66.7 128.8 Q 69.4 123.9 69.4 119.1 Q 69.4 112.1 65.3 107.3 Q 61.100002 102.4 52.7 102.4 Q 52 102.4 51.45 102.95 Q 50.9 103.5 50.9 104.2 Q 50.8 104.5 50.9 104.7 Z M 37.1 76.899994 Q 35.5 78.7 32.35 82.05 Q 29.2 85.4 27.65 87.15 Q 26.1 88.9 23.85 92.1 Q 21.6 95.3 20.5 98 Q 19.400002 100.7 18.55 104.6 Q 17.7 108.5 17.7 112.9 Q 17.7 119 21.45 124.7 Q 25.2 130.4 31.75 134 Q 38.300003 137.6 45.8 137.6 Q 48.5 137.6 51.8 137.3 Q 52.600002 137.2 53.100002 136.55 Q 53.600002 135.9 53.4 135.1 L 46.9 105.2 Q 46.600002 103.8 45 103.8 Q 44.7 103.8 44.3 103.9 Q 39.7 105.6 37.800003 108.7 Q 35.9 111.8 35.9 116.5 Q 35.9 122 41.9 126 Q 42.600002 126.5 42.600002 127.5 Q 42.600002 128.3 41.95 129 Q 41.300003 129.7 40.4 129.7 Q 39.9 129.7 39.5 129.5 Q 33.800003 126.5 31.050001 121.35 Q 28.300001 116.2 28.300001 110.5 Q 28.300001 105 32.25 99.15 Q 36.2 93.3 42.1 91.1 Q 43.600002 90.5 43.3 89 L 40.300003 77.7 Q 40.1 76.6 38.9 76.399994 Q 37.7 76.2 37.1 76.899994 Z M 53.9 18.699997 Q 53.100002 16.099998 51.2 16.099998 Q 50.600002 16.099998 50.100002 16.400002 Q 43.7 20.199997 39.95 27.099998 Q 36.2 34 36.2 41.699997 Q 36.2 46.699997 38.300003 54 Q 38.6 55.1 39.800003 55.3 Q 40.800003 55.399998 41.5 54.6 Q 41.800003 54.2 44.350002 51.049995 Q 46.9 47.9 47.7 46.85 Q 48.5 45.799995 50.4 42.85 Q 52.3 39.9 53.05 37.949997 Q 53.8 36 54.5 33.1 Q 55.2 30.199997 55.2 27.299995 Q 55.2 23.099998 53.9 18.699997 Z " fill="black"/>
    <ellipse cx="15.5" cy="262.5" rx="5" ry="5" stroke="gray" stroke-width="1" fill="none"/>
    <rect x="114.5" y="116.5" width="2.5" height="87.5" stroke="blue" stroke-width="1" fill="none"/>
    <rect x="114.5" y="116.5" width="2.5" height="87.5" fill="black"/>
    <rect x="114.5" y="104" width="33.75" height="25" stroke="blue" stroke-width="1" fill="none"/>
    <path d="M 139.4 106.4 Q 136.5 106.4 127.15 112.95 Q 117.8 119.5 117.8 122.5 Q 117.8 124.6 119.6 125.6 Q 121.4 126.6 123.9 126.6 Q 126.8 126.6 136.15 120.05 Q 145.5 113.5 145.5 110.5 Q 145.5 108.4 143.7 107.4 Q 141.9 106.4 139.4 106.4 Z M 114.5 120.3 Q 114.5 113.1 120.7 107.95 Q 126.9 102.8 135.7 102.8 Q 138.7 102.8 141.3 103.4 Q 143.9 104 146.3 106.4 Q 148.7 108.8 148.7 112.7 Q 148.7 119.9 142.5 125.05 Q 136.3 130.2 127.5 130.2 Q 124.5 130.2 121.9 129.6 Q 119.3 129 116.9 126.6 Q 114.5 124.2 114.5 120.3 Z " fill="black"/>
    <rect x="84.5" y="79" width="30.000002" height="75" stroke="blue" stroke-width="1" fill="none"/>
    <path d="M 106.1 106.9 L 106.1 119.1 Q 106.1 119.9 106.6 120.4 Q 107.1 120.9 107.9 120.9 Q 108.2 120.9 108.5 120.8 L 109.3 120.5 Q 109.6 120.4 110 120.4 Q 110.8 120.4 111.4 121 Q 112 121.6 112 122.4 L 112 128.4 Q 112 129.7 110.7 130.2 L 107.3 131.5 Q 106.1 132 106.1 133.1 L 106.1 147.7 Q 106.1 148.5 105.55 149.05 Q 105 149.6 104.3 149.6 Q 103.5 149.6 102.95 149.05 Q 102.4 148.5 102.4 147.7 L 102.4 135.8 Q 102.4 135 101.85 134.5 Q 101.3 134 100.6 134 Q 100.2 134 99.9 134.1 L 95.3 135.9 Q 94.1 136.3 94.1 137.5 L 94.1 152.1 Q 94.1 152.9 93.5 153.45 Q 92.9 154 92.2 154 Q 91.5 154 90.95 153.45 Q 90.4 152.9 90.4 152.1 L 90.4 140.2 Q 90.4 139.4 89.85 138.9 Q 89.3 138.4 88.6 138.4 Q 88.3 138.4 88 138.5 L 87.2 138.8 Q 87 138.9 86.5 138.9 Q 85.7 138.9 85.1 138.3 Q 84.5 137.7 84.5 136.9 L 84.5 130.9 Q 84.5 129.5 85.8 129 L 89.2 127.8 Q 90.4 127.5 90.4 126.1 L 90.4 113.9 Q 90.4 113.1 89.85 112.6 Q 89.3 112.1 88.6 112.1 Q 88.3 112.1 88.1 112.2 L 87.2 112.5 Q 87 112.6 86.5 112.6 Q 85.7 112.6 85.1 112 Q 84.5 111.4 84.5 110.6 L 84.5 104.6 Q 84.5 103.3 85.8 102.8 L 89.3 101.5 Q 90.4 101 90.4 99.9 L 90.4 85.3 Q 90.4 84.5 90.95 83.95 Q 91.5 83.399994 92.2 83.399994 Q 92.9 83.399994 93.5 83.95 Q 94.1 84.5 94.1 85.3 L 94.1 97.2 Q 94.1 98 94.65 98.5 Q 95.2 99 96 99 Q 96.3 99 96.6 98.9 L 101.2 97.1 Q 102.4 96.6 102.4 95.4 L 102.4 80.899994 Q 102.4 80.1 102.95 79.55 Q 103.5 79 104.3 79 Q 105 79 105.55 79.55 Q 106.1 80.1 106.1 80.899994 L 106.1 92.9 Q 106.1 93.6 106.6 94.1 Q 107.1 94.6 107.8 94.6 Q 108.1 94.6 108.5 94.5 L 109.3 94.2 Q 109.5 94.1 110 94.1 Q 110.8 94.1 111.4 94.7 Q 112 95.3 112 96.1 L 112 102.1 Q 112 103.5 110.7 104 L 107.3 105.2 Q 106.1 105.5 106.1 106.9 Z M 102.4 121.7 L 102.4 109.6 Q 102.4 108.9 101.85 108.35 Q 101.3 107.8 100.6 107.8 Q 100.3 107.8 100 107.9 L 95.3 109.6 Q 94.1 110.1 94.1 111.3 L 94.1 123.4 Q 94.1 124.2 94.6 124.7 Q 95.1 125.2 95.9 125.2 Q 96.2 125.2 96.5 125.1 L 101.2 123.4 Q 102.4 122.9 102.4 121.7 Z " fill="black"/>
    <rect x="79.24" y="216.8" width="31.84" height="81.399994" stroke="blue" stroke-width="1" fill="none"/>
    <path d="M 88.6 274.32 Q 87.159996 274.32 85.68 273.2 Q 84.2 272.08002 83.2 270.47998 Q 82.2 268.88 82.2 267.44 Q 82.2 264.88 83.56 263.44 Q 84.92 262 87.88 260.8 L 96.03999 257.44 Q 97.64 256.8 97.92 256.32 Q 98.2 255.84 98.28 254.23999 L 98.439995 249.12 Q 98.52 247.04 97.28 245.51999 Q 96.03999 244 93.72 244 Q 92.52 244 91.32 244.4 Q 90.119995 244.8 89.32 245.44 Q 88.84 245.76 88.68 246.4 Q 88.52 247.04 88.52 247.76 Q 88.52 248.08 88.56 248.48 Q 88.6 248.88 88.6 249.2 Q 88.6 249.59999 87.6 250.28 Q 86.6 250.95999 85.36 251.48 Q 84.119995 252 83.32 252 Q 82.92 252 82.68 251.8 Q 82.439995 251.59999 82.439995 251.28 Q 82.439995 250 83.28 248.51999 Q 84.119995 247.04 85.64 245.76 Q 87.479996 244.08 89.64 242.79999 Q 91.799995 241.51999 93.88 240.8 Q 95.96 240.08 97.56 240.08 Q 100.439995 240.08 102.32 242.12 Q 104.2 244.16 104.119995 247.2 L 103.72 266.4 Q 103.64 268.08002 104.479996 269.12 Q 105.32 270.16 106.6 270.16 Q 108.6 270.16 109.56 269.28 Q 109.96 268.88 110.2 268.88 Q 110.6 268.88 110.84 269.12 Q 111.08 269.36 111.08 269.76 Q 111.08 270.64 110.2 271.52002 Q 108.92 272.8 107.439995 273.56 Q 105.96 274.32 104.67999 274.32 Q 101 274.32 98.84 270.16 L 98.6 270.16 Q 95.96 272.32 93.56 273.32 Q 91.159996 274.32 88.6 274.32 Z M 92.36 270.47998 Q 93.96 270.47998 95.079994 269.96 Q 96.2 269.44 97.08 268.56 Q 97.479996 268.16 97.759995 267.47998 Q 98.03999 266.8 98.119995 265.28 L 98.28 261.36 Q 98.36 260.47998 98.2 260.08002 Q 98.03999 259.68 97.56 259.68 Q 97.399994 259.68 97 259.76 Q 96.6 259.84 95.96 260.08002 Q 91.72 261.59998 90.08 263.24 Q 88.439995 264.88 88.439995 266.24 Q 88.439995 268.32 89.68 269.4 Q 90.92 270.47998 92.36 270.47998 Z " fill="black"/>
    <rect x="111.08" y="216.8" width="31.84" height="81.399994" stroke="blue" stroke-width="1" fill="none"/>
    <path d="M 120.44 274.32 Q 119 274.32 117.520004 273.2 Q 116.04 272.08002 115.04 270.47998 Q 114.04 268.88 114.04 267.44 Q 114.04 264.88 115.4 263.44 Q 116.76 262 119.72 260.8 L 127.880005 257.44 Q 129.48 256.8 129.76001 256.32 Q 130.04001 255.84 130.12 254.23999 L 130.28 249.12 Q 130.36 247.04 129.12 245.51999 Q 127.880005 244 125.56 244 Q 124.36 244 123.16 244.4 Q 121.96 244.8 121.16 245.44 Q 120.68 245.76 120.520004 246.4 Q 120.36 247.04 120.36 247.76 Q 120.36 248.08 120.4 248.48 Q 120.44 248.88 120.44 249.2 Q 120.44 249.59999 119.44 250.28 Q 118.44 250.95999 117.200005 251.48 Q 115.96 252 115.16 252 Q 114.76 252 114.520004 251.8 Q 114.28 251.59999 114.28 251.28 Q 114.28 250 115.12 248.51999 Q 115.96 247.04 117.48 245.76 Q 119.32 244.08 121.48 242.79999 Q 123.64 241.51999 125.72 240.8 Q 127.8 240.08 129.4 240.08 Q 132.28 240.08 134.16 242.12 Q 136.04001 244.16 135.96 247.2 L 135.56 266.4 Q 135.48 268.08002 136.32 269.12 Q 137.16 270.16 138.44 270.16 Q 140.44 270.16 141.4 269.28 Q 141.8 268.88 142.04001 268.88 Q 142.44 268.88 142.68 269.12 Q 142.92 269.36 142.92 269.76 Q 142.92 270.64 142.04001 271.52002 Q 140.76 272.8 139.28 273.56 Q 137.8 274.32 136.52 274.32 Q 132.84 274.32 130.68001 270.16 L 130.44 270.16 Q 127.8 272.32 125.4 273.32 Q 123 274.32 120.44 274.32 Z M 124.200005 270.47998 Q 125.8 270.47998 126.92 269.96 Q 128.04001 269.44 128.92 268.56 Q 129.32 268.16 129.6 267.47998 Q 129.88 266.8 129.96 265.28 L 130.12 261.36 Q 130.2 260.47998 130.04001 260.08002 Q 129.88 259.68 129.4 259.68 Q 129.24 259.68 128.84 259.76 Q 128.44 259.84 127.8 260.08002 Q 123.56 261.59998 121.92 263.24 Q 120.28 264.88 120.28 266.24 Q 120.28 268.32 121.520004 269.4 Q 122.76 270.47998 124.200005 270.47998 Z " fill="black"/>
    <rect x="142.92" y="216.8" width="31.84" height="81.399994" stroke="blue" stroke-width="1" fill="none"/>
    <path d="M 152.28 274.32 Q 150.84 274.32 149.36 273.2 Q 147.88 272.08002 146.88 270.47998 Q 145.88 268.88 145.88 267.44 Q 145.88 264.88 147.23999 263.44 Q 148.59999 262 151.56 260.8 L 159.72 257.44 Q 161.31999 256.8 161.6 256.32 Q 161.88 255.84 161.95999 254.23999 L 162.12 249.12 Q 162.2 247.04 160.95999 245.51999 Q 159.72 244 157.4 244 Q 156.2 244 155 244.4 Q 153.8 244.8 153 245.44 Q 152.52 245.76 152.36 246.4 Q 152.2 247.04 152.2 247.76 Q 152.2 248.08 152.23999 248.48 Q 152.28 248.88 152.28 249.2 Q 152.28 249.59999 151.28 250.28 Q 150.28 250.95999 149.04 251.48 Q 147.8 252 147 252 Q 146.59999 252 146.36 251.8 Q 146.12 251.59999 146.12 251.28 Q 146.12 250 146.95999 248.51999 Q 147.8 247.04 149.31999 245.76 Q 151.16 244.08 153.31999 242.79999 Q 155.48 241.51999 157.56 240.8 Q 159.64 240.08 161.23999 240.08 Q 164.12 240.08 166 242.12 Q 167.88 244.16 167.8 247.2 L 167.4 266.4 Q 167.31999 268.08002 168.16 269.12 Q 169 270.16 170.28 270.16 Q 172.28 270.16 173.23999 269.28 Q 173.64 268.88 173.88 268.88 Q 174.28 268.88 174.51999 269.12 Q 174.76 269.36 174.76 269.76 Q 174.76 270.64 173.88 271.52002 Q 172.59999 272.8 171.12 273.56 Q 169.64 274.32 168.36 274.32 Q 164.68 274.32 162.52 270.16 L 162.28 270.16 Q 159.64 272.32 157.23999 273.32 Q 154.84 274.32 152.28 274.32 Z M 156.04 270.47998 Q 157.64 270.47998 158.76 269.96 Q 159.88 269.44 160.76 268.56 Q 161.16 268.16 161.44 267.47998 Q 161.72 266.8 161.8 265.28 L 161.95999 261.36 Q 162.04 260.47998 161.88 260.08002 Q 161.72 259.68 161.23999 259.68 Q 161.08 259.68 160.68 259.76 Q 160.28 259.84 159.64 260.08002 Q 155.4 261.59998 153.76 263.24 Q 152.12 264.88 152.12 266.24 Q 152.12 268.32 153.36 269.4 Q 154.59999 270.47998 156.04 270.47998 Z " fill="black"/>
    <rect x="264.5" y="129" width="2.5" height="87.5" stroke="blue" stroke-width="1" fill="none"/>
    <rect x="264.5" y="129" width="2.5" height="87.5" fill="black"/>
    <rect x="264.5" y="116.5" width="32.5" height="25" stroke="blue" stroke-width="1" fill="none"/>
    <path d="M 264.5 132.4 Q 264.5 126.4 271.1 120.85 Q 277.7 115.3 284.6 115.3 Q 287.4 115.3 289.95 116 Q 292.5 116.7 294.8 119.2 Q 297.1 121.7 297.1 125.6 Q 297.1 131.1 290.4 136.9 Q 283.7 142.7 277 142.7 Q 274.2 142.7 271.65 142 Q 269.1 141.3 266.8 138.8 Q 264.5 136.3 264.5 132.4 Z " fill="black"/>
    <rect x="257.8" y="216.8" width="38.399998" height="81.399994" stroke="blue" stroke-width="1" fill="none"/>
    <path d="M 278.52 274.32 Q 276.75998 274.32 275 274 Q 273.24 273.68 271.63998 273.28 Q 269.87997 272.8 268.56 272.4 Q 267.24 272 266.84 272 Q 266.36 272 265.91998 272.32 Q 265.47998 272.64 265.08 273.03998 Q 264.68 273.44 264.36 273.44 Q 264.03998 273.44 263.63998 273.16 Q 263.24 272.88 263.24 272.47998 Q 263.24 271.76 263.52 270 Q 263.8 268.24 263.8 266.72 L 263.8 227.92 Q 263.8 225.84 262.75998 224.32 Q 261.72 222.8 260.12 222.08 Q 259.8 221.92 259.44 221.64 Q 259.08 221.36 259.08 220.88 Q 259.08 220.48 259.4 220.32 Q 259.72 220.16 260.03998 220.08 Q 261.08 219.84 262.87997 219.2 Q 264.68 218.56 266.28 217.92 Q 267.87997 217.28 268.44 217.04 Q 268.91998 216.8 269.15997 216.8 Q 269.31998 216.8 269.47998 216.95999 Q 269.63998 217.12 269.63998 217.36 Q 269.63998 217.68 269.52 220.04 Q 269.4 222.4 269.4 225.76 L 269.4 242.16 Q 269.4 243.68 269.56 244.2 Q 269.72 244.72 270.12 244.8 Q 272.59998 242.72 275.87997 241.4 Q 279.15997 240.08 281.8 240.08 Q 285.87997 240.08 289.12 242.16 Q 292.36 244.23999 294.28 247.8 Q 296.19998 251.36 296.19998 255.84 Q 296.19998 261.28 293.96 265.47998 Q 291.71997 269.68 287.75998 272 Q 283.8 274.32 278.52 274.32 Z M 280.36 271.84 Q 283.4 271.84 285.59998 269.96 Q 287.8 268.08002 289 264.84 Q 290.19998 261.59998 290.19998 257.59998 Q 290.19998 254.48 289.03998 251.2 Q 287.87997 247.92 285.44 245.68 Q 283 243.44 279.15997 243.44 Q 275.96 243.44 273.56 244.48 Q 271.15997 245.51999 269.4 247.12 L 269.4 262.64 Q 269.4 265.44 270.96 267.52002 Q 272.52 269.59998 275.03998 270.72 Q 277.56 271.84 280.36 271.84 Z " fill="black"/>
    <rect x="339.5" y="116.5" width="2.5" height="87.5" stroke="blue" stroke-width="1" fill="none"/>
    <rect x="339.5" y="116.5" width="2.5" height="87.5" fill="black"/>
    <rect x="339.5" y="104" width="32.5" height="25" stroke="blue" stroke-width="1" fill="none"/>
    <path d="M 339.5 119.9 Q 339.5 113.9 346.1 108.35 Q 352.7 102.8 359.6 102.8 Q 362.4 102.8 364.95 103.5 Q 367.5 104.2 369.8 106.7 Q 372.1 109.2 372.1 113.1 Q 372.1 118.6 365.4 124.4 Q 358.7 130.2 352 130.2 Q 349.2 130.2 346.65 129.5 Q 344.1 128.8 341.8 126.3 Q 339.5 123.8 339.5 119.9 Z " fill="black"/>
    <ellipse cx="344.5" cy="262.5" rx="5" ry="5" stroke="gray" stroke-width="1" fill="none"/>
    <rect x="399.5" y="79" width="2.5" height="87.5" stroke="blue" stroke-width="1" fill="none"/>
    <rect x="399.5" y="79" width="2.5" height="87.5" fill="black"/>
    <rect x="399.5" y="66.5" width="32.5" height="25" stroke="blue" stroke-width="1" fill="none"/>
    <path d="M 399.5 82.4 Q 399.5 76.4 406.1 70.85 Q 412.7 65.3 419.6 65.3 Q 422.4 65.3 424.95 66 Q 427.5 66.7 429.8 69.2 Q 432.1 71.7 432.1 75.6 Q 432.1 81.1 425.4 86.9 Q 418.7 92.7 412 92.7 Q 409.2 92.7 406.65 92 Q 404.1 91.3 401.8 88.8 Q 399.5 86.3 399.5 82.4 Z " fill="black"/>
    <ellipse cx="404.5" cy="262.5" rx="5" ry="5" stroke="gray" stroke-width="1" fill="none"/>
    <rect x="492.5" y="91.5" width="2.5" height="100" stroke="blue" stroke-width="1" fill="none"/>
    <rect x="492.5" y="91.5" width="2.5" height="100" fill="black"/>
    <rect x="492.5" y="79" width="32.5" height="25" stroke="blue" stroke-width="1" fill="none"/>
    <path d="M 492.5 94.9 Q 492.5 88.9 499.1 83.35 Q 505.7 77.8 512.6 77.8 Q 515.4 77.8 517.95 78.5 Q 520.5 79.2 522.8 81.7 Q 525.1 84.2 525.1 88.1 Q 525.1 93.6 518.4 99.4 Q 511.7 105.2 505 105.2 Q 502.2 105.2 499.65 104.5 Q 497.1 103.8 494.8 101.3 Q 492.5 98.8 492.5 94.9 Z " fill="black"/>
    <rect x="460" y="91.5" width="32.5" height="25" stroke="blue" stroke-width="1" fill="none"/>
    <path d="M 460 107.4 Q 460 101.4 466.6 95.85 Q 473.2 90.3 480.1 90.3 Q 482.9 90.3 485.45 91 Q 488 91.7 490.3 94.2 Q 492.6 96.7 492.6 100.6 Q 492.6 106.1 485.9 111.9 Q 479.2 117.7 472.5 117.7 Q 469.7 117.7 467.15 117 Q 464.6 116.3 462.3 113.8 Q 460 111.3 460 107.4 Z " fill="black"/>
    <rect x="432.5" y="54" width="27.5" height="75" stroke="blue" stroke-width="1" fill="none"/>
    <path d="M 437.1 112.6 Q 437.1 113.8 438.1 114.2 Q 439.3 114.7 440.1 113.9 Q 446.7 107.9 446.7 100.3 Q 446.7 97.6 445.55 95.6 Q 444.4 93.6 442.4 93.6 Q 440.2 93.6 438.8 95.5 Q 437.4 97.4 437.3 99.9 L 437.1 112.6 Z M 439.9 90.5 Q 444.1 88.4 446.8 88.4 Q 450.6 88.4 452.9 91.4 Q 455.2 94.4 455.2 98.6 Q 455.2 101.5 454.35 103.85 Q 453.5 106.2 451.7 108.15 Q 449.9 110.1 448.35 111.4 Q 446.8 112.7 444.3 114.55 Q 441.8 116.4 440.5 117.5 Q 440 117.9 439.2 119 Q 438.4 120.1 437.65 120.7 Q 436.9 121.3 436 121.3 Q 435 121.3 434.35 120.6 Q 433.7 119.9 433.7 118.8 L 432.5 58.3 Q 433.8 57.5 435.2 57.5 Q 436.6 57.5 437.9 58.3 L 437.3 88.9 Q 437.3 89.9 438.1 90.4 Q 439 91 439.9 90.5 Z " fill="black"/>
    <ellipse cx="497.5" cy="262.5" rx="5" ry="5" stroke="gray" stroke-width="1" fill="none"/>
    <rect x="567.5" y="129" width="2.5" height="87.5" stroke="blue" stroke-width="1" fill="none"/>
    <rect x="567.5" y="129" width="2.5" height="87.5" fill="black"/>
    <rect x="567.5" y="116.5" width="32.5" height="25" stroke="blue" stroke-width="1" fill="none"/>
    <path d="M 567.5 132.4 Q 567.5 126.4 574.1 120.85 Q 580.7 115.3 587.6 115.3 Q 590.4 115.3 592.95 116 Q 595.5 116.7 597.8 119.2 Q 600.1 121.7 600.1 125.6 Q 600.1 131.1 593.4 136.9 Q 586.7 142.7 580 142.7 Q 577.2 142.7 574.65 142 Q 572.1 141.3 569.8 138.8 Q 567.5 136.3 567.5 132.4 Z " fill="black"/>
    <rect x="537.5" y="91.5" width="30.000002" height="75" stroke="blue" stroke-width="1" fill="none"/>
    <path d="M 559.1 119.4 L 559.1 131.6 Q 559.1 132.4 559.6 132.9 Q 560.1 133.4 560.9 133.4 Q 561.2 133.4 561.5 133.3 L 562.3 133 Q 562.6 132.9 563 132.9 Q 563.8 132.9 564.4 133.5 Q 565 134.1 565 134.9 L 565 140.9 Q 565 142.2 563.7 142.7 L 560.3 144 Q 559.1 144.5 559.1 145.6 L 559.1 160.2 Q 559.1 161 558.55 161.55 Q 558 162.1 557.3 162.1 Q 556.5 162.1 555.95 161.55 Q 555.4 161 555.4 160.2 L 555.4 148.3 Q 555.4 147.5 554.85 147 Q 554.3 146.5 553.6 146.5 Q 553.2 146.5 552.9 146.6 L 548.3 148.4 Q 547.1 148.8 547.1 150 L 547.1 164.6 Q 547.1 165.4 546.5 165.95 Q 545.9 166.5 545.2 166.5 Q 544.5 166.5 543.95 165.95 Q 543.4 165.4 543.4 164.6 L 543.4 152.7 Q 543.4 151.9 542.85 151.4 Q 542.3 150.9 541.6 150.9 Q 541.3 150.9 541 151 L 540.2 151.3 Q 540 151.4 539.5 151.4 Q 538.7 151.4 538.1 150.8 Q 537.5 150.2 537.5 149.4 L 537.5 143.4 Q 537.5 142 538.8 141.5 L 542.2 140.3 Q 543.4 140 543.4 138.6 L 543.4 126.4 Q 543.4 125.6 542.85 125.1 Q 542.3 124.6 541.6 124.6 Q 541.3 124.6 541.1 124.7 L 540.2 125 Q 540 125.1 539.5 125.1 Q 538.7 125.1 538.1 124.5 Q 537.5 123.9 537.5 123.1 L 537.5 117.1 Q 537.5 115.8 538.8 115.3 L 542.3 114 Q 543.4 113.5 543.4 112.4 L 543.4 97.8 Q 543.4 97 543.95 96.45 Q 544.5 95.899994 545.2 95.899994 Q 545.9 95.899994 546.5 96.45 Q 547.1 97 547.1 97.8 L 547.1 109.7 Q 547.1 110.5 547.65 111 Q 548.2 111.5 549 111.5 Q 549.3 111.5 549.6 111.4 L 554.2 109.6 Q 555.4 109.1 555.4 107.9 L 555.4 93.399994 Q 555.4 92.6 555.95 92.05 Q 556.5 91.5 557.3 91.5 Q 558 91.5 558.55 92.05 Q 559.1 92.6 559.1 93.399994 L 559.1 105.4 Q 559.1 106.1 559.6 106.6 Q 560.1 107.1 560.8 107.1 Q 561.1 107.1 561.5 107 L 562.3 106.7 Q 562.5 106.6 563 106.6 Q 563.8 106.6 564.4 107.2 Q 565 107.8 565 108.6 L 565 114.6 Q 565 116 563.7 116.5 L 560.3 117.7 Q 559.1 118 559.1 119.4 Z M 555.4 134.2 L 555.4 122.1 Q 555.4 121.4 554.85 120.85 Q 554.3 120.3 553.6 120.3 Q 553.3 120.3 553 120.4 L 548.3 122.1 Q 547.1 122.6 547.1 123.8 L 547.1 135.9 Q 547.1 136.7 547.6 137.2 Q 548.1 137.7 548.9 137.7 Q 549.2 137.7 549.5 137.6 L 554.2 135.9 Q 555.4 135.4 555.4 134.2 Z " fill="black"/>
    <ellipse cx="572.5" cy="262.5" rx="5" ry="5" stroke="gray" stroke-width="1" fill="none"/>
    <rect x="642.5" y="111.5" width="10" height="10" stroke="orange" stroke-width="1" fill="none"/>
    <path d="M 642.5 167.7 L 642.5 165.2 L 742.5 165.2 L 742.5 167.7 L 642.5 167.7 Z M 642.5 142.7 L 642.5 140.2 L 742.5 140.2 L 742.5 142.7 L 642.5 142.7 Z M 642.5 117.7 L 642.5 115.2 L 742.5 115.2 L 742.5 117.7 L 642.5 117.7 Z M 642.5 92.7 L 642.5 90.2 L 742.5 90.2 L 742.5 92.7 L 642.5 92.7 Z M 642.5 67.7 L 642.5 65.2 L 742.5 65.2 L 742.5 67.7 L 642.5 67.7 Z " fill="orange"/>
    <rect x="642.5" y="252.5" width="10" height="10" stroke="orange" stroke-width="1" fill="none"/>
    <path d="M 642.5 308.7 L 642.5 306.2 L 742.5 306.2 L 742.5 308.7 L 642.5 308.7 Z M 642.5 283.7 L 642.5 281.2 L 742.5 281.2 L 742.5 283.7 L 642.5 283.7 Z M 642.5 258.7 L 642.5 256.2 L 742.5 256.2 L 742.5 258.7 L 642.5 258.7 Z M 642.5 233.7 L 642.5 231.2 L 742.5 231.2 L 742.5 233.7 L 642.5 233.7 Z M 642.5 208.7 L 642.5 206.2 L 742.5 206.2 L 742.5 208.7 L 642.5 208.7 Z " fill="orange"/>
    <rect x="0" y="0" width="742.5" height="308.7" stroke="black" stroke-width="1" fill="none"/>
</svg>
