<svg xmlns="http://www.w3.org/2000/svg" xmlns:xlink="http://www.w3.org/1999/xlink" viewBox="0 0 201.5 342">
    <line x1="1.25" y1="66.5" x2="200.25" y2="66.5" stroke="black" stroke-width="2.5"/>
    <line x1="1.25" y1="91.5" x2="200.25" y2="91.5" stroke="black" stroke-width="2.5"/>
    <line x1="1.25" y1="116.5" x2="200.25" y2="116.5" stroke="black" stroke-width="2.5"/>
    <line x1="1.25" y1="141.5" x2="200.25" y2="141.5" stroke="black" stroke-width="2.5"/>
    <line x1="1.25" y1="166.5" x2="200.25" y2="166.5" stroke="black" stroke-width="2.5"/>
    <line x1="1.25" y1="216.5" x2="200.25" y2="216.5" stroke="black" stroke-width="2.5"/>
    <line x1="1.25" y1="241.5" x2="200.25" y2="241.5" stroke="black" stroke-width="2.5"/>
    <line x1="1.25" y1="266.5" x2="200.25" y2="266.5" stroke="black" stroke-width="2.5"/>
    <line x1="1.25" y1="291.5" x2="200.25" y2="291.5" stroke="black" stroke-width="2.5"/>
    <line x1="1.25" y1="316.5" x2="200.25" y2="316.5" stroke="black" stroke-width="2.5"/>
    <rect x="1.25" y="41.5" width="10" height="150" stroke="orange" stroke-width="1" fill="none"/>
    <rect x="1.25" y="191.5" width="10" height="150" stroke="orange" stroke-width="1" fill="none"/>
    <rect x="11.25" y="0.5" width="74" height="186" stroke="orange" stroke-width="1" fill="none"/>
    <path d="M 36.050003 59 Q 33.75 51.699997 32.85 46 Q 32.050003 41.199997 32.050003 34.799995 Q 32.050003 32.6 32.15 30.400002 Q 32.550003 20.900002 36.050003 12.949997 Q 39.550003 5 46.55 0.7999954 Q 47.05 0.5 47.850002 0.5 Q 48.55 0.5 49.05 1 Q 54.65 6.5999985 57.65 15.299995 Q 60.65 24 60.65 32.9 Q 60.65 43.199997 56.25 53.1 Q 52.05 63 44.45 70.6 Q 43.850002 71.2 44.05 72.2 L 48.05 88.2 Q 48.350002 89.8 50.05 89.6 Q 51.65 89.4 53.15 89.4 Q 58.95 89.4 63.65 91.7 Q 68.350006 94 71.25 97.7 Q 74.15 101.4 75.700005 105.85 Q 77.25 110.3 77.25 115 Q 77.25 123.6 72.45 130.55 Q 67.65 137.5 60.95 139.7 Q 59.55 140.2 59.850002 141.8 Q 62.350002 153.6 62.45 161.7 Q 62.45 164.8 62.05 167.8 Q 61.25 174.7 56.05 179.9 Q 50.850002 185.1 43.65 185.1 Q 34.85 185.1 28.75 179.8 Q 22.650002 174.5 22.650002 165.9 Q 22.650002 161.5 25.75 158.3 Q 28.85 155.1 33.050003 155.1 Q 37.35 155.1 40.300003 158.15 Q 43.25 161.2 43.25 165.4 Q 43.25 169 40.85 171.7 Q 38.45 174.5 35.050003 174.8 Q 33.85 174.9 33.45 176 Q 33.050003 177.1 34.25 178 Q 37.85 180.8 43.050003 180.8 Q 48.75 180.8 52.9 176.7 Q 57.05 172.6 57.75 167.4 Q 58.25 163.8 58.25 160.2 Q 58.25 152.4 55.850002 142.9 Q 55.45 141.2 53.65 141.4 Q 49.65 141.9 46.25 141.9 Q 31.45 141.9 21.35 132.6 Q 11.25 123.3 11.25 107.3 Q 11.25 102.4 12.4 97.65 Q 13.55 92.9 15 89.45 Q 16.45 86 19.5 81.45 Q 22.55 76.899994 24.400002 74.5 Q 26.25 72.1 30.25 67.35 Q 34.25 62.6 35.75 60.7 Q 36.35 60 36.050003 59 Z M 51.65 104.7 L 58.15 134.2 Q 58.45 135.5 59.95 135.5 Q 60.350002 135.5 60.65 135.4 Q 64.75 133.7 67.45 128.8 Q 70.15 123.9 70.15 119.1 Q 70.15 112.1 66.05 107.3 Q 61.850002 102.4 53.45 102.4 Q 52.75 102.4 52.2 102.95 Q 51.65 103.5 51.65 104.2 Q 51.55 104.5 51.65 104.7 Z M 37.85 76.899994 Q 36.25 78.7 33.1 82.05 Q 29.95 85.4 28.4 87.15 Q 26.85 88.9 24.6 92.1 Q 22.35 95.3 21.25 98 Q 20.150002 100.7 19.3 104.6 Q 18.45 108.5 18.45 112.9 Q 18.45 119 22.2 124.7 Q 25.95 130.4 32.5 134 Q 39.050003 137.6 46.55 137.6 Q 49.25 137.6 52.55 137.3 Q 53.350002 137.2 53.850002 136.55 Q 54.350002 135.9 54.15 135.1 L 47.65 105.2 Q 47.350002 103.8 45.75 103.8 Q 45.45 103.8 45.05 103.9 Q 40.45 105.6 38.550003 108.7 Q 36.65 111.8 36.65 116.5 Q 36.65 122 42.65 126 Q 43.350002 126.5 43.350002 127.5 Q 43.350002 128.3 42.7 129 Q 42.050003 129.7 41.15 129.7 Q 40.65 129.7 40.25 129.5 Q 34.550003 126.5 31.800001 121.35 Q 29.050001 116.2 29.050001 110.5 Q 29.050001 105 33 99.15 Q 36.95 93.3 42.85 91.1 Q 44.350002 90.5 44.05 89 L 41.050003 77.7 Q 40.85 76.6 39.65 76.399994 Q 38.45 76.2 37.85 76.899994 Z M 54.65 18.699997 Q 53.850002 16.099998 51.95 16.099998 Q 51.350002 16.099998 50.850002 16.400002 Q 44.45 20.199997 40.7 27.099998 Q 36.95 34 36.95 41.699997 Q 36.95 46.699997 39.050003 54 Q 39.35 55.1 40.550003 55.3 Q 41.550003 55.399998 42.25 54.6 Q 42.550003 54.2 45.100002 51.049995 Q 47.65 47.9 48.45 46.85 Q 49.25 45.799995 51.15 42.85 Q 53.05 39.9 53.8 37.949997 Q 54.55 36 55.25 33.1 Q 55.95 30.199997 55.95 27.299995 Q 55.95 23.099998 54.65 18.699997 Z " fill="black"/>
    <rect x="11.25" y="216.5" width="74" height="84" stroke="orange" stroke-width="1" fill="none"/>
    <path d="M 68.25 254 Q 68.25 251.9 69.75 250.4 Q 71.25 248.9 73.350006 248.9 Q 75.450005 248.9 76.950005 250.4 Q 78.450005 251.9 78.450005 254 Q 78.450005 256.1 76.950005 257.6 Q 75.450005 259.1 73.350006 259.1 Q 71.25 259.1 69.75 257.6 Q 68.25 256.1 68.25 254 Z M 68.25 229 Q 68.25 226.9 69.75 225.4 Q 71.25 223.9 73.350006 223.9 Q 75.450005 223.9 76.950005 225.4 Q 78.450005 226.9 78.450005 229 Q 78.450005 231.1 76.950005 232.6 Q 75.450005 234.1 73.350006 234.1 Q 71.25 234.1 69.75 232.6 Q 68.25 231.1 68.25 229 Z M 23.45 229.6 Q 27.95 229.6 30.85 232.5 Q 33.75 235.4 33.75 239.6 Q 33.75 244 30.85 247.1 Q 27.95 250.2 23.75 250.2 Q 19.25 250.2 15.9 247.1 Q 12.55 244 12.55 239.6 Q 12.55 228.8 19.75 222 Q 26.95 215.2 37.65 215.2 Q 49.75 215.2 57.4 222.15 Q 65.05 229.1 65.05 240.3 Q 65.05 275.7 13.65 298.4 Q 12.95 298.7 12.55 298.7 Q 11.25 298.7 11.25 297.4 Q 11.25 296.7 12.55 295.9 Q 20.55 291.2 25.8 287.6 Q 31.050001 284 36.65 278.9 Q 42.25 273.8 45.45 268.65 Q 48.65 263.5 50.75 256.5 Q 52.850002 249.5 52.850002 241.3 Q 52.850002 230.9 48.3 224.6 Q 43.75 218.3 35.85 218.3 Q 31.050001 218.3 27.150002 220.55 Q 23.25 222.8 21.75 226.7 Q 21.35 228 21.85 228.7 Q 22.55 229.6 23.45 229.6 Z " fill="black"/>
    <path d="M 85.25 144.9 Q 85.25 138.9 91.85 133.35 Q 98.45 127.8 105.35 127.8 Q 108.15 127.8 110.7 128.5 Q 113.25 129.2 115.55 131.7 Q 117.850006 134.2 117.850006 138.1 Q 117.850006 143.6 111.15 149.4 Q 104.45 155.2 97.75 155.2 Q 94.95 155.2 92.4 154.5 Q 89.85 153.8 87.55 151.3 Q 85.25 148.8 85.25 144.9 Z " fill="black"/>
    <path d="M 85.25 244.9 Q 85.25 238.9 91.85 233.35 Q 98.45 227.8 105.35 227.8 Q 108.15 227.8 110.7 228.5 Q 113.25 229.2 115.55 231.7 Q 117.850006 234.2 117.850006 238.1 Q 117.850006 243.6 111.15 249.4 Q 104.45 255.2 97.75 255.2 Q 94.95 255.2 92.4 254.5 Q 89.85 253.8 87.55 251.3 Q 85.25 248.8 85.25 244.9 Z " fill="black"/>
    <rect x="190.25" y="41.5" width="10" height="150" stroke="orange" stroke-width="1" fill="none"/>
    <rect x="190.25" y="191.5" width="10" height="150" stroke="orange" stroke-width="1" fill="none"/>
    <line x1="116.25" y1="52.214287" x2="116.25" y2="137.5" stroke="black" stroke-width="3"/>
    <line x1="86.75" y1="245.5" x2="86.75" y2="330.7857" stroke="black" stroke-width="3"/>
    <rect x="0" y="0" width="201.5" height="342" stroke="black" stroke-width="1" fill="none"/>
</svg>
