<svg xmlns="http://www.w3.org/2000/svg" xmlns:xlink="http://www.w3.org/1999/xlink" viewBox="0 0 311 294">
    <rect x="0.5" y="148" width="10" height="10" stroke="orange" stroke-width="1" fill="none"/>
    <rect x="0.5" y="78" width="32.5" height="25" stroke="lightgray" stroke-width="1" fill="none"/>
    <path d="M 0.5 93.9 Q 0.5 87.9 7.1 82.35 Q 13.7 76.8 20.6 76.8 Q 23.4 76.8 25.95 77.5 Q 28.5 78.2 30.800001 80.7 Q 33.100002 83.2 33.100002 87.1 Q 33.100002 92.6 26.4 98.4 Q 19.7 104.2 13 104.2 Q 10.2 104.2 7.65 103.5 Q 5.1 102.8 2.8 100.3 Q 0.5 97.8 0.5 93.9 Z " fill="black"/>
    <rect x="0.5" y="190.5" width="32.5" height="25" stroke="lightgray" stroke-width="1" fill="none"/>
    <path d="M 0.5 206.4 Q 0.5 200.4 7.1 194.85 Q 13.7 189.3 20.6 189.3 Q 23.4 189.3 25.95 190 Q 28.5 190.7 30.800001 193.2 Q 33.100002 195.7 33.100002 199.6 Q 33.100002 205.1 26.4 210.9 Q 19.7 216.7 13 216.7 Q 10.2 216.7 7.65 216 Q 5.1 215.3 2.8 212.8 Q 0.5 210.3 0.5 206.4 Z " fill="black"/>
    <rect x="30" y="0.5" width="3" height="90" stroke="lightgray" stroke-width="1" fill="none"/>
    <rect x="30" y="0.5" width="3" height="90" fill="black"/>
    <rect x="0.5" y="203" width="3" height="90" stroke="lightgray" stroke-width="1" fill="none"/>
    <rect x="0.5" y="203" width="3" height="90" fill="black"/>
    <rect x="75.5" y="115.5" width="32.5" height="25" stroke="lightgray" stroke-width="1" fill="none"/>
    <path d="M 75.5 131.4 Q 75.5 125.4 82.1 119.85 Q 88.7 114.3 95.6 114.3 Q 98.4 114.3 100.95 115 Q 103.5 115.7 105.8 118.2 Q 108.100006 120.7 108.100006 124.6 Q 108.100006 130.1 101.4 135.9 Q 94.7 141.7 88 141.7 Q 85.2 141.7 82.65 141 Q 80.1 140.3 77.8 137.8 Q 75.5 135.3 75.5 131.4 Z " fill="black"/>
    <rect x="75.5" y="128" width="3" height="140" stroke="lightgray" stroke-width="1" fill="none"/>
    <rect x="75.5" y="128" width="3" height="140" fill="black"/>
    <rect x="150.5" y="78" width="32.5" height="25" stroke="lightgray" stroke-width="1" fill="none"/>
    <path d="M 150.5 93.9 Q 150.5 87.9 157.1 82.35 Q 163.7 76.8 170.6 76.8 Q 173.4 76.8 175.95 77.5 Q 178.5 78.2 180.8 80.7 Q 183.1 83.2 183.1 87.1 Q 183.1 92.6 176.4 98.4 Q 169.7 104.2 163 104.2 Q 160.2 104.2 157.65 103.5 Q 155.1 102.8 152.8 100.3 Q 150.5 97.8 150.5 93.9 Z " fill="black"/>
    <rect x="150.5" y="115.5" width="32.5" height="25" stroke="lightgray" stroke-width="1" fill="none"/>
    <path d="M 150.5 131.4 Q 150.5 125.4 157.1 119.85 Q 163.7 114.3 170.6 114.3 Q 173.4 114.3 175.95 115 Q 178.5 115.7 180.8 118.2 Q 183.1 120.7 183.1 124.6 Q 183.1 130.1 176.4 135.9 Q 169.7 141.7 163 141.7 Q 160.2 141.7 157.65 141 Q 155.1 140.3 152.8 137.8 Q 150.5 135.3 150.5 131.4 Z " fill="black"/>
    <rect x="180" y="0.5" width="3" height="90" stroke="lightgray" stroke-width="1" fill="none"/>
    <rect x="180" y="0.5" width="3" height="90" fill="black"/>
    <rect x="150.5" y="128" width="3" height="127.5" stroke="lightgray" stroke-width="1" fill="none"/>
    <rect x="150.5" y="128" width="3" height="127.5" fill="black"/>
    <rect x="225.5" y="178" width="32.5" height="25" stroke="lightgray" stroke-width="1" fill="none"/>
    <path d="M 225.5 193.9 Q 225.5 187.9 232.1 182.35 Q 238.7 176.8 245.6 176.8 Q 248.4 176.8 250.95 177.5 Q 253.5 178.2 255.8 180.7 Q 258.1 183.2 258.1 187.1 Q 258.1 192.6 251.4 198.4 Q 244.7 204.2 238 204.2 Q 235.2 204.2 232.65 203.5 Q 230.1 202.8 227.8 200.3 Q 225.5 197.8 225.5 193.9 Z " fill="black"/>
    <rect x="225.5" y="190.5" width="3" height="90" stroke="lightgray" stroke-width="1" fill="none"/>
    <rect x="225.5" y="190.5" width="3" height="90" fill="black"/>
    <rect x="300.5" y="148" width="10" height="10" stroke="orange" stroke-width="1" fill="none"/>
    <path d="M 0.5 281 L 78.5 256 L 78.5 269 L 0.5 294 Z " fill="black"/>
    <path d="M 150.5 243.5 L 228.5 268.5 L 228.5 281.5 L 150.5 256.5 Z " fill="black"/>
    <rect x="0" y="0" width="311" height="294" stroke="black" stroke-width="1" fill="none"/>
</svg>
