<svg xmlns="http://www.w3.org/2000/svg" xmlns:xlink="http://www.w3.org/1999/xlink" viewBox="0 0 729 350.2">
    <rect x="0.5" y="123" width="10" height="10" stroke="orange" stroke-width="1" fill="none"/>
    <rect x="0.5" y="304" width="10" height="10" stroke="orange" stroke-width="1" fill="none"/>
    <rect x="10.5" y="12" width="74" height="186" stroke="orange" stroke-width="1" fill="none"/>
    <path d="M 35.300003 70.5 Q 33 63.199997 32.1 57.5 Q 31.300001 52.699997 31.300001 46.299995 Q 31.300001 44.1 31.4 41.9 Q 31.800001 32.4 35.300003 24.449997 Q 38.800003 16.5 45.8 12.299995 Q 46.3 12 47.100002 12 Q 47.8 12 48.3 12.5 Q 53.9 18.099998 56.9 26.799995 Q 59.9 35.5 59.9 44.4 Q 59.9 54.699997 55.5 64.6 Q 51.3 74.5 43.7 82.1 Q 43.100002 82.7 43.3 83.7 L 47.3 99.7 Q 47.600002 101.3 49.3 101.1 Q 50.9 100.9 52.4 100.9 Q 58.2 100.9 62.9 103.2 Q 67.600006 105.5 70.5 109.2 Q 73.4 112.9 74.950005 117.35 Q 76.5 121.8 76.5 126.5 Q 76.5 135.1 71.7 142.05 Q 66.9 149 60.2 151.2 Q 58.8 151.7 59.100002 153.3 Q 61.600002 165.1 61.7 173.2 Q 61.7 176.3 61.3 179.3 Q 60.5 186.2 55.3 191.4 Q 50.100002 196.6 42.9 196.6 Q 34.1 196.6 28 191.3 Q 21.900002 186 21.900002 177.4 Q 21.900002 173 25 169.8 Q 28.1 166.6 32.300003 166.6 Q 36.6 166.6 39.550003 169.65 Q 42.5 172.7 42.5 176.9 Q 42.5 180.5 40.1 183.2 Q 37.7 186 34.300003 186.3 Q 33.1 186.4 32.7 187.5 Q 32.300003 188.6 33.5 189.5 Q 37.1 192.3 42.300003 192.3 Q 48 192.3 52.15 188.2 Q 56.3 184.1 57 178.9 Q 57.5 175.3 57.5 171.7 Q 57.5 163.9 55.100002 154.4 Q 54.7 152.7 52.9 152.9 Q 48.9 153.4 45.5 153.4 Q 30.7 153.4 20.6 144.1 Q 10.5 134.8 10.5 118.8 Q 10.5 113.9 11.65 109.15 Q 12.8 104.4 14.25 100.95 Q 15.700001 97.5 18.75 92.95 Q 21.8 88.399994 23.650002 86 Q 25.5 83.6 29.5 78.85 Q 33.5 74.1 35 72.2 Q 35.6 71.5 35.300003 70.5 Z M 50.9 116.2 L 57.4 145.7 Q 57.7 147 59.2 147 Q 59.600002 147 59.9 146.9 Q 64 145.2 66.7 140.3 Q 69.4 135.4 69.4 130.6 Q 69.4 123.6 65.3 118.8 Q 61.100002 113.9 52.7 113.9 Q 52 113.9 51.45 114.45 Q 50.9 115 50.9 115.7 Q 50.8 116 50.9 116.2 Z M 37.1 88.399994 Q 35.5 90.2 32.35 93.55 Q 29.2 96.9 27.65 98.65 Q 26.1 100.4 23.85 103.6 Q 21.6 106.8 20.5 109.5 Q 19.400002 112.2 18.55 116.1 Q 17.7 120 17.7 124.4 Q 17.7 130.5 21.45 136.2 Q 25.2 141.9 31.75 145.5 Q 38.300003 149.1 45.8 149.1 Q 48.5 149.1 51.8 148.8 Q 52.600002 148.7 53.100002 148.05 Q 53.600002 147.4 53.4 146.6 L 46.9 116.7 Q 46.600002 115.3 45 115.3 Q 44.7 115.3 44.3 115.4 Q 39.7 117.1 37.800003 120.2 Q 35.9 123.3 35.9 128 Q 35.9 133.5 41.9 137.5 Q 42.600002 138 42.600002 139 Q 42.600002 139.8 41.95 140.5 Q 41.300003 141.2 40.4 141.2 Q 39.9 141.2 39.5 141 Q 33.800003 138 31.050001 132.85 Q 28.300001 127.7 28.300001 122 Q 28.300001 116.5 32.25 110.65 Q 36.2 104.8 42.1 102.6 Q 43.600002 102 43.3 100.5 L 40.300003 89.2 Q 40.1 88.1 38.9 87.899994 Q 37.7 87.7 37.1 88.399994 Z M 53.9 30.199997 Q 53.100002 27.599998 51.2 27.599998 Q 50.600002 27.599998 50.100002 27.900002 Q 43.7 31.699997 39.95 38.6 Q 36.2 45.5 36.2 53.199997 Q 36.2 58.199997 38.300003 65.5 Q 38.6 66.6 39.800003 66.8 Q 40.800003 66.899994 41.5 66.1 Q 41.800003 65.7 44.350002 62.549995 Q 46.9 59.4 47.7 58.35 Q 48.5 57.299995 50.4 54.35 Q 52.3 51.4 53.05 49.449997 Q 53.8 47.5 54.5 44.6 Q 55.2 41.699997 55.2 38.799995 Q 55.2 34.6 53.9 30.199997 Z " fill="black"/>
    <ellipse cx="15.5" cy="314" rx="5" ry="5" stroke="gray" stroke-width="1" fill="none"/>
    <rect x="84.5" y="103" width="32.5" height="25" stroke="lightgray" stroke-width="1" fill="none"/>
    <path d="M 84.5 118.9 Q 84.5 112.9 91.1 107.35 Q 97.7 101.8 104.6 101.8 Q 107.4 101.8 109.95 102.5 Q 112.5 103.2 114.8 105.7 Q 117.100006 108.2 117.100006 112.1 Q 117.100006 117.6 110.4 123.4 Q 103.7 129.2 97 129.2 Q 94.2 129.2 91.65 128.5 Q 89.1 127.8 86.8 125.3 Q 84.5 122.8 84.5 118.9 Z " fill="black"/>
    <rect x="84.5" y="143" width="25" height="70" stroke="lightgray" stroke-width="1" fill="none"/>
    <path d="M 95 188.4 Q 95.7 188.4 96.15 187.95 Q 96.6 187.5 96.6 186.9 Q 96.6 186.3 96.2 185.9 L 89 177.8 Q 86 174.4 86 171.5 Q 86 169 93.1 162.8 Q 96.8 159.5 96.8 154.5 Q 96.8 150.6 94.3 147.6 L 90.8 143.4 Q 90.4 142.9 90.4 142.4 Q 90.4 140.9 91.8 140.9 Q 92.7 140.9 93.3 141.6 L 108.3 159.4 Q 109.3 160.6 109.3 161.9 Q 109.3 163 108.5 164.2 Q 107.7 165.4 106.8 166.25 Q 105.9 167.1 104.15 168.55 Q 102.4 170 101.7 170.7 Q 97.5 174.6 97.5 179.3 Q 97.5 182.9 101.6 187.3 L 110 196.4 Q 110.4 196.8 110.4 197.4 Q 110.4 198 109.95 198.45 Q 109.5 198.9 109 198.9 Q 108.3 198.9 106.9 197.8 Q 103.2 195 99 195 Q 96.1 195 93.95 197.25 Q 91.8 199.5 91.8 202.4 Q 91.8 203.7 92 204.75 Q 92.2 205.8 92.75 206.9 Q 93.3 208 93.5 208.4 Q 93.7 208.8 94.6 210.05 Q 95.5 211.3 95.6 211.4 Q 95.9 211.8 95.8 212.3 Q 95.7 212.8 95.25 213.05 Q 94.8 213.3 94.3 213.2 Q 93.8 213.1 93 212.3 Q 89.6 208.8 87.05 204.45 Q 84.5 200.1 84.5 196.9 Q 84.5 193 87.25 190.7 Q 90 188.4 95 188.4 Z " fill="black"/>
    <rect x="114" y="25.5" width="3" height="90" stroke="lightgray" stroke-width="1" fill="none"/>
    <rect x="114" y="25.5" width="3" height="90" fill="black"/>
    <rect x="65.159996" y="268.3" width="31.84" height="81.399994" stroke="lightgray" stroke-width="1" fill="none"/>
    <path d="M 74.52 325.82 Q 73.079994 325.82 71.6 324.7 Q 70.119995 323.58002 69.119995 321.97998 Q 68.119995 320.38 68.119995 318.94 Q 68.119995 316.38 69.479996 314.94 Q 70.84 313.5 73.799995 312.3 L 81.95999 308.94 Q 83.56 308.3 83.84 307.82 Q 84.119995 307.34 84.2 305.74 L 84.35999 300.62 Q 84.439995 298.53998 83.2 297.02 Q 81.95999 295.5 79.64 295.5 Q 78.439995 295.5 77.24 295.9 Q 76.03999 296.3 75.24 296.94 Q 74.759995 297.26 74.6 297.9 Q 74.439995 298.53998 74.439995 299.26 Q 74.439995 299.58002 74.479996 299.97998 Q 74.52 300.38 74.52 300.7 Q 74.52 301.09998 73.52 301.78 Q 72.52 302.46 71.28 302.97998 Q 70.03999 303.5 69.24 303.5 Q 68.84 303.5 68.6 303.3 Q 68.35999 303.09998 68.35999 302.78 Q 68.35999 301.5 69.2 300.02 Q 70.03999 298.53998 71.56 297.26 Q 73.399994 295.58002 75.56 294.3 Q 77.71999 293.02002 79.799995 292.3 Q 81.88 291.58002 83.479996 291.58002 Q 86.35999 291.58002 88.24 293.62 Q 90.119995 295.66 90.03999 298.7 L 89.64 317.9 Q 89.56 319.58002 90.399994 320.62 Q 91.24 321.66 92.52 321.66 Q 94.52 321.66 95.479996 320.78 Q 95.88 320.38 96.119995 320.38 Q 96.52 320.38 96.759995 320.62 Q 97 320.86 97 321.26 Q 97 322.14 96.119995 323.02002 Q 94.84 324.3 93.35999 325.06 Q 91.88 325.82 90.59999 325.82 Q 86.92 325.82 84.759995 321.66 L 84.52 321.66 Q 81.88 323.82 79.479996 324.82 Q 77.079994 325.82 74.52 325.82 Z M 78.28 321.97998 Q 79.88 321.97998 80.99999 321.46 Q 82.119995 320.94 83 320.06 Q 83.399994 319.66 83.67999 318.97998 Q 83.95999 318.3 84.03999 316.78 L 84.2 312.86 Q 84.28 311.97998 84.119995 311.58002 Q 83.95999 311.18 83.479996 311.18 Q 83.31999 311.18 82.92 311.26 Q 82.52 311.34 81.88 311.58002 Q 77.64 313.09998 76 314.74 Q 74.35999 316.38 74.35999 317.74 Q 74.35999 319.82 75.6 320.9 Q 76.84 321.97998 78.28 321.97998 Z " fill="black"/>
    <rect x="97" y="268.3" width="31.84" height="81.399994" stroke="lightgray" stroke-width="1" fill="none"/>
    <path d="M 106.36 325.82 Q 104.92 325.82 103.44 324.7 Q 101.96 323.58002 100.96 321.97998 Q 99.96 320.38 99.96 318.94 Q 99.96 316.38 101.32 314.94 Q 102.68 313.5 105.64 312.3 L 113.8 308.94 Q 115.4 308.3 115.68 307.82 Q 115.96 307.34 116.04 305.74 L 116.2 300.62 Q 116.28 298.53998 115.04 297.02 Q 113.8 295.5 111.479996 295.5 Q 110.28 295.5 109.08 295.9 Q 107.88 296.3 107.08 296.94 Q 106.6 297.26 106.44 297.9 Q 106.28 298.53998 106.28 299.26 Q 106.28 299.58002 106.32 299.97998 Q 106.36 300.38 106.36 300.7 Q 106.36 301.09998 105.36 301.78 Q 104.36 302.46 103.12 302.97998 Q 101.88 303.5 101.08 303.5 Q 100.68 303.5 100.44 303.3 Q 100.2 303.09998 100.2 302.78 Q 100.2 301.5 101.04 300.02 Q 101.88 298.53998 103.4 297.26 Q 105.24 295.58002 107.4 294.3 Q 109.56 293.02002 111.64 292.3 Q 113.72 291.58002 115.32 291.58002 Q 118.2 291.58002 120.08 293.62 Q 121.96 295.66 121.88 298.7 L 121.479996 317.9 Q 121.4 319.58002 122.24 320.62 Q 123.08 321.66 124.36 321.66 Q 126.36 321.66 127.32 320.78 Q 127.72 320.38 127.96 320.38 Q 128.36 320.38 128.6 320.62 Q 128.84 320.86 128.84 321.26 Q 128.84 322.14 127.96 323.02002 Q 126.68 324.3 125.2 325.06 Q 123.72 325.82 122.44 325.82 Q 118.76 325.82 116.6 321.66 L 116.36 321.66 Q 113.72 323.82 111.32 324.82 Q 108.92 325.82 106.36 325.82 Z M 110.12 321.97998 Q 111.72 321.97998 112.84 321.46 Q 113.96 320.94 114.84 320.06 Q 115.24 319.66 115.520004 318.97998 Q 115.8 318.3 115.88 316.78 L 116.04 312.86 Q 116.119995 311.97998 115.96 311.58002 Q 115.8 311.18 115.32 311.18 Q 115.16 311.18 114.76 311.26 Q 114.36 311.34 113.72 311.58002 Q 109.479996 313.09998 107.84 314.74 Q 106.2 316.38 106.2 317.74 Q 106.2 319.82 107.44 320.9 Q 108.68 321.97998 110.12 321.97998 Z " fill="black"/>
    <rect x="128.84" y="268.3" width="31.84" height="81.399994" stroke="lightgray" stroke-width="1" fill="none"/>
    <path d="M 138.2 325.82 Q 136.76 325.82 135.28 324.7 Q 133.8 323.58002 132.8 321.97998 Q 131.8 320.38 131.8 318.94 Q 131.8 316.38 133.16 314.94 Q 134.51999 313.5 137.48 312.3 L 145.64 308.94 Q 147.23999 308.3 147.51999 307.82 Q 147.79999 307.34 147.87999 305.74 L 148.04 300.62 Q 148.12 298.53998 146.87999 297.02 Q 145.64 295.5 143.31999 295.5 Q 142.12 295.5 140.92 295.9 Q 139.72 296.3 138.92 296.94 Q 138.44 297.26 138.28 297.9 Q 138.12 298.53998 138.12 299.26 Q 138.12 299.58002 138.16 299.97998 Q 138.2 300.38 138.2 300.7 Q 138.2 301.09998 137.2 301.78 Q 136.2 302.46 134.95999 302.97998 Q 133.72 303.5 132.92 303.5 Q 132.51999 303.5 132.28 303.3 Q 132.04 303.09998 132.04 302.78 Q 132.04 301.5 132.87999 300.02 Q 133.72 298.53998 135.23999 297.26 Q 137.08 295.58002 139.23999 294.3 Q 141.4 293.02002 143.48 292.3 Q 145.56 291.58002 147.16 291.58002 Q 150.04 291.58002 151.92 293.62 Q 153.79999 295.66 153.72 298.7 L 153.31999 317.9 Q 153.23999 319.58002 154.08 320.62 Q 154.92 321.66 156.2 321.66 Q 158.2 321.66 159.16 320.78 Q 159.56 320.38 159.79999 320.38 Q 160.2 320.38 160.44 320.62 Q 160.68 320.86 160.68 321.26 Q 160.68 322.14 159.79999 323.02002 Q 158.51999 324.3 157.04 325.06 Q 155.56 325.82 154.28 325.82 Q 150.59999 325.82 148.44 321.66 L 148.2 321.66 Q 145.56 323.82 143.16 324.82 Q 140.76 325.82 138.2 325.82 Z M 141.95999 321.97998 Q 143.56 321.97998 144.68 321.46 Q 145.79999 320.94 146.68 320.06 Q 147.08 319.66 147.36 318.97998 Q 147.64 318.3 147.72 316.78 L 147.87999 312.86 Q 147.95999 311.97998 147.79999 311.58002 Q 147.64 311.18 147.16 311.18 Q 147 311.18 146.59999 311.26 Q 146.2 311.34 145.56 311.58002 Q 141.31999 313.09998 139.68 314.74 Q 138.04 316.38 138.04 317.74 Q 138.04 319.82 139.28 320.9 Q 140.51999 321.97998 141.95999 321.97998 Z " fill="black"/>
    <rect x="189.5" y="153" width="32.5" height="25" stroke="lightgray" stroke-width="1" fill="none"/>
    <path d="M 189.5 168.9 Q 189.5 162.9 196.1 157.35 Q 202.7 151.8 209.6 151.8 Q 212.4 151.8 214.95 152.5 Q 217.5 153.2 219.8 155.7 Q 222.1 158.2 222.1 162.1 Q 222.1 167.6 215.4 173.4 Q 208.7 179.2 202 179.2 Q 199.2 179.2 196.65 178.5 Q 194.1 177.8 191.8 175.3 Q 189.5 172.8 189.5 168.9 Z " fill="black"/>
    <rect x="222" y="165.5" width="33.75" height="25" stroke="lightgray" stroke-width="1" fill="none"/>
    <path d="M 246.9 167.9 Q 244 167.9 234.65 174.45 Q 225.3 181 225.3 184 Q 225.3 186.1 227.1 187.1 Q 228.9 188.1 231.4 188.1 Q 234.3 188.1 243.65 181.55 Q 253 175 253 172 Q 253 169.9 251.2 168.9 Q 249.4 167.9 246.9 167.9 Z M 222 181.8 Q 222 174.6 228.2 169.45 Q 234.4 164.3 243.2 164.3 Q 246.2 164.3 248.8 164.9 Q 251.4 165.5 253.8 167.9 Q 256.2 170.3 256.2 174.2 Q 256.2 181.4 250 186.55 Q 243.8 191.7 235 191.7 Q 232 191.7 229.4 191.1 Q 226.8 190.5 224.4 188.1 Q 222 185.7 222 181.8 Z " fill="black"/>
    <rect x="219" y="50.5" width="3" height="115" stroke="lightgray" stroke-width="1" fill="none"/>
    <rect x="219" y="50.5" width="3" height="115" fill="black"/>
    <rect x="222" y="178" width="3" height="90" stroke="lightgray" stroke-width="1" fill="none"/>
    <rect x="222" y="178" width="3" height="90" fill="black"/>
    <rect x="163.6" y="268.3" width="38.399998" height="81.399994" stroke="lightgray" stroke-width="1" fill="none"/>
    <path d="M 184.32 325.82 Q 182.56 325.82 180.8 325.5 Q 179.04001 325.18 177.44 324.78 Q 175.68001 324.3 174.36 323.9 Q 173.04001 323.5 172.64 323.5 Q 172.16 323.5 171.72 323.82 Q 171.28 324.14 170.88 324.53998 Q 170.48001 324.94 170.16 324.94 Q 169.84001 324.94 169.44 324.66 Q 169.04001 324.38 169.04001 323.97998 Q 169.04001 323.26 169.32 321.5 Q 169.6 319.74 169.6 318.22 L 169.6 279.41998 Q 169.6 277.34 168.56001 275.82 Q 167.52 274.3 165.92001 273.58002 Q 165.6 273.41998 165.24 273.14 Q 164.88 272.86 164.88 272.38 Q 164.88 271.97998 165.20001 271.82 Q 165.52 271.66 165.84001 271.58002 Q 166.88 271.34 168.68001 270.7 Q 170.48001 270.06 172.08 269.41998 Q 173.68001 268.78 174.24 268.53998 Q 174.72 268.3 174.96 268.3 Q 175.12001 268.3 175.28 268.46 Q 175.44 268.62 175.44 268.86 Q 175.44 269.18 175.32 271.53998 Q 175.20001 273.9 175.20001 277.26 L 175.20001 293.66 Q 175.20001 295.18 175.36 295.7 Q 175.52 296.22 175.92001 296.3 Q 178.40001 294.22 181.68001 292.9 Q 184.96 291.58002 187.6 291.58002 Q 191.68001 291.58002 194.92001 293.66 Q 198.16 295.74 200.08 299.3 Q 202 302.86 202 307.34 Q 202 312.78 199.76001 316.97998 Q 197.52 321.18 193.56 323.5 Q 189.6 325.82 184.32 325.82 Z M 186.16 323.34 Q 189.20001 323.34 191.40001 321.46 Q 193.6 319.58002 194.8 316.34 Q 196 313.09998 196 309.09998 Q 196 305.97998 194.84001 302.7 Q 193.68001 299.41998 191.24 297.18 Q 188.8 294.94 184.96 294.94 Q 181.76001 294.94 179.36 295.97998 Q 176.96 297.02 175.20001 298.62 L 175.20001 314.14 Q 175.20001 316.94 176.76001 319.02002 Q 178.32 321.09998 180.84001 322.22 Q 183.36 323.34 186.16 323.34 Z " fill="black"/>
    <rect x="202" y="268.3" width="38.399998" height="81.399994" stroke="lightgray" stroke-width="1" fill="none"/>
    <path d="M 222.72 325.82 Q 220.95999 325.82 219.2 325.5 Q 217.44 325.18 215.84 324.78 Q 214.08 324.3 212.76 323.9 Q 211.44 323.5 211.04 323.5 Q 210.56 323.5 210.12 323.82 Q 209.68 324.14 209.28 324.53998 Q 208.88 324.94 208.56 324.94 Q 208.24 324.94 207.84 324.66 Q 207.44 324.38 207.44 323.97998 Q 207.44 323.26 207.72 321.5 Q 208 319.74 208 318.22 L 208 279.41998 Q 208 277.34 206.96 275.82 Q 205.92 274.3 204.32 273.58002 Q 204 273.41998 203.64 273.14 Q 203.28 272.86 203.28 272.38 Q 203.28 271.97998 203.6 271.82 Q 203.92 271.66 204.24 271.58002 Q 205.28 271.34 207.08 270.7 Q 208.88 270.06 210.48 269.41998 Q 212.08 268.78 212.64 268.53998 Q 213.12 268.3 213.36 268.3 Q 213.52 268.3 213.68 268.46 Q 213.84 268.62 213.84 268.86 Q 213.84 269.18 213.72 271.53998 Q 213.6 273.9 213.6 277.26 L 213.6 293.66 Q 213.6 295.18 213.76 295.7 Q 213.92 296.22 214.32 296.3 Q 216.8 294.22 220.08 292.9 Q 223.36 291.58002 226 291.58002 Q 230.08 291.58002 233.32 293.66 Q 236.56 295.74 238.48 299.3 Q 240.4 302.86 240.4 307.34 Q 240.4 312.78 238.16 316.97998 Q 235.92 321.18 231.95999 323.5 Q 228 325.82 222.72 325.82 Z M 224.56 323.34 Q 227.6 323.34 229.8 321.46 Q 232 319.58002 233.2 316.34 Q 234.4 313.09998 234.4 309.09998 Q 234.4 305.97998 233.24 302.7 Q 232.08 299.41998 229.64 297.18 Q 227.2 294.94 223.36 294.94 Q 220.16 294.94 217.76 295.97998 Q 215.36 297.02 213.6 298.62 L 213.6 314.14 Q 213.6 316.94 215.16 319.02002 Q 216.72 321.09998 219.24 322.22 Q 221.76 323.34 224.56 323.34 Z " fill="black"/>
    <rect x="240.4" y="268.3" width="38.399998" height="81.399994" stroke="lightgray" stroke-width="1" fill="none"/>
    <path d="M 261.12 325.82 Q 259.36 325.82 257.6 325.5 Q 255.84 325.18 254.23999 324.78 Q 252.48 324.3 251.15999 323.9 Q 249.84 323.5 249.43999 323.5 Q 248.95999 323.5 248.51999 323.82 Q 248.07999 324.14 247.68 324.53998 Q 247.28 324.94 246.95999 324.94 Q 246.64 324.94 246.23999 324.66 Q 245.84 324.38 245.84 323.97998 Q 245.84 323.26 246.12 321.5 Q 246.4 319.74 246.4 318.22 L 246.4 279.41998 Q 246.4 277.34 245.36 275.82 Q 244.31999 274.3 242.72 273.58002 Q 242.4 273.41998 242.04 273.14 Q 241.68 272.86 241.68 272.38 Q 241.68 271.97998 242 271.82 Q 242.31999 271.66 242.64 271.58002 Q 243.68 271.34 245.48 270.7 Q 247.28 270.06 248.87999 269.41998 Q 250.48 268.78 251.04 268.53998 Q 251.51999 268.3 251.76 268.3 Q 251.92 268.3 252.07999 268.46 Q 252.23999 268.62 252.23999 268.86 Q 252.23999 269.18 252.12 271.53998 Q 252 273.9 252 277.26 L 252 293.66 Q 252 295.18 252.15999 295.7 Q 252.31999 296.22 252.72 296.3 Q 255.2 294.22 258.47998 292.9 Q 261.75998 291.58002 264.4 291.58002 Q 268.47998 291.58002 271.72 293.66 Q 274.96 295.74 276.88 299.3 Q 278.8 302.86 278.8 307.34 Q 278.8 312.78 276.56 316.97998 Q 274.32 321.18 270.36 323.5 Q 266.4 325.82 261.12 325.82 Z M 262.96 323.34 Q 266 323.34 268.19998 321.46 Q 270.4 319.58002 271.6 316.34 Q 272.8 313.09998 272.8 309.09998 Q 272.8 305.97998 271.63998 302.7 Q 270.47998 299.41998 268.03998 297.18 Q 265.6 294.94 261.75998 294.94 Q 258.56 294.94 256.15997 295.97998 Q 253.76 297.02 252 298.62 L 252 314.14 Q 252 316.94 253.56 319.02002 Q 255.12 321.09998 257.63998 322.22 Q 260.16 323.34 262.96 323.34 Z " fill="black"/>
    <rect x="283.5" y="140.5" width="32.5" height="25" stroke="lightgray" stroke-width="1" fill="none"/>
    <path d="M 283.5 156.4 Q 283.5 150.4 290.1 144.85 Q 296.7 139.3 303.6 139.3 Q 306.4 139.3 308.95 140 Q 311.5 140.7 313.8 143.2 Q 316.1 145.7 316.1 149.6 Q 316.1 155.1 309.4 160.9 Q 302.7 166.7 296 166.7 Q 293.2 166.7 290.65 166 Q 288.1 165.3 285.8 162.8 Q 283.5 160.3 283.5 156.4 Z " fill="black"/>
    <rect x="256" y="103" width="27.5" height="75" stroke="lightgray" stroke-width="1" fill="none"/>
    <path d="M 260.6 161.6 Q 260.6 162.8 261.6 163.2 Q 262.8 163.7 263.6 162.9 Q 270.2 156.9 270.2 149.3 Q 270.2 146.6 269.05 144.6 Q 267.9 142.6 265.9 142.6 Q 263.7 142.6 262.3 144.5 Q 260.9 146.4 260.8 148.9 L 260.6 161.6 Z M 263.4 139.5 Q 267.6 137.4 270.3 137.4 Q 274.1 137.4 276.4 140.4 Q 278.7 143.4 278.7 147.6 Q 278.7 150.5 277.85 152.85 Q 277 155.2 275.2 157.15 Q 273.4 159.1 271.85 160.4 Q 270.3 161.7 267.8 163.55 Q 265.3 165.4 264 166.5 Q 263.5 166.9 262.7 168 Q 261.9 169.1 261.15 169.7 Q 260.4 170.3 259.5 170.3 Q 258.5 170.3 257.85 169.6 Q 257.2 168.9 257.2 167.8 L 256 107.3 Q 257.3 106.5 258.7 106.5 Q 260.1 106.5 261.4 107.3 L 260.8 137.9 Q 260.8 138.9 261.6 139.4 Q 262.5 140 263.4 139.5 Z " fill="black"/>
    <ellipse cx="288.5" cy="314" rx="5" ry="5" stroke="gray" stroke-width="1" fill="none"/>
    <rect x="343.5" y="128" width="32.5" height="25" stroke="lightgray" stroke-width="1" fill="none"/>
    <path d="M 343.5 143.9 Q 343.5 137.9 350.1 132.35 Q 356.7 126.8 363.6 126.8 Q 366.4 126.8 368.95 127.5 Q 371.5 128.2 373.8 130.7 Q 376.1 133.2 376.1 137.1 Q 376.1 142.6 369.4 148.4 Q 362.7 154.2 356 154.2 Q 353.2 154.2 350.65 153.5 Q 348.1 152.8 345.8 150.3 Q 343.5 147.8 343.5 143.9 Z " fill="black"/>
    <ellipse cx="348.5" cy="314" rx="5" ry="5" stroke="gray" stroke-width="1" fill="none"/>
    <rect x="403.5" y="115.5" width="32.5" height="25" stroke="lightgray" stroke-width="1" fill="none"/>
    <path d="M 403.5 131.4 Q 403.5 125.4 410.1 119.85 Q 416.7 114.3 423.6 114.3 Q 426.4 114.3 428.95 115 Q 431.5 115.7 433.8 118.2 Q 436.1 120.7 436.1 124.6 Q 436.1 130.1 429.4 135.9 Q 422.7 141.7 416 141.7 Q 413.2 141.7 410.65 141 Q 408.1 140.3 405.8 137.8 Q 403.5 135.3 403.5 131.4 Z " fill="black"/>
    <rect x="433" y="38" width="3" height="90" stroke="lightgray" stroke-width="1" fill="none"/>
    <rect x="433" y="38" width="3" height="90" fill="black"/>
    <ellipse cx="408.5" cy="314" rx="5" ry="5" stroke="gray" stroke-width="1" fill="none"/>
    <rect x="463.5" y="90.5" width="32.5" height="25" stroke="lightgray" stroke-width="1" fill="none"/>
    <path d="M 463.5 106.4 Q 463.5 100.4 470.1 94.85 Q 476.7 89.3 483.6 89.3 Q 486.4 89.3 488.95 90 Q 491.5 90.7 493.8 93.2 Q 496.1 95.7 496.1 99.6 Q 496.1 105.1 489.4 110.9 Q 482.7 116.7 476 116.7 Q 473.2 116.7 470.65 116 Q 468.1 115.3 465.8 112.8 Q 463.5 110.3 463.5 106.4 Z " fill="black"/>
    <rect x="493" y="13" width="3" height="90" stroke="lightgray" stroke-width="1" fill="none"/>
    <rect x="493" y="13" width="3" height="90" fill="black"/>
    <ellipse cx="468.5" cy="314" rx="5" ry="5" stroke="gray" stroke-width="1" fill="none"/>
    <rect x="568.5" y="78" width="32.5" height="25" stroke="lightgray" stroke-width="1" fill="none"/>
    <path d="M 568.5 93.9 Q 568.5 87.9 575.1 82.35 Q 581.7 76.8 588.6 76.8 Q 591.4 76.8 593.95 77.5 Q 596.5 78.2 598.8 80.7 Q 601.1 83.2 601.1 87.1 Q 601.1 92.6 594.4 98.4 Q 587.7 104.2 581 104.2 Q 578.2 104.2 575.65 103.5 Q 573.1 102.8 570.8 100.3 Q 568.5 97.8 568.5 93.9 Z " fill="black"/>
    <rect x="568.5" y="153" width="32.5" height="25" stroke="lightgray" stroke-width="1" fill="none"/>
    <path d="M 568.5 168.9 Q 568.5 162.9 575.1 157.35 Q 581.7 151.8 588.6 151.8 Q 591.4 151.8 593.95 152.5 Q 596.5 153.2 598.8 155.7 Q 601.1 158.2 601.1 162.1 Q 601.1 167.6 594.4 173.4 Q 587.7 179.2 581 179.2 Q 578.2 179.2 575.65 178.5 Q 573.1 177.8 570.8 175.3 Q 568.5 172.8 568.5 168.9 Z " fill="black"/>
    <rect x="598" y="0.5" width="3" height="90" stroke="lightgray" stroke-width="1" fill="none"/>
    <rect x="598" y="0.5" width="3" height="90" fill="black"/>
    <rect x="568.5" y="165.5" width="3" height="90" stroke="lightgray" stroke-width="1" fill="none"/>
    <rect x="568.5" y="165.5" width="3" height="90" fill="black"/>
    <rect x="547.6667" y="268.3" width="31.84" height="81.399994" stroke="lightgray" stroke-width="1" fill="none"/>
    <path d="M 557.0267 325.82 Q 555.5867 325.82 554.1067 324.7 Q 552.6267 323.58002 551.6267 321.97998 Q 550.6267 320.38 550.6267 318.94 Q 550.6267 316.38 551.9867 314.94 Q 553.3467 313.5 556.3067 312.3 L 564.4667 308.94 Q 566.0667 308.3 566.3467 307.82 Q 566.6267 307.34 566.70667 305.74 L 566.8667 300.62 Q 566.94666 298.53998 565.70667 297.02 Q 564.4667 295.5 562.14667 295.5 Q 560.9467 295.5 559.7467 295.9 Q 558.5467 296.3 557.7467 296.94 Q 557.26666 297.26 557.1067 297.9 Q 556.9467 298.53998 556.9467 299.26 Q 556.9467 299.58002 556.9867 299.97998 Q 557.0267 300.38 557.0267 300.7 Q 557.0267 301.09998 556.0267 301.78 Q 555.0267 302.46 553.7867 302.97998 Q 552.5467 303.5 551.7467 303.5 Q 551.3467 303.5 551.1067 303.3 Q 550.8667 303.09998 550.8667 302.78 Q 550.8667 301.5 551.70667 300.02 Q 552.5467 298.53998 554.0667 297.26 Q 555.9067 295.58002 558.0667 294.3 Q 560.2267 293.02002 562.3067 292.3 Q 564.38666 291.58002 565.9867 291.58002 Q 568.8667 291.58002 570.7467 293.62 Q 572.6267 295.66 572.5467 298.7 L 572.14667 317.9 Q 572.0667 319.58002 572.9067 320.62 Q 573.7467 321.66 575.0267 321.66 Q 577.0267 321.66 577.9867 320.78 Q 578.38666 320.38 578.6267 320.38 Q 579.0267 320.38 579.26666 320.62 Q 579.5067 320.86 579.5067 321.26 Q 579.5067 322.14 578.6267 323.02002 Q 577.3467 324.3 575.8667 325.06 Q 574.38666 325.82 573.1067 325.82 Q 569.4267 325.82 567.26666 321.66 L 567.0267 321.66 Q 564.38666 323.82 561.9867 324.82 Q 559.5867 325.82 557.0267 325.82 Z M 560.7867 321.97998 Q 562.38666 321.97998 563.5067 321.46 Q 564.6267 320.94 565.5067 320.06 Q 565.9067 319.66 566.1867 318.97998 Q 566.4667 318.3 566.5467 316.78 L 566.70667 312.86 Q 566.7867 311.97998 566.6267 311.58002 Q 566.4667 311.18 565.9867 311.18 Q 565.82666 311.18 565.4267 311.26 Q 565.0267 311.34 564.38666 311.58002 Q 560.14667 313.09998 558.5067 314.74 Q 556.8667 316.38 556.8667 317.74 Q 556.8667 319.82 558.1067 320.9 Q 559.3467 321.97998 560.7867 321.97998 Z " fill="black"/>
    <rect x="579.50665" y="268.3" width="38.399998" height="81.399994" stroke="lightgray" stroke-width="1" fill="none"/>
    <path d="M 600.2266 325.82 Q 598.4667 325.82 596.70667 325.5 Q 594.94666 325.18 593.3467 324.78 Q 591.5867 324.3 590.26666 323.9 Q 588.94666 323.5 588.54663 323.5 Q 588.06665 323.5 587.62665 323.82 Q 587.18665 324.14 586.7867 324.53998 Q 586.38666 324.94 586.06665 324.94 Q 585.74664 324.94 585.3467 324.66 Q 584.94666 324.38 584.94666 323.97998 Q 584.94666 323.26 585.2266 321.5 Q 585.50665 319.74 585.50665 318.22 L 585.50665 279.41998 Q 585.50665 277.34 584.4667 275.82 Q 583.42664 274.3 581.82666 273.58002 Q 581.50665 273.41998 581.14667 273.14 Q 580.7867 272.86 580.7867 272.38 Q 580.7867 271.97998 581.1066 271.82 Q 581.42664 271.66 581.74664 271.58002 Q 582.7867 271.34 584.5867 270.7 Q 586.38666 270.06 587.98663 269.41998 Q 589.5867 268.78 590.14667 268.53998 Q 590.62665 268.3 590.86664 268.3 Q 591.0267 268.3 591.18665 268.46 Q 591.3467 268.62 591.3467 268.86 Q 591.3467 269.18 591.2266 271.53998 Q 591.1066 273.9 591.1066 277.26 L 591.1066 293.66 Q 591.1066 295.18 591.26666 295.7 Q 591.42664 296.22 591.82666 296.3 Q 594.30664 294.22 597.5867 292.9 Q 600.86664 291.58002 603.50665 291.58002 Q 607.5867 291.58002 610.82666 293.66 Q 614.06665 295.74 615.98663 299.3 Q 617.9067 302.86 617.9067 307.34 Q 617.9067 312.78 615.6666 316.97998 Q 613.42664 321.18 609.4667 323.5 Q 605.50665 325.82 600.2266 325.82 Z M 602.06665 323.34 Q 605.1066 323.34 607.30664 321.46 Q 609.50665 319.58002 610.70667 316.34 Q 611.9067 313.09998 611.9067 309.09998 Q 611.9067 305.97998 610.74664 302.7 Q 609.5867 299.41998 607.14667 297.18 Q 604.70667 294.94 600.86664 294.94 Q 597.6666 294.94 595.26666 295.97998 Q 592.86664 297.02 591.1066 298.62 L 591.1066 314.14 Q 591.1066 316.94 592.6666 319.02002 Q 594.2266 321.09998 596.74664 322.22 Q 599.26666 323.34 602.06665 323.34 Z " fill="black"/>
    <rect x="617.9067" y="268.3" width="29.76" height="81.399994" stroke="lightgray" stroke-width="1" fill="none"/>
    <path d="M 634.94666 325.9 Q 630.94666 325.9 627.70667 323.86 Q 624.4667 321.82 622.5867 318.26 Q 620.70667 314.7 620.70667 310.3 Q 620.70667 305.09998 622.9867 300.86 Q 625.26666 296.62 629.1067 294.1 Q 632.94666 291.58002 637.5867 291.58002 Q 642.7867 291.58002 646.70667 294.38 Q 647.6667 295.1 647.6667 295.9 Q 647.6667 296.53998 647.1067 297.34 Q 646.5467 298.14 645.7467 298.66 Q 644.94666 299.18 644.2267 299.18 Q 643.82666 299.18 643.4267 298.9 Q 643.0267 298.62 642.5467 298.3 Q 640.7867 296.94 638.62665 295.74 Q 636.4667 294.53998 635.0267 294.53998 Q 631.1067 294.53998 628.6667 298.18 Q 626.2267 301.82 626.2267 307.74 Q 626.2267 311.5 627.8667 314.53998 Q 629.50665 317.58002 632.26666 319.34 Q 635.0267 321.09998 638.38666 321.09998 Q 640.70667 321.09998 642.38666 320.34 Q 644.06665 319.58002 645.9867 317.66 Q 646.14667 317.5 646.38666 317.38 Q 646.62665 317.26 646.7867 317.26 Q 647.6667 317.26 647.6667 318.38 Q 647.6667 318.86 647.38666 319.46 Q 647.1067 320.06 646.4667 320.86 Q 645.18665 322.46 643.4267 323.62 Q 641.6667 324.78 639.5467 325.34 Q 637.4267 325.9 634.94666 325.9 Z " fill="black"/>
    <rect x="643.5" y="140.5" width="32.5" height="25" stroke="lightgray" stroke-width="1" fill="none"/>
    <path d="M 643.5 156.4 Q 643.5 150.4 650.1 144.85 Q 656.7 139.3 663.6 139.3 Q 666.4 139.3 668.95 140 Q 671.5 140.7 673.8 143.2 Q 676.1 145.7 676.1 149.6 Q 676.1 155.1 669.4 160.9 Q 662.7 166.7 656 166.7 Q 653.2 166.7 650.65 166 Q 648.1 165.3 645.8 162.8 Q 643.5 160.3 643.5 156.4 Z " fill="black"/>
    <rect x="673" y="25.5" width="3" height="127.5" stroke="lightgray" stroke-width="1" fill="none"/>
    <rect x="673" y="25.5" width="3" height="127.5" fill="black"/>
    <ellipse cx="648.5" cy="314" rx="5" ry="5" stroke="gray" stroke-width="1" fill="none"/>
    <rect x="718.5" y="123" width="10" height="10" stroke="orange" stroke-width="1" fill="none"/>
    <rect x="718.5" y="304" width="10" height="10" stroke="orange" stroke-width="1" fill="none"/>
    <rect x="0" y="0" width="729" height="350.2" stroke="black" stroke-width="1" fill="none"/>
</svg>
