<svg xmlns="http://www.w3.org/2000/svg" xmlns:xlink="http://www.w3.org/1999/xlink" viewBox="0 0 510.7 628.5">
    <line x1="1.35" y1="91.5" x2="509.35" y2="91.5" stroke="black" stroke-width="2.7"/>
    <line x1="1.35" y1="116.5" x2="509.35" y2="116.5" stroke="black" stroke-width="2.7"/>
    <line x1="1.35" y1="141.5" x2="509.35" y2="141.5" stroke="black" stroke-width="2.7"/>
    <line x1="1.35" y1="166.5" x2="509.35" y2="166.5" stroke="black" stroke-width="2.7"/>
    <line x1="1.35" y1="191.5" x2="509.35" y2="191.5" stroke="black" stroke-width="2.7"/>
    <line x1="1.35" y1="346.5" x2="509.35" y2="346.5" stroke="black" stroke-width="2.7"/>
    <line x1="1.35" y1="371.5" x2="509.35" y2="371.5" stroke="black" stroke-width="2.7"/>
    <line x1="1.35" y1="396.5" x2="509.35" y2="396.5" stroke="black" stroke-width="2.7"/>
    <line x1="1.35" y1="421.5" x2="509.35" y2="421.5" stroke="black" stroke-width="2.7"/>
    <line x1="1.35" y1="446.5" x2="509.35" y2="446.5" stroke="black" stroke-width="2.7"/>
    <line x1="1.35" y1="499.5" x2="509.35" y2="499.5" stroke="black" stroke-width="2.7"/>
    <line x1="1.35" y1="524.5" x2="509.35" y2="524.5" stroke="black" stroke-width="2.7"/>
    <line x1="1.35" y1="549.5" x2="509.35" y2="549.5" stroke="black" stroke-width="2.7"/>
    <line x1="1.35" y1="574.5" x2="509.35" y2="574.5" stroke="black" stroke-width="2.7"/>
    <line x1="1.35" y1="599.5" x2="509.35" y2="599.5" stroke="black" stroke-width="2.7"/>
    <rect x="1.35" y="136.5" width="10" height="10" stroke="orange" stroke-width="1" fill="none"/>
    <rect x="1.35" y="391.5" width="10" height="10" stroke="orange" stroke-width="1" fill="none"/>
    <rect x="1.35" y="544.5" width="10" height="10" stroke="orange" stroke-width="1" fill="none"/>
    <path d="M 11.35 132.4 Q 11.35 126.4 17.95 120.85 Q 24.550001 115.3 31.45 115.3 Q 34.25 115.3 36.8 116 Q 39.35 116.7 41.65 119.2 Q 43.95 121.7 43.95 125.6 Q 43.95 131.1 37.25 136.9 Q 30.550001 142.7 23.85 142.7 Q 21.050001 142.7 18.5 142 Q 15.950001 141.3 13.650001 138.8 Q 11.35 136.3 11.35 132.4 Z " fill="black"/>
    <path d="M 11.35 157.4 Q 11.35 151.4 17.95 145.85 Q 24.550001 140.3 31.45 140.3 Q 34.25 140.3 36.8 141 Q 39.35 141.7 41.65 144.2 Q 43.95 146.7 43.95 150.6 Q 43.95 156.1 37.25 161.9 Q 30.550001 167.7 23.85 167.7 Q 21.050001 167.7 18.5 167 Q 15.950001 166.3 13.650001 163.8 Q 11.35 161.3 11.35 157.4 Z " fill="black"/>
    <path d="M 11.35 399.9 Q 11.35 393.9 17.95 388.35 Q 24.550001 382.8 31.45 382.8 Q 34.25 382.8 36.8 383.5 Q 39.35 384.2 41.65 386.7 Q 43.95 389.2 43.95 393.1 Q 43.95 398.6 37.25 404.4 Q 30.550001 410.2 23.85 410.2 Q 21.050001 410.2 18.5 409.5 Q 15.950001 408.8 13.650001 406.3 Q 11.35 403.8 11.35 399.9 Z " fill="black"/>
    <path d="M 11.35 552.9 Q 11.35 546.9 17.95 541.35 Q 24.550001 535.8 31.45 535.8 Q 34.25 535.8 36.8 536.5 Q 39.35 537.2 41.65 539.7 Q 43.95 542.2 43.95 546.1 Q 43.95 551.6 37.25 557.4 Q 30.550001 563.2 23.85 563.2 Q 21.050001 563.2 18.5 562.5 Q 15.950001 561.8 13.650001 559.3 Q 11.35 556.8 11.35 552.9 Z " fill="black"/>
    <path d="M 71.35 169.9 Q 71.35 163.9 77.95 158.35 Q 84.549995 152.8 91.45 152.8 Q 94.25 152.8 96.799995 153.5 Q 99.35 154.2 101.65 156.7 Q 103.950005 159.2 103.950005 163.1 Q 103.950005 168.6 97.25 174.4 Q 90.549995 180.2 83.85 180.2 Q 81.049995 180.2 78.5 179.5 Q 75.95 178.8 73.65 176.3 Q 71.35 173.8 71.35 169.9 Z " fill="black"/>
    <path d="M 71.35 412.4 Q 71.35 406.4 77.95 400.85 Q 84.549995 395.3 91.45 395.3 Q 94.25 395.3 96.799995 396 Q 99.35 396.7 101.65 399.2 Q 103.950005 401.7 103.950005 405.6 Q 103.950005 411.1 97.25 416.9 Q 90.549995 422.7 83.85 422.7 Q 81.049995 422.7 78.5 422 Q 75.95 421.3 73.65 418.8 Q 71.35 416.3 71.35 412.4 Z " fill="black"/>
    <path d="M 71.35 565.4 Q 71.35 559.4 77.95 553.85 Q 84.549995 548.3 91.45 548.3 Q 94.25 548.3 96.799995 549 Q 99.35 549.7 101.65 552.2 Q 103.950005 554.7 103.950005 558.6 Q 103.950005 564.1 97.25 569.9 Q 90.549995 575.7 83.85 575.7 Q 81.049995 575.7 78.5 575 Q 75.95 574.3 73.65 571.8 Q 71.35 569.3 71.35 565.4 Z " fill="black"/>
    <path d="M 131.35 119.9 Q 131.35 113.9 137.95001 108.35 Q 144.55 102.8 151.45001 102.8 Q 154.25 102.8 156.8 103.5 Q 159.35 104.2 161.65001 106.7 Q 163.95001 109.2 163.95001 113.1 Q 163.95001 118.6 157.25 124.4 Q 150.55 130.2 143.85 130.2 Q 141.05 130.2 138.5 129.5 Q 135.95001 128.8 133.65001 126.3 Q 131.35 123.8 131.35 119.9 Z " fill="black"/>
    <path d="M 131.35 182.4 Q 131.35 176.4 137.95001 170.85 Q 144.55 165.3 151.45001 165.3 Q 154.25 165.3 156.8 166 Q 159.35 166.7 161.65001 169.2 Q 163.95001 171.7 163.95001 175.6 Q 163.95001 181.1 157.25 186.9 Q 150.55 192.7 143.85 192.7 Q 141.05 192.7 138.5 192 Q 135.95001 191.3 133.65001 188.8 Q 131.35 186.3 131.35 182.4 Z " fill="black"/>
    <path d="M 131.35 437.4 Q 131.35 431.4 137.95001 425.85 Q 144.55 420.3 151.45001 420.3 Q 154.25 420.3 156.8 421 Q 159.35 421.7 161.65001 424.2 Q 163.95001 426.7 163.95001 430.6 Q 163.95001 436.1 157.25 441.9 Q 150.55 447.7 143.85 447.7 Q 141.05 447.7 138.5 447 Q 135.95001 446.3 133.65001 443.8 Q 131.35 441.3 131.35 437.4 Z " fill="black"/>
    <path d="M 131.35 577.9 Q 131.35 571.9 137.95001 566.35 Q 144.55 560.8 151.45001 560.8 Q 154.25 560.8 156.8 561.5 Q 159.35 562.2 161.65001 564.7 Q 163.95001 567.2 163.95001 571.1 Q 163.95001 576.6 157.25 582.4 Q 150.55 588.2 143.85 588.2 Q 141.05 588.2 138.5 587.5 Q 135.95001 586.8 133.65001 584.3 Q 131.35 581.8 131.35 577.9 Z " fill="black"/>
    <path d="M 191.35 107.4 Q 191.35 101.4 197.95001 95.85 Q 204.55 90.3 211.45001 90.3 Q 214.25 90.3 216.8 91 Q 219.35 91.7 221.65001 94.2 Q 223.95001 96.7 223.95001 100.6 Q 223.95001 106.1 217.25 111.9 Q 210.55 117.7 203.85 117.7 Q 201.05 117.7 198.5 117 Q 195.95001 116.3 193.65001 113.8 Q 191.35 111.3 191.35 107.4 Z " fill="black"/>
    <ellipse cx="196.35" cy="401.5" rx="5" ry="5" stroke="gray" stroke-width="1" fill="none"/>
    <path d="M 191.35 590.4 Q 191.35 584.4 197.95001 578.85 Q 204.55 573.3 211.45001 573.3 Q 214.25 573.3 216.8 574 Q 219.35 574.7 221.65001 577.2 Q 223.95001 579.7 223.95001 583.6 Q 223.95001 589.1 217.25 594.9 Q 210.55 600.7 203.85 600.7 Q 201.05 600.7 198.5 600 Q 195.95001 599.3 193.65001 596.8 Q 191.35 594.3 191.35 590.4 Z " fill="black"/>
    <path d="M 259.35 107.4 Q 259.35 101.4 265.95 95.85 Q 272.55002 90.3 279.45 90.3 Q 282.25 90.3 284.80002 91 Q 287.35 91.7 289.65 94.2 Q 291.95 96.7 291.95 100.6 Q 291.95 106.1 285.25 111.9 Q 278.55002 117.7 271.85 117.7 Q 269.05002 117.7 266.5 117 Q 263.95 116.3 261.65 113.8 Q 259.35 111.3 259.35 107.4 Z " fill="black"/>
    <path d="M 259.35 374.9 Q 259.35 368.9 265.95 363.35 Q 272.55002 357.8 279.45 357.8 Q 282.25 357.8 284.80002 358.5 Q 287.35 359.2 289.65 361.7 Q 291.95 364.2 291.95 368.1 Q 291.95 373.6 285.25 379.4 Q 278.55002 385.2 271.85 385.2 Q 269.05002 385.2 266.5 384.5 Q 263.95 383.8 261.65 381.3 Q 259.35 378.8 259.35 374.9 Z " fill="black"/>
    <path d="M 259.35 527.9 Q 259.35 521.9 265.95 516.35 Q 272.55002 510.8 279.45 510.8 Q 282.25 510.8 284.80002 511.5 Q 287.35 512.2 289.65 514.7 Q 291.95 517.2 291.95 521.1 Q 291.95 526.6 285.25 532.4 Q 278.55002 538.2 271.85 538.2 Q 269.05002 538.2 266.5 537.5 Q 263.95 536.8 261.65 534.3 Q 259.35 531.8 259.35 527.9 Z " fill="black"/>
    <ellipse cx="324.35" cy="146.5" rx="5" ry="5" stroke="gray" stroke-width="1" fill="none"/>
    <path d="M 319.35 374.9 Q 319.35 368.9 325.95 363.35 Q 332.55002 357.8 339.45 357.8 Q 342.25 357.8 344.80002 358.5 Q 347.35 359.2 349.65 361.7 Q 351.95 364.2 351.95 368.1 Q 351.95 373.6 345.25 379.4 Q 338.55002 385.2 331.85 385.2 Q 329.05002 385.2 326.5 384.5 Q 323.95 383.8 321.65 381.3 Q 319.35 378.8 319.35 374.9 Z " fill="black"/>
    <path d="M 319.35 527.9 Q 319.35 521.9 325.95 516.35 Q 332.55002 510.8 339.45 510.8 Q 342.25 510.8 344.80002 511.5 Q 347.35 512.2 349.65 514.7 Q 351.95 517.2 351.95 521.1 Q 351.95 526.6 345.25 532.4 Q 338.55002 538.2 331.85 538.2 Q 329.05002 538.2 326.5 537.5 Q 323.95 536.8 321.65 534.3 Q 319.35 531.8 319.35 527.9 Z " fill="black"/>
    <path d="M 379.35 94.9 Q 379.35 88.9 385.95 83.35 Q 392.55002 77.8 399.45 77.8 Q 402.25 77.8 404.80002 78.5 Q 407.35 79.2 409.65 81.7 Q 411.95 84.2 411.95 88.1 Q 411.95 93.6 405.25 99.4 Q 398.55002 105.2 391.85 105.2 Q 389.05002 105.2 386.5 104.5 Q 383.95 103.8 381.65 101.3 Q 379.35 98.8 379.35 94.9 Z " fill="black"/>
    <path d="M 379.35 362.4 Q 379.35 356.4 385.95 350.85 Q 392.55002 345.3 399.45 345.3 Q 402.25 345.3 404.80002 346 Q 407.35 346.7 409.65 349.2 Q 411.95 351.7 411.95 355.6 Q 411.95 361.1 405.25 366.9 Q 398.55002 372.7 391.85 372.7 Q 389.05002 372.7 386.5 372 Q 383.95 371.3 381.65 368.8 Q 379.35 366.3 379.35 362.4 Z " fill="black"/>
    <path d="M 379.35 515.4 Q 379.35 509.4 385.95 503.85 Q 392.55002 498.3 399.45 498.3 Q 402.25 498.3 404.80002 499 Q 407.35 499.7 409.65 502.2 Q 411.95 504.7 411.95 508.6 Q 411.95 514.1 405.25 519.9 Q 398.55002 525.7 391.85 525.7 Q 389.05002 525.7 386.5 525 Q 383.95 524.3 381.65 521.8 Q 379.35 519.3 379.35 515.4 Z " fill="black"/>
    <path d="M 439.35 82.4 Q 439.35 76.4 445.95 70.85 Q 452.55002 65.3 459.45 65.3 Q 462.25 65.3 464.80002 66 Q 467.35 66.7 469.65 69.2 Q 471.95 71.7 471.95 75.6 Q 471.95 81.1 465.25 86.9 Q 458.55002 92.7 451.85 92.7 Q 449.05002 92.7 446.5 92 Q 443.95 91.3 441.65 88.8 Q 439.35 86.3 439.35 82.4 Z " fill="black"/>
    <path d="M 439.35 349.9 Q 439.35 343.9 445.95 338.35 Q 452.55002 332.8 459.45 332.8 Q 462.25 332.8 464.80002 333.5 Q 467.35 334.2 469.65 336.7 Q 471.95 339.2 471.95 343.1 Q 471.95 348.6 465.25 354.4 Q 458.55002 360.2 451.85 360.2 Q 449.05002 360.2 446.5 359.5 Q 443.95 358.8 441.65 356.3 Q 439.35 353.8 439.35 349.9 Z " fill="black"/>
    <path d="M 439.35 502.9 Q 439.35 496.9 445.95 491.35 Q 452.55002 485.8 459.45 485.8 Q 462.25 485.8 464.80002 486.5 Q 467.35 487.2 469.65 489.7 Q 471.95 492.2 471.95 496.1 Q 471.95 501.6 465.25 507.4 Q 458.55002 513.2 451.85 513.2 Q 449.05002 513.2 446.5 512.5 Q 443.95 511.8 441.65 509.3 Q 439.35 506.8 439.35 502.9 Z " fill="black"/>
    <rect x="499.35" y="136.5" width="10" height="10" stroke="orange" stroke-width="1" fill="none"/>
    <rect x="499.35" y="391.5" width="10" height="10" stroke="orange" stroke-width="1" fill="none"/>
    <rect x="499.35" y="544.5" width="10" height="10" stroke="orange" stroke-width="1" fill="none"/>
    <line x1="12.85" y1="158" x2="12.85" y2="269" stroke="black" stroke-width="3"/>
    <line x1="132.85" y1="183" x2="132.85" y2="281.5" stroke="black" stroke-width="3"/>
    <line x1="72.85" y1="170.5" x2="72.85" y2="275.25" stroke="black" stroke-width="3"/>
    <line x1="11.35" y1="269" x2="134.35" y2="281.5" stroke="blue" stroke-width="2"/>
    <path d="M 11.35 269 L 134.35 281.5 L 134.35 269 L 11.35 256.5 " fill="black"/>
    <line x1="11.35" y1="244" x2="74.35" y2="250.25" stroke="red" stroke-width="2"/>
    <path d="M 11.35 244 L 74.35 250.25 L 74.35 237.75 L 11.35 231.5 " fill="black"/>
    <line x1="42.35" y1="14" x2="42.35" y2="125" stroke="black" stroke-width="3"/>
    <line x1="222.35" y1="1.5" x2="222.35" y2="100" stroke="black" stroke-width="3"/>
    <line x1="162.35" y1="5.6666718" x2="162.35" y2="112.5" stroke="black" stroke-width="3"/>
    <line x1="40.85" y1="14" x2="223.85" y2="1.5" stroke="blue" stroke-width="2"/>
    <path d="M 40.85 14 L 223.85 1.5 L 223.85 14 L 40.85 26.5 " fill="black"/>
    <line x1="160.85" y1="30.666672" x2="223.85" y2="26.5" stroke="red" stroke-width="2"/>
    <path d="M 160.85 30.666672 L 223.85 26.5 L 223.85 39 L 160.85 43.16667 " fill="black"/>
    <line x1="260.85" y1="108" x2="260.85" y2="206.5" stroke="black" stroke-width="3"/>
    <line x1="440.85" y1="83" x2="440.85" y2="194" stroke="black" stroke-width="3"/>
    <line x1="380.85" y1="95.5" x2="380.85" y2="198.16666" stroke="black" stroke-width="3"/>
    <line x1="259.35" y1="206.5" x2="442.35" y2="194" stroke="blue" stroke-width="2"/>
    <path d="M 259.35 206.5 L 442.35 194 L 442.35 181.5 L 259.35 194 " fill="black"/>
    <line x1="379.35" y1="173.16666" x2="442.35" y2="169" stroke="red" stroke-width="2"/>
    <path d="M 379.35 173.16666 L 442.35 169 L 442.35 156.5 L 379.35 160.66666 " fill="black"/>
    <line x1="42.35" y1="294" x2="42.35" y2="392.5" stroke="black" stroke-width="3"/>
    <line x1="162.35" y1="306.5" x2="162.35" y2="430" stroke="black" stroke-width="3"/>
    <line x1="102.35" y1="300.25" x2="102.35" y2="405" stroke="black" stroke-width="3"/>
    <line x1="40.85" y1="294" x2="163.85" y2="306.5" stroke="blue" stroke-width="2"/>
    <path d="M 40.85 294 L 163.85 306.5 L 163.85 319 L 40.85 306.5 " fill="black"/>
    <line x1="40.85" y1="319" x2="103.85" y2="325.25" stroke="red" stroke-width="2"/>
    <path d="M 40.85 319 L 103.85 325.25 L 103.85 337.75 L 40.85 331.5 " fill="black"/>
    <line x1="260.85" y1="375.5" x2="260.85" y2="474" stroke="black" stroke-width="3"/>
    <line x1="440.85" y1="350.5" x2="440.85" y2="474" stroke="black" stroke-width="3"/>
    <line x1="320.85" y1="375.5" x2="320.85" y2="474" stroke="black" stroke-width="3"/>
    <line x1="380.85" y1="363" x2="380.85" y2="474" stroke="black" stroke-width="3"/>
    <line x1="259.35" y1="474" x2="442.35" y2="474" stroke="blue" stroke-width="2"/>
    <path d="M 259.35 474 L 442.35 474 L 442.35 461.5 L 259.35 461.5 " fill="black"/>
    <line x1="260.85" y1="449" x2="440.85" y2="449" stroke="blue" stroke-width="2"/>
    <path d="M 260.85 449 L 440.85 449 L 440.85 436.5 L 260.85 436.5 " fill="black"/>
    <line x1="42.35" y1="447" x2="42.35" y2="545.5" stroke="black" stroke-width="3"/>
    <line x1="222.35" y1="459.5" x2="222.35" y2="583" stroke="black" stroke-width="3"/>
    <line x1="102.35" y1="451.16666" x2="102.35" y2="558" stroke="black" stroke-width="3"/>
    <line x1="162.35" y1="455.33334" x2="162.35" y2="570.5" stroke="black" stroke-width="3"/>
    <line x1="40.85" y1="447" x2="223.85" y2="459.5" stroke="blue" stroke-width="2"/>
    <path d="M 40.85 447 L 223.85 459.5 L 223.85 472 L 40.85 459.5 " fill="black"/>
    <line x1="42.35" y1="472" x2="222.35" y2="484.5" stroke="blue" stroke-width="2"/>
    <path d="M 42.35 472 L 222.35 484.5 L 222.35 497 L 42.35 484.5 " fill="black"/>
    <line x1="260.85" y1="528.5" x2="260.85" y2="627" stroke="black" stroke-width="3"/>
    <line x1="440.85" y1="503.5" x2="440.85" y2="627" stroke="black" stroke-width="3"/>
    <line x1="320.85" y1="528.5" x2="320.85" y2="627" stroke="black" stroke-width="3"/>
    <line x1="380.85" y1="516" x2="380.85" y2="627" stroke="black" stroke-width="3"/>
    <line x1="259.35" y1="627" x2="442.35" y2="627" stroke="blue" stroke-width="2"/>
    <path d="M 259.35 627 L 442.35 627 L 442.35 614.5 L 259.35 614.5 " fill="black"/>
    <line x1="260.85" y1="602" x2="440.85" y2="602" stroke="blue" stroke-width="2"/>
    <path d="M 260.85 602 L 440.85 602 L 440.85 589.5 L 260.85 589.5 " fill="black"/>
    <rect x="0" y="0" width="510.7" height="628.5" stroke="black" stroke-width="1" fill="none"/>
</svg>
