<svg xmlns="http://www.w3.org/2000/svg" xmlns:xlink="http://www.w3.org/1999/xlink" viewBox="0 0 622.5 426">
    <line x1="1.25" y1="75.5" x2="621.25" y2="75.5" stroke="black" stroke-width="2.5"/>
    <line x1="1.25" y1="100.5" x2="621.25" y2="100.5" stroke="black" stroke-width="2.5"/>
    <line x1="1.25" y1="125.5" x2="621.25" y2="125.5" stroke="black" stroke-width="2.5"/>
    <line x1="1.25" y1="150.5" x2="621.25" y2="150.5" stroke="black" stroke-width="2.5"/>
    <line x1="1.25" y1="175.5" x2="621.25" y2="175.5" stroke="black" stroke-width="2.5"/>
    <line x1="1.25" y1="275.5" x2="621.25" y2="275.5" stroke="black" stroke-width="2.5"/>
    <line x1="1.25" y1="300.5" x2="621.25" y2="300.5" stroke="black" stroke-width="2.5"/>
    <line x1="1.25" y1="325.5" x2="621.25" y2="325.5" stroke="black" stroke-width="2.5"/>
    <line x1="1.25" y1="350.5" x2="621.25" y2="350.5" stroke="black" stroke-width="2.5"/>
    <line x1="1.25" y1="375.5" x2="621.25" y2="375.5" stroke="black" stroke-width="2.5"/>
    <rect x="1.25" y="25.5" width="10" height="200" stroke="orange" stroke-width="1" fill="none"/>
    <rect x="1.25" y="225.5" width="10" height="200" stroke="orange" stroke-width="1" fill="none"/>
    <path d="M 11.25 128.9 Q 11.25 122.9 17.85 117.35 Q 24.45 111.8 31.35 111.8 Q 34.15 111.8 36.7 112.5 Q 39.25 113.2 41.550003 115.7 Q 43.850002 118.2 43.850002 122.1 Q 43.850002 127.6 37.15 133.4 Q 30.45 139.2 23.75 139.2 Q 20.95 139.2 18.4 138.5 Q 15.85 137.8 13.55 135.3 Q 11.25 132.8 11.25 128.9 Z " fill="black"/>
    <path d="M 11.25 328.9 Q 11.25 322.9 17.85 317.35 Q 24.45 311.8 31.35 311.8 Q 34.15 311.8 36.7 312.5 Q 39.25 313.2 41.550003 315.7 Q 43.850002 318.2 43.850002 322.1 Q 43.850002 327.6 37.15 333.4 Q 30.45 339.2 23.75 339.2 Q 20.95 339.2 18.4 338.5 Q 15.85 337.8 13.55 335.3 Q 11.25 332.8 11.25 328.9 Z " fill="black"/>
    <path d="M 116.25 128.9 Q 116.25 122.9 122.85 117.35 Q 129.45 111.8 136.35 111.8 Q 139.15 111.8 141.7 112.5 Q 144.25 113.2 146.55 115.7 Q 148.85 118.2 148.85 122.1 Q 148.85 127.6 142.15 133.4 Q 135.45 139.2 128.75 139.2 Q 125.95 139.2 123.4 138.5 Q 120.85 137.8 118.55 135.3 Q 116.25 132.8 116.25 128.9 Z " fill="black"/>
    <path d="M 116.25 328.9 Q 116.25 322.9 122.85 317.35 Q 129.45 311.8 136.35 311.8 Q 139.15 311.8 141.7 312.5 Q 144.25 313.2 146.55 315.7 Q 148.85 318.2 148.85 322.1 Q 148.85 327.6 142.15 333.4 Q 135.45 339.2 128.75 339.2 Q 125.95 339.2 123.4 338.5 Q 120.85 337.8 118.55 335.3 Q 116.25 332.8 116.25 328.9 Z " fill="black"/>
    <rect x="221.25" y="38" width="30.000002" height="75" stroke="orange" stroke-width="1" fill="none"/>
    <path d="M 242.85 65.9 L 242.85 78.1 Q 242.85 78.9 243.35 79.4 Q 243.85 79.9 244.65 79.9 Q 244.95 79.9 245.25 79.8 L 246.05 79.5 Q 246.35 79.4 246.75 79.4 Q 247.55 79.4 248.15 80 Q 248.75 80.6 248.75 81.4 L 248.75 87.4 Q 248.75 88.7 247.45 89.2 L 244.05 90.5 Q 242.85 91 242.85 92.1 L 242.85 106.7 Q 242.85 107.5 242.3 108.05 Q 241.75 108.600006 241.05 108.600006 Q 240.25 108.600006 239.7 108.05 Q 239.15 107.5 239.15 106.7 L 239.15 94.8 Q 239.15 94 238.6 93.5 Q 238.05 93 237.35 93 Q 236.95 93 236.65 93.1 L 232.05 94.9 Q 230.85 95.3 230.85 96.5 L 230.85 111.100006 Q 230.85 111.9 230.25 112.45 Q 229.65 113 228.95 113 Q 228.25 113 227.7 112.45 Q 227.15 111.9 227.15 111.100006 L 227.15 99.2 Q 227.15 98.4 226.6 97.9 Q 226.05 97.4 225.35 97.4 Q 225.05 97.4 224.75 97.5 L 223.95 97.8 Q 223.75 97.9 223.25 97.9 Q 222.45 97.9 221.85 97.3 Q 221.25 96.7 221.25 95.9 L 221.25 89.9 Q 221.25 88.5 222.55 88 L 225.95 86.8 Q 227.15 86.5 227.15 85.1 L 227.15 72.9 Q 227.15 72.1 226.6 71.6 Q 226.05 71.1 225.35 71.1 Q 225.05 71.1 224.85 71.2 L 223.95 71.5 Q 223.75 71.6 223.25 71.6 Q 222.45 71.6 221.85 71 Q 221.25 70.4 221.25 69.6 L 221.25 63.6 Q 221.25 62.3 222.55 61.8 L 226.05 60.5 Q 227.15 60 227.15 58.9 L 227.15 44.300003 Q 227.15 43.5 227.7 42.949997 Q 228.25 42.399994 228.95 42.399994 Q 229.65 42.399994 230.25 42.949997 Q 230.85 43.5 230.85 44.300003 L 230.85 56.199997 Q 230.85 57 231.4 57.5 Q 231.95 58 232.75 58 Q 233.05 58 233.35 57.9 L 237.95 56.1 Q 239.15 55.6 239.15 54.4 L 239.15 39.899994 Q 239.15 39.1 239.7 38.550003 Q 240.25 38 241.05 38 Q 241.75 38 242.3 38.550003 Q 242.85 39.1 242.85 39.899994 L 242.85 51.9 Q 242.85 52.6 243.35 53.1 Q 243.85 53.6 244.55 53.6 Q 244.85 53.6 245.25 53.5 L 246.05 53.199997 Q 246.25 53.1 246.75 53.1 Q 247.55 53.1 248.15 53.699997 Q 248.75 54.300003 248.75 55.1 L 248.75 61.1 Q 248.75 62.5 247.45 63 L 244.05 64.2 Q 242.85 64.5 242.85 65.9 Z M 239.15 80.7 L 239.15 68.6 Q 239.15 67.9 238.6 67.35 Q 238.05 66.8 237.35 66.8 Q 237.05 66.8 236.75 66.9 L 232.05 68.6 Q 230.85 69.1 230.85 70.3 L 230.85 82.4 Q 230.85 83.2 231.35 83.7 Q 231.85 84.2 232.65 84.2 Q 232.95 84.2 233.25 84.1 L 237.95 82.4 Q 239.15 81.9 239.15 80.7 Z " fill="black"/>
    <rect x="251.25" y="75.5" width="30.000002" height="75" stroke="orange" stroke-width="1" fill="none"/>
    <path d="M 272.85 103.4 L 272.85 115.6 Q 272.85 116.4 273.35 116.9 Q 273.85 117.4 274.65 117.4 Q 274.95 117.4 275.25 117.3 L 276.05 117 Q 276.35 116.9 276.75 116.9 Q 277.55 116.9 278.15 117.5 Q 278.75 118.1 278.75 118.9 L 278.75 124.9 Q 278.75 126.2 277.45 126.7 L 274.05 128 Q 272.85 128.5 272.85 129.6 L 272.85 144.2 Q 272.85 145 272.3 145.55 Q 271.75 146.1 271.05 146.1 Q 270.25 146.1 269.7 145.55 Q 269.15 145 269.15 144.2 L 269.15 132.3 Q 269.15 131.5 268.6 131 Q 268.05 130.5 267.35 130.5 Q 266.95 130.5 266.65 130.6 L 262.05 132.4 Q 260.85 132.8 260.85 134 L 260.85 148.6 Q 260.85 149.4 260.25 149.95 Q 259.65 150.5 258.95 150.5 Q 258.25 150.5 257.7 149.95 Q 257.15 149.4 257.15 148.6 L 257.15 136.7 Q 257.15 135.9 256.6 135.4 Q 256.05 134.9 255.35 134.9 Q 255.05 134.9 254.75 135 L 253.95 135.3 Q 253.75 135.4 253.25 135.4 Q 252.45 135.4 251.85 134.8 Q 251.25 134.2 251.25 133.4 L 251.25 127.4 Q 251.25 126 252.55 125.5 L 255.95 124.3 Q 257.15 124 257.15 122.6 L 257.15 110.4 Q 257.15 109.6 256.6 109.1 Q 256.05 108.6 255.35 108.6 Q 255.05 108.6 254.85 108.7 L 253.95 109 Q 253.75 109.1 253.25 109.1 Q 252.45 109.1 251.85 108.5 Q 251.25 107.9 251.25 107.1 L 251.25 101.1 Q 251.25 99.8 252.55 99.3 L 256.05 98 Q 257.15 97.5 257.15 96.4 L 257.15 81.8 Q 257.15 81 257.7 80.45 Q 258.25 79.899994 258.95 79.899994 Q 259.65 79.899994 260.25 80.45 Q 260.85 81 260.85 81.8 L 260.85 93.7 Q 260.85 94.5 261.4 95 Q 261.95 95.5 262.75 95.5 Q 263.05 95.5 263.35 95.4 L 267.95 93.6 Q 269.15 93.1 269.15 91.9 L 269.15 77.399994 Q 269.15 76.6 269.7 76.05 Q 270.25 75.5 271.05 75.5 Q 271.75 75.5 272.3 76.05 Q 272.85 76.6 272.85 77.399994 L 272.85 89.4 Q 272.85 90.1 273.35 90.6 Q 273.85 91.1 274.55 91.1 Q 274.85 91.1 275.25 91 L 276.05 90.7 Q 276.25 90.6 276.75 90.6 Q 277.55 90.6 278.15 91.2 Q 278.75 91.8 278.75 92.6 L 278.75 98.6 Q 278.75 100 277.45 100.5 L 274.05 101.7 Q 272.85 102 272.85 103.4 Z M 269.15 118.2 L 269.15 106.1 Q 269.15 105.4 268.6 104.85 Q 268.05 104.3 267.35 104.3 Q 267.05 104.3 266.75 104.4 L 262.05 106.1 Q 260.85 106.6 260.85 107.8 L 260.85 119.9 Q 260.85 120.7 261.35 121.2 Q 261.85 121.7 262.65 121.7 Q 262.95 121.7 263.25 121.6 L 267.95 119.9 Q 269.15 119.4 269.15 118.2 Z " fill="black"/>
    <rect x="281.25" y="25.5" width="30.000002" height="75" stroke="orange" stroke-width="1" fill="none"/>
    <path d="M 302.85 53.4 L 302.85 65.6 Q 302.85 66.4 303.35 66.9 Q 303.85 67.4 304.65 67.4 Q 304.95 67.4 305.25 67.3 L 306.05 67 Q 306.35 66.9 306.75 66.9 Q 307.55 66.9 308.15 67.5 Q 308.75 68.1 308.75 68.9 L 308.75 74.9 Q 308.75 76.2 307.45 76.7 L 304.05 78 Q 302.85 78.5 302.85 79.6 L 302.85 94.2 Q 302.85 95 302.3 95.55 Q 301.75 96.100006 301.05 96.100006 Q 300.25 96.100006 299.7 95.55 Q 299.15 95 299.15 94.2 L 299.15 82.3 Q 299.15 81.5 298.6 81 Q 298.05 80.5 297.35 80.5 Q 296.95 80.5 296.65 80.6 L 292.05 82.4 Q 290.85 82.8 290.85 84 L 290.85 98.600006 Q 290.85 99.4 290.25 99.95 Q 289.65 100.5 288.95 100.5 Q 288.25 100.5 287.7 99.95 Q 287.15 99.4 287.15 98.600006 L 287.15 86.7 Q 287.15 85.9 286.6 85.4 Q 286.05 84.9 285.35 84.9 Q 285.05 84.9 284.75 85 L 283.95 85.3 Q 283.75 85.4 283.25 85.4 Q 282.45 85.4 281.85 84.8 Q 281.25 84.2 281.25 83.4 L 281.25 77.4 Q 281.25 76 282.55 75.5 L 285.95 74.3 Q 287.15 74 287.15 72.6 L 287.15 60.4 Q 287.15 59.6 286.6 59.1 Q 286.05 58.6 285.35 58.6 Q 285.05 58.6 284.85 58.699997 L 283.95 59 Q 283.75 59.1 283.25 59.1 Q 282.45 59.1 281.85 58.5 Q 281.25 57.9 281.25 57.1 L 281.25 51.1 Q 281.25 49.800003 282.55 49.300003 L 286.05 48 Q 287.15 47.5 287.15 46.4 L 287.15 31.800003 Q 287.15 31 287.7 30.449997 Q 288.25 29.899994 288.95 29.899994 Q 289.65 29.899994 290.25 30.449997 Q 290.85 31 290.85 31.800003 L 290.85 43.699997 Q 290.85 44.5 291.4 45 Q 291.95 45.5 292.75 45.5 Q 293.05 45.5 293.35 45.4 L 297.95 43.6 Q 299.15 43.1 299.15 41.9 L 299.15 27.399994 Q 299.15 26.599998 299.7 26.050003 Q 300.25 25.5 301.05 25.5 Q 301.75 25.5 302.3 26.050003 Q 302.85 26.599998 302.85 27.399994 L 302.85 39.4 Q 302.85 40.1 303.35 40.6 Q 303.85 41.1 304.55 41.1 Q 304.85 41.1 305.25 41 L 306.05 40.699997 Q 306.25 40.6 306.75 40.6 Q 307.55 40.6 308.15 41.199997 Q 308.75 41.800003 308.75 42.6 L 308.75 48.6 Q 308.75 50 307.45 50.5 L 304.05 51.699997 Q 302.85 52 302.85 53.4 Z M 299.15 68.2 L 299.15 56.1 Q 299.15 55.4 298.6 54.85 Q 298.05 54.300003 297.35 54.300003 Q 297.05 54.300003 296.75 54.4 L 292.05 56.1 Q 290.85 56.6 290.85 57.800003 L 290.85 69.9 Q 290.85 70.7 291.35 71.2 Q 291.85 71.7 292.65 71.7 Q 292.95 71.7 293.25 71.6 L 297.95 69.9 Q 299.15 69.4 299.15 68.2 Z " fill="black"/>
    <rect x="311.25" y="63" width="30.000002" height="75" stroke="orange" stroke-width="1" fill="none"/>
    <path d="M 332.85 90.9 L 332.85 103.1 Q 332.85 103.9 333.35 104.4 Q 333.85 104.9 334.65 104.9 Q 334.95 104.9 335.25 104.8 L 336.05 104.5 Q 336.35 104.4 336.75 104.4 Q 337.55 104.4 338.15 105 Q 338.75 105.6 338.75 106.4 L 338.75 112.4 Q 338.75 113.7 337.45 114.2 L 334.05 115.5 Q 332.85 116 332.85 117.1 L 332.85 131.7 Q 332.85 132.5 332.3 133.05 Q 331.75 133.6 331.05 133.6 Q 330.25 133.6 329.7 133.05 Q 329.15 132.5 329.15 131.7 L 329.15 119.8 Q 329.15 119 328.6 118.5 Q 328.05 118 327.35 118 Q 326.95 118 326.65 118.1 L 322.05 119.9 Q 320.85 120.3 320.85 121.5 L 320.85 136.1 Q 320.85 136.9 320.25 137.45 Q 319.65 138 318.95 138 Q 318.25 138 317.7 137.45 Q 317.15 136.9 317.15 136.1 L 317.15 124.2 Q 317.15 123.4 316.6 122.9 Q 316.05 122.4 315.35 122.4 Q 315.05 122.4 314.75 122.5 L 313.95 122.8 Q 313.75 122.9 313.25 122.9 Q 312.45 122.9 311.85 122.3 Q 311.25 121.7 311.25 120.9 L 311.25 114.9 Q 311.25 113.5 312.55 113 L 315.95 111.8 Q 317.15 111.5 317.15 110.1 L 317.15 97.9 Q 317.15 97.1 316.6 96.6 Q 316.05 96.1 315.35 96.1 Q 315.05 96.1 314.85 96.2 L 313.95 96.5 Q 313.75 96.6 313.25 96.6 Q 312.45 96.6 311.85 96 Q 311.25 95.4 311.25 94.6 L 311.25 88.6 Q 311.25 87.3 312.55 86.8 L 316.05 85.5 Q 317.15 85 317.15 83.9 L 317.15 69.3 Q 317.15 68.5 317.7 67.95 Q 318.25 67.399994 318.95 67.399994 Q 319.65 67.399994 320.25 67.95 Q 320.85 68.5 320.85 69.3 L 320.85 81.2 Q 320.85 82 321.4 82.5 Q 321.95 83 322.75 83 Q 323.05 83 323.35 82.9 L 327.95 81.1 Q 329.15 80.6 329.15 79.4 L 329.15 64.899994 Q 329.15 64.1 329.7 63.55 Q 330.25 63 331.05 63 Q 331.75 63 332.3 63.55 Q 332.85 64.1 332.85 64.899994 L 332.85 76.9 Q 332.85 77.6 333.35 78.1 Q 333.85 78.6 334.55 78.6 Q 334.85 78.6 335.25 78.5 L 336.05 78.2 Q 336.25 78.1 336.75 78.1 Q 337.55 78.1 338.15 78.7 Q 338.75 79.3 338.75 80.1 L 338.75 86.1 Q 338.75 87.5 337.45 88 L 334.05 89.2 Q 332.85 89.5 332.85 90.9 Z M 329.15 105.7 L 329.15 93.6 Q 329.15 92.9 328.6 92.35 Q 328.05 91.8 327.35 91.8 Q 327.05 91.8 326.75 91.9 L 322.05 93.6 Q 320.85 94.1 320.85 95.3 L 320.85 107.4 Q 320.85 108.2 321.35 108.7 Q 321.85 109.2 322.65 109.2 Q 322.95 109.2 323.25 109.1 L 327.95 107.4 Q 329.15 106.9 329.15 105.7 Z " fill="black"/>
    <rect x="341.25" y="0.5" width="30.000002" height="75" stroke="orange" stroke-width="1" fill="none"/>
    <path d="M 362.85 28.400002 L 362.85 40.6 Q 362.85 41.4 363.35 41.9 Q 363.85 42.4 364.65 42.4 Q 364.95 42.4 365.25 42.300003 L 366.05 42 Q 366.35 41.9 366.75 41.9 Q 367.55 41.9 368.15 42.5 Q 368.75 43.1 368.75 43.9 L 368.75 49.9 Q 368.75 51.199997 367.45 51.699997 L 364.05 53 Q 362.85 53.5 362.85 54.6 L 362.85 69.2 Q 362.85 70 362.3 70.55 Q 361.75 71.100006 361.05 71.100006 Q 360.25 71.100006 359.7 70.55 Q 359.15 70 359.15 69.2 L 359.15 57.300003 Q 359.15 56.5 358.6 56 Q 358.05 55.5 357.35 55.5 Q 356.95 55.5 356.65 55.6 L 352.05 57.4 Q 350.85 57.800003 350.85 59 L 350.85 73.600006 Q 350.85 74.4 350.25 74.95 Q 349.65 75.5 348.95 75.5 Q 348.25 75.5 347.7 74.95 Q 347.15 74.4 347.15 73.600006 L 347.15 61.7 Q 347.15 60.9 346.6 60.4 Q 346.05 59.9 345.35 59.9 Q 345.05 59.9 344.75 60 L 343.95 60.300003 Q 343.75 60.4 343.25 60.4 Q 342.45 60.4 341.85 59.800003 Q 341.25 59.199997 341.25 58.4 L 341.25 52.4 Q 341.25 51 342.55 50.5 L 345.95 49.300003 Q 347.15 49 347.15 47.6 L 347.15 35.4 Q 347.15 34.6 346.6 34.1 Q 346.05 33.6 345.35 33.6 Q 345.05 33.6 344.85 33.699997 L 343.95 34 Q 343.75 34.1 343.25 34.1 Q 342.45 34.1 341.85 33.5 Q 341.25 32.9 341.25 32.1 L 341.25 26.099998 Q 341.25 24.800003 342.55 24.300003 L 346.05 23 Q 347.15 22.5 347.15 21.400002 L 347.15 6.800003 Q 347.15 6 347.7 5.449997 Q 348.25 4.899994 348.95 4.899994 Q 349.65 4.899994 350.25 5.449997 Q 350.85 6 350.85 6.800003 L 350.85 18.699997 Q 350.85 19.5 351.4 20 Q 351.95 20.5 352.75 20.5 Q 353.05 20.5 353.35 20.400002 L 357.95 18.599998 Q 359.15 18.099998 359.15 16.900002 L 359.15 2.399994 Q 359.15 1.5999985 359.7 1.050003 Q 360.25 0.5 361.05 0.5 Q 361.75 0.5 362.3 1.050003 Q 362.85 1.5999985 362.85 2.399994 L 362.85 14.400002 Q 362.85 15.099998 363.35 15.599998 Q 363.85 16.099998 364.55 16.099998 Q 364.85 16.099998 365.25 16 L 366.05 15.699997 Q 366.25 15.599998 366.75 15.599998 Q 367.55 15.599998 368.15 16.199997 Q 368.75 16.800003 368.75 17.599998 L 368.75 23.599998 Q 368.75 25 367.45 25.5 L 364.05 26.699997 Q 362.85 27 362.85 28.400002 Z M 359.15 43.199997 L 359.15 31.099998 Q 359.15 30.400002 358.6 29.849998 Q 358.05 29.300003 357.35 29.300003 Q 357.05 29.300003 356.75 29.400002 L 352.05 31.099998 Q 350.85 31.599998 350.85 32.800003 L 350.85 44.9 Q 350.85 45.699997 351.35 46.199997 Q 351.85 46.699997 352.65 46.699997 Q 352.95 46.699997 353.25 46.6 L 357.95 44.9 Q 359.15 44.4 359.15 43.199997 Z " fill="black"/>
    <rect x="371.25" y="50.5" width="30.000002" height="75" stroke="orange" stroke-width="1" fill="none"/>
    <path d="M 392.85 78.4 L 392.85 90.6 Q 392.85 91.4 393.35 91.9 Q 393.85 92.4 394.65 92.4 Q 394.95 92.4 395.25 92.3 L 396.05 92 Q 396.35 91.9 396.75 91.9 Q 397.55 91.9 398.15 92.5 Q 398.75 93.1 398.75 93.9 L 398.75 99.9 Q 398.75 101.2 397.45 101.7 L 394.05 103 Q 392.85 103.5 392.85 104.6 L 392.85 119.2 Q 392.85 120 392.3 120.55 Q 391.75 121.100006 391.05 121.100006 Q 390.25 121.100006 389.7 120.55 Q 389.15 120 389.15 119.2 L 389.15 107.3 Q 389.15 106.5 388.6 106 Q 388.05 105.5 387.35 105.5 Q 386.95 105.5 386.65 105.6 L 382.05 107.4 Q 380.85 107.8 380.85 109 L 380.85 123.600006 Q 380.85 124.4 380.25 124.95 Q 379.65 125.5 378.95 125.5 Q 378.25 125.5 377.7 124.95 Q 377.15 124.4 377.15 123.600006 L 377.15 111.7 Q 377.15 110.9 376.6 110.4 Q 376.05 109.9 375.35 109.9 Q 375.05 109.9 374.75 110 L 373.95 110.3 Q 373.75 110.4 373.25 110.4 Q 372.45 110.4 371.85 109.8 Q 371.25 109.2 371.25 108.4 L 371.25 102.4 Q 371.25 101 372.55 100.5 L 375.95 99.3 Q 377.15 99 377.15 97.6 L 377.15 85.4 Q 377.15 84.6 376.6 84.1 Q 376.05 83.6 375.35 83.6 Q 375.05 83.6 374.85 83.7 L 373.95 84 Q 373.75 84.1 373.25 84.1 Q 372.45 84.1 371.85 83.5 Q 371.25 82.9 371.25 82.1 L 371.25 76.1 Q 371.25 74.8 372.55 74.3 L 376.05 73 Q 377.15 72.5 377.15 71.4 L 377.15 56.800003 Q 377.15 56 377.7 55.449997 Q 378.25 54.899994 378.95 54.899994 Q 379.65 54.899994 380.25 55.449997 Q 380.85 56 380.85 56.800003 L 380.85 68.7 Q 380.85 69.5 381.4 70 Q 381.95 70.5 382.75 70.5 Q 383.05 70.5 383.35 70.4 L 387.95 68.6 Q 389.15 68.1 389.15 66.9 L 389.15 52.399994 Q 389.15 51.6 389.7 51.050003 Q 390.25 50.5 391.05 50.5 Q 391.75 50.5 392.3 51.050003 Q 392.85 51.6 392.85 52.399994 L 392.85 64.4 Q 392.85 65.1 393.35 65.6 Q 393.85 66.1 394.55 66.1 Q 394.85 66.1 395.25 66 L 396.05 65.7 Q 396.25 65.6 396.75 65.6 Q 397.55 65.6 398.15 66.2 Q 398.75 66.8 398.75 67.6 L 398.75 73.6 Q 398.75 75 397.45 75.5 L 394.05 76.7 Q 392.85 77 392.85 78.4 Z M 389.15 93.2 L 389.15 81.1 Q 389.15 80.4 388.6 79.85 Q 388.05 79.3 387.35 79.3 Q 387.05 79.3 386.75 79.4 L 382.05 81.1 Q 380.85 81.6 380.85 82.8 L 380.85 94.9 Q 380.85 95.7 381.35 96.2 Q 381.85 96.7 382.65 96.7 Q 382.95 96.7 383.25 96.6 L 387.95 94.9 Q 389.15 94.4 389.15 93.2 Z " fill="black"/>
    <rect x="221.25" y="275.5" width="27.5" height="75" stroke="orange" stroke-width="1" fill="none"/>
    <path d="M 225.85 334.1 Q 225.85 335.3 226.85 335.7 Q 228.05 336.2 228.85 335.4 Q 235.45 329.4 235.45 321.8 Q 235.45 319.1 234.3 317.1 Q 233.15 315.1 231.15 315.1 Q 228.95 315.1 227.55 317 Q 226.15 318.9 226.05 321.4 L 225.85 334.1 Z M 228.65 312 Q 232.85 309.9 235.55 309.9 Q 239.35 309.9 241.65 312.9 Q 243.95 315.9 243.95 320.1 Q 243.95 323 243.1 325.35 Q 242.25 327.7 240.45 329.65 Q 238.65 331.6 237.1 332.9 Q 235.55 334.2 233.05 336.05 Q 230.55 337.9 229.25 339 Q 228.75 339.4 227.95 340.5 Q 227.15 341.6 226.4 342.2 Q 225.65 342.8 224.75 342.8 Q 223.75 342.8 223.1 342.1 Q 222.45 341.4 222.45 340.3 L 221.25 279.8 Q 222.55 279 223.95 279 Q 225.35 279 226.65 279.8 L 226.05 310.4 Q 226.05 311.4 226.85 311.9 Q 227.75 312.5 228.65 312 Z " fill="black"/>
    <rect x="248.75" y="238" width="27.5" height="75" stroke="orange" stroke-width="1" fill="none"/>
    <path d="M 253.35 296.6 Q 253.35 297.8 254.35 298.2 Q 255.55 298.7 256.35 297.9 Q 262.95 291.9 262.95 284.3 Q 262.95 281.6 261.8 279.6 Q 260.65 277.6 258.65 277.6 Q 256.45 277.6 255.05 279.5 Q 253.65 281.4 253.55 283.9 L 253.35 296.6 Z M 256.15 274.5 Q 260.35 272.4 263.05 272.4 Q 266.85 272.4 269.15 275.4 Q 271.45 278.4 271.45 282.6 Q 271.45 285.5 270.6 287.85 Q 269.75 290.2 267.95 292.15 Q 266.15 294.1 264.6 295.4 Q 263.05 296.7 260.55 298.55 Q 258.05 300.4 256.75 301.5 Q 256.25 301.9 255.45 303 Q 254.65 304.1 253.9 304.7 Q 253.15 305.3 252.25 305.3 Q 251.25 305.3 250.6 304.6 Q 249.95 303.9 249.95 302.8 L 248.75 242.3 Q 250.05 241.5 251.45 241.5 Q 252.85 241.5 254.15 242.3 L 253.55 272.9 Q 253.55 273.9 254.35 274.4 Q 255.25 275 256.15 274.5 Z " fill="black"/>
    <rect x="276.25" y="288" width="27.5" height="75" stroke="orange" stroke-width="1" fill="none"/>
    <path d="M 280.85 346.6 Q 280.85 347.8 281.85 348.2 Q 283.05 348.7 283.85 347.9 Q 290.45 341.9 290.45 334.3 Q 290.45 331.6 289.3 329.6 Q 288.15 327.6 286.15 327.6 Q 283.95 327.6 282.55 329.5 Q 281.15 331.4 281.05 333.9 L 280.85 346.6 Z M 283.65 324.5 Q 287.85 322.4 290.55 322.4 Q 294.35 322.4 296.65 325.4 Q 298.95 328.4 298.95 332.6 Q 298.95 335.5 298.1 337.85 Q 297.25 340.2 295.45 342.15 Q 293.65 344.1 292.1 345.4 Q 290.55 346.7 288.05 348.55 Q 285.55 350.4 284.25 351.5 Q 283.75 351.9 282.95 353 Q 282.15 354.1 281.4 354.7 Q 280.65 355.3 279.75 355.3 Q 278.75 355.3 278.1 354.6 Q 277.45 353.9 277.45 352.8 L 276.25 292.3 Q 277.55 291.5 278.95 291.5 Q 280.35 291.5 281.65 292.3 L 281.05 322.9 Q 281.05 323.9 281.85 324.4 Q 282.75 325 283.65 324.5 Z " fill="black"/>
    <rect x="303.75" y="250.5" width="27.5" height="75" stroke="orange" stroke-width="1" fill="none"/>
    <path d="M 308.35 309.1 Q 308.35 310.3 309.35 310.7 Q 310.55 311.2 311.35 310.4 Q 317.95 304.4 317.95 296.8 Q 317.95 294.1 316.8 292.1 Q 315.65 290.1 313.65 290.1 Q 311.45 290.1 310.05 292 Q 308.65 293.9 308.55 296.4 L 308.35 309.1 Z M 311.15 287 Q 315.35 284.9 318.05 284.9 Q 321.85 284.9 324.15 287.9 Q 326.45 290.9 326.45 295.1 Q 326.45 298 325.6 300.35 Q 324.75 302.7 322.95 304.65 Q 321.15 306.6 319.6 307.9 Q 318.05 309.2 315.55 311.05 Q 313.05 312.9 311.75 314 Q 311.25 314.4 310.45 315.5 Q 309.65 316.6 308.9 317.2 Q 308.15 317.8 307.25 317.8 Q 306.25 317.8 305.6 317.1 Q 304.95 316.4 304.95 315.3 L 303.75 254.8 Q 305.05 254 306.45 254 Q 307.85 254 309.15 254.8 L 308.55 285.4 Q 308.55 286.4 309.35 286.9 Q 310.25 287.5 311.15 287 Z " fill="black"/>
    <rect x="331.25" y="300.5" width="27.5" height="75" stroke="orange" stroke-width="1" fill="none"/>
    <path d="M 335.85 359.1 Q 335.85 360.3 336.85 360.7 Q 338.05 361.2 338.85 360.4 Q 345.45 354.4 345.45 346.8 Q 345.45 344.1 344.3 342.1 Q 343.15 340.1 341.15 340.1 Q 338.95 340.1 337.55 342 Q 336.15 343.9 336.05 346.4 L 335.85 359.1 Z M 338.65 337 Q 342.85 334.9 345.55 334.9 Q 349.35 334.9 351.65 337.9 Q 353.95 340.9 353.95 345.1 Q 353.95 348 353.1 350.35 Q 352.25 352.7 350.45 354.65 Q 348.65 356.6 347.1 357.9 Q 345.55 359.2 343.05 361.05 Q 340.55 362.9 339.25 364 Q 338.75 364.4 337.95 365.5 Q 337.15 366.6 336.4 367.2 Q 335.65 367.8 334.75 367.8 Q 333.75 367.8 333.1 367.1 Q 332.45 366.4 332.45 365.3 L 331.25 304.8 Q 332.55 304 333.95 304 Q 335.35 304 336.65 304.8 L 336.05 335.4 Q 336.05 336.4 336.85 336.9 Q 337.75 337.5 338.65 337 Z " fill="black"/>
    <rect x="358.75" y="263" width="27.5" height="75" stroke="orange" stroke-width="1" fill="none"/>
    <path d="M 363.35 321.6 Q 363.35 322.8 364.35 323.2 Q 365.55 323.7 366.35 322.9 Q 372.95 316.9 372.95 309.3 Q 372.95 306.6 371.8 304.6 Q 370.65 302.6 368.65 302.6 Q 366.45 302.6 365.05 304.5 Q 363.65 306.4 363.55 308.9 L 363.35 321.6 Z M 366.15 299.5 Q 370.35 297.4 373.05 297.4 Q 376.85 297.4 379.15 300.4 Q 381.45 303.4 381.45 307.6 Q 381.45 310.5 380.6 312.85 Q 379.75 315.2 377.95 317.15 Q 376.15 319.1 374.6 320.4 Q 373.05 321.7 370.55 323.55 Q 368.05 325.4 366.75 326.5 Q 366.25 326.9 365.45 328 Q 364.65 329.1 363.9 329.7 Q 363.15 330.3 362.25 330.3 Q 361.25 330.3 360.6 329.6 Q 359.95 328.9 359.95 327.8 L 358.75 267.3 Q 360.05 266.5 361.45 266.5 Q 362.85 266.5 364.15 267.3 L 363.55 297.9 Q 363.55 298.9 364.35 299.4 Q 365.25 300 366.15 299.5 Z " fill="black"/>
    <path d="M 401.25 128.9 Q 401.25 122.9 407.85 117.35 Q 414.45 111.8 421.35 111.8 Q 424.15 111.8 426.7 112.5 Q 429.25 113.2 431.55 115.7 Q 433.85 118.2 433.85 122.1 Q 433.85 127.6 427.15 133.4 Q 420.45 139.2 413.75 139.2 Q 410.95 139.2 408.4 138.5 Q 405.85 137.8 403.55 135.3 Q 401.25 132.8 401.25 128.9 Z " fill="black"/>
    <path d="M 401.25 328.9 Q 401.25 322.9 407.85 317.35 Q 414.45 311.8 421.35 311.8 Q 424.15 311.8 426.7 312.5 Q 429.25 313.2 431.55 315.7 Q 433.85 318.2 433.85 322.1 Q 433.85 327.6 427.15 333.4 Q 420.45 339.2 413.75 339.2 Q 410.95 339.2 408.4 338.5 Q 405.85 337.8 403.55 335.3 Q 401.25 332.8 401.25 328.9 Z " fill="black"/>
    <path d="M 506.25 128.9 Q 506.25 122.9 512.85 117.35 Q 519.45 111.8 526.35 111.8 Q 529.15 111.8 531.7 112.5 Q 534.25 113.2 536.55 115.7 Q 538.85 118.2 538.85 122.1 Q 538.85 127.6 532.15 133.4 Q 525.45 139.2 518.75 139.2 Q 515.95 139.2 513.4 138.5 Q 510.85 137.8 508.55 135.3 Q 506.25 132.8 506.25 128.9 Z " fill="black"/>
    <path d="M 506.25 328.9 Q 506.25 322.9 512.85 317.35 Q 519.45 311.8 526.35 311.8 Q 529.15 311.8 531.7 312.5 Q 534.25 313.2 536.55 315.7 Q 538.85 318.2 538.85 322.1 Q 538.85 327.6 532.15 333.4 Q 525.45 339.2 518.75 339.2 Q 515.95 339.2 513.4 338.5 Q 510.85 337.8 508.55 335.3 Q 506.25 332.8 506.25 328.9 Z " fill="black"/>
    <rect x="611.25" y="25.5" width="10" height="200" stroke="orange" stroke-width="1" fill="none"/>
    <rect x="611.25" y="225.5" width="10" height="200" stroke="orange" stroke-width="1" fill="none"/>
    <line x1="12.75" y1="129.5" x2="12.75" y2="214.7857" stroke="black" stroke-width="3"/>
    <line x1="117.75" y1="129.5" x2="117.75" y2="214.7857" stroke="black" stroke-width="3"/>
    <line x1="402.75" y1="129.5" x2="402.75" y2="214.7857" stroke="black" stroke-width="3"/>
    <line x1="507.75" y1="129.5" x2="507.75" y2="214.7857" stroke="black" stroke-width="3"/>
    <line x1="12.75" y1="329.5" x2="12.75" y2="414.7857" stroke="black" stroke-width="3"/>
    <line x1="117.75" y1="329.5" x2="117.75" y2="414.7857" stroke="black" stroke-width="3"/>
    <line x1="402.75" y1="329.5" x2="402.75" y2="414.7857" stroke="black" stroke-width="3"/>
    <line x1="507.75" y1="329.5" x2="507.75" y2="414.7857" stroke="black" stroke-width="3"/>
    <rect x="0" y="0" width="622.5" height="426" stroke="black" stroke-width="1" fill="none"/>
</svg>
