<svg xmlns="http://www.w3.org/2000/svg" xmlns:xlink="http://www.w3.org/1999/xlink" viewBox="0 0 626.5 250.74904">
	<line x1="1.25" y1="50.5" x2="625.25" y2="50.5" stroke="black" stroke-width="2.5" />
	<line x1="1.25" y1="75.5" x2="625.25" y2="75.5" stroke="black" stroke-width="2.5" />
	<line x1="1.25" y1="100.5" x2="625.25" y2="100.5" stroke="black" stroke-width="2.5" />
	<line x1="1.25" y1="125.5" x2="625.25" y2="125.5" stroke="black" stroke-width="2.5" />
	<line x1="1.25" y1="150.5" x2="625.25" y2="150.5" stroke="black" stroke-width="2.5" />
	<rect x="1.25" y="0.5" width="10" height="200" stroke="orange" stroke-width="1" fill="none" />
	<rect x="1.25" y="218" width="10" height="25" stroke="orange" stroke-width="1" fill="none" />
	<rect x="11.25" y="10.5" width="74" height="186" stroke="orange" stroke-width="1" fill="none" />
	<path d="M 36.050003 69 Q 33.75 61.7 32.85 56 Q 32.050003 51.199997 32.050003 44.799995 Q 32.050003 42.6 32.15 40.4 Q 32.550003 30.900002 36.050003 22.949997 Q 39.550003 15 46.55 10.799995 Q 47.05 10.5 47.850002 10.5 Q 48.55 10.5 49.05 11 Q 54.65 16.599998 57.65 25.299995 Q 60.65 34 60.65 42.9 Q 60.65 53.199997 56.25 63.1 Q 52.05 73 44.45 80.6 Q 43.850002 81.2 44.05 82.2 L 48.05 98.2 Q 48.350002 99.8 50.05 99.6 Q 51.65 99.4 53.15 99.4 Q 58.95 99.4 63.65 101.7 Q 68.350006 104 71.25 107.7 Q 74.15 111.4 75.700005 115.85 Q 77.25 120.3 77.25 125 Q 77.25 133.6 72.45 140.55 Q 67.65 147.5 60.95 149.7 Q 59.55 150.2 59.850002 151.8 Q 62.350002 163.6 62.45 171.7 Q 62.45 174.8 62.05 177.8 Q 61.25 184.7 56.05 189.9 Q 50.850002 195.1 43.65 195.1 Q 34.85 195.1 28.75 189.8 Q 22.650002 184.5 22.650002 175.9 Q 22.650002 171.5 25.75 168.3 Q 28.85 165.1 33.050003 165.1 Q 37.35 165.1 40.300003 168.15 Q 43.25 171.2 43.25 175.4 Q 43.25 179 40.85 181.7 Q 38.45 184.5 35.050003 184.8 Q 33.85 184.9 33.45 186 Q 33.050003 187.1 34.25 188 Q 37.85 190.8 43.050003 190.8 Q 48.75 190.8 52.9 186.7 Q 57.05 182.6 57.75 177.4 Q 58.25 173.8 58.25 170.2 Q 58.25 162.4 55.850002 152.9 Q 55.45 151.2 53.65 151.4 Q 49.65 151.9 46.25 151.9 Q 31.45 151.9 21.35 142.6 Q 11.25 133.3 11.25 117.3 Q 11.25 112.4 12.4 107.65 Q 13.55 102.9 15 99.45 Q 16.45 96 19.5 91.45 Q 22.55 86.899994 24.400002 84.5 Q 26.25 82.1 30.25 77.35 Q 34.25 72.6 35.75 70.7 Q 36.35 70 36.050003 69 Z M 51.65 114.7 L 58.15 144.2 Q 58.45 145.5 59.95 145.5 Q 60.350002 145.5 60.65 145.4 Q 64.75 143.7 67.45 138.8 Q 70.15 133.9 70.15 129.1 Q 70.15 122.1 66.05 117.3 Q 61.850002 112.4 53.45 112.4 Q 52.75 112.4 52.2 112.95 Q 51.65 113.5 51.65 114.2 Q 51.55 114.5 51.65 114.7 Z M 37.85 86.899994 Q 36.25 88.7 33.1 92.05 Q 29.95 95.4 28.4 97.15 Q 26.85 98.9 24.6 102.1 Q 22.35 105.3 21.25 108 Q 20.150002 110.7 19.3 114.6 Q 18.45 118.5 18.45 122.9 Q 18.45 129 22.2 134.7 Q 25.95 140.4 32.5 144 Q 39.050003 147.6 46.55 147.6 Q 49.25 147.6 52.55 147.3 Q 53.350002 147.2 53.850002 146.55 Q 54.350002 145.9 54.15 145.1 L 47.65 115.2 Q 47.350002 113.8 45.75 113.8 Q 45.45 113.8 45.05 113.9 Q 40.45 115.6 38.550003 118.7 Q 36.65 121.8 36.65 126.5 Q 36.65 132 42.65 136 Q 43.350002 136.5 43.350002 137.5 Q 43.350002 138.3 42.7 139 Q 42.050003 139.7 41.15 139.7 Q 40.65 139.7 40.25 139.5 Q 34.550003 136.5 31.800001 131.35 Q 29.050001 126.2 29.050001 120.5 Q 29.050001 115 33 109.15 Q 36.95 103.3 42.85 101.1 Q 44.350002 100.5 44.05 99 L 41.050003 87.7 Q 40.85 86.6 39.65 86.399994 Q 38.45 86.2 37.85 86.899994 Z M 54.65 28.699997 Q 53.850002 26.099998 51.95 26.099998 Q 51.350002 26.099998 50.850002 26.400002 Q 44.45 30.199997 40.7 37.1 Q 36.95 44 36.95 51.699997 Q 36.95 56.699997 39.050003 64 Q 39.35 65.1 40.550003 65.3 Q 41.550003 65.399994 42.25 64.6 Q 42.550003 64.2 45.100002 61.049995 Q 47.65 57.9 48.45 56.85 Q 49.25 55.799995 51.15 52.85 Q 53.05 49.9 53.8 47.949997 Q 54.55 46 55.25 43.1 Q 55.95 40.199997 55.95 37.299995 Q 55.95 33.1 54.65 28.699997 Z " fill="black" />
	<ellipse cx="16.25" cy="235.5" rx="5" ry="5" stroke="gray" stroke-width="1" fill="none" />
	<path d="M 91.25 178.9 Q 91.25 172.9 97.85 167.35 Q 104.45 161.8 111.35 161.8 Q 114.15 161.8 116.7 162.5 Q 119.25 163.2 121.55 165.7 Q 123.850006 168.2 123.850006 172.1 Q 123.850006 177.6 117.15 183.4 Q 110.45 189.2 103.75 189.2 Q 100.95 189.2 98.4 188.5 Q 95.85 187.8 93.55 185.3 Q 91.25 182.8 91.25 178.9 Z " fill="black" />
	<rect x="85" y="174.25" width="45" height="2.5" fill="black" />
	<path d="M 81.41905 206.64403 L 77.64817 206.07123 L 77.64817 203.6846 L 90.63146 203.6846 L 90.63146 206.07123 L 86.52645 206.64403 L 86.52645 219.48413 L 103.328354 219.48413 L 103.328354 206.64403 L 99.46201 206.07123 L 99.46201 203.6846 L 112.25438 203.6846 L 112.25438 206.07123 L 108.48349 206.64403 L 108.48349 236.33377 L 112.25438 236.8111 L 112.25438 239.15 L 99.414276 239.15 L 99.414276 236.8111 L 103.328354 236.33377 L 103.328354 222.44354 L 86.52645 222.44354 L 86.52645 236.33377 L 90.67919 236.8111 L 90.67919 239.15 L 77.552704 239.15 L 77.552704 236.8111 L 81.41905 236.33377 L 81.41905 206.64403 Z " fill="black" />
	<path d="M 117.45128 235.90417 Q 114.42025 232.13329 114.42025 225.83258 Q 114.42025 221.67982 115.99543 218.52946 Q 117.57061 215.37912 120.410706 213.66074 Q 123.2508 211.94235 126.87849 211.94235 Q 131.31763 211.94235 133.77586 214.40059 Q 136.23409 216.85883 136.37729 221.44116 Q 136.37729 224.35286 136.04315 225.88031 L 119.623116 225.88031 Q 119.71858 230.60583 121.81882 233.49367 Q 123.91905 236.3815 127.7854 236.3815 Q 129.69472 236.3815 131.77109 235.68938 Q 133.84746 234.99725 134.99304 234.0426 L 135.89996 236.14284 Q 134.51572 237.57481 131.79495 238.62494 Q 129.07419 239.67505 126.25796 239.67505 Q 120.4823 239.67505 117.45128 235.90417 Z M 131.1267 223.35046 Q 131.2699 222.34808 131.2699 221.29797 Q 131.22215 218.19534 129.95724 216.40536 Q 128.69232 214.61539 125.971565 214.61539 Q 123.203064 214.61539 121.55629 216.62016 Q 119.90951 218.62494 119.670845 223.35046 L 131.1267 223.35046 Z " fill="black" />
	<path d="M 142.31404 207.0259 Q 141.55032 206.1667 141.55032 204.83018 Q 141.55032 203.30273 142.48111 202.30035 Q 143.4119 201.29797 145.0348 201.29797 Q 146.65771 201.29797 147.42145 202.15717 Q 148.18517 203.01634 148.18517 204.35286 Q 148.18517 205.97577 147.25438 206.93042 Q 146.3236 207.88507 144.60521 207.88507 L 144.55748 207.88507 Q 143.07776 207.88507 142.31404 207.0259 Z M 138.82956 212.94475 L 146.22812 212.03783 L 146.3236 212.03783 L 147.3737 212.897 L 147.3737 238.81587 Q 147.3737 242.77768 146.22812 245.47458 Q 145.08253 248.17148 143.1255 249.46025 Q 141.16846 250.74904 138.73409 250.74904 Q 136.87251 250.74904 136.53839 250.5581 L 136.29973 248.31467 Q 136.68158 248.3624 137.42145 248.21921 Q 138.1613 248.076 138.92502 247.78961 Q 140.88206 247.12135 141.66965 244.56766 Q 142.45724 242.01396 142.45724 237.71802 L 142.45724 216.47696 L 138.82956 215.61777 L 138.82956 212.94475 Z " fill="black" />
	<path d="M 162.09328 233.5414 Q 163.14339 235.09271 163.14339 237.76575 Q 163.14339 240.48651 162.28421 243.01634 Q 161.42502 245.54617 160.13623 247.33615 Q 158.84746 249.12613 157.6064 249.84212 L 157.55867 249.84212 L 155.93576 248.69653 L 155.93576 248.17148 Q 156.89041 247.40775 157.86893 244.85405 Q 158.84746 242.30035 158.84746 240.00919 Q 158.84746 239.2932 158.58492 238.83974 Q 158.32239 238.38628 157.7496 237.76575 Q 157.08134 237.04976 156.74721 236.42923 Q 156.41309 235.8087 156.41309 234.75859 Q 156.41309 233.51753 157.20067 232.75381 Q 157.98827 231.99008 159.18158 231.99008 L 159.42024 231.99008 Q 161.04315 231.99008 162.09328 233.5414 Z " fill="black" />
	<path d="M 177.25 166.4 Q 177.25 160.4 183.85 154.85 Q 190.45 149.3 197.35 149.3 Q 200.15 149.3 202.7 150 Q 205.25 150.7 207.55 153.2 Q 209.85 155.7 209.85 159.6 Q 209.85 165.1 203.15 170.9 Q 196.45 176.7 189.75 176.7 Q 186.95 176.7 184.4 176 Q 181.85 175.3 179.55 172.8 Q 177.25 170.3 177.25 166.4 Z " fill="black" />
	<path d="M 180.41428 235.33138 Q 180.8916 236.04736 182.44292 236.62016 Q 183.99423 237.19295 185.7126 237.19295 Q 188.43336 237.19295 189.72215 236.14284 Q 191.01094 235.09271 191.01094 233.23114 Q 191.01094 231.94235 190.19948 230.9877 Q 189.38802 230.03305 187.93217 229.2932 Q 186.47633 228.55333 183.75557 227.50322 Q 180.08014 226.11897 178.38564 224.18579 Q 176.69113 222.25262 176.69113 219.10226 Q 176.69113 217.00201 177.95604 215.42685 Q 179.22096 213.85167 181.44052 212.96861 Q 183.6601 212.08556 186.38086 212.08556 Q 188.57657 212.08556 190.22334 212.41968 Q 191.87012 212.75381 192.87251 213.08795 Q 193.8749 213.42207 194.20903 213.51755 L 194.20903 219.43639 L 191.29733 219.43639 L 190.34268 215.90417 Q 190.05627 215.33138 188.81523 214.92566 Q 187.57417 214.51993 186.04674 214.51993 Q 183.89876 214.51993 182.58612 215.47458 Q 181.27347 216.42923 181.27347 218.05214 Q 181.27347 219.48413 181.96559 220.41492 Q 182.65771 221.3457 183.70782 221.91849 Q 184.75795 222.49129 186.5718 223.255 L 187.52644 223.63687 Q 190.19948 224.68698 191.87012 225.64163 Q 193.54077 226.5963 194.66249 228.14761 Q 195.78421 229.69891 195.78421 231.94235 Q 195.78421 235.47458 193.03957 237.57481 Q 190.29495 239.67505 185.52167 239.67505 Q 183.18277 239.67505 180.62907 239.03065 Q 178.07538 238.38628 176.45247 237.71802 L 176.45247 231.60823 L 179.55508 231.60823 L 180.41428 235.33138 Z " fill="black" />
	<path d="M 202.29375 225.37912 Q 206.78062 223.255 213.65413 223.11182 L 213.65413 221.7753 Q 213.65413 219.53186 213.1768 218.24307 Q 212.69948 216.95428 211.53003 216.35764 Q 210.36058 215.76097 208.2126 215.76097 Q 205.77823 215.76097 203.84506 216.4531 Q 201.9119 217.14522 200.00258 218.14761 L 198.80927 215.66551 Q 199.4298 215.14044 201.10043 214.28125 Q 202.77107 213.42207 204.96678 212.75381 Q 207.16249 212.08556 209.35818 212.08556 Q 212.74721 212.08556 214.72812 213.01634 Q 216.70901 213.94713 217.5682 215.99963 Q 218.4274 218.05214 218.4274 221.48889 L 218.4274 236.8111 L 221.24362 236.8111 L 221.24362 238.91133 Q 220.28897 239.15 218.83313 239.38866 Q 217.37729 239.62732 216.27943 239.62732 Q 214.94292 239.62732 214.46559 239.22159 Q 213.98827 238.81587 213.98827 237.43161 L 213.98827 235.85645 Q 212.55627 237.28842 210.4799 238.48174 Q 208.40353 239.67505 205.77823 239.67505 Q 202.34148 239.67505 200.07417 237.69415 Q 197.80687 235.71324 197.80687 231.99008 Q 197.80687 227.50322 202.29375 225.37912 Z M 210.6947 235.66551 Q 212.31761 234.90178 213.65413 233.85167 L 213.65413 225.64163 Q 208.45126 225.64163 205.80211 227.24069 Q 203.15294 228.83974 203.15294 231.4173 Q 203.15294 233.99486 204.41785 235.21205 Q 205.68277 236.42923 207.83075 236.42923 Q 209.0718 236.42923 210.6947 235.66551 Z " fill="black" />
	<path d="M 252.25 153.9 Q 252.25 147.9 258.85 142.35 Q 265.45 136.8 272.35 136.8 Q 275.15 136.8 277.7 137.5 Q 280.25 138.2 282.55 140.7 Q 284.85 143.2 284.85 147.1 Q 284.85 152.6 278.15 158.4 Q 271.45 164.2 264.75 164.2 Q 261.95 164.2 259.4 163.5 Q 256.85 162.8 254.55 160.3 Q 252.25 157.8 252.25 153.9 Z " fill="black" />
	<path d="M 246.29138 206.64403 L 242.56822 206.07123 L 242.56822 203.6846 L 248.91667 203.6846 Q 250.63506 203.6846 252.3057 203.54141 Q 254.88326 203.35046 257.17444 203.35046 Q 264.09567 203.39821 266.95963 205.92804 Q 269.8236 208.45787 269.8236 213.56528 Q 269.8236 217.38388 268.0575 220.20012 Q 266.29138 223.01634 263.1649 224.49606 Q 260.0384 225.97577 255.98111 225.97577 Q 254.59686 225.97577 253.16489 225.90417 Q 251.7329 225.83258 251.39877 225.78484 L 251.39877 236.28603 L 257.93814 236.8111 L 257.93814 239.15 L 242.32956 239.15 L 242.32956 236.8111 L 246.29138 236.33377 L 246.29138 206.64403 Z M 255.98111 223.39821 Q 259.75198 223.39821 262.11475 221.10704 Q 264.47754 218.81586 264.47754 213.613 Q 264.47754 209.508 262.42502 207.71802 Q 260.37253 205.92804 256.02884 205.92804 Q 254.5014 205.92804 252.78302 206.11897 Q 251.7329 206.21443 251.39877 206.21443 L 251.39877 223.15955 Q 252.73529 223.39821 255.98111 223.39821 Z " fill="black" />
	<path d="M 275.11594 235.90417 Q 272.08493 232.13329 272.08493 225.83258 Q 272.08493 221.67982 273.6601 218.52946 Q 275.23526 215.37912 278.07538 213.66074 Q 280.91547 211.94235 284.54315 211.94235 Q 288.9823 211.94235 291.44052 214.40059 Q 293.89874 216.85883 294.04196 221.44116 Q 294.04196 224.35286 293.70782 225.88031 L 277.28778 225.88031 Q 277.38324 230.60583 279.4835 233.49367 Q 281.5837 236.3815 285.45007 236.3815 Q 287.35938 236.3815 289.43576 235.68938 Q 291.51212 234.99725 292.6577 234.0426 L 293.56464 236.14284 Q 292.1804 237.57481 289.45963 238.62494 Q 286.73886 239.67505 283.92264 239.67505 Q 278.14697 239.67505 275.11594 235.90417 Z M 288.79135 223.35046 Q 288.93457 222.34808 288.93457 221.29797 Q 288.8868 218.19534 287.62192 216.40536 Q 286.357 214.61539 283.63623 214.61539 Q 280.86774 214.61539 279.22095 216.62016 Q 277.5742 218.62494 277.3355 223.35046 L 288.79135 223.35046 Z " fill="black" />
	<path d="M 300.74243 238.38628 Q 299.4059 237.14522 299.4059 234.13806 L 299.4059 215.80872 L 295.96915 215.80872 L 295.96915 213.66074 Q 296.20782 213.613 297.30566 213.3266 Q 298.40353 213.0402 298.78537 212.80154 Q 299.5491 212.37195 299.9787 211.08316 Q 300.36057 210.17624 300.88562 208.17148 Q 301.41068 206.1667 301.50613 205.78485 L 304.3224 205.78485 L 304.41785 212.65836 L 312.3892 212.65836 L 312.3892 215.80872 L 304.41785 215.80872 L 304.41785 230.46265 Q 304.41785 233.18341 304.5849 234.28127 Q 304.75198 235.3791 305.3009 235.71324 Q 305.84982 236.04736 307.18634 236.04736 Q 308.47513 236.04736 310.02643 235.71324 Q 311.57776 235.3791 312.43692 234.99725 L 313.15292 237.14522 Q 312.00732 238.00441 309.45364 238.81587 Q 306.89993 239.62732 304.7997 239.62732 Q 302.07895 239.62732 300.74243 238.38628 Z " fill="black" />
	<path d="M 330.25 141.4 Q 330.25 135.4 336.85 129.85 Q 343.45 124.3 350.35 124.3 Q 353.15 124.3 355.7 125 Q 358.25 125.7 360.55 128.2 Q 362.85 130.7 362.85 134.6 Q 362.85 140.1 356.15 145.9 Q 349.45 151.7 342.75 151.7 Q 339.95 151.7 337.4 151 Q 334.85 150.3 332.55 147.8 Q 330.25 145.3 330.25 141.4 Z " fill="black" />
	<path d="M 328.8956 236.8111 L 332.47556 236.52469 L 332.47556 216.33377 L 329.0388 215.47458 L 329.0388 212.897 L 335.62592 212.03783 L 335.72137 212.03783 L 336.77148 212.897 L 336.77148 213.7562 L 336.6283 217.47935 L 336.77148 217.47935 Q 337.2488 216.6679 338.48987 215.37912 Q 339.73093 214.09033 341.68796 213.01634 Q 343.645 211.94235 345.93616 211.94235 Q 346.8908 211.94235 347.51135 212.18103 L 347.51135 217.52708 Q 347.17722 217.28842 346.43735 217.07362 Q 345.6975 216.85883 344.7906 216.85883 Q 340.82877 216.85883 337.43976 219.2932 L 337.43976 236.47696 L 343.5018 236.85883 L 343.5018 239.15 L 328.8956 239.15 L 328.8956 236.8111 Z " fill="black" />
	<path d="M 351.68198 218.38628 Q 353.44806 215.23592 356.3359 213.58914 Q 359.22372 211.94235 362.51727 211.94235 Q 368.53162 211.94235 371.56262 215.76097 Q 374.59366 219.57959 374.59366 225.78484 Q 374.59366 230.12851 372.82755 233.27887 Q 371.06143 236.42923 368.1736 238.05214 Q 365.28577 239.67505 361.99222 239.67505 Q 355.9779 239.67505 352.94687 235.85645 Q 349.91586 232.03783 349.91586 225.83258 Q 349.91586 221.53662 351.68198 218.38628 Z M 367.3383 234.23352 Q 369.1044 231.51276 369.1044 226.1667 Q 369.1044 220.86838 367.48148 217.76575 Q 365.85858 214.66312 362.27863 214.66312 Q 358.98508 214.66312 357.1951 217.38388 Q 355.40512 220.10464 355.40512 225.45071 Q 355.40512 230.74904 357.07574 233.85167 Q 358.7464 236.95428 362.27863 236.95428 Q 365.57217 236.95428 367.3383 234.23352 Z " fill="black" />
	<path d="M 405.25 128.9 Q 405.25 122.9 411.85 117.35 Q 418.45 111.8 425.35 111.8 Q 428.15 111.8 430.7 112.5 Q 433.25 113.2 435.55 115.7 Q 437.85 118.2 437.85 122.1 Q 437.85 127.6 431.15 133.4 Q 424.45 139.2 417.75 139.2 Q 414.95 139.2 412.4 138.5 Q 409.85 137.8 407.55 135.3 Q 405.25 132.8 405.25 128.9 Z " fill="black" />
	<path d="M 399.0368 216.33377 L 395.60004 215.47458 L 395.60004 212.897 L 402.4258 212.03783 L 402.56903 212.03783 L 403.5714 212.897 L 403.5714 214.9018 L 403.52368 216.04736 Q 405.24207 214.51993 408.0583 213.27887 Q 410.8745 212.03783 413.4521 212.03783 Q 416.45923 212.03783 418.10602 213.18341 Q 419.7528 214.329 420.42105 216.69176 Q 421.0893 219.05453 421.0893 223.06407 L 421.0893 236.42923 L 424.4306 236.76337 L 424.4306 239.15 L 413.11795 239.15 L 413.11795 236.8111 L 416.07736 236.42923 L 416.07736 223.01634 Q 416.07736 220.20012 415.69553 218.60107 Q 415.31366 217.00201 414.26352 216.21443 Q 413.2134 215.42685 411.20865 215.42685 Q 409.49026 215.42685 407.53323 216.28604 Q 405.57617 217.14522 404.04874 218.2908 L 404.04874 236.3815 L 407.29456 236.8111 L 407.29456 239.15 L 396.02963 239.15 L 396.02963 236.8111 L 399.0368 236.3815 L 399.0368 216.33377 Z " fill="black" />
	<path d="M 430.43893 235.90417 Q 427.40793 232.13329 427.40793 225.83258 Q 427.40793 221.67982 428.9831 218.52946 Q 430.55826 215.37912 433.39838 213.66074 Q 436.23846 211.94235 439.86615 211.94235 Q 444.3053 211.94235 446.76352 214.40059 Q 449.22174 216.85883 449.36496 221.44116 Q 449.36496 224.35286 449.03082 225.88031 L 432.61078 225.88031 Q 432.70624 230.60583 434.8065 233.49367 Q 436.9067 236.3815 440.77307 236.3815 Q 442.68237 236.3815 444.75876 235.68938 Q 446.8351 234.99725 447.9807 234.0426 L 448.88763 236.14284 Q 447.5034 237.57481 444.78262 238.62494 Q 442.06186 239.67505 439.24564 239.67505 Q 433.46997 239.67505 430.43893 235.90417 Z M 444.11435 223.35046 Q 444.25757 222.34808 444.25757 221.29797 Q 444.2098 218.19534 442.94492 216.40536 Q 441.68 214.61539 438.95923 214.61539 Q 436.19073 214.61539 434.54395 216.62016 Q 432.8972 218.62494 432.6585 223.35046 L 444.11435 223.35046 Z " fill="black" />
	<path d="M 455.4449 203.54141 L 451.57855 203.01634 L 451.57855 200.96384 L 459.26352 200.05692 L 459.35898 200.05692 L 460.4091 200.7729 L 460.4091 236.42923 L 464.46637 236.8111 L 464.46637 239.15 L 451.57855 239.15 L 451.57855 236.8111 L 455.4449 236.3815 L 455.4449 203.54141 Z " fill="black" />
	<path d="M 510.25 128.9 Q 510.25 122.9 516.85 117.35 Q 523.45 111.8 530.35 111.8 Q 533.15 111.8 535.7 112.5 Q 538.25 113.2 540.55 115.7 Q 542.85 118.2 542.85 122.1 Q 542.85 127.6 536.15 133.4 Q 529.45 139.2 522.75 139.2 Q 519.95 139.2 517.4 138.5 Q 514.85 137.8 512.55 135.3 Q 510.25 132.8 510.25 128.9 Z " fill="black" />
	<path d="M 511.53082 203.54141 L 507.6645 203.01634 L 507.6645 200.96384 L 515.3494 200.05692 L 515.4449 200.05692 L 516.49506 200.7729 L 516.49506 236.42923 L 520.5523 236.8111 L 520.5523 239.15 L 507.6645 239.15 L 507.6645 236.8111 L 511.53082 236.3815 L 511.53082 203.54141 Z " fill="black" />
	<path d="M 527.921 225.37912 Q 532.4079 223.255 539.28143 223.11182 L 539.28143 221.7753 Q 539.28143 219.53186 538.8041 218.24307 Q 538.3268 216.95428 537.1573 216.35764 Q 535.98785 215.76097 533.8399 215.76097 Q 531.4055 215.76097 529.47235 216.4531 Q 527.5392 217.14522 525.6299 218.14761 L 524.4365 215.66551 Q 525.05707 215.14044 526.7277 214.28125 Q 528.3984 213.42207 530.59406 212.75381 Q 532.7898 212.08556 534.9855 212.08556 Q 538.3745 212.08556 540.3554 213.01634 Q 542.3363 213.94713 543.1955 215.99963 Q 544.0547 218.05214 544.0547 221.48889 L 544.0547 236.8111 L 546.8709 236.8111 L 546.8709 238.91133 Q 545.91626 239.15 544.4604 239.38866 Q 543.0046 239.62732 541.90674 239.62732 Q 540.5702 239.62732 540.0929 239.22159 Q 539.61554 238.81587 539.61554 237.43161 L 539.61554 235.85645 Q 538.1836 237.28842 536.1072 238.48174 Q 534.0308 239.67505 531.4055 239.67505 Q 527.96875 239.67505 525.7015 237.69415 Q 523.43414 235.71324 523.43414 231.99008 Q 523.43414 227.50322 527.921 225.37912 Z M 536.322 235.66551 Q 537.9449 234.90178 539.28143 233.85167 L 539.28143 225.64163 Q 534.07855 225.64163 531.4294 227.24069 Q 528.7802 228.83974 528.7802 231.4173 Q 528.7802 233.99486 530.04517 235.21205 Q 531.31006 236.42923 533.458 236.42923 Q 534.6991 236.42923 536.322 235.66551 Z " fill="black" />
	<path d="M 557.0082 227.78961 L 553.95325 227.78961 L 552.5213 197.00201 L 558.34467 197.00201 L 557.0082 227.78961 Z M 553.4282 234.18579 Q 554.52606 233.18341 555.91034 233.18341 Q 557.43774 233.18341 558.2492 234.0426 Q 559.06067 234.90178 559.06067 236.19057 Q 559.06067 237.71802 557.9867 238.67267 Q 556.9127 239.62732 555.38525 239.62732 Q 554.1442 239.62732 553.2373 238.79199 Q 552.3304 237.95668 552.3304 236.62016 Q 552.3304 235.18819 553.4282 234.18579 Z " fill="black" />
	<rect x="615.25" y="0.5" width="10" height="200" stroke="orange" stroke-width="1" fill="none" />
	<rect x="615.25" y="218" width="10" height="25" stroke="orange" stroke-width="1" fill="none" />
	<line x1="122.25" y1="86.21429" x2="122.25" y2="171.5" stroke="black" stroke-width="3" />
	<line x1="208.25" y1="73.71429" x2="208.25" y2="159" stroke="black" stroke-width="3" />
	<path d="M 120.75 86.21429 L 209.75 73.71429 L 209.75 88.71429 L 120.75 101.21429 " fill="black" />
	<line x1="283.25" y1="61.214287" x2="283.25" y2="146.5" stroke="black" stroke-width="3" />
	<line x1="361.25" y1="48.714287" x2="361.25" y2="134" stroke="black" stroke-width="3" />
	<path d="M 281.75 61.214287 L 362.75 48.714287 L 362.75 63.714287 L 281.75 76.21429 " fill="black" />
	<line x1="436.25" y1="36.214287" x2="436.25" y2="121.5" stroke="black" stroke-width="3" />
	<line x1="541.25" y1="36.214287" x2="541.25" y2="121.5" stroke="black" stroke-width="3" />
	<rect x="0" y="0" width="626.5" height="250.74904" stroke="black" stroke-width="1" fill="none" />
</svg>
