<svg xmlns="http://www.w3.org/2000/svg" xmlns:xlink="http://www.w3.org/1999/xlink" viewBox="0 0 425.5 203.7857">
    <line x1="1.25" y1="25.5" x2="424.25" y2="25.5" stroke="black" stroke-width="2.5"/>
    <line x1="1.25" y1="50.5" x2="424.25" y2="50.5" stroke="black" stroke-width="2.5"/>
    <line x1="1.25" y1="75.5" x2="424.25" y2="75.5" stroke="black" stroke-width="2.5"/>
    <line x1="1.25" y1="100.5" x2="424.25" y2="100.5" stroke="black" stroke-width="2.5"/>
    <line x1="1.25" y1="125.5" x2="424.25" y2="125.5" stroke="black" stroke-width="2.5"/>
    <rect x="1.25" y="0.5" width="10" height="150" stroke="orange" stroke-width="1" fill="none"/>
    <path d="M 41.25 103.9 Q 41.25 97.9 47.85 92.35 Q 54.45 86.8 61.35 86.8 Q 64.15 86.8 66.7 87.5 Q 69.25 88.2 71.55 90.7 Q 73.850006 93.2 73.850006 97.1 Q 73.850006 102.6 67.15 108.4 Q 60.45 114.2 53.75 114.2 Q 50.95 114.2 48.4 113.5 Q 45.85 112.8 43.55 110.3 Q 41.25 107.8 41.25 103.9 Z " fill="black"/>
    <path d="M 66.25 116.4 Q 66.25 110.4 72.85 104.85 Q 79.45 99.3 86.35 99.3 Q 89.15 99.3 91.7 100 Q 94.25 100.7 96.55 103.2 Q 98.850006 105.7 98.850006 109.6 Q 98.850006 115.1 92.15 120.9 Q 85.45 126.7 78.75 126.7 Q 75.95 126.7 73.4 126 Q 70.85 125.3 68.55 122.8 Q 66.25 120.3 66.25 116.4 Z " fill="black"/>
    <path d="M 32.85 103.4 L 32.85 115.6 Q 32.85 116.4 33.35 116.9 Q 33.85 117.4 34.649998 117.4 Q 34.949997 117.4 35.25 117.3 L 36.05 117 Q 36.35 116.9 36.75 116.9 Q 37.55 116.9 38.149998 117.5 Q 38.75 118.1 38.75 118.9 L 38.75 124.9 Q 38.75 126.2 37.449997 126.7 L 34.05 128 Q 32.85 128.5 32.85 129.6 L 32.85 144.2 Q 32.85 145 32.3 145.55 Q 31.749998 146.1 31.05 146.1 Q 30.249998 146.1 29.699999 145.55 Q 29.149998 145 29.149998 144.2 L 29.149998 132.3 Q 29.149998 131.5 28.599998 131 Q 28.05 130.5 27.349998 130.5 Q 26.949997 130.5 26.649998 130.6 L 22.05 132.4 Q 20.849998 132.8 20.849998 134 L 20.849998 148.6 Q 20.849998 149.4 20.249998 149.95 Q 19.649998 150.5 18.949999 150.5 Q 18.249998 150.5 17.699999 149.95 Q 17.149998 149.4 17.149998 148.6 L 17.149998 136.7 Q 17.149998 135.9 16.599998 135.4 Q 16.05 134.9 15.349998 134.9 Q 15.049998 134.9 14.749998 135 L 13.949998 135.3 Q 13.749998 135.4 13.249998 135.4 Q 12.449998 135.4 11.849998 134.8 Q 11.249998 134.2 11.249998 133.4 L 11.249998 127.4 Q 11.249998 126 12.549998 125.5 L 15.949999 124.3 Q 17.149998 124 17.149998 122.6 L 17.149998 110.4 Q 17.149998 109.6 16.599998 109.1 Q 16.05 108.6 15.349998 108.6 Q 15.049998 108.6 14.849998 108.7 L 13.949998 109 Q 13.749998 109.1 13.249998 109.1 Q 12.449998 109.1 11.849998 108.5 Q 11.249998 107.9 11.249998 107.1 L 11.249998 101.1 Q 11.249998 99.8 12.549998 99.3 L 16.05 98 Q 17.149998 97.5 17.149998 96.4 L 17.149998 81.8 Q 17.149998 81 17.699999 80.45 Q 18.249998 79.899994 18.949999 79.899994 Q 19.649998 79.899994 20.249998 80.45 Q 20.849998 81 20.849998 81.8 L 20.849998 93.7 Q 20.849998 94.5 21.399998 95 Q 21.949997 95.5 22.749998 95.5 Q 23.05 95.5 23.349998 95.4 L 27.949999 93.6 Q 29.149998 93.1 29.149998 91.9 L 29.149998 77.399994 Q 29.149998 76.6 29.699999 76.05 Q 30.249998 75.5 31.05 75.5 Q 31.749998 75.5 32.3 76.05 Q 32.85 76.6 32.85 77.399994 L 32.85 89.4 Q 32.85 90.1 33.35 90.6 Q 33.85 91.1 34.55 91.1 Q 34.85 91.1 35.25 91 L 36.05 90.7 Q 36.25 90.6 36.75 90.6 Q 37.55 90.6 38.149998 91.2 Q 38.75 91.8 38.75 92.6 L 38.75 98.6 Q 38.75 100 37.449997 100.5 L 34.05 101.7 Q 32.85 102 32.85 103.4 Z M 29.149998 118.2 L 29.149998 106.1 Q 29.149998 105.4 28.599998 104.85 Q 28.05 104.3 27.349998 104.3 Q 27.05 104.3 26.749998 104.4 L 22.05 106.1 Q 20.849998 106.6 20.849998 107.8 L 20.849998 119.9 Q 20.849998 120.7 21.349998 121.2 Q 21.849998 121.7 22.649998 121.7 Q 22.949997 121.7 23.249998 121.6 L 27.949999 119.9 Q 29.149998 119.4 29.149998 118.2 Z " fill="black"/>
    <path d="M 129.25 116.4 Q 129.25 110.4 135.85 104.85 Q 142.45 99.3 149.35 99.3 Q 152.15 99.3 154.7 100 Q 157.25 100.7 159.55 103.2 Q 161.85 105.7 161.85 109.6 Q 161.85 115.1 155.15 120.9 Q 148.45 126.7 141.75 126.7 Q 138.95 126.7 136.4 126 Q 133.85 125.3 131.55 122.8 Q 129.25 120.3 129.25 116.4 Z " fill="black"/>
    <path d="M 111.15 95 L 121.95 92.8 L 122.25 92.8 Q 124.05 92.8 124.05 94.5 L 124.75 150.5 Q 123.35 151.2 122.25 151.2 Q 121.15 151.2 119.75 150.5 L 120.05 132.8 Q 120.05 132.1 119.55 131.55 Q 119.05 131 118.25 131 Q 118.05 131 117.95 131 L 107.15 133.3 L 106.85 133.3 Q 105.05 133.3 105.05 131.6 L 104.25 75.5 Q 105.65 74.8 106.85 74.8 Q 107.95 74.8 109.35 75.5 L 109.05 93.1 Q 109.05 93.9 109.55 94.45 Q 110.05 95 110.85 95 Q 110.95 95 111.15 95 Z M 110.75 123 L 118.65 121.2 Q 120.15 120.9 120.15 119.4 L 120.45 104.9 Q 120.45 104.1 119.85 103.5 Q 119.25 102.9 118.45 103.1 L 110.45 104.8 Q 108.95 105.1 108.95 106.5 L 108.65 121.3 Q 108.65 122.1 109.3 122.65 Q 109.95 123.2 110.75 123 Z " fill="black"/>
    <path d="M 189.25 116.4 Q 189.25 110.4 195.85 104.85 Q 202.45 99.3 209.35 99.3 Q 212.15 99.3 214.7 100 Q 217.25 100.7 219.55 103.2 Q 221.85 105.7 221.85 109.6 Q 221.85 115.1 215.15 120.9 Q 208.45 126.7 201.75 126.7 Q 198.95 126.7 196.4 126 Q 193.85 125.3 191.55 122.8 Q 189.25 120.3 189.25 116.4 Z " fill="black"/>
    <path d="M 249.25 116.4 Q 249.25 110.4 255.85 104.85 Q 262.45 99.3 269.35 99.3 Q 272.15 99.3 274.7 100 Q 277.25 100.7 279.55 103.2 Q 281.85 105.7 281.85 109.6 Q 281.85 115.1 275.15 120.9 Q 268.45 126.7 261.75 126.7 Q 258.95 126.7 256.4 126 Q 253.85 125.3 251.55 122.8 Q 249.25 120.3 249.25 116.4 Z " fill="black"/>
    <path d="M 309.25 78.9 Q 309.25 72.9 315.85 67.35 Q 322.45 61.8 329.35 61.8 Q 332.15 61.8 334.7 62.5 Q 337.25 63.2 339.55 65.7 Q 341.85 68.2 341.85 72.1 Q 341.85 77.6 335.15 83.4 Q 328.45 89.2 321.75 89.2 Q 318.95 89.2 316.4 88.5 Q 313.85 87.8 311.55 85.3 Q 309.25 82.8 309.25 78.9 Z " fill="black"/>
    <rect x="414.25" y="0.5" width="10" height="150" stroke="orange" stroke-width="1" fill="none"/>
    <line x1="72.25" y1="11.214287" x2="72.25" y2="96.5" stroke="black" stroke-width="3"/>
    <line x1="67.75" y1="117" x2="67.75" y2="202.2857" stroke="black" stroke-width="3"/>
    <line x1="250.75" y1="117" x2="250.75" y2="202.2857" stroke="black" stroke-width="3"/>
    <line x1="130.75" y1="117" x2="130.75" y2="202.2857" stroke="black" stroke-width="3"/>
    <line x1="190.75" y1="117" x2="190.75" y2="202.2857" stroke="black" stroke-width="3"/>
    <path d="M 66.25 202.2857 L 252.25 202.2857 L 252.25 187.2857 L 66.25 187.2857 " fill="black"/>
    <path d="M 67.75 177.2857 L 250.75 177.2857 L 250.75 162.2857 L 67.75 162.2857 " fill="black"/>
    <line x1="310.75" y1="79.5" x2="310.75" y2="164.7857" stroke="black" stroke-width="3"/>
    <path d="M 221.75 130.5 L 223.08333 131.43333 L 224.41667 132.23334 L 225.75 132.9 L 227.08333 133.43333 L 228.41667 133.83333 L 229.75 134.1 L 231.08333 134.23334 L 232.41667 134.23334 L 233.75 134.1 L 235.08333 133.83333 L 236.41667 133.43333 L 237.75 132.9 L 239.08333 132.23334 L 240.41667 131.43333 L 241.75 130.5 L 240.41667 132.13333 L 239.08333 133.53333 L 237.75 134.7 L 236.41667 135.63333 L 235.08333 136.33333 L 233.75 136.8 L 232.41667 137.03333 L 231.08333 137.03333 L 229.75 136.8 L 228.41667 136.33333 L 227.08333 135.63333 L 225.75 134.7 L 224.41667 133.53333 L 223.08333 132.13333 L 221.75 130.5 Z " stroke="black" stroke-width="2" fill="black"/>
    <rect x="0" y="0" width="425.5" height="203.7857" stroke="black" stroke-width="1" fill="none"/>
</svg>
