<svg xmlns="http://www.w3.org/2000/svg" xmlns:xlink="http://www.w3.org/1999/xlink" viewBox="0 0 652.69995 194.07143">
    <line x1="1.35" y1="40.785713" x2="651.35" y2="40.785713" stroke="black" stroke-width="2.7"/>
    <line x1="1.35" y1="65.78571" x2="651.35" y2="65.78571" stroke="black" stroke-width="2.7"/>
    <line x1="1.35" y1="90.78571" x2="651.35" y2="90.78571" stroke="black" stroke-width="2.7"/>
    <line x1="1.35" y1="115.78571" x2="651.35" y2="115.78571" stroke="black" stroke-width="2.7"/>
    <line x1="1.35" y1="140.7857" x2="651.35" y2="140.7857" stroke="black" stroke-width="2.7"/>
    <rect x="1.35" y="85.78571" width="10" height="10" stroke="orange" stroke-width="1" fill="none"/>
    <path d="M 11.35 94.185715 Q 11.35 88.185715 17.95 82.63571 Q 24.550001 77.08572 31.45 77.08572 Q 34.25 77.08572 36.8 77.78571 Q 39.35 78.48571 41.65 80.98571 Q 43.95 83.48571 43.95 87.38571 Q 43.95 92.88571 37.25 98.685715 Q 30.550001 104.48571 23.85 104.48571 Q 21.050001 104.48571 18.5 103.78571 Q 15.950001 103.08572 13.650001 100.58572 Q 11.35 98.08572 11.35 94.185715 Z " fill="black"/>
    <path d="M 43.85 106.685715 Q 43.85 100.685715 50.449997 95.13571 Q 57.05 89.58572 63.949997 89.58572 Q 66.75 89.58572 69.299995 90.28571 Q 71.85 90.98571 74.15 93.48571 Q 76.450005 95.98571 76.450005 99.88571 Q 76.450005 105.38571 69.75 111.185715 Q 63.05 116.98572 56.35 116.98572 Q 53.55 116.98572 51 116.28571 Q 48.449997 115.58571 46.149998 113.08571 Q 43.85 110.58571 43.85 106.685715 Z " fill="black"/>
    <path d="M 116.35 94.185715 Q 116.35 88.185715 122.95 82.63571 Q 129.55 77.08572 136.45001 77.08572 Q 139.25 77.08572 141.8 77.78571 Q 144.35 78.48571 146.65001 80.98571 Q 148.95001 83.48571 148.95001 87.38571 Q 148.95001 92.88571 142.25 98.685715 Q 135.55 104.48571 128.85 104.48571 Q 126.049995 104.48571 123.5 103.78571 Q 120.95 103.08572 118.65 100.58572 Q 116.35 98.08572 116.35 94.185715 Z " fill="black"/>
    <path d="M 148.85 106.685715 Q 148.85 100.685715 155.45001 95.13571 Q 162.05 89.58572 168.95001 89.58572 Q 171.75 89.58572 174.3 90.28571 Q 176.85 90.98571 179.15001 93.48571 Q 181.45001 95.98571 181.45001 99.88571 Q 181.45001 105.38571 174.75 111.185715 Q 168.05 116.98572 161.35 116.98572 Q 158.55 116.98572 156 116.28571 Q 153.45001 115.58571 151.15001 113.08571 Q 148.85 110.58571 148.85 106.685715 Z " fill="black"/>
    <path d="M 221.35 94.185715 Q 221.35 88.185715 227.95001 82.63571 Q 234.55 77.08572 241.45001 77.08572 Q 244.25 77.08572 246.8 77.78571 Q 249.35 78.48571 251.65001 80.98571 Q 253.95001 83.48571 253.95001 87.38571 Q 253.95001 92.88571 247.25 98.685715 Q 240.55 104.48571 233.85 104.48571 Q 231.05 104.48571 228.5 103.78571 Q 225.95001 103.08572 223.65001 100.58572 Q 221.35 98.08572 221.35 94.185715 Z " fill="black"/>
    <path d="M 326.35 94.185715 Q 326.35 88.185715 332.95 82.63571 Q 339.55002 77.08572 346.45 77.08572 Q 349.25 77.08572 351.80002 77.78571 Q 354.35 78.48571 356.65 80.98571 Q 358.95 83.48571 358.95 87.38571 Q 358.95 92.88571 352.25 98.685715 Q 345.55002 104.48571 338.85 104.48571 Q 336.05002 104.48571 333.5 103.78571 Q 330.95 103.08572 328.65 100.58572 Q 326.35 98.08572 326.35 94.185715 Z " fill="black"/>
    <path d="M 431.35 94.185715 Q 431.35 88.185715 437.95 82.63571 Q 444.55002 77.08572 451.45 77.08572 Q 454.25 77.08572 456.80002 77.78571 Q 459.35 78.48571 461.65 80.98571 Q 463.95 83.48571 463.95 87.38571 Q 463.95 92.88571 457.25 98.685715 Q 450.55002 104.48571 443.85 104.48571 Q 441.05002 104.48571 438.5 103.78571 Q 435.95 103.08572 433.65 100.58572 Q 431.35 98.08572 431.35 94.185715 Z " fill="black"/>
    <path d="M 536.35 94.185715 Q 536.35 88.185715 542.94995 82.63571 Q 549.55 77.08572 556.44995 77.08572 Q 559.25 77.08572 561.8 77.78571 Q 564.35 78.48571 566.64996 80.98571 Q 568.94995 83.48571 568.94995 87.38571 Q 568.94995 92.88571 562.25 98.685715 Q 555.55 104.48571 548.85 104.48571 Q 546.05 104.48571 543.5 103.78571 Q 540.94995 103.08572 538.64996 100.58572 Q 536.35 98.08572 536.35 94.185715 Z " fill="black"/>
    <rect x="641.35" y="85.78571" width="10" height="10" stroke="orange" stroke-width="1" fill="none"/>
    <line x1="42.35" y1="1.5" x2="42.35" y2="86.78571" stroke="black" stroke-width="3"/>
    <line x1="45.35" y1="107.28571" x2="45.35" y2="192.57143" stroke="black" stroke-width="3"/>
    <line x1="147.35" y1="1.5" x2="147.35" y2="86.78571" stroke="black" stroke-width="3"/>
    <line x1="150.35" y1="107.28571" x2="150.35" y2="192.57143" stroke="black" stroke-width="3"/>
    <line x1="222.85" y1="94.78571" x2="222.85" y2="180.07143" stroke="black" stroke-width="3"/>
    <line x1="327.85" y1="94.78571" x2="327.85" y2="180.07143" stroke="black" stroke-width="3"/>
    <line x1="462.35" y1="1.5" x2="462.35" y2="86.78571" stroke="black" stroke-width="3"/>
    <line x1="567.35" y1="1.5" x2="567.35" y2="86.78571" stroke="black" stroke-width="3"/>
    <path d="M 51.35 73.28571 L 55.68333 70.48572 L 60.016663 68.08571 L 64.35 66.08571 L 68.683334 64.48572 L 73.01666 63.285713 L 77.35 62.485714 L 81.683334 62.085712 L 86.01667 62.085712 L 90.35 62.48571 L 94.68333 63.285713 L 99.01667 64.48572 L 103.35 66.08572 L 107.68333 68.08572 L 112.01667 70.48571 L 116.35 73.28571 L 112.01666 69.78571 L 107.683334 66.78571 L 103.35 64.28571 L 99.01666 62.285713 L 94.683334 60.785713 L 90.35 59.785713 L 86.01666 59.285713 L 81.68333 59.285713 L 77.35 59.785713 L 73.01667 60.785717 L 68.68333 62.285713 L 64.35 64.28571 L 60.016666 66.78572 L 55.68333 69.785706 L 51.35 73.28571 Z " stroke="black" stroke-width="2" fill="black"/>
    <path d="M 76.35 120.78571 L 80.683334 123.58571 L 85.01666 125.98572 L 89.35 127.98572 L 93.683334 129.58571 L 98.01666 130.7857 L 102.35 131.58571 L 106.683334 131.98572 L 111.01667 131.98572 L 115.35 131.58572 L 119.68333 130.7857 L 124.01667 129.58571 L 128.35 127.98571 L 132.68333 125.98571 L 137.01668 123.58572 L 141.35 120.78571 L 137.01668 124.28571 L 132.68333 127.28571 L 128.35 129.7857 L 124.01666 131.7857 L 119.683334 133.2857 L 115.35 134.2857 L 111.01666 134.7857 L 106.68333 134.7857 L 102.35 134.2857 L 98.01667 133.2857 L 93.68333 131.7857 L 89.35 129.7857 L 85.01667 127.285706 L 80.68333 124.28572 L 76.35 120.78571 Z " stroke="black" stroke-width="2" fill="black"/>
    <rect x="0" y="0" width="652.69995" height="194.07143" stroke="black" stroke-width="1" fill="none"/>
</svg>
