<svg xmlns="http://www.w3.org/2000/svg" xmlns:xlink="http://www.w3.org/1999/xlink" viewBox="0 0 501 282.25">
    <rect x="0.5" y="151.75" width="10" height="10" stroke="orange" stroke-width="1" fill="none"/>
    <rect x="40.5" y="63" width="2.5" height="87.5" stroke="blue" stroke-width="1" fill="none"/>
    <rect x="40.5" y="63" width="2.5" height="87.5" fill="black"/>
    <rect x="10.5" y="144.25" width="32.5" height="25" stroke="blue" stroke-width="1" fill="none"/>
    <path d="M 10.5 160.15 Q 10.5 154.15 17.1 148.6 Q 23.7 143.05 30.6 143.05 Q 33.4 143.05 35.95 143.75 Q 38.5 144.45 40.800003 146.95 Q 43.100002 149.45 43.100002 153.35 Q 43.100002 158.85 36.4 164.65 Q 29.7 170.45 23 170.45 Q 20.2 170.45 17.65 169.75 Q 15.1 169.05 12.8 166.55 Q 10.5 164.05 10.5 160.15 Z " fill="black"/>
    <rect x="10.5" y="194.25" width="2.5" height="87.5" stroke="blue" stroke-width="1" fill="none"/>
    <rect x="10.5" y="194.25" width="2.5" height="87.5" fill="black"/>
    <rect x="10.5" y="181.75" width="32.5" height="25" stroke="blue" stroke-width="1" fill="none"/>
    <path d="M 10.5 197.65 Q 10.5 191.65 17.1 186.1 Q 23.7 180.55 30.6 180.55 Q 33.4 180.55 35.95 181.25 Q 38.5 181.95 40.800003 184.45 Q 43.100002 186.95 43.100002 190.85 Q 43.100002 196.35 36.4 202.15 Q 29.7 207.95 23 207.95 Q 20.2 207.95 17.65 207.25 Q 15.1 206.55 12.8 204.05 Q 10.5 201.55 10.5 197.65 Z " fill="black"/>
    <rect x="100.5" y="50.5" width="2.5" height="87.5" stroke="blue" stroke-width="1" fill="none"/>
    <rect x="100.5" y="50.5" width="2.5" height="87.5" fill="black"/>
    <rect x="70.5" y="131.75" width="32.5" height="25" stroke="blue" stroke-width="1" fill="none"/>
    <path d="M 70.5 147.65 Q 70.5 141.65 77.1 136.1 Q 83.7 130.55 90.6 130.55 Q 93.4 130.55 95.95 131.25 Q 98.5 131.95 100.8 134.45 Q 103.100006 136.95 103.100006 140.85 Q 103.100006 146.35 96.4 152.15 Q 89.7 157.95 83 157.95 Q 80.2 157.95 77.65 157.25 Q 75.1 156.55 72.8 154.05 Q 70.5 151.55 70.5 147.65 Z " fill="black"/>
    <rect x="70.5" y="194.25" width="2.5" height="87.5" stroke="blue" stroke-width="1" fill="none"/>
    <rect x="70.5" y="194.25" width="2.5" height="87.5" fill="black"/>
    <rect x="70.5" y="181.75" width="32.5" height="25" stroke="blue" stroke-width="1" fill="none"/>
    <path d="M 70.5 197.65 Q 70.5 191.65 77.1 186.1 Q 83.7 180.55 90.6 180.55 Q 93.4 180.55 95.95 181.25 Q 98.5 181.95 100.8 184.45 Q 103.100006 186.95 103.100006 190.85 Q 103.100006 196.35 96.4 202.15 Q 89.7 207.95 83 207.95 Q 80.2 207.95 77.65 207.25 Q 75.1 206.55 72.8 204.05 Q 70.5 201.55 70.5 197.65 Z " fill="black"/>
    <rect x="160.5" y="38" width="2.5" height="87.5" stroke="blue" stroke-width="1" fill="none"/>
    <rect x="160.5" y="38" width="2.5" height="87.5" fill="black"/>
    <rect x="130.5" y="119.25" width="32.5" height="25" stroke="blue" stroke-width="1" fill="none"/>
    <path d="M 130.5 135.15 Q 130.5 129.15 137.1 123.6 Q 143.7 118.05 150.6 118.05 Q 153.4 118.05 155.95 118.75 Q 158.5 119.45 160.8 121.95 Q 163.1 124.45 163.1 128.35 Q 163.1 133.85 156.4 139.65 Q 149.7 145.45 143 145.45 Q 140.2 145.45 137.65 144.75 Q 135.1 144.05 132.8 141.55 Q 130.5 139.05 130.5 135.15 Z " fill="black"/>
    <rect x="130.5" y="194.25" width="2.5" height="87.5" stroke="blue" stroke-width="1" fill="none"/>
    <rect x="130.5" y="194.25" width="2.5" height="87.5" fill="black"/>
    <rect x="130.5" y="181.75" width="32.5" height="25" stroke="blue" stroke-width="1" fill="none"/>
    <path d="M 130.5 197.65 Q 130.5 191.65 137.1 186.1 Q 143.7 180.55 150.6 180.55 Q 153.4 180.55 155.95 181.25 Q 158.5 181.95 160.8 184.45 Q 163.1 186.95 163.1 190.85 Q 163.1 196.35 156.4 202.15 Q 149.7 207.95 143 207.95 Q 140.2 207.95 137.65 207.25 Q 135.1 206.55 132.8 204.05 Q 130.5 201.55 130.5 197.65 Z " fill="black"/>
    <rect x="220.5" y="0.5" width="2.5" height="87.5" stroke="blue" stroke-width="1" fill="none"/>
    <rect x="220.5" y="0.5" width="2.5" height="87.5" fill="black"/>
    <rect x="190.5" y="81.75" width="32.5" height="25" stroke="blue" stroke-width="1" fill="none"/>
    <path d="M 190.5 97.65 Q 190.5 91.65 197.1 86.1 Q 203.7 80.55 210.6 80.55 Q 213.4 80.55 215.95 81.25 Q 218.5 81.95 220.8 84.45 Q 223.1 86.95 223.1 90.85 Q 223.1 96.35 216.4 102.15 Q 209.7 107.95 203 107.95 Q 200.2 107.95 197.65 107.25 Q 195.1 106.55 192.8 104.05 Q 190.5 101.55 190.5 97.65 Z " fill="black"/>
    <rect x="190.5" y="194.25" width="2.5" height="87.5" stroke="blue" stroke-width="1" fill="none"/>
    <rect x="190.5" y="194.25" width="2.5" height="87.5" fill="black"/>
    <rect x="190.5" y="181.75" width="32.5" height="25" stroke="blue" stroke-width="1" fill="none"/>
    <path d="M 190.5 197.65 Q 190.5 191.65 197.1 186.1 Q 203.7 180.55 210.6 180.55 Q 213.4 180.55 215.95 181.25 Q 218.5 181.95 220.8 184.45 Q 223.1 186.95 223.1 190.85 Q 223.1 196.35 216.4 202.15 Q 209.7 207.95 203 207.95 Q 200.2 207.95 197.65 207.25 Q 195.1 206.55 192.8 204.05 Q 190.5 201.55 190.5 197.65 Z " fill="black"/>
    <rect x="280.5" y="13" width="2.5" height="87.5" stroke="blue" stroke-width="1" fill="none"/>
    <rect x="280.5" y="13" width="2.5" height="87.5" fill="black"/>
    <rect x="250.5" y="94.25" width="32.5" height="25" stroke="blue" stroke-width="1" fill="none"/>
    <path d="M 250.5 110.15 Q 250.5 104.15 257.1 98.6 Q 263.7 93.05 270.6 93.05 Q 273.4 93.05 275.95 93.75 Q 278.5 94.45 280.8 96.95 Q 283.1 99.45 283.1 103.35 Q 283.1 108.85 276.4 114.65 Q 269.7 120.45 263 120.45 Q 260.2 120.45 257.65 119.75 Q 255.1 119.05 252.8 116.55 Q 250.5 114.05 250.5 110.15 Z " fill="black"/>
    <rect x="250.5" y="194.25" width="2.5" height="87.5" stroke="blue" stroke-width="1" fill="none"/>
    <rect x="250.5" y="194.25" width="2.5" height="87.5" fill="black"/>
    <rect x="250.5" y="181.75" width="32.5" height="25" stroke="blue" stroke-width="1" fill="none"/>
    <path d="M 250.5 197.65 Q 250.5 191.65 257.1 186.1 Q 263.7 180.55 270.6 180.55 Q 273.4 180.55 275.95 181.25 Q 278.5 181.95 280.8 184.45 Q 283.1 186.95 283.1 190.85 Q 283.1 196.35 276.4 202.15 Q 269.7 207.95 263 207.95 Q 260.2 207.95 257.65 207.25 Q 255.1 206.55 252.8 204.05 Q 250.5 201.55 250.5 197.65 Z " fill="black"/>
    <rect x="340.5" y="25.5" width="2.5" height="87.5" stroke="blue" stroke-width="1" fill="none"/>
    <rect x="340.5" y="25.5" width="2.5" height="87.5" fill="black"/>
    <rect x="310.5" y="106.75" width="32.5" height="25" stroke="blue" stroke-width="1" fill="none"/>
    <path d="M 310.5 122.65 Q 310.5 116.65 317.1 111.1 Q 323.7 105.55 330.6 105.55 Q 333.4 105.55 335.95 106.25 Q 338.5 106.95 340.8 109.45 Q 343.1 111.95 343.1 115.85 Q 343.1 121.35 336.4 127.15 Q 329.7 132.95 323 132.95 Q 320.2 132.95 317.65 132.25 Q 315.1 131.55 312.8 129.05 Q 310.5 126.55 310.5 122.65 Z " fill="black"/>
    <rect x="310.5" y="194.25" width="2.5" height="87.5" stroke="blue" stroke-width="1" fill="none"/>
    <rect x="310.5" y="194.25" width="2.5" height="87.5" fill="black"/>
    <rect x="310.5" y="181.75" width="32.5" height="25" stroke="blue" stroke-width="1" fill="none"/>
    <path d="M 310.5 197.65 Q 310.5 191.65 317.1 186.1 Q 323.7 180.55 330.6 180.55 Q 333.4 180.55 335.95 181.25 Q 338.5 181.95 340.8 184.45 Q 343.1 186.95 343.1 190.85 Q 343.1 196.35 336.4 202.15 Q 329.7 207.95 323 207.95 Q 320.2 207.95 317.65 207.25 Q 315.1 206.55 312.8 204.05 Q 310.5 201.55 310.5 197.65 Z " fill="black"/>
    <rect x="400.5" y="38" width="2.5" height="87.5" stroke="blue" stroke-width="1" fill="none"/>
    <rect x="400.5" y="38" width="2.5" height="87.5" fill="black"/>
    <rect x="370.5" y="119.25" width="32.5" height="25" stroke="blue" stroke-width="1" fill="none"/>
    <path d="M 370.5 135.15 Q 370.5 129.15 377.1 123.6 Q 383.7 118.05 390.6 118.05 Q 393.4 118.05 395.95 118.75 Q 398.5 119.45 400.8 121.95 Q 403.1 124.45 403.1 128.35 Q 403.1 133.85 396.4 139.65 Q 389.7 145.45 383 145.45 Q 380.2 145.45 377.65 144.75 Q 375.1 144.05 372.8 141.55 Q 370.5 139.05 370.5 135.15 Z " fill="black"/>
    <rect x="370.5" y="194.25" width="2.5" height="87.5" stroke="blue" stroke-width="1" fill="none"/>
    <rect x="370.5" y="194.25" width="2.5" height="87.5" fill="black"/>
    <rect x="370.5" y="181.75" width="32.5" height="25" stroke="blue" stroke-width="1" fill="none"/>
    <path d="M 370.5 197.65 Q 370.5 191.65 377.1 186.1 Q 383.7 180.55 390.6 180.55 Q 393.4 180.55 395.95 181.25 Q 398.5 181.95 400.8 184.45 Q 403.1 186.95 403.1 190.85 Q 403.1 196.35 396.4 202.15 Q 389.7 207.95 383 207.95 Q 380.2 207.95 377.65 207.25 Q 375.1 206.55 372.8 204.05 Q 370.5 201.55 370.5 197.65 Z " fill="black"/>
    <rect x="460.5" y="50.5" width="2.5" height="87.5" stroke="blue" stroke-width="1" fill="none"/>
    <rect x="460.5" y="50.5" width="2.5" height="87.5" fill="black"/>
    <rect x="430.5" y="131.75" width="32.5" height="25" stroke="blue" stroke-width="1" fill="none"/>
    <path d="M 430.5 147.65 Q 430.5 141.65 437.1 136.1 Q 443.7 130.55 450.6 130.55 Q 453.4 130.55 455.95 131.25 Q 458.5 131.95 460.8 134.45 Q 463.1 136.95 463.1 140.85 Q 463.1 146.35 456.4 152.15 Q 449.7 157.95 443 157.95 Q 440.2 157.95 437.65 157.25 Q 435.1 156.55 432.8 154.05 Q 430.5 151.55 430.5 147.65 Z " fill="black"/>
    <rect x="430.5" y="194.25" width="2.5" height="87.5" stroke="blue" stroke-width="1" fill="none"/>
    <rect x="430.5" y="194.25" width="2.5" height="87.5" fill="black"/>
    <rect x="430.5" y="181.75" width="32.5" height="25" stroke="blue" stroke-width="1" fill="none"/>
    <path d="M 430.5 197.65 Q 430.5 191.65 437.1 186.1 Q 443.7 180.55 450.6 180.55 Q 453.4 180.55 455.95 181.25 Q 458.5 181.95 460.8 184.45 Q 463.1 186.95 463.1 190.85 Q 463.1 196.35 456.4 202.15 Q 449.7 207.95 443 207.95 Q 440.2 207.95 437.65 207.25 Q 435.1 206.55 432.8 204.05 Q 430.5 201.55 430.5 197.65 Z " fill="black"/>
    <rect x="490.5" y="151.75" width="10" height="10" stroke="orange" stroke-width="1" fill="none"/>
    <rect x="0" y="0" width="501" height="282.25" stroke="black" stroke-width="1" fill="none"/>
</svg>
