<svg xmlns="http://www.w3.org/2000/svg" xmlns:xlink="http://www.w3.org/1999/xlink" viewBox="0 0 248.75 201">
    <line x1="1.25" y1="50.5" x2="247.5" y2="50.5" stroke="black" stroke-width="2.5"/>
    <line x1="1.25" y1="75.5" x2="247.5" y2="75.5" stroke="black" stroke-width="2.5"/>
    <line x1="1.25" y1="100.5" x2="247.5" y2="100.5" stroke="black" stroke-width="2.5"/>
    <line x1="1.25" y1="125.5" x2="247.5" y2="125.5" stroke="black" stroke-width="2.5"/>
    <line x1="1.25" y1="150.5" x2="247.5" y2="150.5" stroke="black" stroke-width="2.5"/>
    <rect x="1.25" y="0.5" width="30" height="200" stroke="orange" stroke-width="1" fill="none"/>
    <rect x="31.25" y="88" width="32.5" height="25" stroke="red" stroke-width="1" fill="none"/>
    <path d="M 31.25 103.9 Q 31.25 97.9 37.85 92.35 Q 44.45 86.8 51.35 86.8 Q 54.15 86.8 56.7 87.5 Q 59.25 88.2 61.550003 90.7 Q 63.850002 93.2 63.850002 97.1 Q 63.850002 102.6 57.15 108.4 Q 50.45 114.2 43.75 114.2 Q 40.95 114.2 38.4 113.5 Q 35.85 112.8 33.55 110.3 Q 31.25 107.8 31.25 103.9 Z " fill="black"/>
    <rect x="63.75" y="88" width="5" height="25" stroke="red" stroke-width="1" fill="none"/>
    <rect x="31.25" y="100.5" width="3" height="89.28571" stroke="red" stroke-width="1" fill="none"/>
    <rect x="136.25" y="88" width="32.5" height="25" stroke="red" stroke-width="1" fill="none"/>
    <path d="M 136.25 103.9 Q 136.25 97.9 142.85 92.35 Q 149.45 86.8 156.35 86.8 Q 159.15 86.8 161.7 87.5 Q 164.25 88.2 166.55 90.7 Q 168.85 93.2 168.85 97.1 Q 168.85 102.6 162.15 108.4 Q 155.45 114.2 148.75 114.2 Q 145.95 114.2 143.4 113.5 Q 140.85 112.8 138.55 110.3 Q 136.25 107.8 136.25 103.9 Z " fill="black"/>
    <rect x="168.75" y="88" width="5" height="25" stroke="red" stroke-width="1" fill="none"/>
    <rect x="136.25" y="100.5" width="3" height="89.28571" stroke="red" stroke-width="1" fill="none"/>
    <rect x="241.25" y="50.5" width="6.25" height="100" stroke="orange" stroke-width="1" fill="none"/>
    <rect x="241.25" y="50.5" width="6.25" height="100" fill="black"/>
    <line x1="32.75" y1="104.5" x2="32.75" y2="189.7857" stroke="black" stroke-width="3"/>
    <line x1="137.75" y1="104.5" x2="137.75" y2="189.7857" stroke="black" stroke-width="3"/>
    <rect x="0" y="0" width="248.75" height="201" stroke="black" stroke-width="1" fill="none"/>
</svg>
