<svg xmlns="http://www.w3.org/2000/svg" xmlns:xlink="http://www.w3.org/1999/xlink" width="496.75" height="278" viewBox="0 0 496.75 278">
    <path d="M 28.422235 66.65911 Q 25.160501 65.943115 21.262331 64.7498 Q 18.875696 63.874702 17.682379 63.795147 L 18.318815 49.395782 L 23.410301 49.395782 L 24.76273 59.73787 Q 26.115154 61.010742 29.178003 62.005173 Q 32.240852 62.999603 35.90036 62.999603 Q 41.946503 62.999603 45.0889 60.29475 Q 48.231304 57.589897 48.231304 52.816628 Q 48.231304 49.714 46.520885 47.486473 Q 44.810463 45.25895 41.986275 43.667862 Q 39.162094 42.07677 34.229713 39.9288 Q 29.774662 37.939938 26.473152 35.87152 Q 23.171638 33.803104 20.745226 30.342484 Q 18.318815 26.881863 18.318815 22.029037 Q 18.318815 17.653542 20.665672 14.192921 Q 23.012531 10.7323 27.427805 8.743439 Q 31.843079 6.7545776 37.73011 6.7545776 Q 41.389618 6.7545776 44.213806 7.311455 Q 47.037987 7.8683395 50.61794 8.82299 Q 52.209026 9.379875 53.322792 9.538982 L 52.845467 22.904137 L 47.99264 22.904137 L 46.40155 13.118931 Q 45.606007 12.323387 43.10004 11.607395 Q 40.594074 10.891411 37.65056 10.891411 Q 32.161297 10.891411 29.33711 13.19849 Q 26.512928 15.505569 26.512928 19.881065 Q 26.512928 23.063248 28.22335 25.211216 Q 29.933771 27.359188 32.479515 28.870724 Q 35.02526 30.38226 40.594074 33.007557 Q 45.765118 35.473747 49.02685 37.46261 Q 52.288586 39.451473 54.63544 42.67343 Q 56.982296 45.895386 56.982296 50.350437 Q 56.982296 54.566826 54.63544 58.464996 Q 52.288586 62.363167 47.475536 64.86913 Q 42.66249 67.3751 35.8208 67.3751 Q 31.68397 67.3751 28.422235 66.65911 Z " fill="black"/>
    <rect x="12.75" y="1.5" width="62.5" height="75" stroke="orange" stroke-width="3" fill="none"/>
    <path d="M 19.672235 166.65912 Q 16.410501 165.94312 12.512331 164.7498 Q 10.125696 163.8747 8.932379 163.79515 L 9.568815 149.39578 L 14.660302 149.39578 L 16.01273 159.73787 Q 17.365154 161.01074 20.428003 162.00517 Q 23.49085 162.9996 27.150358 162.9996 Q 33.196503 162.9996 36.3389 160.29474 Q 39.481304 157.5899 39.481304 152.81662 Q 39.481304 149.714 37.770885 147.48648 Q 36.060463 145.25894 33.236275 143.66786 Q 30.412092 142.07677 25.479713 139.9288 Q 21.024662 137.93994 17.723152 135.87152 Q 14.4216385 133.8031 11.995226 130.34248 Q 9.568815 126.88187 9.568815 122.02904 Q 9.568815 117.65354 11.915672 114.19292 Q 14.26253 110.7323 18.677805 108.74344 Q 23.093079 106.75458 28.98011 106.75458 Q 32.639618 106.75458 35.463806 107.311455 Q 38.287987 107.86834 41.86794 108.82299 Q 43.459026 109.379875 44.572792 109.53899 L 44.095467 122.90414 L 39.24264 122.90414 L 37.65155 113.11893 Q 36.856007 112.32339 34.35004 111.60739 Q 31.844074 110.89141 28.900557 110.89141 Q 23.411297 110.89141 20.58711 113.19849 Q 17.762928 115.50557 17.762928 119.881065 Q 17.762928 123.06325 19.47335 125.21121 Q 21.183771 127.35919 23.729513 128.87073 Q 26.275259 130.38226 31.844074 133.00755 Q 37.015118 135.47375 40.27685 137.46262 Q 43.538586 139.45148 45.88544 142.67343 Q 48.232296 145.89539 48.232296 150.35043 Q 48.232296 154.56683 45.88544 158.465 Q 43.538586 162.36316 38.725536 164.86914 Q 33.91249 167.3751 27.070803 167.3751 Q 22.93397 167.3751 19.672235 166.65912 Z M 90.834526 155.24304 Q 88.050125 160.85162 82.87908 164.11337 Q 77.70803 167.3751 70.7868 167.3751 Q 68.87749 167.3751 66.64996 167.05688 Q 64.42244 166.73866 63.070007 166.26134 L 63.308674 172.94391 L 63.308674 180.97891 L 71.58234 181.85402 L 71.58234 185.75218 L 49.386635 185.75218 L 49.386635 181.85402 L 55.11456 180.97891 L 55.11456 128.47295 L 49.30708 127.04097 L 49.30708 122.745026 L 60.60382 121.31305 L 60.762928 121.31305 L 62.43357 122.745026 L 62.43357 127.43874 Q 64.820206 124.813446 68.36038 122.98369 Q 71.90056 121.15394 76.276054 121.15394 Q 80.96977 121.15394 84.907715 123.46101 Q 88.845665 125.7681 91.2323 130.62093 Q 93.618935 135.47375 93.618935 142.87231 Q 93.618935 149.63445 90.834526 155.24304 Z M 67.36595 127.99562 Q 64.74065 129.2685 63.308674 130.78003 L 63.308674 160.77208 Q 63.86555 161.72673 66.13286 162.4825 Q 68.40016 163.23827 71.10501 163.23827 Q 77.230705 163.23827 81.009544 158.38544 Q 84.78838 153.53262 84.78838 143.7474 Q 84.78838 135.15553 81.48687 130.93915 Q 78.18536 126.72275 73.01432 126.72275 Q 69.99125 126.72275 67.36595 127.99562 Z " fill="black"/>
    <rect x="4" y="101.5" width="97.5" height="75" stroke="orange" stroke-width="3" fill="none"/>
    <path d="M 11.762531 212.3234 L 5.5572796 211.36874 L 5.5572796 207.391 L 15.978917 207.391 Q 18.445107 207.391 23.059267 207.0728 Q 27.67343 206.75458 29.980509 206.75458 Q 44.777645 206.75458 51.977325 214.19292 Q 59.17701 221.63126 59.17701 235.07597 Q 59.17701 244.46341 55.477722 251.74265 Q 51.77844 259.02188 45.095863 263.07916 Q 38.413284 267.1364 29.741846 267.1364 Q 27.832539 267.1364 23.218376 266.81824 Q 18.445107 266.5 16.058472 266.5 L 5.159506 266.5 L 5.159506 262.60184 L 11.762531 261.80627 L 11.762531 212.3234 Z M 27.35521 262.6814 L 29.741846 262.6814 Q 35.70843 262.60184 40.282818 259.65833 Q 44.8572 256.71478 47.402943 250.86754 Q 49.948685 245.0203 49.948685 236.66707 Q 49.948685 224.09746 44.499203 217.57399 Q 39.04972 211.05052 28.071201 211.05052 Q 25.76412 211.05052 22.58194 211.36874 Q 21.229513 211.60739 20.195307 211.60739 L 20.195307 262.04495 Q 22.979713 262.6814 27.35521 262.6814 Z M 31.762531 200.3234 L 25.55728 199.36874 L 25.55728 195.391 L 35.97892 195.391 Q 38.445107 195.391 43.059265 195.07278 Q 47.673428 194.75458 49.98051 194.75458 Q 64.77765 194.75458 71.977325 202.19292 Q 79.17701 209.63126 79.17701 223.07597 Q 79.17701 232.46341 75.47772 239.74265 Q 71.77844 247.02188 65.09586 251.07916 Q 58.41328 255.13643 49.741848 255.13643 Q 47.83254 255.13643 43.21838 254.81822 Q 38.445107 254.5 36.05847 254.5 L 25.159506 254.5 L 25.159506 250.60184 L 31.762531 249.80629 L 31.762531 200.3234 Z M 47.35521 250.68138 L 49.741848 250.68138 Q 55.708435 250.60184 60.282814 247.65831 Q 64.85721 244.7148 67.40295 238.86754 Q 69.948685 233.0203 69.948685 224.66707 Q 69.948685 212.09746 64.49921 205.57399 Q 59.04972 199.0505 48.0712 199.0505 Q 45.764122 199.0505 42.58194 199.36874 Q 41.229515 199.60739 40.19531 199.60739 L 40.19531 250.04495 Q 42.979713 250.68138 47.35521 250.68138 Z " fill="black"/>
    <path d="M 85.40414 229.68814 Q 87.55211 224.99443 89.52108 220.24104 Q 91.49005 215.48767 95.03023 206.77646 L 96.899765 202.08273 L 85.125694 202.24185 L 83.45505 207.53223 L 80.90931 207.0549 L 81.74463 199.179 L 99.88306 199.179 L 100.718376 200.25299 Q 98.769295 205.70247 95.26889 215.54733 Q 91.76849 225.3922 89.85919 230.88147 L 85.40414 229.68814 Z " fill="black"/>
    <rect x="1.5" y="201.5" width="107.5" height="75" stroke="orange" stroke-width="3" fill="none"/>
    <rect x="238.375" y="26.5" width="25" height="25" stroke="red" stroke-width="1" fill="none"/>
    <path d="M 226.76253 112.32339 L 220.55728 111.36874 L 220.55728 107.39101 L 230.97891 107.39101 Q 233.4451 107.39101 238.05927 107.0728 Q 242.67343 106.75458 244.98051 106.75458 Q 259.77765 106.75458 266.97733 114.19292 Q 274.177 121.63126 274.177 135.07597 Q 274.177 144.46341 270.47772 151.74265 Q 266.77844 159.02188 260.09586 163.07916 Q 253.41328 167.13643 244.74185 167.13643 Q 242.83253 167.13643 238.21838 166.8182 Q 233.4451 166.5 231.05847 166.5 L 220.1595 166.5 L 220.1595 162.60184 L 226.76253 161.80627 L 226.76253 112.32339 Z M 242.35521 162.68138 L 244.74185 162.68138 Q 250.70844 162.60184 255.28282 159.65831 Q 259.8572 156.7148 262.40295 150.86755 Q 264.94867 145.0203 264.94867 136.66707 Q 264.94867 124.09746 259.4992 117.57399 Q 254.04971 111.05052 243.0712 111.05052 Q 240.76411 111.05052 237.58194 111.36874 Q 236.2295 111.60739 235.19531 111.60739 L 235.19531 162.04495 Q 237.9797 162.68138 242.35521 162.68138 Z " fill="black"/>
    <path d="M 280.40414 129.68814 Q 282.55212 124.99443 284.5211 120.24105 Q 286.49005 115.48767 290.03024 106.77645 L 291.89975 102.08273 L 280.1257 102.241844 L 278.45505 107.53222 L 275.9093 107.05489 L 276.74463 99.179 L 294.88306 99.179 L 295.71838 100.25298 Q 293.7693 105.70247 290.2689 115.54733 Q 286.7685 125.392204 284.8592 130.88147 L 280.40414 129.68814 Z " fill="black"/>
    <rect x="216.5" y="101.5" width="87.5" height="75" stroke="orange" stroke-width="3" fill="none"/>
    <rect x="238.375" y="226.5" width="25" height="25" stroke="red" stroke-width="1" fill="none"/>
    <rect x="448.375" y="26.5" width="25" height="25" stroke="red" stroke-width="1" fill="none"/>
    <path d="M 455.8208 111.60739 L 442.13742 112.08473 L 439.35303 128.71161 L 434.10242 128.71161 L 435.45486 107.39101 L 485.0173 107.39101 L 485.97195 128.71161 L 480.96002 128.71161 L 478.33472 112.08473 L 464.5718 111.60739 L 464.5718 161.80627 L 475.86853 162.60184 L 475.86853 166.5 L 445.47873 166.5 L 445.47873 162.60184 L 455.8208 161.80627 L 455.8208 111.60739 Z " fill="black"/>
    <rect x="432.75" y="101.5" width="62.5" height="75" stroke="orange" stroke-width="3" fill="none"/>
    <rect x="448.375" y="226.5" width="25" height="25" stroke="red" stroke-width="1" fill="none"/>
    <rect x="0" y="0" width="496.75" height="278" stroke="white" stroke-width="1" fill="none"/>
</svg>
