<svg xmlns="http://www.w3.org/2000/svg" xmlns:xlink="http://www.w3.org/1999/xlink" viewBox="0 0 1303 611.5">
	<rect x="0.5" y="160.5" width="10" height="10" stroke="orange" stroke-width="1" fill="none" />
	<rect x="0.5" y="503.5" width="10" height="10" stroke="orange" stroke-width="1" fill="none" />
	<rect x="10.5" y="128" width="32.5" height="25" stroke="lightgray" stroke-width="1" fill="none" />
	<path d="M 10.5 143.9 Q 10.5 137.9 17.1 132.35 Q 23.7 126.8 30.6 126.8 Q 33.4 126.8 35.95 127.5 Q 38.5 128.2 40.800003 130.7 Q 43.100002 133.2 43.100002 137.1 Q 43.100002 142.6 36.4 148.4 Q 29.7 154.2 23 154.2 Q 20.2 154.2 17.65 153.5 Q 15.1 152.8 12.8 150.3 Q 10.5 147.8 10.5 143.9 Z " fill="black" />
	<rect x="10.5" y="165.5" width="32.5" height="25" stroke="lightgray" stroke-width="1" fill="none" />
	<path d="M 10.5 181.4 Q 10.5 175.4 17.1 169.85 Q 23.7 164.3 30.6 164.3 Q 33.4 164.3 35.95 165 Q 38.5 165.7 40.800003 168.2 Q 43.100002 170.7 43.100002 174.6 Q 43.100002 180.1 36.4 185.9 Q 29.7 191.7 23 191.7 Q 20.2 191.7 17.65 191 Q 15.1 190.3 12.8 187.8 Q 10.5 185.3 10.5 181.4 Z " fill="black" />
	<rect x="40" y="38" width="3" height="102.5" stroke="lightgray" stroke-width="1" fill="none" />
	<rect x="40" y="38" width="3" height="102.5" fill="black" />
	<rect x="10.5" y="178" width="3" height="152.5" stroke="lightgray" stroke-width="1" fill="none" />
	<rect x="10.5" y="178" width="3" height="152.5" fill="black" />
	<rect x="10.5" y="318" width="50" height="25" stroke="lightgray" stroke-width="1" fill="none" />
	<rect x="10.5" y="496" width="32.5" height="25" stroke="lightgray" stroke-width="1" fill="none" />
	<path d="M 10.5 511.9 Q 10.5 505.9 17.1 500.35 Q 23.7 494.8 30.6 494.8 Q 33.4 494.8 35.95 495.5 Q 38.5 496.2 40.800003 498.7 Q 43.100002 501.2 43.100002 505.1 Q 43.100002 510.6 36.4 516.4 Q 29.7 522.2 23 522.2 Q 20.2 522.2 17.65 521.5 Q 15.1 520.8 12.8 518.3 Q 10.5 515.8 10.5 511.9 Z " fill="black" />
	<rect x="40" y="406" width="3" height="102.5" stroke="lightgray" stroke-width="1" fill="none" />
	<rect x="40" y="406" width="3" height="102.5" fill="black" />
	<rect x="10.5" y="393.5" width="50" height="25" stroke="lightgray" stroke-width="1" fill="none" />
	<rect x="75.5" y="190.5" width="32.5" height="25" stroke="lightgray" stroke-width="1" fill="none" />
	<path d="M 75.5 206.4 Q 75.5 200.4 82.1 194.85 Q 88.7 189.3 95.6 189.3 Q 98.4 189.3 100.95 190 Q 103.5 190.7 105.8 193.2 Q 108.100006 195.7 108.100006 199.6 Q 108.100006 205.1 101.4 210.9 Q 94.7 216.7 88 216.7 Q 85.2 216.7 82.65 216 Q 80.1 215.3 77.8 212.8 Q 75.5 210.3 75.5 206.4 Z " fill="black" />
	<rect x="45.5" y="165.5" width="30.000002" height="75" stroke="lightgray" stroke-width="1" fill="none" />
	<path d="M 67.1 193.4 L 67.1 205.6 Q 67.1 206.4 67.6 206.9 Q 68.1 207.4 68.9 207.4 Q 69.2 207.4 69.5 207.3 L 70.3 207 Q 70.6 206.9 71 206.9 Q 71.8 206.9 72.4 207.5 Q 73 208.1 73 208.9 L 73 214.9 Q 73 216.2 71.7 216.7 L 68.3 218 Q 67.1 218.5 67.1 219.6 L 67.1 234.2 Q 67.1 235 66.55 235.55 Q 66 236.1 65.3 236.1 Q 64.5 236.1 63.95 235.55 Q 63.4 235 63.4 234.2 L 63.4 222.3 Q 63.4 221.5 62.85 221 Q 62.300003 220.5 61.6 220.5 Q 61.2 220.5 60.9 220.6 L 56.3 222.4 Q 55.1 222.8 55.1 224 L 55.1 238.6 Q 55.1 239.4 54.5 239.95 Q 53.9 240.5 53.2 240.5 Q 52.5 240.5 51.95 239.95 Q 51.4 239.4 51.4 238.6 L 51.4 226.7 Q 51.4 225.9 50.85 225.4 Q 50.3 224.9 49.6 224.9 Q 49.3 224.9 49 225 L 48.2 225.3 Q 48 225.4 47.5 225.4 Q 46.7 225.4 46.1 224.8 Q 45.5 224.2 45.5 223.4 L 45.5 217.4 Q 45.5 216 46.8 215.5 L 50.2 214.3 Q 51.4 214 51.4 212.6 L 51.4 200.4 Q 51.4 199.6 50.85 199.1 Q 50.3 198.6 49.6 198.6 Q 49.3 198.6 49.1 198.7 L 48.2 199 Q 48 199.1 47.5 199.1 Q 46.7 199.1 46.1 198.5 Q 45.5 197.9 45.5 197.1 L 45.5 191.1 Q 45.5 189.8 46.8 189.3 L 50.3 188 Q 51.4 187.5 51.4 186.4 L 51.4 171.8 Q 51.4 171 51.95 170.45 Q 52.5 169.9 53.2 169.9 Q 53.9 169.9 54.5 170.45 Q 55.1 171 55.1 171.8 L 55.1 183.7 Q 55.1 184.5 55.65 185 Q 56.2 185.5 57 185.5 Q 57.3 185.5 57.6 185.4 L 62.2 183.6 Q 63.4 183.1 63.4 181.9 L 63.4 167.4 Q 63.4 166.6 63.95 166.05 Q 64.5 165.5 65.3 165.5 Q 66 165.5 66.55 166.05 Q 67.1 166.6 67.1 167.4 L 67.1 179.4 Q 67.1 180.1 67.6 180.6 Q 68.1 181.1 68.8 181.1 Q 69.1 181.1 69.5 181 L 70.3 180.7 Q 70.5 180.6 71 180.6 Q 71.8 180.6 72.4 181.2 Q 73 181.8 73 182.6 L 73 188.6 Q 73 190 71.7 190.5 L 68.3 191.7 Q 67.1 192 67.1 193.4 Z M 63.4 208.2 L 63.4 196.1 Q 63.4 195.4 62.85 194.85 Q 62.300003 194.3 61.6 194.3 Q 61.3 194.3 61 194.4 L 56.3 196.1 Q 55.1 196.6 55.1 197.8 L 55.1 209.9 Q 55.1 210.7 55.6 211.2 Q 56.1 211.7 56.9 211.7 Q 57.2 211.7 57.5 211.6 L 62.2 209.9 Q 63.4 209.4 63.4 208.2 Z " fill="black" />
	<ellipse cx="80.5" cy="513.5" rx="5" ry="5" stroke="gray" stroke-width="1" fill="none" />
	<rect x="140.5" y="215.5" width="32.5" height="25" stroke="lightgray" stroke-width="1" fill="none" />
	<path d="M 140.5 231.4 Q 140.5 225.4 147.1 219.85 Q 153.7 214.3 160.6 214.3 Q 163.4 214.3 165.95 215 Q 168.5 215.7 170.8 218.2 Q 173.1 220.7 173.1 224.6 Q 173.1 230.1 166.4 235.9 Q 159.7 241.7 153 241.7 Q 150.2 241.7 147.65 241 Q 145.1 240.3 142.8 237.8 Q 140.5 235.3 140.5 231.4 Z " fill="black" />
	<rect x="140.5" y="521" width="32.5" height="25" stroke="lightgray" stroke-width="1" fill="none" />
	<path d="M 140.5 536.9 Q 140.5 530.9 147.1 525.35 Q 153.7 519.8 160.6 519.8 Q 163.4 519.8 165.95 520.5 Q 168.5 521.2 170.8 523.7 Q 173.1 526.2 173.1 530.1 Q 173.1 535.6 166.4 541.4 Q 159.7 547.2 153 547.2 Q 150.2 547.2 147.65 546.5 Q 145.1 545.8 142.8 543.3 Q 140.5 540.8 140.5 536.9 Z " fill="black" />
	<rect x="170" y="431" width="3" height="102.5" stroke="lightgray" stroke-width="1" fill="none" />
	<rect x="170" y="431" width="3" height="102.5" fill="black" />
	<rect x="140.5" y="418.5" width="32.5" height="25" stroke="lightgray" stroke-width="1" fill="none" />
	<rect x="205.5" y="240.5" width="32.5" height="25" stroke="lightgray" stroke-width="1" fill="none" />
	<path d="M 205.5 256.4 Q 205.5 250.4 212.1 244.85 Q 218.7 239.3 225.6 239.3 Q 228.4 239.3 230.95 240 Q 233.5 240.7 235.8 243.2 Q 238.1 245.7 238.1 249.6 Q 238.1 255.1 231.4 260.9 Q 224.7 266.7 218 266.7 Q 215.2 266.7 212.65 266 Q 210.1 265.3 207.8 262.8 Q 205.5 260.3 205.5 256.4 Z " fill="black" />
	<rect x="205.5" y="253" width="3" height="102.5" stroke="lightgray" stroke-width="1" fill="none" />
	<rect x="205.5" y="253" width="3" height="102.5" fill="black" />
	<rect x="205.5" y="343" width="32.5" height="25" stroke="lightgray" stroke-width="1" fill="none" />
	<ellipse cx="210.5" cy="513.5" rx="5" ry="5" stroke="gray" stroke-width="1" fill="none" />
	<rect x="270.5" y="128" width="32.5" height="25" stroke="lightgray" stroke-width="1" fill="none" />
	<path d="M 270.5 143.9 Q 270.5 137.9 277.1 132.35 Q 283.7 126.8 290.6 126.8 Q 293.4 126.8 295.95 127.5 Q 298.5 128.2 300.8 130.7 Q 303.1 133.2 303.1 137.1 Q 303.1 142.6 296.4 148.4 Q 289.7 154.2 283 154.2 Q 280.2 154.2 277.65 153.5 Q 275.1 152.8 272.8 150.3 Q 270.5 147.8 270.5 143.9 Z " fill="black" />
	<rect x="270.5" y="190.5" width="32.5" height="25" stroke="lightgray" stroke-width="1" fill="none" />
	<path d="M 270.5 206.4 Q 270.5 200.4 277.1 194.85 Q 283.7 189.3 290.6 189.3 Q 293.4 189.3 295.95 190 Q 298.5 190.7 300.8 193.2 Q 303.1 195.7 303.1 199.6 Q 303.1 205.1 296.4 210.9 Q 289.7 216.7 283 216.7 Q 280.2 216.7 277.65 216 Q 275.1 215.3 272.8 212.8 Q 270.5 210.3 270.5 206.4 Z " fill="black" />
	<rect x="300" y="38" width="3" height="102.5" stroke="lightgray" stroke-width="1" fill="none" />
	<rect x="300" y="38" width="3" height="102.5" fill="black" />
	<rect x="270.5" y="203" width="3" height="102.5" stroke="lightgray" stroke-width="1" fill="none" />
	<rect x="270.5" y="203" width="3" height="102.5" fill="black" />
	<rect x="270.5" y="293" width="50" height="25" stroke="lightgray" stroke-width="1" fill="none" />
	<rect x="270.5" y="546" width="32.5" height="25" stroke="lightgray" stroke-width="1" fill="none" />
	<path d="M 270.5 561.9 Q 270.5 555.9 277.1 550.35 Q 283.7 544.8 290.6 544.8 Q 293.4 544.8 295.95 545.5 Q 298.5 546.2 300.8 548.7 Q 303.1 551.2 303.1 555.1 Q 303.1 560.6 296.4 566.4 Q 289.7 572.2 283 572.2 Q 280.2 572.2 277.65 571.5 Q 275.1 570.8 272.8 568.3 Q 270.5 565.8 270.5 561.9 Z " fill="black" />
	<rect x="300" y="443.5" width="3" height="115" stroke="lightgray" stroke-width="1" fill="none" />
	<rect x="300" y="443.5" width="3" height="115" fill="black" />
	<rect x="270.5" y="431" width="50" height="25" stroke="lightgray" stroke-width="1" fill="none" />
	<rect x="352.5" y="178" width="32.5" height="25" stroke="lightgray" stroke-width="1" fill="none" />
	<path d="M 352.5 193.9 Q 352.5 187.9 359.1 182.35 Q 365.7 176.8 372.6 176.8 Q 375.4 176.8 377.95 177.5 Q 380.5 178.2 382.8 180.7 Q 385.1 183.2 385.1 187.1 Q 385.1 192.6 378.4 198.4 Q 371.7 204.2 365 204.2 Q 362.2 204.2 359.65 203.5 Q 357.1 202.8 354.8 200.3 Q 352.5 197.8 352.5 193.9 Z " fill="black" />
	<rect x="352.5" y="508.5" width="32.5" height="25" stroke="lightgray" stroke-width="1" fill="none" />
	<path d="M 352.5 524.4 Q 352.5 518.4 359.1 512.85 Q 365.7 507.3 372.6 507.3 Q 375.4 507.3 377.95 508 Q 380.5 508.7 382.8 511.2 Q 385.1 513.7 385.1 517.6 Q 385.1 523.1 378.4 528.9 Q 371.7 534.7 365 534.7 Q 362.2 534.7 359.65 534 Q 357.1 533.3 354.8 530.8 Q 352.5 528.3 352.5 524.4 Z " fill="black" />
	<rect x="382" y="418.5" width="3" height="102.5" stroke="lightgray" stroke-width="1" fill="none" />
	<rect x="382" y="418.5" width="3" height="102.5" fill="black" />
	<rect x="352.5" y="406" width="32.5" height="25" stroke="lightgray" stroke-width="1" fill="none" />
	<rect x="417.5" y="165.5" width="32.5" height="25" stroke="lightgray" stroke-width="1" fill="none" />
	<path d="M 417.5 181.4 Q 417.5 175.4 424.1 169.85 Q 430.7 164.3 437.6 164.3 Q 440.4 164.3 442.95 165 Q 445.5 165.7 447.8 168.2 Q 450.1 170.7 450.1 174.6 Q 450.1 180.1 443.4 185.9 Q 436.7 191.7 430 191.7 Q 427.2 191.7 424.65 191 Q 422.1 190.3 419.8 187.8 Q 417.5 185.3 417.5 181.4 Z " fill="black" />
	<rect x="417.5" y="178" width="3" height="115" stroke="lightgray" stroke-width="1" fill="none" />
	<rect x="417.5" y="178" width="3" height="115" fill="black" />
	<rect x="417.5" y="280.5" width="32.5" height="25" stroke="lightgray" stroke-width="1" fill="none" />
	<ellipse cx="422.5" cy="513.5" rx="5" ry="5" stroke="gray" stroke-width="1" fill="none" />
	<rect x="482.5" y="135.5" width="5" height="60" stroke="orange" stroke-width="1" fill="none" />
	<rect x="482.5" y="478.5" width="5" height="60" stroke="orange" stroke-width="1" fill="none" />
	<rect x="487.5" y="140.5" width="32.5" height="25" stroke="lightgray" stroke-width="1" fill="none" />
	<path d="M 487.5 156.4 Q 487.5 150.4 494.1 144.85 Q 500.7 139.3 507.6 139.3 Q 510.4 139.3 512.95 140 Q 515.5 140.7 517.8 143.2 Q 520.1 145.7 520.1 149.6 Q 520.1 155.1 513.4 160.9 Q 506.7 166.7 500 166.7 Q 497.2 166.7 494.65 166 Q 492.1 165.3 489.8 162.8 Q 487.5 160.3 487.5 156.4 Z " fill="black" />
	<rect x="487.5" y="178" width="32.5" height="25" stroke="lightgray" stroke-width="1" fill="none" />
	<path d="M 487.5 193.9 Q 487.5 187.9 494.1 182.35 Q 500.7 176.8 507.6 176.8 Q 510.4 176.8 512.95 177.5 Q 515.5 178.2 517.8 180.7 Q 520.1 183.2 520.1 187.1 Q 520.1 192.6 513.4 198.4 Q 506.7 204.2 500 204.2 Q 497.2 204.2 494.65 203.5 Q 492.1 202.8 489.8 200.3 Q 487.5 197.8 487.5 193.9 Z " fill="black" />
	<rect x="520" y="184.25" width="20" height="12.5" stroke="lightgray" stroke-width="1" fill="none" />
	<path d="M 526.25 190.5 Q 526.25 188.2 527.85 186.6 Q 529.45 185 531.75 185 Q 534.05 185 535.65 186.6 Q 537.25 188.2 537.25 190.5 Q 537.25 192.8 535.65 194.4 Q 534.05 196 531.75 196 Q 529.45 196 527.85 194.4 Q 526.25 192.8 526.25 190.5 Z " fill="black" />
	<rect x="517" y="38" width="3" height="115" stroke="lightgray" stroke-width="1" fill="none" />
	<rect x="517" y="38" width="3" height="115" fill="black" />
	<rect x="487.5" y="25.5" width="50" height="25" stroke="lightgray" stroke-width="1" fill="none" />
	<rect x="487.5" y="190.5" width="3" height="102.5" stroke="lightgray" stroke-width="1" fill="none" />
	<rect x="487.5" y="190.5" width="3" height="102.5" fill="black" />
	<rect x="487.5" y="496" width="32.5" height="25" stroke="lightgray" stroke-width="1" fill="none" />
	<path d="M 487.5 511.9 Q 487.5 505.9 494.1 500.35 Q 500.7 494.8 507.6 494.8 Q 510.4 494.8 512.95 495.5 Q 515.5 496.2 517.8 498.7 Q 520.1 501.2 520.1 505.1 Q 520.1 510.6 513.4 516.4 Q 506.7 522.2 500 522.2 Q 497.2 522.2 494.65 521.5 Q 492.1 520.8 489.8 518.3 Q 487.5 515.8 487.5 511.9 Z " fill="black" />
	<rect x="517" y="406" width="3" height="102.5" stroke="lightgray" stroke-width="1" fill="none" />
	<rect x="517" y="406" width="3" height="102.5" fill="black" />
	<rect x="487.5" y="393.5" width="50" height="25" stroke="lightgray" stroke-width="1" fill="none" />
	<rect x="552.5" y="128" width="32.5" height="25" stroke="lightgray" stroke-width="1" fill="none" />
	<path d="M 552.5 143.9 Q 552.5 137.9 559.1 132.35 Q 565.7 126.8 572.6 126.8 Q 575.4 126.8 577.95 127.5 Q 580.5 128.2 582.8 130.7 Q 585.1 133.2 585.1 137.1 Q 585.1 142.6 578.4 148.4 Q 571.7 154.2 565 154.2 Q 562.2 154.2 559.65 153.5 Q 557.1 152.8 554.8 150.3 Q 552.5 147.8 552.5 143.9 Z " fill="black" />
	<ellipse cx="557.5" cy="513.5" rx="5" ry="5" stroke="gray" stroke-width="1" fill="none" />
	<ellipse cx="622.5" cy="170.5" rx="5" ry="5" stroke="gray" stroke-width="1" fill="none" />
	<rect x="617.5" y="521" width="32.5" height="25" stroke="lightgray" stroke-width="1" fill="none" />
	<path d="M 617.5 536.9 Q 617.5 530.9 624.1 525.35 Q 630.7 519.8 637.6 519.8 Q 640.4 519.8 642.95 520.5 Q 645.5 521.2 647.8 523.7 Q 650.1 526.2 650.1 530.1 Q 650.1 535.6 643.4 541.4 Q 636.7 547.2 630 547.2 Q 627.2 547.2 624.65 546.5 Q 622.1 545.8 619.8 543.3 Q 617.5 540.8 617.5 536.9 Z " fill="black" />
	<rect x="647" y="431" width="3" height="102.5" stroke="lightgray" stroke-width="1" fill="none" />
	<rect x="647" y="431" width="3" height="102.5" fill="black" />
	<rect x="617.5" y="418.5" width="32.5" height="25" stroke="lightgray" stroke-width="1" fill="none" />
	<rect x="682.5" y="115.5" width="32.5" height="25" stroke="lightgray" stroke-width="1" fill="none" />
	<path d="M 682.5 131.4 Q 682.5 125.4 689.1 119.85 Q 695.7 114.3 702.6 114.3 Q 705.4 114.3 707.95 115 Q 710.5 115.7 712.8 118.2 Q 715.1 120.7 715.1 124.6 Q 715.1 130.1 708.4 135.9 Q 701.7 141.7 695 141.7 Q 692.2 141.7 689.65 141 Q 687.1 140.3 684.8 137.8 Q 682.5 135.3 682.5 131.4 Z " fill="black" />
	<rect x="712" y="25.5" width="3" height="102.5" stroke="lightgray" stroke-width="1" fill="none" />
	<rect x="712" y="25.5" width="3" height="102.5" fill="black" />
	<rect x="682.5" y="13" width="32.5" height="25" stroke="lightgray" stroke-width="1" fill="none" />
	<ellipse cx="687.5" cy="513.5" rx="5" ry="5" stroke="gray" stroke-width="1" fill="none" />
	<rect x="747.5" y="103" width="32.5" height="25" stroke="lightgray" stroke-width="1" fill="none" />
	<path d="M 747.5 118.9 Q 747.5 112.9 754.1 107.35 Q 760.7 101.8 767.6 101.8 Q 770.4 101.8 772.95 102.5 Q 775.5 103.2 777.8 105.7 Q 780.1 108.2 780.1 112.1 Q 780.1 117.6 773.4 123.4 Q 766.7 129.2 760 129.2 Q 757.2 129.2 754.65 128.5 Q 752.1 127.8 749.8 125.3 Q 747.5 122.8 747.5 118.9 Z " fill="black" />
	<rect x="777" y="13" width="3" height="102.5" stroke="lightgray" stroke-width="1" fill="none" />
	<rect x="777" y="13" width="3" height="102.5" fill="black" />
	<rect x="747.5" y="0.5" width="50" height="25" stroke="lightgray" stroke-width="1" fill="none" />
	<rect x="747.5" y="546" width="32.5" height="25" stroke="lightgray" stroke-width="1" fill="none" />
	<path d="M 747.5 561.9 Q 747.5 555.9 754.1 550.35 Q 760.7 544.8 767.6 544.8 Q 770.4 544.8 772.95 545.5 Q 775.5 546.2 777.8 548.7 Q 780.1 551.2 780.1 555.1 Q 780.1 560.6 773.4 566.4 Q 766.7 572.2 760 572.2 Q 757.2 572.2 754.65 571.5 Q 752.1 570.8 749.8 568.3 Q 747.5 565.8 747.5 561.9 Z " fill="black" />
	<rect x="777" y="443.5" width="3" height="115" stroke="lightgray" stroke-width="1" fill="none" />
	<rect x="777" y="443.5" width="3" height="115" fill="black" />
	<rect x="747.5" y="431" width="50" height="25" stroke="lightgray" stroke-width="1" fill="none" />
	<rect x="812.5" y="128" width="32.5" height="25" stroke="lightgray" stroke-width="1" fill="none" />
	<path d="M 812.5 143.9 Q 812.5 137.9 819.1 132.35 Q 825.7 126.8 832.6 126.8 Q 835.4 126.8 837.95 127.5 Q 840.5 128.2 842.8 130.7 Q 845.1 133.2 845.1 137.1 Q 845.1 142.6 838.4 148.4 Q 831.7 154.2 825 154.2 Q 822.2 154.2 819.65 153.5 Q 817.1 152.8 814.8 150.3 Q 812.5 147.8 812.5 143.9 Z " fill="black" />
	<rect x="845" y="134.25" width="20" height="12.5" stroke="lightgray" stroke-width="1" fill="none" />
	<path d="M 851.25 140.5 Q 851.25 138.2 852.85 136.6 Q 854.45 135 856.75 135 Q 859.05 135 860.65 136.6 Q 862.25 138.2 862.25 140.5 Q 862.25 142.8 860.65 144.4 Q 859.05 146 856.75 146 Q 854.45 146 852.85 144.4 Q 851.25 142.8 851.25 140.5 Z " fill="black" />
	<rect x="842" y="38" width="3" height="102.5" stroke="lightgray" stroke-width="1" fill="none" />
	<rect x="842" y="38" width="3" height="102.5" fill="black" />
	<rect x="812.5" y="25.5" width="32.5" height="25" stroke="lightgray" stroke-width="1" fill="none" />
	<ellipse cx="817.5" cy="513.5" rx="5" ry="5" stroke="gray" stroke-width="1" fill="none" />
	<rect x="877.5" y="190.5" width="32.5" height="25" stroke="lightgray" stroke-width="1" fill="none" />
	<path d="M 877.5 206.4 Q 877.5 200.4 884.1 194.85 Q 890.7 189.3 897.6 189.3 Q 900.4 189.3 902.95 190 Q 905.5 190.7 907.8 193.2 Q 910.1 195.7 910.1 199.6 Q 910.1 205.1 903.4 210.9 Q 896.7 216.7 890 216.7 Q 887.2 216.7 884.65 216 Q 882.1 215.3 879.8 212.8 Q 877.5 210.3 877.5 206.4 Z " fill="black" />
	<rect x="877.5" y="203" width="3" height="102.5" stroke="lightgray" stroke-width="1" fill="none" />
	<rect x="877.5" y="203" width="3" height="102.5" fill="black" />
	<rect x="877.5" y="508.5" width="32.5" height="25" stroke="lightgray" stroke-width="1" fill="none" />
	<path d="M 877.5 524.4 Q 877.5 518.4 884.1 512.85 Q 890.7 507.3 897.6 507.3 Q 900.4 507.3 902.95 508 Q 905.5 508.7 907.8 511.2 Q 910.1 513.7 910.1 517.6 Q 910.1 523.1 903.4 528.9 Q 896.7 534.7 890 534.7 Q 887.2 534.7 884.65 534 Q 882.1 533.3 879.8 530.8 Q 877.5 528.3 877.5 524.4 Z " fill="black" />
	<rect x="907" y="418.5" width="3" height="102.5" stroke="lightgray" stroke-width="1" fill="none" />
	<rect x="907" y="418.5" width="3" height="102.5" fill="black" />
	<rect x="877.5" y="406" width="32.5" height="25" stroke="lightgray" stroke-width="1" fill="none" />
	<rect x="959.5" y="135.5" width="5" height="60" stroke="orange" stroke-width="1" fill="none" />
	<rect x="959.5" y="478.5" width="5" height="60" stroke="orange" stroke-width="1" fill="none" />
	<rect x="964.5" y="190.5" width="32.5" height="25" stroke="lightgray" stroke-width="1" fill="none" />
	<path d="M 964.5 206.4 Q 964.5 200.4 971.1 194.85 Q 977.7 189.3 984.6 189.3 Q 987.4 189.3 989.95 190 Q 992.5 190.7 994.8 193.2 Q 997.1 195.7 997.1 199.6 Q 997.1 205.1 990.4 210.9 Q 983.7 216.7 977 216.7 Q 974.2 216.7 971.65 216 Q 969.1 215.3 966.8 212.8 Q 964.5 210.3 964.5 206.4 Z " fill="black" />
	<rect x="994" y="100.5" width="3" height="102.5" stroke="lightgray" stroke-width="1" fill="none" />
	<rect x="994" y="100.5" width="3" height="102.5" fill="black" />
	<rect x="964.5" y="496" width="32.5" height="25" stroke="lightgray" stroke-width="1" fill="none" />
	<path d="M 964.5 511.9 Q 964.5 505.9 971.1 500.35 Q 977.7 494.8 984.6 494.8 Q 987.4 494.8 989.95 495.5 Q 992.5 496.2 994.8 498.7 Q 997.1 501.2 997.1 505.1 Q 997.1 510.6 990.4 516.4 Q 983.7 522.2 977 522.2 Q 974.2 522.2 971.65 521.5 Q 969.1 520.8 966.8 518.3 Q 964.5 515.8 964.5 511.9 Z " fill="black" />
	<rect x="964.5" y="508.5" width="3" height="102.5" stroke="lightgray" stroke-width="1" fill="none" />
	<rect x="964.5" y="508.5" width="3" height="102.5" fill="black" />
	<rect x="1046.5" y="140.5" width="25" height="50" stroke="lightgray" stroke-width="1" fill="none" />
	<path d="M 1062.2 159 Q 1058 160.1 1055.2 160.1 Q 1051.7 160.1 1049.1 157.85 Q 1046.5 155.6 1046.5 152.2 Q 1046.5 149.2 1048.65 147.1 Q 1050.8 145 1053.8 145 Q 1055.7 145 1057.25 146.05 Q 1058.8 147.1 1059.4 148.9 Q 1059.6 149.5 1060 151.45 Q 1060.4 153.4 1061 154.1 Q 1061.6 154.8 1062.9 154.8 Q 1064 154.8 1066.15 152.35 Q 1068.3 149.9 1069 148.5 Q 1069.4 147.6 1070.4 147.6 Q 1071.4 147.6 1071.8 148.5 L 1059.5 190.5 Q 1058.4 191.5 1056.8 191.5 Q 1055.1 191.5 1054 190.5 L 1064.4 161.4 Q 1064.8 160.3 1064.1 159.6 Q 1063.3 158.6 1062.2 159 Z " fill="black" />
	<ellipse cx="1051.5" cy="513.5" rx="5" ry="5" stroke="gray" stroke-width="1" fill="none" />
	<rect x="1128.5" y="103" width="32.5" height="25" stroke="lightgray" stroke-width="1" fill="none" />
	<path d="M 1128.5 118.9 Q 1128.5 112.9 1135.1 107.35 Q 1141.7 101.8 1148.6 101.8 Q 1151.4 101.8 1153.95 102.5 Q 1156.5 103.2 1158.8 105.7 Q 1161.1 108.2 1161.1 112.1 Q 1161.1 117.6 1154.4 123.4 Q 1147.7 129.2 1141 129.2 Q 1138.2 129.2 1135.65 128.5 Q 1133.1 127.8 1130.8 125.3 Q 1128.5 122.8 1128.5 118.9 Z " fill="black" />
	<rect x="1128.5" y="115.5" width="3" height="102.5" stroke="lightgray" stroke-width="1" fill="none" />
	<rect x="1128.5" y="115.5" width="3" height="102.5" fill="black" />
	<rect x="1128.5" y="205.5" width="50" height="25" stroke="lightgray" stroke-width="1" fill="none" />
	<rect x="1128.5" y="473.5" width="25" height="70" stroke="lightgray" stroke-width="1" fill="none" />
	<path d="M 1139 518.9 Q 1139.7 518.9 1140.15 518.45 Q 1140.6 518 1140.6 517.4 Q 1140.6 516.8 1140.2 516.4 L 1133 508.3 Q 1130 504.9 1130 502 Q 1130 499.5 1137.1 493.3 Q 1140.8 490 1140.8 485 Q 1140.8 481.1 1138.3 478.1 L 1134.8 473.9 Q 1134.4 473.4 1134.4 472.9 Q 1134.4 471.4 1135.8 471.4 Q 1136.7 471.4 1137.3 472.1 L 1152.3 489.9 Q 1153.3 491.1 1153.3 492.4 Q 1153.3 493.5 1152.5 494.7 Q 1151.7 495.9 1150.8 496.75 Q 1149.9 497.6 1148.15 499.05 Q 1146.4 500.5 1145.7 501.2 Q 1141.5 505.1 1141.5 509.8 Q 1141.5 513.4 1145.6 517.8 L 1154 526.9 Q 1154.4 527.3 1154.4 527.9 Q 1154.4 528.5 1153.95 528.95 Q 1153.5 529.4 1153 529.4 Q 1152.3 529.4 1150.9 528.3 Q 1147.2 525.5 1143 525.5 Q 1140.1 525.5 1137.95 527.75 Q 1135.8 530 1135.8 532.9 Q 1135.8 534.2 1136 535.25 Q 1136.2 536.3 1136.75 537.4 Q 1137.3 538.5 1137.5 538.9 Q 1137.7 539.3 1138.6 540.55 Q 1139.5 541.8 1139.6 541.9 Q 1139.9 542.3 1139.8 542.8 Q 1139.7 543.3 1139.25 543.55 Q 1138.8 543.8 1138.3 543.7 Q 1137.8 543.6 1137 542.8 Q 1133.6 539.3 1131.05 534.95 Q 1128.5 530.6 1128.5 527.4 Q 1128.5 523.5 1131.25 521.2 Q 1134 518.9 1139 518.9 Z " fill="black" />
	<rect x="1210.5" y="78" width="32.5" height="25" stroke="lightgray" stroke-width="1" fill="none" />
	<path d="M 1210.5 93.9 Q 1210.5 87.9 1217.1 82.35 Q 1223.7 76.8 1230.6 76.8 Q 1233.4 76.8 1235.95 77.5 Q 1238.5 78.2 1240.8 80.7 Q 1243.1 83.2 1243.1 87.1 Q 1243.1 92.6 1236.4 98.4 Q 1229.7 104.2 1223 104.2 Q 1220.2 104.2 1217.65 103.5 Q 1215.1 102.8 1212.8 100.3 Q 1210.5 97.8 1210.5 93.9 Z " fill="black" />
	<rect x="1210.5" y="90.5" width="3" height="102.5" stroke="lightgray" stroke-width="1" fill="none" />
	<rect x="1210.5" y="90.5" width="3" height="102.5" fill="black" />
	<rect x="1210.5" y="180.5" width="32.5" height="25" stroke="lightgray" stroke-width="1" fill="none" />
	<ellipse cx="1215.5" cy="513.5" rx="5" ry="5" stroke="gray" stroke-width="1" fill="none" />
	<rect x="1292.5" y="160.5" width="10" height="10" stroke="orange" stroke-width="1" fill="none" />
	<rect x="1292.5" y="503.5" width="10" height="10" stroke="orange" stroke-width="1" fill="none" />
	<path d="M 10.5 316.5 L 208.5 341.5 L 208.5 356.5 L 10.5 331.5 Z " fill="black" />
	<rect x="75.5" y="203" width="3" height="135.83333" fill="black" />
	<rect x="140.5" y="228" width="3" height="119.16667" fill="black" />
	<path d="M 270.5 291.5 L 420.5 279 L 420.5 294 L 270.5 306.5 Z " fill="black" />
	<rect x="352.5" y="190.5" width="3" height="108.02721" fill="black" />
	<path d="M 517 37 L 715 24.5 L 715 39.5 L 517 52 Z " fill="black" />
	<rect x="582" y="33.83333" width="3" height="106.66667" fill="black" />
	<path d="M 777 12 L 845 37 L 845 52 L 777 27 Z " fill="black" />
	<path d="M 1128.5 204 L 1213.5 179 L 1213.5 194 L 1128.5 219 Z " fill="black" />
	<path d="M 40 405 L 173 430 L 173 445 L 40 420 Z " fill="black" />
	<path d="M 300 442.5 L 385 417.5 L 385 432.5 L 300 457.5 Z " fill="black" />
	<path d="M 517 405 L 650 430 L 650 445 L 517 420 Z " fill="black" />
	<path d="M 777 442.5 L 910 417.5 L 910 432.5 L 777 457.5 Z " fill="black" />
	<rect x="0" y="0" width="1303" height="611.5" stroke="black" stroke-width="1" fill="none" />
</svg>
