<svg xmlns="http://www.w3.org/2000/svg" xmlns:xlink="http://www.w3.org/1999/xlink" viewBox="0 0 411 293.5">
    <rect x="0.5" y="148" width="10" height="10" stroke="orange" stroke-width="1" fill="none"/>
    <rect x="0.5" y="78" width="32.5" height="25" stroke="lightgray" stroke-width="1" fill="none"/>
    <path d="M 0.5 93.9 Q 0.5 87.9 7.1 82.35 Q 13.7 76.8 20.6 76.8 Q 23.4 76.8 25.95 77.5 Q 28.5 78.2 30.800001 80.7 Q 33.100002 83.2 33.100002 87.1 Q 33.100002 92.6 26.4 98.4 Q 19.7 104.2 13 104.2 Q 10.2 104.2 7.65 103.5 Q 5.1 102.8 2.8 100.3 Q 0.5 97.8 0.5 93.9 Z " fill="black"/>
    <rect x="0.5" y="190.5" width="32.5" height="25" stroke="lightgray" stroke-width="1" fill="none"/>
    <path d="M 0.5 206.4 Q 0.5 200.4 7.1 194.85 Q 13.7 189.3 20.6 189.3 Q 23.4 189.3 25.95 190 Q 28.5 190.7 30.800001 193.2 Q 33.100002 195.7 33.100002 199.6 Q 33.100002 205.1 26.4 210.9 Q 19.7 216.7 13 216.7 Q 10.2 216.7 7.65 216 Q 5.1 215.3 2.8 212.8 Q 0.5 210.3 0.5 206.4 Z " fill="black"/>
    <rect x="30" y="0.5" width="3" height="90" stroke="lightgray" stroke-width="1" fill="none"/>
    <rect x="30" y="0.5" width="3" height="90" fill="black"/>
    <rect x="0.5" y="203" width="3" height="90" stroke="lightgray" stroke-width="1" fill="none"/>
    <rect x="0.5" y="203" width="3" height="90" fill="black"/>
    <rect x="100.5" y="115.5" width="32.5" height="25" stroke="lightgray" stroke-width="1" fill="none"/>
    <path d="M 100.5 131.4 Q 100.5 125.4 107.1 119.85 Q 113.7 114.3 120.6 114.3 Q 123.4 114.3 125.95 115 Q 128.5 115.7 130.8 118.2 Q 133.1 120.7 133.1 124.6 Q 133.1 130.1 126.4 135.9 Q 119.7 141.7 113 141.7 Q 110.2 141.7 107.65 141 Q 105.1 140.3 102.8 137.8 Q 100.5 135.3 100.5 131.4 Z " fill="black"/>
    <rect x="100.5" y="128" width="3" height="140" stroke="lightgray" stroke-width="1" fill="none"/>
    <rect x="100.5" y="128" width="3" height="140" fill="black"/>
    <rect x="200.5" y="78" width="32.5" height="25" stroke="lightgray" stroke-width="1" fill="none"/>
    <path d="M 200.5 93.9 Q 200.5 87.9 207.1 82.35 Q 213.7 76.8 220.6 76.8 Q 223.4 76.8 225.95 77.5 Q 228.5 78.2 230.8 80.7 Q 233.1 83.2 233.1 87.1 Q 233.1 92.6 226.4 98.4 Q 219.7 104.2 213 104.2 Q 210.2 104.2 207.65 103.5 Q 205.1 102.8 202.8 100.3 Q 200.5 97.8 200.5 93.9 Z " fill="black"/>
    <rect x="200.5" y="115.5" width="32.5" height="25" stroke="lightgray" stroke-width="1" fill="none"/>
    <path d="M 200.5 131.4 Q 200.5 125.4 207.1 119.85 Q 213.7 114.3 220.6 114.3 Q 223.4 114.3 225.95 115 Q 228.5 115.7 230.8 118.2 Q 233.1 120.7 233.1 124.6 Q 233.1 130.1 226.4 135.9 Q 219.7 141.7 213 141.7 Q 210.2 141.7 207.65 141 Q 205.1 140.3 202.8 137.8 Q 200.5 135.3 200.5 131.4 Z " fill="black"/>
    <rect x="230" y="0.5" width="3" height="90" stroke="lightgray" stroke-width="1" fill="none"/>
    <rect x="230" y="0.5" width="3" height="90" fill="black"/>
    <rect x="200.5" y="128" width="3" height="127.5" stroke="lightgray" stroke-width="1" fill="none"/>
    <rect x="200.5" y="128" width="3" height="127.5" fill="black"/>
    <rect x="300.5" y="178" width="32.5" height="25" stroke="lightgray" stroke-width="1" fill="none"/>
    <path d="M 300.5 193.9 Q 300.5 187.9 307.1 182.35 Q 313.7 176.8 320.6 176.8 Q 323.4 176.8 325.95 177.5 Q 328.5 178.2 330.8 180.7 Q 333.1 183.2 333.1 187.1 Q 333.1 192.6 326.4 198.4 Q 319.7 204.2 313 204.2 Q 310.2 204.2 307.65 203.5 Q 305.1 202.8 302.8 200.3 Q 300.5 197.8 300.5 193.9 Z " fill="black"/>
    <rect x="300.5" y="190.5" width="3" height="90" stroke="lightgray" stroke-width="1" fill="none"/>
    <rect x="300.5" y="190.5" width="3" height="90" fill="black"/>
    <rect x="400.5" y="148" width="10" height="10" stroke="orange" stroke-width="1" fill="none"/>
    <path d="M 0.5 280 L 103.5 255 L 103.5 268 L 0.5 293 Z " fill="black"/>
    <path d="M 200.5 242.5 L 303.5 267.5 L 303.5 280.5 L 200.5 255.5 Z " fill="black"/>
    <rect x="0" y="0" width="411" height="293.5" stroke="black" stroke-width="1" fill="none"/>
</svg>
