<svg xmlns="http://www.w3.org/2000/svg" xmlns:xlink="http://www.w3.org/1999/xlink" viewBox="0 0 720.5 314.65002">
    <line x1="1.25" y1="50.5" x2="719.25" y2="50.5" stroke="black" stroke-width="2.5"/>
    <line x1="1.25" y1="75.5" x2="719.25" y2="75.5" stroke="black" stroke-width="2.5"/>
    <line x1="1.25" y1="100.5" x2="719.25" y2="100.5" stroke="black" stroke-width="2.5"/>
    <line x1="1.25" y1="125.5" x2="719.25" y2="125.5" stroke="black" stroke-width="2.5"/>
    <line x1="1.25" y1="150.5" x2="719.25" y2="150.5" stroke="black" stroke-width="2.5"/>
    <rect x="1.25" y="0.5" width="10" height="200" stroke="orange" stroke-width="1" fill="none"/>
    <rect x="1.25" y="268" width="10" height="25" stroke="orange" stroke-width="1" fill="none"/>
    <rect x="11.25" y="10.5" width="74" height="186" stroke="orange" stroke-width="1" fill="none"/>
    <path d="M 36.050003 69 Q 33.75 61.7 32.85 56 Q 32.050003 51.199997 32.050003 44.799995 Q 32.050003 42.6 32.15 40.4 Q 32.550003 30.900002 36.050003 22.949997 Q 39.550003 15 46.55 10.799995 Q 47.05 10.5 47.850002 10.5 Q 48.55 10.5 49.05 11 Q 54.65 16.599998 57.65 25.299995 Q 60.65 34 60.65 42.9 Q 60.65 53.199997 56.25 63.1 Q 52.05 73 44.45 80.6 Q 43.850002 81.2 44.05 82.2 L 48.05 98.2 Q 48.350002 99.8 50.05 99.6 Q 51.65 99.4 53.15 99.4 Q 58.95 99.4 63.65 101.7 Q 68.350006 104 71.25 107.7 Q 74.15 111.4 75.700005 115.85 Q 77.25 120.3 77.25 125 Q 77.25 133.6 72.45 140.55 Q 67.65 147.5 60.95 149.7 Q 59.55 150.2 59.850002 151.8 Q 62.350002 163.6 62.45 171.7 Q 62.45 174.8 62.05 177.8 Q 61.25 184.7 56.05 189.9 Q 50.850002 195.1 43.65 195.1 Q 34.85 195.1 28.75 189.8 Q 22.650002 184.5 22.650002 175.9 Q 22.650002 171.5 25.75 168.3 Q 28.85 165.1 33.050003 165.1 Q 37.35 165.1 40.300003 168.15 Q 43.25 171.2 43.25 175.4 Q 43.25 179 40.85 181.7 Q 38.45 184.5 35.050003 184.8 Q 33.85 184.9 33.45 186 Q 33.050003 187.1 34.25 188 Q 37.85 190.8 43.050003 190.8 Q 48.75 190.8 52.9 186.7 Q 57.05 182.6 57.75 177.4 Q 58.25 173.8 58.25 170.2 Q 58.25 162.4 55.850002 152.9 Q 55.45 151.2 53.65 151.4 Q 49.65 151.9 46.25 151.9 Q 31.45 151.9 21.35 142.6 Q 11.25 133.3 11.25 117.3 Q 11.25 112.4 12.4 107.65 Q 13.55 102.9 15 99.45 Q 16.45 96 19.5 91.45 Q 22.55 86.899994 24.400002 84.5 Q 26.25 82.1 30.25 77.35 Q 34.25 72.6 35.75 70.7 Q 36.35 70 36.050003 69 Z M 51.65 114.7 L 58.15 144.2 Q 58.45 145.5 59.95 145.5 Q 60.350002 145.5 60.65 145.4 Q 64.75 143.7 67.45 138.8 Q 70.15 133.9 70.15 129.1 Q 70.15 122.1 66.05 117.3 Q 61.850002 112.4 53.45 112.4 Q 52.75 112.4 52.2 112.95 Q 51.65 113.5 51.65 114.2 Q 51.55 114.5 51.65 114.7 Z M 37.85 86.899994 Q 36.25 88.7 33.1 92.05 Q 29.95 95.4 28.4 97.15 Q 26.85 98.9 24.6 102.1 Q 22.35 105.3 21.25 108 Q 20.150002 110.7 19.3 114.6 Q 18.45 118.5 18.45 122.9 Q 18.45 129 22.2 134.7 Q 25.95 140.4 32.5 144 Q 39.050003 147.6 46.55 147.6 Q 49.25 147.6 52.55 147.3 Q 53.350002 147.2 53.850002 146.55 Q 54.350002 145.9 54.15 145.1 L 47.65 115.2 Q 47.350002 113.8 45.75 113.8 Q 45.45 113.8 45.05 113.9 Q 40.45 115.6 38.550003 118.7 Q 36.65 121.8 36.65 126.5 Q 36.65 132 42.65 136 Q 43.350002 136.5 43.350002 137.5 Q 43.350002 138.3 42.7 139 Q 42.050003 139.7 41.15 139.7 Q 40.65 139.7 40.25 139.5 Q 34.550003 136.5 31.800001 131.35 Q 29.050001 126.2 29.050001 120.5 Q 29.050001 115 33 109.15 Q 36.95 103.3 42.85 101.1 Q 44.350002 100.5 44.05 99 L 41.050003 87.7 Q 40.85 86.6 39.65 86.399994 Q 38.45 86.2 37.85 86.899994 Z M 54.65 28.699997 Q 53.850002 26.099998 51.95 26.099998 Q 51.350002 26.099998 50.850002 26.400002 Q 44.45 30.199997 40.7 37.1 Q 36.95 44 36.95 51.699997 Q 36.95 56.699997 39.050003 64 Q 39.35 65.1 40.550003 65.3 Q 41.550003 65.399994 42.25 64.6 Q 42.550003 64.2 45.100002 61.049995 Q 47.65 57.9 48.45 56.85 Q 49.25 55.799995 51.15 52.85 Q 53.05 49.9 53.8 47.949997 Q 54.55 46 55.25 43.1 Q 55.95 40.199997 55.95 37.299995 Q 55.95 33.1 54.65 28.699997 Z " fill="black"/>
    <ellipse cx="16.25" cy="285.5" rx="5" ry="5" stroke="gray" stroke-width="1" fill="none"/>
    <rect x="91.25" y="163" width="32.5" height="25" stroke="red" stroke-width="1" fill="none"/>
    <path d="M 91.25 178.9 Q 91.25 172.9 97.85 167.35 Q 104.45 161.8 111.35 161.8 Q 114.15 161.8 116.7 162.5 Q 119.25 163.2 121.55 165.7 Q 123.850006 168.2 123.850006 172.1 Q 123.850006 177.6 117.15 183.4 Q 110.45 189.2 103.75 189.2 Q 100.95 189.2 98.4 188.5 Q 95.85 187.8 93.55 185.3 Q 91.25 182.8 91.25 178.9 Z " fill="black"/>
    <rect x="123.75" y="163" width="5" height="25" stroke="red" stroke-width="1" fill="none"/>
    <rect x="85" y="174.25" width="45" height="2.5" stroke="red" stroke-width="1" fill="none"/>
    <rect x="85" y="174.25" width="45" height="2.5" fill="black"/>
    <rect x="120.75" y="86.21429" width="3" height="89.28571" stroke="red" stroke-width="1" fill="none"/>
    <rect x="91.25" y="73.71429" width="50" height="25" stroke="red" stroke-width="1" fill="none"/>
    <rect x="65.90195" y="246.85" width="12.5" height="67.3" stroke="red" stroke-width="1" fill="none"/>
    <rect x="78.40195" y="246.85" width="37.20167" height="67.3" stroke="red" stroke-width="1" fill="none"/>
    <path d="M 84.65493 256.64404 L 80.88405 256.07126 L 80.88405 253.68462 L 93.86734 253.68462 L 93.86734 256.07126 L 89.76233 256.64404 L 89.76233 269.48413 L 106.56424 269.48413 L 106.56424 256.64404 L 102.69789 256.07126 L 102.69789 253.68462 L 115.49025 253.68462 L 115.49025 256.07126 L 111.71937 256.64404 L 111.71937 286.3338 L 115.49025 286.8111 L 115.49025 289.15002 L 102.650154 289.15002 L 102.650154 286.8111 L 106.56424 286.3338 L 106.56424 272.44357 L 89.76233 272.44357 L 89.76233 286.3338 L 93.91507 286.8111 L 93.91507 289.15002 L 80.78858 289.15002 L 80.78858 286.8111 L 84.65493 286.3338 L 84.65493 256.64404 Z " fill="black"/>
    <rect x="115.60362" y="246.85" width="24.457039" height="67.3" stroke="red" stroke-width="1" fill="none"/>
    <path d="M 120.68716 285.90417 Q 117.65613 282.1333 117.65613 275.83258 Q 117.65613 271.67984 119.23131 268.52948 Q 120.80649 265.37912 123.64658 263.66077 Q 126.48668 261.94238 130.11436 261.94238 Q 134.5535 261.94238 137.01173 264.4006 Q 139.46997 266.85883 139.61316 271.44116 Q 139.61316 274.35287 139.27904 275.8803 L 122.85899 275.8803 Q 122.95446 280.60583 125.054695 283.49368 Q 127.15494 286.38153 131.02129 286.38153 Q 132.93059 286.38153 135.00696 285.6894 Q 137.08333 284.99725 138.22891 284.0426 L 139.13583 286.14285 Q 137.75159 287.57483 135.03082 288.62494 Q 132.31006 289.67505 129.49384 289.67505 Q 123.71818 289.67505 120.68716 285.90417 Z M 134.36256 273.3505 Q 134.50577 272.34808 134.50577 271.29797 Q 134.45804 268.19537 133.19312 266.4054 Q 131.9282 264.61542 129.20744 264.61542 Q 126.43894 264.61542 124.79217 266.62018 Q 123.145386 268.62494 122.90672 273.3505 L 134.36256 273.3505 Z " fill="black"/>
    <rect x="140.06067" y="246.85" width="14.385441" height="67.3" stroke="red" stroke-width="1" fill="none"/>
    <path d="M 145.54993 257.0259 Q 144.78621 256.16672 144.78621 254.8302 Q 144.78621 253.30276 145.717 252.30037 Q 146.64778 251.29797 148.27069 251.29797 Q 149.8936 251.29797 150.65733 252.15717 Q 151.42105 253.01636 151.42105 254.35287 Q 151.42105 255.97578 150.49026 256.93045 Q 149.55948 257.8851 147.8411 257.8851 L 147.79337 257.8851 Q 146.31366 257.8851 145.54993 257.0259 Z M 142.06544 262.94476 L 149.464 262.03784 L 149.55948 262.03784 L 150.60959 262.89703 L 150.60959 288.8159 Q 150.60959 292.7777 149.464 295.4746 Q 148.31842 298.1715 146.36139 299.46027 Q 144.40434 300.74905 141.96997 300.74905 Q 140.1084 300.74905 139.77428 300.5581 L 139.53561 298.3147 Q 139.91747 298.36243 140.65733 298.21924 Q 141.39719 298.07602 142.1609 297.7896 Q 144.11795 297.12137 144.90553 294.5677 Q 145.69313 292.01398 145.69313 287.71802 L 145.69313 266.477 L 142.06544 265.6178 L 142.06544 262.94476 Z " fill="black"/>
    <rect x="182.25" y="150.5" width="32.5" height="25" stroke="red" stroke-width="1" fill="none"/>
    <path d="M 182.25 166.4 Q 182.25 160.4 188.85 154.85 Q 195.45 149.3 202.35 149.3 Q 205.15 149.3 207.7 150 Q 210.25 150.7 212.55 153.2 Q 214.85 155.7 214.85 159.6 Q 214.85 165.1 208.15 170.9 Q 201.45 176.7 194.75 176.7 Q 191.95 176.7 189.4 176 Q 186.85 175.3 184.55 172.8 Q 182.25 170.3 182.25 166.4 Z " fill="black"/>
    <rect x="214.75" y="150.5" width="5" height="25" stroke="red" stroke-width="1" fill="none"/>
    <rect x="211.75" y="73.71429" width="3" height="89.28571" stroke="red" stroke-width="1" fill="none"/>
    <rect x="182.25" y="61.214287" width="32.5" height="25" stroke="red" stroke-width="1" fill="none"/>
    <rect x="166.32716" y="246.85" width="12.5" height="67.3" stroke="red" stroke-width="1" fill="none"/>
    <rect x="178.82716" y="246.85" width="21.83174" height="67.3" stroke="red" stroke-width="1" fill="none"/>
    <path d="M 185.41428 285.3314 Q 185.8916 286.04736 187.44292 286.62018 Q 188.99423 287.19296 190.7126 287.19296 Q 193.43336 287.19296 194.72215 286.14285 Q 196.01094 285.0927 196.01094 283.23114 Q 196.01094 281.94238 195.19948 280.98773 Q 194.38802 280.03308 192.93217 279.2932 Q 191.47633 278.55334 188.75557 277.50323 Q 185.08014 276.119 183.38564 274.1858 Q 181.69113 272.25262 181.69113 269.1023 Q 181.69113 267.00204 182.95604 265.42688 Q 184.22096 263.85168 186.44052 262.96863 Q 188.6601 262.08557 191.38086 262.08557 Q 193.57657 262.08557 195.22334 262.4197 Q 196.87012 262.75385 197.87251 263.08795 Q 198.8749 263.4221 199.20903 263.51755 L 199.20903 269.4364 L 196.29733 269.4364 L 195.34268 265.90417 Q 195.05627 265.3314 193.81523 264.92566 Q 192.57417 264.51996 191.04674 264.51996 Q 188.89876 264.51996 187.58612 265.4746 Q 186.27347 266.42926 186.27347 268.05215 Q 186.27347 269.48413 186.96559 270.41492 Q 187.65771 271.3457 188.70782 271.91852 Q 189.75795 272.4913 191.5718 273.255 L 192.52644 273.6369 Q 195.19948 274.687 196.87012 275.64166 Q 198.54077 276.5963 199.66249 278.14764 Q 200.78421 279.6989 200.78421 281.94238 Q 200.78421 285.4746 198.03957 287.57483 Q 195.29495 289.67505 190.52167 289.67505 Q 188.18277 289.67505 185.62907 289.03067 Q 183.07538 288.3863 181.45247 287.71802 L 181.45247 281.60825 L 184.55508 281.60825 L 185.41428 285.3314 Z " fill="black"/>
    <rect x="200.6589" y="246.85" width="25.936752" height="67.3" stroke="red" stroke-width="1" fill="none"/>
    <path d="M 207.29375 275.37912 Q 211.78062 273.255 218.65413 273.11182 L 218.65413 271.77533 Q 218.65413 269.53186 218.1768 268.2431 Q 217.69948 266.9543 216.53003 266.35767 Q 215.36058 265.761 213.2126 265.761 Q 210.77823 265.761 208.84506 266.45313 Q 206.9119 267.14523 205.00258 268.14764 L 203.80927 265.66553 Q 204.4298 265.14047 206.10043 264.28128 Q 207.77107 263.4221 209.96678 262.75385 Q 212.16249 262.08557 214.35818 262.08557 Q 217.74721 262.08557 219.72812 263.01636 Q 221.70901 263.94714 222.5682 265.99963 Q 223.4274 268.05215 223.4274 271.4889 L 223.4274 286.8111 L 226.24362 286.8111 L 226.24362 288.91135 Q 225.28897 289.15002 223.83313 289.38867 Q 222.37729 289.62732 221.27943 289.62732 Q 219.94292 289.62732 219.46559 289.22162 Q 218.98827 288.8159 218.98827 287.43164 L 218.98827 285.85645 Q 217.55627 287.28845 215.4799 288.48175 Q 213.40353 289.67505 210.77823 289.67505 Q 207.34148 289.67505 205.07417 287.69415 Q 202.80687 285.71326 202.80687 281.9901 Q 202.80687 277.50323 207.29375 275.37912 Z M 215.6947 285.66553 Q 217.31761 284.9018 218.65413 283.85168 L 218.65413 275.64166 Q 213.45126 275.64166 210.80211 277.24072 Q 208.15294 278.83975 208.15294 281.4173 Q 208.15294 283.99487 209.41785 285.21207 Q 210.68277 286.42926 212.83075 286.42926 Q 214.0718 286.42926 215.6947 285.66553 Z " fill="black"/>
    <rect x="273.25" y="138" width="32.5" height="25" stroke="red" stroke-width="1" fill="none"/>
    <path d="M 273.25 153.9 Q 273.25 147.9 279.85 142.35 Q 286.45 136.8 293.35 136.8 Q 296.15 136.8 298.7 137.5 Q 301.25 138.2 303.55 140.7 Q 305.85 143.2 305.85 147.1 Q 305.85 152.6 299.15 158.4 Q 292.45 164.2 285.75 164.2 Q 282.95 164.2 280.4 163.5 Q 277.85 162.8 275.55 160.3 Q 273.25 157.8 273.25 153.9 Z " fill="black"/>
    <rect x="305.75" y="138" width="5" height="25" stroke="red" stroke-width="1" fill="none"/>
    <rect x="302.75" y="61.214287" width="3" height="89.28571" stroke="red" stroke-width="1" fill="none"/>
    <rect x="273.25" y="48.714287" width="50" height="25" stroke="red" stroke-width="1" fill="none"/>
    <rect x="248.53839" y="246.85" width="12.5" height="67.3" stroke="red" stroke-width="1" fill="none"/>
    <rect x="261.0384" y="246.85" width="29.994032" height="67.3" stroke="red" stroke-width="1" fill="none"/>
    <path d="M 267.29138 256.64404 L 263.56824 256.07126 L 263.56824 253.68462 L 269.9167 253.68462 Q 271.63504 253.68462 273.3057 253.54141 Q 275.88327 253.3505 278.17444 253.3505 Q 285.09567 253.39822 287.95963 255.92805 Q 290.8236 258.4579 290.8236 263.56528 Q 290.8236 267.3839 289.0575 270.20013 Q 287.29138 273.01636 284.1649 274.4961 Q 281.0384 275.97577 276.9811 275.97577 Q 275.59686 275.97577 274.1649 275.90417 Q 272.7329 275.83258 272.39877 275.78485 L 272.39877 286.28604 L 278.93814 286.8111 L 278.93814 289.15002 L 263.32956 289.15002 L 263.32956 286.8111 L 267.29138 286.3338 L 267.29138 256.64404 Z M 276.9811 273.39822 Q 280.75198 273.39822 283.11475 271.10706 Q 285.47754 268.8159 285.47754 263.61304 Q 285.47754 259.508 283.42502 257.71802 Q 281.37253 255.92805 277.02884 255.92805 Q 275.5014 255.92805 273.78302 256.119 Q 272.7329 256.21445 272.39877 256.21445 L 272.39877 273.15955 Q 273.7353 273.39822 276.9811 273.39822 Z " fill="black"/>
    <rect x="291.0324" y="246.85" width="24.457039" height="67.3" stroke="red" stroke-width="1" fill="none"/>
    <path d="M 296.11594 285.90417 Q 293.08493 282.1333 293.08493 275.83258 Q 293.08493 271.67984 294.6601 268.52948 Q 296.23526 265.37912 299.07538 263.66077 Q 301.91547 261.94238 305.54315 261.94238 Q 309.9823 261.94238 312.44052 264.4006 Q 314.89874 266.85883 315.04196 271.44116 Q 315.04196 274.35287 314.70782 275.8803 L 298.28778 275.8803 Q 298.38324 280.60583 300.4835 283.49368 Q 302.5837 286.38153 306.45007 286.38153 Q 308.35938 286.38153 310.43576 285.6894 Q 312.51212 284.99725 313.6577 284.0426 L 314.56464 286.14285 Q 313.1804 287.57483 310.45963 288.62494 Q 307.73886 289.67505 304.92264 289.67505 Q 299.14697 289.67505 296.11594 285.90417 Z M 309.79135 273.3505 Q 309.93457 272.34808 309.93457 271.29797 Q 309.8868 268.19537 308.62192 266.4054 Q 307.357 264.61542 304.63623 264.61542 Q 301.86774 264.61542 300.22095 266.62018 Q 298.5742 268.62494 298.3355 273.3505 L 309.79135 273.3505 Z " fill="black"/>
    <rect x="315.48944" y="246.85" width="19.683771" height="67.3" stroke="red" stroke-width="1" fill="none"/>
    <path d="M 321.74243 288.3863 Q 320.4059 287.14523 320.4059 284.13806 L 320.4059 265.80872 L 316.96915 265.80872 L 316.96915 263.66077 Q 317.20782 263.61304 318.30566 263.32663 Q 319.40353 263.04022 319.78537 262.80157 Q 320.5491 262.37195 320.9787 261.0832 Q 321.36057 260.17627 321.88562 258.1715 Q 322.41068 256.16672 322.50613 255.78485 L 325.3224 255.78485 L 325.41785 262.65836 L 333.3892 262.65836 L 333.3892 265.80872 L 325.41785 265.80872 L 325.41785 280.46265 Q 325.41785 283.1834 325.5849 284.28128 Q 325.75198 285.37912 326.3009 285.71326 Q 326.84982 286.04736 328.18634 286.04736 Q 329.47513 286.04736 331.02643 285.71326 Q 332.57776 285.37912 333.43692 284.99725 L 334.15292 287.14523 Q 333.00732 288.00443 330.45364 288.8159 Q 327.89993 289.62732 325.7997 289.62732 Q 323.07895 289.62732 321.74243 288.3863 Z " fill="black"/>
    <rect x="364.25" y="125.5" width="32.5" height="25" stroke="red" stroke-width="1" fill="none"/>
    <path d="M 364.25 141.4 Q 364.25 135.4 370.85 129.85 Q 377.45 124.3 384.35 124.3 Q 387.15 124.3 389.7 125 Q 392.25 125.7 394.55 128.2 Q 396.85 130.7 396.85 134.6 Q 396.85 140.1 390.15 145.9 Q 383.45 151.7 376.75 151.7 Q 373.95 151.7 371.4 151 Q 368.85 150.3 366.55 147.8 Q 364.25 145.3 364.25 141.4 Z " fill="black"/>
    <rect x="396.75" y="125.5" width="5" height="25" stroke="red" stroke-width="1" fill="none"/>
    <rect x="393.75" y="48.714287" width="3" height="89.28571" stroke="red" stroke-width="1" fill="none"/>
    <rect x="364.25" y="36.214287" width="32.5" height="25" stroke="red" stroke-width="1" fill="none"/>
    <rect x="348.15216" y="246.85" width="12.5" height="67.3" stroke="red" stroke-width="1" fill="none"/>
    <rect x="360.65216" y="246.85" width="21.115751" height="67.3" stroke="red" stroke-width="1" fill="none"/>
    <path d="M 362.8956 286.8111 L 366.47556 286.52472 L 366.47556 266.3338 L 363.0388 265.4746 L 363.0388 262.89703 L 369.62592 262.03784 L 369.72137 262.03784 L 370.77148 262.89703 L 370.77148 263.75623 L 370.6283 267.47937 L 370.77148 267.47937 Q 371.2488 266.6679 372.48987 265.37912 Q 373.73093 264.09033 375.68796 263.01636 Q 377.645 261.94238 379.93616 261.94238 Q 380.8908 261.94238 381.51135 262.18103 L 381.51135 267.5271 Q 381.17722 267.28845 380.43735 267.07364 Q 379.6975 266.85883 378.7906 266.85883 Q 374.82877 266.85883 371.43976 269.2932 L 371.43976 286.477 L 377.5018 286.85883 L 377.5018 289.15002 L 362.8956 289.15002 L 362.8956 286.8111 Z " fill="black"/>
    <rect x="381.76788" y="246.85" width="27.177803" height="67.3" stroke="red" stroke-width="1" fill="none"/>
    <path d="M 385.68198 268.3863 Q 387.44806 265.23593 390.3359 263.58917 Q 393.22372 261.94238 396.51727 261.94238 Q 402.53162 261.94238 405.56262 265.761 Q 408.59366 269.5796 408.59366 275.78485 Q 408.59366 280.12854 406.82755 283.27887 Q 405.06143 286.42926 402.1736 288.05215 Q 399.28577 289.67505 395.99222 289.67505 Q 389.9779 289.67505 386.94687 285.85645 Q 383.91586 282.03784 383.91586 275.83258 Q 383.91586 271.53665 385.68198 268.3863 Z M 401.3383 284.23352 Q 403.1044 281.51276 403.1044 276.16672 Q 403.1044 270.8684 401.48148 267.76575 Q 399.85858 264.66315 396.27863 264.66315 Q 392.98508 264.66315 391.1951 267.3839 Q 389.40512 270.10468 389.40512 275.45074 Q 389.40512 280.74905 391.07574 283.85168 Q 392.7464 286.95428 396.27863 286.95428 Q 399.57217 286.95428 401.3383 284.23352 Z " fill="black"/>
    <rect x="455.25" y="113" width="32.5" height="25" stroke="red" stroke-width="1" fill="none"/>
    <path d="M 455.25 128.9 Q 455.25 122.9 461.85 117.35 Q 468.45 111.8 475.35 111.8 Q 478.15 111.8 480.7 112.5 Q 483.25 113.2 485.55 115.7 Q 487.85 118.2 487.85 122.1 Q 487.85 127.6 481.15 133.4 Q 474.45 139.2 467.75 139.2 Q 464.95 139.2 462.4 138.5 Q 459.85 137.8 457.55 135.3 Q 455.25 132.8 455.25 128.9 Z " fill="black"/>
    <rect x="487.75" y="113" width="5" height="25" stroke="red" stroke-width="1" fill="none"/>
    <rect x="484.75" y="36.214287" width="3" height="89.28571" stroke="red" stroke-width="1" fill="none"/>
    <rect x="431.52487" y="246.85" width="12.5" height="67.3" stroke="red" stroke-width="1" fill="none"/>
    <rect x="444.02487" y="246.85" width="31.330547" height="67.3" stroke="red" stroke-width="1" fill="none"/>
    <path d="M 449.0368 266.3338 L 445.60004 265.4746 L 445.60004 262.89703 L 452.4258 262.03784 L 452.56903 262.03784 L 453.5714 262.89703 L 453.5714 264.9018 L 453.52368 266.0474 Q 455.24207 264.51996 458.0583 263.27887 Q 460.8745 262.03784 463.4521 262.03784 Q 466.45923 262.03784 468.10602 263.1834 Q 469.7528 264.329 470.42105 266.69177 Q 471.0893 269.05457 471.0893 273.0641 L 471.0893 286.42926 L 474.4306 286.76337 L 474.4306 289.15002 L 463.11795 289.15002 L 463.11795 286.8111 L 466.07736 286.42926 L 466.07736 273.01636 Q 466.07736 270.20013 465.69553 268.60107 Q 465.31366 267.00204 464.26352 266.21445 Q 463.2134 265.42688 461.20865 265.42688 Q 459.49026 265.42688 457.53323 266.28604 Q 455.57617 267.14523 454.04874 268.29083 L 454.04874 286.38153 L 457.29456 286.8111 L 457.29456 289.15002 L 446.02963 289.15002 L 446.02963 286.8111 L 449.0368 286.38153 L 449.0368 266.3338 Z " fill="black"/>
    <rect x="475.3554" y="246.85" width="24.457039" height="67.3" stroke="red" stroke-width="1" fill="none"/>
    <path d="M 480.43893 285.90417 Q 477.40793 282.1333 477.40793 275.83258 Q 477.40793 271.67984 478.9831 268.52948 Q 480.55826 265.37912 483.39838 263.66077 Q 486.23846 261.94238 489.86615 261.94238 Q 494.3053 261.94238 496.76352 264.4006 Q 499.22174 266.85883 499.36496 271.44116 Q 499.36496 274.35287 499.03082 275.8803 L 482.61078 275.8803 Q 482.70624 280.60583 484.8065 283.49368 Q 486.9067 286.38153 490.77307 286.38153 Q 492.68237 286.38153 494.75876 285.6894 Q 496.8351 284.99725 497.9807 284.0426 L 498.88763 286.14285 Q 497.5034 287.57483 494.78262 288.62494 Q 492.06186 289.67505 489.24564 289.67505 Q 483.46997 289.67505 480.43893 285.90417 Z M 494.11435 273.3505 Q 494.25757 272.34808 494.25757 271.29797 Q 494.2098 268.19537 492.94492 266.4054 Q 491.68 264.61542 488.95923 264.61542 Q 486.19073 264.61542 484.54395 266.62018 Q 482.8972 268.62494 482.6585 273.3505 L 494.11435 273.3505 Z " fill="black"/>
    <rect x="499.81244" y="246.85" width="15.387827" height="67.3" stroke="red" stroke-width="1" fill="none"/>
    <path d="M 505.4449 253.54141 L 501.57855 253.01636 L 501.57855 250.96385 L 509.26352 250.05693 L 509.35898 250.05693 L 510.4091 250.77292 L 510.4091 286.42926 L 514.4664 286.8111 L 514.4664 289.15002 L 501.57855 289.15002 L 501.57855 286.8111 L 505.4449 286.38153 L 505.4449 253.54141 Z " fill="black"/>
    <rect x="582.25" y="113" width="32.5" height="25" stroke="red" stroke-width="1" fill="none"/>
    <path d="M 582.25 128.9 Q 582.25 122.9 588.85 117.35 Q 595.45 111.8 602.35 111.8 Q 605.15 111.8 607.7 112.5 Q 610.25 113.2 612.55 115.7 Q 614.85 118.2 614.85 122.1 Q 614.85 127.6 608.15 133.4 Q 601.45 139.2 594.75 139.2 Q 591.95 139.2 589.4 138.5 Q 586.85 137.8 584.55 135.3 Q 582.25 132.8 582.25 128.9 Z " fill="black"/>
    <rect x="614.75" y="113" width="5" height="25" stroke="red" stroke-width="1" fill="none"/>
    <rect x="611.75" y="36.214287" width="3" height="89.28571" stroke="red" stroke-width="1" fill="none"/>
    <rect x="568.47516" y="246.85" width="12.5" height="67.3" stroke="red" stroke-width="1" fill="none"/>
    <rect x="580.97516" y="246.85" width="15.387827" height="67.3" stroke="red" stroke-width="1" fill="none"/>
    <path d="M 586.6076 253.54141 L 582.7413 253.01636 L 582.7413 250.96385 L 590.4262 250.05693 L 590.52167 250.05693 L 591.57184 250.77292 L 591.57184 286.42926 L 595.6291 286.8111 L 595.6291 289.15002 L 582.7413 289.15002 L 582.7413 286.8111 L 586.6076 286.38153 L 586.6076 253.54141 Z " fill="black"/>
    <rect x="596.363" y="246.85" width="25.936752" height="67.3" stroke="red" stroke-width="1" fill="none"/>
    <path d="M 602.9978 275.37912 Q 607.4847 273.255 614.3582 273.11182 L 614.3582 271.77533 Q 614.3582 269.53186 613.88086 268.2431 Q 613.40356 266.9543 612.2341 266.35767 Q 611.06464 265.761 608.9167 265.761 Q 606.4823 265.761 604.54913 266.45313 Q 602.61597 267.14523 600.70667 268.14764 L 599.5133 265.66553 Q 600.13385 265.14047 601.8045 264.28128 Q 603.47516 263.4221 605.67084 262.75385 Q 607.8666 262.08557 610.06226 262.08557 Q 613.4513 262.08557 615.4322 263.01636 Q 617.4131 263.94714 618.2723 265.99963 Q 619.1315 268.05215 619.1315 271.4889 L 619.1315 286.8111 L 621.9477 286.8111 L 621.9477 288.91135 Q 620.99304 289.15002 619.5372 289.38867 Q 618.08136 289.62732 616.9835 289.62732 Q 615.647 289.62732 615.1697 289.22162 Q 614.6923 288.8159 614.6923 287.43164 L 614.6923 285.85645 Q 613.2604 287.28845 611.18396 288.48175 Q 609.1076 289.67505 606.4823 289.67505 Q 603.04553 289.67505 600.77826 287.69415 Q 598.5109 285.71326 598.5109 281.9901 Q 598.5109 277.50323 602.9978 275.37912 Z M 611.3988 285.66553 Q 613.02167 284.9018 614.3582 283.85168 L 614.3582 275.64166 Q 609.15533 275.64166 606.50616 277.24072 Q 603.857 278.83975 603.857 281.4173 Q 603.857 283.99487 605.12195 285.21207 Q 606.38684 286.42926 608.5348 286.42926 Q 609.7759 286.42926 611.3988 285.66553 Z " fill="black"/>
    <rect x="709.25" y="0.5" width="10" height="200" stroke="orange" stroke-width="1" fill="none"/>
    <rect x="709.25" y="268" width="10" height="25" stroke="orange" stroke-width="1" fill="none"/>
    <line x1="122.25" y1="86.21429" x2="122.25" y2="171.5" stroke="black" stroke-width="3"/>
    <line x1="213.25" y1="73.71429" x2="213.25" y2="159" stroke="black" stroke-width="3"/>
    <path d="M 120.75 86.21429 L 214.75 73.71429 L 214.75 88.71429 L 120.75 101.21429 " fill="black"/>
    <line x1="304.25" y1="61.214287" x2="304.25" y2="146.5" stroke="black" stroke-width="3"/>
    <line x1="395.25" y1="48.714287" x2="395.25" y2="134" stroke="black" stroke-width="3"/>
    <path d="M 302.75 61.214287 L 396.75 48.714287 L 396.75 63.714287 L 302.75 76.21429 " fill="black"/>
    <line x1="486.25" y1="36.214287" x2="486.25" y2="121.5" stroke="black" stroke-width="3"/>
    <line x1="613.25" y1="36.214287" x2="613.25" y2="121.5" stroke="black" stroke-width="3"/>
    <rect x="0" y="0" width="720.5" height="314.65002" stroke="black" stroke-width="1" fill="none"/>
</svg>
