<svg xmlns="http://www.w3.org/2000/svg" xmlns:xlink="http://www.w3.org/1999/xlink" viewBox="0 0 782.5 328.7">
    <line x1="1.25" y1="50.5" x2="781.25" y2="50.5" stroke="black" stroke-width="2.5"/>
    <line x1="1.25" y1="75.5" x2="781.25" y2="75.5" stroke="black" stroke-width="2.5"/>
    <line x1="1.25" y1="100.5" x2="781.25" y2="100.5" stroke="black" stroke-width="2.5"/>
    <line x1="1.25" y1="125.5" x2="781.25" y2="125.5" stroke="black" stroke-width="2.5"/>
    <line x1="1.25" y1="150.5" x2="781.25" y2="150.5" stroke="black" stroke-width="2.5"/>
    <rect x="1.25" y="0.5" width="10" height="200" stroke="orange" stroke-width="1" fill="none"/>
    <rect x="1.25" y="275" width="10" height="25" stroke="orange" stroke-width="1" fill="none"/>
    <rect x="11.25" y="10.5" width="74" height="186" stroke="orange" stroke-width="1" fill="none"/>
    <path d="M 36.050003 69 Q 33.75 61.7 32.85 56 Q 32.050003 51.199997 32.050003 44.799995 Q 32.050003 42.6 32.15 40.4 Q 32.550003 30.900002 36.050003 22.949997 Q 39.550003 15 46.55 10.799995 Q 47.05 10.5 47.850002 10.5 Q 48.55 10.5 49.05 11 Q 54.65 16.599998 57.65 25.299995 Q 60.65 34 60.65 42.9 Q 60.65 53.199997 56.25 63.1 Q 52.05 73 44.45 80.6 Q 43.850002 81.2 44.05 82.2 L 48.05 98.2 Q 48.350002 99.8 50.05 99.6 Q 51.65 99.4 53.15 99.4 Q 58.95 99.4 63.65 101.7 Q 68.350006 104 71.25 107.7 Q 74.15 111.4 75.700005 115.85 Q 77.25 120.3 77.25 125 Q 77.25 133.6 72.45 140.55 Q 67.65 147.5 60.95 149.7 Q 59.55 150.2 59.850002 151.8 Q 62.350002 163.6 62.45 171.7 Q 62.45 174.8 62.05 177.8 Q 61.25 184.7 56.05 189.9 Q 50.850002 195.1 43.65 195.1 Q 34.85 195.1 28.75 189.8 Q 22.650002 184.5 22.650002 175.9 Q 22.650002 171.5 25.75 168.3 Q 28.85 165.1 33.050003 165.1 Q 37.35 165.1 40.300003 168.15 Q 43.25 171.2 43.25 175.4 Q 43.25 179 40.85 181.7 Q 38.45 184.5 35.050003 184.8 Q 33.85 184.9 33.45 186 Q 33.050003 187.1 34.25 188 Q 37.85 190.8 43.050003 190.8 Q 48.75 190.8 52.9 186.7 Q 57.05 182.6 57.75 177.4 Q 58.25 173.8 58.25 170.2 Q 58.25 162.4 55.850002 152.9 Q 55.45 151.2 53.65 151.4 Q 49.65 151.9 46.25 151.9 Q 31.45 151.9 21.35 142.6 Q 11.25 133.3 11.25 117.3 Q 11.25 112.4 12.4 107.65 Q 13.55 102.9 15 99.45 Q 16.45 96 19.5 91.45 Q 22.55 86.899994 24.400002 84.5 Q 26.25 82.1 30.25 77.35 Q 34.25 72.6 35.75 70.7 Q 36.35 70 36.050003 69 Z M 51.65 114.7 L 58.15 144.2 Q 58.45 145.5 59.95 145.5 Q 60.350002 145.5 60.65 145.4 Q 64.75 143.7 67.45 138.8 Q 70.15 133.9 70.15 129.1 Q 70.15 122.1 66.05 117.3 Q 61.850002 112.4 53.45 112.4 Q 52.75 112.4 52.2 112.95 Q 51.65 113.5 51.65 114.2 Q 51.55 114.5 51.65 114.7 Z M 37.85 86.899994 Q 36.25 88.7 33.1 92.05 Q 29.95 95.4 28.4 97.15 Q 26.85 98.9 24.6 102.1 Q 22.35 105.3 21.25 108 Q 20.150002 110.7 19.3 114.6 Q 18.45 118.5 18.45 122.9 Q 18.45 129 22.2 134.7 Q 25.95 140.4 32.5 144 Q 39.050003 147.6 46.55 147.6 Q 49.25 147.6 52.55 147.3 Q 53.350002 147.2 53.850002 146.55 Q 54.350002 145.9 54.15 145.1 L 47.65 115.2 Q 47.350002 113.8 45.75 113.8 Q 45.45 113.8 45.05 113.9 Q 40.45 115.6 38.550003 118.7 Q 36.65 121.8 36.65 126.5 Q 36.65 132 42.65 136 Q 43.350002 136.5 43.350002 137.5 Q 43.350002 138.3 42.7 139 Q 42.050003 139.7 41.15 139.7 Q 40.65 139.7 40.25 139.5 Q 34.550003 136.5 31.800001 131.35 Q 29.050001 126.2 29.050001 120.5 Q 29.050001 115 33 109.15 Q 36.95 103.3 42.85 101.1 Q 44.350002 100.5 44.05 99 L 41.050003 87.7 Q 40.85 86.6 39.65 86.399994 Q 38.45 86.2 37.85 86.899994 Z M 54.65 28.699997 Q 53.850002 26.099998 51.95 26.099998 Q 51.350002 26.099998 50.850002 26.400002 Q 44.45 30.199997 40.7 37.1 Q 36.95 44 36.95 51.699997 Q 36.95 56.699997 39.050003 64 Q 39.35 65.1 40.550003 65.3 Q 41.550003 65.399994 42.25 64.6 Q 42.550003 64.2 45.100002 61.049995 Q 47.65 57.9 48.45 56.85 Q 49.25 55.799995 51.15 52.85 Q 53.05 49.9 53.8 47.949997 Q 54.55 46 55.25 43.1 Q 55.95 40.199997 55.95 37.299995 Q 55.95 33.1 54.65 28.699997 Z " fill="black"/>
    <ellipse cx="16.25" cy="292.5" rx="5" ry="5" stroke="gray" stroke-width="1" fill="none"/>
    <rect x="91.25" y="163" width="32.5" height="25" stroke="red" stroke-width="1" fill="none"/>
    <path d="M 91.25 178.9 Q 91.25 172.9 97.85 167.35 Q 104.45 161.8 111.35 161.8 Q 114.15 161.8 116.7 162.5 Q 119.25 163.2 121.55 165.7 Q 123.850006 168.2 123.850006 172.1 Q 123.850006 177.6 117.15 183.4 Q 110.45 189.2 103.75 189.2 Q 100.95 189.2 98.4 188.5 Q 95.85 187.8 93.55 185.3 Q 91.25 182.8 91.25 178.9 Z " fill="black"/>
    <rect x="123.75" y="163" width="5" height="25" stroke="red" stroke-width="1" fill="none"/>
    <rect x="85" y="174.25" width="45" height="2.5" stroke="red" stroke-width="1" fill="none"/>
    <rect x="85" y="174.25" width="45" height="2.5" fill="black"/>
    <rect x="120.75" y="86.21429" width="3" height="89.28571" stroke="red" stroke-width="1" fill="none"/>
    <rect x="91.25" y="73.71429" width="50" height="25" stroke="red" stroke-width="1" fill="none"/>
    <rect x="57.73953" y="246.8" width="12.5" height="81.399994" stroke="red" stroke-width="1" fill="none"/>
    <rect x="70.23953" y="246.8" width="50.895786" height="81.399994" stroke="red" stroke-width="1" fill="none"/>
    <path d="M 78.57684 259.8587 L 73.548996 259.09497 L 73.548996 255.91281 L 90.86006 255.91281 L 90.86006 259.09497 L 85.3867 259.8587 L 85.3867 276.97882 L 107.789246 276.97882 L 107.789246 259.8587 L 102.634125 259.09497 L 102.634125 255.91281 L 119.690605 255.91281 L 119.690605 259.09497 L 114.66276 259.8587 L 114.66276 299.445 L 119.690605 300.08148 L 119.690605 303.2 L 102.57048 303.2 L 102.57048 300.08148 L 107.789246 299.445 L 107.789246 280.92474 L 85.3867 280.92474 L 85.3867 299.445 L 90.9237 300.08148 L 90.9237 303.2 L 73.421715 303.2 L 73.421715 300.08148 L 78.57684 299.445 L 78.57684 259.8587 Z " fill="black"/>
    <rect x="121.135315" y="246.8" width="32.20366" height="81.399994" stroke="red" stroke-width="1" fill="none"/>
    <path d="M 127.91336 298.87225 Q 123.87199 293.8444 123.87199 285.44342 Q 123.87199 279.90643 125.97223 275.70596 Q 128.07246 271.5055 131.85925 269.21432 Q 135.64606 266.92316 140.48297 266.92316 Q 146.40182 266.92316 149.67947 270.2008 Q 152.9571 273.47845 153.14804 279.58823 Q 153.14804 283.4705 152.70253 285.50708 L 130.80914 285.50708 Q 130.93643 291.8078 133.73674 295.65823 Q 136.53706 299.50867 141.6922 299.50867 Q 144.23795 299.50867 147.00644 298.58582 Q 149.77493 297.66302 151.30238 296.39014 L 152.51161 299.19043 Q 150.66594 301.09976 147.03825 302.49994 Q 143.41057 303.9001 139.6556 303.9001 Q 131.95473 303.9001 127.91336 298.87225 Z M 146.14725 282.13397 Q 146.33818 280.79745 146.33818 279.39728 Q 146.27454 275.26047 144.58798 272.87384 Q 142.90143 270.48718 139.27374 270.48718 Q 135.58241 270.48718 133.3867 273.16022 Q 131.19101 275.83325 130.87279 282.13397 L 146.14725 282.13397 Z " fill="black"/>
    <rect x="153.33897" y="246.8" width="17.43198" height="81.399994" stroke="red" stroke-width="1" fill="none"/>
    <path d="M 160.65799 260.36786 Q 159.6397 259.2223 159.6397 257.44025 Q 159.6397 255.40366 160.88074 254.06714 Q 162.1218 252.73062 164.28568 252.73062 Q 166.44955 252.73062 167.46785 253.87622 Q 168.48615 255.0218 168.48615 256.80383 Q 168.48615 258.9677 167.2451 260.24057 Q 166.00404 261.51343 163.71288 261.51343 L 163.64923 261.51343 Q 161.67628 261.51343 160.65799 260.36786 Z M 156.01201 268.25967 L 165.87675 267.05045 L 166.00404 267.05045 L 167.4042 268.196 L 167.4042 302.7545 Q 167.4042 308.03693 165.87675 311.63275 Q 164.34932 315.22864 161.73993 316.94702 Q 159.13054 318.6654 155.88472 318.6654 Q 153.40262 318.6654 152.9571 318.41083 L 152.6389 315.41956 Q 153.14804 315.48322 154.13452 315.2923 Q 155.121 315.10135 156.1393 314.71948 Q 158.74867 313.8285 159.7988 310.42352 Q 160.84892 307.01862 160.84892 301.2907 L 160.84892 272.9693 L 156.01201 271.8237 L 156.01201 268.25967 Z " fill="black"/>
    <rect x="191.25" y="150.5" width="32.5" height="25" stroke="red" stroke-width="1" fill="none"/>
    <path d="M 191.25 166.4 Q 191.25 160.4 197.85 154.85 Q 204.45 149.3 211.35 149.3 Q 214.15 149.3 216.7 150 Q 219.25 150.7 221.55 153.2 Q 223.85 155.7 223.85 159.6 Q 223.85 165.1 217.15 170.9 Q 210.45 176.7 203.75 176.7 Q 200.95 176.7 198.4 176 Q 195.85 175.3 193.55 172.8 Q 191.25 170.3 191.25 166.4 Z " fill="black"/>
    <rect x="223.75" y="150.5" width="5" height="25" stroke="red" stroke-width="1" fill="none"/>
    <rect x="220.75" y="73.71429" width="3" height="89.28571" stroke="red" stroke-width="1" fill="none"/>
    <rect x="191.25" y="61.214287" width="32.5" height="25" stroke="red" stroke-width="1" fill="none"/>
    <rect x="170.34096" y="246.8" width="12.5" height="81.399994" stroke="red" stroke-width="1" fill="none"/>
    <rect x="182.84096" y="246.8" width="28.35322" height="81.399994" stroke="red" stroke-width="1" fill="none"/>
    <path d="M 191.62378 298.10852 Q 192.26021 299.06317 194.32863 299.8269 Q 196.39705 300.5906 198.68822 300.5906 Q 202.3159 300.5906 204.03427 299.19043 Q 205.75266 297.79028 205.75266 295.3082 Q 205.75266 293.5898 204.67072 292.31696 Q 203.58878 291.04407 201.64764 290.05762 Q 199.70651 289.0711 196.07883 287.67096 Q 191.17827 285.82532 188.91891 283.24774 Q 186.65958 280.67017 186.65958 276.4697 Q 186.65958 273.66937 188.34613 271.56915 Q 190.03268 269.4689 192.99211 268.2915 Q 195.95154 267.11407 199.57922 267.11407 Q 202.50684 267.11407 204.70253 267.55957 Q 206.89824 268.0051 208.23476 268.4506 Q 209.57126 268.89612 210.01677 269.02338 L 210.01677 276.9152 L 206.1345 276.9152 L 204.86163 272.20557 Q 204.47978 271.44183 202.82504 270.90088 Q 201.17032 270.3599 199.13371 270.3599 Q 196.26976 270.3599 194.51956 271.63278 Q 192.76936 272.90564 192.76936 275.06952 Q 192.76936 276.97882 193.69218 278.21988 Q 194.61502 279.46094 196.01518 280.22467 Q 197.41534 280.9884 199.8338 282.00668 L 201.10667 282.5158 Q 204.67072 283.916 206.89824 285.18884 Q 209.12576 286.46173 210.62138 288.53015 Q 212.117 290.59857 212.117 293.5898 Q 212.117 298.29944 208.4575 301.09976 Q 204.798 303.9001 198.43364 303.9001 Q 195.3151 303.9001 191.91017 303.0409 Q 188.50523 302.1817 186.34135 301.2907 L 186.34135 293.1443 L 190.4782 293.1443 L 191.62378 298.10852 Z " fill="black"/>
    <rect x="211.19418" y="246.8" width="34.373905" height="81.399994" stroke="red" stroke-width="1" fill="none"/>
    <path d="M 220.04065 284.8388 Q 226.02315 282.00668 235.18782 281.81573 L 235.18782 280.03372 Q 235.18782 277.04248 234.55138 275.3241 Q 233.91495 273.6057 232.35568 272.81018 Q 230.79642 272.01465 227.93245 272.01465 Q 224.68663 272.01465 222.10905 272.93747 Q 219.5315 273.8603 216.98575 275.1968 L 215.39465 271.88733 Q 216.22203 271.18726 218.44955 270.0417 Q 220.67708 268.89612 223.60469 268.0051 Q 226.53229 267.11407 229.4599 267.11407 Q 233.97859 267.11407 236.6198 268.35513 Q 239.261 269.5962 240.40659 272.33286 Q 241.55217 275.06952 241.55217 279.65186 L 241.55217 300.08148 L 245.30714 300.08148 L 245.30714 302.88177 Q 244.03427 303.2 242.09314 303.51822 Q 240.15202 303.83643 238.68822 303.83643 Q 236.90619 303.83643 236.26976 303.29547 Q 235.63333 302.7545 235.63333 300.9088 L 235.63333 298.8086 Q 233.72401 300.7179 230.95552 302.309 Q 228.18703 303.9001 224.68663 303.9001 Q 220.10428 303.9001 217.08122 301.25885 Q 214.05815 298.61768 214.05815 293.65344 Q 214.05815 287.67096 220.04065 284.8388 Z M 231.24191 298.55402 Q 233.40579 297.5357 235.18782 296.13556 L 235.18782 285.18884 Q 228.25067 285.18884 224.71844 287.32092 Q 221.18623 289.453 221.18623 292.88974 Q 221.18623 296.32648 222.87279 297.9494 Q 224.55934 299.57233 227.4233 299.57233 Q 229.07803 299.57233 231.24191 298.55402 Z " fill="black"/>
    <rect x="291.25" y="138" width="32.5" height="25" stroke="red" stroke-width="1" fill="none"/>
    <path d="M 291.25 153.9 Q 291.25 147.9 297.85 142.35 Q 304.45 136.8 311.35 136.8 Q 314.15 136.8 316.7 137.5 Q 319.25 138.2 321.55 140.7 Q 323.85 143.2 323.85 147.1 Q 323.85 152.6 317.15 158.4 Q 310.45 164.2 303.75 164.2 Q 300.95 164.2 298.4 163.5 Q 295.85 162.8 293.55 160.3 Q 291.25 157.8 291.25 153.9 Z " fill="black"/>
    <rect x="323.75" y="138" width="5" height="25" stroke="red" stroke-width="1" fill="none"/>
    <rect x="320.75" y="61.214287" width="3" height="89.28571" stroke="red" stroke-width="1" fill="none"/>
    <rect x="291.25" y="48.714287" width="50" height="25" stroke="red" stroke-width="1" fill="none"/>
    <rect x="258.67297" y="246.8" width="12.5" height="81.399994" stroke="red" stroke-width="1" fill="none"/>
    <rect x="271.17297" y="246.8" width="40.32458" height="81.399994" stroke="red" stroke-width="1" fill="none"/>
    <path d="M 279.51028 259.8587 L 274.54608 259.09497 L 274.54608 255.91281 L 283.01068 255.91281 Q 285.30185 255.91281 287.5294 255.72188 Q 290.96613 255.4673 294.02103 255.4673 Q 303.24933 255.53094 307.06796 258.90405 Q 310.88657 262.27716 310.88657 269.08704 Q 310.88657 274.17853 308.53177 277.93347 Q 306.17694 281.68848 302.0083 283.6614 Q 297.83963 285.63437 292.42993 285.63437 Q 290.58426 285.63437 288.67496 285.53888 Q 286.76566 285.44342 286.32016 285.3798 L 286.32016 299.38138 L 295.0393 300.08148 L 295.0393 303.2 L 274.22787 303.2 L 274.22787 300.08148 L 279.51028 299.445 L 279.51028 259.8587 Z M 292.42993 282.19763 Q 297.45776 282.19763 300.60812 279.1427 Q 303.75848 276.08783 303.75848 269.15067 Q 303.75848 263.6773 301.02182 261.2907 Q 298.28516 258.90405 292.4936 258.90405 Q 290.45697 258.90405 288.1658 259.15863 Q 286.76566 259.28592 286.32016 259.28592 L 286.32016 281.8794 Q 288.10217 282.19763 292.42993 282.19763 Z " fill="black"/>
    <rect x="311.49756" y="246.8" width="32.20366" height="81.399994" stroke="red" stroke-width="1" fill="none"/>
    <path d="M 318.2756 298.87225 Q 314.23422 293.8444 314.23422 285.44342 Q 314.23422 279.90643 316.33447 275.70596 Q 318.43472 271.5055 322.2215 269.21432 Q 326.0083 266.92316 330.8452 266.92316 Q 336.76407 266.92316 340.04172 270.2008 Q 343.31937 273.47845 343.51028 279.58823 Q 343.51028 283.4705 343.0648 285.50708 L 321.1714 285.50708 Q 321.29868 291.8078 324.099 295.65823 Q 326.8993 299.50867 332.05444 299.50867 Q 334.6002 299.50867 337.36868 298.58582 Q 340.13718 297.66302 341.6646 296.39014 L 342.87384 299.19043 Q 341.0282 301.09976 337.4005 302.49994 Q 333.77283 303.9001 330.01785 303.9001 Q 322.31696 303.9001 318.2756 298.87225 Z M 336.5095 282.13397 Q 336.7004 280.79745 336.7004 279.39728 Q 336.63678 275.26047 334.95023 272.87384 Q 333.26367 270.48718 329.636 270.48718 Q 325.94464 270.48718 323.74896 273.16022 Q 321.55325 275.83325 321.23502 282.13397 L 336.5095 282.13397 Z " fill="black"/>
    <rect x="343.7012" y="246.8" width="25.202864" height="81.399994" stroke="red" stroke-width="1" fill="none"/>
    <path d="M 352.0385 302.1817 Q 350.2565 300.52698 350.2565 296.51743 L 350.2565 272.07828 L 345.67416 272.07828 L 345.67416 269.21432 Q 345.99237 269.15067 347.45618 268.7688 Q 348.91998 268.38696 349.42914 268.06873 Q 350.44742 267.49594 351.0202 265.77756 Q 351.52936 264.56833 352.22943 261.89532 Q 352.92953 259.2223 353.05682 258.71313 L 356.81177 258.71313 L 356.93906 267.8778 L 367.56754 267.8778 L 367.56754 272.07828 L 356.93906 272.07828 L 356.93906 291.61688 Q 356.93906 295.24457 357.16183 296.70834 Q 357.38458 298.17215 358.1165 298.61768 Q 358.8484 299.06317 360.6304 299.06317 Q 362.3488 299.06317 364.41718 298.61768 Q 366.4856 298.17215 367.6312 297.66302 L 368.58585 300.52698 Q 367.0584 301.67255 363.65347 302.7545 Q 360.24854 303.83643 357.4482 303.83643 Q 353.82053 303.83643 352.0385 302.1817 Z " fill="black"/>
    <rect x="391.25" y="125.5" width="32.5" height="25" stroke="red" stroke-width="1" fill="none"/>
    <path d="M 391.25 141.4 Q 391.25 135.4 397.85 129.85 Q 404.45 124.3 411.35 124.3 Q 414.15 124.3 416.7 125 Q 419.25 125.7 421.55 128.2 Q 423.85 130.7 423.85 134.6 Q 423.85 140.1 417.15 145.9 Q 410.45 151.7 403.75 151.7 Q 400.95 151.7 398.4 151 Q 395.85 150.3 393.55 147.8 Q 391.25 145.3 391.25 141.4 Z " fill="black"/>
    <rect x="423.75" y="125.5" width="5" height="25" stroke="red" stroke-width="1" fill="none"/>
    <rect x="420.75" y="48.714287" width="3" height="89.28571" stroke="red" stroke-width="1" fill="none"/>
    <rect x="391.25" y="36.214287" width="32.5" height="25" stroke="red" stroke-width="1" fill="none"/>
    <rect x="370.08426" y="246.8" width="12.5" height="81.399994" stroke="red" stroke-width="1" fill="none"/>
    <rect x="382.58426" y="246.8" width="27.303102" height="81.399994" stroke="red" stroke-width="1" fill="none"/>
    <path d="M 385.5755 300.08148 L 390.3488 299.6996 L 390.3488 272.77838 L 385.76645 271.63278 L 385.76645 268.196 L 394.54926 267.05045 L 394.67654 267.05045 L 396.0767 268.196 L 396.0767 269.3416 L 395.88577 274.3058 L 396.0767 274.3058 Q 396.71313 273.22388 398.36786 271.5055 Q 400.0226 269.7871 402.632 268.35513 Q 405.24136 266.92316 408.29626 266.92316 Q 409.56915 266.92316 410.3965 267.24136 L 410.3965 274.36945 Q 409.951 274.05124 408.96454 273.76483 Q 407.97806 273.47845 406.76883 273.47845 Q 401.48642 273.47845 396.9677 276.72424 L 396.9677 299.63596 L 405.05045 300.1451 L 405.05045 303.2 L 385.5755 303.2 L 385.5755 300.08148 Z " fill="black"/>
    <rect x="409.88736" y="246.8" width="36.19411" height="81.399994" stroke="red" stroke-width="1" fill="none"/>
    <path d="M 415.10614 275.515 Q 417.46094 271.31458 421.31137 269.11884 Q 425.16183 266.92316 429.55322 266.92316 Q 437.57233 266.92316 441.61368 272.01465 Q 445.65506 277.10614 445.65506 285.3798 Q 445.65506 291.17136 443.30023 295.37183 Q 440.94543 299.57233 437.095 301.7362 Q 433.24457 303.9001 428.85315 303.9001 Q 420.83405 303.9001 416.7927 298.8086 Q 412.7513 293.7171 412.7513 285.44342 Q 412.7513 279.7155 415.10614 275.515 Z M 435.98123 296.6447 Q 438.33606 293.01703 438.33606 285.88895 Q 438.33606 278.8245 436.17215 274.68768 Q 434.00827 270.55084 429.23502 270.55084 Q 424.8436 270.55084 422.45697 274.17853 Q 420.07034 277.8062 420.07034 284.93427 Q 420.07034 291.99872 422.29785 296.13556 Q 424.5254 300.2724 429.23502 300.2724 Q 433.6264 300.2724 435.98123 296.6447 Z " fill="black"/>
    <rect x="491.25" y="113" width="32.5" height="25" stroke="red" stroke-width="1" fill="none"/>
    <path d="M 491.25 128.9 Q 491.25 122.9 497.85 117.35 Q 504.45 111.8 511.35 111.8 Q 514.15 111.8 516.7 112.5 Q 519.25 113.2 521.55 115.7 Q 523.85 118.2 523.85 122.1 Q 523.85 127.6 517.15 133.4 Q 510.45 139.2 503.75 139.2 Q 500.95 139.2 498.4 138.5 Q 495.85 137.8 493.55 135.3 Q 491.25 132.8 491.25 128.9 Z " fill="black"/>
    <rect x="523.75" y="113" width="5" height="25" stroke="red" stroke-width="1" fill="none"/>
    <rect x="520.75" y="36.214287" width="3" height="89.28571" stroke="red" stroke-width="1" fill="none"/>
    <rect x="460.1198" y="246.8" width="12.5" height="81.399994" stroke="red" stroke-width="1" fill="none"/>
    <rect x="472.6198" y="246.8" width="42.2848" height="81.399994" stroke="red" stroke-width="1" fill="none"/>
    <path d="M 479.3024 272.77838 L 474.72006 271.63278 L 474.72006 268.196 L 483.82108 267.05045 L 484.01202 267.05045 L 485.34854 268.196 L 485.34854 270.86905 L 485.28488 272.39648 Q 487.57605 270.3599 491.33102 268.70517 Q 495.086 267.05045 498.52277 267.05045 Q 502.5323 267.05045 504.728 268.57788 Q 506.9237 270.10535 507.81473 273.25568 Q 508.70572 276.40604 508.70572 281.7521 L 508.70572 299.57233 L 513.16077 300.01782 L 513.16077 303.2 L 498.07724 303.2 L 498.07724 300.08148 L 502.02316 299.57233 L 502.02316 281.68848 Q 502.02316 277.93347 501.514 275.80142 Q 501.00485 273.66937 499.6047 272.61926 Q 498.20453 271.56915 495.5315 271.56915 Q 493.24033 271.56915 490.63095 272.71472 Q 488.02155 273.8603 485.98495 275.38776 L 485.98495 299.50867 L 490.31274 300.08148 L 490.31274 303.2 L 475.29285 303.2 L 475.29285 300.08148 L 479.3024 299.50867 L 479.3024 272.77838 Z " fill="black"/>
    <rect x="514.9046" y="246.8" width="32.20366" height="81.399994" stroke="red" stroke-width="1" fill="none"/>
    <path d="M 521.6826 298.87225 Q 517.6413 293.8444 517.6413 285.44342 Q 517.6413 279.90643 519.7415 275.70596 Q 521.84174 271.5055 525.62854 269.21432 Q 529.41534 266.92316 534.25226 266.92316 Q 540.1711 266.92316 543.4487 270.2008 Q 546.7264 273.47845 546.91736 279.58823 Q 546.91736 283.4705 546.4718 285.50708 L 524.5784 285.50708 Q 524.7057 291.8078 527.50604 295.65823 Q 530.30634 299.50867 535.4615 299.50867 Q 538.0072 299.50867 540.7757 298.58582 Q 543.5442 297.66302 545.07166 296.39014 L 546.2809 299.19043 Q 544.43524 301.09976 540.80756 302.49994 Q 537.1799 303.9001 533.42487 303.9001 Q 525.724 303.9001 521.6826 298.87225 Z M 539.9165 282.13397 Q 540.1075 280.79745 540.1075 279.39728 Q 540.0438 275.26047 538.35724 272.87384 Q 536.6707 270.48718 533.043 270.48718 Q 529.3517 270.48718 527.156 273.16022 Q 524.96027 275.83325 524.6421 282.13397 L 539.9165 282.13397 Z " fill="black"/>
    <rect x="547.1083" y="246.8" width="18.902147" height="81.399994" stroke="red" stroke-width="1" fill="none"/>
    <path d="M 554.6182 255.72188 L 549.4631 255.0218 L 549.4631 252.28513 L 559.7097 251.0759 L 559.837 251.0759 L 561.2372 252.03055 L 561.2372 299.57233 L 566.64685 300.08148 L 566.64685 303.2 L 549.4631 303.2 L 549.4631 300.08148 L 554.6182 299.50867 L 554.6182 255.72188 Z " fill="black"/>
    <rect x="631.25" y="113" width="32.5" height="25" stroke="red" stroke-width="1" fill="none"/>
    <path d="M 631.25 128.9 Q 631.25 122.9 637.85 117.35 Q 644.45 111.8 651.35 111.8 Q 654.15 111.8 656.7 112.5 Q 659.25 113.2 661.55 115.7 Q 663.85 118.2 663.85 122.1 Q 663.85 127.6 657.15 133.4 Q 650.45 139.2 643.75 139.2 Q 640.95 139.2 638.4 138.5 Q 635.85 137.8 633.55 135.3 Q 631.25 132.8 631.25 128.9 Z " fill="black"/>
    <rect x="663.75" y="113" width="5" height="25" stroke="red" stroke-width="1" fill="none"/>
    <rect x="660.75" y="36.214287" width="3" height="89.28571" stroke="red" stroke-width="1" fill="none"/>
    <rect x="613.49133" y="246.8" width="12.5" height="81.399994" stroke="red" stroke-width="1" fill="none"/>
    <rect x="625.99133" y="246.8" width="18.902147" height="81.399994" stroke="red" stroke-width="1" fill="none"/>
    <path d="M 633.5013 255.72188 L 628.3461 255.0218 L 628.3461 252.28513 L 638.5928 251.0759 L 638.72003 251.0759 L 640.12024 252.03055 L 640.12024 299.57233 L 645.5299 300.08148 L 645.5299 303.2 L 628.3461 303.2 L 628.3461 300.08148 L 633.5013 299.50867 L 633.5013 255.72188 Z " fill="black"/>
    <rect x="644.89343" y="246.8" width="34.373905" height="81.399994" stroke="red" stroke-width="1" fill="none"/>
    <path d="M 653.73987 284.8388 Q 659.7224 282.00668 668.8871 281.81573 L 668.8871 280.03372 Q 668.8871 277.04248 668.2506 275.3241 Q 667.6142 273.6057 666.05493 272.81018 Q 664.49567 272.01465 661.6317 272.01465 Q 658.38586 272.01465 655.8083 272.93747 Q 653.2307 273.8603 650.685 275.1968 L 649.09393 271.88733 Q 649.92126 271.18726 652.1488 270.0417 Q 654.37634 268.89612 657.30396 268.0051 Q 660.23157 267.11407 663.1591 267.11407 Q 667.67786 267.11407 670.31903 268.35513 Q 672.96027 269.5962 674.10583 272.33286 Q 675.2514 275.06952 675.2514 279.65186 L 675.2514 300.08148 L 679.0064 300.08148 L 679.0064 302.88177 Q 677.7335 303.2 675.7924 303.51822 Q 673.85126 303.83643 672.38745 303.83643 Q 670.60547 303.83643 669.969 303.29547 Q 669.3326 302.7545 669.3326 300.9088 L 669.3326 298.8086 Q 667.4233 300.7179 664.6548 302.309 Q 661.8863 303.9001 658.38586 303.9001 Q 653.8035 303.9001 650.78046 301.25885 Q 647.7574 298.61768 647.7574 293.65344 Q 647.7574 287.67096 653.73987 284.8388 Z M 664.94116 298.55402 Q 667.10504 297.5357 668.8871 296.13556 L 668.8871 285.18884 Q 661.9499 285.18884 658.4177 287.32092 Q 654.8855 289.453 654.8855 292.88974 Q 654.8855 296.32648 656.572 297.9494 Q 658.2586 299.57233 661.12256 299.57233 Q 662.7773 299.57233 664.94116 298.55402 Z " fill="black"/>
    <rect x="771.25" y="0.5" width="10" height="200" stroke="orange" stroke-width="1" fill="none"/>
    <rect x="771.25" y="275" width="10" height="25" stroke="orange" stroke-width="1" fill="none"/>
    <line x1="122.25" y1="86.21429" x2="122.25" y2="171.5" stroke="black" stroke-width="3"/>
    <line x1="222.25" y1="73.71429" x2="222.25" y2="159" stroke="black" stroke-width="3"/>
    <path d="M 120.75 86.21429 L 223.75 73.71429 L 223.75 88.71429 L 120.75 101.21429 " fill="black"/>
    <line x1="322.25" y1="61.214287" x2="322.25" y2="146.5" stroke="black" stroke-width="3"/>
    <line x1="422.25" y1="48.714287" x2="422.25" y2="134" stroke="black" stroke-width="3"/>
    <path d="M 320.75 61.214287 L 423.75 48.714287 L 423.75 63.714287 L 320.75 76.21429 " fill="black"/>
    <line x1="522.25" y1="36.214287" x2="522.25" y2="121.5" stroke="black" stroke-width="3"/>
    <line x1="662.25" y1="36.214287" x2="662.25" y2="121.5" stroke="black" stroke-width="3"/>
    <rect x="0" y="0" width="782.5" height="328.7" stroke="black" stroke-width="1" fill="none"/>
</svg>
