<svg xmlns="http://www.w3.org/2000/svg" xmlns:xlink="http://www.w3.org/1999/xlink" viewBox="0 0 616.5 375">
    <line x1="1.25" y1="50.5" x2="615.25" y2="50.5" stroke="black" stroke-width="2.5"/>
    <line x1="1.25" y1="75.5" x2="615.25" y2="75.5" stroke="black" stroke-width="2.5"/>
    <line x1="1.25" y1="100.5" x2="615.25" y2="100.5" stroke="black" stroke-width="2.5"/>
    <line x1="1.25" y1="125.5" x2="615.25" y2="125.5" stroke="black" stroke-width="2.5"/>
    <line x1="1.25" y1="150.5" x2="615.25" y2="150.5" stroke="black" stroke-width="2.5"/>
    <rect x="1.25" y="0.5" width="10" height="200" stroke="orange" stroke-width="1" fill="none"/>
    <rect x="1.25" y="249" width="10" height="25" stroke="orange" stroke-width="1" fill="none"/>
    <rect x="1.25" y="330" width="10" height="25" stroke="orange" stroke-width="1" fill="none"/>
    <rect x="11.25" y="10.5" width="74" height="186" stroke="orange" stroke-width="1" fill="none"/>
    <path d="M 36.050003 69 Q 33.75 61.7 32.85 56 Q 32.050003 51.199997 32.050003 44.799995 Q 32.050003 42.6 32.15 40.4 Q 32.550003 30.900002 36.050003 22.949997 Q 39.550003 15 46.55 10.799995 Q 47.05 10.5 47.850002 10.5 Q 48.55 10.5 49.05 11 Q 54.65 16.599998 57.65 25.299995 Q 60.65 34 60.65 42.9 Q 60.65 53.199997 56.25 63.1 Q 52.05 73 44.45 80.6 Q 43.850002 81.2 44.05 82.2 L 48.05 98.2 Q 48.350002 99.8 50.05 99.6 Q 51.65 99.4 53.15 99.4 Q 58.95 99.4 63.65 101.7 Q 68.350006 104 71.25 107.7 Q 74.15 111.4 75.700005 115.85 Q 77.25 120.3 77.25 125 Q 77.25 133.6 72.45 140.55 Q 67.65 147.5 60.95 149.7 Q 59.55 150.2 59.850002 151.8 Q 62.350002 163.6 62.45 171.7 Q 62.45 174.8 62.05 177.8 Q 61.25 184.7 56.05 189.9 Q 50.850002 195.1 43.65 195.1 Q 34.85 195.1 28.75 189.8 Q 22.650002 184.5 22.650002 175.9 Q 22.650002 171.5 25.75 168.3 Q 28.85 165.1 33.050003 165.1 Q 37.35 165.1 40.300003 168.15 Q 43.25 171.2 43.25 175.4 Q 43.25 179 40.85 181.7 Q 38.45 184.5 35.050003 184.8 Q 33.85 184.9 33.45 186 Q 33.050003 187.1 34.25 188 Q 37.85 190.8 43.050003 190.8 Q 48.75 190.8 52.9 186.7 Q 57.05 182.6 57.75 177.4 Q 58.25 173.8 58.25 170.2 Q 58.25 162.4 55.850002 152.9 Q 55.45 151.2 53.65 151.4 Q 49.65 151.9 46.25 151.9 Q 31.45 151.9 21.35 142.6 Q 11.25 133.3 11.25 117.3 Q 11.25 112.4 12.4 107.65 Q 13.55 102.9 15 99.45 Q 16.45 96 19.5 91.45 Q 22.55 86.899994 24.400002 84.5 Q 26.25 82.1 30.25 77.35 Q 34.25 72.6 35.75 70.7 Q 36.35 70 36.050003 69 Z M 51.65 114.7 L 58.15 144.2 Q 58.45 145.5 59.95 145.5 Q 60.350002 145.5 60.65 145.4 Q 64.75 143.7 67.45 138.8 Q 70.15 133.9 70.15 129.1 Q 70.15 122.1 66.05 117.3 Q 61.850002 112.4 53.45 112.4 Q 52.75 112.4 52.2 112.95 Q 51.65 113.5 51.65 114.2 Q 51.55 114.5 51.65 114.7 Z M 37.85 86.899994 Q 36.25 88.7 33.1 92.05 Q 29.95 95.4 28.4 97.15 Q 26.85 98.9 24.6 102.1 Q 22.35 105.3 21.25 108 Q 20.150002 110.7 19.3 114.6 Q 18.45 118.5 18.45 122.9 Q 18.45 129 22.2 134.7 Q 25.95 140.4 32.5 144 Q 39.050003 147.6 46.55 147.6 Q 49.25 147.6 52.55 147.3 Q 53.350002 147.2 53.850002 146.55 Q 54.350002 145.9 54.15 145.1 L 47.65 115.2 Q 47.350002 113.8 45.75 113.8 Q 45.45 113.8 45.05 113.9 Q 40.45 115.6 38.550003 118.7 Q 36.65 121.8 36.65 126.5 Q 36.65 132 42.65 136 Q 43.350002 136.5 43.350002 137.5 Q 43.350002 138.3 42.7 139 Q 42.050003 139.7 41.15 139.7 Q 40.65 139.7 40.25 139.5 Q 34.550003 136.5 31.800001 131.35 Q 29.050001 126.2 29.050001 120.5 Q 29.050001 115 33 109.15 Q 36.95 103.3 42.85 101.1 Q 44.350002 100.5 44.05 99 L 41.050003 87.7 Q 40.85 86.6 39.65 86.399994 Q 38.45 86.2 37.85 86.899994 Z M 54.65 28.699997 Q 53.850002 26.099998 51.95 26.099998 Q 51.350002 26.099998 50.850002 26.400002 Q 44.45 30.199997 40.7 37.1 Q 36.95 44 36.95 51.699997 Q 36.95 56.699997 39.050003 64 Q 39.35 65.1 40.550003 65.3 Q 41.550003 65.399994 42.25 64.6 Q 42.550003 64.2 45.100002 61.049995 Q 47.65 57.9 48.45 56.85 Q 49.25 55.799995 51.15 52.85 Q 53.05 49.9 53.8 47.949997 Q 54.55 46 55.25 43.1 Q 55.95 40.199997 55.95 37.299995 Q 55.95 33.1 54.65 28.699997 Z " fill="black"/>
    <ellipse cx="16.25" cy="266.5" rx="5" ry="5" stroke="gray" stroke-width="1" fill="none"/>
    <ellipse cx="16.25" cy="347.5" rx="5" ry="5" stroke="gray" stroke-width="1" fill="none"/>
    <rect x="85.25" y="88" width="32.5" height="25" stroke="red" stroke-width="1" fill="none"/>
    <path d="M 85.25 103.9 Q 85.25 97.9 91.85 92.35 Q 98.45 86.8 105.35 86.8 Q 108.15 86.8 110.7 87.5 Q 113.25 88.2 115.55 90.7 Q 117.850006 93.2 117.850006 97.1 Q 117.850006 102.6 111.15 108.4 Q 104.45 114.2 97.75 114.2 Q 94.95 114.2 92.4 113.5 Q 89.85 112.8 87.55 110.3 Q 85.25 107.8 85.25 103.9 Z " fill="black"/>
    <rect x="117.75" y="88" width="5" height="25" stroke="red" stroke-width="1" fill="none"/>
    <rect x="85.25" y="100.5" width="3" height="89.28571" stroke="red" stroke-width="1" fill="none"/>
    <rect x="59.901947" y="229.5" width="37.20167" height="64" stroke="red" stroke-width="1" fill="none"/>
    <path d="M 66.15493 235.99403 L 62.38405 235.42123 L 62.38405 233.0346 L 75.36734 233.0346 L 75.36734 235.42123 L 71.26233 235.99403 L 71.26233 248.83414 L 88.06424 248.83414 L 88.06424 235.99403 L 84.19789 235.42123 L 84.19789 233.0346 L 96.99025 233.0346 L 96.99025 235.42123 L 93.21937 235.99403 L 93.21937 265.68378 L 96.99025 266.1611 L 96.99025 268.5 L 84.150154 268.5 L 84.150154 266.1611 L 88.06424 265.68378 L 88.06424 251.79355 L 71.26233 251.79355 L 71.26233 265.68378 L 75.41507 266.1611 L 75.41507 268.5 L 62.28858 268.5 L 62.28858 266.1611 L 66.15493 265.68378 L 66.15493 235.99403 Z " fill="black"/>
    <rect x="97.10362" y="229.5" width="24.457039" height="64" stroke="red" stroke-width="1" fill="none"/>
    <path d="M 102.18716 265.25418 Q 99.15613 261.48328 99.15613 255.18257 Q 99.15613 251.02983 100.73131 247.87947 Q 102.30649 244.72913 105.14658 243.01074 Q 107.98668 241.29236 111.614365 241.29236 Q 116.0535 241.29236 118.511734 243.7506 Q 120.96997 246.20883 121.11317 250.79117 Q 121.11317 253.70287 120.77904 255.23032 L 104.35899 255.23032 Q 104.45446 259.95584 106.554695 262.8437 Q 108.65494 265.7315 112.521286 265.7315 Q 114.43059 265.7315 116.50696 265.03937 Q 118.583336 264.34726 119.72892 263.3926 L 120.63584 265.49286 Q 119.251595 266.9248 116.53083 267.97495 Q 113.81007 269.02505 110.993835 269.02505 Q 105.21818 269.02505 102.18716 265.25418 Z M 115.86257 252.70047 Q 116.00577 251.69809 116.00577 250.64798 Q 115.95804 247.54535 114.693115 245.75537 Q 113.42821 243.9654 110.70744 243.9654 Q 107.93894 243.9654 106.29217 245.97017 Q 104.645386 247.97495 104.40672 252.70047 L 115.86257 252.70047 Z " fill="black"/>
    <rect x="121.56066" y="229.5" width="14.385441" height="64" stroke="red" stroke-width="1" fill="none"/>
    <path d="M 127.04992 236.3759 Q 126.2862 235.51671 126.2862 234.18019 Q 126.2862 232.65274 127.21699 231.65036 Q 128.14777 230.64798 129.77069 230.64798 Q 131.3936 230.64798 132.15732 231.50717 Q 132.92104 232.36635 132.92104 233.70287 Q 132.92104 235.32578 131.99025 236.28043 Q 131.05946 237.23509 129.3411 237.23509 L 129.29337 237.23509 Q 127.813644 237.23509 127.04992 236.3759 Z M 123.56544 242.29475 L 130.964 241.38783 L 131.05946 241.38783 L 132.10959 242.24701 L 132.10959 268.1659 Q 132.10959 272.1277 130.964 274.8246 Q 129.81842 277.52148 127.861374 278.81024 Q 125.904335 280.09906 123.46997 280.09906 Q 121.60839 280.09906 121.27426 279.9081 L 121.0356 277.66467 Q 121.417465 277.7124 122.15732 277.5692 Q 122.89718 277.42603 123.6609 277.13962 Q 125.61794 276.47137 126.40553 273.91766 Q 127.193115 271.36395 127.193115 267.06802 L 127.193115 245.82697 L 123.56544 244.96777 L 123.56544 242.29475 Z " fill="black"/>
    <rect x="135.9461" y="229.5" width="12.5" height="64" stroke="red" stroke-width="1" fill="none"/>
    <rect x="63.64698" y="310.5" width="34.9105" height="64" stroke="red" stroke-width="1" fill="none"/>
    <path d="M 89.4465 347.56683 Q 88.18159 345.63367 85.84268 341.4809 Q 85.55629 340.95584 84.24364 338.6408 Q 82.930984 336.32578 81.80927 334.65515 Q 80.68755 332.9845 79.82836 332.02985 L 75.00736 337.47137 L 75.00736 346.68378 L 79.351036 347.1611 L 79.351036 349.5 L 65.93815 349.5 L 65.93815 347.1611 L 69.89996 346.68378 L 69.89996 316.99402 L 65.985886 316.42123 L 65.985886 314.0346 L 78.96918 314.0346 L 78.96918 316.42123 L 75.00736 316.99402 L 75.00736 333.70047 L 89.04077 316.99402 L 85.03123 316.42123 L 85.03123 314.0346 L 96.821205 314.0346 L 96.821205 316.42123 L 93.14578 316.99402 L 82.835526 328.54535 Q 84.506165 329.97733 86.39161 332.6981 Q 88.277054 335.41885 90.99782 339.71478 Q 93.336716 343.3902 94.410706 344.94153 Q 95.48469 346.49286 96.10521 346.63605 L 98.34865 347.1611 L 98.34865 349.5 L 91.52287 349.5 Q 90.71142 349.5 89.4465 347.56683 Z " fill="black"/>
    <rect x="98.55748" y="310.5" width="29.898567" height="64" stroke="red" stroke-width="1" fill="none"/>
    <path d="M 102.972755 361.28998 Q 102.185165 361.19452 101.851036 361.00357 L 101.851036 356.85083 Q 102.137436 357.04178 102.972755 357.13724 Q 103.808075 357.2327 104.5718 357.2327 Q 106.86297 357.2327 108.60521 355.63367 Q 110.34746 354.0346 111.97037 349.5 L 109.6792 349.5 L 100.609985 325.8723 L 98.41428 325.25177 L 98.41428 323.00836 L 109.91786 323.00836 L 109.91786 325.25177 L 106.24245 325.8246 L 110.92025 339.90573 L 113.11595 346.8747 L 115.16846 339.858 L 119.41667 325.8246 L 116.218575 325.25177 L 116.218575 323.00836 L 125.81285 323.00836 L 125.81285 325.25177 L 123.426216 325.8246 Q 116.40951 347.3043 115.16846 350.216 Q 113.54555 354.32098 112.20903 356.63605 Q 110.87251 358.95108 109.05867 360.16824 Q 107.24483 361.38544 104.5718 361.38544 Q 103.760345 361.38544 102.972755 361.28998 Z " fill="black"/>
    <rect x="128.45605" y="310.5" width="12.5" height="64" stroke="red" stroke-width="1" fill="none"/>
    <rect x="215.25" y="88" width="32.5" height="25" stroke="red" stroke-width="1" fill="none"/>
    <path d="M 215.25 103.9 Q 215.25 97.9 221.85 92.35 Q 228.45 86.8 235.35 86.8 Q 238.15 86.8 240.7 87.5 Q 243.25 88.2 245.55 90.7 Q 247.85 93.2 247.85 97.1 Q 247.85 102.6 241.15 108.4 Q 234.45 114.2 227.75 114.2 Q 224.95 114.2 222.4 113.5 Q 219.85 112.8 217.55 110.3 Q 215.25 107.8 215.25 103.9 Z " fill="black"/>
    <rect x="247.75" y="88" width="5" height="25" stroke="red" stroke-width="1" fill="none"/>
    <rect x="215.25" y="100.5" width="3" height="89.28571" stroke="red" stroke-width="1" fill="none"/>
    <rect x="187.7699" y="229.5" width="27.177803" height="64" stroke="red" stroke-width="1" fill="none"/>
    <path d="M 191.68398 247.73628 Q 193.45009 244.58592 196.33792 242.93915 Q 199.22574 241.29236 202.5193 241.29236 Q 208.53362 241.29236 211.56465 245.11098 Q 214.59567 248.9296 214.59567 255.13484 Q 214.59567 259.47852 212.82956 262.62888 Q 211.06345 265.77924 208.17563 267.40216 Q 205.2878 269.02505 201.99425 269.02505 Q 195.97992 269.02505 192.9489 265.20645 Q 189.91786 261.38782 189.91786 255.18257 Q 189.91786 250.88663 191.68398 247.73628 Z M 207.3403 263.58353 Q 209.10641 260.86276 209.10641 255.51671 Q 209.10641 250.21838 207.4835 247.11575 Q 205.8606 244.01312 202.28064 244.01312 Q 198.98708 244.01312 197.1971 246.73389 Q 195.40714 249.45465 195.40714 254.80072 Q 195.40714 260.09906 197.07777 263.20166 Q 198.74841 266.3043 202.28064 266.3043 Q 205.57419 266.3043 207.3403 263.58353 Z " fill="black"/>
    <rect x="214.9477" y="229.5" width="23.40692" height="64" stroke="red" stroke-width="1" fill="none"/>
    <path d="M 218.07419 248.26134 Q 219.6255 245.06325 222.65652 243.17781 Q 225.68755 241.29236 229.93576 241.29236 Q 231.98827 241.29236 233.46797 241.67422 Q 234.9477 242.05609 237.0002 242.72435 L 236.80927 250.07518 L 233.70663 250.07518 L 232.65652 245.20645 Q 232.37013 243.86993 229.02884 243.86993 Q 225.68755 243.86993 223.75438 246.56683 Q 221.8212 249.26372 221.8212 254.22792 Q 221.8212 259.86038 223.99304 262.79596 Q 226.16487 265.7315 229.64937 265.7315 Q 231.65414 265.7315 233.4441 265.11096 Q 235.23409 264.49045 236.52287 263.6313 L 237.4298 265.5406 Q 236.141 266.87708 233.63504 267.95108 Q 231.12907 269.02505 228.55151 269.02505 Q 224.63744 269.02505 221.94054 267.25897 Q 219.24364 265.49286 217.88326 262.41406 Q 216.52287 259.33533 216.52287 255.42123 Q 216.52287 251.45943 218.07419 248.26134 Z " fill="black"/>
    <rect x="238.35461" y="229.5" width="31.855608" height="64" stroke="red" stroke-width="1" fill="none"/>
    <path d="M 243.08015 232.89142 L 239.0706 232.36635 L 239.0706 230.31384 L 246.85103 229.40692 L 246.9465 229.40692 L 247.99661 230.12291 L 247.99661 241.1969 L 247.8057 245.25418 Q 249.33313 243.86993 252.00616 242.62888 Q 254.6792 241.38783 257.39996 241.38783 Q 260.4071 241.38783 262.07776 242.53342 Q 263.7484 243.679 264.41666 246.04176 Q 265.08493 248.40454 265.08493 252.41408 L 265.08493 265.7315 L 268.4262 266.1611 L 268.4262 268.5 L 257.0181 268.5 L 257.0181 266.1611 L 260.12073 265.7315 L 260.12073 252.36635 Q 260.12073 249.55013 259.73886 247.95108 Q 259.357 246.35204 258.3069 245.56444 Q 257.25677 244.77686 255.15652 244.77686 Q 253.43814 244.77686 251.48111 245.63605 Q 249.52406 246.49522 248.04436 247.64081 L 248.04436 265.7315 L 251.3379 266.1611 L 251.3379 268.5 L 240.21619 268.5 L 240.21619 266.1611 L 243.08015 265.77924 L 243.08015 232.89142 Z " fill="black"/>
    <rect x="270.2102" y="229.5" width="12.5" height="64" stroke="red" stroke-width="1" fill="none"/>
    <rect x="203.1617" y="310.5" width="21.115751" height="64" stroke="red" stroke-width="1" fill="none"/>
    <path d="M 205.40514 347.1611 L 208.98509 346.8747 L 208.98509 326.68378 L 205.54832 325.8246 L 205.54832 323.247 L 212.13544 322.38782 L 212.23091 322.38782 L 213.28102 323.247 L 213.28102 324.1062 L 213.13783 327.82935 L 213.28102 327.82935 Q 213.75836 327.01788 214.9994 325.72913 Q 216.24045 324.44034 218.1975 323.36633 Q 220.15454 322.29236 222.44571 322.29236 Q 223.40036 322.29236 224.02089 322.53104 L 224.02089 327.87708 Q 223.68675 327.63843 222.9469 327.42365 Q 222.20705 327.20883 221.30013 327.20883 Q 217.3383 327.20883 213.94928 329.6432 L 213.94928 346.82697 L 220.01134 347.20883 L 220.01134 349.5 L 205.40514 349.5 L 205.40514 347.1611 Z " fill="black"/>
    <rect x="224.27745" y="310.5" width="15.149163" height="64" stroke="red" stroke-width="1" fill="none"/>
    <path d="M 229.76671 317.37592 Q 229.00299 316.51672 229.00299 315.18018 Q 229.00299 313.65274 229.93378 312.65036 Q 230.86456 311.64798 232.48747 311.64798 Q 234.11038 311.64798 234.87411 312.50717 Q 235.63783 313.36633 235.63783 314.70288 Q 235.63783 316.32578 234.70705 317.28043 Q 233.77626 318.2351 232.1056 318.2351 L 232.05788 318.2351 Q 230.53043 318.2351 229.76671 317.37592 Z M 230.14857 326.68378 L 226.52089 325.8246 L 226.52089 323.29474 L 233.91945 322.38782 L 234.01492 322.38782 L 235.11278 323.247 L 235.11278 346.77924 L 238.93138 347.1611 L 238.93138 349.5 L 226.28223 349.5 L 226.28223 347.1611 L 230.14857 346.7315 L 230.14857 326.68378 Z " fill="black"/>
    <rect x="239.4266" y="310.5" width="12.5" height="64" stroke="red" stroke-width="1" fill="none"/>
    <rect x="345.25" y="88" width="32.5" height="25" stroke="red" stroke-width="1" fill="none"/>
    <path d="M 345.25 103.9 Q 345.25 97.9 351.85 92.35 Q 358.45 86.8 365.35 86.8 Q 368.15 86.8 370.7 87.5 Q 373.25 88.2 375.55 90.7 Q 377.85 93.2 377.85 97.1 Q 377.85 102.6 371.15 108.4 Q 364.45 114.2 357.75 114.2 Q 354.95 114.2 352.4 113.5 Q 349.85 112.8 347.55 110.3 Q 345.25 107.8 345.25 103.9 Z " fill="black"/>
    <rect x="377.75" y="88" width="5" height="25" stroke="red" stroke-width="1" fill="none"/>
    <rect x="345.25" y="100.5" width="3" height="89.28571" stroke="red" stroke-width="1" fill="none"/>
    <rect x="306.1808" y="229.5" width="31.855608" height="64" stroke="red" stroke-width="1" fill="none"/>
    <path d="M 310.9063 232.89142 L 306.8968 232.36635 L 306.8968 230.31384 L 314.67722 229.40692 L 314.77267 229.40692 L 315.82278 230.12291 L 315.82278 241.1969 L 315.63187 245.25418 Q 317.1593 243.86993 319.83234 242.62888 Q 322.50537 241.38783 325.22614 241.38783 Q 328.23328 241.38783 329.90393 242.53342 Q 331.5746 243.679 332.24283 246.04176 Q 332.9111 248.40454 332.9111 252.41408 L 332.9111 265.7315 L 336.25238 266.1611 L 336.25238 268.5 L 324.84427 268.5 L 324.84427 266.1611 L 327.9469 265.7315 L 327.9469 252.36635 Q 327.9469 249.55013 327.56503 247.95108 Q 327.18317 246.35204 326.13306 245.56444 Q 325.08295 244.77686 322.9827 244.77686 Q 321.2643 244.77686 319.30728 245.63605 Q 317.35025 246.49522 315.8705 247.64081 L 315.8705 265.7315 L 319.1641 266.1611 L 319.1641 268.5 L 308.04236 268.5 L 308.04236 266.1611 L 310.9063 265.77924 L 310.9063 232.89142 Z " fill="black"/>
    <rect x="338.0364" y="229.5" width="27.177803" height="64" stroke="red" stroke-width="1" fill="none"/>
    <path d="M 341.9505 247.73628 Q 343.71658 244.58592 346.60443 242.93915 Q 349.49225 241.29236 352.7858 241.29236 Q 358.80014 241.29236 361.83115 245.11098 Q 364.86218 248.9296 364.86218 255.13484 Q 364.86218 259.47852 363.09607 262.62888 Q 361.32996 265.77924 358.44214 267.40216 Q 355.55432 269.02505 352.26074 269.02505 Q 346.24643 269.02505 343.2154 265.20645 Q 340.1844 261.38782 340.1844 255.18257 Q 340.1844 250.88663 341.9505 247.73628 Z M 357.6068 263.58353 Q 359.37292 260.86276 359.37292 255.51671 Q 359.37292 250.21838 357.75 247.11575 Q 356.1271 244.01312 352.54715 244.01312 Q 349.2536 244.01312 347.46362 246.73389 Q 345.67365 249.45465 345.67365 254.80072 Q 345.67365 260.09906 347.34427 263.20166 Q 349.01492 266.3043 352.54715 266.3043 Q 355.8407 266.3043 357.6068 263.58353 Z " fill="black"/>
    <rect x="365.2142" y="229.5" width="29.08711" height="64" stroke="red" stroke-width="1" fill="none"/>
    <path d="M 391.51492 261.74582 Q 389.84427 265.11096 386.74164 267.06802 Q 383.63904 269.02505 379.48627 269.02505 Q 378.3407 269.02505 377.00418 268.8341 Q 375.66766 268.6432 374.8562 268.3568 L 374.99942 272.36633 L 374.99942 277.18735 L 379.9636 277.7124 L 379.9636 280.05133 L 366.64618 280.05133 L 366.64618 277.7124 L 370.08295 277.18735 L 370.08295 245.68378 L 366.59845 244.82458 L 366.59845 242.24701 L 373.3765 241.38783 L 373.47195 241.38783 L 374.47433 242.24701 L 374.47433 245.06325 Q 375.9063 243.48807 378.03043 242.39021 Q 380.15454 241.29236 382.77985 241.29236 Q 385.59607 241.29236 387.95883 242.6766 Q 390.3216 244.06085 391.75357 246.97255 Q 393.18555 249.88425 393.18555 254.3234 Q 393.18555 258.38068 391.51492 261.74582 Z M 377.43378 245.39737 Q 375.85858 246.1611 374.99942 247.06802 L 374.99942 265.06323 Q 375.33353 265.63605 376.6939 266.08948 Q 378.0543 266.54297 379.67722 266.54297 Q 383.35263 266.54297 385.61993 263.6313 Q 387.88724 260.71957 387.88724 254.84845 Q 387.88724 249.69331 385.9063 247.16348 Q 383.9254 244.63365 380.82278 244.63365 Q 379.00894 244.63365 377.43378 245.39737 Z " fill="black"/>
    <rect x="394.3013" y="229.5" width="29.08711" height="64" stroke="red" stroke-width="1" fill="none"/>
    <path d="M 420.60202 261.74582 Q 418.93137 265.11096 415.82874 267.06802 Q 412.72614 269.02505 408.57336 269.02505 Q 407.4278 269.02505 406.09128 268.8341 Q 404.75476 268.6432 403.9433 268.3568 L 404.08652 272.36633 L 404.08652 277.18735 L 409.0507 277.7124 L 409.0507 280.05133 L 395.73328 280.05133 L 395.73328 277.7124 L 399.17004 277.18735 L 399.17004 245.68378 L 395.68555 244.82458 L 395.68555 242.24701 L 402.4636 241.38783 L 402.55905 241.38783 L 403.56143 242.24701 L 403.56143 245.06325 Q 404.9934 243.48807 407.11752 242.39021 Q 409.24164 241.29236 411.86694 241.29236 Q 414.68317 241.29236 417.04593 242.6766 Q 419.4087 244.06085 420.84067 246.97255 Q 422.27264 249.88425 422.27264 254.3234 Q 422.27264 258.38068 420.60202 261.74582 Z M 406.52087 245.39737 Q 404.94568 246.1611 404.08652 247.06802 L 404.08652 265.06323 Q 404.42062 265.63605 405.781 266.08948 Q 407.1414 266.54297 408.7643 266.54297 Q 412.43973 266.54297 414.70703 263.6313 Q 416.97433 260.71957 416.97433 254.84845 Q 416.97433 249.69331 414.9934 247.16348 Q 413.0125 244.63365 409.90988 244.63365 Q 408.09604 244.63365 406.52087 245.39737 Z " fill="black"/>
    <rect x="423.38843" y="229.5" width="12.5" height="64" stroke="red" stroke-width="1" fill="none"/>
    <rect x="337.09766" y="310.5" width="24.457039" height="64" stroke="red" stroke-width="1" fill="none"/>
    <path d="M 342.18118 346.25418 Q 339.15018 342.48328 339.15018 336.18256 Q 339.15018 332.02985 340.72534 328.87946 Q 342.3005 325.72913 345.14063 324.01074 Q 347.9807 322.29236 351.6084 322.29236 Q 356.04755 322.29236 358.50577 324.7506 Q 360.964 327.20883 361.1072 331.79117 Q 361.1072 334.70288 360.77307 336.23032 L 344.35303 336.23032 Q 344.4485 340.95584 346.54874 343.8437 Q 348.64896 346.7315 352.51532 346.7315 Q 354.42462 346.7315 356.501 346.03937 Q 358.57736 345.34726 359.72296 344.3926 L 360.62988 346.49286 Q 359.24564 347.9248 356.52487 348.97495 Q 353.8041 350.02505 350.98788 350.02505 Q 345.21222 350.02505 342.18118 346.25418 Z M 355.8566 333.70047 Q 355.99982 332.6981 355.99982 331.64798 Q 355.95206 328.54535 354.68716 326.75537 Q 353.42224 324.9654 350.70148 324.9654 Q 347.93298 324.9654 346.2862 326.97015 Q 344.63943 328.97495 344.40076 333.70047 L 355.8566 333.70047 Z " fill="black"/>
    <rect x="361.5547" y="310.5" width="12.5" height="64" stroke="red" stroke-width="1" fill="none"/>
    <rect x="475.25" y="88" width="32.5" height="25" stroke="red" stroke-width="1" fill="none"/>
    <path d="M 475.25 103.9 Q 475.25 97.9 481.85 92.35 Q 488.45 86.8 495.35 86.8 Q 498.15 86.8 500.7 87.5 Q 503.25 88.2 505.55 90.7 Q 507.85 93.2 507.85 97.1 Q 507.85 102.6 501.15 108.4 Q 494.45 114.2 487.75 114.2 Q 484.95 114.2 482.4 113.5 Q 479.85 112.8 477.55 110.3 Q 475.25 107.8 475.25 103.9 Z " fill="black"/>
    <rect x="507.75" y="88" width="5" height="25" stroke="red" stroke-width="1" fill="none"/>
    <rect x="475.25" y="100.5" width="3" height="89.28571" stroke="red" stroke-width="1" fill="none"/>
    <ellipse cx="480.25" cy="266.5" rx="5" ry="5" stroke="gray" stroke-width="1" fill="none"/>
    <ellipse cx="480.25" cy="347.5" rx="5" ry="5" stroke="gray" stroke-width="1" fill="none"/>
    <rect x="605.25" y="0.5" width="10" height="200" stroke="orange" stroke-width="1" fill="none"/>
    <rect x="605.25" y="249" width="10" height="25" stroke="orange" stroke-width="1" fill="none"/>
    <rect x="605.25" y="330" width="10" height="25" stroke="orange" stroke-width="1" fill="none"/>
    <line x1="86.75" y1="104.5" x2="86.75" y2="189.7857" stroke="black" stroke-width="3"/>
    <line x1="216.75" y1="104.5" x2="216.75" y2="189.7857" stroke="black" stroke-width="3"/>
    <line x1="346.75" y1="104.5" x2="346.75" y2="189.7857" stroke="black" stroke-width="3"/>
    <line x1="476.75" y1="104.5" x2="476.75" y2="189.7857" stroke="black" stroke-width="3"/>
    <rect x="0" y="0" width="616.5" height="375" stroke="black" stroke-width="1" fill="none"/>
</svg>
