<svg xmlns="http://www.w3.org/2000/svg" xmlns:xlink="http://www.w3.org/1999/xlink" viewBox="0 0 971.69995 129.63571">
    <line x1="1.35" y1="1.3499985" x2="970.35" y2="1.3499985" stroke="black" stroke-width="2.7"/>
    <line x1="1.35" y1="26.349998" x2="970.35" y2="26.349998" stroke="black" stroke-width="2.7"/>
    <line x1="1.35" y1="51.35" x2="970.35" y2="51.35" stroke="black" stroke-width="2.7"/>
    <line x1="1.35" y1="76.35" x2="970.35" y2="76.35" stroke="black" stroke-width="2.7"/>
    <line x1="1.35" y1="101.35" x2="970.35" y2="101.35" stroke="black" stroke-width="2.7"/>
    <rect x="1.35" y="46.35" width="10" height="10" stroke="orange" stroke-width="1" fill="none"/>
    <rect x="11.35" y="13.849998" width="32.5" height="25" stroke="red" stroke-width="1" fill="none"/>
    <path d="M 11.35 29.749998 Q 11.35 23.749998 17.95 18.199997 Q 24.550001 12.649998 31.45 12.649998 Q 34.25 12.649998 36.8 13.349998 Q 39.35 14.049999 41.65 16.55 Q 43.95 19.05 43.95 22.949999 Q 43.95 28.449999 37.25 34.25 Q 30.550001 40.05 23.85 40.05 Q 21.050001 40.05 18.5 39.35 Q 15.950001 38.649998 13.650001 36.149998 Q 11.35 33.649998 11.35 29.749998 Z " fill="black"/>
    <rect x="43.85" y="13.849998" width="25" height="25" stroke="red" stroke-width="1" fill="none"/>
    <rect x="11.35" y="40.63571" width="35" height="75" stroke="red" stroke-width="1" fill="none"/>
    <rect x="11.35" y="26.349998" width="3" height="89.28571" stroke="red" stroke-width="1" fill="none"/>
    <rect x="129.35" y="13.849998" width="32.5" height="25" stroke="red" stroke-width="1" fill="none"/>
    <path d="M 129.35 29.749998 Q 129.35 23.749998 135.95001 18.199997 Q 142.55 12.649998 149.45001 12.649998 Q 152.25 12.649998 154.8 13.349998 Q 157.35 14.049999 159.65001 16.55 Q 161.95001 19.05 161.95001 22.949999 Q 161.95001 28.449999 155.25 34.25 Q 148.55 40.05 141.85 40.05 Q 139.05 40.05 136.5 39.35 Q 133.95001 38.649998 131.65001 36.149998 Q 129.35 33.649998 129.35 29.749998 Z " fill="black"/>
    <rect x="129.35" y="40.63571" width="35" height="75" stroke="red" stroke-width="1" fill="none"/>
    <rect x="129.35" y="26.349998" width="3" height="89.28571" stroke="red" stroke-width="1" fill="none"/>
    <rect x="247.35" y="16.349998" width="25" height="70" stroke="red" stroke-width="1" fill="none"/>
    <path d="M 257.85 61.75 Q 258.55002 61.75 259 61.3 Q 259.45 60.85 259.45 60.25 Q 259.45 59.649998 259.05002 59.25 L 251.85 51.149998 Q 248.85 47.75 248.85 44.85 Q 248.85 42.35 255.95001 36.149998 Q 259.65 32.85 259.65 27.849998 Q 259.65 23.949999 257.15 20.949997 L 253.65001 16.749996 Q 253.25 16.249996 253.25 15.749996 Q 253.25 14.249996 254.65001 14.249996 Q 255.55 14.249996 256.15 14.949997 L 271.15 32.75 Q 272.15 33.949997 272.15 35.25 Q 272.15 36.35 271.35 37.549995 Q 270.55002 38.75 269.65 39.6 Q 268.75 40.449997 267 41.899998 Q 265.25 43.35 264.55002 44.05 Q 260.35 47.949997 260.35 52.649998 Q 260.35 56.25 264.45 60.649998 L 272.85 69.75 Q 273.25 70.15 273.25 70.75 Q 273.25 71.35 272.80002 71.8 Q 272.35 72.25 271.85 72.25 Q 271.15 72.25 269.75 71.15 Q 266.05002 68.35 261.85 68.35 Q 258.95 68.35 256.8 70.6 Q 254.65001 72.85 254.65001 75.75 Q 254.65001 77.05 254.85 78.1 Q 255.05 79.15 255.6 80.25 Q 256.15 81.35 256.35 81.75 Q 256.55 82.15 257.45 83.4 Q 258.35 84.65 258.45 84.75 Q 258.75 85.15 258.65 85.65 Q 258.55002 86.149994 258.1 86.399994 Q 257.65 86.649994 257.15 86.55 Q 256.65 86.45 255.85 85.65 Q 252.45001 82.15 249.90001 77.8 Q 247.35 73.45 247.35 70.25 Q 247.35 66.35 250.1 64.049995 Q 252.85 61.75 257.85 61.75 Z " fill="black"/>
    <rect x="365.35" y="13.849998" width="32.5" height="25" stroke="red" stroke-width="1" fill="none"/>
    <path d="M 365.35 29.749998 Q 365.35 23.749998 371.95 18.199997 Q 378.55002 12.649998 385.45 12.649998 Q 388.25 12.649998 390.80002 13.349998 Q 393.35 14.049999 395.65 16.55 Q 397.95 19.05 397.95 22.949999 Q 397.95 28.449999 391.25 34.25 Q 384.55002 40.05 377.85 40.05 Q 375.05002 40.05 372.5 39.35 Q 369.95 38.649998 367.65 36.149998 Q 365.35 33.649998 365.35 29.749998 Z " fill="black"/>
    <rect x="397.85" y="13.849998" width="25" height="25" stroke="red" stroke-width="1" fill="none"/>
    <rect x="365.35" y="40.63571" width="35" height="75" stroke="red" stroke-width="1" fill="none"/>
    <rect x="365.35" y="26.349998" width="3" height="89.28571" stroke="red" stroke-width="1" fill="none"/>
    <rect x="483.35" y="21.349998" width="5" height="60" stroke="orange" stroke-width="1" fill="none"/>
    <rect x="488.35" y="13.849998" width="32.5" height="25" stroke="red" stroke-width="1" fill="none"/>
    <path d="M 488.35 29.749998 Q 488.35 23.749998 494.95 18.199997 Q 501.55002 12.649998 508.45 12.649998 Q 511.25 12.649998 513.8 13.349998 Q 516.35 14.049999 518.64996 16.55 Q 520.94995 19.05 520.94995 22.949999 Q 520.94995 28.449999 514.25 34.25 Q 507.55002 40.05 500.85 40.05 Q 498.05002 40.05 495.5 39.35 Q 492.95 38.649998 490.65 36.149998 Q 488.35 33.649998 488.35 29.749998 Z " fill="black"/>
    <rect x="488.35" y="40.63571" width="35" height="75" stroke="red" stroke-width="1" fill="none"/>
    <rect x="488.35" y="26.349998" width="3" height="89.28571" stroke="red" stroke-width="1" fill="none"/>
    <rect x="606.35" y="16.349998" width="25" height="70" stroke="red" stroke-width="1" fill="none"/>
    <path d="M 616.85 61.75 Q 617.55 61.75 618 61.3 Q 618.44995 60.85 618.44995 60.25 Q 618.44995 59.649998 618.05 59.25 L 610.85 51.149998 Q 607.85 47.75 607.85 44.85 Q 607.85 42.35 614.94995 36.149998 Q 618.64996 32.85 618.64996 27.849998 Q 618.64996 23.949999 616.14996 20.949997 L 612.64996 16.749996 Q 612.25 16.249996 612.25 15.749996 Q 612.25 14.249996 613.64996 14.249996 Q 614.55 14.249996 615.14996 14.949997 L 630.14996 32.75 Q 631.14996 33.949997 631.14996 35.25 Q 631.14996 36.35 630.35 37.549995 Q 629.55 38.75 628.64996 39.6 Q 627.75 40.449997 626 41.899998 Q 624.25 43.35 623.55 44.05 Q 619.35 47.949997 619.35 52.649998 Q 619.35 56.25 623.44995 60.649998 L 631.85 69.75 Q 632.25 70.15 632.25 70.75 Q 632.25 71.35 631.8 71.8 Q 631.35 72.25 630.85 72.25 Q 630.14996 72.25 628.75 71.15 Q 625.05 68.35 620.85 68.35 Q 617.94995 68.35 615.8 70.6 Q 613.64996 72.85 613.64996 75.75 Q 613.64996 77.05 613.85 78.1 Q 614.05 79.15 614.6 80.25 Q 615.14996 81.35 615.35 81.75 Q 615.55 82.15 616.44995 83.4 Q 617.35 84.65 617.44995 84.75 Q 617.75 85.15 617.64996 85.65 Q 617.55 86.149994 617.1 86.399994 Q 616.64996 86.649994 616.14996 86.55 Q 615.64996 86.45 614.85 85.65 Q 611.44995 82.15 608.89996 77.8 Q 606.35 73.45 606.35 70.25 Q 606.35 66.35 609.1 64.049995 Q 611.85 61.75 616.85 61.75 Z " fill="black"/>
    <rect x="724.35" y="13.849998" width="32.5" height="25" stroke="red" stroke-width="1" fill="none"/>
    <path d="M 724.35 29.749998 Q 724.35 23.749998 730.94995 18.199997 Q 737.55 12.649998 744.44995 12.649998 Q 747.25 12.649998 749.8 13.349998 Q 752.35 14.049999 754.64996 16.55 Q 756.94995 19.05 756.94995 22.949999 Q 756.94995 28.449999 750.25 34.25 Q 743.55 40.05 736.85 40.05 Q 734.05 40.05 731.5 39.35 Q 728.94995 38.649998 726.64996 36.149998 Q 724.35 33.649998 724.35 29.749998 Z " fill="black"/>
    <rect x="756.85" y="13.849998" width="25" height="25" stroke="red" stroke-width="1" fill="none"/>
    <rect x="724.35" y="40.63571" width="35" height="75" stroke="red" stroke-width="1" fill="none"/>
    <rect x="724.35" y="26.349998" width="3" height="89.28571" stroke="red" stroke-width="1" fill="none"/>
    <rect x="842.35" y="26.349998" width="32.5" height="25" stroke="red" stroke-width="1" fill="none"/>
    <path d="M 842.35 42.25 Q 842.35 36.25 848.94995 30.699997 Q 855.55 25.149998 862.44995 25.149998 Q 865.25 25.149998 867.8 25.849998 Q 870.35 26.55 872.64996 29.05 Q 874.94995 31.55 874.94995 35.449997 Q 874.94995 40.949997 868.25 46.75 Q 861.55 52.55 854.85 52.55 Q 852.05 52.55 849.5 51.85 Q 846.94995 51.149998 844.64996 48.649998 Q 842.35 46.149998 842.35 42.25 Z " fill="black"/>
    <rect x="842.35" y="53.13571" width="35" height="75" stroke="red" stroke-width="1" fill="none"/>
    <rect x="842.35" y="38.85" width="3" height="89.28571" stroke="red" stroke-width="1" fill="none"/>
    <rect x="960.35" y="46.35" width="10" height="10" stroke="orange" stroke-width="1" fill="none"/>
    <line x1="12.85" y1="30.349998" x2="12.85" y2="115.63571" stroke="black" stroke-width="3"/>
    <line x1="130.85" y1="30.349998" x2="130.85" y2="115.63571" stroke="black" stroke-width="3"/>
    <line x1="366.85" y1="30.349998" x2="366.85" y2="115.63571" stroke="black" stroke-width="3"/>
    <line x1="489.85" y1="30.349998" x2="489.85" y2="115.63571" stroke="black" stroke-width="3"/>
    <line x1="725.85" y1="30.349998" x2="725.85" y2="115.63571" stroke="black" stroke-width="3"/>
    <line x1="843.85" y1="42.85" x2="843.85" y2="128.13571" stroke="black" stroke-width="3"/>
    <rect x="0" y="0" width="971.69995" height="129.63571" stroke="black" stroke-width="1" fill="none"/>
</svg>
