<svg xmlns="http://www.w3.org/2000/svg" xmlns:xlink="http://www.w3.org/1999/xlink" viewBox="0 0 525 331">
    <rect x="0.5" y="123" width="10" height="10" stroke="orange" stroke-width="1" fill="none"/>
    <rect x="10.5" y="12" width="74" height="186" stroke="orange" stroke-width="1" fill="none"/>
    <path d="M 35.300003 70.5 Q 33 63.199997 32.1 57.5 Q 31.300001 52.699997 31.300001 46.299995 Q 31.300001 44.1 31.4 41.9 Q 31.800001 32.4 35.300003 24.449997 Q 38.800003 16.5 45.8 12.299995 Q 46.3 12 47.100002 12 Q 47.8 12 48.3 12.5 Q 53.9 18.099998 56.9 26.799995 Q 59.9 35.5 59.9 44.4 Q 59.9 54.699997 55.5 64.6 Q 51.3 74.5 43.7 82.1 Q 43.100002 82.7 43.3 83.7 L 47.3 99.7 Q 47.600002 101.3 49.3 101.1 Q 50.9 100.9 52.4 100.9 Q 58.2 100.9 62.9 103.2 Q 67.600006 105.5 70.5 109.2 Q 73.4 112.9 74.950005 117.35 Q 76.5 121.8 76.5 126.5 Q 76.5 135.1 71.7 142.05 Q 66.9 149 60.2 151.2 Q 58.8 151.7 59.100002 153.3 Q 61.600002 165.1 61.7 173.2 Q 61.7 176.3 61.3 179.3 Q 60.5 186.2 55.3 191.4 Q 50.100002 196.6 42.9 196.6 Q 34.1 196.6 28 191.3 Q 21.900002 186 21.900002 177.4 Q 21.900002 173 25 169.8 Q 28.1 166.6 32.300003 166.6 Q 36.6 166.6 39.550003 169.65 Q 42.5 172.7 42.5 176.9 Q 42.5 180.5 40.1 183.2 Q 37.7 186 34.300003 186.3 Q 33.1 186.4 32.7 187.5 Q 32.300003 188.6 33.5 189.5 Q 37.1 192.3 42.300003 192.3 Q 48 192.3 52.15 188.2 Q 56.3 184.1 57 178.9 Q 57.5 175.3 57.5 171.7 Q 57.5 163.9 55.100002 154.4 Q 54.7 152.7 52.9 152.9 Q 48.9 153.4 45.5 153.4 Q 30.7 153.4 20.6 144.1 Q 10.5 134.8 10.5 118.8 Q 10.5 113.9 11.65 109.15 Q 12.8 104.4 14.25 100.95 Q 15.700001 97.5 18.75 92.95 Q 21.8 88.399994 23.650002 86 Q 25.5 83.6 29.5 78.85 Q 33.5 74.1 35 72.2 Q 35.6 71.5 35.300003 70.5 Z M 50.9 116.2 L 57.4 145.7 Q 57.7 147 59.2 147 Q 59.600002 147 59.9 146.9 Q 64 145.2 66.7 140.3 Q 69.4 135.4 69.4 130.6 Q 69.4 123.6 65.3 118.8 Q 61.100002 113.9 52.7 113.9 Q 52 113.9 51.45 114.45 Q 50.9 115 50.9 115.7 Q 50.8 116 50.9 116.2 Z M 37.1 88.399994 Q 35.5 90.2 32.35 93.55 Q 29.2 96.9 27.65 98.65 Q 26.1 100.4 23.85 103.6 Q 21.6 106.8 20.5 109.5 Q 19.400002 112.2 18.55 116.1 Q 17.7 120 17.7 124.4 Q 17.7 130.5 21.45 136.2 Q 25.2 141.9 31.75 145.5 Q 38.300003 149.1 45.8 149.1 Q 48.5 149.1 51.8 148.8 Q 52.600002 148.7 53.100002 148.05 Q 53.600002 147.4 53.4 146.6 L 46.9 116.7 Q 46.600002 115.3 45 115.3 Q 44.7 115.3 44.3 115.4 Q 39.7 117.1 37.800003 120.2 Q 35.9 123.3 35.9 128 Q 35.9 133.5 41.9 137.5 Q 42.600002 138 42.600002 139 Q 42.600002 139.8 41.95 140.5 Q 41.300003 141.2 40.4 141.2 Q 39.9 141.2 39.5 141 Q 33.800003 138 31.050001 132.85 Q 28.300001 127.7 28.300001 122 Q 28.300001 116.5 32.25 110.65 Q 36.2 104.8 42.1 102.6 Q 43.600002 102 43.3 100.5 L 40.300003 89.2 Q 40.1 88.1 38.9 87.899994 Q 37.7 87.7 37.1 88.399994 Z M 53.9 30.199997 Q 53.100002 27.599998 51.2 27.599998 Q 50.600002 27.599998 50.100002 27.900002 Q 43.7 31.699997 39.95 38.6 Q 36.2 45.5 36.2 53.199997 Q 36.2 58.199997 38.300003 65.5 Q 38.6 66.6 39.800003 66.8 Q 40.800003 66.899994 41.5 66.1 Q 41.800003 65.7 44.350002 62.549995 Q 46.9 59.4 47.7 58.35 Q 48.5 57.299995 50.4 54.35 Q 52.3 51.4 53.05 49.449997 Q 53.8 47.5 54.5 44.6 Q 55.2 41.699997 55.2 38.799995 Q 55.2 34.6 53.9 30.199997 Z " fill="black"/>
    <rect x="114.5" y="78" width="32.5" height="25" stroke="lightgray" stroke-width="1" fill="none"/>
    <path d="M 114.5 93.9 Q 114.5 87.9 121.1 82.35 Q 127.7 76.8 134.6 76.8 Q 137.4 76.8 139.95 77.5 Q 142.5 78.2 144.8 80.7 Q 147.1 83.2 147.1 87.1 Q 147.1 92.6 140.4 98.4 Q 133.7 104.2 127 104.2 Q 124.2 104.2 121.65 103.5 Q 119.1 102.8 116.8 100.3 Q 114.5 97.8 114.5 93.9 Z " fill="black"/>
    <rect x="114.5" y="115.5" width="32.5" height="25" stroke="lightgray" stroke-width="1" fill="none"/>
    <path d="M 114.5 131.4 Q 114.5 125.4 121.1 119.85 Q 127.7 114.3 134.6 114.3 Q 137.4 114.3 139.95 115 Q 142.5 115.7 144.8 118.2 Q 147.1 120.7 147.1 124.6 Q 147.1 130.1 140.4 135.9 Q 133.7 141.7 127 141.7 Q 124.2 141.7 121.65 141 Q 119.1 140.3 116.8 137.8 Q 114.5 135.3 114.5 131.4 Z " fill="black"/>
    <rect x="114.5" y="140.5" width="32.5" height="25" stroke="lightgray" stroke-width="1" fill="none"/>
    <path d="M 114.5 156.4 Q 114.5 150.4 121.1 144.85 Q 127.7 139.3 134.6 139.3 Q 137.4 139.3 139.95 140 Q 142.5 140.7 144.8 143.2 Q 147.1 145.7 147.1 149.6 Q 147.1 155.1 140.4 160.9 Q 133.7 166.7 127 166.7 Q 124.2 166.7 121.65 166 Q 119.1 165.3 116.8 162.8 Q 114.5 160.3 114.5 156.4 Z " fill="black"/>
    <rect x="84.5" y="115.5" width="30.000002" height="75" stroke="lightgray" stroke-width="1" fill="none"/>
    <path d="M 106.1 143.4 L 106.1 155.6 Q 106.1 156.4 106.6 156.9 Q 107.1 157.4 107.9 157.4 Q 108.2 157.4 108.5 157.3 L 109.3 157 Q 109.6 156.9 110 156.9 Q 110.8 156.9 111.4 157.5 Q 112 158.1 112 158.9 L 112 164.9 Q 112 166.2 110.7 166.7 L 107.3 168 Q 106.1 168.5 106.1 169.6 L 106.1 184.2 Q 106.1 185 105.55 185.55 Q 105 186.1 104.3 186.1 Q 103.5 186.1 102.95 185.55 Q 102.4 185 102.4 184.2 L 102.4 172.3 Q 102.4 171.5 101.85 171 Q 101.3 170.5 100.6 170.5 Q 100.2 170.5 99.9 170.6 L 95.3 172.4 Q 94.1 172.8 94.1 174 L 94.1 188.6 Q 94.1 189.4 93.5 189.95 Q 92.9 190.5 92.2 190.5 Q 91.5 190.5 90.95 189.95 Q 90.4 189.4 90.4 188.6 L 90.4 176.7 Q 90.4 175.9 89.85 175.4 Q 89.3 174.9 88.6 174.9 Q 88.3 174.9 88 175 L 87.2 175.3 Q 87 175.4 86.5 175.4 Q 85.7 175.4 85.1 174.8 Q 84.5 174.2 84.5 173.4 L 84.5 167.4 Q 84.5 166 85.8 165.5 L 89.2 164.3 Q 90.4 164 90.4 162.6 L 90.4 150.4 Q 90.4 149.6 89.85 149.1 Q 89.3 148.6 88.6 148.6 Q 88.3 148.6 88.1 148.7 L 87.2 149 Q 87 149.1 86.5 149.1 Q 85.7 149.1 85.1 148.5 Q 84.5 147.9 84.5 147.1 L 84.5 141.1 Q 84.5 139.8 85.8 139.3 L 89.3 138 Q 90.4 137.5 90.4 136.4 L 90.4 121.8 Q 90.4 121 90.95 120.45 Q 91.5 119.899994 92.2 119.899994 Q 92.9 119.899994 93.5 120.45 Q 94.1 121 94.1 121.8 L 94.1 133.7 Q 94.1 134.5 94.65 135 Q 95.2 135.5 96 135.5 Q 96.3 135.5 96.6 135.4 L 101.2 133.6 Q 102.4 133.1 102.4 131.9 L 102.4 117.399994 Q 102.4 116.6 102.95 116.05 Q 103.5 115.5 104.3 115.5 Q 105 115.5 105.55 116.05 Q 106.1 116.6 106.1 117.399994 L 106.1 129.4 Q 106.1 130.1 106.6 130.6 Q 107.1 131.1 107.8 131.1 Q 108.1 131.1 108.5 131 L 109.3 130.7 Q 109.5 130.6 110 130.6 Q 110.8 130.6 111.4 131.2 Q 112 131.8 112 132.6 L 112 138.6 Q 112 140 110.7 140.5 L 107.3 141.7 Q 106.1 142 106.1 143.4 Z M 102.4 158.2 L 102.4 146.1 Q 102.4 145.4 101.85 144.85 Q 101.3 144.3 100.6 144.3 Q 100.3 144.3 100 144.4 L 95.3 146.1 Q 94.1 146.6 94.1 147.8 L 94.1 159.9 Q 94.1 160.7 94.6 161.2 Q 95.1 161.7 95.9 161.7 Q 96.2 161.7 96.5 161.6 L 101.2 159.9 Q 102.4 159.4 102.4 158.2 Z " fill="black"/>
    <rect x="144" y="0.5" width="3" height="90" stroke="lightgray" stroke-width="1" fill="none"/>
    <rect x="144" y="0.5" width="3" height="90" fill="black"/>
    <rect x="114.5" y="128" width="3" height="177.5" stroke="lightgray" stroke-width="1" fill="none"/>
    <rect x="114.5" y="128" width="3" height="177.5" fill="black"/>
    <rect x="214.5" y="203" width="32.5" height="25" stroke="lightgray" stroke-width="1" fill="none"/>
    <path d="M 214.5 218.9 Q 214.5 212.9 221.1 207.35 Q 227.7 201.8 234.6 201.8 Q 237.4 201.8 239.95 202.5 Q 242.5 203.2 244.8 205.7 Q 247.1 208.2 247.1 212.1 Q 247.1 217.6 240.4 223.4 Q 233.7 229.2 227 229.2 Q 224.2 229.2 221.65 228.5 Q 219.1 227.8 216.8 225.3 Q 214.5 222.8 214.5 218.9 Z " fill="black"/>
    <rect x="214.5" y="228" width="32.5" height="25" stroke="lightgray" stroke-width="1" fill="none"/>
    <path d="M 214.5 243.9 Q 214.5 237.9 221.1 232.35 Q 227.7 226.8 234.6 226.8 Q 237.4 226.8 239.95 227.5 Q 242.5 228.2 244.8 230.7 Q 247.1 233.2 247.1 237.1 Q 247.1 242.6 240.4 248.4 Q 233.7 254.2 227 254.2 Q 224.2 254.2 221.65 253.5 Q 219.1 252.8 216.8 250.3 Q 214.5 247.8 214.5 243.9 Z " fill="black"/>
    <rect x="214.5" y="215.5" width="3" height="115.000015" stroke="lightgray" stroke-width="1" fill="none"/>
    <rect x="214.5" y="215.5" width="3" height="115.000015" fill="black"/>
    <rect x="314.5" y="55.5" width="25" height="70" stroke="lightgray" stroke-width="1" fill="none"/>
    <path d="M 325 100.9 Q 325.7 100.9 326.15 100.45 Q 326.6 100 326.6 99.4 Q 326.6 98.8 326.2 98.4 L 319 90.3 Q 316 86.9 316 84 Q 316 81.5 323.1 75.3 Q 326.8 72 326.8 67 Q 326.8 63.1 324.3 60.1 L 320.8 55.899994 Q 320.4 55.399994 320.4 54.899994 Q 320.4 53.399994 321.8 53.399994 Q 322.7 53.399994 323.3 54.1 L 338.3 71.9 Q 339.3 73.1 339.3 74.4 Q 339.3 75.5 338.5 76.7 Q 337.7 77.9 336.8 78.75 Q 335.9 79.6 334.15 81.05 Q 332.4 82.5 331.7 83.2 Q 327.5 87.1 327.5 91.8 Q 327.5 95.4 331.6 99.8 L 340 108.9 Q 340.4 109.3 340.4 109.9 Q 340.4 110.5 339.95 110.95 Q 339.5 111.4 339 111.4 Q 338.3 111.4 336.9 110.3 Q 333.2 107.5 329 107.5 Q 326.1 107.5 323.95 109.75 Q 321.8 112 321.8 114.9 Q 321.8 116.2 322 117.25 Q 322.2 118.3 322.75 119.4 Q 323.3 120.5 323.5 120.9 Q 323.7 121.3 324.6 122.55 Q 325.5 123.8 325.6 123.9 Q 325.9 124.3 325.8 124.8 Q 325.7 125.3 325.25 125.55 Q 324.8 125.8 324.3 125.7 Q 323.8 125.600006 323 124.8 Q 319.6 121.3 317.05 116.95 Q 314.5 112.6 314.5 109.4 Q 314.5 105.5 317.25 103.2 Q 320 100.9 325 100.9 Z " fill="black"/>
    <rect x="314.5" y="203" width="32.5" height="25" stroke="lightgray" stroke-width="1" fill="none"/>
    <path d="M 314.5 218.9 Q 314.5 212.9 321.1 207.35 Q 327.7 201.8 334.6 201.8 Q 337.4 201.8 339.95 202.5 Q 342.5 203.2 344.8 205.7 Q 347.1 208.2 347.1 212.1 Q 347.1 217.6 340.4 223.4 Q 333.7 229.2 327 229.2 Q 324.2 229.2 321.65 228.5 Q 319.1 227.8 316.8 225.3 Q 314.5 222.8 314.5 218.9 Z " fill="black"/>
    <rect x="314.5" y="228" width="32.5" height="25" stroke="lightgray" stroke-width="1" fill="none"/>
    <path d="M 314.5 243.9 Q 314.5 237.9 321.1 232.35 Q 327.7 226.8 334.6 226.8 Q 337.4 226.8 339.95 227.5 Q 342.5 228.2 344.8 230.7 Q 347.1 233.2 347.1 237.1 Q 347.1 242.6 340.4 248.4 Q 333.7 254.2 327 254.2 Q 324.2 254.2 321.65 253.5 Q 319.1 252.8 316.8 250.3 Q 314.5 247.8 314.5 243.9 Z " fill="black"/>
    <rect x="314.5" y="215.5" width="3" height="115.000015" stroke="lightgray" stroke-width="1" fill="none"/>
    <rect x="314.5" y="215.5" width="3" height="115.000015" fill="black"/>
    <rect x="414.5" y="115.5" width="32.5" height="25" stroke="lightgray" stroke-width="1" fill="none"/>
    <path d="M 414.5 131.4 Q 414.5 125.4 421.1 119.85 Q 427.7 114.3 434.6 114.3 Q 437.4 114.3 439.95 115 Q 442.5 115.7 444.8 118.2 Q 447.1 120.7 447.1 124.6 Q 447.1 130.1 440.4 135.9 Q 433.7 141.7 427 141.7 Q 424.2 141.7 421.65 141 Q 419.1 140.3 416.8 137.8 Q 414.5 135.3 414.5 131.4 Z " fill="black"/>
    <rect x="414.5" y="140.5" width="32.5" height="25" stroke="lightgray" stroke-width="1" fill="none"/>
    <path d="M 414.5 156.4 Q 414.5 150.4 421.1 144.85 Q 427.7 139.3 434.6 139.3 Q 437.4 139.3 439.95 140 Q 442.5 140.7 444.8 143.2 Q 447.1 145.7 447.1 149.6 Q 447.1 155.1 440.4 160.9 Q 433.7 166.7 427 166.7 Q 424.2 166.7 421.65 166 Q 419.1 165.3 416.8 162.8 Q 414.5 160.3 414.5 156.4 Z " fill="black"/>
    <rect x="414.5" y="128" width="3" height="177.5" stroke="lightgray" stroke-width="1" fill="none"/>
    <rect x="414.5" y="128" width="3" height="177.5" fill="black"/>
    <rect x="514.5" y="123" width="10" height="10" stroke="orange" stroke-width="1" fill="none"/>
    <rect x="0" y="0" width="525" height="331" stroke="black" stroke-width="1" fill="none"/>
</svg>
