<svg xmlns="http://www.w3.org/2000/svg" xmlns:xlink="http://www.w3.org/1999/xlink" viewBox="0 0 1307 217">
    <rect x="0.5" y="111.5" width="10" height="10" stroke="orange" stroke-width="1" fill="none"/>
    <rect x="10.5" y="0.5" width="74" height="186" stroke="orange" stroke-width="1" fill="none"/>
    <path d="M 35.300003 59 Q 33 51.699997 32.1 46 Q 31.300001 41.199997 31.300001 34.799995 Q 31.300001 32.6 31.4 30.400002 Q 31.800001 20.900002 35.300003 12.949997 Q 38.800003 5 45.8 0.7999954 Q 46.3 0.5 47.100002 0.5 Q 47.8 0.5 48.3 1 Q 53.9 6.5999985 56.9 15.299995 Q 59.9 24 59.9 32.9 Q 59.9 43.199997 55.5 53.1 Q 51.3 63 43.7 70.6 Q 43.100002 71.2 43.3 72.2 L 47.3 88.2 Q 47.600002 89.8 49.3 89.6 Q 50.9 89.4 52.4 89.4 Q 58.2 89.4 62.9 91.7 Q 67.600006 94 70.5 97.7 Q 73.4 101.4 74.950005 105.85 Q 76.5 110.3 76.5 115 Q 76.5 123.6 71.7 130.55 Q 66.9 137.5 60.2 139.7 Q 58.8 140.2 59.100002 141.8 Q 61.600002 153.6 61.7 161.7 Q 61.7 164.8 61.3 167.8 Q 60.5 174.7 55.3 179.9 Q 50.100002 185.1 42.9 185.1 Q 34.1 185.1 28 179.8 Q 21.900002 174.5 21.900002 165.9 Q 21.900002 161.5 25 158.3 Q 28.1 155.1 32.300003 155.1 Q 36.6 155.1 39.550003 158.15 Q 42.5 161.2 42.5 165.4 Q 42.5 169 40.1 171.7 Q 37.7 174.5 34.300003 174.8 Q 33.1 174.9 32.7 176 Q 32.300003 177.1 33.5 178 Q 37.1 180.8 42.300003 180.8 Q 48 180.8 52.15 176.7 Q 56.3 172.6 57 167.4 Q 57.5 163.8 57.5 160.2 Q 57.5 152.4 55.100002 142.9 Q 54.7 141.2 52.9 141.4 Q 48.9 141.9 45.5 141.9 Q 30.7 141.9 20.6 132.6 Q 10.5 123.3 10.5 107.3 Q 10.5 102.4 11.65 97.65 Q 12.8 92.9 14.25 89.45 Q 15.700001 86 18.75 81.45 Q 21.8 76.899994 23.650002 74.5 Q 25.5 72.1 29.5 67.35 Q 33.5 62.6 35 60.7 Q 35.6 60 35.300003 59 Z M 50.9 104.7 L 57.4 134.2 Q 57.7 135.5 59.2 135.5 Q 59.600002 135.5 59.9 135.4 Q 64 133.7 66.7 128.8 Q 69.4 123.9 69.4 119.1 Q 69.4 112.1 65.3 107.3 Q 61.100002 102.4 52.7 102.4 Q 52 102.4 51.45 102.95 Q 50.9 103.5 50.9 104.2 Q 50.8 104.5 50.9 104.7 Z M 37.1 76.899994 Q 35.5 78.7 32.35 82.05 Q 29.2 85.4 27.65 87.15 Q 26.1 88.9 23.85 92.1 Q 21.6 95.3 20.5 98 Q 19.400002 100.7 18.55 104.6 Q 17.7 108.5 17.7 112.9 Q 17.7 119 21.45 124.7 Q 25.2 130.4 31.75 134 Q 38.300003 137.6 45.8 137.6 Q 48.5 137.6 51.8 137.3 Q 52.600002 137.2 53.100002 136.55 Q 53.600002 135.9 53.4 135.1 L 46.9 105.2 Q 46.600002 103.8 45 103.8 Q 44.7 103.8 44.3 103.9 Q 39.7 105.6 37.800003 108.7 Q 35.9 111.8 35.9 116.5 Q 35.9 122 41.9 126 Q 42.600002 126.5 42.600002 127.5 Q 42.600002 128.3 41.95 129 Q 41.300003 129.7 40.4 129.7 Q 39.9 129.7 39.5 129.5 Q 33.800003 126.5 31.050001 121.35 Q 28.300001 116.2 28.300001 110.5 Q 28.300001 105 32.25 99.15 Q 36.2 93.3 42.1 91.1 Q 43.600002 90.5 43.3 89 L 40.300003 77.7 Q 40.1 76.6 38.9 76.399994 Q 37.7 76.2 37.1 76.899994 Z M 53.9 18.699997 Q 53.100002 16.099998 51.2 16.099998 Q 50.600002 16.099998 50.100002 16.400002 Q 43.7 20.199997 39.95 27.099998 Q 36.2 34 36.2 41.699997 Q 36.2 46.699997 38.300003 54 Q 38.6 55.1 39.800003 55.3 Q 40.800003 55.399998 41.5 54.6 Q 41.800003 54.2 44.350002 51.049995 Q 46.9 47.9 47.7 46.85 Q 48.5 45.799995 50.4 42.85 Q 52.3 39.9 53.05 37.949997 Q 53.8 36 54.5 33.1 Q 55.2 30.199997 55.2 27.299995 Q 55.2 23.099998 53.9 18.699997 Z " fill="black"/>
    <rect x="84.5" y="116.5" width="2.5" height="87.5" stroke="blue" stroke-width="1" fill="none"/>
    <rect x="84.5" y="116.5" width="2.5" height="87.5" fill="black"/>
    <rect x="84.5" y="104" width="32.5" height="25" stroke="blue" stroke-width="1" fill="none"/>
    <path d="M 84.5 119.9 Q 84.5 113.9 91.1 108.35 Q 97.7 102.8 104.6 102.8 Q 107.4 102.8 109.95 103.5 Q 112.5 104.2 114.8 106.7 Q 117.100006 109.2 117.100006 113.1 Q 117.100006 118.6 110.4 124.4 Q 103.7 130.2 97 130.2 Q 94.2 130.2 91.65 129.5 Q 89.1 128.8 86.8 126.3 Q 84.5 123.8 84.5 119.9 Z " fill="black"/>
    <rect x="84.5" y="116.5" width="2.5" height="100" stroke="blue" stroke-width="1" fill="none"/>
    <rect x="84.5" y="116.5" width="2.5" height="100" fill="black"/>
    <rect x="228.5" y="35.25" width="2.5" height="87.5" stroke="blue" stroke-width="1" fill="none"/>
    <rect x="228.5" y="35.25" width="2.5" height="87.5" fill="black"/>
    <rect x="198.5" y="116.5" width="32.5" height="25" stroke="blue" stroke-width="1" fill="none"/>
    <path d="M 198.5 132.4 Q 198.5 126.4 205.1 120.85 Q 211.7 115.3 218.6 115.3 Q 221.4 115.3 223.95 116 Q 226.5 116.7 228.8 119.2 Q 231.1 121.7 231.1 125.6 Q 231.1 131.1 224.4 136.9 Q 217.7 142.7 211 142.7 Q 208.2 142.7 205.65 142 Q 203.1 141.3 200.8 138.8 Q 198.5 136.3 198.5 132.4 Z " fill="black"/>
    <rect x="198.5" y="29" width="2.5" height="100" stroke="blue" stroke-width="1" fill="none"/>
    <rect x="198.5" y="29" width="2.5" height="100" fill="black"/>
    <rect x="312.5" y="116.5" width="2.5" height="87.5" stroke="blue" stroke-width="1" fill="none"/>
    <rect x="312.5" y="116.5" width="2.5" height="87.5" fill="black"/>
    <rect x="312.5" y="104" width="32.5" height="25" stroke="blue" stroke-width="1" fill="none"/>
    <path d="M 312.5 119.9 Q 312.5 113.9 319.1 108.35 Q 325.7 102.8 332.6 102.8 Q 335.4 102.8 337.95 103.5 Q 340.5 104.2 342.8 106.7 Q 345.1 109.2 345.1 113.1 Q 345.1 118.6 338.4 124.4 Q 331.7 130.2 325 130.2 Q 322.2 130.2 319.65 129.5 Q 317.1 128.8 314.8 126.3 Q 312.5 123.8 312.5 119.9 Z " fill="black"/>
    <rect x="312.5" y="116.5" width="2.5" height="100" stroke="blue" stroke-width="1" fill="none"/>
    <rect x="312.5" y="116.5" width="2.5" height="100" fill="black"/>
    <rect x="394.5" y="116.5" width="2.5" height="87.5" stroke="blue" stroke-width="1" fill="none"/>
    <rect x="394.5" y="116.5" width="2.5" height="87.5" fill="black"/>
    <rect x="394.5" y="104" width="32.5" height="25" stroke="blue" stroke-width="1" fill="none"/>
    <path d="M 394.5 119.9 Q 394.5 113.9 401.1 108.35 Q 407.7 102.8 414.6 102.8 Q 417.4 102.8 419.95 103.5 Q 422.5 104.2 424.8 106.7 Q 427.1 109.2 427.1 113.1 Q 427.1 118.6 420.4 124.4 Q 413.7 130.2 407 130.2 Q 404.2 130.2 401.65 129.5 Q 399.1 128.8 396.8 126.3 Q 394.5 123.8 394.5 119.9 Z " fill="black"/>
    <rect x="394.5" y="116.5" width="2.5" height="100" stroke="blue" stroke-width="1" fill="none"/>
    <rect x="394.5" y="116.5" width="2.5" height="100" fill="black"/>
    <rect x="506.5" y="35.25" width="2.5" height="87.5" stroke="blue" stroke-width="1" fill="none"/>
    <rect x="506.5" y="35.25" width="2.5" height="87.5" fill="black"/>
    <rect x="476.5" y="116.5" width="32.5" height="25" stroke="blue" stroke-width="1" fill="none"/>
    <path d="M 476.5 132.4 Q 476.5 126.4 483.1 120.85 Q 489.7 115.3 496.6 115.3 Q 499.4 115.3 501.95 116 Q 504.5 116.7 506.8 119.2 Q 509.1 121.7 509.1 125.6 Q 509.1 131.1 502.4 136.9 Q 495.7 142.7 489 142.7 Q 486.2 142.7 483.65 142 Q 481.1 141.3 478.8 138.8 Q 476.5 136.3 476.5 132.4 Z " fill="black"/>
    <rect x="476.5" y="29" width="2.5" height="100" stroke="blue" stroke-width="1" fill="none"/>
    <rect x="476.5" y="29" width="2.5" height="100" fill="black"/>
    <rect x="588.5" y="35.25" width="2.5" height="87.5" stroke="blue" stroke-width="1" fill="none"/>
    <rect x="588.5" y="35.25" width="2.5" height="87.5" fill="black"/>
    <rect x="558.5" y="116.5" width="32.5" height="25" stroke="blue" stroke-width="1" fill="none"/>
    <path d="M 558.5 132.4 Q 558.5 126.4 565.1 120.85 Q 571.7 115.3 578.6 115.3 Q 581.4 115.3 583.95 116 Q 586.5 116.7 588.8 119.2 Q 591.1 121.7 591.1 125.6 Q 591.1 131.1 584.4 136.9 Q 577.7 142.7 571 142.7 Q 568.2 142.7 565.65 142 Q 563.1 141.3 560.8 138.8 Q 558.5 136.3 558.5 132.4 Z " fill="black"/>
    <rect x="558.5" y="29" width="2.5" height="100" stroke="blue" stroke-width="1" fill="none"/>
    <rect x="558.5" y="29" width="2.5" height="100" fill="black"/>
    <rect x="670.5" y="22.75" width="2.5" height="87.5" stroke="blue" stroke-width="1" fill="none"/>
    <rect x="670.5" y="22.75" width="2.5" height="87.5" fill="black"/>
    <rect x="640.5" y="104" width="32.5" height="25" stroke="blue" stroke-width="1" fill="none"/>
    <path d="M 640.5 119.9 Q 640.5 113.9 647.1 108.35 Q 653.7 102.8 660.6 102.8 Q 663.4 102.8 665.95 103.5 Q 668.5 104.2 670.8 106.7 Q 673.1 109.2 673.1 113.1 Q 673.1 118.6 666.4 124.4 Q 659.7 130.2 653 130.2 Q 650.2 130.2 647.65 129.5 Q 645.1 128.8 642.8 126.3 Q 640.5 123.8 640.5 119.9 Z " fill="black"/>
    <rect x="640.5" y="16.5" width="2.5" height="100" stroke="blue" stroke-width="1" fill="none"/>
    <rect x="640.5" y="16.5" width="2.5" height="100" fill="black"/>
    <rect x="752.5" y="47.75" width="2.5" height="87.5" stroke="blue" stroke-width="1" fill="none"/>
    <rect x="752.5" y="47.75" width="2.5" height="87.5" fill="black"/>
    <rect x="722.5" y="129" width="32.5" height="25" stroke="blue" stroke-width="1" fill="none"/>
    <path d="M 722.5 144.9 Q 722.5 138.9 729.1 133.35 Q 735.7 127.8 742.6 127.8 Q 745.4 127.8 747.95 128.5 Q 750.5 129.2 752.8 131.7 Q 755.1 134.2 755.1 138.1 Q 755.1 143.6 748.4 149.4 Q 741.7 155.2 735 155.2 Q 732.2 155.2 729.65 154.5 Q 727.1 153.8 724.8 151.3 Q 722.5 148.8 722.5 144.9 Z " fill="black"/>
    <rect x="722.5" y="41.5" width="2.5" height="100" stroke="blue" stroke-width="1" fill="none"/>
    <rect x="722.5" y="41.5" width="2.5" height="100" fill="black"/>
    <rect x="834.5" y="47.75" width="2.5" height="87.5" stroke="blue" stroke-width="1" fill="none"/>
    <rect x="834.5" y="47.75" width="2.5" height="87.5" fill="black"/>
    <rect x="804.5" y="129" width="32.5" height="25" stroke="blue" stroke-width="1" fill="none"/>
    <path d="M 804.5 144.9 Q 804.5 138.9 811.1 133.35 Q 817.7 127.8 824.6 127.8 Q 827.4 127.8 829.95 128.5 Q 832.5 129.2 834.8 131.7 Q 837.1 134.2 837.1 138.1 Q 837.1 143.6 830.4 149.4 Q 823.7 155.2 817 155.2 Q 814.2 155.2 811.65 154.5 Q 809.1 153.8 806.8 151.3 Q 804.5 148.8 804.5 144.9 Z " fill="black"/>
    <rect x="804.5" y="41.5" width="2.5" height="100" stroke="blue" stroke-width="1" fill="none"/>
    <rect x="804.5" y="41.5" width="2.5" height="100" fill="black"/>
    <rect x="916.5" y="22.75" width="2.5" height="87.5" stroke="blue" stroke-width="1" fill="none"/>
    <rect x="916.5" y="22.75" width="2.5" height="87.5" fill="black"/>
    <rect x="886.5" y="104" width="32.5" height="25" stroke="blue" stroke-width="1" fill="none"/>
    <path d="M 886.5 119.9 Q 886.5 113.9 893.1 108.35 Q 899.7 102.8 906.6 102.8 Q 909.4 102.8 911.95 103.5 Q 914.5 104.2 916.8 106.7 Q 919.1 109.2 919.1 113.1 Q 919.1 118.6 912.4 124.4 Q 905.7 130.2 899 130.2 Q 896.2 130.2 893.65 129.5 Q 891.1 128.8 888.8 126.3 Q 886.5 123.8 886.5 119.9 Z " fill="black"/>
    <rect x="886.5" y="16.5" width="2.5" height="100" stroke="blue" stroke-width="1" fill="none"/>
    <rect x="886.5" y="16.5" width="2.5" height="100" fill="black"/>
    <rect x="968.5" y="91.5" width="2.5" height="87.5" stroke="blue" stroke-width="1" fill="none"/>
    <rect x="968.5" y="91.5" width="2.5" height="87.5" fill="black"/>
    <rect x="968.5" y="79" width="32.5" height="25" stroke="blue" stroke-width="1" fill="none"/>
    <path d="M 968.5 94.9 Q 968.5 88.9 975.1 83.35 Q 981.7 77.8 988.6 77.8 Q 991.4 77.8 993.95 78.5 Q 996.5 79.2 998.8 81.7 Q 1001.1 84.2 1001.1 88.1 Q 1001.1 93.6 994.4 99.4 Q 987.7 105.2 981 105.2 Q 978.2 105.2 975.65 104.5 Q 973.1 103.8 970.8 101.3 Q 968.5 98.8 968.5 94.9 Z " fill="black"/>
    <rect x="968.5" y="91.5" width="2.5" height="100" stroke="blue" stroke-width="1" fill="none"/>
    <rect x="968.5" y="91.5" width="2.5" height="100" fill="black"/>
    <rect x="1050.5" y="116.5" width="2.5" height="87.5" stroke="blue" stroke-width="1" fill="none"/>
    <rect x="1050.5" y="116.5" width="2.5" height="87.5" fill="black"/>
    <rect x="1050.5" y="104" width="32.5" height="25" stroke="blue" stroke-width="1" fill="none"/>
    <path d="M 1050.5 119.9 Q 1050.5 113.9 1057.1 108.35 Q 1063.7 102.8 1070.6 102.8 Q 1073.4 102.8 1075.95 103.5 Q 1078.5 104.2 1080.8 106.7 Q 1083.1 109.2 1083.1 113.1 Q 1083.1 118.6 1076.4 124.4 Q 1069.7 130.2 1063 130.2 Q 1060.2 130.2 1057.65 129.5 Q 1055.1 128.8 1052.8 126.3 Q 1050.5 123.8 1050.5 119.9 Z " fill="black"/>
    <rect x="1050.5" y="116.5" width="2.5" height="100" stroke="blue" stroke-width="1" fill="none"/>
    <rect x="1050.5" y="116.5" width="2.5" height="100" fill="black"/>
    <rect x="1132.5" y="116.5" width="2.5" height="87.5" stroke="blue" stroke-width="1" fill="none"/>
    <rect x="1132.5" y="116.5" width="2.5" height="87.5" fill="black"/>
    <rect x="1132.5" y="104" width="32.5" height="25" stroke="blue" stroke-width="1" fill="none"/>
    <path d="M 1132.5 119.9 Q 1132.5 113.9 1139.1 108.35 Q 1145.7 102.8 1152.6 102.8 Q 1155.4 102.8 1157.95 103.5 Q 1160.5 104.2 1162.8 106.7 Q 1165.1 109.2 1165.1 113.1 Q 1165.1 118.6 1158.4 124.4 Q 1151.7 130.2 1145 130.2 Q 1142.2 130.2 1139.65 129.5 Q 1137.1 128.8 1134.8 126.3 Q 1132.5 123.8 1132.5 119.9 Z " fill="black"/>
    <rect x="1132.5" y="116.5" width="2.5" height="100" stroke="blue" stroke-width="1" fill="none"/>
    <rect x="1132.5" y="116.5" width="2.5" height="100" fill="black"/>
    <rect x="1214.5" y="91.5" width="2.5" height="87.5" stroke="blue" stroke-width="1" fill="none"/>
    <rect x="1214.5" y="91.5" width="2.5" height="87.5" fill="black"/>
    <rect x="1214.5" y="79" width="32.5" height="25" stroke="blue" stroke-width="1" fill="none"/>
    <path d="M 1214.5 94.9 Q 1214.5 88.9 1221.1 83.35 Q 1227.7 77.8 1234.6 77.8 Q 1237.4 77.8 1239.95 78.5 Q 1242.5 79.2 1244.8 81.7 Q 1247.1 84.2 1247.1 88.1 Q 1247.1 93.6 1240.4 99.4 Q 1233.7 105.2 1227 105.2 Q 1224.2 105.2 1221.65 104.5 Q 1219.1 103.8 1216.8 101.3 Q 1214.5 98.8 1214.5 94.9 Z " fill="black"/>
    <rect x="1214.5" y="91.5" width="2.5" height="100" stroke="blue" stroke-width="1" fill="none"/>
    <rect x="1214.5" y="91.5" width="2.5" height="100" fill="black"/>
    <rect x="1296.5" y="111.5" width="10" height="10" stroke="orange" stroke-width="1" fill="none"/>
    <rect x="0" y="0" width="1307" height="217" stroke="black" stroke-width="1" fill="none"/>
</svg>
