<svg xmlns="http://www.w3.org/2000/svg" xmlns:xlink="http://www.w3.org/1999/xlink" viewBox="0 0 272.5 227.07141">
    <line x1="1.25" y1="57.285713" x2="271.25" y2="57.285713" stroke="black" stroke-width="2.5"/>
    <line x1="1.25" y1="82.28571" x2="271.25" y2="82.28571" stroke="black" stroke-width="2.5"/>
    <line x1="1.25" y1="107.28571" x2="271.25" y2="107.28571" stroke="black" stroke-width="2.5"/>
    <line x1="1.25" y1="132.2857" x2="271.25" y2="132.2857" stroke="black" stroke-width="2.5"/>
    <line x1="1.25" y1="157.2857" x2="271.25" y2="157.2857" stroke="black" stroke-width="2.5"/>
    <rect x="1.25" y="7.285713" width="10" height="200" stroke="orange" stroke-width="1" fill="none"/>
    <rect x="11.25" y="94.78571" width="34.25" height="25" stroke="red" stroke-width="1" fill="none"/>
    <path d="M 36.15 97.185715 Q 33.25 97.185715 23.900002 103.73571 Q 14.55 110.28571 14.55 113.28571 Q 14.55 115.38571 16.35 116.38571 Q 18.15 117.38571 20.650002 117.38571 Q 23.55 117.38571 32.9 110.83572 Q 42.25 104.28571 42.25 101.28571 Q 42.25 99.185715 40.45 98.185715 Q 38.65 97.185715 36.15 97.185715 Z M 11.25 111.08572 Q 11.25 103.88571 17.45 98.73571 Q 23.650002 93.58572 32.45 93.58572 Q 35.45 93.58572 38.050003 94.185715 Q 40.65 94.78571 43.050003 97.185715 Q 45.45 99.58572 45.45 103.48571 Q 45.45 110.685715 39.25 115.83572 Q 33.050003 120.98571 24.25 120.98571 Q 21.25 120.98571 18.65 120.38571 Q 16.05 119.78571 13.65 117.38571 Q 11.25 114.98571 11.25 111.08572 Z " fill="black"/>
    <rect x="45.5" y="94.78571" width="5" height="25" stroke="red" stroke-width="1" fill="none"/>
    <rect x="38" y="107.28571" width="34.25" height="25" stroke="red" stroke-width="1" fill="none"/>
    <path d="M 62.9 109.685715 Q 60 109.685715 50.65 116.23571 Q 41.3 122.78571 41.3 125.78571 Q 41.3 127.88571 43.1 128.88571 Q 44.9 129.88571 47.4 129.88571 Q 50.3 129.88571 59.65 123.33571 Q 69 116.78571 69 113.78571 Q 69 111.685715 67.2 110.685715 Q 65.4 109.685715 62.9 109.685715 Z M 38 123.58571 Q 38 116.38571 44.2 111.23571 Q 50.4 106.08572 59.2 106.08572 Q 62.2 106.08572 64.8 106.685715 Q 67.4 107.28571 69.8 109.685715 Q 72.2 112.08572 72.2 115.98571 Q 72.2 123.185715 66 128.33571 Q 59.800003 133.48572 51 133.48572 Q 48 133.48572 45.4 132.88571 Q 42.8 132.2857 40.4 129.88571 Q 38 127.48572 38 123.58571 Z " fill="black"/>
    <rect x="72.25" y="107.28571" width="5" height="25" stroke="red" stroke-width="1" fill="none"/>
    <rect x="42.5" y="18" width="3" height="89.28571" stroke="red" stroke-width="1" fill="none"/>
    <rect x="38" y="119.78571" width="3" height="89.285706" stroke="red" stroke-width="1" fill="none"/>
    <rect x="23.375" y="0.5" width="10" height="10" stroke="red" stroke-width="1" fill="none"/>
    <ellipse cx="28.375" cy="5.5" rx="5" ry="5" stroke="red" stroke-width="1" fill="none"/>
    <rect x="50.125" y="216.57141" width="10" height="10" stroke="red" stroke-width="1" fill="none"/>
    <ellipse cx="55.125" cy="221.57141" rx="5" ry="5" stroke="red" stroke-width="1" fill="none"/>
    <rect x="261.25" y="7.285713" width="10" height="200" stroke="orange" stroke-width="1" fill="none"/>
    <line x1="44" y1="18" x2="44" y2="103.28571" stroke="black" stroke-width="3"/>
    <line x1="39.5" y1="123.78571" x2="39.5" y2="209.07143" stroke="black" stroke-width="3"/>
    <rect x="0" y="0" width="272.5" height="227.07141" stroke="black" stroke-width="1" fill="none"/>
</svg>
