<svg xmlns="http://www.w3.org/2000/svg" xmlns:xlink="http://www.w3.org/1999/xlink" viewBox="0 0 851 400.2">
    <rect x="0.5" y="123" width="10" height="10" stroke="orange" stroke-width="1" fill="none"/>
    <rect x="0.5" y="354" width="10" height="10" stroke="orange" stroke-width="1" fill="none"/>
    <rect x="10.5" y="12" width="74" height="186" stroke="orange" stroke-width="1" fill="none"/>
    <path d="M 35.300003 70.5 Q 33 63.199997 32.1 57.5 Q 31.300001 52.699997 31.300001 46.299995 Q 31.300001 44.1 31.4 41.9 Q 31.800001 32.4 35.300003 24.449997 Q 38.800003 16.5 45.8 12.299995 Q 46.3 12 47.100002 12 Q 47.8 12 48.3 12.5 Q 53.9 18.099998 56.9 26.799995 Q 59.9 35.5 59.9 44.4 Q 59.9 54.699997 55.5 64.6 Q 51.3 74.5 43.7 82.1 Q 43.100002 82.7 43.3 83.7 L 47.3 99.7 Q 47.600002 101.3 49.3 101.1 Q 50.9 100.9 52.4 100.9 Q 58.2 100.9 62.9 103.2 Q 67.600006 105.5 70.5 109.2 Q 73.4 112.9 74.950005 117.35 Q 76.5 121.8 76.5 126.5 Q 76.5 135.1 71.7 142.05 Q 66.9 149 60.2 151.2 Q 58.8 151.7 59.100002 153.3 Q 61.600002 165.1 61.7 173.2 Q 61.7 176.3 61.3 179.3 Q 60.5 186.2 55.3 191.4 Q 50.100002 196.6 42.9 196.6 Q 34.1 196.6 28 191.3 Q 21.900002 186 21.900002 177.4 Q 21.900002 173 25 169.8 Q 28.1 166.6 32.300003 166.6 Q 36.6 166.6 39.550003 169.65 Q 42.5 172.7 42.5 176.9 Q 42.5 180.5 40.1 183.2 Q 37.7 186 34.300003 186.3 Q 33.1 186.4 32.7 187.5 Q 32.300003 188.6 33.5 189.5 Q 37.1 192.3 42.300003 192.3 Q 48 192.3 52.15 188.2 Q 56.3 184.1 57 178.9 Q 57.5 175.3 57.5 171.7 Q 57.5 163.9 55.100002 154.4 Q 54.7 152.7 52.9 152.9 Q 48.9 153.4 45.5 153.4 Q 30.7 153.4 20.6 144.1 Q 10.5 134.8 10.5 118.8 Q 10.5 113.9 11.65 109.15 Q 12.8 104.4 14.25 100.95 Q 15.700001 97.5 18.75 92.95 Q 21.8 88.399994 23.650002 86 Q 25.5 83.6 29.5 78.85 Q 33.5 74.1 35 72.2 Q 35.6 71.5 35.300003 70.5 Z M 50.9 116.2 L 57.4 145.7 Q 57.7 147 59.2 147 Q 59.600002 147 59.9 146.9 Q 64 145.2 66.7 140.3 Q 69.4 135.4 69.4 130.6 Q 69.4 123.6 65.3 118.8 Q 61.100002 113.9 52.7 113.9 Q 52 113.9 51.45 114.45 Q 50.9 115 50.9 115.7 Q 50.8 116 50.9 116.2 Z M 37.1 88.399994 Q 35.5 90.2 32.35 93.55 Q 29.2 96.9 27.65 98.65 Q 26.1 100.4 23.85 103.6 Q 21.6 106.8 20.5 109.5 Q 19.400002 112.2 18.55 116.1 Q 17.7 120 17.7 124.4 Q 17.7 130.5 21.45 136.2 Q 25.2 141.9 31.75 145.5 Q 38.300003 149.1 45.8 149.1 Q 48.5 149.1 51.8 148.8 Q 52.600002 148.7 53.100002 148.05 Q 53.600002 147.4 53.4 146.6 L 46.9 116.7 Q 46.600002 115.3 45 115.3 Q 44.7 115.3 44.3 115.4 Q 39.7 117.1 37.800003 120.2 Q 35.9 123.3 35.9 128 Q 35.9 133.5 41.9 137.5 Q 42.600002 138 42.600002 139 Q 42.600002 139.8 41.95 140.5 Q 41.300003 141.2 40.4 141.2 Q 39.9 141.2 39.5 141 Q 33.800003 138 31.050001 132.85 Q 28.300001 127.7 28.300001 122 Q 28.300001 116.5 32.25 110.65 Q 36.2 104.8 42.1 102.6 Q 43.600002 102 43.3 100.5 L 40.300003 89.2 Q 40.1 88.1 38.9 87.899994 Q 37.7 87.7 37.1 88.399994 Z M 53.9 30.199997 Q 53.100002 27.599998 51.2 27.599998 Q 50.600002 27.599998 50.100002 27.900002 Q 43.7 31.699997 39.95 38.6 Q 36.2 45.5 36.2 53.199997 Q 36.2 58.199997 38.300003 65.5 Q 38.6 66.6 39.800003 66.8 Q 40.800003 66.899994 41.5 66.1 Q 41.800003 65.7 44.350002 62.549995 Q 46.9 59.4 47.7 58.35 Q 48.5 57.299995 50.4 54.35 Q 52.3 51.4 53.05 49.449997 Q 53.8 47.5 54.5 44.6 Q 55.2 41.699997 55.2 38.799995 Q 55.2 34.6 53.9 30.199997 Z " fill="black"/>
    <ellipse cx="15.5" cy="364" rx="5" ry="5" stroke="gray" stroke-width="1" fill="none"/>
    <rect x="84.5" y="103" width="32.5" height="25" stroke="lightgray" stroke-width="1" fill="none"/>
    <path d="M 84.5 118.9 Q 84.5 112.9 91.1 107.35 Q 97.7 101.8 104.6 101.8 Q 107.4 101.8 109.95 102.5 Q 112.5 103.2 114.8 105.7 Q 117.100006 108.2 117.100006 112.1 Q 117.100006 117.6 110.4 123.4 Q 103.7 129.2 97 129.2 Q 94.2 129.2 91.65 128.5 Q 89.1 127.8 86.8 125.3 Q 84.5 122.8 84.5 118.9 Z " fill="black"/>
    <rect x="84.5" y="143" width="25" height="70" stroke="lightgray" stroke-width="1" fill="none"/>
    <path d="M 95 188.4 Q 95.7 188.4 96.15 187.95 Q 96.6 187.5 96.6 186.9 Q 96.6 186.3 96.2 185.9 L 89 177.8 Q 86 174.4 86 171.5 Q 86 169 93.1 162.8 Q 96.8 159.5 96.8 154.5 Q 96.8 150.6 94.3 147.6 L 90.8 143.4 Q 90.4 142.9 90.4 142.4 Q 90.4 140.9 91.8 140.9 Q 92.7 140.9 93.3 141.6 L 108.3 159.4 Q 109.3 160.6 109.3 161.9 Q 109.3 163 108.5 164.2 Q 107.7 165.4 106.8 166.25 Q 105.9 167.1 104.15 168.55 Q 102.4 170 101.7 170.7 Q 97.5 174.6 97.5 179.3 Q 97.5 182.9 101.6 187.3 L 110 196.4 Q 110.4 196.8 110.4 197.4 Q 110.4 198 109.95 198.45 Q 109.5 198.9 109 198.9 Q 108.3 198.9 106.9 197.8 Q 103.2 195 99 195 Q 96.1 195 93.95 197.25 Q 91.8 199.5 91.8 202.4 Q 91.8 203.7 92 204.75 Q 92.2 205.8 92.75 206.9 Q 93.3 208 93.5 208.4 Q 93.7 208.8 94.6 210.05 Q 95.5 211.3 95.6 211.4 Q 95.9 211.8 95.8 212.3 Q 95.7 212.8 95.25 213.05 Q 94.8 213.3 94.3 213.2 Q 93.8 213.1 93 212.3 Q 89.6 208.8 87.05 204.45 Q 84.5 200.1 84.5 196.9 Q 84.5 193 87.25 190.7 Q 90 188.4 95 188.4 Z " fill="black"/>
    <rect x="114" y="25.5" width="3" height="90" stroke="lightgray" stroke-width="1" fill="none"/>
    <rect x="114" y="25.5" width="3" height="90" fill="black"/>
    <rect x="54.546665" y="318.3" width="31.84" height="81.399994" stroke="lightgray" stroke-width="1" fill="none"/>
    <path d="M 63.906666 375.82 Q 62.466663 375.82 60.986664 374.7 Q 59.506664 373.58002 58.506664 371.97998 Q 57.506664 370.38 57.506664 368.94 Q 57.506664 366.38 58.866665 364.94 Q 60.226665 363.5 63.186665 362.3 L 71.346664 358.94 Q 72.94666 358.3 73.22667 357.82 Q 73.50667 357.34 73.58666 355.74 L 73.746666 350.62 Q 73.82666 348.53998 72.58666 347.02 Q 71.346664 345.5 69.026665 345.5 Q 67.82667 345.5 66.62666 345.9 Q 65.42667 346.3 64.62666 346.94 Q 64.14667 347.26 63.986664 347.9 Q 63.826664 348.53998 63.826664 349.26 Q 63.826664 349.58002 63.866665 349.97998 Q 63.906666 350.38 63.906666 350.7 Q 63.906666 351.09998 62.906666 351.78 Q 61.906666 352.46 60.666664 352.97998 Q 59.426666 353.5 58.626663 353.5 Q 58.226665 353.5 57.986664 353.3 Q 57.746666 353.09998 57.746666 352.78 Q 57.746666 351.5 58.586666 350.02 Q 59.426666 348.53998 60.946663 347.26 Q 62.786667 345.58002 64.94666 344.3 Q 67.10667 343.02002 69.18666 342.3 Q 71.26666 341.58002 72.86667 341.58002 Q 75.746666 341.58002 77.62666 343.62 Q 79.50667 345.66 79.42667 348.7 L 79.026665 367.9 Q 78.94666 369.58002 79.78667 370.62 Q 80.62666 371.66 81.90666 371.66 Q 83.90666 371.66 84.86667 370.78 Q 85.26666 370.38 85.50667 370.38 Q 85.90666 370.38 86.14667 370.62 Q 86.386665 370.86 86.386665 371.26 Q 86.386665 372.14 85.50667 373.02002 Q 84.22666 374.3 82.746666 375.06 Q 81.26666 375.82 79.986664 375.82 Q 76.30666 375.82 74.14667 371.66 L 73.90666 371.66 Q 71.26666 373.82 68.86667 374.82 Q 66.46667 375.82 63.906666 375.82 Z M 67.666664 371.97998 Q 69.26666 371.97998 70.386665 371.46 Q 71.50667 370.94 72.386665 370.06 Q 72.78667 369.66 73.066666 368.97998 Q 73.346664 368.3 73.42667 366.78 L 73.58666 362.86 Q 73.666664 361.97998 73.50667 361.58002 Q 73.346664 361.18 72.86667 361.18 Q 72.706665 361.18 72.30666 361.26 Q 71.90666 361.34 71.26666 361.58002 Q 67.026665 363.09998 65.386665 364.74 Q 63.746666 366.38 63.746666 367.74 Q 63.746666 369.82 64.986664 370.9 Q 66.22666 371.97998 67.666664 371.97998 Z " fill="black"/>
    <rect x="86.386665" y="318.3" width="31.84" height="81.399994" stroke="lightgray" stroke-width="1" fill="none"/>
    <path d="M 95.746666 375.82 Q 94.30666 375.82 92.82667 374.7 Q 91.346664 373.58002 90.346664 371.97998 Q 89.346664 370.38 89.346664 368.94 Q 89.346664 366.38 90.706665 364.94 Q 92.066666 363.5 95.026665 362.3 L 103.18666 358.94 Q 104.78667 358.3 105.066666 357.82 Q 105.346664 357.34 105.42667 355.74 L 105.58666 350.62 Q 105.666664 348.53998 104.42667 347.02 Q 103.18666 345.5 100.86667 345.5 Q 99.666664 345.5 98.46667 345.9 Q 97.26666 346.3 96.46667 346.94 Q 95.986664 347.26 95.82667 347.9 Q 95.666664 348.53998 95.666664 349.26 Q 95.666664 349.58002 95.706665 349.97998 Q 95.746666 350.38 95.746666 350.7 Q 95.746666 351.09998 94.746666 351.78 Q 93.746666 352.46 92.50667 352.97998 Q 91.26666 353.5 90.46667 353.5 Q 90.066666 353.5 89.82667 353.3 Q 89.58666 353.09998 89.58666 352.78 Q 89.58666 351.5 90.42667 350.02 Q 91.26666 348.53998 92.78667 347.26 Q 94.62666 345.58002 96.78667 344.3 Q 98.94666 343.02002 101.026665 342.3 Q 103.10667 341.58002 104.706665 341.58002 Q 107.58666 341.58002 109.46667 343.62 Q 111.346664 345.66 111.26666 348.7 L 110.86667 367.9 Q 110.78667 369.58002 111.62666 370.62 Q 112.46667 371.66 113.746666 371.66 Q 115.746666 371.66 116.706665 370.78 Q 117.10667 370.38 117.346664 370.38 Q 117.746666 370.38 117.986664 370.62 Q 118.22667 370.86 118.22667 371.26 Q 118.22667 372.14 117.346664 373.02002 Q 116.066666 374.3 114.58666 375.06 Q 113.10667 375.82 111.82666 375.82 Q 108.14667 375.82 105.986664 371.66 L 105.746666 371.66 Q 103.10667 373.82 100.706665 374.82 Q 98.30666 375.82 95.746666 375.82 Z M 99.50667 371.97998 Q 101.10667 371.97998 102.22666 371.46 Q 103.346664 370.94 104.22667 370.06 Q 104.62666 369.66 104.90666 368.97998 Q 105.18666 368.3 105.26666 366.78 L 105.42667 362.86 Q 105.50667 361.97998 105.346664 361.58002 Q 105.18666 361.18 104.706665 361.18 Q 104.54666 361.18 104.14667 361.26 Q 103.746666 361.34 103.10667 361.58002 Q 98.86667 363.09998 97.22667 364.74 Q 95.58666 366.38 95.58666 367.74 Q 95.58666 369.82 96.82667 370.9 Q 98.066666 371.97998 99.50667 371.97998 Z " fill="black"/>
    <rect x="118.22667" y="318.3" width="31.84" height="81.399994" stroke="lightgray" stroke-width="1" fill="none"/>
    <path d="M 127.58667 375.82 Q 126.14667 375.82 124.66667 374.7 Q 123.18667 373.58002 122.18667 371.97998 Q 121.18667 370.38 121.18667 368.94 Q 121.18667 366.38 122.54667 364.94 Q 123.90667 363.5 126.86667 362.3 L 135.02667 358.94 Q 136.62666 358.3 136.90668 357.82 Q 137.18668 357.34 137.26666 355.74 L 137.42667 350.62 Q 137.50667 348.53998 136.26666 347.02 Q 135.02667 345.5 132.70667 345.5 Q 131.50667 345.5 130.30667 345.9 Q 129.10667 346.3 128.30667 346.94 Q 127.82667 347.26 127.66667 347.9 Q 127.50667 348.53998 127.50667 349.26 Q 127.50667 349.58002 127.54667 349.97998 Q 127.58667 350.38 127.58667 350.7 Q 127.58667 351.09998 126.58667 351.78 Q 125.58667 352.46 124.34667 352.97998 Q 123.10667 353.5 122.30667 353.5 Q 121.90667 353.5 121.66667 353.3 Q 121.42667 353.09998 121.42667 352.78 Q 121.42667 351.5 122.26667 350.02 Q 123.10667 348.53998 124.62667 347.26 Q 126.46667 345.58002 128.62666 344.3 Q 130.78667 343.02002 132.86667 342.3 Q 134.94667 341.58002 136.54666 341.58002 Q 139.42667 341.58002 141.30667 343.62 Q 143.18668 345.66 143.10667 348.7 L 142.70667 367.9 Q 142.62666 369.58002 143.46667 370.62 Q 144.30667 371.66 145.58667 371.66 Q 147.58667 371.66 148.54666 370.78 Q 148.94667 370.38 149.18668 370.38 Q 149.58667 370.38 149.82666 370.62 Q 150.06667 370.86 150.06667 371.26 Q 150.06667 372.14 149.18668 373.02002 Q 147.90666 374.3 146.42667 375.06 Q 144.94667 375.82 143.66667 375.82 Q 139.98666 375.82 137.82668 371.66 L 137.58667 371.66 Q 134.94667 373.82 132.54666 374.82 Q 130.14667 375.82 127.58667 375.82 Z M 131.34666 371.97998 Q 132.94667 371.97998 134.06667 371.46 Q 135.18668 370.94 136.06667 370.06 Q 136.46667 369.66 136.74667 368.97998 Q 137.02667 368.3 137.10667 366.78 L 137.26666 362.86 Q 137.34666 361.97998 137.18668 361.58002 Q 137.02667 361.18 136.54666 361.18 Q 136.38667 361.18 135.98666 361.26 Q 135.58667 361.34 134.94667 361.58002 Q 130.70667 363.09998 129.06667 364.74 Q 127.42667 366.38 127.42667 367.74 Q 127.42667 369.82 128.66667 370.9 Q 129.90666 371.97998 131.34666 371.97998 Z " fill="black"/>
    <rect x="150.06667" y="318.3" width="31.84" height="81.399994" stroke="lightgray" stroke-width="1" fill="none"/>
    <path d="M 159.42667 375.82 Q 157.98666 375.82 156.50667 374.7 Q 155.02667 373.58002 154.02667 371.97998 Q 153.02667 370.38 153.02667 368.94 Q 153.02667 366.38 154.38666 364.94 Q 155.74666 363.5 158.70667 362.3 L 166.86667 358.94 Q 168.46666 358.3 168.74667 357.82 Q 169.02667 357.34 169.10666 355.74 L 169.26666 350.62 Q 169.34666 348.53998 168.10666 347.02 Q 166.86667 345.5 164.54666 345.5 Q 163.34666 345.5 162.14667 345.9 Q 160.94667 346.3 160.14667 346.94 Q 159.66667 347.26 159.50667 347.9 Q 159.34666 348.53998 159.34666 349.26 Q 159.34666 349.58002 159.38666 349.97998 Q 159.42667 350.38 159.42667 350.7 Q 159.42667 351.09998 158.42667 351.78 Q 157.42667 352.46 156.18666 352.97998 Q 154.94667 353.5 154.14667 353.5 Q 153.74666 353.5 153.50667 353.3 Q 153.26666 353.09998 153.26666 352.78 Q 153.26666 351.5 154.10666 350.02 Q 154.94667 348.53998 156.46666 347.26 Q 158.30667 345.58002 160.46666 344.3 Q 162.62666 343.02002 164.70667 342.3 Q 166.78667 341.58002 168.38666 341.58002 Q 171.26666 341.58002 173.14667 343.62 Q 175.02667 345.66 174.94667 348.7 L 174.54666 367.9 Q 174.46666 369.58002 175.30667 370.62 Q 176.14667 371.66 177.42667 371.66 Q 179.42667 371.66 180.38666 370.78 Q 180.78667 370.38 181.02667 370.38 Q 181.42667 370.38 181.66666 370.62 Q 181.90666 370.86 181.90666 371.26 Q 181.90666 372.14 181.02667 373.02002 Q 179.74666 374.3 178.26666 375.06 Q 176.78667 375.82 175.50667 375.82 Q 171.82666 375.82 169.66667 371.66 L 169.42667 371.66 Q 166.78667 373.82 164.38666 374.82 Q 161.98666 375.82 159.42667 375.82 Z M 163.18666 371.97998 Q 164.78667 371.97998 165.90666 371.46 Q 167.02667 370.94 167.90666 370.06 Q 168.30667 369.66 168.58667 368.97998 Q 168.86667 368.3 168.94667 366.78 L 169.10666 362.86 Q 169.18666 361.97998 169.02667 361.58002 Q 168.86667 361.18 168.38666 361.18 Q 168.22667 361.18 167.82666 361.26 Q 167.42667 361.34 166.78667 361.58002 Q 162.54666 363.09998 160.90666 364.74 Q 159.26666 366.38 159.26666 367.74 Q 159.26666 369.82 160.50667 370.9 Q 161.74666 371.97998 163.18666 371.97998 Z " fill="black"/>
    <rect x="213.5" y="153" width="32.5" height="25" stroke="lightgray" stroke-width="1" fill="none"/>
    <path d="M 213.5 168.9 Q 213.5 162.9 220.1 157.35 Q 226.7 151.8 233.6 151.8 Q 236.4 151.8 238.95 152.5 Q 241.5 153.2 243.8 155.7 Q 246.1 158.2 246.1 162.1 Q 246.1 167.6 239.4 173.4 Q 232.7 179.2 226 179.2 Q 223.2 179.2 220.65 178.5 Q 218.1 177.8 215.8 175.3 Q 213.5 172.8 213.5 168.9 Z " fill="black"/>
    <rect x="246" y="165.5" width="33.75" height="25" stroke="lightgray" stroke-width="1" fill="none"/>
    <path d="M 270.9 167.9 Q 268 167.9 258.65 174.45 Q 249.3 181 249.3 184 Q 249.3 186.1 251.1 187.1 Q 252.9 188.1 255.4 188.1 Q 258.3 188.1 267.65 181.55 Q 277 175 277 172 Q 277 169.9 275.2 168.9 Q 273.4 167.9 270.9 167.9 Z M 246 181.8 Q 246 174.6 252.2 169.45 Q 258.4 164.3 267.2 164.3 Q 270.2 164.3 272.8 164.9 Q 275.4 165.5 277.8 167.9 Q 280.2 170.3 280.2 174.2 Q 280.2 181.4 274 186.55 Q 267.8 191.7 259 191.7 Q 256 191.7 253.4 191.1 Q 250.8 190.5 248.4 188.1 Q 246 185.7 246 181.8 Z " fill="black"/>
    <rect x="243" y="50.5" width="3" height="115" stroke="lightgray" stroke-width="1" fill="none"/>
    <rect x="243" y="50.5" width="3" height="115" fill="black"/>
    <rect x="246" y="178" width="3" height="90" stroke="lightgray" stroke-width="1" fill="none"/>
    <rect x="246" y="178" width="3" height="90" fill="black"/>
    <rect x="187.6" y="318.3" width="38.399998" height="81.399994" stroke="lightgray" stroke-width="1" fill="none"/>
    <path d="M 208.32 375.82 Q 206.56 375.82 204.8 375.5 Q 203.04001 375.18 201.44 374.78 Q 199.68001 374.3 198.36 373.9 Q 197.04001 373.5 196.64 373.5 Q 196.16 373.5 195.72 373.82 Q 195.28 374.14 194.88 374.53998 Q 194.48001 374.94 194.16 374.94 Q 193.84001 374.94 193.44 374.66 Q 193.04001 374.38 193.04001 373.97998 Q 193.04001 373.26 193.32 371.5 Q 193.6 369.74 193.6 368.22 L 193.6 329.41998 Q 193.6 327.34 192.56001 325.82 Q 191.52 324.3 189.92001 323.58002 Q 189.6 323.41998 189.24 323.14 Q 188.88 322.86 188.88 322.38 Q 188.88 321.97998 189.20001 321.82 Q 189.52 321.66 189.84001 321.58002 Q 190.88 321.34 192.68001 320.7 Q 194.48001 320.06 196.08 319.41998 Q 197.68001 318.78 198.24 318.53998 Q 198.72 318.3 198.96 318.3 Q 199.12001 318.3 199.28 318.46 Q 199.44 318.62 199.44 318.86 Q 199.44 319.18 199.32 321.53998 Q 199.20001 323.9 199.20001 327.26 L 199.20001 343.66 Q 199.20001 345.18 199.36 345.7 Q 199.52 346.22 199.92001 346.3 Q 202.40001 344.22 205.68001 342.9 Q 208.96 341.58002 211.6 341.58002 Q 215.68001 341.58002 218.92001 343.66 Q 222.16 345.74 224.08 349.3 Q 226 352.86 226 357.34 Q 226 362.78 223.76001 366.97998 Q 221.52 371.18 217.56 373.5 Q 213.6 375.82 208.32 375.82 Z M 210.16 373.34 Q 213.20001 373.34 215.40001 371.46 Q 217.6 369.58002 218.8 366.34 Q 220 363.09998 220 359.09998 Q 220 355.97998 218.84001 352.7 Q 217.68001 349.41998 215.24 347.18 Q 212.8 344.94 208.96 344.94 Q 205.76001 344.94 203.36 345.97998 Q 200.96 347.02 199.20001 348.62 L 199.20001 364.14 Q 199.20001 366.94 200.76001 369.02002 Q 202.32 371.09998 204.84001 372.22 Q 207.36 373.34 210.16 373.34 Z " fill="black"/>
    <rect x="226" y="318.3" width="38.399998" height="81.399994" stroke="lightgray" stroke-width="1" fill="none"/>
    <path d="M 246.72 375.82 Q 244.95999 375.82 243.2 375.5 Q 241.44 375.18 239.84 374.78 Q 238.08 374.3 236.76 373.9 Q 235.44 373.5 235.04 373.5 Q 234.56 373.5 234.12 373.82 Q 233.68 374.14 233.28 374.53998 Q 232.88 374.94 232.56 374.94 Q 232.24 374.94 231.84 374.66 Q 231.44 374.38 231.44 373.97998 Q 231.44 373.26 231.72 371.5 Q 232 369.74 232 368.22 L 232 329.41998 Q 232 327.34 230.96 325.82 Q 229.92 324.3 228.32 323.58002 Q 228 323.41998 227.64 323.14 Q 227.28 322.86 227.28 322.38 Q 227.28 321.97998 227.6 321.82 Q 227.92 321.66 228.24 321.58002 Q 229.28 321.34 231.08 320.7 Q 232.88 320.06 234.48 319.41998 Q 236.08 318.78 236.64 318.53998 Q 237.12 318.3 237.36 318.3 Q 237.52 318.3 237.68 318.46 Q 237.84 318.62 237.84 318.86 Q 237.84 319.18 237.72 321.53998 Q 237.6 323.9 237.6 327.26 L 237.6 343.66 Q 237.6 345.18 237.76 345.7 Q 237.92 346.22 238.32 346.3 Q 240.8 344.22 244.08 342.9 Q 247.36 341.58002 250 341.58002 Q 254.08 341.58002 257.32 343.66 Q 260.56 345.74 262.48 349.3 Q 264.4 352.86 264.4 357.34 Q 264.4 362.78 262.16 366.97998 Q 259.91998 371.18 255.95999 373.5 Q 252 375.82 246.72 375.82 Z M 248.56 373.34 Q 251.6 373.34 253.8 371.46 Q 256 369.58002 257.2 366.34 Q 258.4 363.09998 258.4 359.09998 Q 258.4 355.97998 257.24 352.7 Q 256.08002 349.41998 253.64 347.18 Q 251.2 344.94 247.36 344.94 Q 244.16 344.94 241.76 345.97998 Q 239.36 347.02 237.6 348.62 L 237.6 364.14 Q 237.6 366.94 239.16 369.02002 Q 240.72 371.09998 243.24 372.22 Q 245.76 373.34 248.56 373.34 Z " fill="black"/>
    <rect x="264.4" y="318.3" width="38.399998" height="81.399994" stroke="lightgray" stroke-width="1" fill="none"/>
    <path d="M 285.12 375.82 Q 283.36 375.82 281.6 375.5 Q 279.84 375.18 278.24 374.78 Q 276.47998 374.3 275.16 373.9 Q 273.84 373.5 273.44 373.5 Q 272.96 373.5 272.52 373.82 Q 272.08 374.14 271.68 374.53998 Q 271.28 374.94 270.96 374.94 Q 270.63998 374.94 270.24 374.66 Q 269.84 374.38 269.84 373.97998 Q 269.84 373.26 270.12 371.5 Q 270.4 369.74 270.4 368.22 L 270.4 329.41998 Q 270.4 327.34 269.36 325.82 Q 268.32 324.3 266.72 323.58002 Q 266.4 323.41998 266.04 323.14 Q 265.68 322.86 265.68 322.38 Q 265.68 321.97998 266 321.82 Q 266.32 321.66 266.63998 321.58002 Q 267.68 321.34 269.47998 320.7 Q 271.28 320.06 272.88 319.41998 Q 274.47998 318.78 275.03998 318.53998 Q 275.52 318.3 275.75998 318.3 Q 275.91998 318.3 276.08 318.46 Q 276.24 318.62 276.24 318.86 Q 276.24 319.18 276.12 321.53998 Q 276 323.9 276 327.26 L 276 343.66 Q 276 345.18 276.16 345.7 Q 276.32 346.22 276.72 346.3 Q 279.19998 344.22 282.47998 342.9 Q 285.75998 341.58002 288.4 341.58002 Q 292.47998 341.58002 295.72 343.66 Q 298.96 345.74 300.88 349.3 Q 302.8 352.86 302.8 357.34 Q 302.8 362.78 300.56 366.97998 Q 298.32 371.18 294.36 373.5 Q 290.4 375.82 285.12 375.82 Z M 286.96 373.34 Q 290 373.34 292.19998 371.46 Q 294.4 369.58002 295.6 366.34 Q 296.8 363.09998 296.8 359.09998 Q 296.8 355.97998 295.63998 352.7 Q 294.47998 349.41998 292.03998 347.18 Q 289.6 344.94 285.75998 344.94 Q 282.56 344.94 280.16 345.97998 Q 277.75998 347.02 276 348.62 L 276 364.14 Q 276 366.94 277.56 369.02002 Q 279.12 371.09998 281.63998 372.22 Q 284.16 373.34 286.96 373.34 Z " fill="black"/>
    <rect x="309.5" y="140.5" width="32.5" height="25" stroke="lightgray" stroke-width="1" fill="none"/>
    <path d="M 309.5 156.4 Q 309.5 150.4 316.1 144.85 Q 322.7 139.3 329.6 139.3 Q 332.4 139.3 334.95 140 Q 337.5 140.7 339.8 143.2 Q 342.1 145.7 342.1 149.6 Q 342.1 155.1 335.4 160.9 Q 328.7 166.7 322 166.7 Q 319.2 166.7 316.65 166 Q 314.1 165.3 311.8 162.8 Q 309.5 160.3 309.5 156.4 Z " fill="black"/>
    <rect x="279.5" y="115.5" width="30.000002" height="75" stroke="lightgray" stroke-width="1" fill="none"/>
    <path d="M 301.1 143.4 L 301.1 155.6 Q 301.1 156.4 301.6 156.9 Q 302.1 157.4 302.9 157.4 Q 303.2 157.4 303.5 157.3 L 304.3 157 Q 304.6 156.9 305 156.9 Q 305.8 156.9 306.4 157.5 Q 307 158.1 307 158.9 L 307 164.9 Q 307 166.2 305.7 166.7 L 302.3 168 Q 301.1 168.5 301.1 169.6 L 301.1 184.2 Q 301.1 185 300.55 185.55 Q 300 186.1 299.3 186.1 Q 298.5 186.1 297.95 185.55 Q 297.4 185 297.4 184.2 L 297.4 172.3 Q 297.4 171.5 296.85 171 Q 296.3 170.5 295.6 170.5 Q 295.2 170.5 294.9 170.6 L 290.3 172.4 Q 289.1 172.8 289.1 174 L 289.1 188.6 Q 289.1 189.4 288.5 189.95 Q 287.9 190.5 287.2 190.5 Q 286.5 190.5 285.95 189.95 Q 285.4 189.4 285.4 188.6 L 285.4 176.7 Q 285.4 175.9 284.85 175.4 Q 284.3 174.9 283.6 174.9 Q 283.3 174.9 283 175 L 282.2 175.3 Q 282 175.4 281.5 175.4 Q 280.7 175.4 280.1 174.8 Q 279.5 174.2 279.5 173.4 L 279.5 167.4 Q 279.5 166 280.8 165.5 L 284.2 164.3 Q 285.4 164 285.4 162.6 L 285.4 150.4 Q 285.4 149.6 284.85 149.1 Q 284.3 148.6 283.6 148.6 Q 283.3 148.6 283.1 148.7 L 282.2 149 Q 282 149.1 281.5 149.1 Q 280.7 149.1 280.1 148.5 Q 279.5 147.9 279.5 147.1 L 279.5 141.1 Q 279.5 139.8 280.8 139.3 L 284.3 138 Q 285.4 137.5 285.4 136.4 L 285.4 121.8 Q 285.4 121 285.95 120.45 Q 286.5 119.899994 287.2 119.899994 Q 287.9 119.899994 288.5 120.45 Q 289.1 121 289.1 121.8 L 289.1 133.7 Q 289.1 134.5 289.65 135 Q 290.2 135.5 291 135.5 Q 291.3 135.5 291.6 135.4 L 296.2 133.6 Q 297.4 133.1 297.4 131.9 L 297.4 117.399994 Q 297.4 116.6 297.95 116.05 Q 298.5 115.5 299.3 115.5 Q 300 115.5 300.55 116.05 Q 301.1 116.6 301.1 117.399994 L 301.1 129.4 Q 301.1 130.1 301.6 130.6 Q 302.1 131.1 302.8 131.1 Q 303.1 131.1 303.5 131 L 304.3 130.7 Q 304.5 130.6 305 130.6 Q 305.8 130.6 306.4 131.2 Q 307 131.8 307 132.6 L 307 138.6 Q 307 140 305.7 140.5 L 302.3 141.7 Q 301.1 142 301.1 143.4 Z M 297.4 158.2 L 297.4 146.1 Q 297.4 145.4 296.85 144.85 Q 296.3 144.3 295.6 144.3 Q 295.3 144.3 295 144.4 L 290.3 146.1 Q 289.1 146.6 289.1 147.8 L 289.1 159.9 Q 289.1 160.7 289.6 161.2 Q 290.1 161.7 290.9 161.7 Q 291.2 161.7 291.5 161.6 L 296.2 159.9 Q 297.4 159.4 297.4 158.2 Z " fill="black"/>
    <rect x="339" y="50.5" width="3" height="102.5" stroke="lightgray" stroke-width="1" fill="none"/>
    <rect x="339" y="50.5" width="3" height="102.5" fill="black"/>
    <ellipse cx="314.5" cy="364" rx="5" ry="5" stroke="gray" stroke-width="1" fill="none"/>
    <rect x="383.5" y="128" width="32.5" height="25" stroke="lightgray" stroke-width="1" fill="none"/>
    <path d="M 383.5 143.9 Q 383.5 137.9 390.1 132.35 Q 396.7 126.8 403.6 126.8 Q 406.4 126.8 408.95 127.5 Q 411.5 128.2 413.8 130.7 Q 416.1 133.2 416.1 137.1 Q 416.1 142.6 409.4 148.4 Q 402.7 154.2 396 154.2 Q 393.2 154.2 390.65 153.5 Q 388.1 152.8 385.8 150.3 Q 383.5 147.8 383.5 143.9 Z " fill="black"/>
    <ellipse cx="388.5" cy="364" rx="5" ry="5" stroke="gray" stroke-width="1" fill="none"/>
    <rect x="457.5" y="115.5" width="32.5" height="25" stroke="lightgray" stroke-width="1" fill="none"/>
    <path d="M 457.5 131.4 Q 457.5 125.4 464.1 119.85 Q 470.7 114.3 477.6 114.3 Q 480.4 114.3 482.95 115 Q 485.5 115.7 487.8 118.2 Q 490.1 120.7 490.1 124.6 Q 490.1 130.1 483.4 135.9 Q 476.7 141.7 470 141.7 Q 467.2 141.7 464.65 141 Q 462.1 140.3 459.8 137.8 Q 457.5 135.3 457.5 131.4 Z " fill="black"/>
    <ellipse cx="462.5" cy="364" rx="5" ry="5" stroke="gray" stroke-width="1" fill="none"/>
    <rect x="531.5" y="90.5" width="32.5" height="25" stroke="lightgray" stroke-width="1" fill="none"/>
    <path d="M 531.5 106.4 Q 531.5 100.4 538.1 94.85 Q 544.7 89.3 551.6 89.3 Q 554.4 89.3 556.95 90 Q 559.5 90.7 561.8 93.2 Q 564.1 95.7 564.1 99.6 Q 564.1 105.1 557.4 110.9 Q 550.7 116.7 544 116.7 Q 541.2 116.7 538.65 116 Q 536.1 115.3 533.8 112.8 Q 531.5 110.3 531.5 106.4 Z " fill="black"/>
    <rect x="561" y="13" width="3" height="90" stroke="lightgray" stroke-width="1" fill="none"/>
    <rect x="561" y="13" width="3" height="90" fill="black"/>
    <ellipse cx="536.5" cy="364" rx="5" ry="5" stroke="gray" stroke-width="1" fill="none"/>
    <rect x="660.5" y="78" width="32.5" height="25" stroke="lightgray" stroke-width="1" fill="none"/>
    <path d="M 660.5 93.9 Q 660.5 87.9 667.1 82.35 Q 673.7 76.8 680.6 76.8 Q 683.4 76.8 685.95 77.5 Q 688.5 78.2 690.8 80.7 Q 693.1 83.2 693.1 87.1 Q 693.1 92.6 686.4 98.4 Q 679.7 104.2 673 104.2 Q 670.2 104.2 667.65 103.5 Q 665.1 102.8 662.8 100.3 Q 660.5 97.8 660.5 93.9 Z " fill="black"/>
    <rect x="660.5" y="153" width="32.5" height="25" stroke="lightgray" stroke-width="1" fill="none"/>
    <path d="M 660.5 168.9 Q 660.5 162.9 667.1 157.35 Q 673.7 151.8 680.6 151.8 Q 683.4 151.8 685.95 152.5 Q 688.5 153.2 690.8 155.7 Q 693.1 158.2 693.1 162.1 Q 693.1 167.6 686.4 173.4 Q 679.7 179.2 673 179.2 Q 670.2 179.2 667.65 178.5 Q 665.1 177.8 662.8 175.3 Q 660.5 172.8 660.5 168.9 Z " fill="black"/>
    <rect x="690" y="0.5" width="3" height="90" stroke="lightgray" stroke-width="1" fill="none"/>
    <rect x="690" y="0.5" width="3" height="90" fill="black"/>
    <rect x="660.5" y="165.5" width="3" height="90" stroke="lightgray" stroke-width="1" fill="none"/>
    <rect x="660.5" y="165.5" width="3" height="90" fill="black"/>
    <rect x="639.6667" y="318.3" width="31.84" height="81.399994" stroke="lightgray" stroke-width="1" fill="none"/>
    <path d="M 649.0267 375.82 Q 647.5867 375.82 646.1067 374.7 Q 644.6267 373.58002 643.6267 371.97998 Q 642.6267 370.38 642.6267 368.94 Q 642.6267 366.38 643.9867 364.94 Q 645.3467 363.5 648.3067 362.3 L 656.4667 358.94 Q 658.0667 358.3 658.3467 357.82 Q 658.6267 357.34 658.70667 355.74 L 658.8667 350.62 Q 658.94666 348.53998 657.70667 347.02 Q 656.4667 345.5 654.14667 345.5 Q 652.9467 345.5 651.7467 345.9 Q 650.5467 346.3 649.7467 346.94 Q 649.26666 347.26 649.1067 347.9 Q 648.9467 348.53998 648.9467 349.26 Q 648.9467 349.58002 648.9867 349.97998 Q 649.0267 350.38 649.0267 350.7 Q 649.0267 351.09998 648.0267 351.78 Q 647.0267 352.46 645.7867 352.97998 Q 644.5467 353.5 643.7467 353.5 Q 643.3467 353.5 643.1067 353.3 Q 642.8667 353.09998 642.8667 352.78 Q 642.8667 351.5 643.70667 350.02 Q 644.5467 348.53998 646.0667 347.26 Q 647.9067 345.58002 650.0667 344.3 Q 652.2267 343.02002 654.3067 342.3 Q 656.38666 341.58002 657.9867 341.58002 Q 660.8667 341.58002 662.7467 343.62 Q 664.6267 345.66 664.5467 348.7 L 664.14667 367.9 Q 664.0667 369.58002 664.9067 370.62 Q 665.7467 371.66 667.0267 371.66 Q 669.0267 371.66 669.9867 370.78 Q 670.38666 370.38 670.6267 370.38 Q 671.0267 370.38 671.26666 370.62 Q 671.5067 370.86 671.5067 371.26 Q 671.5067 372.14 670.6267 373.02002 Q 669.3467 374.3 667.8667 375.06 Q 666.38666 375.82 665.1067 375.82 Q 661.4267 375.82 659.26666 371.66 L 659.0267 371.66 Q 656.38666 373.82 653.9867 374.82 Q 651.5867 375.82 649.0267 375.82 Z M 652.7867 371.97998 Q 654.38666 371.97998 655.5067 371.46 Q 656.6267 370.94 657.5067 370.06 Q 657.9067 369.66 658.1867 368.97998 Q 658.4667 368.3 658.5467 366.78 L 658.70667 362.86 Q 658.7867 361.97998 658.6267 361.58002 Q 658.4667 361.18 657.9867 361.18 Q 657.82666 361.18 657.4267 361.26 Q 657.0267 361.34 656.38666 361.58002 Q 652.14667 363.09998 650.5067 364.74 Q 648.8667 366.38 648.8667 367.74 Q 648.8667 369.82 650.1067 370.9 Q 651.3467 371.97998 652.7867 371.97998 Z " fill="black"/>
    <rect x="671.50665" y="318.3" width="38.399998" height="81.399994" stroke="lightgray" stroke-width="1" fill="none"/>
    <path d="M 692.2266 375.82 Q 690.4667 375.82 688.70667 375.5 Q 686.94666 375.18 685.3467 374.78 Q 683.5867 374.3 682.26666 373.9 Q 680.94666 373.5 680.54663 373.5 Q 680.06665 373.5 679.62665 373.82 Q 679.18665 374.14 678.7867 374.53998 Q 678.38666 374.94 678.06665 374.94 Q 677.74664 374.94 677.3467 374.66 Q 676.94666 374.38 676.94666 373.97998 Q 676.94666 373.26 677.2266 371.5 Q 677.50665 369.74 677.50665 368.22 L 677.50665 329.41998 Q 677.50665 327.34 676.4667 325.82 Q 675.42664 324.3 673.82666 323.58002 Q 673.50665 323.41998 673.14667 323.14 Q 672.7867 322.86 672.7867 322.38 Q 672.7867 321.97998 673.1066 321.82 Q 673.42664 321.66 673.74664 321.58002 Q 674.7867 321.34 676.5867 320.7 Q 678.38666 320.06 679.98663 319.41998 Q 681.5867 318.78 682.14667 318.53998 Q 682.62665 318.3 682.86664 318.3 Q 683.0267 318.3 683.18665 318.46 Q 683.3467 318.62 683.3467 318.86 Q 683.3467 319.18 683.2266 321.53998 Q 683.1066 323.9 683.1066 327.26 L 683.1066 343.66 Q 683.1066 345.18 683.26666 345.7 Q 683.42664 346.22 683.82666 346.3 Q 686.30664 344.22 689.5867 342.9 Q 692.86664 341.58002 695.50665 341.58002 Q 699.5867 341.58002 702.82666 343.66 Q 706.06665 345.74 707.98663 349.3 Q 709.9067 352.86 709.9067 357.34 Q 709.9067 362.78 707.6666 366.97998 Q 705.42664 371.18 701.4667 373.5 Q 697.50665 375.82 692.2266 375.82 Z M 694.06665 373.34 Q 697.1066 373.34 699.30664 371.46 Q 701.50665 369.58002 702.70667 366.34 Q 703.9067 363.09998 703.9067 359.09998 Q 703.9067 355.97998 702.74664 352.7 Q 701.5867 349.41998 699.14667 347.18 Q 696.70667 344.94 692.86664 344.94 Q 689.6666 344.94 687.26666 345.97998 Q 684.86664 347.02 683.1066 348.62 L 683.1066 364.14 Q 683.1066 366.94 684.6666 369.02002 Q 686.2266 371.09998 688.74664 372.22 Q 691.26666 373.34 694.06665 373.34 Z " fill="black"/>
    <rect x="709.9067" y="318.3" width="29.76" height="81.399994" stroke="lightgray" stroke-width="1" fill="none"/>
    <path d="M 726.94666 375.9 Q 722.94666 375.9 719.70667 373.86 Q 716.4667 371.82 714.5867 368.26 Q 712.70667 364.7 712.70667 360.3 Q 712.70667 355.09998 714.9867 350.86 Q 717.26666 346.62 721.1067 344.1 Q 724.94666 341.58002 729.5867 341.58002 Q 734.7867 341.58002 738.70667 344.38 Q 739.6667 345.1 739.6667 345.9 Q 739.6667 346.53998 739.1067 347.34 Q 738.5467 348.14 737.7467 348.66 Q 736.94666 349.18 736.2267 349.18 Q 735.82666 349.18 735.4267 348.9 Q 735.0267 348.62 734.5467 348.3 Q 732.7867 346.94 730.62665 345.74 Q 728.4667 344.53998 727.0267 344.53998 Q 723.1067 344.53998 720.6667 348.18 Q 718.2267 351.82 718.2267 357.74 Q 718.2267 361.5 719.8667 364.53998 Q 721.50665 367.58002 724.26666 369.34 Q 727.0267 371.09998 730.38666 371.09998 Q 732.70667 371.09998 734.38666 370.34 Q 736.06665 369.58002 737.9867 367.66 Q 738.14667 367.5 738.38666 367.38 Q 738.62665 367.26 738.7867 367.26 Q 739.6667 367.26 739.6667 368.38 Q 739.6667 368.86 739.38666 369.46 Q 739.1067 370.06 738.4667 370.86 Q 737.18665 372.46 735.4267 373.62 Q 733.6667 374.78 731.5467 375.34 Q 729.4267 375.9 726.94666 375.9 Z " fill="black"/>
    <rect x="748.5" y="140.5" width="32.5" height="25" stroke="lightgray" stroke-width="1" fill="none"/>
    <path d="M 748.5 156.4 Q 748.5 150.4 755.1 144.85 Q 761.7 139.3 768.6 139.3 Q 771.4 139.3 773.95 140 Q 776.5 140.7 778.8 143.2 Q 781.1 145.7 781.1 149.6 Q 781.1 155.1 774.4 160.9 Q 767.7 166.7 761 166.7 Q 758.2 166.7 755.65 166 Q 753.1 165.3 750.8 162.8 Q 748.5 160.3 748.5 156.4 Z " fill="black"/>
    <rect x="778" y="0.5" width="3" height="152.5" stroke="lightgray" stroke-width="1" fill="none"/>
    <rect x="778" y="0.5" width="3" height="152.5" fill="black"/>
    <ellipse cx="753.5" cy="364" rx="5" ry="5" stroke="gray" stroke-width="1" fill="none"/>
    <rect x="840.5" y="123" width="10" height="10" stroke="orange" stroke-width="1" fill="none"/>
    <rect x="840.5" y="354" width="10" height="10" stroke="orange" stroke-width="1" fill="none"/>
    <rect x="0" y="0" width="851" height="400.2" stroke="black" stroke-width="1" fill="none"/>
</svg>
