<svg xmlns="http://www.w3.org/2000/svg" xmlns:xlink="http://www.w3.org/1999/xlink" viewBox="0 0 726.5 314.65002">
    <line x1="1.25" y1="50.5" x2="725.25" y2="50.5" stroke="black" stroke-width="2.5"/>
    <line x1="1.25" y1="75.5" x2="725.25" y2="75.5" stroke="black" stroke-width="2.5"/>
    <line x1="1.25" y1="100.5" x2="725.25" y2="100.5" stroke="black" stroke-width="2.5"/>
    <line x1="1.25" y1="125.5" x2="725.25" y2="125.5" stroke="black" stroke-width="2.5"/>
    <line x1="1.25" y1="150.5" x2="725.25" y2="150.5" stroke="black" stroke-width="2.5"/>
    <rect x="1.25" y="0.5" width="10" height="200" stroke="orange" stroke-width="1" fill="none"/>
    <rect x="1.25" y="268" width="10" height="25" stroke="orange" stroke-width="1" fill="none"/>
    <rect x="11.25" y="10.5" width="74" height="186" stroke="orange" stroke-width="1" fill="none"/>
    <path d="M 36.050003 69 Q 33.75 61.7 32.85 56 Q 32.050003 51.199997 32.050003 44.799995 Q 32.050003 42.6 32.15 40.4 Q 32.550003 30.900002 36.050003 22.949997 Q 39.550003 15 46.55 10.799995 Q 47.05 10.5 47.850002 10.5 Q 48.55 10.5 49.05 11 Q 54.65 16.599998 57.65 25.299995 Q 60.65 34 60.65 42.9 Q 60.65 53.199997 56.25 63.1 Q 52.05 73 44.45 80.6 Q 43.850002 81.2 44.05 82.2 L 48.05 98.2 Q 48.350002 99.8 50.05 99.6 Q 51.65 99.4 53.15 99.4 Q 58.95 99.4 63.65 101.7 Q 68.350006 104 71.25 107.7 Q 74.15 111.4 75.700005 115.85 Q 77.25 120.3 77.25 125 Q 77.25 133.6 72.45 140.55 Q 67.65 147.5 60.95 149.7 Q 59.55 150.2 59.850002 151.8 Q 62.350002 163.6 62.45 171.7 Q 62.45 174.8 62.05 177.8 Q 61.25 184.7 56.05 189.9 Q 50.850002 195.1 43.65 195.1 Q 34.85 195.1 28.75 189.8 Q 22.650002 184.5 22.650002 175.9 Q 22.650002 171.5 25.75 168.3 Q 28.85 165.1 33.050003 165.1 Q 37.35 165.1 40.300003 168.15 Q 43.25 171.2 43.25 175.4 Q 43.25 179 40.85 181.7 Q 38.45 184.5 35.050003 184.8 Q 33.85 184.9 33.45 186 Q 33.050003 187.1 34.25 188 Q 37.85 190.8 43.050003 190.8 Q 48.75 190.8 52.9 186.7 Q 57.05 182.6 57.75 177.4 Q 58.25 173.8 58.25 170.2 Q 58.25 162.4 55.850002 152.9 Q 55.45 151.2 53.65 151.4 Q 49.65 151.9 46.25 151.9 Q 31.45 151.9 21.35 142.6 Q 11.25 133.3 11.25 117.3 Q 11.25 112.4 12.4 107.65 Q 13.55 102.9 15 99.45 Q 16.45 96 19.5 91.45 Q 22.55 86.899994 24.400002 84.5 Q 26.25 82.1 30.25 77.35 Q 34.25 72.6 35.75 70.7 Q 36.35 70 36.050003 69 Z M 51.65 114.7 L 58.15 144.2 Q 58.45 145.5 59.95 145.5 Q 60.350002 145.5 60.65 145.4 Q 64.75 143.7 67.45 138.8 Q 70.15 133.9 70.15 129.1 Q 70.15 122.1 66.05 117.3 Q 61.850002 112.4 53.45 112.4 Q 52.75 112.4 52.2 112.95 Q 51.65 113.5 51.65 114.2 Q 51.55 114.5 51.65 114.7 Z M 37.85 86.899994 Q 36.25 88.7 33.1 92.05 Q 29.95 95.4 28.4 97.15 Q 26.85 98.9 24.6 102.1 Q 22.35 105.3 21.25 108 Q 20.150002 110.7 19.3 114.6 Q 18.45 118.5 18.45 122.9 Q 18.45 129 22.2 134.7 Q 25.95 140.4 32.5 144 Q 39.050003 147.6 46.55 147.6 Q 49.25 147.6 52.55 147.3 Q 53.350002 147.2 53.850002 146.55 Q 54.350002 145.9 54.15 145.1 L 47.65 115.2 Q 47.350002 113.8 45.75 113.8 Q 45.45 113.8 45.05 113.9 Q 40.45 115.6 38.550003 118.7 Q 36.65 121.8 36.65 126.5 Q 36.65 132 42.65 136 Q 43.350002 136.5 43.350002 137.5 Q 43.350002 138.3 42.7 139 Q 42.050003 139.7 41.15 139.7 Q 40.65 139.7 40.25 139.5 Q 34.550003 136.5 31.800001 131.35 Q 29.050001 126.2 29.050001 120.5 Q 29.050001 115 33 109.15 Q 36.95 103.3 42.85 101.1 Q 44.350002 100.5 44.05 99 L 41.050003 87.7 Q 40.85 86.6 39.65 86.399994 Q 38.45 86.2 37.85 86.899994 Z M 54.65 28.699997 Q 53.850002 26.099998 51.95 26.099998 Q 51.350002 26.099998 50.850002 26.400002 Q 44.45 30.199997 40.7 37.1 Q 36.95 44 36.95 51.699997 Q 36.95 56.699997 39.050003 64 Q 39.35 65.1 40.550003 65.3 Q 41.550003 65.399994 42.25 64.6 Q 42.550003 64.2 45.100002 61.049995 Q 47.65 57.9 48.45 56.85 Q 49.25 55.799995 51.15 52.85 Q 53.05 49.9 53.8 47.949997 Q 54.55 46 55.25 43.1 Q 55.95 40.199997 55.95 37.299995 Q 55.95 33.1 54.65 28.699997 Z " fill="black"/>
    <ellipse cx="16.25" cy="285.5" rx="5" ry="5" stroke="gray" stroke-width="1" fill="none"/>
    <rect x="91.25" y="163" width="32.5" height="25" stroke="red" stroke-width="1" fill="none"/>
    <path d="M 91.25 178.9 Q 91.25 172.9 97.85 167.35 Q 104.45 161.8 111.35 161.8 Q 114.15 161.8 116.7 162.5 Q 119.25 163.2 121.55 165.7 Q 123.850006 168.2 123.850006 172.1 Q 123.850006 177.6 117.15 183.4 Q 110.45 189.2 103.75 189.2 Q 100.95 189.2 98.4 188.5 Q 95.85 187.8 93.55 185.3 Q 91.25 182.8 91.25 178.9 Z " fill="black"/>
    <rect x="123.75" y="163" width="5" height="25" stroke="red" stroke-width="1" fill="none"/>
    <rect x="85" y="174.25" width="45" height="2.5" stroke="red" stroke-width="1" fill="none"/>
    <rect x="85" y="174.25" width="45" height="2.5" fill="black"/>
    <rect x="120.75" y="86.21429" width="3" height="89.28571" stroke="red" stroke-width="1" fill="none"/>
    <rect x="91.25" y="73.71429" width="50" height="25" stroke="red" stroke-width="1" fill="none"/>
    <rect x="62.66607" y="246.85" width="12.5" height="67.3" stroke="red" stroke-width="1" fill="none"/>
    <rect x="75.16607" y="246.85" width="37.20167" height="67.3" stroke="red" stroke-width="1" fill="none"/>
    <path d="M 81.41905 256.64404 L 77.64817 256.07126 L 77.64817 253.68462 L 90.63146 253.68462 L 90.63146 256.07126 L 86.52645 256.64404 L 86.52645 269.48413 L 103.328354 269.48413 L 103.328354 256.64404 L 99.46201 256.07126 L 99.46201 253.68462 L 112.25438 253.68462 L 112.25438 256.07126 L 108.48349 256.64404 L 108.48349 286.3338 L 112.25438 286.8111 L 112.25438 289.15002 L 99.414276 289.15002 L 99.414276 286.8111 L 103.328354 286.3338 L 103.328354 272.44357 L 86.52645 272.44357 L 86.52645 286.3338 L 90.67919 286.8111 L 90.67919 289.15002 L 77.552704 289.15002 L 77.552704 286.8111 L 81.41905 286.3338 L 81.41905 256.64404 Z " fill="black"/>
    <rect x="112.367744" y="246.85" width="24.457039" height="67.3" stroke="red" stroke-width="1" fill="none"/>
    <path d="M 117.45128 285.90417 Q 114.42025 282.1333 114.42025 275.83258 Q 114.42025 271.67984 115.99543 268.52948 Q 117.57061 265.37912 120.410706 263.66077 Q 123.2508 261.94238 126.87849 261.94238 Q 131.31763 261.94238 133.77586 264.4006 Q 136.23409 266.85883 136.37729 271.44116 Q 136.37729 274.35287 136.04315 275.8803 L 119.623116 275.8803 Q 119.71858 280.60583 121.81882 283.49368 Q 123.91905 286.38153 127.7854 286.38153 Q 129.69472 286.38153 131.77109 285.6894 Q 133.84746 284.99725 134.99304 284.0426 L 135.89996 286.14285 Q 134.51572 287.57483 131.79495 288.62494 Q 129.07419 289.67505 126.25796 289.67505 Q 120.4823 289.67505 117.45128 285.90417 Z M 131.1267 273.3505 Q 131.2699 272.34808 131.2699 271.29797 Q 131.22215 268.19537 129.95724 266.4054 Q 128.69232 264.61542 125.971565 264.61542 Q 123.203064 264.61542 121.55629 266.62018 Q 119.90951 268.62494 119.670845 273.3505 L 131.1267 273.3505 Z " fill="black"/>
    <rect x="136.82478" y="246.85" width="14.385441" height="67.3" stroke="red" stroke-width="1" fill="none"/>
    <path d="M 142.31404 257.0259 Q 141.55032 256.16672 141.55032 254.8302 Q 141.55032 253.30276 142.48111 252.30037 Q 143.4119 251.29797 145.0348 251.29797 Q 146.65771 251.29797 147.42145 252.15717 Q 148.18517 253.01636 148.18517 254.35287 Q 148.18517 255.97578 147.25438 256.93045 Q 146.3236 257.8851 144.60521 257.8851 L 144.55748 257.8851 Q 143.07776 257.8851 142.31404 257.0259 Z M 138.82956 262.94476 L 146.22812 262.03784 L 146.3236 262.03784 L 147.3737 262.89703 L 147.3737 288.8159 Q 147.3737 292.7777 146.22812 295.4746 Q 145.08253 298.1715 143.1255 299.46027 Q 141.16846 300.74905 138.73409 300.74905 Q 136.87251 300.74905 136.53839 300.5581 L 136.29973 298.3147 Q 136.68158 298.36243 137.42145 298.21924 Q 138.1613 298.07602 138.92502 297.7896 Q 140.88206 297.12137 141.66965 294.5677 Q 142.45724 292.01398 142.45724 287.71802 L 142.45724 266.477 L 138.82956 265.6178 L 138.82956 262.94476 Z " fill="black"/>
    <rect x="151.21022" y="246.85" width="9.707637" height="67.3" stroke="red" stroke-width="1" fill="none"/>
    <path d="M 162.09328 283.5414 Q 163.14339 285.0927 163.14339 287.76575 Q 163.14339 290.4865 162.28421 293.01636 Q 161.42502 295.5462 160.13623 297.33618 Q 158.84746 299.12616 157.6064 299.84213 L 157.55867 299.84213 L 155.93576 298.69653 L 155.93576 298.1715 Q 156.89041 297.40778 157.86893 294.85406 Q 158.84746 292.30035 158.84746 290.00922 Q 158.84746 289.2932 158.58492 288.83975 Q 158.32239 288.3863 157.7496 287.76575 Q 157.08134 287.04977 156.74721 286.42926 Q 156.41309 285.80872 156.41309 284.7586 Q 156.41309 283.51755 157.20067 282.75385 Q 157.98827 281.9901 159.18158 281.9901 L 159.42024 281.9901 Q 161.04315 281.9901 162.09328 283.5414 Z " fill="black"/>
    <rect x="183.25" y="150.5" width="32.5" height="25" stroke="red" stroke-width="1" fill="none"/>
    <path d="M 183.25 166.4 Q 183.25 160.4 189.85 154.85 Q 196.45 149.3 203.35 149.3 Q 206.15 149.3 208.7 150 Q 211.25 150.7 213.55 153.2 Q 215.85 155.7 215.85 159.6 Q 215.85 165.1 209.15 170.9 Q 202.45 176.7 195.75 176.7 Q 192.95 176.7 190.4 176 Q 187.85 175.3 185.55 172.8 Q 183.25 170.3 183.25 166.4 Z " fill="black"/>
    <rect x="215.75" y="150.5" width="5" height="25" stroke="red" stroke-width="1" fill="none"/>
    <rect x="212.75" y="73.71429" width="3" height="89.28571" stroke="red" stroke-width="1" fill="none"/>
    <rect x="183.25" y="61.214287" width="32.5" height="25" stroke="red" stroke-width="1" fill="none"/>
    <rect x="167.32716" y="246.85" width="12.5" height="67.3" stroke="red" stroke-width="1" fill="none"/>
    <rect x="179.82716" y="246.85" width="21.83174" height="67.3" stroke="red" stroke-width="1" fill="none"/>
    <path d="M 186.41428 285.3314 Q 186.8916 286.04736 188.44292 286.62018 Q 189.99423 287.19296 191.7126 287.19296 Q 194.43336 287.19296 195.72215 286.14285 Q 197.01094 285.0927 197.01094 283.23114 Q 197.01094 281.94238 196.19948 280.98773 Q 195.38802 280.03308 193.93217 279.2932 Q 192.47633 278.55334 189.75557 277.50323 Q 186.08014 276.119 184.38564 274.1858 Q 182.69113 272.25262 182.69113 269.1023 Q 182.69113 267.00204 183.95604 265.42688 Q 185.22096 263.85168 187.44052 262.96863 Q 189.6601 262.08557 192.38086 262.08557 Q 194.57657 262.08557 196.22334 262.4197 Q 197.87012 262.75385 198.87251 263.08795 Q 199.8749 263.4221 200.20903 263.51755 L 200.20903 269.4364 L 197.29733 269.4364 L 196.34268 265.90417 Q 196.05627 265.3314 194.81523 264.92566 Q 193.57417 264.51996 192.04674 264.51996 Q 189.89876 264.51996 188.58612 265.4746 Q 187.27347 266.42926 187.27347 268.05215 Q 187.27347 269.48413 187.96559 270.41492 Q 188.65771 271.3457 189.70782 271.91852 Q 190.75795 272.4913 192.5718 273.255 L 193.52644 273.6369 Q 196.19948 274.687 197.87012 275.64166 Q 199.54077 276.5963 200.66249 278.14764 Q 201.78421 279.6989 201.78421 281.94238 Q 201.78421 285.4746 199.03957 287.57483 Q 196.29495 289.67505 191.52167 289.67505 Q 189.18277 289.67505 186.62907 289.03067 Q 184.07538 288.3863 182.45247 287.71802 L 182.45247 281.60825 L 185.55508 281.60825 L 186.41428 285.3314 Z " fill="black"/>
    <rect x="201.6589" y="246.85" width="25.936752" height="67.3" stroke="red" stroke-width="1" fill="none"/>
    <path d="M 208.29375 275.37912 Q 212.78062 273.255 219.65413 273.11182 L 219.65413 271.77533 Q 219.65413 269.53186 219.1768 268.2431 Q 218.69948 266.9543 217.53003 266.35767 Q 216.36058 265.761 214.2126 265.761 Q 211.77823 265.761 209.84506 266.45313 Q 207.9119 267.14523 206.00258 268.14764 L 204.80927 265.66553 Q 205.4298 265.14047 207.10043 264.28128 Q 208.77107 263.4221 210.96678 262.75385 Q 213.16249 262.08557 215.35818 262.08557 Q 218.74721 262.08557 220.72812 263.01636 Q 222.70901 263.94714 223.5682 265.99963 Q 224.4274 268.05215 224.4274 271.4889 L 224.4274 286.8111 L 227.24362 286.8111 L 227.24362 288.91135 Q 226.28897 289.15002 224.83313 289.38867 Q 223.37729 289.62732 222.27943 289.62732 Q 220.94292 289.62732 220.46559 289.22162 Q 219.98827 288.8159 219.98827 287.43164 L 219.98827 285.85645 Q 218.55627 287.28845 216.4799 288.48175 Q 214.40353 289.67505 211.77823 289.67505 Q 208.34148 289.67505 206.07417 287.69415 Q 203.80687 285.71326 203.80687 281.9901 Q 203.80687 277.50323 208.29375 275.37912 Z M 216.6947 285.66553 Q 218.31761 284.9018 219.65413 283.85168 L 219.65413 275.64166 Q 214.45126 275.64166 211.80211 277.24072 Q 209.15294 278.83975 209.15294 281.4173 Q 209.15294 283.99487 210.41785 285.21207 Q 211.68277 286.42926 213.83075 286.42926 Q 215.0718 286.42926 216.6947 285.66553 Z " fill="black"/>
    <rect x="275.25" y="138" width="32.5" height="25" stroke="red" stroke-width="1" fill="none"/>
    <path d="M 275.25 153.9 Q 275.25 147.9 281.85 142.35 Q 288.45 136.8 295.35 136.8 Q 298.15 136.8 300.7 137.5 Q 303.25 138.2 305.55 140.7 Q 307.85 143.2 307.85 147.1 Q 307.85 152.6 301.15 158.4 Q 294.45 164.2 287.75 164.2 Q 284.95 164.2 282.4 163.5 Q 279.85 162.8 277.55 160.3 Q 275.25 157.8 275.25 153.9 Z " fill="black"/>
    <rect x="307.75" y="138" width="5" height="25" stroke="red" stroke-width="1" fill="none"/>
    <rect x="304.75" y="61.214287" width="3" height="89.28571" stroke="red" stroke-width="1" fill="none"/>
    <rect x="275.25" y="48.714287" width="50" height="25" stroke="red" stroke-width="1" fill="none"/>
    <rect x="250.53839" y="246.85" width="12.5" height="67.3" stroke="red" stroke-width="1" fill="none"/>
    <rect x="263.0384" y="246.85" width="29.994032" height="67.3" stroke="red" stroke-width="1" fill="none"/>
    <path d="M 269.29138 256.64404 L 265.56824 256.07126 L 265.56824 253.68462 L 271.9167 253.68462 Q 273.63504 253.68462 275.3057 253.54141 Q 277.88327 253.3505 280.17444 253.3505 Q 287.09567 253.39822 289.95963 255.92805 Q 292.8236 258.4579 292.8236 263.56528 Q 292.8236 267.3839 291.0575 270.20013 Q 289.29138 273.01636 286.1649 274.4961 Q 283.0384 275.97577 278.9811 275.97577 Q 277.59686 275.97577 276.1649 275.90417 Q 274.7329 275.83258 274.39877 275.78485 L 274.39877 286.28604 L 280.93814 286.8111 L 280.93814 289.15002 L 265.32956 289.15002 L 265.32956 286.8111 L 269.29138 286.3338 L 269.29138 256.64404 Z M 278.9811 273.39822 Q 282.75198 273.39822 285.11475 271.10706 Q 287.47754 268.8159 287.47754 263.61304 Q 287.47754 259.508 285.42502 257.71802 Q 283.37253 255.92805 279.02884 255.92805 Q 277.5014 255.92805 275.78302 256.119 Q 274.7329 256.21445 274.39877 256.21445 L 274.39877 273.15955 Q 275.7353 273.39822 278.9811 273.39822 Z " fill="black"/>
    <rect x="293.0324" y="246.85" width="24.457039" height="67.3" stroke="red" stroke-width="1" fill="none"/>
    <path d="M 298.11594 285.90417 Q 295.08493 282.1333 295.08493 275.83258 Q 295.08493 271.67984 296.6601 268.52948 Q 298.23526 265.37912 301.07538 263.66077 Q 303.91547 261.94238 307.54315 261.94238 Q 311.9823 261.94238 314.44052 264.4006 Q 316.89874 266.85883 317.04196 271.44116 Q 317.04196 274.35287 316.70782 275.8803 L 300.28778 275.8803 Q 300.38324 280.60583 302.4835 283.49368 Q 304.5837 286.38153 308.45007 286.38153 Q 310.35938 286.38153 312.43576 285.6894 Q 314.51212 284.99725 315.6577 284.0426 L 316.56464 286.14285 Q 315.1804 287.57483 312.45963 288.62494 Q 309.73886 289.67505 306.92264 289.67505 Q 301.14697 289.67505 298.11594 285.90417 Z M 311.79135 273.3505 Q 311.93457 272.34808 311.93457 271.29797 Q 311.8868 268.19537 310.62192 266.4054 Q 309.357 264.61542 306.63623 264.61542 Q 303.86774 264.61542 302.22095 266.62018 Q 300.5742 268.62494 300.3355 273.3505 L 311.79135 273.3505 Z " fill="black"/>
    <rect x="317.48944" y="246.85" width="19.683771" height="67.3" stroke="red" stroke-width="1" fill="none"/>
    <path d="M 323.74243 288.3863 Q 322.4059 287.14523 322.4059 284.13806 L 322.4059 265.80872 L 318.96915 265.80872 L 318.96915 263.66077 Q 319.20782 263.61304 320.30566 263.32663 Q 321.40353 263.04022 321.78537 262.80157 Q 322.5491 262.37195 322.9787 261.0832 Q 323.36057 260.17627 323.88562 258.1715 Q 324.41068 256.16672 324.50613 255.78485 L 327.3224 255.78485 L 327.41785 262.65836 L 335.3892 262.65836 L 335.3892 265.80872 L 327.41785 265.80872 L 327.41785 280.46265 Q 327.41785 283.1834 327.5849 284.28128 Q 327.75198 285.37912 328.3009 285.71326 Q 328.84982 286.04736 330.18634 286.04736 Q 331.47513 286.04736 333.02643 285.71326 Q 334.57776 285.37912 335.43692 284.99725 L 336.15292 287.14523 Q 335.00732 288.00443 332.45364 288.8159 Q 329.89993 289.62732 327.7997 289.62732 Q 325.07895 289.62732 323.74243 288.3863 Z " fill="black"/>
    <rect x="367.25" y="125.5" width="32.5" height="25" stroke="red" stroke-width="1" fill="none"/>
    <path d="M 367.25 141.4 Q 367.25 135.4 373.85 129.85 Q 380.45 124.3 387.35 124.3 Q 390.15 124.3 392.7 125 Q 395.25 125.7 397.55 128.2 Q 399.85 130.7 399.85 134.6 Q 399.85 140.1 393.15 145.9 Q 386.45 151.7 379.75 151.7 Q 376.95 151.7 374.4 151 Q 371.85 150.3 369.55 147.8 Q 367.25 145.3 367.25 141.4 Z " fill="black"/>
    <rect x="399.75" y="125.5" width="5" height="25" stroke="red" stroke-width="1" fill="none"/>
    <rect x="396.75" y="48.714287" width="3" height="89.28571" stroke="red" stroke-width="1" fill="none"/>
    <rect x="367.25" y="36.214287" width="32.5" height="25" stroke="red" stroke-width="1" fill="none"/>
    <rect x="351.15216" y="246.85" width="12.5" height="67.3" stroke="red" stroke-width="1" fill="none"/>
    <rect x="363.65216" y="246.85" width="21.115751" height="67.3" stroke="red" stroke-width="1" fill="none"/>
    <path d="M 365.8956 286.8111 L 369.47556 286.52472 L 369.47556 266.3338 L 366.0388 265.4746 L 366.0388 262.89703 L 372.62592 262.03784 L 372.72137 262.03784 L 373.77148 262.89703 L 373.77148 263.75623 L 373.6283 267.47937 L 373.77148 267.47937 Q 374.2488 266.6679 375.48987 265.37912 Q 376.73093 264.09033 378.68796 263.01636 Q 380.645 261.94238 382.93616 261.94238 Q 383.8908 261.94238 384.51135 262.18103 L 384.51135 267.5271 Q 384.17722 267.28845 383.43735 267.07364 Q 382.6975 266.85883 381.7906 266.85883 Q 377.82877 266.85883 374.43976 269.2932 L 374.43976 286.477 L 380.5018 286.85883 L 380.5018 289.15002 L 365.8956 289.15002 L 365.8956 286.8111 Z " fill="black"/>
    <rect x="384.76788" y="246.85" width="27.177803" height="67.3" stroke="red" stroke-width="1" fill="none"/>
    <path d="M 388.68198 268.3863 Q 390.44806 265.23593 393.3359 263.58917 Q 396.22372 261.94238 399.51727 261.94238 Q 405.53162 261.94238 408.56262 265.761 Q 411.59366 269.5796 411.59366 275.78485 Q 411.59366 280.12854 409.82755 283.27887 Q 408.06143 286.42926 405.1736 288.05215 Q 402.28577 289.67505 398.99222 289.67505 Q 392.9779 289.67505 389.94687 285.85645 Q 386.91586 282.03784 386.91586 275.83258 Q 386.91586 271.53665 388.68198 268.3863 Z M 404.3383 284.23352 Q 406.1044 281.51276 406.1044 276.16672 Q 406.1044 270.8684 404.48148 267.76575 Q 402.85858 264.66315 399.27863 264.66315 Q 395.98508 264.66315 394.1951 267.3839 Q 392.40512 270.10468 392.40512 275.45074 Q 392.40512 280.74905 394.07574 283.85168 Q 395.7464 286.95428 399.27863 286.95428 Q 402.57217 286.95428 404.3383 284.23352 Z " fill="black"/>
    <rect x="459.25" y="113" width="32.5" height="25" stroke="red" stroke-width="1" fill="none"/>
    <path d="M 459.25 128.9 Q 459.25 122.9 465.85 117.35 Q 472.45 111.8 479.35 111.8 Q 482.15 111.8 484.7 112.5 Q 487.25 113.2 489.55 115.7 Q 491.85 118.2 491.85 122.1 Q 491.85 127.6 485.15 133.4 Q 478.45 139.2 471.75 139.2 Q 468.95 139.2 466.4 138.5 Q 463.85 137.8 461.55 135.3 Q 459.25 132.8 459.25 128.9 Z " fill="black"/>
    <rect x="491.75" y="113" width="5" height="25" stroke="red" stroke-width="1" fill="none"/>
    <rect x="488.75" y="36.214287" width="3" height="89.28571" stroke="red" stroke-width="1" fill="none"/>
    <rect x="435.52487" y="246.85" width="12.5" height="67.3" stroke="red" stroke-width="1" fill="none"/>
    <rect x="448.02487" y="246.85" width="31.330547" height="67.3" stroke="red" stroke-width="1" fill="none"/>
    <path d="M 453.0368 266.3338 L 449.60004 265.4746 L 449.60004 262.89703 L 456.4258 262.03784 L 456.56903 262.03784 L 457.5714 262.89703 L 457.5714 264.9018 L 457.52368 266.0474 Q 459.24207 264.51996 462.0583 263.27887 Q 464.8745 262.03784 467.4521 262.03784 Q 470.45923 262.03784 472.10602 263.1834 Q 473.7528 264.329 474.42105 266.69177 Q 475.0893 269.05457 475.0893 273.0641 L 475.0893 286.42926 L 478.4306 286.76337 L 478.4306 289.15002 L 467.11795 289.15002 L 467.11795 286.8111 L 470.07736 286.42926 L 470.07736 273.01636 Q 470.07736 270.20013 469.69553 268.60107 Q 469.31366 267.00204 468.26352 266.21445 Q 467.2134 265.42688 465.20865 265.42688 Q 463.49026 265.42688 461.53323 266.28604 Q 459.57617 267.14523 458.04874 268.29083 L 458.04874 286.38153 L 461.29456 286.8111 L 461.29456 289.15002 L 450.02963 289.15002 L 450.02963 286.8111 L 453.0368 286.38153 L 453.0368 266.3338 Z " fill="black"/>
    <rect x="479.3554" y="246.85" width="24.457039" height="67.3" stroke="red" stroke-width="1" fill="none"/>
    <path d="M 484.43893 285.90417 Q 481.40793 282.1333 481.40793 275.83258 Q 481.40793 271.67984 482.9831 268.52948 Q 484.55826 265.37912 487.39838 263.66077 Q 490.23846 261.94238 493.86615 261.94238 Q 498.3053 261.94238 500.76352 264.4006 Q 503.22174 266.85883 503.36496 271.44116 Q 503.36496 274.35287 503.03082 275.8803 L 486.61078 275.8803 Q 486.70624 280.60583 488.8065 283.49368 Q 490.9067 286.38153 494.77307 286.38153 Q 496.68237 286.38153 498.75876 285.6894 Q 500.8351 284.99725 501.9807 284.0426 L 502.88763 286.14285 Q 501.5034 287.57483 498.78262 288.62494 Q 496.06186 289.67505 493.24564 289.67505 Q 487.46997 289.67505 484.43893 285.90417 Z M 498.11435 273.3505 Q 498.25757 272.34808 498.25757 271.29797 Q 498.2098 268.19537 496.94492 266.4054 Q 495.68 264.61542 492.95923 264.61542 Q 490.19073 264.61542 488.54395 266.62018 Q 486.8972 268.62494 486.6585 273.3505 L 498.11435 273.3505 Z " fill="black"/>
    <rect x="503.81244" y="246.85" width="15.387827" height="67.3" stroke="red" stroke-width="1" fill="none"/>
    <path d="M 509.4449 253.54141 L 505.57855 253.01636 L 505.57855 250.96385 L 513.2635 250.05693 L 513.35895 250.05693 L 514.4091 250.77292 L 514.4091 286.42926 L 518.4664 286.8111 L 518.4664 289.15002 L 505.57855 289.15002 L 505.57855 286.8111 L 509.4449 286.38153 L 509.4449 253.54141 Z " fill="black"/>
    <rect x="587.25" y="113" width="32.5" height="25" stroke="red" stroke-width="1" fill="none"/>
    <path d="M 587.25 128.9 Q 587.25 122.9 593.85 117.35 Q 600.45 111.8 607.35 111.8 Q 610.15 111.8 612.7 112.5 Q 615.25 113.2 617.55 115.7 Q 619.85 118.2 619.85 122.1 Q 619.85 127.6 613.15 133.4 Q 606.45 139.2 599.75 139.2 Q 596.95 139.2 594.4 138.5 Q 591.85 137.8 589.55 135.3 Q 587.25 132.8 587.25 128.9 Z " fill="black"/>
    <rect x="619.75" y="113" width="5" height="25" stroke="red" stroke-width="1" fill="none"/>
    <rect x="616.75" y="36.214287" width="3" height="89.28571" stroke="red" stroke-width="1" fill="none"/>
    <rect x="570.3984" y="246.85" width="12.5" height="67.3" stroke="red" stroke-width="1" fill="none"/>
    <rect x="582.8984" y="246.85" width="15.387827" height="67.3" stroke="red" stroke-width="1" fill="none"/>
    <path d="M 588.5308 253.54141 L 584.6645 253.01636 L 584.6645 250.96385 L 592.3494 250.05693 L 592.4449 250.05693 L 593.49506 250.77292 L 593.49506 286.42926 L 597.5523 286.8111 L 597.5523 289.15002 L 584.6645 289.15002 L 584.6645 286.8111 L 588.5308 286.38153 L 588.5308 253.54141 Z " fill="black"/>
    <rect x="598.2862" y="246.85" width="25.936752" height="67.3" stroke="red" stroke-width="1" fill="none"/>
    <path d="M 604.921 275.37912 Q 609.4079 273.255 616.28143 273.11182 L 616.28143 271.77533 Q 616.28143 269.53186 615.8041 268.2431 Q 615.3268 266.9543 614.1573 266.35767 Q 612.98785 265.761 610.8399 265.761 Q 608.4055 265.761 606.47235 266.45313 Q 604.5392 267.14523 602.6299 268.14764 L 601.4365 265.66553 Q 602.05707 265.14047 603.7277 264.28128 Q 605.3984 263.4221 607.59406 262.75385 Q 609.7898 262.08557 611.9855 262.08557 Q 615.3745 262.08557 617.3554 263.01636 Q 619.3363 263.94714 620.1955 265.99963 Q 621.0547 268.05215 621.0547 271.4889 L 621.0547 286.8111 L 623.8709 286.8111 L 623.8709 288.91135 Q 622.91626 289.15002 621.4604 289.38867 Q 620.0046 289.62732 618.90674 289.62732 Q 617.5702 289.62732 617.0929 289.22162 Q 616.61554 288.8159 616.61554 287.43164 L 616.61554 285.85645 Q 615.1836 287.28845 613.1072 288.48175 Q 611.0308 289.67505 608.4055 289.67505 Q 604.96875 289.67505 602.7015 287.69415 Q 600.43414 285.71326 600.43414 281.9901 Q 600.43414 277.50323 604.921 275.37912 Z M 613.322 285.66553 Q 614.9449 284.9018 616.28143 283.85168 L 616.28143 275.64166 Q 611.07855 275.64166 608.4294 277.24072 Q 605.7802 278.83975 605.7802 281.4173 Q 605.7802 283.99487 607.04517 285.21207 Q 608.31006 286.42926 610.458 286.42926 Q 611.6991 286.42926 613.322 285.66553 Z " fill="black"/>
    <rect x="624.22296" y="246.85" width="9.2303095" height="67.3" stroke="red" stroke-width="1" fill="none"/>
    <path d="M 634.0082 277.7896 L 630.95325 277.7896 L 629.5213 247.00204 L 635.34467 247.00204 L 634.0082 277.7896 Z M 630.4282 284.1858 Q 631.52606 283.1834 632.91034 283.1834 Q 634.43774 283.1834 635.2492 284.0426 Q 636.06067 284.9018 636.06067 286.19058 Q 636.06067 287.71802 634.9867 288.67267 Q 633.9127 289.62732 632.38525 289.62732 Q 631.1442 289.62732 630.2373 288.792 Q 629.3304 287.9567 629.3304 286.62018 Q 629.3304 285.1882 630.4282 284.1858 Z " fill="black"/>
    <rect x="715.25" y="0.5" width="10" height="200" stroke="orange" stroke-width="1" fill="none"/>
    <rect x="715.25" y="268" width="10" height="25" stroke="orange" stroke-width="1" fill="none"/>
    <line x1="122.25" y1="86.21429" x2="122.25" y2="171.5" stroke="black" stroke-width="3"/>
    <line x1="214.25" y1="73.71429" x2="214.25" y2="159" stroke="black" stroke-width="3"/>
    <path d="M 120.75 86.21429 L 215.75 73.71429 L 215.75 88.71429 L 120.75 101.21429 " fill="black"/>
    <line x1="306.25" y1="61.214287" x2="306.25" y2="146.5" stroke="black" stroke-width="3"/>
    <line x1="398.25" y1="48.714287" x2="398.25" y2="134" stroke="black" stroke-width="3"/>
    <path d="M 304.75 61.214287 L 399.75 48.714287 L 399.75 63.714287 L 304.75 76.21429 " fill="black"/>
    <line x1="490.25" y1="36.214287" x2="490.25" y2="121.5" stroke="black" stroke-width="3"/>
    <line x1="618.25" y1="36.214287" x2="618.25" y2="121.5" stroke="black" stroke-width="3"/>
    <rect x="0" y="0" width="726.5" height="314.65002" stroke="black" stroke-width="1" fill="none"/>
</svg>
