<svg xmlns="http://www.w3.org/2000/svg" xmlns:xlink="http://www.w3.org/1999/xlink" viewBox="0 0 720 229.5">
    <rect x="0.5" y="111.5" width="10" height="10" stroke="orange" stroke-width="1" fill="none"/>
    <rect x="10.5" y="0.5" width="74" height="186" stroke="orange" stroke-width="1" fill="none"/>
    <path d="M 35.300003 59 Q 33 51.699997 32.1 46 Q 31.300001 41.199997 31.300001 34.799995 Q 31.300001 32.6 31.4 30.400002 Q 31.800001 20.900002 35.300003 12.949997 Q 38.800003 5 45.8 0.7999954 Q 46.3 0.5 47.100002 0.5 Q 47.8 0.5 48.3 1 Q 53.9 6.5999985 56.9 15.299995 Q 59.9 24 59.9 32.9 Q 59.9 43.199997 55.5 53.1 Q 51.3 63 43.7 70.6 Q 43.100002 71.2 43.3 72.2 L 47.3 88.2 Q 47.600002 89.8 49.3 89.6 Q 50.9 89.4 52.4 89.4 Q 58.2 89.4 62.9 91.7 Q 67.600006 94 70.5 97.7 Q 73.4 101.4 74.950005 105.85 Q 76.5 110.3 76.5 115 Q 76.5 123.6 71.7 130.55 Q 66.9 137.5 60.2 139.7 Q 58.8 140.2 59.100002 141.8 Q 61.600002 153.6 61.7 161.7 Q 61.7 164.8 61.3 167.8 Q 60.5 174.7 55.3 179.9 Q 50.100002 185.1 42.9 185.1 Q 34.1 185.1 28 179.8 Q 21.900002 174.5 21.900002 165.9 Q 21.900002 161.5 25 158.3 Q 28.1 155.1 32.300003 155.1 Q 36.6 155.1 39.550003 158.15 Q 42.5 161.2 42.5 165.4 Q 42.5 169 40.1 171.7 Q 37.7 174.5 34.300003 174.8 Q 33.1 174.9 32.7 176 Q 32.300003 177.1 33.5 178 Q 37.1 180.8 42.300003 180.8 Q 48 180.8 52.15 176.7 Q 56.3 172.6 57 167.4 Q 57.5 163.8 57.5 160.2 Q 57.5 152.4 55.100002 142.9 Q 54.7 141.2 52.9 141.4 Q 48.9 141.9 45.5 141.9 Q 30.7 141.9 20.6 132.6 Q 10.5 123.3 10.5 107.3 Q 10.5 102.4 11.65 97.65 Q 12.8 92.9 14.25 89.45 Q 15.700001 86 18.75 81.45 Q 21.8 76.899994 23.650002 74.5 Q 25.5 72.1 29.5 67.35 Q 33.5 62.6 35 60.7 Q 35.6 60 35.300003 59 Z M 50.9 104.7 L 57.4 134.2 Q 57.7 135.5 59.2 135.5 Q 59.600002 135.5 59.9 135.4 Q 64 133.7 66.7 128.8 Q 69.4 123.9 69.4 119.1 Q 69.4 112.1 65.3 107.3 Q 61.100002 102.4 52.7 102.4 Q 52 102.4 51.45 102.95 Q 50.9 103.5 50.9 104.2 Q 50.8 104.5 50.9 104.7 Z M 37.1 76.899994 Q 35.5 78.7 32.35 82.05 Q 29.2 85.4 27.65 87.15 Q 26.1 88.9 23.85 92.1 Q 21.6 95.3 20.5 98 Q 19.400002 100.7 18.55 104.6 Q 17.7 108.5 17.7 112.9 Q 17.7 119 21.45 124.7 Q 25.2 130.4 31.75 134 Q 38.300003 137.6 45.8 137.6 Q 48.5 137.6 51.8 137.3 Q 52.600002 137.2 53.100002 136.55 Q 53.600002 135.9 53.4 135.1 L 46.9 105.2 Q 46.600002 103.8 45 103.8 Q 44.7 103.8 44.3 103.9 Q 39.7 105.6 37.800003 108.7 Q 35.9 111.8 35.9 116.5 Q 35.9 122 41.9 126 Q 42.600002 126.5 42.600002 127.5 Q 42.600002 128.3 41.95 129 Q 41.300003 129.7 40.4 129.7 Q 39.9 129.7 39.5 129.5 Q 33.800003 126.5 31.050001 121.35 Q 28.300001 116.2 28.300001 110.5 Q 28.300001 105 32.25 99.15 Q 36.2 93.3 42.1 91.1 Q 43.600002 90.5 43.3 89 L 40.300003 77.7 Q 40.1 76.6 38.9 76.399994 Q 37.7 76.2 37.1 76.899994 Z M 53.9 18.699997 Q 53.100002 16.099998 51.2 16.099998 Q 50.600002 16.099998 50.100002 16.400002 Q 43.7 20.199997 39.95 27.099998 Q 36.2 34 36.2 41.699997 Q 36.2 46.699997 38.300003 54 Q 38.6 55.1 39.800003 55.3 Q 40.800003 55.399998 41.5 54.6 Q 41.800003 54.2 44.350002 51.049995 Q 46.9 47.9 47.7 46.85 Q 48.5 45.799995 50.4 42.85 Q 52.3 39.9 53.05 37.949997 Q 53.8 36 54.5 33.1 Q 55.2 30.199997 55.2 27.299995 Q 55.2 23.099998 53.9 18.699997 Z " fill="black"/>
    <rect x="84.5" y="104" width="41.25" height="25" stroke="blue" stroke-width="1" fill="none"/>
    <path d="M 84.5 115 Q 84.5 110.6 89.3 106.7 Q 94.1 102.8 103.1 102.8 Q 109.2 102.8 114.2 104.25 Q 119.2 105.7 122.7 109.25 Q 126.2 112.8 126.2 118 Q 126.2 123.2 121.65 126.7 Q 117.100006 130.2 109 130.2 Q 104.2 130.2 100.2 129.5 Q 96.2 128.8 92.5 127.2 Q 88.8 125.6 86.65 122.5 Q 84.5 119.4 84.5 115 Z M 103.1 105.5 Q 94.3 105.5 94.3 108.6 Q 94.3 112.1 99.65 119.8 Q 105 127.5 108.6 127.5 Q 117.2 127.5 117.2 124.4 Q 117.2 120.6 111.65 113.05 Q 106.1 105.5 103.1 105.5 Z " fill="black"/>
    <rect x="84.5" y="141.5" width="2.5" height="87.5" stroke="blue" stroke-width="1" fill="none"/>
    <rect x="84.5" y="141.5" width="2.5" height="87.5" fill="black"/>
    <rect x="84.5" y="129" width="32.5" height="25" stroke="blue" stroke-width="1" fill="none"/>
    <path d="M 84.5 144.9 Q 84.5 138.9 91.1 133.35 Q 97.7 127.8 104.6 127.8 Q 107.4 127.8 109.95 128.5 Q 112.5 129.2 114.8 131.7 Q 117.100006 134.2 117.100006 138.1 Q 117.100006 143.6 110.4 149.4 Q 103.7 155.2 97 155.2 Q 94.2 155.2 91.65 154.5 Q 89.1 153.8 86.8 151.3 Q 84.5 148.8 84.5 144.9 Z " fill="black"/>
    <rect x="209.5" y="141.5" width="2.5" height="87.5" stroke="blue" stroke-width="1" fill="none"/>
    <rect x="209.5" y="141.5" width="2.5" height="87.5" fill="black"/>
    <rect x="209.5" y="129" width="32.5" height="25" stroke="blue" stroke-width="1" fill="none"/>
    <path d="M 209.5 144.9 Q 209.5 138.9 216.1 133.35 Q 222.7 127.8 229.6 127.8 Q 232.4 127.8 234.95 128.5 Q 237.5 129.2 239.8 131.7 Q 242.1 134.2 242.1 138.1 Q 242.1 143.6 235.4 149.4 Q 228.7 155.2 222 155.2 Q 219.2 155.2 216.65 154.5 Q 214.1 153.8 211.8 151.3 Q 209.5 148.8 209.5 144.9 Z " fill="black"/>
    <rect x="334.5" y="141.5" width="2.5" height="87.5" stroke="blue" stroke-width="1" fill="none"/>
    <rect x="334.5" y="141.5" width="2.5" height="87.5" fill="black"/>
    <rect x="334.5" y="129" width="32.5" height="25" stroke="blue" stroke-width="1" fill="none"/>
    <path d="M 334.5 144.9 Q 334.5 138.9 341.1 133.35 Q 347.7 127.8 354.6 127.8 Q 357.4 127.8 359.95 128.5 Q 362.5 129.2 364.8 131.7 Q 367.1 134.2 367.1 138.1 Q 367.1 143.6 360.4 149.4 Q 353.7 155.2 347 155.2 Q 344.2 155.2 341.65 154.5 Q 339.1 153.8 336.8 151.3 Q 334.5 148.8 334.5 144.9 Z " fill="black"/>
    <rect x="459.5" y="141.5" width="2.5" height="87.5" stroke="blue" stroke-width="1" fill="none"/>
    <rect x="459.5" y="141.5" width="2.5" height="87.5" fill="black"/>
    <rect x="459.5" y="129" width="32.5" height="25" stroke="blue" stroke-width="1" fill="none"/>
    <path d="M 459.5 144.9 Q 459.5 138.9 466.1 133.35 Q 472.7 127.8 479.6 127.8 Q 482.4 127.8 484.95 128.5 Q 487.5 129.2 489.8 131.7 Q 492.1 134.2 492.1 138.1 Q 492.1 143.6 485.4 149.4 Q 478.7 155.2 472 155.2 Q 469.2 155.2 466.65 154.5 Q 464.1 153.8 461.8 151.3 Q 459.5 148.8 459.5 144.9 Z " fill="black"/>
    <rect x="614.5" y="47.75" width="2.5" height="87.5" stroke="blue" stroke-width="1" fill="none"/>
    <rect x="614.5" y="47.75" width="2.5" height="87.5" fill="black"/>
    <rect x="584.5" y="129" width="32.5" height="25" stroke="blue" stroke-width="1" fill="none"/>
    <path d="M 584.5 144.9 Q 584.5 138.9 591.1 133.35 Q 597.7 127.8 604.6 127.8 Q 607.4 127.8 609.95 128.5 Q 612.5 129.2 614.8 131.7 Q 617.1 134.2 617.1 138.1 Q 617.1 143.6 610.4 149.4 Q 603.7 155.2 597 155.2 Q 594.2 155.2 591.65 154.5 Q 589.1 153.8 586.8 151.3 Q 584.5 148.8 584.5 144.9 Z " fill="black"/>
    <rect x="709.5" y="111.5" width="10" height="10" stroke="orange" stroke-width="1" fill="none"/>
    <rect x="0" y="0" width="720" height="229.5" stroke="black" stroke-width="1" fill="none"/>
</svg>
