<svg xmlns="http://www.w3.org/2000/svg" xmlns:xlink="http://www.w3.org/1999/xlink" viewBox="0 0 332.7 142.13571">
    <line x1="1.35" y1="40.785713" x2="331.35" y2="40.785713" stroke="black" stroke-width="2.7"/>
    <line x1="1.35" y1="65.78571" x2="331.35" y2="65.78571" stroke="black" stroke-width="2.7"/>
    <line x1="1.35" y1="90.78571" x2="331.35" y2="90.78571" stroke="black" stroke-width="2.7"/>
    <line x1="1.35" y1="115.78571" x2="331.35" y2="115.78571" stroke="black" stroke-width="2.7"/>
    <line x1="1.35" y1="140.7857" x2="331.35" y2="140.7857" stroke="black" stroke-width="2.7"/>
    <rect x="1.35" y="85.78571" width="10" height="10" stroke="orange" stroke-width="1" fill="none"/>
    <rect x="11.35" y="103.28571" width="32.5" height="25" stroke="red" stroke-width="1" fill="none"/>
    <path d="M 11.35 119.185715 Q 11.35 113.185715 17.95 107.63571 Q 24.550001 102.08572 31.45 102.08572 Q 34.25 102.08572 36.8 102.78571 Q 39.35 103.48571 41.65 105.98571 Q 43.95 108.48572 43.95 112.38571 Q 43.95 117.88571 37.25 123.685715 Q 30.550001 129.48572 23.85 129.48572 Q 21.050001 129.48572 18.5 128.7857 Q 15.950001 128.08571 13.650001 125.58571 Q 11.35 123.08571 11.35 119.185715 Z " fill="black"/>
    <rect x="11.35" y="78.28571" width="32.5" height="25" stroke="red" stroke-width="1" fill="none"/>
    <path d="M 11.35 94.185715 Q 11.35 88.185715 17.95 82.63571 Q 24.550001 77.08572 31.45 77.08572 Q 34.25 77.08572 36.8 77.78571 Q 39.35 78.48571 41.65 80.98571 Q 43.95 83.48571 43.95 87.38571 Q 43.95 92.88571 37.25 98.685715 Q 30.550001 104.48571 23.85 104.48571 Q 21.050001 104.48571 18.5 103.78571 Q 15.950001 103.08572 13.650001 100.58572 Q 11.35 98.08572 11.35 94.185715 Z " fill="black"/>
    <rect x="43.85" y="1.5" width="35" height="75" stroke="red" stroke-width="1" fill="none"/>
    <rect x="36.35" y="78.28571" width="25" height="25" stroke="red" stroke-width="1" fill="none"/>
    <rect x="36.35" y="78.28571" width="25" height="25" fill="red"/>
    <rect x="36.35" y="103.28571" width="25" height="25" stroke="red" stroke-width="1" fill="none"/>
    <rect x="36.35" y="103.28571" width="25" height="25" fill="green"/>
    <rect x="36.35" y="78.28571" width="25" height="25" stroke="red" stroke-width="1" fill="none"/>
    <rect x="36.35" y="78.28571" width="25" height="25" fill="red"/>
    <rect x="36.35" y="103.28571" width="25" height="25" stroke="red" stroke-width="1" fill="none"/>
    <rect x="36.35" y="103.28571" width="25" height="25" fill="green"/>
    <rect x="40.85" y="1.5" width="3" height="114.28571" stroke="red" stroke-width="1" fill="none"/>
    <rect x="166.35" y="103.28571" width="32.5" height="25" stroke="red" stroke-width="1" fill="none"/>
    <path d="M 166.35 119.185715 Q 166.35 113.185715 172.95001 107.63571 Q 179.55 102.08572 186.45001 102.08572 Q 189.25 102.08572 191.8 102.78571 Q 194.35 103.48571 196.65001 105.98571 Q 198.95001 108.48572 198.95001 112.38571 Q 198.95001 117.88571 192.25 123.685715 Q 185.55 129.48572 178.85 129.48572 Q 176.05 129.48572 173.5 128.7857 Q 170.95001 128.08571 168.65001 125.58571 Q 166.35 123.08571 166.35 119.185715 Z " fill="black"/>
    <rect x="198.85" y="90.78571" width="32.5" height="25" stroke="red" stroke-width="1" fill="none"/>
    <path d="M 198.85 106.685715 Q 198.85 100.685715 205.45001 95.13571 Q 212.05 89.58572 218.95001 89.58572 Q 221.75 89.58572 224.3 90.28571 Q 226.85 90.98571 229.15001 93.48571 Q 231.45001 95.98571 231.45001 99.88571 Q 231.45001 105.38571 224.75 111.185715 Q 218.05 116.98572 211.35 116.98572 Q 208.55 116.98572 206 116.28571 Q 203.45001 115.58571 201.15001 113.08571 Q 198.85 110.58571 198.85 106.685715 Z " fill="black"/>
    <rect x="198.85" y="14" width="35" height="75" stroke="red" stroke-width="1" fill="none"/>
    <rect x="166.35" y="90.78571" width="25" height="25" stroke="red" stroke-width="1" fill="none"/>
    <rect x="166.35" y="90.78571" width="25" height="25" fill="gray"/>
    <rect x="166.35" y="103.28571" width="25" height="25" stroke="red" stroke-width="1" fill="none"/>
    <rect x="166.35" y="103.28571" width="25" height="25" fill="lime"/>
    <rect x="166.35" y="90.78571" width="25" height="25" stroke="red" stroke-width="1" fill="none"/>
    <rect x="166.35" y="90.78571" width="25" height="25" fill="gray"/>
    <rect x="166.35" y="103.28571" width="25" height="25" stroke="red" stroke-width="1" fill="none"/>
    <rect x="166.35" y="103.28571" width="25" height="25" fill="lime"/>
    <rect x="195.85" y="14" width="3" height="101.78571" stroke="red" stroke-width="1" fill="none"/>
    <rect x="321.35" y="85.78571" width="10" height="10" stroke="orange" stroke-width="1" fill="none"/>
    <line x1="42.35" y1="1.5" x2="42.35" y2="111.78571" stroke="black" stroke-width="3"/>
    <line x1="197.35" y1="14" x2="197.35" y2="111.78571" stroke="black" stroke-width="3"/>
    <rect x="0" y="0" width="332.7" height="142.13571" stroke="black" stroke-width="1" fill="none"/>
</svg>
