<svg xmlns="http://www.w3.org/2000/svg" xmlns:xlink="http://www.w3.org/1999/xlink" viewBox="0 0 542.5 241.2857">
    <line x1="1.25" y1="50.5" x2="541.25" y2="50.5" stroke="black" stroke-width="2.5"/>
    <line x1="1.25" y1="75.5" x2="541.25" y2="75.5" stroke="black" stroke-width="2.5"/>
    <line x1="1.25" y1="100.5" x2="541.25" y2="100.5" stroke="black" stroke-width="2.5"/>
    <line x1="1.25" y1="125.5" x2="541.25" y2="125.5" stroke="black" stroke-width="2.5"/>
    <line x1="1.25" y1="150.5" x2="541.25" y2="150.5" stroke="black" stroke-width="2.5"/>
    <rect x="1.25" y="0.5" width="10" height="200" stroke="orange" stroke-width="1" fill="none"/>
    <rect x="11.25" y="88" width="32.5" height="25" stroke="red" stroke-width="1" fill="none"/>
    <path d="M 11.25 103.9 Q 11.25 97.9 17.85 92.35 Q 24.45 86.8 31.35 86.8 Q 34.15 86.8 36.7 87.5 Q 39.25 88.2 41.550003 90.7 Q 43.850002 93.2 43.850002 97.1 Q 43.850002 102.6 37.15 108.4 Q 30.45 114.2 23.75 114.2 Q 20.95 114.2 18.4 113.5 Q 15.85 112.8 13.55 110.3 Q 11.25 107.8 11.25 103.9 Z " fill="black"/>
    <rect x="43.75" y="88" width="5" height="25" stroke="red" stroke-width="1" fill="none"/>
    <rect x="11.25" y="138" width="32.5" height="25" stroke="red" stroke-width="1" fill="none"/>
    <path d="M 11.25 153.9 Q 11.25 147.9 17.85 142.35 Q 24.45 136.8 31.35 136.8 Q 34.15 136.8 36.7 137.5 Q 39.25 138.2 41.550003 140.7 Q 43.850002 143.2 43.850002 147.1 Q 43.850002 152.6 37.15 158.4 Q 30.45 164.2 23.75 164.2 Q 20.95 164.2 18.4 163.5 Q 15.85 162.8 13.55 160.3 Q 11.25 157.8 11.25 153.9 Z " fill="black"/>
    <rect x="43.75" y="138" width="5" height="25" stroke="red" stroke-width="1" fill="none"/>
    <rect x="43.75" y="83" width="7.5000005" height="35" stroke="red" stroke-width="1" fill="none"/>
    <rect x="43.75" y="83" width="7.5000005" height="35" fill="green"/>
    <rect x="40.75" y="11.214287" width="3" height="89.28571" stroke="red" stroke-width="1" fill="none"/>
    <rect x="11.25" y="150.5" width="3" height="89.285706" stroke="red" stroke-width="1" fill="none"/>
    <rect x="141.25" y="88" width="32.5" height="25" stroke="red" stroke-width="1" fill="none"/>
    <path d="M 141.25 103.9 Q 141.25 97.9 147.85 92.35 Q 154.45 86.8 161.35 86.8 Q 164.15 86.8 166.7 87.5 Q 169.25 88.2 171.55 90.7 Q 173.85 93.2 173.85 97.1 Q 173.85 102.6 167.15 108.4 Q 160.45 114.2 153.75 114.2 Q 150.95 114.2 148.4 113.5 Q 145.85 112.8 143.55 110.3 Q 141.25 107.8 141.25 103.9 Z " fill="black"/>
    <rect x="173.75" y="88" width="5" height="25" stroke="red" stroke-width="1" fill="none"/>
    <rect x="141.25" y="128" width="25" height="70" stroke="red" stroke-width="1" fill="none"/>
    <path d="M 151.75 173.4 Q 152.45 173.4 152.9 172.95 Q 153.35 172.5 153.35 171.9 Q 153.35 171.3 152.95 170.9 L 145.75 162.8 Q 142.75 159.4 142.75 156.5 Q 142.75 154 149.85 147.8 Q 153.55 144.5 153.55 139.5 Q 153.55 135.6 151.05 132.6 L 147.55 128.4 Q 147.15 127.899994 147.15 127.399994 Q 147.15 125.899994 148.55 125.899994 Q 149.45 125.899994 150.05 126.6 L 165.05 144.4 Q 166.05 145.6 166.05 146.9 Q 166.05 148 165.25 149.2 Q 164.45 150.4 163.55 151.25 Q 162.65 152.1 160.9 153.55 Q 159.15 155 158.45 155.7 Q 154.25 159.6 154.25 164.3 Q 154.25 167.9 158.35 172.3 L 166.75 181.4 Q 167.15 181.8 167.15 182.4 Q 167.15 183 166.7 183.45 Q 166.25 183.9 165.75 183.9 Q 165.05 183.9 163.65 182.8 Q 159.95 180 155.75 180 Q 152.85 180 150.7 182.25 Q 148.55 184.5 148.55 187.4 Q 148.55 188.7 148.75 189.75 Q 148.95 190.8 149.5 191.9 Q 150.05 193 150.25 193.4 Q 150.45 193.8 151.35 195.05 Q 152.25 196.3 152.35 196.4 Q 152.65 196.8 152.55 197.3 Q 152.45 197.8 152 198.05 Q 151.55 198.3 151.05 198.2 Q 150.55 198.1 149.75 197.3 Q 146.35 193.8 143.8 189.45 Q 141.25 185.1 141.25 181.9 Q 141.25 178 144 175.7 Q 146.75 173.4 151.75 173.4 Z " fill="black"/>
    <rect x="133.75" y="83" width="7.5000005" height="35" stroke="red" stroke-width="1" fill="none"/>
    <rect x="133.75" y="83" width="7.5000005" height="35" fill="lime"/>
    <rect x="170.75" y="11.214287" width="3" height="89.28571" stroke="red" stroke-width="1" fill="none"/>
    <rect x="271.25" y="28" width="25" height="70" stroke="red" stroke-width="1" fill="none"/>
    <path d="M 281.75 73.4 Q 282.45 73.4 282.9 72.95 Q 283.35 72.5 283.35 71.9 Q 283.35 71.3 282.95 70.9 L 275.75 62.8 Q 272.75 59.4 272.75 56.5 Q 272.75 54 279.85 47.8 Q 283.55 44.5 283.55 39.5 Q 283.55 35.6 281.05 32.6 L 277.55 28.399994 Q 277.15 27.899994 277.15 27.399994 Q 277.15 25.899994 278.55 25.899994 Q 279.45 25.899994 280.05 26.599998 L 295.05 44.4 Q 296.05 45.6 296.05 46.9 Q 296.05 48 295.25 49.199997 Q 294.45 50.4 293.55 51.25 Q 292.65 52.1 290.9 53.55 Q 289.15 55 288.45 55.7 Q 284.25 59.6 284.25 64.3 Q 284.25 67.9 288.35 72.3 L 296.75 81.4 Q 297.15 81.8 297.15 82.4 Q 297.15 83 296.7 83.45 Q 296.25 83.9 295.75 83.9 Q 295.05 83.9 293.65 82.8 Q 289.95 80 285.75 80 Q 282.85 80 280.7 82.25 Q 278.55 84.5 278.55 87.4 Q 278.55 88.7 278.75 89.75 Q 278.95 90.8 279.5 91.9 Q 280.05 93 280.25 93.4 Q 280.45 93.8 281.35 95.05 Q 282.25 96.3 282.35 96.4 Q 282.65 96.8 282.55 97.3 Q 282.45 97.8 282 98.05 Q 281.55 98.3 281.05 98.2 Q 280.55 98.100006 279.75 97.3 Q 276.35 93.8 273.8 89.45 Q 271.25 85.1 271.25 81.9 Q 271.25 78 274 75.7 Q 276.75 73.4 281.75 73.4 Z " fill="black"/>
    <rect x="271.25" y="138" width="32.5" height="25" stroke="red" stroke-width="1" fill="none"/>
    <path d="M 271.25 153.9 Q 271.25 147.9 277.85 142.35 Q 284.45 136.8 291.35 136.8 Q 294.15 136.8 296.7 137.5 Q 299.25 138.2 301.55 140.7 Q 303.85 143.2 303.85 147.1 Q 303.85 152.6 297.15 158.4 Q 290.45 164.2 283.75 164.2 Q 280.95 164.2 278.4 163.5 Q 275.85 162.8 273.55 160.3 Q 271.25 157.8 271.25 153.9 Z " fill="black"/>
    <rect x="303.75" y="138" width="5" height="25" stroke="red" stroke-width="1" fill="none"/>
    <rect x="271.25" y="150.5" width="3" height="89.285706" stroke="red" stroke-width="1" fill="none"/>
    <rect x="401.25" y="88" width="32.5" height="25" stroke="red" stroke-width="1" fill="none"/>
    <path d="M 401.25 103.9 Q 401.25 97.9 407.85 92.35 Q 414.45 86.8 421.35 86.8 Q 424.15 86.8 426.7 87.5 Q 429.25 88.2 431.55 90.7 Q 433.85 93.2 433.85 97.1 Q 433.85 102.6 427.15 108.4 Q 420.45 114.2 413.75 114.2 Q 410.95 114.2 408.4 113.5 Q 405.85 112.8 403.55 110.3 Q 401.25 107.8 401.25 103.9 Z " fill="black"/>
    <rect x="433.75" y="88" width="5" height="25" stroke="red" stroke-width="1" fill="none"/>
    <rect x="401.25" y="138" width="32.5" height="25" stroke="red" stroke-width="1" fill="none"/>
    <path d="M 401.25 153.9 Q 401.25 147.9 407.85 142.35 Q 414.45 136.8 421.35 136.8 Q 424.15 136.8 426.7 137.5 Q 429.25 138.2 431.55 140.7 Q 433.85 143.2 433.85 147.1 Q 433.85 152.6 427.15 158.4 Q 420.45 164.2 413.75 164.2 Q 410.95 164.2 408.4 163.5 Q 405.85 162.8 403.55 160.3 Q 401.25 157.8 401.25 153.9 Z " fill="black"/>
    <rect x="433.75" y="138" width="5" height="25" stroke="red" stroke-width="1" fill="none"/>
    <rect x="393.75" y="133" width="7.5000005" height="35" stroke="red" stroke-width="1" fill="none"/>
    <rect x="393.75" y="133" width="7.5000005" height="35" fill="lime"/>
    <rect x="430.75" y="11.214287" width="3" height="89.28571" stroke="red" stroke-width="1" fill="none"/>
    <rect x="401.25" y="150.5" width="3" height="89.285706" stroke="red" stroke-width="1" fill="none"/>
    <rect x="531.25" y="0.5" width="10" height="200" stroke="orange" stroke-width="1" fill="none"/>
    <line x1="42.25" y1="11.214287" x2="42.25" y2="96.5" stroke="black" stroke-width="3"/>
    <line x1="12.75" y1="154.5" x2="12.75" y2="239.7857" stroke="black" stroke-width="3"/>
    <line x1="172.25" y1="11.214287" x2="172.25" y2="96.5" stroke="black" stroke-width="3"/>
    <line x1="272.75" y1="154.5" x2="272.75" y2="239.7857" stroke="black" stroke-width="3"/>
    <line x1="432.25" y1="11.214287" x2="432.25" y2="96.5" stroke="black" stroke-width="3"/>
    <line x1="402.75" y1="154.5" x2="402.75" y2="239.7857" stroke="black" stroke-width="3"/>
    <rect x="0" y="0" width="542.5" height="241.2857" stroke="black" stroke-width="1" fill="none"/>
</svg>
