<svg xmlns="http://www.w3.org/2000/svg" xmlns:xlink="http://www.w3.org/1999/xlink" viewBox="0 0 829 400.2">
    <rect x="0.5" y="123" width="10" height="10" stroke="orange" stroke-width="1" fill="none"/>
    <rect x="0.5" y="354" width="10" height="10" stroke="orange" stroke-width="1" fill="none"/>
    <rect x="10.5" y="12" width="74" height="186" stroke="orange" stroke-width="1" fill="none"/>
    <path d="M 35.300003 70.5 Q 33 63.199997 32.1 57.5 Q 31.300001 52.699997 31.300001 46.299995 Q 31.300001 44.1 31.4 41.9 Q 31.800001 32.4 35.300003 24.449997 Q 38.800003 16.5 45.8 12.299995 Q 46.3 12 47.100002 12 Q 47.8 12 48.3 12.5 Q 53.9 18.099998 56.9 26.799995 Q 59.9 35.5 59.9 44.4 Q 59.9 54.699997 55.5 64.6 Q 51.3 74.5 43.7 82.1 Q 43.100002 82.7 43.3 83.7 L 47.3 99.7 Q 47.600002 101.3 49.3 101.1 Q 50.9 100.9 52.4 100.9 Q 58.2 100.9 62.9 103.2 Q 67.600006 105.5 70.5 109.2 Q 73.4 112.9 74.950005 117.35 Q 76.5 121.8 76.5 126.5 Q 76.5 135.1 71.7 142.05 Q 66.9 149 60.2 151.2 Q 58.8 151.7 59.100002 153.3 Q 61.600002 165.1 61.7 173.2 Q 61.7 176.3 61.3 179.3 Q 60.5 186.2 55.3 191.4 Q 50.100002 196.6 42.9 196.6 Q 34.1 196.6 28 191.3 Q 21.900002 186 21.900002 177.4 Q 21.900002 173 25 169.8 Q 28.1 166.6 32.300003 166.6 Q 36.6 166.6 39.550003 169.65 Q 42.5 172.7 42.5 176.9 Q 42.5 180.5 40.1 183.2 Q 37.7 186 34.300003 186.3 Q 33.1 186.4 32.7 187.5 Q 32.300003 188.6 33.5 189.5 Q 37.1 192.3 42.300003 192.3 Q 48 192.3 52.15 188.2 Q 56.3 184.1 57 178.9 Q 57.5 175.3 57.5 171.7 Q 57.5 163.9 55.100002 154.4 Q 54.7 152.7 52.9 152.9 Q 48.9 153.4 45.5 153.4 Q 30.7 153.4 20.6 144.1 Q 10.5 134.8 10.5 118.8 Q 10.5 113.9 11.65 109.15 Q 12.8 104.4 14.25 100.95 Q 15.700001 97.5 18.75 92.95 Q 21.8 88.399994 23.650002 86 Q 25.5 83.6 29.5 78.85 Q 33.5 74.1 35 72.2 Q 35.6 71.5 35.300003 70.5 Z M 50.9 116.2 L 57.4 145.7 Q 57.7 147 59.2 147 Q 59.600002 147 59.9 146.9 Q 64 145.2 66.7 140.3 Q 69.4 135.4 69.4 130.6 Q 69.4 123.6 65.3 118.8 Q 61.100002 113.9 52.7 113.9 Q 52 113.9 51.45 114.45 Q 50.9 115 50.9 115.7 Q 50.8 116 50.9 116.2 Z M 37.1 88.399994 Q 35.5 90.2 32.35 93.55 Q 29.2 96.9 27.65 98.65 Q 26.1 100.4 23.85 103.6 Q 21.6 106.8 20.5 109.5 Q 19.400002 112.2 18.55 116.1 Q 17.7 120 17.7 124.4 Q 17.7 130.5 21.45 136.2 Q 25.2 141.9 31.75 145.5 Q 38.300003 149.1 45.8 149.1 Q 48.5 149.1 51.8 148.8 Q 52.600002 148.7 53.100002 148.05 Q 53.600002 147.4 53.4 146.6 L 46.9 116.7 Q 46.600002 115.3 45 115.3 Q 44.7 115.3 44.3 115.4 Q 39.7 117.1 37.800003 120.2 Q 35.9 123.3 35.9 128 Q 35.9 133.5 41.9 137.5 Q 42.600002 138 42.600002 139 Q 42.600002 139.8 41.95 140.5 Q 41.300003 141.2 40.4 141.2 Q 39.9 141.2 39.5 141 Q 33.800003 138 31.050001 132.85 Q 28.300001 127.7 28.300001 122 Q 28.300001 116.5 32.25 110.65 Q 36.2 104.8 42.1 102.6 Q 43.600002 102 43.3 100.5 L 40.300003 89.2 Q 40.1 88.1 38.9 87.899994 Q 37.7 87.7 37.1 88.399994 Z M 53.9 30.199997 Q 53.100002 27.599998 51.2 27.599998 Q 50.600002 27.599998 50.100002 27.900002 Q 43.7 31.699997 39.95 38.6 Q 36.2 45.5 36.2 53.199997 Q 36.2 58.199997 38.300003 65.5 Q 38.6 66.6 39.800003 66.8 Q 40.800003 66.899994 41.5 66.1 Q 41.800003 65.7 44.350002 62.549995 Q 46.9 59.4 47.7 58.35 Q 48.5 57.299995 50.4 54.35 Q 52.3 51.4 53.05 49.449997 Q 53.8 47.5 54.5 44.6 Q 55.2 41.699997 55.2 38.799995 Q 55.2 34.6 53.9 30.199997 Z " fill="black"/>
    <ellipse cx="15.5" cy="364" rx="5" ry="5" stroke="gray" stroke-width="1" fill="none"/>
    <rect x="84.5" y="103" width="32.5" height="25" stroke="lightgray" stroke-width="1" fill="none"/>
    <path d="M 84.5 118.9 Q 84.5 112.9 91.1 107.35 Q 97.7 101.8 104.6 101.8 Q 107.4 101.8 109.95 102.5 Q 112.5 103.2 114.8 105.7 Q 117.100006 108.2 117.100006 112.1 Q 117.100006 117.6 110.4 123.4 Q 103.7 129.2 97 129.2 Q 94.2 129.2 91.65 128.5 Q 89.1 127.8 86.8 125.3 Q 84.5 122.8 84.5 118.9 Z " fill="black"/>
    <rect x="84.5" y="143" width="25" height="70" stroke="lightgray" stroke-width="1" fill="none"/>
    <path d="M 95 188.4 Q 95.7 188.4 96.15 187.95 Q 96.6 187.5 96.6 186.9 Q 96.6 186.3 96.2 185.9 L 89 177.8 Q 86 174.4 86 171.5 Q 86 169 93.1 162.8 Q 96.8 159.5 96.8 154.5 Q 96.8 150.6 94.3 147.6 L 90.8 143.4 Q 90.4 142.9 90.4 142.4 Q 90.4 140.9 91.8 140.9 Q 92.7 140.9 93.3 141.6 L 108.3 159.4 Q 109.3 160.6 109.3 161.9 Q 109.3 163 108.5 164.2 Q 107.7 165.4 106.8 166.25 Q 105.9 167.1 104.15 168.55 Q 102.4 170 101.7 170.7 Q 97.5 174.6 97.5 179.3 Q 97.5 182.9 101.6 187.3 L 110 196.4 Q 110.4 196.8 110.4 197.4 Q 110.4 198 109.95 198.45 Q 109.5 198.9 109 198.9 Q 108.3 198.9 106.9 197.8 Q 103.2 195 99 195 Q 96.1 195 93.95 197.25 Q 91.8 199.5 91.8 202.4 Q 91.8 203.7 92 204.75 Q 92.2 205.8 92.75 206.9 Q 93.3 208 93.5 208.4 Q 93.7 208.8 94.6 210.05 Q 95.5 211.3 95.6 211.4 Q 95.9 211.8 95.8 212.3 Q 95.7 212.8 95.25 213.05 Q 94.8 213.3 94.3 213.2 Q 93.8 213.1 93 212.3 Q 89.6 208.8 87.05 204.45 Q 84.5 200.1 84.5 196.9 Q 84.5 193 87.25 190.7 Q 90 188.4 95 188.4 Z " fill="black"/>
    <rect x="114" y="25.5" width="3" height="90" stroke="lightgray" stroke-width="1" fill="none"/>
    <rect x="114" y="25.5" width="3" height="90" fill="black"/>
    <rect x="65.159996" y="318.3" width="31.84" height="81.399994" stroke="lightgray" stroke-width="1" fill="none"/>
    <path d="M 74.52 375.82 Q 73.079994 375.82 71.6 374.7 Q 70.119995 373.58002 69.119995 371.97998 Q 68.119995 370.38 68.119995 368.94 Q 68.119995 366.38 69.479996 364.94 Q 70.84 363.5 73.799995 362.3 L 81.95999 358.94 Q 83.56 358.3 83.84 357.82 Q 84.119995 357.34 84.2 355.74 L 84.35999 350.62 Q 84.439995 348.53998 83.2 347.02 Q 81.95999 345.5 79.64 345.5 Q 78.439995 345.5 77.24 345.9 Q 76.03999 346.3 75.24 346.94 Q 74.759995 347.26 74.6 347.9 Q 74.439995 348.53998 74.439995 349.26 Q 74.439995 349.58002 74.479996 349.97998 Q 74.52 350.38 74.52 350.7 Q 74.52 351.09998 73.52 351.78 Q 72.52 352.46 71.28 352.97998 Q 70.03999 353.5 69.24 353.5 Q 68.84 353.5 68.6 353.3 Q 68.35999 353.09998 68.35999 352.78 Q 68.35999 351.5 69.2 350.02 Q 70.03999 348.53998 71.56 347.26 Q 73.399994 345.58002 75.56 344.3 Q 77.71999 343.02002 79.799995 342.3 Q 81.88 341.58002 83.479996 341.58002 Q 86.35999 341.58002 88.24 343.62 Q 90.119995 345.66 90.03999 348.7 L 89.64 367.9 Q 89.56 369.58002 90.399994 370.62 Q 91.24 371.66 92.52 371.66 Q 94.52 371.66 95.479996 370.78 Q 95.88 370.38 96.119995 370.38 Q 96.52 370.38 96.759995 370.62 Q 97 370.86 97 371.26 Q 97 372.14 96.119995 373.02002 Q 94.84 374.3 93.35999 375.06 Q 91.88 375.82 90.59999 375.82 Q 86.92 375.82 84.759995 371.66 L 84.52 371.66 Q 81.88 373.82 79.479996 374.82 Q 77.079994 375.82 74.52 375.82 Z M 78.28 371.97998 Q 79.88 371.97998 80.99999 371.46 Q 82.119995 370.94 83 370.06 Q 83.399994 369.66 83.67999 368.97998 Q 83.95999 368.3 84.03999 366.78 L 84.2 362.86 Q 84.28 361.97998 84.119995 361.58002 Q 83.95999 361.18 83.479996 361.18 Q 83.31999 361.18 82.92 361.26 Q 82.52 361.34 81.88 361.58002 Q 77.64 363.09998 76 364.74 Q 74.35999 366.38 74.35999 367.74 Q 74.35999 369.82 75.6 370.9 Q 76.84 371.97998 78.28 371.97998 Z " fill="black"/>
    <rect x="97" y="318.3" width="31.84" height="81.399994" stroke="lightgray" stroke-width="1" fill="none"/>
    <path d="M 106.36 375.82 Q 104.92 375.82 103.44 374.7 Q 101.96 373.58002 100.96 371.97998 Q 99.96 370.38 99.96 368.94 Q 99.96 366.38 101.32 364.94 Q 102.68 363.5 105.64 362.3 L 113.8 358.94 Q 115.4 358.3 115.68 357.82 Q 115.96 357.34 116.04 355.74 L 116.2 350.62 Q 116.28 348.53998 115.04 347.02 Q 113.8 345.5 111.479996 345.5 Q 110.28 345.5 109.08 345.9 Q 107.88 346.3 107.08 346.94 Q 106.6 347.26 106.44 347.9 Q 106.28 348.53998 106.28 349.26 Q 106.28 349.58002 106.32 349.97998 Q 106.36 350.38 106.36 350.7 Q 106.36 351.09998 105.36 351.78 Q 104.36 352.46 103.12 352.97998 Q 101.88 353.5 101.08 353.5 Q 100.68 353.5 100.44 353.3 Q 100.2 353.09998 100.2 352.78 Q 100.2 351.5 101.04 350.02 Q 101.88 348.53998 103.4 347.26 Q 105.24 345.58002 107.4 344.3 Q 109.56 343.02002 111.64 342.3 Q 113.72 341.58002 115.32 341.58002 Q 118.2 341.58002 120.08 343.62 Q 121.96 345.66 121.88 348.7 L 121.479996 367.9 Q 121.4 369.58002 122.24 370.62 Q 123.08 371.66 124.36 371.66 Q 126.36 371.66 127.32 370.78 Q 127.72 370.38 127.96 370.38 Q 128.36 370.38 128.6 370.62 Q 128.84 370.86 128.84 371.26 Q 128.84 372.14 127.96 373.02002 Q 126.68 374.3 125.2 375.06 Q 123.72 375.82 122.44 375.82 Q 118.76 375.82 116.6 371.66 L 116.36 371.66 Q 113.72 373.82 111.32 374.82 Q 108.92 375.82 106.36 375.82 Z M 110.12 371.97998 Q 111.72 371.97998 112.84 371.46 Q 113.96 370.94 114.84 370.06 Q 115.24 369.66 115.520004 368.97998 Q 115.8 368.3 115.88 366.78 L 116.04 362.86 Q 116.119995 361.97998 115.96 361.58002 Q 115.8 361.18 115.32 361.18 Q 115.16 361.18 114.76 361.26 Q 114.36 361.34 113.72 361.58002 Q 109.479996 363.09998 107.84 364.74 Q 106.2 366.38 106.2 367.74 Q 106.2 369.82 107.44 370.9 Q 108.68 371.97998 110.12 371.97998 Z " fill="black"/>
    <rect x="128.84" y="318.3" width="31.84" height="81.399994" stroke="lightgray" stroke-width="1" fill="none"/>
    <path d="M 138.2 375.82 Q 136.76 375.82 135.28 374.7 Q 133.8 373.58002 132.8 371.97998 Q 131.8 370.38 131.8 368.94 Q 131.8 366.38 133.16 364.94 Q 134.51999 363.5 137.48 362.3 L 145.64 358.94 Q 147.23999 358.3 147.51999 357.82 Q 147.79999 357.34 147.87999 355.74 L 148.04 350.62 Q 148.12 348.53998 146.87999 347.02 Q 145.64 345.5 143.31999 345.5 Q 142.12 345.5 140.92 345.9 Q 139.72 346.3 138.92 346.94 Q 138.44 347.26 138.28 347.9 Q 138.12 348.53998 138.12 349.26 Q 138.12 349.58002 138.16 349.97998 Q 138.2 350.38 138.2 350.7 Q 138.2 351.09998 137.2 351.78 Q 136.2 352.46 134.95999 352.97998 Q 133.72 353.5 132.92 353.5 Q 132.51999 353.5 132.28 353.3 Q 132.04 353.09998 132.04 352.78 Q 132.04 351.5 132.87999 350.02 Q 133.72 348.53998 135.23999 347.26 Q 137.08 345.58002 139.23999 344.3 Q 141.4 343.02002 143.48 342.3 Q 145.56 341.58002 147.16 341.58002 Q 150.04 341.58002 151.92 343.62 Q 153.79999 345.66 153.72 348.7 L 153.31999 367.9 Q 153.23999 369.58002 154.08 370.62 Q 154.92 371.66 156.2 371.66 Q 158.2 371.66 159.16 370.78 Q 159.56 370.38 159.79999 370.38 Q 160.2 370.38 160.44 370.62 Q 160.68 370.86 160.68 371.26 Q 160.68 372.14 159.79999 373.02002 Q 158.51999 374.3 157.04 375.06 Q 155.56 375.82 154.28 375.82 Q 150.59999 375.82 148.44 371.66 L 148.2 371.66 Q 145.56 373.82 143.16 374.82 Q 140.76 375.82 138.2 375.82 Z M 141.95999 371.97998 Q 143.56 371.97998 144.68 371.46 Q 145.79999 370.94 146.68 370.06 Q 147.08 369.66 147.36 368.97998 Q 147.64 368.3 147.72 366.78 L 147.87999 362.86 Q 147.95999 361.97998 147.79999 361.58002 Q 147.64 361.18 147.16 361.18 Q 147 361.18 146.59999 361.26 Q 146.2 361.34 145.56 361.58002 Q 141.31999 363.09998 139.68 364.74 Q 138.04 366.38 138.04 367.74 Q 138.04 369.82 139.28 370.9 Q 140.51999 371.97998 141.95999 371.97998 Z " fill="black"/>
    <rect x="209.5" y="153" width="32.5" height="25" stroke="lightgray" stroke-width="1" fill="none"/>
    <path d="M 209.5 168.9 Q 209.5 162.9 216.1 157.35 Q 222.7 151.8 229.6 151.8 Q 232.4 151.8 234.95 152.5 Q 237.5 153.2 239.8 155.7 Q 242.1 158.2 242.1 162.1 Q 242.1 167.6 235.4 173.4 Q 228.7 179.2 222 179.2 Q 219.2 179.2 216.65 178.5 Q 214.1 177.8 211.8 175.3 Q 209.5 172.8 209.5 168.9 Z " fill="black"/>
    <rect x="242" y="165.5" width="33.75" height="25" stroke="lightgray" stroke-width="1" fill="none"/>
    <path d="M 266.9 167.9 Q 264 167.9 254.65 174.45 Q 245.3 181 245.3 184 Q 245.3 186.1 247.1 187.1 Q 248.9 188.1 251.4 188.1 Q 254.3 188.1 263.65 181.55 Q 273 175 273 172 Q 273 169.9 271.2 168.9 Q 269.4 167.9 266.9 167.9 Z M 242 181.8 Q 242 174.6 248.2 169.45 Q 254.4 164.3 263.2 164.3 Q 266.2 164.3 268.8 164.9 Q 271.4 165.5 273.8 167.9 Q 276.2 170.3 276.2 174.2 Q 276.2 181.4 270 186.55 Q 263.8 191.7 255 191.7 Q 252 191.7 249.4 191.1 Q 246.8 190.5 244.4 188.1 Q 242 185.7 242 181.8 Z " fill="black"/>
    <rect x="239" y="50.5" width="3" height="115" stroke="lightgray" stroke-width="1" fill="none"/>
    <rect x="239" y="50.5" width="3" height="115" fill="black"/>
    <rect x="242" y="178" width="3" height="90" stroke="lightgray" stroke-width="1" fill="none"/>
    <rect x="242" y="178" width="3" height="90" fill="black"/>
    <rect x="183.6" y="318.3" width="38.399998" height="81.399994" stroke="lightgray" stroke-width="1" fill="none"/>
    <path d="M 204.32 375.82 Q 202.56 375.82 200.8 375.5 Q 199.04001 375.18 197.44 374.78 Q 195.68001 374.3 194.36 373.9 Q 193.04001 373.5 192.64 373.5 Q 192.16 373.5 191.72 373.82 Q 191.28 374.14 190.88 374.53998 Q 190.48001 374.94 190.16 374.94 Q 189.84001 374.94 189.44 374.66 Q 189.04001 374.38 189.04001 373.97998 Q 189.04001 373.26 189.32 371.5 Q 189.6 369.74 189.6 368.22 L 189.6 329.41998 Q 189.6 327.34 188.56001 325.82 Q 187.52 324.3 185.92001 323.58002 Q 185.6 323.41998 185.24 323.14 Q 184.88 322.86 184.88 322.38 Q 184.88 321.97998 185.20001 321.82 Q 185.52 321.66 185.84001 321.58002 Q 186.88 321.34 188.68001 320.7 Q 190.48001 320.06 192.08 319.41998 Q 193.68001 318.78 194.24 318.53998 Q 194.72 318.3 194.96 318.3 Q 195.12001 318.3 195.28 318.46 Q 195.44 318.62 195.44 318.86 Q 195.44 319.18 195.32 321.53998 Q 195.20001 323.9 195.20001 327.26 L 195.20001 343.66 Q 195.20001 345.18 195.36 345.7 Q 195.52 346.22 195.92001 346.3 Q 198.40001 344.22 201.68001 342.9 Q 204.96 341.58002 207.6 341.58002 Q 211.68001 341.58002 214.92001 343.66 Q 218.16 345.74 220.08 349.3 Q 222 352.86 222 357.34 Q 222 362.78 219.76001 366.97998 Q 217.52 371.18 213.56 373.5 Q 209.6 375.82 204.32 375.82 Z M 206.16 373.34 Q 209.20001 373.34 211.40001 371.46 Q 213.6 369.58002 214.8 366.34 Q 216 363.09998 216 359.09998 Q 216 355.97998 214.84001 352.7 Q 213.68001 349.41998 211.24 347.18 Q 208.8 344.94 204.96 344.94 Q 201.76001 344.94 199.36 345.97998 Q 196.96 347.02 195.20001 348.62 L 195.20001 364.14 Q 195.20001 366.94 196.76001 369.02002 Q 198.32 371.09998 200.84001 372.22 Q 203.36 373.34 206.16 373.34 Z " fill="black"/>
    <rect x="222" y="318.3" width="38.399998" height="81.399994" stroke="lightgray" stroke-width="1" fill="none"/>
    <path d="M 242.72 375.82 Q 240.95999 375.82 239.2 375.5 Q 237.44 375.18 235.84 374.78 Q 234.08 374.3 232.76 373.9 Q 231.44 373.5 231.04 373.5 Q 230.56 373.5 230.12 373.82 Q 229.68 374.14 229.28 374.53998 Q 228.88 374.94 228.56 374.94 Q 228.24 374.94 227.84 374.66 Q 227.44 374.38 227.44 373.97998 Q 227.44 373.26 227.72 371.5 Q 228 369.74 228 368.22 L 228 329.41998 Q 228 327.34 226.96 325.82 Q 225.92 324.3 224.32 323.58002 Q 224 323.41998 223.64 323.14 Q 223.28 322.86 223.28 322.38 Q 223.28 321.97998 223.6 321.82 Q 223.92 321.66 224.24 321.58002 Q 225.28 321.34 227.08 320.7 Q 228.88 320.06 230.48 319.41998 Q 232.08 318.78 232.64 318.53998 Q 233.12 318.3 233.36 318.3 Q 233.52 318.3 233.68 318.46 Q 233.84 318.62 233.84 318.86 Q 233.84 319.18 233.72 321.53998 Q 233.6 323.9 233.6 327.26 L 233.6 343.66 Q 233.6 345.18 233.76 345.7 Q 233.92 346.22 234.32 346.3 Q 236.8 344.22 240.08 342.9 Q 243.36 341.58002 246 341.58002 Q 250.08 341.58002 253.32 343.66 Q 256.56 345.74 258.48 349.3 Q 260.4 352.86 260.4 357.34 Q 260.4 362.78 258.16 366.97998 Q 255.92 371.18 251.95999 373.5 Q 248 375.82 242.72 375.82 Z M 244.56 373.34 Q 247.6 373.34 249.8 371.46 Q 252 369.58002 253.2 366.34 Q 254.4 363.09998 254.4 359.09998 Q 254.4 355.97998 253.24 352.7 Q 252.08 349.41998 249.64 347.18 Q 247.2 344.94 243.36 344.94 Q 240.16 344.94 237.76 345.97998 Q 235.36 347.02 233.6 348.62 L 233.6 364.14 Q 233.6 366.94 235.16 369.02002 Q 236.72 371.09998 239.24 372.22 Q 241.76 373.34 244.56 373.34 Z " fill="black"/>
    <rect x="260.4" y="318.3" width="38.399998" height="81.399994" stroke="lightgray" stroke-width="1" fill="none"/>
    <path d="M 281.12 375.82 Q 279.36 375.82 277.6 375.5 Q 275.84 375.18 274.24 374.78 Q 272.47998 374.3 271.16 373.9 Q 269.84 373.5 269.44 373.5 Q 268.96 373.5 268.52 373.82 Q 268.08 374.14 267.68 374.53998 Q 267.28 374.94 266.96 374.94 Q 266.63998 374.94 266.24 374.66 Q 265.84 374.38 265.84 373.97998 Q 265.84 373.26 266.12 371.5 Q 266.4 369.74 266.4 368.22 L 266.4 329.41998 Q 266.4 327.34 265.36 325.82 Q 264.32 324.3 262.72 323.58002 Q 262.4 323.41998 262.04 323.14 Q 261.68 322.86 261.68 322.38 Q 261.68 321.97998 262 321.82 Q 262.32 321.66 262.63998 321.58002 Q 263.68 321.34 265.47998 320.7 Q 267.28 320.06 268.88 319.41998 Q 270.47998 318.78 271.03998 318.53998 Q 271.52 318.3 271.75998 318.3 Q 271.91998 318.3 272.08 318.46 Q 272.24 318.62 272.24 318.86 Q 272.24 319.18 272.12 321.53998 Q 272 323.9 272 327.26 L 272 343.66 Q 272 345.18 272.16 345.7 Q 272.32 346.22 272.72 346.3 Q 275.19998 344.22 278.47998 342.9 Q 281.75998 341.58002 284.4 341.58002 Q 288.47998 341.58002 291.72 343.66 Q 294.96 345.74 296.88 349.3 Q 298.8 352.86 298.8 357.34 Q 298.8 362.78 296.56 366.97998 Q 294.32 371.18 290.36 373.5 Q 286.4 375.82 281.12 375.82 Z M 282.96 373.34 Q 286 373.34 288.19998 371.46 Q 290.4 369.58002 291.6 366.34 Q 292.8 363.09998 292.8 359.09998 Q 292.8 355.97998 291.63998 352.7 Q 290.47998 349.41998 288.03998 347.18 Q 285.6 344.94 281.75998 344.94 Q 278.56 344.94 276.16 345.97998 Q 273.75998 347.02 272 348.62 L 272 364.14 Q 272 366.94 273.56 369.02002 Q 275.12 371.09998 277.63998 372.22 Q 280.16 373.34 282.96 373.34 Z " fill="black"/>
    <rect x="303.5" y="140.5" width="32.5" height="25" stroke="lightgray" stroke-width="1" fill="none"/>
    <path d="M 303.5 156.4 Q 303.5 150.4 310.1 144.85 Q 316.7 139.3 323.6 139.3 Q 326.4 139.3 328.95 140 Q 331.5 140.7 333.8 143.2 Q 336.1 145.7 336.1 149.6 Q 336.1 155.1 329.4 160.9 Q 322.7 166.7 316 166.7 Q 313.2 166.7 310.65 166 Q 308.1 165.3 305.8 162.8 Q 303.5 160.3 303.5 156.4 Z " fill="black"/>
    <rect x="276" y="103" width="27.5" height="75" stroke="lightgray" stroke-width="1" fill="none"/>
    <path d="M 280.6 161.6 Q 280.6 162.8 281.6 163.2 Q 282.8 163.7 283.6 162.9 Q 290.2 156.9 290.2 149.3 Q 290.2 146.6 289.05 144.6 Q 287.9 142.6 285.9 142.6 Q 283.7 142.6 282.3 144.5 Q 280.9 146.4 280.8 148.9 L 280.6 161.6 Z M 283.4 139.5 Q 287.6 137.4 290.3 137.4 Q 294.1 137.4 296.4 140.4 Q 298.7 143.4 298.7 147.6 Q 298.7 150.5 297.85 152.85 Q 297 155.2 295.2 157.15 Q 293.4 159.1 291.85 160.4 Q 290.3 161.7 287.8 163.55 Q 285.3 165.4 284 166.5 Q 283.5 166.9 282.7 168 Q 281.9 169.1 281.15 169.7 Q 280.4 170.3 279.5 170.3 Q 278.5 170.3 277.85 169.6 Q 277.2 168.9 277.2 167.8 L 276 107.3 Q 277.3 106.5 278.7 106.5 Q 280.1 106.5 281.4 107.3 L 280.8 137.9 Q 280.8 138.9 281.6 139.4 Q 282.5 140 283.4 139.5 Z " fill="black"/>
    <ellipse cx="308.5" cy="364" rx="5" ry="5" stroke="gray" stroke-width="1" fill="none"/>
    <rect x="375.5" y="128" width="32.5" height="25" stroke="lightgray" stroke-width="1" fill="none"/>
    <path d="M 375.5 143.9 Q 375.5 137.9 382.1 132.35 Q 388.7 126.8 395.6 126.8 Q 398.4 126.8 400.95 127.5 Q 403.5 128.2 405.8 130.7 Q 408.1 133.2 408.1 137.1 Q 408.1 142.6 401.4 148.4 Q 394.7 154.2 388 154.2 Q 385.2 154.2 382.65 153.5 Q 380.1 152.8 377.8 150.3 Q 375.5 147.8 375.5 143.9 Z " fill="black"/>
    <ellipse cx="380.5" cy="364" rx="5" ry="5" stroke="gray" stroke-width="1" fill="none"/>
    <rect x="447.5" y="115.5" width="32.5" height="25" stroke="lightgray" stroke-width="1" fill="none"/>
    <path d="M 447.5 131.4 Q 447.5 125.4 454.1 119.85 Q 460.7 114.3 467.6 114.3 Q 470.4 114.3 472.95 115 Q 475.5 115.7 477.8 118.2 Q 480.1 120.7 480.1 124.6 Q 480.1 130.1 473.4 135.9 Q 466.7 141.7 460 141.7 Q 457.2 141.7 454.65 141 Q 452.1 140.3 449.8 137.8 Q 447.5 135.3 447.5 131.4 Z " fill="black"/>
    <rect x="477" y="38" width="3" height="90" stroke="lightgray" stroke-width="1" fill="none"/>
    <rect x="477" y="38" width="3" height="90" fill="black"/>
    <ellipse cx="452.5" cy="364" rx="5" ry="5" stroke="gray" stroke-width="1" fill="none"/>
    <rect x="519.5" y="90.5" width="32.5" height="25" stroke="lightgray" stroke-width="1" fill="none"/>
    <path d="M 519.5 106.4 Q 519.5 100.4 526.1 94.85 Q 532.7 89.3 539.6 89.3 Q 542.4 89.3 544.95 90 Q 547.5 90.7 549.8 93.2 Q 552.1 95.7 552.1 99.6 Q 552.1 105.1 545.4 110.9 Q 538.7 116.7 532 116.7 Q 529.2 116.7 526.65 116 Q 524.1 115.3 521.8 112.8 Q 519.5 110.3 519.5 106.4 Z " fill="black"/>
    <rect x="549" y="13" width="3" height="90" stroke="lightgray" stroke-width="1" fill="none"/>
    <rect x="549" y="13" width="3" height="90" fill="black"/>
    <ellipse cx="524.5" cy="364" rx="5" ry="5" stroke="gray" stroke-width="1" fill="none"/>
    <rect x="644.5" y="78" width="32.5" height="25" stroke="lightgray" stroke-width="1" fill="none"/>
    <path d="M 644.5 93.9 Q 644.5 87.9 651.1 82.35 Q 657.7 76.8 664.6 76.8 Q 667.4 76.8 669.95 77.5 Q 672.5 78.2 674.8 80.7 Q 677.1 83.2 677.1 87.1 Q 677.1 92.6 670.4 98.4 Q 663.7 104.2 657 104.2 Q 654.2 104.2 651.65 103.5 Q 649.1 102.8 646.8 100.3 Q 644.5 97.8 644.5 93.9 Z " fill="black"/>
    <rect x="644.5" y="153" width="32.5" height="25" stroke="lightgray" stroke-width="1" fill="none"/>
    <path d="M 644.5 168.9 Q 644.5 162.9 651.1 157.35 Q 657.7 151.8 664.6 151.8 Q 667.4 151.8 669.95 152.5 Q 672.5 153.2 674.8 155.7 Q 677.1 158.2 677.1 162.1 Q 677.1 167.6 670.4 173.4 Q 663.7 179.2 657 179.2 Q 654.2 179.2 651.65 178.5 Q 649.1 177.8 646.8 175.3 Q 644.5 172.8 644.5 168.9 Z " fill="black"/>
    <rect x="674" y="0.5" width="3" height="90" stroke="lightgray" stroke-width="1" fill="none"/>
    <rect x="674" y="0.5" width="3" height="90" fill="black"/>
    <rect x="644.5" y="165.5" width="3" height="90" stroke="lightgray" stroke-width="1" fill="none"/>
    <rect x="644.5" y="165.5" width="3" height="90" fill="black"/>
    <rect x="623.6667" y="318.3" width="31.84" height="81.399994" stroke="lightgray" stroke-width="1" fill="none"/>
    <path d="M 633.0267 375.82 Q 631.5867 375.82 630.1067 374.7 Q 628.6267 373.58002 627.6267 371.97998 Q 626.6267 370.38 626.6267 368.94 Q 626.6267 366.38 627.9867 364.94 Q 629.3467 363.5 632.3067 362.3 L 640.4667 358.94 Q 642.0667 358.3 642.3467 357.82 Q 642.6267 357.34 642.70667 355.74 L 642.8667 350.62 Q 642.94666 348.53998 641.70667 347.02 Q 640.4667 345.5 638.14667 345.5 Q 636.9467 345.5 635.7467 345.9 Q 634.5467 346.3 633.7467 346.94 Q 633.26666 347.26 633.1067 347.9 Q 632.9467 348.53998 632.9467 349.26 Q 632.9467 349.58002 632.9867 349.97998 Q 633.0267 350.38 633.0267 350.7 Q 633.0267 351.09998 632.0267 351.78 Q 631.0267 352.46 629.7867 352.97998 Q 628.5467 353.5 627.7467 353.5 Q 627.3467 353.5 627.1067 353.3 Q 626.8667 353.09998 626.8667 352.78 Q 626.8667 351.5 627.70667 350.02 Q 628.5467 348.53998 630.0667 347.26 Q 631.9067 345.58002 634.0667 344.3 Q 636.2267 343.02002 638.3067 342.3 Q 640.38666 341.58002 641.9867 341.58002 Q 644.8667 341.58002 646.7467 343.62 Q 648.6267 345.66 648.5467 348.7 L 648.14667 367.9 Q 648.0667 369.58002 648.9067 370.62 Q 649.7467 371.66 651.0267 371.66 Q 653.0267 371.66 653.9867 370.78 Q 654.38666 370.38 654.6267 370.38 Q 655.0267 370.38 655.26666 370.62 Q 655.5067 370.86 655.5067 371.26 Q 655.5067 372.14 654.6267 373.02002 Q 653.3467 374.3 651.8667 375.06 Q 650.38666 375.82 649.1067 375.82 Q 645.4267 375.82 643.26666 371.66 L 643.0267 371.66 Q 640.38666 373.82 637.9867 374.82 Q 635.5867 375.82 633.0267 375.82 Z M 636.7867 371.97998 Q 638.38666 371.97998 639.5067 371.46 Q 640.6267 370.94 641.5067 370.06 Q 641.9067 369.66 642.1867 368.97998 Q 642.4667 368.3 642.5467 366.78 L 642.70667 362.86 Q 642.7867 361.97998 642.6267 361.58002 Q 642.4667 361.18 641.9867 361.18 Q 641.82666 361.18 641.4267 361.26 Q 641.0267 361.34 640.38666 361.58002 Q 636.14667 363.09998 634.5067 364.74 Q 632.8667 366.38 632.8667 367.74 Q 632.8667 369.82 634.1067 370.9 Q 635.3467 371.97998 636.7867 371.97998 Z " fill="black"/>
    <rect x="655.50665" y="318.3" width="38.399998" height="81.399994" stroke="lightgray" stroke-width="1" fill="none"/>
    <path d="M 676.2266 375.82 Q 674.4667 375.82 672.70667 375.5 Q 670.94666 375.18 669.3467 374.78 Q 667.5867 374.3 666.26666 373.9 Q 664.94666 373.5 664.54663 373.5 Q 664.06665 373.5 663.62665 373.82 Q 663.18665 374.14 662.7867 374.53998 Q 662.38666 374.94 662.06665 374.94 Q 661.74664 374.94 661.3467 374.66 Q 660.94666 374.38 660.94666 373.97998 Q 660.94666 373.26 661.2266 371.5 Q 661.50665 369.74 661.50665 368.22 L 661.50665 329.41998 Q 661.50665 327.34 660.4667 325.82 Q 659.42664 324.3 657.82666 323.58002 Q 657.50665 323.41998 657.14667 323.14 Q 656.7867 322.86 656.7867 322.38 Q 656.7867 321.97998 657.1066 321.82 Q 657.42664 321.66 657.74664 321.58002 Q 658.7867 321.34 660.5867 320.7 Q 662.38666 320.06 663.98663 319.41998 Q 665.5867 318.78 666.14667 318.53998 Q 666.62665 318.3 666.86664 318.3 Q 667.0267 318.3 667.18665 318.46 Q 667.3467 318.62 667.3467 318.86 Q 667.3467 319.18 667.2266 321.53998 Q 667.1066 323.9 667.1066 327.26 L 667.1066 343.66 Q 667.1066 345.18 667.26666 345.7 Q 667.42664 346.22 667.82666 346.3 Q 670.30664 344.22 673.5867 342.9 Q 676.86664 341.58002 679.50665 341.58002 Q 683.5867 341.58002 686.82666 343.66 Q 690.06665 345.74 691.98663 349.3 Q 693.9067 352.86 693.9067 357.34 Q 693.9067 362.78 691.6666 366.97998 Q 689.42664 371.18 685.4667 373.5 Q 681.50665 375.82 676.2266 375.82 Z M 678.06665 373.34 Q 681.1066 373.34 683.30664 371.46 Q 685.50665 369.58002 686.70667 366.34 Q 687.9067 363.09998 687.9067 359.09998 Q 687.9067 355.97998 686.74664 352.7 Q 685.5867 349.41998 683.14667 347.18 Q 680.70667 344.94 676.86664 344.94 Q 673.6666 344.94 671.26666 345.97998 Q 668.86664 347.02 667.1066 348.62 L 667.1066 364.14 Q 667.1066 366.94 668.6666 369.02002 Q 670.2266 371.09998 672.74664 372.22 Q 675.26666 373.34 678.06665 373.34 Z " fill="black"/>
    <rect x="693.9067" y="318.3" width="29.76" height="81.399994" stroke="lightgray" stroke-width="1" fill="none"/>
    <path d="M 710.94666 375.9 Q 706.94666 375.9 703.70667 373.86 Q 700.4667 371.82 698.5867 368.26 Q 696.70667 364.7 696.70667 360.3 Q 696.70667 355.09998 698.9867 350.86 Q 701.26666 346.62 705.1067 344.1 Q 708.94666 341.58002 713.5867 341.58002 Q 718.7867 341.58002 722.70667 344.38 Q 723.6667 345.1 723.6667 345.9 Q 723.6667 346.53998 723.1067 347.34 Q 722.5467 348.14 721.7467 348.66 Q 720.94666 349.18 720.2267 349.18 Q 719.82666 349.18 719.4267 348.9 Q 719.0267 348.62 718.5467 348.3 Q 716.7867 346.94 714.62665 345.74 Q 712.4667 344.53998 711.0267 344.53998 Q 707.1067 344.53998 704.6667 348.18 Q 702.2267 351.82 702.2267 357.74 Q 702.2267 361.5 703.8667 364.53998 Q 705.50665 367.58002 708.26666 369.34 Q 711.0267 371.09998 714.38666 371.09998 Q 716.70667 371.09998 718.38666 370.34 Q 720.06665 369.58002 721.9867 367.66 Q 722.14667 367.5 722.38666 367.38 Q 722.62665 367.26 722.7867 367.26 Q 723.6667 367.26 723.6667 368.38 Q 723.6667 368.86 723.38666 369.46 Q 723.1067 370.06 722.4667 370.86 Q 721.18665 372.46 719.4267 373.62 Q 717.6667 374.78 715.5467 375.34 Q 713.4267 375.9 710.94666 375.9 Z " fill="black"/>
    <rect x="729.5" y="140.5" width="32.5" height="25" stroke="lightgray" stroke-width="1" fill="none"/>
    <path d="M 729.5 156.4 Q 729.5 150.4 736.1 144.85 Q 742.7 139.3 749.6 139.3 Q 752.4 139.3 754.95 140 Q 757.5 140.7 759.8 143.2 Q 762.1 145.7 762.1 149.6 Q 762.1 155.1 755.4 160.9 Q 748.7 166.7 742 166.7 Q 739.2 166.7 736.65 166 Q 734.1 165.3 731.8 162.8 Q 729.5 160.3 729.5 156.4 Z " fill="black"/>
    <rect x="759" y="25.5" width="3" height="127.5" stroke="lightgray" stroke-width="1" fill="none"/>
    <rect x="759" y="25.5" width="3" height="127.5" fill="black"/>
    <ellipse cx="734.5" cy="364" rx="5" ry="5" stroke="gray" stroke-width="1" fill="none"/>
    <rect x="818.5" y="123" width="10" height="10" stroke="orange" stroke-width="1" fill="none"/>
    <rect x="818.5" y="354" width="10" height="10" stroke="orange" stroke-width="1" fill="none"/>
    <rect x="0" y="0" width="829" height="400.2" stroke="black" stroke-width="1" fill="none"/>
</svg>
