<svg xmlns="http://www.w3.org/2000/svg" xmlns:xlink="http://www.w3.org/1999/xlink" viewBox="0 0 872 243.5">
    <rect x="30.500002" y="110.5" width="10" height="10" stroke="orange" stroke-width="1" fill="none"/>
    <rect x="30.500002" y="153" width="32.5" height="25" stroke="red" stroke-width="1" fill="none"/>
    <path d="M 30.500002 168.9 Q 30.500002 162.9 37.100002 157.35 Q 43.7 151.8 50.600002 151.8 Q 53.4 151.8 55.950005 152.5 Q 58.5 153.2 60.800003 155.7 Q 63.100006 158.2 63.100006 162.1 Q 63.100006 167.6 56.4 173.4 Q 49.700005 179.2 43 179.2 Q 40.2 179.2 37.65 178.5 Q 35.100002 177.8 32.800003 175.3 Q 30.500002 172.8 30.500002 168.9 Z " fill="black"/>
    <rect x="0.5" y="128" width="30.000002" height="75" stroke="red" stroke-width="1" fill="none"/>
    <path d="M 22.1 155.9 L 22.1 168.1 Q 22.1 168.9 22.6 169.4 Q 23.1 169.9 23.9 169.9 Q 24.2 169.9 24.5 169.8 L 25.300001 169.5 Q 25.6 169.4 26 169.4 Q 26.800001 169.4 27.4 170 Q 28 170.6 28 171.4 L 28 177.4 Q 28 178.7 26.7 179.2 L 23.300001 180.5 Q 22.1 181 22.1 182.1 L 22.1 196.7 Q 22.1 197.5 21.550001 198.05 Q 21 198.6 20.300001 198.6 Q 19.5 198.6 18.95 198.05 Q 18.4 197.5 18.4 196.7 L 18.4 184.8 Q 18.4 184 17.85 183.5 Q 17.300001 183 16.6 183 Q 16.2 183 15.900001 183.1 L 11.300001 184.9 Q 10.1 185.3 10.1 186.5 L 10.1 201.1 Q 10.1 201.9 9.5 202.45 Q 8.9 203 8.200001 203 Q 7.5 203 6.950001 202.45 Q 6.3999996 201.9 6.3999996 201.1 L 6.3999996 189.2 Q 6.3999996 188.4 5.8500004 187.9 Q 5.300001 187.4 4.6000004 187.4 Q 4.299999 187.4 4 187.5 L 3.2000008 187.8 Q 3 187.9 2.5 187.9 Q 1.7000008 187.9 1.1000004 187.3 Q 0.5 186.7 0.5 185.9 L 0.5 179.9 Q 0.5 178.5 1.7999992 178 L 5.200001 176.8 Q 6.3999996 176.5 6.3999996 175.1 L 6.3999996 162.9 Q 6.3999996 162.1 5.8500004 161.6 Q 5.300001 161.1 4.6000004 161.1 Q 4.299999 161.1 4.1000004 161.2 L 3.2000008 161.5 Q 3 161.6 2.5 161.6 Q 1.7000008 161.6 1.1000004 161 Q 0.5 160.4 0.5 159.6 L 0.5 153.6 Q 0.5 152.3 1.7999992 151.8 L 5.300001 150.5 Q 6.3999996 150 6.3999996 148.9 L 6.3999996 134.3 Q 6.3999996 133.5 6.950001 132.95 Q 7.5 132.4 8.200001 132.4 Q 8.9 132.4 9.5 132.95 Q 10.1 133.5 10.1 134.3 L 10.1 146.2 Q 10.1 147 10.65 147.5 Q 11.199999 148 12 148 Q 12.300001 148 12.6 147.9 L 17.2 146.1 Q 18.4 145.6 18.4 144.4 L 18.4 129.9 Q 18.4 129.1 18.95 128.55 Q 19.5 128 20.300001 128 Q 21 128 21.550001 128.55 Q 22.1 129.1 22.1 129.9 L 22.1 141.9 Q 22.1 142.6 22.6 143.1 Q 23.1 143.6 23.800001 143.6 Q 24.1 143.6 24.5 143.5 L 25.300001 143.2 Q 25.5 143.1 26 143.1 Q 26.800001 143.1 27.4 143.7 Q 28 144.3 28 145.1 L 28 151.1 Q 28 152.5 26.7 153 L 23.300001 154.2 Q 22.1 154.5 22.1 155.9 Z M 18.4 170.7 L 18.4 158.6 Q 18.4 157.9 17.85 157.35 Q 17.300001 156.8 16.6 156.8 Q 16.3 156.8 16 156.9 L 11.300001 158.6 Q 10.1 159.1 10.1 160.3 L 10.1 172.4 Q 10.1 173.2 10.6 173.7 Q 11.1 174.2 11.9 174.2 Q 12.199999 174.2 12.5 174.1 L 17.2 172.4 Q 18.4 171.9 18.4 170.7 Z " fill="black"/>
    <rect x="60" y="38" width="3" height="127.5" stroke="red" stroke-width="1" fill="none"/>
    <rect x="60" y="38" width="3" height="127.5" fill="black"/>
    <rect x="30.500002" y="25.5" width="50" height="25" stroke="red" stroke-width="1" fill="none"/>
    <rect x="115.5" y="103" width="32.5" height="25" stroke="red" stroke-width="1" fill="none"/>
    <path d="M 115.5 118.9 Q 115.5 112.9 122.1 107.35 Q 128.7 101.8 135.6 101.8 Q 138.40001 101.8 140.95 102.5 Q 143.5 103.2 145.8 105.7 Q 148.1 108.2 148.1 112.1 Q 148.1 117.6 141.40001 123.4 Q 134.7 129.2 128 129.2 Q 125.2 129.2 122.65 128.5 Q 120.1 127.8 117.8 125.3 Q 115.5 122.8 115.5 118.9 Z " fill="black"/>
    <rect x="145" y="13" width="3" height="102.5" stroke="red" stroke-width="1" fill="none"/>
    <rect x="145" y="13" width="3" height="102.5" fill="black"/>
    <rect x="115.5" y="0.5" width="32.5" height="25" stroke="red" stroke-width="1" fill="none"/>
    <rect x="200.5" y="53" width="32.5" height="25" stroke="red" stroke-width="1" fill="none"/>
    <path d="M 200.5 68.9 Q 200.5 62.9 207.1 57.35 Q 213.7 51.8 220.6 51.8 Q 223.4 51.8 225.95 52.5 Q 228.5 53.2 230.8 55.7 Q 233.1 58.2 233.1 62.1 Q 233.1 67.6 226.4 73.4 Q 219.7 79.2 213 79.2 Q 210.2 79.2 207.65 78.5 Q 205.1 77.8 202.8 75.3 Q 200.5 72.8 200.5 68.9 Z " fill="black"/>
    <rect x="200.5" y="65.5" width="3" height="140" stroke="red" stroke-width="1" fill="none"/>
    <rect x="200.5" y="65.5" width="3" height="140" fill="black"/>
    <rect x="200.5" y="193" width="50" height="25" stroke="red" stroke-width="1" fill="none"/>
    <rect x="285.5" y="115.5" width="32.5" height="25" stroke="red" stroke-width="1" fill="none"/>
    <path d="M 285.5 131.4 Q 285.5 125.4 292.1 119.85 Q 298.7 114.3 305.6 114.3 Q 308.4 114.3 310.95 115 Q 313.5 115.7 315.8 118.2 Q 318.1 120.7 318.1 124.6 Q 318.1 130.1 311.4 135.9 Q 304.7 141.7 298 141.7 Q 295.2 141.7 292.65 141 Q 290.1 140.3 287.8 137.8 Q 285.5 135.3 285.5 131.4 Z " fill="black"/>
    <rect x="285.5" y="128" width="3" height="102.5" stroke="red" stroke-width="1" fill="none"/>
    <rect x="285.5" y="128" width="3" height="102.5" fill="black"/>
    <rect x="285.5" y="218" width="32.5" height="25" stroke="red" stroke-width="1" fill="none"/>
    <rect x="370.5" y="153" width="32.5" height="25" stroke="red" stroke-width="1" fill="none"/>
    <path d="M 370.5 168.9 Q 370.5 162.9 377.1 157.35 Q 383.7 151.8 390.6 151.8 Q 393.4 151.8 395.95 152.5 Q 398.5 153.2 400.8 155.7 Q 403.1 158.2 403.1 162.1 Q 403.1 167.6 396.4 173.4 Q 389.7 179.2 383 179.2 Q 380.2 179.2 377.65 178.5 Q 375.1 177.8 372.8 175.3 Q 370.5 172.8 370.5 168.9 Z " fill="black"/>
    <rect x="400" y="50.5" width="3" height="115" stroke="red" stroke-width="1" fill="none"/>
    <rect x="400" y="50.5" width="3" height="115" fill="black"/>
    <rect x="370.5" y="38" width="50" height="25" stroke="red" stroke-width="1" fill="none"/>
    <rect x="438.5" y="140.5" width="32.5" height="25" stroke="red" stroke-width="1" fill="none"/>
    <path d="M 438.5 156.4 Q 438.5 150.4 445.1 144.85 Q 451.7 139.3 458.6 139.3 Q 461.4 139.3 463.95 140 Q 466.5 140.7 468.8 143.2 Q 471.1 145.7 471.1 149.6 Q 471.1 155.1 464.4 160.9 Q 457.7 166.7 451 166.7 Q 448.2 166.7 445.65 166 Q 443.1 165.3 440.8 162.8 Q 438.5 160.3 438.5 156.4 Z " fill="black"/>
    <rect x="506.5" y="165.5" width="32.5" height="25" stroke="red" stroke-width="1" fill="none"/>
    <path d="M 506.5 181.4 Q 506.5 175.4 513.10004 169.85 Q 519.7 164.3 526.60004 164.3 Q 529.4 164.3 531.95 165 Q 534.5 165.7 536.8 168.2 Q 539.10004 170.7 539.10004 174.6 Q 539.10004 180.1 532.4 185.9 Q 525.7 191.7 519 191.7 Q 516.2 191.7 513.65 191 Q 511.1 190.3 508.8 187.8 Q 506.5 185.3 506.5 181.4 Z " fill="black"/>
    <rect x="506.5" y="140.5" width="32.5" height="25" stroke="red" stroke-width="1" fill="none"/>
    <path d="M 506.5 156.4 Q 506.5 150.4 513.10004 144.85 Q 519.7 139.3 526.60004 139.3 Q 529.4 139.3 531.95 140 Q 534.5 140.7 536.8 143.2 Q 539.10004 145.7 539.10004 149.6 Q 539.10004 155.1 532.4 160.9 Q 525.7 166.7 519 166.7 Q 516.2 166.7 513.65 166 Q 511.1 165.3 508.8 162.8 Q 506.5 160.3 506.5 156.4 Z " fill="black"/>
    <rect x="574.5" y="115.5" width="32.5" height="25" stroke="red" stroke-width="1" fill="none"/>
    <path d="M 574.5 131.4 Q 574.5 125.4 581.1 119.85 Q 587.7 114.3 594.6 114.3 Q 597.4 114.3 599.95 115 Q 602.5 115.7 604.8 118.2 Q 607.1 120.7 607.1 124.6 Q 607.1 130.1 600.4 135.9 Q 593.7 141.7 587 141.7 Q 584.2 141.7 581.65 141 Q 579.1 140.3 576.8 137.8 Q 574.5 135.3 574.5 131.4 Z " fill="black"/>
    <rect x="604" y="25.5" width="3" height="102.5" stroke="red" stroke-width="1" fill="none"/>
    <rect x="604" y="25.5" width="3" height="102.5" fill="black"/>
    <rect x="574.5" y="13" width="32.5" height="25" stroke="red" stroke-width="1" fill="none"/>
    <rect x="642.5" y="65.5" width="32.5" height="25" stroke="red" stroke-width="1" fill="none"/>
    <path d="M 642.5 81.4 Q 642.5 75.4 649.1 69.85 Q 655.7 64.3 662.6 64.3 Q 665.4 64.3 667.95 65 Q 670.5 65.7 672.8 68.2 Q 675.1 70.7 675.1 74.6 Q 675.1 80.1 668.4 85.9 Q 661.7 91.7 655 91.7 Q 652.2 91.7 649.65 91 Q 647.1 90.3 644.8 87.8 Q 642.5 85.3 642.5 81.4 Z " fill="black"/>
    <rect x="642.5" y="78" width="3" height="102.5" stroke="red" stroke-width="1" fill="none"/>
    <rect x="642.5" y="78" width="3" height="102.5" fill="black"/>
    <rect x="642.5" y="168" width="50" height="25" stroke="red" stroke-width="1" fill="none"/>
    <rect x="715.5" y="28" width="32.5" height="25" stroke="red" stroke-width="1" fill="none"/>
    <path d="M 715.5 43.9 Q 715.5 37.9 722.1 32.35 Q 728.7 26.800003 735.6 26.800003 Q 738.4 26.800003 740.95 27.5 Q 743.5 28.199997 745.8 30.699997 Q 748.1 33.199997 748.1 37.1 Q 748.1 42.6 741.4 48.4 Q 734.7 54.2 728 54.2 Q 725.2 54.2 722.65 53.5 Q 720.1 52.8 717.8 50.300003 Q 715.5 47.800003 715.5 43.9 Z " fill="black"/>
    <rect x="715.5" y="53" width="32.5" height="25" stroke="red" stroke-width="1" fill="none"/>
    <path d="M 715.5 68.9 Q 715.5 62.9 722.1 57.35 Q 728.7 51.8 735.6 51.8 Q 738.4 51.8 740.95 52.5 Q 743.5 53.2 745.8 55.7 Q 748.1 58.2 748.1 62.1 Q 748.1 67.6 741.4 73.4 Q 734.7 79.2 728 79.2 Q 725.2 79.2 722.65 78.5 Q 720.1 77.8 717.8 75.3 Q 715.5 72.8 715.5 68.9 Z " fill="black"/>
    <rect x="788.5" y="40.5" width="32.5" height="25" stroke="red" stroke-width="1" fill="none"/>
    <path d="M 788.5 56.4 Q 788.5 50.4 795.1 44.85 Q 801.7 39.300003 808.6 39.300003 Q 811.4 39.300003 813.95 40 Q 816.5 40.699997 818.8 43.199997 Q 821.1 45.699997 821.1 49.6 Q 821.1 55.1 814.4 60.9 Q 807.7 66.7 801 66.7 Q 798.2 66.7 795.65 66 Q 793.1 65.3 790.8 62.8 Q 788.5 60.3 788.5 56.4 Z " fill="black"/>
    <rect x="788.5" y="53" width="3" height="115" stroke="red" stroke-width="1" fill="none"/>
    <rect x="788.5" y="53" width="3" height="115" fill="black"/>
    <rect x="788.5" y="155.5" width="32.5" height="25" stroke="red" stroke-width="1" fill="none"/>
    <rect x="861.5" y="110.5" width="10" height="10" stroke="orange" stroke-width="1" fill="none"/>
    <rect x="55" y="110.5" width="10" height="10" fill="lime"/>
    <rect x="55" y="33" width="10" height="10" fill="orange"/>
    <rect x="55" y="160.5" width="10" height="10" fill="purple"/>
    <rect x="60" y="38" width="3" height="127.5" fill="blue"/>
    <rect x="140" y="110.5" width="10" height="10" fill="red"/>
    <rect x="140" y="8" width="10" height="10" fill="orange"/>
    <rect x="140" y="110.5" width="10" height="10" fill="purple"/>
    <rect x="145" y="13" width="3" height="102.5" fill="blue"/>
    <path d="M 60 38 L 148 13 L 148 15 L 60 40 Z " fill="red"/>
    <path d="M 60 37 L 148 12 L 148 14 L 60 39 Z " fill="black"/>
    <rect x="195.5" y="110.5" width="10" height="10" fill="lime"/>
    <rect x="195.5" y="200.5" width="10" height="10" fill="orange"/>
    <rect x="195.5" y="60.5" width="10" height="10" fill="purple"/>
    <rect x="200.5" y="65.5" width="3" height="140" fill="blue"/>
    <rect x="280.5" y="110.5" width="10" height="10" fill="red"/>
    <rect x="280.5" y="225.5" width="10" height="10" fill="orange"/>
    <rect x="280.5" y="123" width="10" height="10" fill="purple"/>
    <rect x="285.5" y="128" width="3" height="102.5" fill="blue"/>
    <path d="M 200.5 205.5 L 288.5 230.5 L 288.5 232.5 L 200.5 207.5 Z " fill="red"/>
    <path d="M 200.5 204.5 L 288.5 229.5 L 288.5 231.5 L 200.5 206.5 Z " fill="black"/>
    <rect x="395" y="110.5" width="10" height="10" fill="lime"/>
    <rect x="395" y="45.5" width="10" height="10" fill="orange"/>
    <rect x="395" y="160.5" width="10" height="10" fill="purple"/>
    <rect x="400" y="50.5" width="3" height="115" fill="blue"/>
    <rect x="599" y="110.5" width="10" height="10" fill="red"/>
    <rect x="599" y="20.5" width="10" height="10" fill="orange"/>
    <rect x="599" y="123" width="10" height="10" fill="purple"/>
    <rect x="604" y="25.5" width="3" height="102.5" fill="blue"/>
    <path d="M 400 50.5 L 607 25.5 L 607 27.5 L 400 52.5 Z " fill="red"/>
    <rect x="463" y="110.5" width="10" height="10" fill="orange"/>
    <rect x="531" y="110.5" width="10" height="10" fill="orange"/>
    <path d="M 400 49.5 L 607 24.5 L 607 26.5 L 400 51.5 Z " fill="black"/>
    <rect x="465" y="42.534317" width="3" height="110.46568" fill="black"/>
    <rect x="533" y="34.20098" width="3" height="143.79901" fill="black"/>
    <rect x="637.5" y="110.5" width="10" height="10" fill="lime"/>
    <rect x="637.5" y="175.5" width="10" height="10" fill="orange"/>
    <rect x="637.5" y="73" width="10" height="10" fill="purple"/>
    <rect x="642.5" y="78" width="3" height="102.5" fill="blue"/>
    <rect x="783.5" y="110.5" width="10" height="10" fill="red"/>
    <rect x="783.5" y="163" width="10" height="10" fill="orange"/>
    <rect x="783.5" y="48" width="10" height="10" fill="purple"/>
    <rect x="788.5" y="53" width="3" height="115" fill="blue"/>
    <path d="M 642.5 180.5 L 791.5 168 L 791.5 170 L 642.5 182.5 Z " fill="red"/>
    <rect x="710.5" y="110.5" width="10" height="10" fill="orange"/>
    <path d="M 642.5 179.5 L 791.5 167 L 791.5 169 L 642.5 181.5 Z " fill="black"/>
    <rect x="715.5" y="40.5" width="3" height="133.75" fill="black"/>
    <rect x="0" y="0" width="872" height="243.5" stroke="black" stroke-width="1" fill="none"/>
</svg>
