<svg xmlns="http://www.w3.org/2000/svg" xmlns:xlink="http://www.w3.org/1999/xlink" viewBox="0 0 678 301.45">
    <rect x="0.5" y="29.25" width="5" height="80" stroke="orange" stroke-width="1" fill="none"/>
    <rect x="0.5" y="220.25" width="5" height="80" stroke="orange" stroke-width="1" fill="none"/>
    <rect x="5.5" y="19.25" width="40" height="100" stroke="orange" stroke-width="1" fill="none"/>
    <ellipse cx="10.5" cy="265.25" rx="5" ry="5" stroke="gray" stroke-width="1" fill="none"/>
    <rect x="76.75" y="0.5" width="2.5" height="87.5" stroke="blue" stroke-width="1" fill="none"/>
    <rect x="45.5" y="81.75" width="33.75" height="25" stroke="blue" stroke-width="1" fill="none"/>
    <rect x="76.75" y="0.5" width="2.5" height="87.5" fill="black"/>
    <path d="M 70.4 84.15 Q 67.5 84.15 58.15 90.7 Q 48.8 97.25 48.8 100.25 Q 48.8 102.35 50.6 103.35 Q 52.4 104.35 54.9 104.35 Q 57.8 104.35 67.15 97.8 Q 76.5 91.25 76.5 88.25 Q 76.5 86.15 74.7 85.15 Q 72.9 84.15 70.4 84.15 Z M 45.5 98.05 Q 45.5 90.85 51.7 85.7 Q 57.9 80.55 66.7 80.55 Q 69.7 80.55 72.3 81.15 Q 74.9 81.75 77.3 84.15 Q 79.7 86.55 79.7 90.45 Q 79.7 97.65 73.5 102.8 Q 67.3 107.95 58.5 107.95 Q 55.5 107.95 52.9 107.35 Q 50.3 106.75 47.9 104.35 Q 45.5 101.95 45.5 98.05 Z " fill="black"/>
    <rect x="10.239998" y="219.55" width="31.84" height="81.399994" stroke="blue" stroke-width="1" fill="none"/>
    <rect x="42.079998" y="219.55" width="31.84" height="81.399994" stroke="blue" stroke-width="1" fill="none"/>
    <rect x="73.92" y="219.55" width="31.84" height="81.399994" stroke="blue" stroke-width="1" fill="none"/>
    <path d="M 19.599998 277.07 Q 18.159998 277.07 16.679998 275.95 Q 15.199998 274.83002 14.199998 273.22998 Q 13.199998 271.63 13.199998 270.19 Q 13.199998 267.63 14.559998 266.19 Q 15.919998 264.75 18.879997 263.55 L 27.039997 260.19 Q 28.639997 259.55 28.919998 259.07 Q 29.199997 258.59 29.279997 256.99 L 29.439997 251.87 Q 29.519997 249.79 28.279997 248.26999 Q 27.039997 246.75 24.719997 246.75 Q 23.519997 246.75 22.319998 247.15 Q 21.119999 247.55 20.319998 248.19 Q 19.839996 248.51 19.679996 249.15 Q 19.519997 249.79 19.519997 250.51 Q 19.519997 250.83 19.559998 251.23 Q 19.599998 251.63 19.599998 251.95 Q 19.599998 252.34999 18.599998 253.03 Q 17.599998 253.70999 16.359997 254.23 Q 15.119998 254.75 14.319998 254.75 Q 13.919998 254.75 13.679997 254.55 Q 13.439998 254.34999 13.439998 254.03 Q 13.439998 252.75 14.279998 251.26999 Q 15.119998 249.79 16.639997 248.51 Q 18.479998 246.83 20.639997 245.55 Q 22.799997 244.27 24.879997 243.55 Q 26.959997 242.83 28.559998 242.83 Q 31.439997 242.83 33.32 244.87 Q 35.199997 246.91 35.119995 249.95 L 34.719997 269.15 Q 34.64 270.83002 35.479996 271.87 Q 36.32 272.91 37.6 272.91 Q 39.6 272.91 40.559998 272.03 Q 40.96 271.63 41.199997 271.63 Q 41.6 271.63 41.839996 271.87 Q 42.079998 272.11 42.079998 272.51 Q 42.079998 273.39 41.199997 274.27002 Q 39.92 275.55 38.439995 276.31 Q 36.96 277.07 35.679996 277.07 Q 31.999998 277.07 29.839998 272.91 L 29.599997 272.91 Q 26.959997 275.07 24.559998 276.07 Q 22.159998 277.07 19.599998 277.07 Z M 23.359997 273.22998 Q 24.959997 273.22998 26.079998 272.71 Q 27.199997 272.19 28.079998 271.31 Q 28.479998 270.91 28.759998 270.22998 Q 29.039997 269.55 29.119997 268.03 L 29.279997 264.11 Q 29.359997 263.22998 29.199997 262.83002 Q 29.039997 262.43 28.559998 262.43 Q 28.399998 262.43 27.999998 262.51 Q 27.599997 262.59 26.959997 262.83002 Q 22.719997 264.34998 21.079998 265.99 Q 19.439999 267.63 19.439999 268.99 Q 19.439999 271.07 20.679996 272.15 Q 21.919998 273.22998 23.359997 273.22998 Z " fill="black"/>
    <path d="M 51.44 277.07 Q 49.999996 277.07 48.519997 275.95 Q 47.039997 274.83002 46.039997 273.22998 Q 45.039997 271.63 45.039997 270.19 Q 45.039997 267.63 46.399998 266.19 Q 47.76 264.75 50.719997 263.55 L 58.879997 260.19 Q 60.479996 259.55 60.76 259.07 Q 61.039997 258.59 61.119995 256.99 L 61.28 251.87 Q 61.359997 249.79 60.119995 248.26999 Q 58.879997 246.75 56.559998 246.75 Q 55.359997 246.75 54.159996 247.15 Q 52.96 247.55 52.159996 248.19 Q 51.679996 248.51 51.519997 249.15 Q 51.359997 249.79 51.359997 250.51 Q 51.359997 250.83 51.399998 251.23 Q 51.44 251.63 51.44 251.95 Q 51.44 252.34999 50.44 253.03 Q 49.44 253.70999 48.199997 254.23 Q 46.96 254.75 46.159996 254.75 Q 45.76 254.75 45.519997 254.55 Q 45.28 254.34999 45.28 254.03 Q 45.28 252.75 46.12 251.26999 Q 46.96 249.79 48.479996 248.51 Q 50.32 246.83 52.479996 245.55 Q 54.64 244.27 56.719997 243.55 Q 58.799995 242.83 60.399998 242.83 Q 63.28 242.83 65.159996 244.87 Q 67.03999 246.91 66.96 249.95 L 66.56 269.15 Q 66.479996 270.83002 67.32 271.87 Q 68.159996 272.91 69.439995 272.91 Q 71.439995 272.91 72.399994 272.03 Q 72.799995 271.63 73.03999 271.63 Q 73.439995 271.63 73.67999 271.87 Q 73.92 272.11 73.92 272.51 Q 73.92 273.39 73.03999 274.27002 Q 71.759995 275.55 70.28 276.31 Q 68.799995 277.07 67.52 277.07 Q 63.839996 277.07 61.68 272.91 L 61.439995 272.91 Q 58.799995 275.07 56.399998 276.07 Q 54 277.07 51.44 277.07 Z M 55.199997 273.22998 Q 56.799995 273.22998 57.92 272.71 Q 59.039997 272.19 59.92 271.31 Q 60.32 270.91 60.6 270.22998 Q 60.879997 269.55 60.96 268.03 L 61.119995 264.11 Q 61.199997 263.22998 61.039997 262.83002 Q 60.879997 262.43 60.399998 262.43 Q 60.239998 262.43 59.839996 262.51 Q 59.439995 262.59 58.799995 262.83002 Q 54.559998 264.34998 52.92 265.99 Q 51.28 267.63 51.28 268.99 Q 51.28 271.07 52.519997 272.15 Q 53.76 273.22998 55.199997 273.22998 Z " fill="black"/>
    <path d="M 83.28 277.07 Q 81.84 277.07 80.36 275.95 Q 78.88 274.83002 77.88 273.22998 Q 76.88 271.63 76.88 270.19 Q 76.88 267.63 78.24 266.19 Q 79.6 264.75 82.56 263.55 L 90.72 260.19 Q 92.32 259.55 92.6 259.07 Q 92.88 258.59 92.96 256.99 L 93.119995 251.87 Q 93.2 249.79 91.96 248.26999 Q 90.72 246.75 88.399994 246.75 Q 87.2 246.75 86 247.15 Q 84.799995 247.55 84 248.19 Q 83.52 248.51 83.36 249.15 Q 83.2 249.79 83.2 250.51 Q 83.2 250.83 83.24 251.23 Q 83.28 251.63 83.28 251.95 Q 83.28 252.34999 82.28 253.03 Q 81.28 253.70999 80.04 254.23 Q 78.799995 254.75 78 254.75 Q 77.6 254.75 77.36 254.55 Q 77.119995 254.34999 77.119995 254.03 Q 77.119995 252.75 77.96 251.26999 Q 78.799995 249.79 80.32 248.51 Q 82.159996 246.83 84.32 245.55 Q 86.479996 244.27 88.56 243.55 Q 90.64 242.83 92.24 242.83 Q 95.119995 242.83 97 244.87 Q 98.88 246.91 98.799995 249.95 L 98.399994 269.15 Q 98.32 270.83002 99.159996 271.87 Q 100 272.91 101.28 272.91 Q 103.28 272.91 104.24 272.03 Q 104.64 271.63 104.88 271.63 Q 105.28 271.63 105.52 271.87 Q 105.759995 272.11 105.759995 272.51 Q 105.759995 273.39 104.88 274.27002 Q 103.6 275.55 102.119995 276.31 Q 100.64 277.07 99.36 277.07 Q 95.68 277.07 93.52 272.91 L 93.28 272.91 Q 90.64 275.07 88.24 276.07 Q 85.84 277.07 83.28 277.07 Z M 87.04 273.22998 Q 88.64 273.22998 89.759995 272.71 Q 90.88 272.19 91.759995 271.31 Q 92.159996 270.91 92.44 270.22998 Q 92.72 269.55 92.799995 268.03 L 92.96 264.11 Q 93.03999 263.22998 92.88 262.83002 Q 92.72 262.43 92.24 262.43 Q 92.08 262.43 91.68 262.51 Q 91.28 262.59 90.64 262.83002 Q 86.399994 264.34998 84.759995 265.99 Q 83.119995 267.63 83.119995 268.99 Q 83.119995 271.07 84.36 272.15 Q 85.6 273.22998 87.04 273.22998 Z " fill="black"/>
    <rect x="229.5" y="81.75" width="2.5" height="87.5" stroke="blue" stroke-width="1" fill="none"/>
    <rect x="229.5" y="69.25" width="32.5" height="25" stroke="blue" stroke-width="1" fill="none"/>
    <rect x="229.5" y="81.75" width="2.5" height="87.5" fill="black"/>
    <path d="M 229.5 85.15 Q 229.5 79.15 236.1 73.6 Q 242.7 68.05 249.6 68.05 Q 252.4 68.05 254.95 68.75 Q 257.5 69.45 259.8 71.95 Q 262.1 74.45 262.1 78.35 Q 262.1 83.85 255.4 89.65 Q 248.7 95.45 242 95.45 Q 239.2 95.45 236.65 94.75 Q 234.1 94.05 231.8 91.55 Q 229.5 89.05 229.5 85.15 Z " fill="black"/>
    <rect x="222.8" y="219.55" width="38.399998" height="81.399994" stroke="blue" stroke-width="1" fill="none"/>
    <path d="M 243.52 277.07 Q 241.76001 277.07 240 276.75 Q 238.24 276.43 236.64 276.03 Q 234.88 275.55 233.56 275.15 Q 232.24 274.75 231.84 274.75 Q 231.36 274.75 230.92 275.07 Q 230.48 275.39 230.08 275.78998 Q 229.68001 276.19 229.36 276.19 Q 229.04001 276.19 228.64 275.91 Q 228.24 275.63 228.24 275.22998 Q 228.24 274.51 228.52 272.75 Q 228.8 270.99 228.8 269.47 L 228.8 230.67 Q 228.8 228.59 227.76001 227.07 Q 226.72 225.55 225.12001 224.83 Q 224.8 224.67 224.44 224.39 Q 224.08 224.11 224.08 223.63 Q 224.08 223.23 224.40001 223.07 Q 224.72 222.91 225.04001 222.83 Q 226.08 222.59 227.88 221.95 Q 229.68001 221.31 231.28 220.67 Q 232.88 220.03 233.44 219.79 Q 233.92 219.55 234.16 219.55 Q 234.32 219.55 234.48 219.70999 Q 234.64 219.87 234.64 220.11 Q 234.64 220.43 234.52 222.79 Q 234.40001 225.15 234.40001 228.51 L 234.40001 244.91 Q 234.40001 246.43 234.56 246.95 Q 234.72 247.47 235.12 247.55 Q 237.6 245.47 240.88 244.15 Q 244.16 242.83 246.8 242.83 Q 250.88 242.83 254.12 244.91 Q 257.36 246.98999 259.28 250.55 Q 261.2 254.11 261.2 258.59 Q 261.2 264.03 258.96 268.22998 Q 256.72 272.43 252.76001 274.75 Q 248.8 277.07 243.52 277.07 Z M 245.36 274.59 Q 248.4 274.59 250.6 272.71 Q 252.8 270.83002 254 267.59 Q 255.2 264.34998 255.2 260.34998 Q 255.2 257.22998 254.04001 253.95 Q 252.88 250.67 250.44 248.43 Q 248 246.19 244.16 246.19 Q 240.96 246.19 238.56 247.23 Q 236.16 248.26999 234.40001 249.87 L 234.40001 265.39 Q 234.40001 268.19 235.96 270.27002 Q 237.52 272.34998 240.04001 273.47 Q 242.56 274.59 245.36 274.59 Z " fill="black"/>
    <rect x="321.5" y="69.25" width="2.5" height="87.5" stroke="blue" stroke-width="1" fill="none"/>
    <rect x="321.5" y="56.75" width="32.5" height="25" stroke="blue" stroke-width="1" fill="none"/>
    <rect x="321.5" y="69.25" width="2.5" height="87.5" fill="black"/>
    <path d="M 321.5 72.65 Q 321.5 66.65 328.1 61.1 Q 334.7 55.55 341.6 55.55 Q 344.4 55.55 346.95 56.25 Q 349.5 56.95 351.8 59.45 Q 354.1 61.95 354.1 65.85 Q 354.1 71.35 347.4 77.15 Q 340.7 82.95 334 82.95 Q 331.2 82.95 328.65 82.25 Q 326.1 81.55 323.8 79.05 Q 321.5 76.55 321.5 72.65 Z " fill="black"/>
    <ellipse cx="326.5" cy="265.25" rx="5" ry="5" stroke="gray" stroke-width="1" fill="none"/>
    <rect x="395.5" y="31.75" width="2.5" height="87.5" stroke="blue" stroke-width="1" fill="none"/>
    <rect x="395.5" y="19.25" width="32.5" height="25" stroke="blue" stroke-width="1" fill="none"/>
    <rect x="395.5" y="31.75" width="2.5" height="87.5" fill="black"/>
    <path d="M 395.5 35.15 Q 395.5 29.150002 402.1 23.599998 Q 408.7 18.05 415.6 18.05 Q 418.4 18.05 420.95 18.75 Q 423.5 19.45 425.8 21.95 Q 428.1 24.45 428.1 28.349998 Q 428.1 33.85 421.4 39.65 Q 414.7 45.45 408 45.45 Q 405.2 45.45 402.65 44.75 Q 400.1 44.05 397.8 41.55 Q 395.5 39.05 395.5 35.15 Z " fill="black"/>
    <ellipse cx="400.5" cy="265.25" rx="5" ry="5" stroke="gray" stroke-width="1" fill="none"/>
    <rect x="488.5" y="44.25" width="2.5" height="100" stroke="blue" stroke-width="1" fill="none"/>
    <rect x="488.5" y="31.75" width="32.5" height="25" stroke="blue" stroke-width="1" fill="none"/>
    <rect x="456" y="44.25" width="32.5" height="25" stroke="blue" stroke-width="1" fill="none"/>
    <rect x="428.5" y="6.75" width="27.5" height="75" stroke="blue" stroke-width="1" fill="none"/>
    <rect x="488.5" y="44.25" width="2.5" height="100" fill="black"/>
    <path d="M 488.5 47.65 Q 488.5 41.65 495.1 36.1 Q 501.7 30.55 508.6 30.55 Q 511.4 30.55 513.95 31.25 Q 516.5 31.95 518.8 34.45 Q 521.1 36.95 521.1 40.85 Q 521.1 46.35 514.4 52.15 Q 507.7 57.95 501 57.95 Q 498.2 57.95 495.65 57.25 Q 493.1 56.55 490.8 54.05 Q 488.5 51.55 488.5 47.65 Z " fill="black"/>
    <path d="M 456 60.15 Q 456 54.15 462.6 48.6 Q 469.2 43.05 476.1 43.05 Q 478.9 43.05 481.45 43.75 Q 484 44.45 486.3 46.95 Q 488.6 49.45 488.6 53.35 Q 488.6 58.85 481.9 64.65 Q 475.2 70.45 468.5 70.45 Q 465.7 70.45 463.15 69.75 Q 460.6 69.05 458.3 66.55 Q 456 64.05 456 60.15 Z " fill="black"/>
    <path d="M 433.1 65.35 Q 433.1 66.55 434.1 66.95 Q 435.3 67.45 436.1 66.65 Q 442.7 60.65 442.7 53.05 Q 442.7 50.35 441.55 48.35 Q 440.4 46.35 438.4 46.35 Q 436.2 46.35 434.8 48.25 Q 433.4 50.15 433.3 52.65 L 433.1 65.35 Z M 435.9 43.25 Q 440.1 41.15 442.8 41.15 Q 446.6 41.15 448.9 44.15 Q 451.2 47.15 451.2 51.35 Q 451.2 54.25 450.35 56.6 Q 449.5 58.95 447.7 60.9 Q 445.9 62.85 444.35 64.15 Q 442.8 65.45 440.3 67.3 Q 437.8 69.15 436.5 70.25 Q 436 70.65 435.2 71.75 Q 434.4 72.85 433.65 73.45 Q 432.9 74.05 432 74.05 Q 431 74.05 430.35 73.35 Q 429.7 72.65 429.7 71.55 L 428.5 11.049999 Q 429.8 10.25 431.2 10.25 Q 432.6 10.25 433.9 11.049999 L 433.3 41.65 Q 433.3 42.65 434.1 43.15 Q 435 43.75 435.9 43.25 Z " fill="black"/>
    <ellipse cx="493.5" cy="265.25" rx="5" ry="5" stroke="gray" stroke-width="1" fill="none"/>
    <rect x="580.5" y="81.75" width="2.5" height="87.5" stroke="blue" stroke-width="1" fill="none"/>
    <rect x="580.5" y="69.25" width="32.5" height="25" stroke="blue" stroke-width="1" fill="none"/>
    <rect x="550.5" y="44.25" width="30.000002" height="75" stroke="blue" stroke-width="1" fill="none"/>
    <rect x="580.5" y="81.75" width="2.5" height="87.5" fill="black"/>
    <path d="M 580.5 85.15 Q 580.5 79.15 587.1 73.6 Q 593.7 68.05 600.6 68.05 Q 603.4 68.05 605.95 68.75 Q 608.5 69.45 610.8 71.95 Q 613.1 74.45 613.1 78.35 Q 613.1 83.85 606.4 89.65 Q 599.7 95.45 593 95.45 Q 590.2 95.45 587.65 94.75 Q 585.1 94.05 582.8 91.55 Q 580.5 89.05 580.5 85.15 Z " fill="black"/>
    <path d="M 572.1 72.15 L 572.1 84.35 Q 572.1 85.15 572.6 85.65 Q 573.1 86.15 573.9 86.15 Q 574.2 86.15 574.5 86.05 L 575.3 85.75 Q 575.6 85.65 576 85.65 Q 576.8 85.65 577.4 86.25 Q 578 86.85 578 87.65 L 578 93.65 Q 578 94.95 576.7 95.45 L 573.3 96.75 Q 572.1 97.25 572.1 98.35 L 572.1 112.95 Q 572.1 113.75 571.55 114.3 Q 571 114.850006 570.3 114.850006 Q 569.5 114.850006 568.95 114.3 Q 568.4 113.75 568.4 112.95 L 568.4 101.05 Q 568.4 100.25 567.85 99.75 Q 567.3 99.25 566.6 99.25 Q 566.2 99.25 565.9 99.35 L 561.3 101.15 Q 560.1 101.55 560.1 102.75 L 560.1 117.350006 Q 560.1 118.15 559.5 118.7 Q 558.9 119.25 558.2 119.25 Q 557.5 119.25 556.95 118.7 Q 556.4 118.15 556.4 117.350006 L 556.4 105.45 Q 556.4 104.65 555.85 104.15 Q 555.3 103.65 554.6 103.65 Q 554.3 103.65 554 103.75 L 553.2 104.05 Q 553 104.15 552.5 104.15 Q 551.7 104.15 551.1 103.55 Q 550.5 102.95 550.5 102.15 L 550.5 96.15 Q 550.5 94.75 551.8 94.25 L 555.2 93.05 Q 556.4 92.75 556.4 91.35 L 556.4 79.15 Q 556.4 78.35 555.85 77.85 Q 555.3 77.35 554.6 77.35 Q 554.3 77.35 554.1 77.45 L 553.2 77.75 Q 553 77.85 552.5 77.85 Q 551.7 77.85 551.1 77.25 Q 550.5 76.65 550.5 75.85 L 550.5 69.85 Q 550.5 68.55 551.8 68.05 L 555.3 66.75 Q 556.4 66.25 556.4 65.15 L 556.4 50.55 Q 556.4 49.75 556.95 49.2 Q 557.5 48.649998 558.2 48.649998 Q 558.9 48.649998 559.5 49.2 Q 560.1 49.75 560.1 50.55 L 560.1 62.449997 Q 560.1 63.25 560.65 63.75 Q 561.2 64.25 562 64.25 Q 562.3 64.25 562.6 64.15 L 567.2 62.35 Q 568.4 61.85 568.4 60.65 L 568.4 46.149998 Q 568.4 45.35 568.95 44.8 Q 569.5 44.25 570.3 44.25 Q 571 44.25 571.55 44.8 Q 572.1 45.35 572.1 46.149998 L 572.1 58.15 Q 572.1 58.85 572.6 59.35 Q 573.1 59.85 573.8 59.85 Q 574.1 59.85 574.5 59.75 L 575.3 59.449997 Q 575.5 59.35 576 59.35 Q 576.8 59.35 577.4 59.949997 Q 578 60.55 578 61.35 L 578 67.35 Q 578 68.75 576.7 69.25 L 573.3 70.45 Q 572.1 70.75 572.1 72.15 Z M 568.4 86.95 L 568.4 74.85 Q 568.4 74.15 567.85 73.6 Q 567.3 73.05 566.6 73.05 Q 566.3 73.05 566 73.15 L 561.3 74.85 Q 560.1 75.35 560.1 76.55 L 560.1 88.65 Q 560.1 89.45 560.6 89.95 Q 561.1 90.45 561.9 90.45 Q 562.2 90.45 562.5 90.35 L 567.2 88.65 Q 568.4 88.15 568.4 86.95 Z " fill="black"/>
    <ellipse cx="585.5" cy="265.25" rx="5" ry="5" stroke="gray" stroke-width="1" fill="none"/>
    <rect x="672.5" y="29.25" width="5" height="80" stroke="orange" stroke-width="1" fill="none"/>
    <rect x="672.5" y="220.25" width="5" height="80" stroke="orange" stroke-width="1" fill="none"/>
    <rect x="0" y="0" width="678" height="301.45" stroke="black" stroke-width="1" fill="none"/>
</svg>
