<svg xmlns="http://www.w3.org/2000/svg" xmlns:xlink="http://www.w3.org/1999/xlink" viewBox="0 0 811.5 358.7">
    <rect x="0.5" y="111.5" width="10" height="10" stroke="orange" stroke-width="1" fill="none"/>
    <path d="M 0.5 167.7 L 0.5 165.2 L 100.5 165.2 L 100.5 167.7 L 0.5 167.7 Z M 0.5 142.7 L 0.5 140.2 L 100.5 140.2 L 100.5 142.7 L 0.5 142.7 Z M 0.5 117.7 L 0.5 115.2 L 100.5 115.2 L 100.5 117.7 L 0.5 117.7 Z M 0.5 92.7 L 0.5 90.2 L 100.5 90.2 L 100.5 92.7 L 0.5 92.7 Z M 0.5 67.7 L 0.5 65.2 L 100.5 65.2 L 100.5 67.7 L 0.5 67.7 Z " fill="orange"/>
    <rect x="0.5" y="302.5" width="10" height="10" stroke="orange" stroke-width="1" fill="none"/>
    <path d="M 0.5 358.7 L 0.5 356.2 L 100.5 356.2 L 100.5 358.7 L 0.5 358.7 Z M 0.5 333.7 L 0.5 331.2 L 100.5 331.2 L 100.5 333.7 L 0.5 333.7 Z M 0.5 308.7 L 0.5 306.2 L 100.5 306.2 L 100.5 308.7 L 0.5 308.7 Z M 0.5 283.7 L 0.5 281.2 L 100.5 281.2 L 100.5 283.7 L 0.5 283.7 Z M 0.5 258.7 L 0.5 256.2 L 100.5 256.2 L 100.5 258.7 L 0.5 258.7 Z " fill="orange"/>
    <rect x="10.5" y="0.5" width="74" height="186" stroke="orange" stroke-width="1" fill="none"/>
    <path d="M 35.300003 59 Q 33 51.699997 32.1 46 Q 31.300001 41.199997 31.300001 34.799995 Q 31.300001 32.6 31.4 30.400002 Q 31.800001 20.900002 35.300003 12.949997 Q 38.800003 5 45.8 0.7999954 Q 46.3 0.5 47.100002 0.5 Q 47.8 0.5 48.3 1 Q 53.9 6.5999985 56.9 15.299995 Q 59.9 24 59.9 32.9 Q 59.9 43.199997 55.5 53.1 Q 51.3 63 43.7 70.6 Q 43.100002 71.2 43.3 72.2 L 47.3 88.2 Q 47.600002 89.8 49.3 89.6 Q 50.9 89.4 52.4 89.4 Q 58.2 89.4 62.9 91.7 Q 67.600006 94 70.5 97.7 Q 73.4 101.4 74.950005 105.85 Q 76.5 110.3 76.5 115 Q 76.5 123.6 71.7 130.55 Q 66.9 137.5 60.2 139.7 Q 58.8 140.2 59.100002 141.8 Q 61.600002 153.6 61.7 161.7 Q 61.7 164.8 61.3 167.8 Q 60.5 174.7 55.3 179.9 Q 50.100002 185.1 42.9 185.1 Q 34.1 185.1 28 179.8 Q 21.900002 174.5 21.900002 165.9 Q 21.900002 161.5 25 158.3 Q 28.1 155.1 32.300003 155.1 Q 36.6 155.1 39.550003 158.15 Q 42.5 161.2 42.5 165.4 Q 42.5 169 40.1 171.7 Q 37.7 174.5 34.300003 174.8 Q 33.1 174.9 32.7 176 Q 32.300003 177.1 33.5 178 Q 37.1 180.8 42.300003 180.8 Q 48 180.8 52.15 176.7 Q 56.3 172.6 57 167.4 Q 57.5 163.8 57.5 160.2 Q 57.5 152.4 55.100002 142.9 Q 54.7 141.2 52.9 141.4 Q 48.9 141.9 45.5 141.9 Q 30.7 141.9 20.6 132.6 Q 10.5 123.3 10.5 107.3 Q 10.5 102.4 11.65 97.65 Q 12.8 92.9 14.25 89.45 Q 15.700001 86 18.75 81.45 Q 21.8 76.899994 23.650002 74.5 Q 25.5 72.1 29.5 67.35 Q 33.5 62.6 35 60.7 Q 35.6 60 35.300003 59 Z M 50.9 104.7 L 57.4 134.2 Q 57.7 135.5 59.2 135.5 Q 59.600002 135.5 59.9 135.4 Q 64 133.7 66.7 128.8 Q 69.4 123.9 69.4 119.1 Q 69.4 112.1 65.3 107.3 Q 61.100002 102.4 52.7 102.4 Q 52 102.4 51.45 102.95 Q 50.9 103.5 50.9 104.2 Q 50.8 104.5 50.9 104.7 Z M 37.1 76.899994 Q 35.5 78.7 32.35 82.05 Q 29.2 85.4 27.65 87.15 Q 26.1 88.9 23.85 92.1 Q 21.6 95.3 20.5 98 Q 19.400002 100.7 18.55 104.6 Q 17.7 108.5 17.7 112.9 Q 17.7 119 21.45 124.7 Q 25.2 130.4 31.75 134 Q 38.300003 137.6 45.8 137.6 Q 48.5 137.6 51.8 137.3 Q 52.600002 137.2 53.100002 136.55 Q 53.600002 135.9 53.4 135.1 L 46.9 105.2 Q 46.600002 103.8 45 103.8 Q 44.7 103.8 44.3 103.9 Q 39.7 105.6 37.800003 108.7 Q 35.9 111.8 35.9 116.5 Q 35.9 122 41.9 126 Q 42.600002 126.5 42.600002 127.5 Q 42.600002 128.3 41.95 129 Q 41.300003 129.7 40.4 129.7 Q 39.9 129.7 39.5 129.5 Q 33.800003 126.5 31.050001 121.35 Q 28.300001 116.2 28.300001 110.5 Q 28.300001 105 32.25 99.15 Q 36.2 93.3 42.1 91.1 Q 43.600002 90.5 43.3 89 L 40.300003 77.7 Q 40.1 76.6 38.9 76.399994 Q 37.7 76.2 37.1 76.899994 Z M 53.9 18.699997 Q 53.100002 16.099998 51.2 16.099998 Q 50.600002 16.099998 50.100002 16.400002 Q 43.7 20.199997 39.95 27.099998 Q 36.2 34 36.2 41.699997 Q 36.2 46.699997 38.300003 54 Q 38.6 55.1 39.800003 55.3 Q 40.800003 55.399998 41.5 54.6 Q 41.800003 54.2 44.350002 51.049995 Q 46.9 47.9 47.7 46.85 Q 48.5 45.799995 50.4 42.85 Q 52.3 39.9 53.05 37.949997 Q 53.8 36 54.5 33.1 Q 55.2 30.199997 55.2 27.299995 Q 55.2 23.099998 53.9 18.699997 Z " fill="black"/>
    <ellipse cx="15.5" cy="312.5" rx="5" ry="5" stroke="gray" stroke-width="1" fill="none"/>
    <rect x="84.5" y="116.5" width="2.5" height="87.5" stroke="blue" stroke-width="1" fill="none"/>
    <rect x="84.5" y="116.5" width="2.5" height="87.5" fill="black"/>
    <rect x="84.5" y="104" width="33.75" height="25" stroke="blue" stroke-width="1" fill="none"/>
    <path d="M 109.4 106.4 Q 106.5 106.4 97.15 112.95 Q 87.8 119.5 87.8 122.5 Q 87.8 124.6 89.6 125.6 Q 91.4 126.6 93.9 126.6 Q 96.8 126.6 106.15 120.05 Q 115.5 113.5 115.5 110.5 Q 115.5 108.4 113.7 107.4 Q 111.9 106.4 109.4 106.4 Z M 84.5 120.3 Q 84.5 113.1 90.7 107.95 Q 96.9 102.8 105.7 102.8 Q 108.7 102.8 111.3 103.4 Q 113.9 104 116.3 106.4 Q 118.7 108.8 118.7 112.7 Q 118.7 119.9 112.5 125.05 Q 106.3 130.2 97.5 130.2 Q 94.5 130.2 91.9 129.6 Q 89.3 129 86.9 126.6 Q 84.5 124.2 84.5 120.3 Z " fill="black"/>
    <rect x="49.239998" y="266.8" width="31.84" height="81.399994" stroke="blue" stroke-width="1" fill="none"/>
    <path d="M 58.6 324.32 Q 57.159996 324.32 55.679996 323.2 Q 54.199997 322.08002 53.199997 320.47998 Q 52.199997 318.88 52.199997 317.44 Q 52.199997 314.88 53.559998 313.44 Q 54.92 312 57.879997 310.8 L 66.03999 307.44 Q 67.64 306.8 67.92 306.32 Q 68.2 305.84 68.28 304.24 L 68.439995 299.12 Q 68.52 297.03998 67.28 295.52 Q 66.03999 294 63.719997 294 Q 62.519997 294 61.32 294.4 Q 60.12 294.8 59.32 295.44 Q 58.839996 295.76 58.679996 296.4 Q 58.519997 297.03998 58.519997 297.76 Q 58.519997 298.08002 58.559998 298.47998 Q 58.6 298.88 58.6 299.2 Q 58.6 299.59998 57.6 300.28 Q 56.6 300.96 55.359997 301.47998 Q 54.12 302 53.32 302 Q 52.92 302 52.679996 301.8 Q 52.44 301.59998 52.44 301.28 Q 52.44 300 53.28 298.52 Q 54.12 297.03998 55.64 295.76 Q 57.479996 294.08002 59.64 292.8 Q 61.799995 291.52002 63.879997 290.8 Q 65.96 290.08002 67.56 290.08002 Q 70.439995 290.08002 72.32 292.12 Q 74.2 294.16 74.119995 297.2 L 73.72 316.4 Q 73.64 318.08002 74.479996 319.12 Q 75.32 320.16 76.6 320.16 Q 78.6 320.16 79.56 319.28 Q 79.96 318.88 80.2 318.88 Q 80.6 318.88 80.84 319.12 Q 81.08 319.36 81.08 319.76 Q 81.08 320.64 80.2 321.52002 Q 78.92 322.8 77.439995 323.56 Q 75.96 324.32 74.67999 324.32 Q 71 324.32 68.84 320.16 L 68.6 320.16 Q 65.96 322.32 63.559998 323.32 Q 61.159996 324.32 58.6 324.32 Z M 62.359997 320.47998 Q 63.96 320.47998 65.079994 319.96 Q 66.2 319.44 67.08 318.56 Q 67.479996 318.16 67.759995 317.47998 Q 68.03999 316.8 68.119995 315.28 L 68.28 311.36 Q 68.36 310.47998 68.2 310.08002 Q 68.03999 309.68 67.56 309.68 Q 67.399994 309.68 67 309.76 Q 66.6 309.84 65.96 310.08002 Q 61.719997 311.59998 60.079998 313.24 Q 58.44 314.88 58.44 316.24 Q 58.44 318.32 59.679996 319.4 Q 60.92 320.47998 62.359997 320.47998 Z " fill="black"/>
    <rect x="81.08" y="266.8" width="31.84" height="81.399994" stroke="blue" stroke-width="1" fill="none"/>
    <path d="M 90.44 324.32 Q 89 324.32 87.520004 323.2 Q 86.04 322.08002 85.04 320.47998 Q 84.04 318.88 84.04 317.44 Q 84.04 314.88 85.4 313.44 Q 86.76 312 89.72 310.8 L 97.880005 307.44 Q 99.48 306.8 99.76 306.32 Q 100.04 305.84 100.12 304.24 L 100.28 299.12 Q 100.36 297.03998 99.12 295.52 Q 97.880005 294 95.56 294 Q 94.36 294 93.16 294.4 Q 91.96 294.8 91.16 295.44 Q 90.68 295.76 90.520004 296.4 Q 90.36 297.03998 90.36 297.76 Q 90.36 298.08002 90.4 298.47998 Q 90.44 298.88 90.44 299.2 Q 90.44 299.59998 89.44 300.28 Q 88.44 300.96 87.200005 301.47998 Q 85.96 302 85.16 302 Q 84.76 302 84.520004 301.8 Q 84.28 301.59998 84.28 301.28 Q 84.28 300 85.12 298.52 Q 85.96 297.03998 87.48 295.76 Q 89.32 294.08002 91.48 292.8 Q 93.64 291.52002 95.72 290.8 Q 97.8 290.08002 99.4 290.08002 Q 102.28 290.08002 104.16 292.12 Q 106.04 294.16 105.96 297.2 L 105.56 316.4 Q 105.48 318.08002 106.32 319.12 Q 107.16 320.16 108.44 320.16 Q 110.44 320.16 111.4 319.28 Q 111.8 318.88 112.04 318.88 Q 112.44 318.88 112.68 319.12 Q 112.92 319.36 112.92 319.76 Q 112.92 320.64 112.04 321.52002 Q 110.76 322.8 109.28 323.56 Q 107.8 324.32 106.520004 324.32 Q 102.840004 324.32 100.68 320.16 L 100.44 320.16 Q 97.8 322.32 95.4 323.32 Q 93 324.32 90.44 324.32 Z M 94.200005 320.47998 Q 95.8 320.47998 96.92 319.96 Q 98.04 319.44 98.92 318.56 Q 99.32 318.16 99.600006 317.47998 Q 99.880005 316.8 99.96 315.28 L 100.12 311.36 Q 100.2 310.47998 100.04 310.08002 Q 99.880005 309.68 99.4 309.68 Q 99.240005 309.68 98.840004 309.76 Q 98.44 309.84 97.8 310.08002 Q 93.56 311.59998 91.92 313.24 Q 90.28 314.88 90.28 316.24 Q 90.28 318.32 91.520004 319.4 Q 92.76 320.47998 94.200005 320.47998 Z " fill="black"/>
    <rect x="112.92" y="266.8" width="31.84" height="81.399994" stroke="blue" stroke-width="1" fill="none"/>
    <path d="M 122.28 324.32 Q 120.84 324.32 119.36 323.2 Q 117.88 322.08002 116.88 320.47998 Q 115.88 318.88 115.88 317.44 Q 115.88 314.88 117.24 313.44 Q 118.6 312 121.56 310.8 L 129.72 307.44 Q 131.31999 306.8 131.6 306.32 Q 131.88 305.84 131.95999 304.24 L 132.12 299.12 Q 132.2 297.03998 130.95999 295.52 Q 129.72 294 127.399994 294 Q 126.2 294 125 294.4 Q 123.799995 294.8 123 295.44 Q 122.52 295.76 122.36 296.4 Q 122.2 297.03998 122.2 297.76 Q 122.2 298.08002 122.24 298.47998 Q 122.28 298.88 122.28 299.2 Q 122.28 299.59998 121.28 300.28 Q 120.28 300.96 119.04 301.47998 Q 117.799995 302 117 302 Q 116.6 302 116.36 301.8 Q 116.119995 301.59998 116.119995 301.28 Q 116.119995 300 116.96 298.52 Q 117.799995 297.03998 119.32 295.76 Q 121.159996 294.08002 123.32 292.8 Q 125.479996 291.52002 127.56 290.8 Q 129.64 290.08002 131.23999 290.08002 Q 134.12 290.08002 136 292.12 Q 137.88 294.16 137.8 297.2 L 137.4 316.4 Q 137.31999 318.08002 138.16 319.12 Q 139 320.16 140.28 320.16 Q 142.28 320.16 143.23999 319.28 Q 143.64 318.88 143.88 318.88 Q 144.28 318.88 144.51999 319.12 Q 144.76 319.36 144.76 319.76 Q 144.76 320.64 143.88 321.52002 Q 142.59999 322.8 141.12 323.56 Q 139.64 324.32 138.36 324.32 Q 134.68 324.32 132.52 320.16 L 132.28 320.16 Q 129.64 322.32 127.24 323.32 Q 124.84 324.32 122.28 324.32 Z M 126.04 320.47998 Q 127.64 320.47998 128.76 319.96 Q 129.88 319.44 130.76 318.56 Q 131.16 318.16 131.44 317.47998 Q 131.72 316.8 131.8 315.28 L 131.95999 311.36 Q 132.04 310.47998 131.88 310.08002 Q 131.72 309.68 131.23999 309.68 Q 131.08 309.68 130.68 309.76 Q 130.28 309.84 129.64 310.08002 Q 125.399994 311.59998 123.759995 313.24 Q 122.119995 314.88 122.119995 316.24 Q 122.119995 318.32 123.36 319.4 Q 124.6 320.47998 126.04 320.47998 Z " fill="black"/>
    <rect x="268.5" y="129" width="2.5" height="87.5" stroke="blue" stroke-width="1" fill="none"/>
    <rect x="268.5" y="129" width="2.5" height="87.5" fill="black"/>
    <rect x="268.5" y="116.5" width="32.5" height="25" stroke="blue" stroke-width="1" fill="none"/>
    <path d="M 268.5 132.4 Q 268.5 126.4 275.1 120.85 Q 281.7 115.3 288.6 115.3 Q 291.4 115.3 293.95 116 Q 296.5 116.7 298.8 119.2 Q 301.1 121.7 301.1 125.6 Q 301.1 131.1 294.4 136.9 Q 287.7 142.7 281 142.7 Q 278.2 142.7 275.65 142 Q 273.1 141.3 270.8 138.8 Q 268.5 136.3 268.5 132.4 Z " fill="black"/>
    <rect x="261.8" y="266.8" width="38.399998" height="81.399994" stroke="blue" stroke-width="1" fill="none"/>
    <path d="M 282.52 324.32 Q 280.75998 324.32 279 324 Q 277.24 323.68 275.63998 323.28 Q 273.87997 322.8 272.56 322.4 Q 271.24 322 270.84 322 Q 270.36 322 269.91998 322.32 Q 269.47998 322.64 269.08 323.03998 Q 268.68 323.44 268.36 323.44 Q 268.03998 323.44 267.63998 323.16 Q 267.24 322.88 267.24 322.47998 Q 267.24 321.76 267.52 320 Q 267.8 318.24 267.8 316.72 L 267.8 277.91998 Q 267.8 275.84 266.75998 274.32 Q 265.72 272.8 264.12 272.08002 Q 263.8 271.91998 263.44 271.64 Q 263.08 271.36 263.08 270.88 Q 263.08 270.47998 263.4 270.32 Q 263.72 270.16 264.03998 270.08002 Q 265.08 269.84 266.87997 269.2 Q 268.68 268.56 270.28 267.91998 Q 271.87997 267.28 272.44 267.03998 Q 272.91998 266.8 273.15997 266.8 Q 273.31998 266.8 273.47998 266.96 Q 273.63998 267.12 273.63998 267.36 Q 273.63998 267.68 273.52 270.03998 Q 273.4 272.4 273.4 275.76 L 273.4 292.16 Q 273.4 293.68 273.56 294.2 Q 273.72 294.72 274.12 294.8 Q 276.59998 292.72 279.87997 291.4 Q 283.15997 290.08002 285.8 290.08002 Q 289.87997 290.08002 293.12 292.16 Q 296.36 294.24 298.28 297.8 Q 300.19998 301.36 300.19998 305.84 Q 300.19998 311.28 297.96 315.47998 Q 295.71997 319.68 291.75998 322 Q 287.8 324.32 282.52 324.32 Z M 284.36 321.84 Q 287.4 321.84 289.59998 319.96 Q 291.8 318.08002 293 314.84 Q 294.19998 311.59998 294.19998 307.59998 Q 294.19998 304.47998 293.03998 301.2 Q 291.87997 297.91998 289.44 295.68 Q 287 293.44 283.15997 293.44 Q 279.96 293.44 277.56 294.47998 Q 275.15997 295.52 273.4 297.12 L 273.4 312.64 Q 273.4 315.44 274.96 317.52002 Q 276.52 319.59998 279.03998 320.72 Q 281.56 321.84 284.36 321.84 Z " fill="black"/>
    <rect x="360.5" y="116.5" width="2.5" height="87.5" stroke="blue" stroke-width="1" fill="none"/>
    <rect x="360.5" y="116.5" width="2.5" height="87.5" fill="black"/>
    <rect x="360.5" y="104" width="32.5" height="25" stroke="blue" stroke-width="1" fill="none"/>
    <path d="M 360.5 119.9 Q 360.5 113.9 367.1 108.35 Q 373.7 102.8 380.6 102.8 Q 383.4 102.8 385.95 103.5 Q 388.5 104.2 390.8 106.7 Q 393.1 109.2 393.1 113.1 Q 393.1 118.6 386.4 124.4 Q 379.7 130.2 373 130.2 Q 370.2 130.2 367.65 129.5 Q 365.1 128.8 362.8 126.3 Q 360.5 123.8 360.5 119.9 Z " fill="black"/>
    <ellipse cx="365.5" cy="312.5" rx="5" ry="5" stroke="gray" stroke-width="1" fill="none"/>
    <rect x="434.5" y="79" width="2.5" height="87.5" stroke="blue" stroke-width="1" fill="none"/>
    <rect x="434.5" y="79" width="2.5" height="87.5" fill="black"/>
    <rect x="434.5" y="66.5" width="32.5" height="25" stroke="blue" stroke-width="1" fill="none"/>
    <path d="M 434.5 82.4 Q 434.5 76.4 441.1 70.85 Q 447.7 65.3 454.6 65.3 Q 457.4 65.3 459.95 66 Q 462.5 66.7 464.8 69.2 Q 467.1 71.7 467.1 75.6 Q 467.1 81.1 460.4 86.9 Q 453.7 92.7 447 92.7 Q 444.2 92.7 441.65 92 Q 439.1 91.3 436.8 88.8 Q 434.5 86.3 434.5 82.4 Z " fill="black"/>
    <ellipse cx="439.5" cy="312.5" rx="5" ry="5" stroke="gray" stroke-width="1" fill="none"/>
    <rect x="527.5" y="91.5" width="2.5" height="100" stroke="blue" stroke-width="1" fill="none"/>
    <rect x="527.5" y="91.5" width="2.5" height="100" fill="black"/>
    <rect x="527.5" y="79" width="32.5" height="25" stroke="blue" stroke-width="1" fill="none"/>
    <path d="M 527.5 94.9 Q 527.5 88.9 534.1 83.35 Q 540.7 77.8 547.6 77.8 Q 550.4 77.8 552.95 78.5 Q 555.5 79.2 557.8 81.7 Q 560.1 84.2 560.1 88.1 Q 560.1 93.6 553.4 99.4 Q 546.7 105.2 540 105.2 Q 537.2 105.2 534.65 104.5 Q 532.1 103.8 529.8 101.3 Q 527.5 98.8 527.5 94.9 Z " fill="black"/>
    <rect x="495" y="91.5" width="32.5" height="25" stroke="blue" stroke-width="1" fill="none"/>
    <path d="M 495 107.4 Q 495 101.4 501.6 95.85 Q 508.2 90.3 515.1 90.3 Q 517.9 90.3 520.45 91 Q 523 91.7 525.3 94.2 Q 527.6 96.7 527.6 100.6 Q 527.6 106.1 520.9 111.9 Q 514.2 117.7 507.5 117.7 Q 504.7 117.7 502.15 117 Q 499.6 116.3 497.3 113.8 Q 495 111.3 495 107.4 Z " fill="black"/>
    <rect x="467.5" y="54" width="27.5" height="75" stroke="blue" stroke-width="1" fill="none"/>
    <path d="M 472.1 112.6 Q 472.1 113.8 473.1 114.2 Q 474.3 114.7 475.1 113.9 Q 481.7 107.9 481.7 100.3 Q 481.7 97.6 480.55 95.6 Q 479.4 93.6 477.4 93.6 Q 475.2 93.6 473.8 95.5 Q 472.4 97.4 472.3 99.9 L 472.1 112.6 Z M 474.9 90.5 Q 479.1 88.4 481.8 88.4 Q 485.6 88.4 487.9 91.4 Q 490.2 94.4 490.2 98.6 Q 490.2 101.5 489.35 103.85 Q 488.5 106.2 486.7 108.15 Q 484.9 110.1 483.35 111.4 Q 481.8 112.7 479.3 114.55 Q 476.8 116.4 475.5 117.5 Q 475 117.9 474.2 119 Q 473.4 120.1 472.65 120.7 Q 471.9 121.3 471 121.3 Q 470 121.3 469.35 120.6 Q 468.7 119.9 468.7 118.8 L 467.5 58.3 Q 468.8 57.5 470.2 57.5 Q 471.6 57.5 472.9 58.3 L 472.3 88.9 Q 472.3 89.9 473.1 90.4 Q 474 91 474.9 90.5 Z " fill="black"/>
    <ellipse cx="532.5" cy="312.5" rx="5" ry="5" stroke="gray" stroke-width="1" fill="none"/>
    <rect x="619.5" y="129" width="2.5" height="87.5" stroke="blue" stroke-width="1" fill="none"/>
    <rect x="619.5" y="129" width="2.5" height="87.5" fill="black"/>
    <rect x="619.5" y="116.5" width="32.5" height="25" stroke="blue" stroke-width="1" fill="none"/>
    <path d="M 619.5 132.4 Q 619.5 126.4 626.1 120.85 Q 632.7 115.3 639.6 115.3 Q 642.4 115.3 644.95 116 Q 647.5 116.7 649.8 119.2 Q 652.1 121.7 652.1 125.6 Q 652.1 131.1 645.4 136.9 Q 638.7 142.7 632 142.7 Q 629.2 142.7 626.65 142 Q 624.1 141.3 621.8 138.8 Q 619.5 136.3 619.5 132.4 Z " fill="black"/>
    <rect x="589.5" y="91.5" width="30.000002" height="75" stroke="blue" stroke-width="1" fill="none"/>
    <path d="M 611.1 119.4 L 611.1 131.6 Q 611.1 132.4 611.6 132.9 Q 612.1 133.4 612.9 133.4 Q 613.2 133.4 613.5 133.3 L 614.3 133 Q 614.6 132.9 615 132.9 Q 615.8 132.9 616.4 133.5 Q 617 134.1 617 134.9 L 617 140.9 Q 617 142.2 615.7 142.7 L 612.3 144 Q 611.1 144.5 611.1 145.6 L 611.1 160.2 Q 611.1 161 610.55 161.55 Q 610 162.1 609.3 162.1 Q 608.5 162.1 607.95 161.55 Q 607.4 161 607.4 160.2 L 607.4 148.3 Q 607.4 147.5 606.85 147 Q 606.3 146.5 605.6 146.5 Q 605.2 146.5 604.9 146.6 L 600.3 148.4 Q 599.1 148.8 599.1 150 L 599.1 164.6 Q 599.1 165.4 598.5 165.95 Q 597.9 166.5 597.2 166.5 Q 596.5 166.5 595.95 165.95 Q 595.4 165.4 595.4 164.6 L 595.4 152.7 Q 595.4 151.9 594.85 151.4 Q 594.3 150.9 593.6 150.9 Q 593.3 150.9 593 151 L 592.2 151.3 Q 592 151.4 591.5 151.4 Q 590.7 151.4 590.1 150.8 Q 589.5 150.2 589.5 149.4 L 589.5 143.4 Q 589.5 142 590.8 141.5 L 594.2 140.3 Q 595.4 140 595.4 138.6 L 595.4 126.4 Q 595.4 125.6 594.85 125.1 Q 594.3 124.6 593.6 124.6 Q 593.3 124.6 593.1 124.7 L 592.2 125 Q 592 125.1 591.5 125.1 Q 590.7 125.1 590.1 124.5 Q 589.5 123.9 589.5 123.1 L 589.5 117.1 Q 589.5 115.8 590.8 115.3 L 594.3 114 Q 595.4 113.5 595.4 112.4 L 595.4 97.8 Q 595.4 97 595.95 96.45 Q 596.5 95.899994 597.2 95.899994 Q 597.9 95.899994 598.5 96.45 Q 599.1 97 599.1 97.8 L 599.1 109.7 Q 599.1 110.5 599.65 111 Q 600.2 111.5 601 111.5 Q 601.3 111.5 601.6 111.4 L 606.2 109.6 Q 607.4 109.1 607.4 107.9 L 607.4 93.399994 Q 607.4 92.6 607.95 92.05 Q 608.5 91.5 609.3 91.5 Q 610 91.5 610.55 92.05 Q 611.1 92.6 611.1 93.399994 L 611.1 105.4 Q 611.1 106.1 611.6 106.6 Q 612.1 107.1 612.8 107.1 Q 613.1 107.1 613.5 107 L 614.3 106.7 Q 614.5 106.6 615 106.6 Q 615.8 106.6 616.4 107.2 Q 617 107.8 617 108.6 L 617 114.6 Q 617 116 615.7 116.5 L 612.3 117.7 Q 611.1 118 611.1 119.4 Z M 607.4 134.2 L 607.4 122.1 Q 607.4 121.4 606.85 120.85 Q 606.3 120.3 605.6 120.3 Q 605.3 120.3 605 120.4 L 600.3 122.1 Q 599.1 122.6 599.1 123.8 L 599.1 135.9 Q 599.1 136.7 599.6 137.2 Q 600.1 137.7 600.9 137.7 Q 601.2 137.7 601.5 137.6 L 606.2 135.9 Q 607.4 135.4 607.4 134.2 Z " fill="black"/>
    <ellipse cx="624.5" cy="312.5" rx="5" ry="5" stroke="gray" stroke-width="1" fill="none"/>
    <rect x="711.5" y="111.5" width="10" height="10" stroke="orange" stroke-width="1" fill="none"/>
    <path d="M 711.5 167.7 L 711.5 165.2 L 811.5 165.2 L 811.5 167.7 L 711.5 167.7 Z M 711.5 142.7 L 711.5 140.2 L 811.5 140.2 L 811.5 142.7 L 711.5 142.7 Z M 711.5 117.7 L 711.5 115.2 L 811.5 115.2 L 811.5 117.7 L 711.5 117.7 Z M 711.5 92.7 L 711.5 90.2 L 811.5 90.2 L 811.5 92.7 L 711.5 92.7 Z M 711.5 67.7 L 711.5 65.2 L 811.5 65.2 L 811.5 67.7 L 711.5 67.7 Z " fill="orange"/>
    <rect x="711.5" y="302.5" width="10" height="10" stroke="orange" stroke-width="1" fill="none"/>
    <path d="M 711.5 358.7 L 711.5 356.2 L 811.5 356.2 L 811.5 358.7 L 711.5 358.7 Z M 711.5 333.7 L 711.5 331.2 L 811.5 331.2 L 811.5 333.7 L 711.5 333.7 Z M 711.5 308.7 L 711.5 306.2 L 811.5 306.2 L 811.5 308.7 L 711.5 308.7 Z M 711.5 283.7 L 711.5 281.2 L 811.5 281.2 L 811.5 283.7 L 711.5 283.7 Z M 711.5 258.7 L 711.5 256.2 L 811.5 256.2 L 811.5 258.7 L 711.5 258.7 Z " fill="orange"/>
    <rect x="0" y="0" width="811.5" height="358.7" stroke="black" stroke-width="1" fill="none"/>
</svg>
