<svg xmlns="http://www.w3.org/2000/svg" xmlns:xlink="http://www.w3.org/1999/xlink" viewBox="0 0 362.5 207.7857">
    <line x1="1.25" y1="50.5" x2="361.25" y2="50.5" stroke="black" stroke-width="2.5"/>
    <line x1="1.25" y1="75.5" x2="361.25" y2="75.5" stroke="black" stroke-width="2.5"/>
    <line x1="1.25" y1="100.5" x2="361.25" y2="100.5" stroke="black" stroke-width="2.5"/>
    <line x1="1.25" y1="125.5" x2="361.25" y2="125.5" stroke="black" stroke-width="2.5"/>
    <line x1="1.25" y1="150.5" x2="361.25" y2="150.5" stroke="black" stroke-width="2.5"/>
    <rect x="1.25" y="0.5" width="10" height="200" stroke="orange" stroke-width="1" fill="none"/>
    <rect x="11.25" y="88" width="32.5" height="25" stroke="red" stroke-width="1" fill="none"/>
    <path d="M 11.25 103.9 Q 11.25 97.9 17.85 92.35 Q 24.45 86.8 31.35 86.8 Q 34.15 86.8 36.7 87.5 Q 39.25 88.2 41.550003 90.7 Q 43.850002 93.2 43.850002 97.1 Q 43.850002 102.6 37.15 108.4 Q 30.45 114.2 23.75 114.2 Q 20.95 114.2 18.4 113.5 Q 15.85 112.8 13.55 110.3 Q 11.25 107.8 11.25 103.9 Z " fill="black"/>
    <rect x="43.75" y="88" width="5" height="25" stroke="red" stroke-width="1" fill="none"/>
    <rect x="11.25" y="100.5" width="3" height="89.28571" stroke="red" stroke-width="1" fill="none"/>
    <rect x="11.25" y="177.2857" width="50" height="25" stroke="red" stroke-width="1" fill="none"/>
    <rect x="22.5" y="197.2857" width="10" height="10" stroke="red" stroke-width="1" fill="none"/>
    <ellipse cx="27.5" cy="202.2857" rx="5" ry="5" stroke="red" stroke-width="1" fill="none"/>
    <rect x="22.5" y="70.5" width="10" height="10" stroke="red" stroke-width="1" fill="none"/>
    <ellipse cx="27.5" cy="75.5" rx="5" ry="5" stroke="purple" stroke-width="1" fill="none"/>
    <rect x="96.25" y="75.5" width="32.5" height="25" stroke="red" stroke-width="1" fill="none"/>
    <path d="M 96.25 91.4 Q 96.25 85.4 102.85 79.85 Q 109.45 74.3 116.35 74.3 Q 119.15 74.3 121.7 75 Q 124.25 75.7 126.55 78.2 Q 128.85 80.7 128.85 84.6 Q 128.85 90.1 122.15 95.9 Q 115.45 101.7 108.75 101.7 Q 105.95 101.7 103.4 101 Q 100.85 100.3 98.55 97.8 Q 96.25 95.3 96.25 91.4 Z " fill="black"/>
    <rect x="128.75" y="75.5" width="5" height="25" stroke="red" stroke-width="1" fill="none"/>
    <rect x="107.5" y="58" width="10" height="10" stroke="red" stroke-width="1" fill="none"/>
    <ellipse cx="112.5" cy="63" rx="5" ry="5" stroke="purple" stroke-width="1" fill="none"/>
    <rect x="107.5" y="193.11905" width="10" height="10" stroke="red" stroke-width="1" fill="none"/>
    <ellipse cx="112.5" cy="198.11905" rx="5" ry="5" stroke="red" stroke-width="1" fill="none"/>
    <rect x="181.25" y="63" width="32.5" height="25" stroke="red" stroke-width="1" fill="none"/>
    <path d="M 181.25 78.9 Q 181.25 72.9 187.85 67.35 Q 194.45 61.8 201.35 61.8 Q 204.15 61.8 206.7 62.5 Q 209.25 63.2 211.55 65.7 Q 213.85 68.2 213.85 72.1 Q 213.85 77.6 207.15 83.4 Q 200.45 89.2 193.75 89.2 Q 190.95 89.2 188.4 88.5 Q 185.85 87.8 183.55 85.3 Q 181.25 82.8 181.25 78.9 Z " fill="black"/>
    <rect x="213.75" y="63" width="5" height="25" stroke="red" stroke-width="1" fill="none"/>
    <rect x="192.5" y="45.5" width="10" height="10" stroke="red" stroke-width="1" fill="none"/>
    <ellipse cx="197.5" cy="50.5" rx="5" ry="5" stroke="purple" stroke-width="1" fill="none"/>
    <rect x="192.5" y="188.95238" width="10" height="10" stroke="red" stroke-width="1" fill="none"/>
    <ellipse cx="197.5" cy="193.95238" rx="5" ry="5" stroke="red" stroke-width="1" fill="none"/>
    <rect x="266.25" y="50.5" width="32.5" height="25" stroke="red" stroke-width="1" fill="none"/>
    <path d="M 266.25 66.4 Q 266.25 60.4 272.85 54.85 Q 279.45 49.3 286.35 49.3 Q 289.15 49.3 291.7 50 Q 294.25 50.7 296.55 53.2 Q 298.85 55.7 298.85 59.6 Q 298.85 65.1 292.15 70.9 Q 285.45 76.7 278.75 76.7 Q 275.95 76.7 273.4 76 Q 270.85 75.3 268.55 72.8 Q 266.25 70.3 266.25 66.4 Z " fill="black"/>
    <rect x="298.75" y="50.5" width="5" height="25" stroke="red" stroke-width="1" fill="none"/>
    <rect x="266.25" y="63" width="3" height="114.28571" stroke="red" stroke-width="1" fill="none"/>
    <rect x="266.25" y="164.7857" width="32.5" height="25" stroke="red" stroke-width="1" fill="none"/>
    <rect x="277.5" y="184.7857" width="10" height="10" stroke="red" stroke-width="1" fill="none"/>
    <ellipse cx="282.5" cy="189.7857" rx="5" ry="5" stroke="red" stroke-width="1" fill="none"/>
    <rect x="277.5" y="33" width="10" height="10" stroke="red" stroke-width="1" fill="none"/>
    <ellipse cx="282.5" cy="38" rx="5" ry="5" stroke="purple" stroke-width="1" fill="none"/>
    <rect x="351.25" y="0.5" width="10" height="200" stroke="orange" stroke-width="1" fill="none"/>
    <line x1="12.75" y1="104.5" x2="12.75" y2="189.7857" stroke="black" stroke-width="3"/>
    <line x1="267.75" y1="67" x2="267.75" y2="177.2857" stroke="black" stroke-width="3"/>
    <line x1="97.75" y1="92" x2="97.75" y2="185.61905" stroke="black" stroke-width="3"/>
    <line x1="182.75" y1="79.5" x2="182.75" y2="181.45238" stroke="black" stroke-width="3"/>
    <path d="M 11.25 189.7857 L 269.25 177.2857 L 269.25 162.2857 L 11.25 174.7857 " fill="black"/>
    <path d="M 12.75 164.7857 L 267.75 152.2857 L 267.75 137.2857 L 12.75 149.7857 " fill="black"/>
    <rect x="0" y="0" width="362.5" height="207.7857" stroke="black" stroke-width="1" fill="none"/>
</svg>
