<svg xmlns="http://www.w3.org/2000/svg" xmlns:xlink="http://www.w3.org/1999/xlink" viewBox="0 0 436.5 253.7857">
    <line x1="1.25" y1="50.5" x2="435.25" y2="50.5" stroke="black" stroke-width="2.5"/>
    <line x1="1.25" y1="75.5" x2="435.25" y2="75.5" stroke="black" stroke-width="2.5"/>
    <line x1="1.25" y1="100.5" x2="435.25" y2="100.5" stroke="black" stroke-width="2.5"/>
    <line x1="1.25" y1="125.5" x2="435.25" y2="125.5" stroke="black" stroke-width="2.5"/>
    <line x1="1.25" y1="150.5" x2="435.25" y2="150.5" stroke="black" stroke-width="2.5"/>
    <rect x="1.25" y="0.5" width="10" height="200" stroke="orange" stroke-width="1" fill="none"/>
    <rect x="11.25" y="88" width="32.5" height="25" stroke="red" stroke-width="1" fill="none"/>
    <path d="M 11.25 103.9 Q 11.25 97.9 17.85 92.35 Q 24.45 86.8 31.35 86.8 Q 34.15 86.8 36.7 87.5 Q 39.25 88.2 41.550003 90.7 Q 43.850002 93.2 43.850002 97.1 Q 43.850002 102.6 37.15 108.4 Q 30.45 114.2 23.75 114.2 Q 20.95 114.2 18.4 113.5 Q 15.85 112.8 13.55 110.3 Q 11.25 107.8 11.25 103.9 Z " fill="black"/>
    <rect x="43.75" y="88" width="5" height="25" stroke="red" stroke-width="1" fill="none"/>
    <rect x="11.25" y="128" width="25" height="70" stroke="red" stroke-width="1" fill="none"/>
    <path d="M 21.75 173.4 Q 22.45 173.4 22.900002 172.95 Q 23.35 172.5 23.35 171.9 Q 23.35 171.3 22.95 170.9 L 15.75 162.8 Q 12.75 159.4 12.75 156.5 Q 12.75 154 19.85 147.8 Q 23.55 144.5 23.55 139.5 Q 23.55 135.6 21.05 132.6 L 17.55 128.4 Q 17.15 127.899994 17.15 127.399994 Q 17.15 125.899994 18.55 125.899994 Q 19.45 125.899994 20.05 126.6 L 35.050003 144.4 Q 36.050003 145.6 36.050003 146.9 Q 36.050003 148 35.25 149.2 Q 34.45 150.4 33.550003 151.25 Q 32.65 152.1 30.9 153.55 Q 29.15 155 28.45 155.7 Q 24.25 159.6 24.25 164.3 Q 24.25 167.9 28.35 172.3 L 36.75 181.4 Q 37.15 181.8 37.15 182.4 Q 37.15 183 36.7 183.45 Q 36.25 183.9 35.75 183.9 Q 35.050003 183.9 33.65 182.8 Q 29.95 180 25.75 180 Q 22.85 180 20.7 182.25 Q 18.55 184.5 18.55 187.4 Q 18.55 188.7 18.75 189.75 Q 18.95 190.8 19.5 191.9 Q 20.05 193 20.25 193.4 Q 20.45 193.8 21.35 195.05 Q 22.25 196.3 22.35 196.4 Q 22.650002 196.8 22.55 197.3 Q 22.45 197.8 22 198.05 Q 21.55 198.3 21.05 198.2 Q 20.55 198.1 19.75 197.3 Q 16.35 193.8 13.8 189.45 Q 11.25 185.1 11.25 181.9 Q 11.25 178 14 175.7 Q 16.75 173.4 21.75 173.4 Z " fill="black"/>
    <rect x="40.75" y="11.214287" width="3" height="89.28571" stroke="red" stroke-width="1" fill="none"/>
    <rect x="149.25" y="125.5" width="32.5" height="25" stroke="red" stroke-width="1" fill="none"/>
    <path d="M 149.25 141.4 Q 149.25 135.4 155.85 129.85 Q 162.45 124.3 169.35 124.3 Q 172.15 124.3 174.7 125 Q 177.25 125.7 179.55 128.2 Q 181.85 130.7 181.85 134.6 Q 181.85 140.1 175.15 145.9 Q 168.45 151.7 161.75 151.7 Q 158.95 151.7 156.4 151 Q 153.85 150.3 151.55 147.8 Q 149.25 145.3 149.25 141.4 Z " fill="black"/>
    <rect x="181.75" y="125.5" width="5" height="25" stroke="red" stroke-width="1" fill="none"/>
    <rect x="149.25" y="150.5" width="32.5" height="25" stroke="red" stroke-width="1" fill="none"/>
    <path d="M 149.25 166.4 Q 149.25 160.4 155.85 154.85 Q 162.45 149.3 169.35 149.3 Q 172.15 149.3 174.7 150 Q 177.25 150.7 179.55 153.2 Q 181.85 155.7 181.85 159.6 Q 181.85 165.1 175.15 170.9 Q 168.45 176.7 161.75 176.7 Q 158.95 176.7 156.4 176 Q 153.85 175.3 151.55 172.8 Q 149.25 170.3 149.25 166.4 Z " fill="black"/>
    <rect x="181.75" y="150.5" width="5" height="25" stroke="red" stroke-width="1" fill="none"/>
    <rect x="178.75" y="48.714287" width="3" height="89.28571" stroke="red" stroke-width="1" fill="none"/>
    <rect x="149.25" y="163" width="3" height="89.285706" stroke="red" stroke-width="1" fill="none"/>
    <rect x="287.25" y="113" width="32.5" height="25" stroke="red" stroke-width="1" fill="none"/>
    <path d="M 287.25 128.9 Q 287.25 122.9 293.85 117.35 Q 300.45 111.8 307.35 111.8 Q 310.15 111.8 312.7 112.5 Q 315.25 113.2 317.55 115.7 Q 319.85 118.2 319.85 122.1 Q 319.85 127.6 313.15 133.4 Q 306.45 139.2 299.75 139.2 Q 296.95 139.2 294.4 138.5 Q 291.85 137.8 289.55 135.3 Q 287.25 132.8 287.25 128.9 Z " fill="black"/>
    <rect x="319.75" y="113" width="5" height="25" stroke="red" stroke-width="1" fill="none"/>
    <rect x="287.25" y="150.5" width="32.5" height="25" stroke="red" stroke-width="1" fill="none"/>
    <path d="M 287.25 166.4 Q 287.25 160.4 293.85 154.85 Q 300.45 149.3 307.35 149.3 Q 310.15 149.3 312.7 150 Q 315.25 150.7 317.55 153.2 Q 319.85 155.7 319.85 159.6 Q 319.85 165.1 313.15 170.9 Q 306.45 176.7 299.75 176.7 Q 296.95 176.7 294.4 176 Q 291.85 175.3 289.55 172.8 Q 287.25 170.3 287.25 166.4 Z " fill="black"/>
    <rect x="319.75" y="150.5" width="5" height="25" stroke="red" stroke-width="1" fill="none"/>
    <rect x="316.75" y="36.214287" width="3" height="89.28571" stroke="red" stroke-width="1" fill="none"/>
    <rect x="287.25" y="163" width="3" height="89.285706" stroke="red" stroke-width="1" fill="none"/>
    <rect x="425.25" y="0.5" width="10" height="200" stroke="orange" stroke-width="1" fill="none"/>
    <line x1="42.25" y1="11.214287" x2="42.25" y2="96.5" stroke="black" stroke-width="3"/>
    <line x1="180.25" y1="48.714287" x2="180.25" y2="134" stroke="black" stroke-width="3"/>
    <line x1="150.75" y1="167" x2="150.75" y2="252.2857" stroke="black" stroke-width="3"/>
    <line x1="318.25" y1="36.214287" x2="318.25" y2="121.5" stroke="black" stroke-width="3"/>
    <line x1="288.75" y1="167" x2="288.75" y2="252.2857" stroke="black" stroke-width="3"/>
    <rect x="0" y="0" width="436.5" height="253.7857" stroke="black" stroke-width="1" fill="none"/>
</svg>
