<svg xmlns="http://www.w3.org/2000/svg" xmlns:xlink="http://www.w3.org/1999/xlink" viewBox="0 0 841.5 358.7">
    <rect x="0.5" y="111.5" width="10" height="10" stroke="orange" stroke-width="1" fill="none"/>
    <path d="M 0.5 167.7 L 0.5 165.2 L 100.5 165.2 L 100.5 167.7 L 0.5 167.7 Z M 0.5 142.7 L 0.5 140.2 L 100.5 140.2 L 100.5 142.7 L 0.5 142.7 Z M 0.5 117.7 L 0.5 115.2 L 100.5 115.2 L 100.5 117.7 L 0.5 117.7 Z M 0.5 92.7 L 0.5 90.2 L 100.5 90.2 L 100.5 92.7 L 0.5 92.7 Z M 0.5 67.7 L 0.5 65.2 L 100.5 65.2 L 100.5 67.7 L 0.5 67.7 Z " fill="orange"/>
    <rect x="0.5" y="302.5" width="10" height="10" stroke="orange" stroke-width="1" fill="none"/>
    <path d="M 0.5 358.7 L 0.5 356.2 L 100.5 356.2 L 100.5 358.7 L 0.5 358.7 Z M 0.5 333.7 L 0.5 331.2 L 100.5 331.2 L 100.5 333.7 L 0.5 333.7 Z M 0.5 308.7 L 0.5 306.2 L 100.5 306.2 L 100.5 308.7 L 0.5 308.7 Z M 0.5 283.7 L 0.5 281.2 L 100.5 281.2 L 100.5 283.7 L 0.5 283.7 Z M 0.5 258.7 L 0.5 256.2 L 100.5 256.2 L 100.5 258.7 L 0.5 258.7 Z " fill="orange"/>
    <rect x="10.5" y="0.5" width="74" height="186" stroke="orange" stroke-width="1" fill="none"/>
    <path d="M 35.300003 59 Q 33 51.699997 32.1 46 Q 31.300001 41.199997 31.300001 34.799995 Q 31.300001 32.6 31.4 30.400002 Q 31.800001 20.900002 35.300003 12.949997 Q 38.800003 5 45.8 0.7999954 Q 46.3 0.5 47.100002 0.5 Q 47.8 0.5 48.3 1 Q 53.9 6.5999985 56.9 15.299995 Q 59.9 24 59.9 32.9 Q 59.9 43.199997 55.5 53.1 Q 51.3 63 43.7 70.6 Q 43.100002 71.2 43.3 72.2 L 47.3 88.2 Q 47.600002 89.8 49.3 89.6 Q 50.9 89.4 52.4 89.4 Q 58.2 89.4 62.9 91.7 Q 67.600006 94 70.5 97.7 Q 73.4 101.4 74.950005 105.85 Q 76.5 110.3 76.5 115 Q 76.5 123.6 71.7 130.55 Q 66.9 137.5 60.2 139.7 Q 58.8 140.2 59.100002 141.8 Q 61.600002 153.6 61.7 161.7 Q 61.7 164.8 61.3 167.8 Q 60.5 174.7 55.3 179.9 Q 50.100002 185.1 42.9 185.1 Q 34.1 185.1 28 179.8 Q 21.900002 174.5 21.900002 165.9 Q 21.900002 161.5 25 158.3 Q 28.1 155.1 32.300003 155.1 Q 36.6 155.1 39.550003 158.15 Q 42.5 161.2 42.5 165.4 Q 42.5 169 40.1 171.7 Q 37.7 174.5 34.300003 174.8 Q 33.1 174.9 32.7 176 Q 32.300003 177.1 33.5 178 Q 37.1 180.8 42.300003 180.8 Q 48 180.8 52.15 176.7 Q 56.3 172.6 57 167.4 Q 57.5 163.8 57.5 160.2 Q 57.5 152.4 55.100002 142.9 Q 54.7 141.2 52.9 141.4 Q 48.9 141.9 45.5 141.9 Q 30.7 141.9 20.6 132.6 Q 10.5 123.3 10.5 107.3 Q 10.5 102.4 11.65 97.65 Q 12.8 92.9 14.25 89.45 Q 15.700001 86 18.75 81.45 Q 21.8 76.899994 23.650002 74.5 Q 25.5 72.1 29.5 67.35 Q 33.5 62.6 35 60.7 Q 35.6 60 35.300003 59 Z M 50.9 104.7 L 57.4 134.2 Q 57.7 135.5 59.2 135.5 Q 59.600002 135.5 59.9 135.4 Q 64 133.7 66.7 128.8 Q 69.4 123.9 69.4 119.1 Q 69.4 112.1 65.3 107.3 Q 61.100002 102.4 52.7 102.4 Q 52 102.4 51.45 102.95 Q 50.9 103.5 50.9 104.2 Q 50.8 104.5 50.9 104.7 Z M 37.1 76.899994 Q 35.5 78.7 32.35 82.05 Q 29.2 85.4 27.65 87.15 Q 26.1 88.9 23.85 92.1 Q 21.6 95.3 20.5 98 Q 19.400002 100.7 18.55 104.6 Q 17.7 108.5 17.7 112.9 Q 17.7 119 21.45 124.7 Q 25.2 130.4 31.75 134 Q 38.300003 137.6 45.8 137.6 Q 48.5 137.6 51.8 137.3 Q 52.600002 137.2 53.100002 136.55 Q 53.600002 135.9 53.4 135.1 L 46.9 105.2 Q 46.600002 103.8 45 103.8 Q 44.7 103.8 44.3 103.9 Q 39.7 105.6 37.800003 108.7 Q 35.9 111.8 35.9 116.5 Q 35.9 122 41.9 126 Q 42.600002 126.5 42.600002 127.5 Q 42.600002 128.3 41.95 129 Q 41.300003 129.7 40.4 129.7 Q 39.9 129.7 39.5 129.5 Q 33.800003 126.5 31.050001 121.35 Q 28.300001 116.2 28.300001 110.5 Q 28.300001 105 32.25 99.15 Q 36.2 93.3 42.1 91.1 Q 43.600002 90.5 43.3 89 L 40.300003 77.7 Q 40.1 76.6 38.9 76.399994 Q 37.7 76.2 37.1 76.899994 Z M 53.9 18.699997 Q 53.100002 16.099998 51.2 16.099998 Q 50.600002 16.099998 50.100002 16.400002 Q 43.7 20.199997 39.95 27.099998 Q 36.2 34 36.2 41.699997 Q 36.2 46.699997 38.300003 54 Q 38.6 55.1 39.800003 55.3 Q 40.800003 55.399998 41.5 54.6 Q 41.800003 54.2 44.350002 51.049995 Q 46.9 47.9 47.7 46.85 Q 48.5 45.799995 50.4 42.85 Q 52.3 39.9 53.05 37.949997 Q 53.8 36 54.5 33.1 Q 55.2 30.199997 55.2 27.299995 Q 55.2 23.099998 53.9 18.699997 Z " fill="black"/>
    <ellipse cx="15.5" cy="312.5" rx="5" ry="5" stroke="gray" stroke-width="1" fill="none"/>
    <rect x="114.5" y="116.5" width="2.5" height="87.5" stroke="blue" stroke-width="1" fill="none"/>
    <rect x="114.5" y="116.5" width="2.5" height="87.5" fill="black"/>
    <rect x="114.5" y="104" width="33.75" height="25" stroke="blue" stroke-width="1" fill="none"/>
    <path d="M 139.4 106.4 Q 136.5 106.4 127.15 112.95 Q 117.8 119.5 117.8 122.5 Q 117.8 124.6 119.6 125.6 Q 121.4 126.6 123.9 126.6 Q 126.8 126.6 136.15 120.05 Q 145.5 113.5 145.5 110.5 Q 145.5 108.4 143.7 107.4 Q 141.9 106.4 139.4 106.4 Z M 114.5 120.3 Q 114.5 113.1 120.7 107.95 Q 126.9 102.8 135.7 102.8 Q 138.7 102.8 141.3 103.4 Q 143.9 104 146.3 106.4 Q 148.7 108.8 148.7 112.7 Q 148.7 119.9 142.5 125.05 Q 136.3 130.2 127.5 130.2 Q 124.5 130.2 121.9 129.6 Q 119.3 129 116.9 126.6 Q 114.5 124.2 114.5 120.3 Z " fill="black"/>
    <rect x="84.5" y="79" width="30.000002" height="75" stroke="blue" stroke-width="1" fill="none"/>
    <path d="M 106.1 106.9 L 106.1 119.1 Q 106.1 119.9 106.6 120.4 Q 107.1 120.9 107.9 120.9 Q 108.2 120.9 108.5 120.8 L 109.3 120.5 Q 109.6 120.4 110 120.4 Q 110.8 120.4 111.4 121 Q 112 121.6 112 122.4 L 112 128.4 Q 112 129.7 110.7 130.2 L 107.3 131.5 Q 106.1 132 106.1 133.1 L 106.1 147.7 Q 106.1 148.5 105.55 149.05 Q 105 149.6 104.3 149.6 Q 103.5 149.6 102.95 149.05 Q 102.4 148.5 102.4 147.7 L 102.4 135.8 Q 102.4 135 101.85 134.5 Q 101.3 134 100.6 134 Q 100.2 134 99.9 134.1 L 95.3 135.9 Q 94.1 136.3 94.1 137.5 L 94.1 152.1 Q 94.1 152.9 93.5 153.45 Q 92.9 154 92.2 154 Q 91.5 154 90.95 153.45 Q 90.4 152.9 90.4 152.1 L 90.4 140.2 Q 90.4 139.4 89.85 138.9 Q 89.3 138.4 88.6 138.4 Q 88.3 138.4 88 138.5 L 87.2 138.8 Q 87 138.9 86.5 138.9 Q 85.7 138.9 85.1 138.3 Q 84.5 137.7 84.5 136.9 L 84.5 130.9 Q 84.5 129.5 85.8 129 L 89.2 127.8 Q 90.4 127.5 90.4 126.1 L 90.4 113.9 Q 90.4 113.1 89.85 112.6 Q 89.3 112.1 88.6 112.1 Q 88.3 112.1 88.1 112.2 L 87.2 112.5 Q 87 112.6 86.5 112.6 Q 85.7 112.6 85.1 112 Q 84.5 111.4 84.5 110.6 L 84.5 104.6 Q 84.5 103.3 85.8 102.8 L 89.3 101.5 Q 90.4 101 90.4 99.9 L 90.4 85.3 Q 90.4 84.5 90.95 83.95 Q 91.5 83.399994 92.2 83.399994 Q 92.9 83.399994 93.5 83.95 Q 94.1 84.5 94.1 85.3 L 94.1 97.2 Q 94.1 98 94.65 98.5 Q 95.2 99 96 99 Q 96.3 99 96.6 98.9 L 101.2 97.1 Q 102.4 96.6 102.4 95.4 L 102.4 80.899994 Q 102.4 80.1 102.95 79.55 Q 103.5 79 104.3 79 Q 105 79 105.55 79.55 Q 106.1 80.1 106.1 80.899994 L 106.1 92.9 Q 106.1 93.6 106.6 94.1 Q 107.1 94.6 107.8 94.6 Q 108.1 94.6 108.5 94.5 L 109.3 94.2 Q 109.5 94.1 110 94.1 Q 110.8 94.1 111.4 94.7 Q 112 95.3 112 96.1 L 112 102.1 Q 112 103.5 110.7 104 L 107.3 105.2 Q 106.1 105.5 106.1 106.9 Z M 102.4 121.7 L 102.4 109.6 Q 102.4 108.9 101.85 108.35 Q 101.3 107.8 100.6 107.8 Q 100.3 107.8 100 107.9 L 95.3 109.6 Q 94.1 110.1 94.1 111.3 L 94.1 123.4 Q 94.1 124.2 94.6 124.7 Q 95.1 125.2 95.9 125.2 Q 96.2 125.2 96.5 125.1 L 101.2 123.4 Q 102.4 122.9 102.4 121.7 Z " fill="black"/>
    <rect x="79.24" y="266.8" width="31.84" height="81.399994" stroke="blue" stroke-width="1" fill="none"/>
    <path d="M 88.6 324.32 Q 87.159996 324.32 85.68 323.2 Q 84.2 322.08002 83.2 320.47998 Q 82.2 318.88 82.2 317.44 Q 82.2 314.88 83.56 313.44 Q 84.92 312 87.88 310.8 L 96.03999 307.44 Q 97.64 306.8 97.92 306.32 Q 98.2 305.84 98.28 304.24 L 98.439995 299.12 Q 98.52 297.03998 97.28 295.52 Q 96.03999 294 93.72 294 Q 92.52 294 91.32 294.4 Q 90.119995 294.8 89.32 295.44 Q 88.84 295.76 88.68 296.4 Q 88.52 297.03998 88.52 297.76 Q 88.52 298.08002 88.56 298.47998 Q 88.6 298.88 88.6 299.2 Q 88.6 299.59998 87.6 300.28 Q 86.6 300.96 85.36 301.47998 Q 84.119995 302 83.32 302 Q 82.92 302 82.68 301.8 Q 82.439995 301.59998 82.439995 301.28 Q 82.439995 300 83.28 298.52 Q 84.119995 297.03998 85.64 295.76 Q 87.479996 294.08002 89.64 292.8 Q 91.799995 291.52002 93.88 290.8 Q 95.96 290.08002 97.56 290.08002 Q 100.439995 290.08002 102.32 292.12 Q 104.2 294.16 104.119995 297.2 L 103.72 316.4 Q 103.64 318.08002 104.479996 319.12 Q 105.32 320.16 106.6 320.16 Q 108.6 320.16 109.56 319.28 Q 109.96 318.88 110.2 318.88 Q 110.6 318.88 110.84 319.12 Q 111.08 319.36 111.08 319.76 Q 111.08 320.64 110.2 321.52002 Q 108.92 322.8 107.439995 323.56 Q 105.96 324.32 104.67999 324.32 Q 101 324.32 98.84 320.16 L 98.6 320.16 Q 95.96 322.32 93.56 323.32 Q 91.159996 324.32 88.6 324.32 Z M 92.36 320.47998 Q 93.96 320.47998 95.079994 319.96 Q 96.2 319.44 97.08 318.56 Q 97.479996 318.16 97.759995 317.47998 Q 98.03999 316.8 98.119995 315.28 L 98.28 311.36 Q 98.36 310.47998 98.2 310.08002 Q 98.03999 309.68 97.56 309.68 Q 97.399994 309.68 97 309.76 Q 96.6 309.84 95.96 310.08002 Q 91.72 311.59998 90.08 313.24 Q 88.439995 314.88 88.439995 316.24 Q 88.439995 318.32 89.68 319.4 Q 90.92 320.47998 92.36 320.47998 Z " fill="black"/>
    <rect x="111.08" y="266.8" width="31.84" height="81.399994" stroke="blue" stroke-width="1" fill="none"/>
    <path d="M 120.44 324.32 Q 119 324.32 117.520004 323.2 Q 116.04 322.08002 115.04 320.47998 Q 114.04 318.88 114.04 317.44 Q 114.04 314.88 115.4 313.44 Q 116.76 312 119.72 310.8 L 127.880005 307.44 Q 129.48 306.8 129.76001 306.32 Q 130.04001 305.84 130.12 304.24 L 130.28 299.12 Q 130.36 297.03998 129.12 295.52 Q 127.880005 294 125.56 294 Q 124.36 294 123.16 294.4 Q 121.96 294.8 121.16 295.44 Q 120.68 295.76 120.520004 296.4 Q 120.36 297.03998 120.36 297.76 Q 120.36 298.08002 120.4 298.47998 Q 120.44 298.88 120.44 299.2 Q 120.44 299.59998 119.44 300.28 Q 118.44 300.96 117.200005 301.47998 Q 115.96 302 115.16 302 Q 114.76 302 114.520004 301.8 Q 114.28 301.59998 114.28 301.28 Q 114.28 300 115.12 298.52 Q 115.96 297.03998 117.48 295.76 Q 119.32 294.08002 121.48 292.8 Q 123.64 291.52002 125.72 290.8 Q 127.8 290.08002 129.4 290.08002 Q 132.28 290.08002 134.16 292.12 Q 136.04001 294.16 135.96 297.2 L 135.56 316.4 Q 135.48 318.08002 136.32 319.12 Q 137.16 320.16 138.44 320.16 Q 140.44 320.16 141.4 319.28 Q 141.8 318.88 142.04001 318.88 Q 142.44 318.88 142.68 319.12 Q 142.92 319.36 142.92 319.76 Q 142.92 320.64 142.04001 321.52002 Q 140.76 322.8 139.28 323.56 Q 137.8 324.32 136.52 324.32 Q 132.84 324.32 130.68001 320.16 L 130.44 320.16 Q 127.8 322.32 125.4 323.32 Q 123 324.32 120.44 324.32 Z M 124.200005 320.47998 Q 125.8 320.47998 126.92 319.96 Q 128.04001 319.44 128.92 318.56 Q 129.32 318.16 129.6 317.47998 Q 129.88 316.8 129.96 315.28 L 130.12 311.36 Q 130.2 310.47998 130.04001 310.08002 Q 129.88 309.68 129.4 309.68 Q 129.24 309.68 128.84 309.76 Q 128.44 309.84 127.8 310.08002 Q 123.56 311.59998 121.92 313.24 Q 120.28 314.88 120.28 316.24 Q 120.28 318.32 121.520004 319.4 Q 122.76 320.47998 124.200005 320.47998 Z " fill="black"/>
    <rect x="142.92" y="266.8" width="31.84" height="81.399994" stroke="blue" stroke-width="1" fill="none"/>
    <path d="M 152.28 324.32 Q 150.84 324.32 149.36 323.2 Q 147.88 322.08002 146.88 320.47998 Q 145.88 318.88 145.88 317.44 Q 145.88 314.88 147.23999 313.44 Q 148.59999 312 151.56 310.8 L 159.72 307.44 Q 161.31999 306.8 161.6 306.32 Q 161.88 305.84 161.95999 304.24 L 162.12 299.12 Q 162.2 297.03998 160.95999 295.52 Q 159.72 294 157.4 294 Q 156.2 294 155 294.4 Q 153.8 294.8 153 295.44 Q 152.52 295.76 152.36 296.4 Q 152.2 297.03998 152.2 297.76 Q 152.2 298.08002 152.23999 298.47998 Q 152.28 298.88 152.28 299.2 Q 152.28 299.59998 151.28 300.28 Q 150.28 300.96 149.04 301.47998 Q 147.8 302 147 302 Q 146.59999 302 146.36 301.8 Q 146.12 301.59998 146.12 301.28 Q 146.12 300 146.95999 298.52 Q 147.8 297.03998 149.31999 295.76 Q 151.16 294.08002 153.31999 292.8 Q 155.48 291.52002 157.56 290.8 Q 159.64 290.08002 161.23999 290.08002 Q 164.12 290.08002 166 292.12 Q 167.88 294.16 167.8 297.2 L 167.4 316.4 Q 167.31999 318.08002 168.16 319.12 Q 169 320.16 170.28 320.16 Q 172.28 320.16 173.23999 319.28 Q 173.64 318.88 173.88 318.88 Q 174.28 318.88 174.51999 319.12 Q 174.76 319.36 174.76 319.76 Q 174.76 320.64 173.88 321.52002 Q 172.59999 322.8 171.12 323.56 Q 169.64 324.32 168.36 324.32 Q 164.68 324.32 162.52 320.16 L 162.28 320.16 Q 159.64 322.32 157.23999 323.32 Q 154.84 324.32 152.28 324.32 Z M 156.04 320.47998 Q 157.64 320.47998 158.76 319.96 Q 159.88 319.44 160.76 318.56 Q 161.16 318.16 161.44 317.47998 Q 161.72 316.8 161.8 315.28 L 161.95999 311.36 Q 162.04 310.47998 161.88 310.08002 Q 161.72 309.68 161.23999 309.68 Q 161.08 309.68 160.68 309.76 Q 160.28 309.84 159.64 310.08002 Q 155.4 311.59998 153.76 313.24 Q 152.12 314.88 152.12 316.24 Q 152.12 318.32 153.36 319.4 Q 154.59999 320.47998 156.04 320.47998 Z " fill="black"/>
    <rect x="298.5" y="129" width="2.5" height="87.5" stroke="blue" stroke-width="1" fill="none"/>
    <rect x="298.5" y="129" width="2.5" height="87.5" fill="black"/>
    <rect x="298.5" y="116.5" width="32.5" height="25" stroke="blue" stroke-width="1" fill="none"/>
    <path d="M 298.5 132.4 Q 298.5 126.4 305.1 120.85 Q 311.7 115.3 318.6 115.3 Q 321.4 115.3 323.95 116 Q 326.5 116.7 328.8 119.2 Q 331.1 121.7 331.1 125.6 Q 331.1 131.1 324.4 136.9 Q 317.7 142.7 311 142.7 Q 308.2 142.7 305.65 142 Q 303.1 141.3 300.8 138.8 Q 298.5 136.3 298.5 132.4 Z " fill="black"/>
    <rect x="291.8" y="266.8" width="38.399998" height="81.399994" stroke="blue" stroke-width="1" fill="none"/>
    <path d="M 312.52 324.32 Q 310.75998 324.32 309 324 Q 307.24 323.68 305.63998 323.28 Q 303.87997 322.8 302.56 322.4 Q 301.24 322 300.84 322 Q 300.36 322 299.91998 322.32 Q 299.47998 322.64 299.08 323.03998 Q 298.68 323.44 298.36 323.44 Q 298.03998 323.44 297.63998 323.16 Q 297.24 322.88 297.24 322.47998 Q 297.24 321.76 297.52 320 Q 297.8 318.24 297.8 316.72 L 297.8 277.91998 Q 297.8 275.84 296.75998 274.32 Q 295.72 272.8 294.12 272.08002 Q 293.8 271.91998 293.44 271.64 Q 293.08 271.36 293.08 270.88 Q 293.08 270.47998 293.4 270.32 Q 293.72 270.16 294.03998 270.08002 Q 295.08 269.84 296.87997 269.2 Q 298.68 268.56 300.28 267.91998 Q 301.87997 267.28 302.44 267.03998 Q 302.91998 266.8 303.15997 266.8 Q 303.31998 266.8 303.47998 266.96 Q 303.63998 267.12 303.63998 267.36 Q 303.63998 267.68 303.52 270.03998 Q 303.4 272.4 303.4 275.76 L 303.4 292.16 Q 303.4 293.68 303.56 294.2 Q 303.72 294.72 304.12 294.8 Q 306.59998 292.72 309.87997 291.4 Q 313.15997 290.08002 315.8 290.08002 Q 319.87997 290.08002 323.12 292.16 Q 326.36 294.24 328.28 297.8 Q 330.19998 301.36 330.19998 305.84 Q 330.19998 311.28 327.96 315.47998 Q 325.71997 319.68 321.75998 322 Q 317.8 324.32 312.52 324.32 Z M 314.36 321.84 Q 317.4 321.84 319.59998 319.96 Q 321.8 318.08002 323 314.84 Q 324.19998 311.59998 324.19998 307.59998 Q 324.19998 304.47998 323.03998 301.2 Q 321.87997 297.91998 319.44 295.68 Q 317 293.44 313.15997 293.44 Q 309.96 293.44 307.56 294.47998 Q 305.15997 295.52 303.4 297.12 L 303.4 312.64 Q 303.4 315.44 304.96 317.52002 Q 306.52 319.59998 309.03998 320.72 Q 311.56 321.84 314.36 321.84 Z " fill="black"/>
    <rect x="390.5" y="116.5" width="2.5" height="87.5" stroke="blue" stroke-width="1" fill="none"/>
    <rect x="390.5" y="116.5" width="2.5" height="87.5" fill="black"/>
    <rect x="390.5" y="104" width="32.5" height="25" stroke="blue" stroke-width="1" fill="none"/>
    <path d="M 390.5 119.9 Q 390.5 113.9 397.1 108.35 Q 403.7 102.8 410.6 102.8 Q 413.4 102.8 415.95 103.5 Q 418.5 104.2 420.8 106.7 Q 423.1 109.2 423.1 113.1 Q 423.1 118.6 416.4 124.4 Q 409.7 130.2 403 130.2 Q 400.2 130.2 397.65 129.5 Q 395.1 128.8 392.8 126.3 Q 390.5 123.8 390.5 119.9 Z " fill="black"/>
    <ellipse cx="395.5" cy="312.5" rx="5" ry="5" stroke="gray" stroke-width="1" fill="none"/>
    <rect x="464.5" y="79" width="2.5" height="87.5" stroke="blue" stroke-width="1" fill="none"/>
    <rect x="464.5" y="79" width="2.5" height="87.5" fill="black"/>
    <rect x="464.5" y="66.5" width="32.5" height="25" stroke="blue" stroke-width="1" fill="none"/>
    <path d="M 464.5 82.4 Q 464.5 76.4 471.1 70.85 Q 477.7 65.3 484.6 65.3 Q 487.4 65.3 489.95 66 Q 492.5 66.7 494.8 69.2 Q 497.1 71.7 497.1 75.6 Q 497.1 81.1 490.4 86.9 Q 483.7 92.7 477 92.7 Q 474.2 92.7 471.65 92 Q 469.1 91.3 466.8 88.8 Q 464.5 86.3 464.5 82.4 Z " fill="black"/>
    <ellipse cx="469.5" cy="312.5" rx="5" ry="5" stroke="gray" stroke-width="1" fill="none"/>
    <rect x="557.5" y="91.5" width="2.5" height="100" stroke="blue" stroke-width="1" fill="none"/>
    <rect x="557.5" y="91.5" width="2.5" height="100" fill="black"/>
    <rect x="557.5" y="79" width="32.5" height="25" stroke="blue" stroke-width="1" fill="none"/>
    <path d="M 557.5 94.9 Q 557.5 88.9 564.1 83.35 Q 570.7 77.8 577.6 77.8 Q 580.4 77.8 582.95 78.5 Q 585.5 79.2 587.8 81.7 Q 590.1 84.2 590.1 88.1 Q 590.1 93.6 583.4 99.4 Q 576.7 105.2 570 105.2 Q 567.2 105.2 564.65 104.5 Q 562.1 103.8 559.8 101.3 Q 557.5 98.8 557.5 94.9 Z " fill="black"/>
    <rect x="525" y="91.5" width="32.5" height="25" stroke="blue" stroke-width="1" fill="none"/>
    <path d="M 525 107.4 Q 525 101.4 531.6 95.85 Q 538.2 90.3 545.1 90.3 Q 547.9 90.3 550.45 91 Q 553 91.7 555.3 94.2 Q 557.6 96.7 557.6 100.6 Q 557.6 106.1 550.9 111.9 Q 544.2 117.7 537.5 117.7 Q 534.7 117.7 532.15 117 Q 529.6 116.3 527.3 113.8 Q 525 111.3 525 107.4 Z " fill="black"/>
    <rect x="497.5" y="54" width="27.5" height="75" stroke="blue" stroke-width="1" fill="none"/>
    <path d="M 502.1 112.6 Q 502.1 113.8 503.1 114.2 Q 504.3 114.7 505.1 113.9 Q 511.7 107.9 511.7 100.3 Q 511.7 97.6 510.55 95.6 Q 509.4 93.6 507.4 93.6 Q 505.2 93.6 503.8 95.5 Q 502.4 97.4 502.3 99.9 L 502.1 112.6 Z M 504.9 90.5 Q 509.1 88.4 511.8 88.4 Q 515.6 88.4 517.9 91.4 Q 520.2 94.4 520.2 98.6 Q 520.2 101.5 519.35 103.85 Q 518.5 106.2 516.7 108.15 Q 514.9 110.1 513.35 111.4 Q 511.8 112.7 509.3 114.55 Q 506.8 116.4 505.5 117.5 Q 505 117.9 504.2 119 Q 503.4 120.1 502.65 120.7 Q 501.9 121.3 501 121.3 Q 500 121.3 499.35 120.6 Q 498.7 119.9 498.7 118.8 L 497.5 58.3 Q 498.8 57.5 500.2 57.5 Q 501.6 57.5 502.9 58.3 L 502.3 88.9 Q 502.3 89.9 503.1 90.4 Q 504 91 504.9 90.5 Z " fill="black"/>
    <ellipse cx="562.5" cy="312.5" rx="5" ry="5" stroke="gray" stroke-width="1" fill="none"/>
    <rect x="649.5" y="129" width="2.5" height="87.5" stroke="blue" stroke-width="1" fill="none"/>
    <rect x="649.5" y="129" width="2.5" height="87.5" fill="black"/>
    <rect x="649.5" y="116.5" width="32.5" height="25" stroke="blue" stroke-width="1" fill="none"/>
    <path d="M 649.5 132.4 Q 649.5 126.4 656.1 120.85 Q 662.7 115.3 669.6 115.3 Q 672.4 115.3 674.95 116 Q 677.5 116.7 679.8 119.2 Q 682.1 121.7 682.1 125.6 Q 682.1 131.1 675.4 136.9 Q 668.7 142.7 662 142.7 Q 659.2 142.7 656.65 142 Q 654.1 141.3 651.8 138.8 Q 649.5 136.3 649.5 132.4 Z " fill="black"/>
    <rect x="619.5" y="91.5" width="30.000002" height="75" stroke="blue" stroke-width="1" fill="none"/>
    <path d="M 641.1 119.4 L 641.1 131.6 Q 641.1 132.4 641.6 132.9 Q 642.1 133.4 642.9 133.4 Q 643.2 133.4 643.5 133.3 L 644.3 133 Q 644.6 132.9 645 132.9 Q 645.8 132.9 646.4 133.5 Q 647 134.1 647 134.9 L 647 140.9 Q 647 142.2 645.7 142.7 L 642.3 144 Q 641.1 144.5 641.1 145.6 L 641.1 160.2 Q 641.1 161 640.55 161.55 Q 640 162.1 639.3 162.1 Q 638.5 162.1 637.95 161.55 Q 637.4 161 637.4 160.2 L 637.4 148.3 Q 637.4 147.5 636.85 147 Q 636.3 146.5 635.6 146.5 Q 635.2 146.5 634.9 146.6 L 630.3 148.4 Q 629.1 148.8 629.1 150 L 629.1 164.6 Q 629.1 165.4 628.5 165.95 Q 627.9 166.5 627.2 166.5 Q 626.5 166.5 625.95 165.95 Q 625.4 165.4 625.4 164.6 L 625.4 152.7 Q 625.4 151.9 624.85 151.4 Q 624.3 150.9 623.6 150.9 Q 623.3 150.9 623 151 L 622.2 151.3 Q 622 151.4 621.5 151.4 Q 620.7 151.4 620.1 150.8 Q 619.5 150.2 619.5 149.4 L 619.5 143.4 Q 619.5 142 620.8 141.5 L 624.2 140.3 Q 625.4 140 625.4 138.6 L 625.4 126.4 Q 625.4 125.6 624.85 125.1 Q 624.3 124.6 623.6 124.6 Q 623.3 124.6 623.1 124.7 L 622.2 125 Q 622 125.1 621.5 125.1 Q 620.7 125.1 620.1 124.5 Q 619.5 123.9 619.5 123.1 L 619.5 117.1 Q 619.5 115.8 620.8 115.3 L 624.3 114 Q 625.4 113.5 625.4 112.4 L 625.4 97.8 Q 625.4 97 625.95 96.45 Q 626.5 95.899994 627.2 95.899994 Q 627.9 95.899994 628.5 96.45 Q 629.1 97 629.1 97.8 L 629.1 109.7 Q 629.1 110.5 629.65 111 Q 630.2 111.5 631 111.5 Q 631.3 111.5 631.6 111.4 L 636.2 109.6 Q 637.4 109.1 637.4 107.9 L 637.4 93.399994 Q 637.4 92.6 637.95 92.05 Q 638.5 91.5 639.3 91.5 Q 640 91.5 640.55 92.05 Q 641.1 92.6 641.1 93.399994 L 641.1 105.4 Q 641.1 106.1 641.6 106.6 Q 642.1 107.1 642.8 107.1 Q 643.1 107.1 643.5 107 L 644.3 106.7 Q 644.5 106.6 645 106.6 Q 645.8 106.6 646.4 107.2 Q 647 107.8 647 108.6 L 647 114.6 Q 647 116 645.7 116.5 L 642.3 117.7 Q 641.1 118 641.1 119.4 Z M 637.4 134.2 L 637.4 122.1 Q 637.4 121.4 636.85 120.85 Q 636.3 120.3 635.6 120.3 Q 635.3 120.3 635 120.4 L 630.3 122.1 Q 629.1 122.6 629.1 123.8 L 629.1 135.9 Q 629.1 136.7 629.6 137.2 Q 630.1 137.7 630.9 137.7 Q 631.2 137.7 631.5 137.6 L 636.2 135.9 Q 637.4 135.4 637.4 134.2 Z " fill="black"/>
    <ellipse cx="654.5" cy="312.5" rx="5" ry="5" stroke="gray" stroke-width="1" fill="none"/>
    <rect x="741.5" y="111.5" width="10" height="10" stroke="orange" stroke-width="1" fill="none"/>
    <path d="M 741.5 167.7 L 741.5 165.2 L 841.5 165.2 L 841.5 167.7 L 741.5 167.7 Z M 741.5 142.7 L 741.5 140.2 L 841.5 140.2 L 841.5 142.7 L 741.5 142.7 Z M 741.5 117.7 L 741.5 115.2 L 841.5 115.2 L 841.5 117.7 L 741.5 117.7 Z M 741.5 92.7 L 741.5 90.2 L 841.5 90.2 L 841.5 92.7 L 741.5 92.7 Z M 741.5 67.7 L 741.5 65.2 L 841.5 65.2 L 841.5 67.7 L 741.5 67.7 Z " fill="orange"/>
    <rect x="741.5" y="302.5" width="10" height="10" stroke="orange" stroke-width="1" fill="none"/>
    <path d="M 741.5 358.7 L 741.5 356.2 L 841.5 356.2 L 841.5 358.7 L 741.5 358.7 Z M 741.5 333.7 L 741.5 331.2 L 841.5 331.2 L 841.5 333.7 L 741.5 333.7 Z M 741.5 308.7 L 741.5 306.2 L 841.5 306.2 L 841.5 308.7 L 741.5 308.7 Z M 741.5 283.7 L 741.5 281.2 L 841.5 281.2 L 841.5 283.7 L 741.5 283.7 Z M 741.5 258.7 L 741.5 256.2 L 841.5 256.2 L 841.5 258.7 L 741.5 258.7 Z " fill="orange"/>
    <rect x="0" y="0" width="841.5" height="358.7" stroke="black" stroke-width="1" fill="none"/>
</svg>
