<svg xmlns="http://www.w3.org/2000/svg" xmlns:xlink="http://www.w3.org/1999/xlink" viewBox="0 0 603.5 251.9">
    <line x1="1.25" y1="63.699997" x2="602.25" y2="63.699997" stroke="black" stroke-width="2.5"/>
    <line x1="1.25" y1="88.7" x2="602.25" y2="88.7" stroke="black" stroke-width="2.5"/>
    <line x1="1.25" y1="113.7" x2="602.25" y2="113.7" stroke="black" stroke-width="2.5"/>
    <line x1="1.25" y1="138.7" x2="602.25" y2="138.7" stroke="black" stroke-width="2.5"/>
    <line x1="1.25" y1="163.7" x2="602.25" y2="163.7" stroke="black" stroke-width="2.5"/>
    <rect x="1.25" y="38.699997" width="10" height="150" stroke="orange" stroke-width="1" fill="none"/>
    <rect x="72.25" y="201.2" width="41.25" height="25" stroke="red" stroke-width="1" fill="none"/>
    <path d="M 72.25 212.2 Q 72.25 207.79999 77.05 203.9 Q 81.85 200 90.85 200 Q 96.95 200 101.95 201.45 Q 106.95 202.9 110.45 206.45 Q 113.95 210 113.95 215.2 Q 113.95 220.4 109.4 223.9 Q 104.850006 227.4 96.75 227.4 Q 91.95 227.4 87.95 226.7 Q 83.95 226 80.25 224.4 Q 76.55 222.79999 74.4 219.7 Q 72.25 216.6 72.25 212.2 Z M 90.85 202.7 Q 82.05 202.7 82.05 205.79999 Q 82.05 209.29999 87.4 217 Q 92.75 224.7 96.35 224.7 Q 104.95 224.7 104.95 221.6 Q 104.95 217.79999 99.4 210.25 Q 93.85 202.7 90.85 202.7 Z " fill="black"/>
    <rect x="113.5" y="201.2" width="5" height="25" stroke="red" stroke-width="1" fill="none"/>
    <rect x="113.5" y="188.7" width="41.25" height="25" stroke="red" stroke-width="1" fill="none"/>
    <path d="M 113.5 199.7 Q 113.5 195.29999 118.3 191.4 Q 123.1 187.5 132.1 187.5 Q 138.2 187.5 143.2 188.95 Q 148.2 190.4 151.7 193.95 Q 155.2 197.5 155.2 202.7 Q 155.2 207.9 150.65 211.4 Q 146.1 214.9 138 214.9 Q 133.2 214.9 129.2 214.2 Q 125.2 213.5 121.5 211.9 Q 117.8 210.29999 115.65 207.2 Q 113.5 204.1 113.5 199.7 Z M 132.1 190.2 Q 123.3 190.2 123.3 193.29999 Q 123.3 196.79999 128.65 204.5 Q 134 212.2 137.6 212.2 Q 146.2 212.2 146.2 209.1 Q 146.2 205.29999 140.65 197.75 Q 135.1 190.2 132.1 190.2 Z " fill="black"/>
    <rect x="154.75" y="188.7" width="5" height="25" stroke="red" stroke-width="1" fill="none"/>
    <rect x="66" y="212.45" width="53.75" height="2.5" stroke="red" stroke-width="1" fill="none"/>
    <rect x="66" y="212.45" width="53.75" height="2.5" fill="black"/>
    <rect x="66" y="187.45" width="95" height="2.5" stroke="red" stroke-width="1" fill="none"/>
    <rect x="66" y="187.45" width="95" height="2.5" fill="black"/>
    <rect x="36" y="163.7" width="30.000002" height="75" stroke="red" stroke-width="1" fill="none"/>
    <path d="M 57.6 191.6 L 57.6 203.79999 Q 57.6 204.6 58.1 205.1 Q 58.6 205.6 59.4 205.6 Q 59.7 205.6 60 205.5 L 60.800003 205.2 Q 61.1 205.1 61.5 205.1 Q 62.300003 205.1 62.9 205.7 Q 63.5 206.29999 63.5 207.1 L 63.5 213.1 Q 63.5 214.4 62.2 214.9 L 58.800003 216.2 Q 57.6 216.7 57.6 217.79999 L 57.6 232.4 Q 57.6 233.2 57.050003 233.75 Q 56.5 234.3 55.800003 234.3 Q 55 234.3 54.45 233.75 Q 53.9 233.2 53.9 232.4 L 53.9 220.5 Q 53.9 219.7 53.35 219.2 Q 52.800003 218.7 52.1 218.7 Q 51.7 218.7 51.4 218.79999 L 46.8 220.6 Q 45.6 221 45.6 222.2 L 45.6 236.8 Q 45.6 237.6 45 238.15 Q 44.4 238.7 43.7 238.7 Q 43 238.7 42.45 238.15 Q 41.9 237.6 41.9 236.8 L 41.9 224.9 Q 41.9 224.1 41.35 223.6 Q 40.8 223.1 40.1 223.1 Q 39.8 223.1 39.5 223.2 L 38.7 223.5 Q 38.5 223.6 38 223.6 Q 37.2 223.6 36.6 223 Q 36 222.4 36 221.6 L 36 215.6 Q 36 214.2 37.3 213.7 L 40.7 212.5 Q 41.9 212.2 41.9 210.79999 L 41.9 198.6 Q 41.9 197.79999 41.35 197.29999 Q 40.8 196.79999 40.1 196.79999 Q 39.8 196.79999 39.6 196.9 L 38.7 197.2 Q 38.5 197.29999 38 197.29999 Q 37.2 197.29999 36.6 196.7 Q 36 196.1 36 195.29999 L 36 189.29999 Q 36 188 37.3 187.5 L 40.8 186.2 Q 41.9 185.7 41.9 184.6 L 41.9 170 Q 41.9 169.2 42.45 168.65 Q 43 168.09999 43.7 168.09999 Q 44.4 168.09999 45 168.65 Q 45.6 169.2 45.6 170 L 45.6 181.9 Q 45.6 182.7 46.15 183.2 Q 46.7 183.7 47.5 183.7 Q 47.8 183.7 48.1 183.6 L 52.7 181.79999 Q 53.9 181.29999 53.9 180.1 L 53.9 165.59999 Q 53.9 164.79999 54.45 164.25 Q 55 163.7 55.800003 163.7 Q 56.5 163.7 57.050003 164.25 Q 57.6 164.79999 57.6 165.59999 L 57.6 177.6 Q 57.6 178.29999 58.1 178.79999 Q 58.6 179.29999 59.300003 179.29999 Q 59.6 179.29999 60 179.2 L 60.800003 178.9 Q 61 178.79999 61.5 178.79999 Q 62.300003 178.79999 62.9 179.4 Q 63.5 180 63.5 180.79999 L 63.5 186.79999 Q 63.5 188.2 62.2 188.7 L 58.800003 189.9 Q 57.6 190.2 57.6 191.6 Z M 53.9 206.4 L 53.9 194.29999 Q 53.9 193.6 53.35 193.04999 Q 52.800003 192.5 52.1 192.5 Q 51.8 192.5 51.5 192.6 L 46.8 194.29999 Q 45.6 194.79999 45.6 196 L 45.6 208.1 Q 45.6 208.9 46.1 209.4 Q 46.6 209.9 47.4 209.9 Q 47.7 209.9 48 209.79999 L 52.7 208.1 Q 53.9 207.6 53.9 206.4 Z " fill="black"/>
    <rect x="11" y="176.2" width="25" height="75" stroke="red" stroke-width="1" fill="none"/>
    <path d="M 17.9 195.7 L 28.7 193.5 L 29 193.5 Q 30.800001 193.5 30.800001 195.2 L 31.5 251.2 Q 30.1 251.9 29 251.9 Q 27.9 251.9 26.5 251.2 L 26.8 233.5 Q 26.8 232.79999 26.3 232.25 Q 25.8 231.7 25 231.7 Q 24.8 231.7 24.7 231.7 L 13.9 234 L 13.6 234 Q 11.8 234 11.8 232.29999 L 11 176.2 Q 12.4 175.5 13.6 175.5 Q 14.7 175.5 16.1 176.2 L 15.8 193.79999 Q 15.8 194.6 16.3 195.15 Q 16.8 195.7 17.6 195.7 Q 17.7 195.7 17.9 195.7 Z M 17.5 223.7 L 25.400002 221.9 Q 26.900002 221.6 26.900002 220.1 L 27.2 205.6 Q 27.2 204.79999 26.6 204.2 Q 26 203.6 25.2 203.79999 L 17.2 205.5 Q 15.700001 205.79999 15.700001 207.2 L 15.4 222 Q 15.4 222.79999 16.05 223.35 Q 16.7 223.9 17.5 223.7 Z " fill="black"/>
    <rect x="332.25" y="1.199997" width="41.25" height="25" stroke="red" stroke-width="1" fill="none"/>
    <path d="M 332.25 12.199997 Q 332.25 7.7999954 337.05 3.899994 Q 341.85 0 350.85 0 Q 356.95 0 361.95 1.449997 Q 366.95 2.899994 370.45 6.449997 Q 373.95 10 373.95 15.199997 Q 373.95 20.399994 369.4 23.899994 Q 364.85 27.399994 356.75 27.399994 Q 351.95 27.399994 347.95 26.699997 Q 343.95 26 340.25 24.399994 Q 336.55 22.799995 334.4 19.699997 Q 332.25 16.599998 332.25 12.199997 Z M 350.85 2.699997 Q 342.05 2.699997 342.05 5.7999954 Q 342.05 9.299995 347.4 17 Q 352.75 24.699997 356.35 24.699997 Q 364.95 24.699997 364.95 21.599998 Q 364.95 17.799995 359.4 10.25 Q 353.85 2.699997 350.85 2.699997 Z " fill="black"/>
    <rect x="373.5" y="1.199997" width="5" height="25" stroke="red" stroke-width="1" fill="none"/>
    <rect x="291" y="13.699997" width="41.25" height="25" stroke="red" stroke-width="1" fill="none"/>
    <path d="M 291 24.699997 Q 291 20.299995 295.8 16.399994 Q 300.6 12.5 309.6 12.5 Q 315.7 12.5 320.7 13.949997 Q 325.7 15.399994 329.2 18.949997 Q 332.7 22.5 332.7 27.699997 Q 332.7 32.899994 328.15 36.399994 Q 323.6 39.899994 315.5 39.899994 Q 310.7 39.899994 306.7 39.199997 Q 302.7 38.5 299 36.899994 Q 295.3 35.299995 293.15 32.199997 Q 291 29.099998 291 24.699997 Z M 309.6 15.199997 Q 300.8 15.199997 300.8 18.299995 Q 300.8 21.799995 306.15 29.5 Q 311.5 37.199997 315.1 37.199997 Q 323.7 37.199997 323.7 34.1 Q 323.7 30.299995 318.15 22.75 Q 312.6 15.199997 309.6 15.199997 Z " fill="black"/>
    <rect x="332.25" y="13.699997" width="5" height="25" stroke="red" stroke-width="1" fill="none"/>
    <rect x="326" y="12.449997" width="53.75" height="2.5" stroke="red" stroke-width="1" fill="none"/>
    <rect x="326" y="12.449997" width="53.75" height="2.5" fill="black"/>
    <rect x="284.75" y="37.449997" width="95" height="2.5" stroke="red" stroke-width="1" fill="none"/>
    <rect x="284.75" y="37.449997" width="95" height="2.5" fill="black"/>
    <rect x="592.25" y="38.699997" width="10" height="150" stroke="orange" stroke-width="1" fill="none"/>
    <rect x="0" y="0" width="603.5" height="251.9" stroke="black" stroke-width="1" fill="none"/>
</svg>
