<svg xmlns="http://www.w3.org/2000/svg" xmlns:xlink="http://www.w3.org/1999/xlink" viewBox="0 0 351 281">
    <rect x="0.5" y="135.5" width="10" height="10" stroke="orange" stroke-width="1" fill="none"/>
    <rect x="0.5" y="103" width="32.5" height="25" stroke="lightgray" stroke-width="1" fill="none"/>
    <path d="M 0.5 118.9 Q 0.5 112.9 7.1 107.35 Q 13.7 101.8 20.6 101.8 Q 23.4 101.8 25.95 102.5 Q 28.5 103.2 30.800001 105.7 Q 33.100002 108.2 33.100002 112.1 Q 33.100002 117.6 26.4 123.4 Q 19.7 129.2 13 129.2 Q 10.2 129.2 7.65 128.5 Q 5.1 127.8 2.8 125.3 Q 0.5 122.8 0.5 118.9 Z " fill="black"/>
    <rect x="0.5" y="165.5" width="32.5" height="25" stroke="lightgray" stroke-width="1" fill="none"/>
    <path d="M 0.5 181.4 Q 0.5 175.4 7.1 169.85 Q 13.7 164.3 20.6 164.3 Q 23.4 164.3 25.95 165 Q 28.5 165.7 30.800001 168.2 Q 33.100002 170.7 33.100002 174.6 Q 33.100002 180.1 26.4 185.9 Q 19.7 191.7 13 191.7 Q 10.2 191.7 7.65 191 Q 5.1 190.3 2.8 187.8 Q 0.5 185.3 0.5 181.4 Z " fill="black"/>
    <rect x="30" y="13" width="3" height="102.5" stroke="lightgray" stroke-width="1" fill="none"/>
    <rect x="30" y="13" width="3" height="102.5" fill="black"/>
    <rect x="0.5" y="178" width="3" height="90" stroke="lightgray" stroke-width="1" fill="none"/>
    <rect x="0.5" y="178" width="3" height="90" fill="black"/>
    <rect x="85.5" y="153" width="32.5" height="25" stroke="lightgray" stroke-width="1" fill="none"/>
    <path d="M 85.5 168.9 Q 85.5 162.9 92.1 157.35 Q 98.7 151.8 105.6 151.8 Q 108.4 151.8 110.95 152.5 Q 113.5 153.2 115.8 155.7 Q 118.100006 158.2 118.100006 162.1 Q 118.100006 167.6 111.4 173.4 Q 104.7 179.2 98 179.2 Q 95.2 179.2 92.65 178.5 Q 90.1 177.8 87.8 175.3 Q 85.5 172.8 85.5 168.9 Z " fill="black"/>
    <rect x="170.5" y="90.5" width="32.5" height="25" stroke="lightgray" stroke-width="1" fill="none"/>
    <path d="M 170.5 106.4 Q 170.5 100.4 177.1 94.85 Q 183.7 89.3 190.6 89.3 Q 193.4 89.3 195.95 90 Q 198.5 90.7 200.8 93.2 Q 203.1 95.7 203.1 99.6 Q 203.1 105.1 196.4 110.9 Q 189.7 116.7 183 116.7 Q 180.2 116.7 177.65 116 Q 175.1 115.3 172.8 112.8 Q 170.5 110.3 170.5 106.4 Z " fill="black"/>
    <rect x="170.5" y="178" width="32.5" height="25" stroke="lightgray" stroke-width="1" fill="none"/>
    <path d="M 170.5 193.9 Q 170.5 187.9 177.1 182.35 Q 183.7 176.8 190.6 176.8 Q 193.4 176.8 195.95 177.5 Q 198.5 178.2 200.8 180.7 Q 203.1 183.2 203.1 187.1 Q 203.1 192.6 196.4 198.4 Q 189.7 204.2 183 204.2 Q 180.2 204.2 177.65 203.5 Q 175.1 202.8 172.8 200.3 Q 170.5 197.8 170.5 193.9 Z " fill="black"/>
    <rect x="170.5" y="190.5" width="3" height="90" stroke="lightgray" stroke-width="1" fill="none"/>
    <rect x="170.5" y="190.5" width="3" height="90" fill="black"/>
    <rect x="255.5" y="78" width="32.5" height="25" stroke="lightgray" stroke-width="1" fill="none"/>
    <path d="M 255.5 93.9 Q 255.5 87.9 262.1 82.35 Q 268.7 76.8 275.6 76.8 Q 278.4 76.8 280.95 77.5 Q 283.5 78.2 285.8 80.7 Q 288.1 83.2 288.1 87.1 Q 288.1 92.6 281.4 98.4 Q 274.7 104.2 268 104.2 Q 265.2 104.2 262.65 103.5 Q 260.1 102.8 257.8 100.3 Q 255.5 97.8 255.5 93.9 Z " fill="black"/>
    <rect x="285" y="0.5" width="3" height="90" stroke="lightgray" stroke-width="1" fill="none"/>
    <rect x="285" y="0.5" width="3" height="90" fill="black"/>
    <rect x="340.5" y="135.5" width="10" height="10" stroke="orange" stroke-width="1" fill="none"/>
    <rect x="0" y="0" width="351" height="281" stroke="black" stroke-width="1" fill="none"/>
</svg>
