<svg xmlns="http://www.w3.org/2000/svg" xmlns:xlink="http://www.w3.org/1999/xlink" viewBox="0 0 879 400.2">
    <rect x="0.5" y="123" width="10" height="10" stroke="orange" stroke-width="1" fill="none"/>
    <rect x="0.5" y="354" width="10" height="10" stroke="orange" stroke-width="1" fill="none"/>
    <rect x="10.5" y="12" width="74" height="186" stroke="orange" stroke-width="1" fill="none"/>
    <path d="M 35.300003 70.5 Q 33 63.199997 32.1 57.5 Q 31.300001 52.699997 31.300001 46.299995 Q 31.300001 44.1 31.4 41.9 Q 31.800001 32.4 35.300003 24.449997 Q 38.800003 16.5 45.8 12.299995 Q 46.3 12 47.100002 12 Q 47.8 12 48.3 12.5 Q 53.9 18.099998 56.9 26.799995 Q 59.9 35.5 59.9 44.4 Q 59.9 54.699997 55.5 64.6 Q 51.3 74.5 43.7 82.1 Q 43.100002 82.7 43.3 83.7 L 47.3 99.7 Q 47.600002 101.3 49.3 101.1 Q 50.9 100.9 52.4 100.9 Q 58.2 100.9 62.9 103.2 Q 67.600006 105.5 70.5 109.2 Q 73.4 112.9 74.950005 117.35 Q 76.5 121.8 76.5 126.5 Q 76.5 135.1 71.7 142.05 Q 66.9 149 60.2 151.2 Q 58.8 151.7 59.100002 153.3 Q 61.600002 165.1 61.7 173.2 Q 61.7 176.3 61.3 179.3 Q 60.5 186.2 55.3 191.4 Q 50.100002 196.6 42.9 196.6 Q 34.1 196.6 28 191.3 Q 21.900002 186 21.900002 177.4 Q 21.900002 173 25 169.8 Q 28.1 166.6 32.300003 166.6 Q 36.6 166.6 39.550003 169.65 Q 42.5 172.7 42.5 176.9 Q 42.5 180.5 40.1 183.2 Q 37.7 186 34.300003 186.3 Q 33.1 186.4 32.7 187.5 Q 32.300003 188.6 33.5 189.5 Q 37.1 192.3 42.300003 192.3 Q 48 192.3 52.15 188.2 Q 56.3 184.1 57 178.9 Q 57.5 175.3 57.5 171.7 Q 57.5 163.9 55.100002 154.4 Q 54.7 152.7 52.9 152.9 Q 48.9 153.4 45.5 153.4 Q 30.7 153.4 20.6 144.1 Q 10.5 134.8 10.5 118.8 Q 10.5 113.9 11.65 109.15 Q 12.8 104.4 14.25 100.95 Q 15.700001 97.5 18.75 92.95 Q 21.8 88.399994 23.650002 86 Q 25.5 83.6 29.5 78.85 Q 33.5 74.1 35 72.2 Q 35.6 71.5 35.300003 70.5 Z M 50.9 116.2 L 57.4 145.7 Q 57.7 147 59.2 147 Q 59.600002 147 59.9 146.9 Q 64 145.2 66.7 140.3 Q 69.4 135.4 69.4 130.6 Q 69.4 123.6 65.3 118.8 Q 61.100002 113.9 52.7 113.9 Q 52 113.9 51.45 114.45 Q 50.9 115 50.9 115.7 Q 50.8 116 50.9 116.2 Z M 37.1 88.399994 Q 35.5 90.2 32.35 93.55 Q 29.2 96.9 27.65 98.65 Q 26.1 100.4 23.85 103.6 Q 21.6 106.8 20.5 109.5 Q 19.400002 112.2 18.55 116.1 Q 17.7 120 17.7 124.4 Q 17.7 130.5 21.45 136.2 Q 25.2 141.9 31.75 145.5 Q 38.300003 149.1 45.8 149.1 Q 48.5 149.1 51.8 148.8 Q 52.600002 148.7 53.100002 148.05 Q 53.600002 147.4 53.4 146.6 L 46.9 116.7 Q 46.600002 115.3 45 115.3 Q 44.7 115.3 44.3 115.4 Q 39.7 117.1 37.800003 120.2 Q 35.9 123.3 35.9 128 Q 35.9 133.5 41.9 137.5 Q 42.600002 138 42.600002 139 Q 42.600002 139.8 41.95 140.5 Q 41.300003 141.2 40.4 141.2 Q 39.9 141.2 39.5 141 Q 33.800003 138 31.050001 132.85 Q 28.300001 127.7 28.300001 122 Q 28.300001 116.5 32.25 110.65 Q 36.2 104.8 42.1 102.6 Q 43.600002 102 43.3 100.5 L 40.300003 89.2 Q 40.1 88.1 38.9 87.899994 Q 37.7 87.7 37.1 88.399994 Z M 53.9 30.199997 Q 53.100002 27.599998 51.2 27.599998 Q 50.600002 27.599998 50.100002 27.900002 Q 43.7 31.699997 39.95 38.6 Q 36.2 45.5 36.2 53.199997 Q 36.2 58.199997 38.300003 65.5 Q 38.6 66.6 39.800003 66.8 Q 40.800003 66.899994 41.5 66.1 Q 41.800003 65.7 44.350002 62.549995 Q 46.9 59.4 47.7 58.35 Q 48.5 57.299995 50.4 54.35 Q 52.3 51.4 53.05 49.449997 Q 53.8 47.5 54.5 44.6 Q 55.2 41.699997 55.2 38.799995 Q 55.2 34.6 53.9 30.199997 Z " fill="black"/>
    <ellipse cx="15.5" cy="364" rx="5" ry="5" stroke="gray" stroke-width="1" fill="none"/>
    <rect x="114.5" y="128" width="32.5" height="25" stroke="lightgray" stroke-width="1" fill="none"/>
    <path d="M 114.5 143.9 Q 114.5 137.9 121.1 132.35 Q 127.7 126.8 134.6 126.8 Q 137.4 126.8 139.95 127.5 Q 142.5 128.2 144.8 130.7 Q 147.1 133.2 147.1 137.1 Q 147.1 142.6 140.4 148.4 Q 133.7 154.2 127 154.2 Q 124.2 154.2 121.65 153.5 Q 119.1 152.8 116.8 150.3 Q 114.5 147.8 114.5 143.9 Z " fill="black"/>
    <rect x="114.5" y="168" width="25" height="70" stroke="lightgray" stroke-width="1" fill="none"/>
    <path d="M 125 213.4 Q 125.7 213.4 126.15 212.95 Q 126.6 212.5 126.6 211.9 Q 126.6 211.3 126.2 210.9 L 119 202.8 Q 116 199.4 116 196.5 Q 116 194 123.1 187.8 Q 126.8 184.5 126.8 179.5 Q 126.8 175.6 124.3 172.6 L 120.8 168.4 Q 120.4 167.9 120.4 167.4 Q 120.4 165.9 121.8 165.9 Q 122.7 165.9 123.3 166.6 L 138.3 184.4 Q 139.3 185.6 139.3 186.9 Q 139.3 188 138.5 189.2 Q 137.7 190.4 136.8 191.25 Q 135.9 192.1 134.15 193.55 Q 132.4 195 131.7 195.7 Q 127.5 199.6 127.5 204.3 Q 127.5 207.9 131.6 212.3 L 140 221.4 Q 140.4 221.8 140.4 222.4 Q 140.4 223 139.95 223.45 Q 139.5 223.9 139 223.9 Q 138.3 223.9 136.9 222.8 Q 133.2 220 129 220 Q 126.1 220 123.95 222.25 Q 121.8 224.5 121.8 227.4 Q 121.8 228.7 122 229.75 Q 122.2 230.8 122.75 231.9 Q 123.3 233 123.5 233.4 Q 123.7 233.8 124.6 235.05 Q 125.5 236.3 125.6 236.4 Q 125.9 236.8 125.8 237.3 Q 125.7 237.8 125.25 238.05 Q 124.8 238.3 124.3 238.2 Q 123.8 238.1 123 237.3 Q 119.6 233.8 117.05 229.45 Q 114.5 225.1 114.5 221.9 Q 114.5 218 117.25 215.7 Q 120 213.4 125 213.4 Z " fill="black"/>
    <rect x="84.5" y="103" width="30.000002" height="75" stroke="lightgray" stroke-width="1" fill="none"/>
    <path d="M 106.1 130.9 L 106.1 143.1 Q 106.1 143.9 106.6 144.4 Q 107.1 144.9 107.9 144.9 Q 108.2 144.9 108.5 144.8 L 109.3 144.5 Q 109.6 144.4 110 144.4 Q 110.8 144.4 111.4 145 Q 112 145.6 112 146.4 L 112 152.4 Q 112 153.7 110.7 154.2 L 107.3 155.5 Q 106.1 156 106.1 157.1 L 106.1 171.7 Q 106.1 172.5 105.55 173.05 Q 105 173.6 104.3 173.6 Q 103.5 173.6 102.95 173.05 Q 102.4 172.5 102.4 171.7 L 102.4 159.8 Q 102.4 159 101.85 158.5 Q 101.3 158 100.6 158 Q 100.2 158 99.9 158.1 L 95.3 159.9 Q 94.1 160.3 94.1 161.5 L 94.1 176.1 Q 94.1 176.9 93.5 177.45 Q 92.9 178 92.2 178 Q 91.5 178 90.95 177.45 Q 90.4 176.9 90.4 176.1 L 90.4 164.2 Q 90.4 163.4 89.85 162.9 Q 89.3 162.4 88.6 162.4 Q 88.3 162.4 88 162.5 L 87.2 162.8 Q 87 162.9 86.5 162.9 Q 85.7 162.9 85.1 162.3 Q 84.5 161.7 84.5 160.9 L 84.5 154.9 Q 84.5 153.5 85.8 153 L 89.2 151.8 Q 90.4 151.5 90.4 150.1 L 90.4 137.9 Q 90.4 137.1 89.85 136.6 Q 89.3 136.1 88.6 136.1 Q 88.3 136.1 88.1 136.2 L 87.2 136.5 Q 87 136.6 86.5 136.6 Q 85.7 136.6 85.1 136 Q 84.5 135.4 84.5 134.6 L 84.5 128.6 Q 84.5 127.3 85.8 126.8 L 89.3 125.5 Q 90.4 125 90.4 123.9 L 90.4 109.3 Q 90.4 108.5 90.95 107.95 Q 91.5 107.399994 92.2 107.399994 Q 92.9 107.399994 93.5 107.95 Q 94.1 108.5 94.1 109.3 L 94.1 121.2 Q 94.1 122 94.65 122.5 Q 95.2 123 96 123 Q 96.3 123 96.6 122.9 L 101.2 121.1 Q 102.4 120.6 102.4 119.4 L 102.4 104.899994 Q 102.4 104.1 102.95 103.55 Q 103.5 103 104.3 103 Q 105 103 105.55 103.55 Q 106.1 104.1 106.1 104.899994 L 106.1 116.9 Q 106.1 117.6 106.6 118.1 Q 107.1 118.6 107.8 118.6 Q 108.1 118.6 108.5 118.5 L 109.3 118.2 Q 109.5 118.1 110 118.1 Q 110.8 118.1 111.4 118.7 Q 112 119.3 112 120.1 L 112 126.1 Q 112 127.5 110.7 128 L 107.3 129.2 Q 106.1 129.5 106.1 130.9 Z M 102.4 145.7 L 102.4 133.6 Q 102.4 132.9 101.85 132.35 Q 101.3 131.8 100.6 131.8 Q 100.3 131.8 100 131.9 L 95.3 133.6 Q 94.1 134.1 94.1 135.3 L 94.1 147.4 Q 94.1 148.2 94.6 148.7 Q 95.1 149.2 95.9 149.2 Q 96.2 149.2 96.5 149.1 L 101.2 147.4 Q 102.4 146.9 102.4 145.7 Z " fill="black"/>
    <rect x="144" y="50.5" width="3" height="90" stroke="lightgray" stroke-width="1" fill="none"/>
    <rect x="144" y="50.5" width="3" height="90" fill="black"/>
    <rect x="95.159996" y="318.3" width="31.84" height="81.399994" stroke="lightgray" stroke-width="1" fill="none"/>
    <path d="M 104.52 375.82 Q 103.079994 375.82 101.6 374.7 Q 100.119995 373.58002 99.119995 371.97998 Q 98.119995 370.38 98.119995 368.94 Q 98.119995 366.38 99.479996 364.94 Q 100.84 363.5 103.799995 362.3 L 111.95999 358.94 Q 113.56 358.3 113.84 357.82 Q 114.119995 357.34 114.2 355.74 L 114.35999 350.62 Q 114.439995 348.53998 113.2 347.02 Q 111.95999 345.5 109.64 345.5 Q 108.439995 345.5 107.24 345.9 Q 106.03999 346.3 105.24 346.94 Q 104.759995 347.26 104.6 347.9 Q 104.439995 348.53998 104.439995 349.26 Q 104.439995 349.58002 104.479996 349.97998 Q 104.52 350.38 104.52 350.7 Q 104.52 351.09998 103.52 351.78 Q 102.52 352.46 101.28 352.97998 Q 100.03999 353.5 99.24 353.5 Q 98.84 353.5 98.6 353.3 Q 98.35999 353.09998 98.35999 352.78 Q 98.35999 351.5 99.2 350.02 Q 100.03999 348.53998 101.56 347.26 Q 103.399994 345.58002 105.56 344.3 Q 107.71999 343.02002 109.799995 342.3 Q 111.88 341.58002 113.479996 341.58002 Q 116.35999 341.58002 118.24 343.62 Q 120.119995 345.66 120.03999 348.7 L 119.64 367.9 Q 119.56 369.58002 120.399994 370.62 Q 121.24 371.66 122.52 371.66 Q 124.52 371.66 125.479996 370.78 Q 125.88 370.38 126.119995 370.38 Q 126.52 370.38 126.759995 370.62 Q 127 370.86 127 371.26 Q 127 372.14 126.119995 373.02002 Q 124.84 374.3 123.35999 375.06 Q 121.88 375.82 120.59999 375.82 Q 116.92 375.82 114.759995 371.66 L 114.52 371.66 Q 111.88 373.82 109.479996 374.82 Q 107.079994 375.82 104.52 375.82 Z M 108.28 371.97998 Q 109.88 371.97998 110.99999 371.46 Q 112.119995 370.94 113 370.06 Q 113.399994 369.66 113.67999 368.97998 Q 113.95999 368.3 114.03999 366.78 L 114.2 362.86 Q 114.28 361.97998 114.119995 361.58002 Q 113.95999 361.18 113.479996 361.18 Q 113.31999 361.18 112.92 361.26 Q 112.52 361.34 111.88 361.58002 Q 107.64 363.09998 106 364.74 Q 104.35999 366.38 104.35999 367.74 Q 104.35999 369.82 105.6 370.9 Q 106.84 371.97998 108.28 371.97998 Z " fill="black"/>
    <rect x="127" y="318.3" width="31.84" height="81.399994" stroke="lightgray" stroke-width="1" fill="none"/>
    <path d="M 136.36 375.82 Q 134.92 375.82 133.44 374.7 Q 131.96 373.58002 130.96 371.97998 Q 129.96 370.38 129.96 368.94 Q 129.96 366.38 131.32 364.94 Q 132.68 363.5 135.64 362.3 L 143.8 358.94 Q 145.4 358.3 145.68 357.82 Q 145.95999 357.34 146.04 355.74 L 146.2 350.62 Q 146.28 348.53998 145.04 347.02 Q 143.8 345.5 141.48 345.5 Q 140.28 345.5 139.08 345.9 Q 137.88 346.3 137.08 346.94 Q 136.6 347.26 136.44 347.9 Q 136.28 348.53998 136.28 349.26 Q 136.28 349.58002 136.32 349.97998 Q 136.36 350.38 136.36 350.7 Q 136.36 351.09998 135.36 351.78 Q 134.36 352.46 133.12 352.97998 Q 131.88 353.5 131.08 353.5 Q 130.68 353.5 130.44 353.3 Q 130.2 353.09998 130.2 352.78 Q 130.2 351.5 131.04 350.02 Q 131.88 348.53998 133.4 347.26 Q 135.24 345.58002 137.4 344.3 Q 139.56 343.02002 141.64 342.3 Q 143.72 341.58002 145.32 341.58002 Q 148.2 341.58002 150.08 343.62 Q 151.95999 345.66 151.88 348.7 L 151.48 367.9 Q 151.4 369.58002 152.24 370.62 Q 153.08 371.66 154.36 371.66 Q 156.36 371.66 157.32 370.78 Q 157.72 370.38 157.95999 370.38 Q 158.36 370.38 158.6 370.62 Q 158.84 370.86 158.84 371.26 Q 158.84 372.14 157.95999 373.02002 Q 156.68 374.3 155.2 375.06 Q 153.72 375.82 152.44 375.82 Q 148.76 375.82 146.6 371.66 L 146.36 371.66 Q 143.72 373.82 141.32 374.82 Q 138.92 375.82 136.36 375.82 Z M 140.12 371.97998 Q 141.72 371.97998 142.84 371.46 Q 143.95999 370.94 144.84 370.06 Q 145.24 369.66 145.52 368.97998 Q 145.8 368.3 145.88 366.78 L 146.04 362.86 Q 146.12 361.97998 145.95999 361.58002 Q 145.8 361.18 145.32 361.18 Q 145.16 361.18 144.76 361.26 Q 144.36 361.34 143.72 361.58002 Q 139.48 363.09998 137.84 364.74 Q 136.2 366.38 136.2 367.74 Q 136.2 369.82 137.44 370.9 Q 138.68 371.97998 140.12 371.97998 Z " fill="black"/>
    <rect x="158.84" y="318.3" width="31.84" height="81.399994" stroke="lightgray" stroke-width="1" fill="none"/>
    <path d="M 168.2 375.82 Q 166.76 375.82 165.28 374.7 Q 163.8 373.58002 162.8 371.97998 Q 161.8 370.38 161.8 368.94 Q 161.8 366.38 163.16 364.94 Q 164.51999 363.5 167.48 362.3 L 175.64 358.94 Q 177.23999 358.3 177.51999 357.82 Q 177.79999 357.34 177.87999 355.74 L 178.04 350.62 Q 178.12 348.53998 176.87999 347.02 Q 175.64 345.5 173.31999 345.5 Q 172.12 345.5 170.92 345.9 Q 169.72 346.3 168.92 346.94 Q 168.44 347.26 168.28 347.9 Q 168.12 348.53998 168.12 349.26 Q 168.12 349.58002 168.16 349.97998 Q 168.2 350.38 168.2 350.7 Q 168.2 351.09998 167.2 351.78 Q 166.2 352.46 164.95999 352.97998 Q 163.72 353.5 162.92 353.5 Q 162.51999 353.5 162.28 353.3 Q 162.04 353.09998 162.04 352.78 Q 162.04 351.5 162.87999 350.02 Q 163.72 348.53998 165.23999 347.26 Q 167.08 345.58002 169.23999 344.3 Q 171.4 343.02002 173.48 342.3 Q 175.56 341.58002 177.16 341.58002 Q 180.04 341.58002 181.92 343.62 Q 183.79999 345.66 183.72 348.7 L 183.31999 367.9 Q 183.23999 369.58002 184.08 370.62 Q 184.92 371.66 186.2 371.66 Q 188.2 371.66 189.16 370.78 Q 189.56 370.38 189.79999 370.38 Q 190.2 370.38 190.44 370.62 Q 190.68 370.86 190.68 371.26 Q 190.68 372.14 189.79999 373.02002 Q 188.51999 374.3 187.04 375.06 Q 185.56 375.82 184.28 375.82 Q 180.59999 375.82 178.44 371.66 L 178.2 371.66 Q 175.56 373.82 173.16 374.82 Q 170.76 375.82 168.2 375.82 Z M 171.95999 371.97998 Q 173.56 371.97998 174.68 371.46 Q 175.79999 370.94 176.68 370.06 Q 177.08 369.66 177.36 368.97998 Q 177.64 368.3 177.72 366.78 L 177.87999 362.86 Q 177.95999 361.97998 177.79999 361.58002 Q 177.64 361.18 177.16 361.18 Q 177 361.18 176.59999 361.26 Q 176.2 361.34 175.56 361.58002 Q 171.31999 363.09998 169.68 364.74 Q 168.04 366.38 168.04 367.74 Q 168.04 369.82 169.28 370.9 Q 170.51999 371.97998 171.95999 371.97998 Z " fill="black"/>
    <rect x="239.5" y="153" width="32.5" height="25" stroke="lightgray" stroke-width="1" fill="none"/>
    <path d="M 239.5 168.9 Q 239.5 162.9 246.1 157.35 Q 252.7 151.8 259.6 151.8 Q 262.4 151.8 264.95 152.5 Q 267.5 153.2 269.8 155.7 Q 272.1 158.2 272.1 162.1 Q 272.1 167.6 265.4 173.4 Q 258.7 179.2 252 179.2 Q 249.2 179.2 246.65 178.5 Q 244.1 177.8 241.8 175.3 Q 239.5 172.8 239.5 168.9 Z " fill="black"/>
    <rect x="272" y="165.5" width="33.75" height="25" stroke="lightgray" stroke-width="1" fill="none"/>
    <path d="M 296.9 167.9 Q 294 167.9 284.65 174.45 Q 275.3 181 275.3 184 Q 275.3 186.1 277.1 187.1 Q 278.9 188.1 281.4 188.1 Q 284.3 188.1 293.65 181.55 Q 303 175 303 172 Q 303 169.9 301.2 168.9 Q 299.4 167.9 296.9 167.9 Z M 272 181.8 Q 272 174.6 278.2 169.45 Q 284.4 164.3 293.2 164.3 Q 296.2 164.3 298.8 164.9 Q 301.4 165.5 303.8 167.9 Q 306.2 170.3 306.2 174.2 Q 306.2 181.4 300 186.55 Q 293.8 191.7 285 191.7 Q 282 191.7 279.4 191.1 Q 276.8 190.5 274.4 188.1 Q 272 185.7 272 181.8 Z " fill="black"/>
    <rect x="305.75" y="171.75" width="20" height="12.5" stroke="lightgray" stroke-width="1" fill="none"/>
    <path d="M 312 178 Q 312 175.7 313.6 174.1 Q 315.2 172.5 317.5 172.5 Q 319.8 172.5 321.4 174.1 Q 323 175.7 323 178 Q 323 180.3 321.4 181.9 Q 319.8 183.5 317.5 183.5 Q 315.2 183.5 313.6 181.9 Q 312 180.3 312 178 Z " fill="black"/>
    <rect x="269" y="75.5" width="3" height="90" stroke="lightgray" stroke-width="1" fill="none"/>
    <rect x="269" y="75.5" width="3" height="90" fill="black"/>
    <rect x="272" y="178" width="3" height="90" stroke="lightgray" stroke-width="1" fill="none"/>
    <rect x="272" y="178" width="3" height="90" fill="black"/>
    <rect x="213.6" y="318.3" width="38.399998" height="81.399994" stroke="lightgray" stroke-width="1" fill="none"/>
    <path d="M 234.32 375.82 Q 232.56 375.82 230.8 375.5 Q 229.04001 375.18 227.44 374.78 Q 225.68001 374.3 224.36 373.9 Q 223.04001 373.5 222.64 373.5 Q 222.16 373.5 221.72 373.82 Q 221.28 374.14 220.88 374.53998 Q 220.48001 374.94 220.16 374.94 Q 219.84001 374.94 219.44 374.66 Q 219.04001 374.38 219.04001 373.97998 Q 219.04001 373.26 219.32 371.5 Q 219.6 369.74 219.6 368.22 L 219.6 329.41998 Q 219.6 327.34 218.56001 325.82 Q 217.52 324.3 215.92001 323.58002 Q 215.6 323.41998 215.24 323.14 Q 214.88 322.86 214.88 322.38 Q 214.88 321.97998 215.20001 321.82 Q 215.52 321.66 215.84001 321.58002 Q 216.88 321.34 218.68001 320.7 Q 220.48001 320.06 222.08 319.41998 Q 223.68001 318.78 224.24 318.53998 Q 224.72 318.3 224.96 318.3 Q 225.12001 318.3 225.28 318.46 Q 225.44 318.62 225.44 318.86 Q 225.44 319.18 225.32 321.53998 Q 225.20001 323.9 225.20001 327.26 L 225.20001 343.66 Q 225.20001 345.18 225.36 345.7 Q 225.52 346.22 225.92001 346.3 Q 228.40001 344.22 231.68001 342.9 Q 234.96 341.58002 237.6 341.58002 Q 241.68001 341.58002 244.92001 343.66 Q 248.16 345.74 250.08 349.3 Q 252 352.86 252 357.34 Q 252 362.78 249.76001 366.97998 Q 247.52 371.18 243.56 373.5 Q 239.6 375.82 234.32 375.82 Z M 236.16 373.34 Q 239.20001 373.34 241.40001 371.46 Q 243.6 369.58002 244.8 366.34 Q 246 363.09998 246 359.09998 Q 246 355.97998 244.84001 352.7 Q 243.68001 349.41998 241.24 347.18 Q 238.8 344.94 234.96 344.94 Q 231.76001 344.94 229.36 345.97998 Q 226.96 347.02 225.20001 348.62 L 225.20001 364.14 Q 225.20001 366.94 226.76001 369.02002 Q 228.32 371.09998 230.84001 372.22 Q 233.36 373.34 236.16 373.34 Z " fill="black"/>
    <rect x="252" y="318.3" width="38.399998" height="81.399994" stroke="lightgray" stroke-width="1" fill="none"/>
    <path d="M 272.72 375.82 Q 270.96 375.82 269.2 375.5 Q 267.44 375.18 265.84 374.78 Q 264.08 374.3 262.76 373.9 Q 261.44 373.5 261.04 373.5 Q 260.56 373.5 260.12 373.82 Q 259.68 374.14 259.28 374.53998 Q 258.88 374.94 258.56 374.94 Q 258.24 374.94 257.84 374.66 Q 257.44 374.38 257.44 373.97998 Q 257.44 373.26 257.72 371.5 Q 258 369.74 258 368.22 L 258 329.41998 Q 258 327.34 256.96 325.82 Q 255.92 324.3 254.32 323.58002 Q 254 323.41998 253.64 323.14 Q 253.28 322.86 253.28 322.38 Q 253.28 321.97998 253.6 321.82 Q 253.92 321.66 254.24 321.58002 Q 255.28 321.34 257.08 320.7 Q 258.88 320.06 260.48 319.41998 Q 262.08 318.78 262.64 318.53998 Q 263.12 318.3 263.36 318.3 Q 263.52 318.3 263.68 318.46 Q 263.84 318.62 263.84 318.86 Q 263.84 319.18 263.72 321.53998 Q 263.6 323.9 263.6 327.26 L 263.6 343.66 Q 263.6 345.18 263.76 345.7 Q 263.92 346.22 264.32 346.3 Q 266.8 344.22 270.08 342.9 Q 273.36 341.58002 276 341.58002 Q 280.08 341.58002 283.32 343.66 Q 286.56 345.74 288.48 349.3 Q 290.4 352.86 290.4 357.34 Q 290.4 362.78 288.16 366.97998 Q 285.91998 371.18 281.96 373.5 Q 278 375.82 272.72 375.82 Z M 274.56 373.34 Q 277.6 373.34 279.8 371.46 Q 282 369.58002 283.2 366.34 Q 284.4 363.09998 284.4 359.09998 Q 284.4 355.97998 283.24 352.7 Q 282.08 349.41998 279.64 347.18 Q 277.2 344.94 273.36 344.94 Q 270.16 344.94 267.76 345.97998 Q 265.36 347.02 263.6 348.62 L 263.6 364.14 Q 263.6 366.94 265.16 369.02002 Q 266.72 371.09998 269.24 372.22 Q 271.76 373.34 274.56 373.34 Z " fill="black"/>
    <rect x="290.4" y="318.3" width="38.399998" height="81.399994" stroke="lightgray" stroke-width="1" fill="none"/>
    <path d="M 311.12 375.82 Q 309.36 375.82 307.6 375.5 Q 305.84 375.18 304.24 374.78 Q 302.47998 374.3 301.16 373.9 Q 299.84 373.5 299.44 373.5 Q 298.96 373.5 298.52 373.82 Q 298.08 374.14 297.68 374.53998 Q 297.28 374.94 296.96 374.94 Q 296.63998 374.94 296.24 374.66 Q 295.84 374.38 295.84 373.97998 Q 295.84 373.26 296.12 371.5 Q 296.4 369.74 296.4 368.22 L 296.4 329.41998 Q 296.4 327.34 295.36 325.82 Q 294.32 324.3 292.72 323.58002 Q 292.4 323.41998 292.04 323.14 Q 291.68 322.86 291.68 322.38 Q 291.68 321.97998 292 321.82 Q 292.32 321.66 292.63998 321.58002 Q 293.68 321.34 295.47998 320.7 Q 297.28 320.06 298.88 319.41998 Q 300.47998 318.78 301.03998 318.53998 Q 301.52 318.3 301.75998 318.3 Q 301.91998 318.3 302.08 318.46 Q 302.24 318.62 302.24 318.86 Q 302.24 319.18 302.12 321.53998 Q 302 323.9 302 327.26 L 302 343.66 Q 302 345.18 302.16 345.7 Q 302.32 346.22 302.72 346.3 Q 305.19998 344.22 308.47998 342.9 Q 311.75998 341.58002 314.4 341.58002 Q 318.47998 341.58002 321.72 343.66 Q 324.96 345.74 326.88 349.3 Q 328.8 352.86 328.8 357.34 Q 328.8 362.78 326.56 366.97998 Q 324.32 371.18 320.36 373.5 Q 316.4 375.82 311.12 375.82 Z M 312.96 373.34 Q 316 373.34 318.19998 371.46 Q 320.4 369.58002 321.6 366.34 Q 322.8 363.09998 322.8 359.09998 Q 322.8 355.97998 321.63998 352.7 Q 320.47998 349.41998 318.03998 347.18 Q 315.6 344.94 311.75998 344.94 Q 308.56 344.94 306.16 345.97998 Q 303.75998 347.02 302 348.62 L 302 364.14 Q 302 366.94 303.56 369.02002 Q 305.12 371.09998 307.63998 372.22 Q 310.16 373.34 312.96 373.34 Z " fill="black"/>
    <rect x="353.5" y="140.5" width="32.5" height="25" stroke="lightgray" stroke-width="1" fill="none"/>
    <path d="M 353.5 156.4 Q 353.5 150.4 360.1 144.85 Q 366.7 139.3 373.6 139.3 Q 376.4 139.3 378.95 140 Q 381.5 140.7 383.8 143.2 Q 386.1 145.7 386.1 149.6 Q 386.1 155.1 379.4 160.9 Q 372.7 166.7 366 166.7 Q 363.2 166.7 360.65 166 Q 358.1 165.3 355.8 162.8 Q 353.5 160.3 353.5 156.4 Z " fill="black"/>
    <rect x="326" y="103" width="27.5" height="75" stroke="lightgray" stroke-width="1" fill="none"/>
    <path d="M 330.6 161.6 Q 330.6 162.8 331.6 163.2 Q 332.8 163.7 333.6 162.9 Q 340.2 156.9 340.2 149.3 Q 340.2 146.6 339.05 144.6 Q 337.9 142.6 335.9 142.6 Q 333.7 142.6 332.3 144.5 Q 330.9 146.4 330.8 148.9 L 330.6 161.6 Z M 333.4 139.5 Q 337.6 137.4 340.3 137.4 Q 344.1 137.4 346.4 140.4 Q 348.7 143.4 348.7 147.6 Q 348.7 150.5 347.85 152.85 Q 347 155.2 345.2 157.15 Q 343.4 159.1 341.85 160.4 Q 340.3 161.7 337.8 163.55 Q 335.3 165.4 334 166.5 Q 333.5 166.9 332.7 168 Q 331.9 169.1 331.15 169.7 Q 330.4 170.3 329.5 170.3 Q 328.5 170.3 327.85 169.6 Q 327.2 168.9 327.2 167.8 L 326 107.3 Q 327.3 106.5 328.7 106.5 Q 330.1 106.5 331.4 107.3 L 330.8 137.9 Q 330.8 138.9 331.6 139.4 Q 332.5 140 333.4 139.5 Z " fill="black"/>
    <rect x="383" y="63" width="3" height="90" stroke="lightgray" stroke-width="1" fill="none"/>
    <rect x="383" y="63" width="3" height="90" fill="black"/>
    <ellipse cx="358.5" cy="364" rx="5" ry="5" stroke="gray" stroke-width="1" fill="none"/>
    <rect x="425.5" y="78" width="32.5" height="75" stroke="lightgray" stroke-width="1" fill="none"/>
    <path d="M 441.6 121.4 Q 437.5 122.6 434.2 122.6 Q 430.7 122.6 428.1 120.35 Q 425.5 118.1 425.5 114.7 Q 425.5 111.7 427.6 109.6 Q 429.7 107.5 432.7 107.5 Q 434.6 107.5 436.2 108.55 Q 437.8 109.6 438.4 111.4 Q 438.7 112.1 439.05 114 Q 439.4 115.9 439.95 116.6 Q 440.5 117.3 441.8 117.3 Q 442.9 117.3 445.15 114.6 Q 447.4 111.9 447.8 110.5 L 451.4 98.7 Q 451.5 98.4 451.5 98.2 Q 451.5 97.5 450.95 96.95 Q 450.4 96.4 449.6 96.4 Q 449.3 96.4 449.1 96.5 Q 444.9 97.6 442 97.6 Q 438.5 97.6 435.9 95.35 Q 433.3 93.1 433.3 89.7 Q 433.3 86.7 435.45 84.6 Q 437.6 82.5 440.6 82.5 Q 442.5 82.5 444.05 83.55 Q 445.6 84.6 446.2 86.4 Q 446.5 87.1 446.85 89 Q 447.2 90.9 447.75 91.6 Q 448.3 92.3 449.6 92.3 Q 450.6 92.3 452.6 89.9 Q 454.6 87.5 455.3 86 Q 455.7 85.1 456.7 85.1 Q 457.7 85.1 458.1 86 L 440.2 153 Q 439.1 154 437.5 154 Q 435.8 154 434.7 153 L 443.8 123.6 Q 443.9 123.3 443.9 123 Q 443.9 122.3 443.4 121.8 Q 442.9 121.3 442.1 121.3 Q 441.9 121.3 441.6 121.4 Z " fill="black"/>
    <ellipse cx="430.5" cy="364" rx="5" ry="5" stroke="gray" stroke-width="1" fill="none"/>
    <rect x="497.5" y="115.5" width="32.5" height="25" stroke="lightgray" stroke-width="1" fill="none"/>
    <path d="M 497.5 131.4 Q 497.5 125.4 504.1 119.85 Q 510.7 114.3 517.6 114.3 Q 520.4 114.3 522.95 115 Q 525.5 115.7 527.8 118.2 Q 530.1 120.7 530.1 124.6 Q 530.1 130.1 523.4 135.9 Q 516.7 141.7 510 141.7 Q 507.2 141.7 504.65 141 Q 502.1 140.3 499.8 137.8 Q 497.5 135.3 497.5 131.4 Z " fill="black"/>
    <rect x="527" y="38" width="3" height="90" stroke="lightgray" stroke-width="1" fill="none"/>
    <rect x="527" y="38" width="3" height="90" fill="black"/>
    <ellipse cx="502.5" cy="364" rx="5" ry="5" stroke="gray" stroke-width="1" fill="none"/>
    <rect x="569.5" y="90.5" width="32.5" height="25" stroke="lightgray" stroke-width="1" fill="none"/>
    <path d="M 569.5 106.4 Q 569.5 100.4 576.1 94.85 Q 582.7 89.3 589.6 89.3 Q 592.4 89.3 594.95 90 Q 597.5 90.7 599.8 93.2 Q 602.1 95.7 602.1 99.6 Q 602.1 105.1 595.4 110.9 Q 588.7 116.7 582 116.7 Q 579.2 116.7 576.65 116 Q 574.1 115.3 571.8 112.8 Q 569.5 110.3 569.5 106.4 Z " fill="black"/>
    <rect x="599" y="13" width="3" height="90" stroke="lightgray" stroke-width="1" fill="none"/>
    <rect x="599" y="13" width="3" height="90" fill="black"/>
    <ellipse cx="574.5" cy="364" rx="5" ry="5" stroke="gray" stroke-width="1" fill="none"/>
    <rect x="694.5" y="78" width="32.5" height="25" stroke="lightgray" stroke-width="1" fill="none"/>
    <path d="M 694.5 93.9 Q 694.5 87.9 701.1 82.35 Q 707.7 76.8 714.6 76.8 Q 717.4 76.8 719.95 77.5 Q 722.5 78.2 724.8 80.7 Q 727.1 83.2 727.1 87.1 Q 727.1 92.6 720.4 98.4 Q 713.7 104.2 707 104.2 Q 704.2 104.2 701.65 103.5 Q 699.1 102.8 696.8 100.3 Q 694.5 97.8 694.5 93.9 Z " fill="black"/>
    <rect x="724" y="0.5" width="3" height="90" stroke="lightgray" stroke-width="1" fill="none"/>
    <rect x="724" y="0.5" width="3" height="90" fill="black"/>
    <rect x="673.6667" y="318.3" width="31.84" height="81.399994" stroke="lightgray" stroke-width="1" fill="none"/>
    <path d="M 683.0267 375.82 Q 681.5867 375.82 680.1067 374.7 Q 678.6267 373.58002 677.6267 371.97998 Q 676.6267 370.38 676.6267 368.94 Q 676.6267 366.38 677.9867 364.94 Q 679.3467 363.5 682.3067 362.3 L 690.4667 358.94 Q 692.0667 358.3 692.3467 357.82 Q 692.6267 357.34 692.70667 355.74 L 692.8667 350.62 Q 692.94666 348.53998 691.70667 347.02 Q 690.4667 345.5 688.14667 345.5 Q 686.9467 345.5 685.7467 345.9 Q 684.5467 346.3 683.7467 346.94 Q 683.26666 347.26 683.1067 347.9 Q 682.9467 348.53998 682.9467 349.26 Q 682.9467 349.58002 682.9867 349.97998 Q 683.0267 350.38 683.0267 350.7 Q 683.0267 351.09998 682.0267 351.78 Q 681.0267 352.46 679.7867 352.97998 Q 678.5467 353.5 677.7467 353.5 Q 677.3467 353.5 677.1067 353.3 Q 676.8667 353.09998 676.8667 352.78 Q 676.8667 351.5 677.70667 350.02 Q 678.5467 348.53998 680.0667 347.26 Q 681.9067 345.58002 684.0667 344.3 Q 686.2267 343.02002 688.3067 342.3 Q 690.38666 341.58002 691.9867 341.58002 Q 694.8667 341.58002 696.7467 343.62 Q 698.6267 345.66 698.5467 348.7 L 698.14667 367.9 Q 698.0667 369.58002 698.9067 370.62 Q 699.7467 371.66 701.0267 371.66 Q 703.0267 371.66 703.9867 370.78 Q 704.38666 370.38 704.6267 370.38 Q 705.0267 370.38 705.26666 370.62 Q 705.5067 370.86 705.5067 371.26 Q 705.5067 372.14 704.6267 373.02002 Q 703.3467 374.3 701.8667 375.06 Q 700.38666 375.82 699.1067 375.82 Q 695.4267 375.82 693.26666 371.66 L 693.0267 371.66 Q 690.38666 373.82 687.9867 374.82 Q 685.5867 375.82 683.0267 375.82 Z M 686.7867 371.97998 Q 688.38666 371.97998 689.5067 371.46 Q 690.6267 370.94 691.5067 370.06 Q 691.9067 369.66 692.1867 368.97998 Q 692.4667 368.3 692.5467 366.78 L 692.70667 362.86 Q 692.7867 361.97998 692.6267 361.58002 Q 692.4667 361.18 691.9867 361.18 Q 691.82666 361.18 691.4267 361.26 Q 691.0267 361.34 690.38666 361.58002 Q 686.14667 363.09998 684.5067 364.74 Q 682.8667 366.38 682.8667 367.74 Q 682.8667 369.82 684.1067 370.9 Q 685.3467 371.97998 686.7867 371.97998 Z " fill="black"/>
    <rect x="705.50665" y="318.3" width="38.399998" height="81.399994" stroke="lightgray" stroke-width="1" fill="none"/>
    <path d="M 726.2266 375.82 Q 724.4667 375.82 722.70667 375.5 Q 720.94666 375.18 719.3467 374.78 Q 717.5867 374.3 716.26666 373.9 Q 714.94666 373.5 714.54663 373.5 Q 714.06665 373.5 713.62665 373.82 Q 713.18665 374.14 712.7867 374.53998 Q 712.38666 374.94 712.06665 374.94 Q 711.74664 374.94 711.3467 374.66 Q 710.94666 374.38 710.94666 373.97998 Q 710.94666 373.26 711.2266 371.5 Q 711.50665 369.74 711.50665 368.22 L 711.50665 329.41998 Q 711.50665 327.34 710.4667 325.82 Q 709.42664 324.3 707.82666 323.58002 Q 707.50665 323.41998 707.14667 323.14 Q 706.7867 322.86 706.7867 322.38 Q 706.7867 321.97998 707.1066 321.82 Q 707.42664 321.66 707.74664 321.58002 Q 708.7867 321.34 710.5867 320.7 Q 712.38666 320.06 713.98663 319.41998 Q 715.5867 318.78 716.14667 318.53998 Q 716.62665 318.3 716.86664 318.3 Q 717.0267 318.3 717.18665 318.46 Q 717.3467 318.62 717.3467 318.86 Q 717.3467 319.18 717.2266 321.53998 Q 717.1066 323.9 717.1066 327.26 L 717.1066 343.66 Q 717.1066 345.18 717.26666 345.7 Q 717.42664 346.22 717.82666 346.3 Q 720.30664 344.22 723.5867 342.9 Q 726.86664 341.58002 729.50665 341.58002 Q 733.5867 341.58002 736.82666 343.66 Q 740.06665 345.74 741.98663 349.3 Q 743.9067 352.86 743.9067 357.34 Q 743.9067 362.78 741.6666 366.97998 Q 739.42664 371.18 735.4667 373.5 Q 731.50665 375.82 726.2266 375.82 Z M 728.06665 373.34 Q 731.1066 373.34 733.30664 371.46 Q 735.50665 369.58002 736.70667 366.34 Q 737.9067 363.09998 737.9067 359.09998 Q 737.9067 355.97998 736.74664 352.7 Q 735.5867 349.41998 733.14667 347.18 Q 730.70667 344.94 726.86664 344.94 Q 723.6666 344.94 721.26666 345.97998 Q 718.86664 347.02 717.1066 348.62 L 717.1066 364.14 Q 717.1066 366.94 718.6666 369.02002 Q 720.2266 371.09998 722.74664 372.22 Q 725.26666 373.34 728.06665 373.34 Z " fill="black"/>
    <rect x="743.9067" y="318.3" width="29.76" height="81.399994" stroke="lightgray" stroke-width="1" fill="none"/>
    <path d="M 760.94666 375.9 Q 756.94666 375.9 753.70667 373.86 Q 750.4667 371.82 748.5867 368.26 Q 746.70667 364.7 746.70667 360.3 Q 746.70667 355.09998 748.9867 350.86 Q 751.26666 346.62 755.1067 344.1 Q 758.94666 341.58002 763.5867 341.58002 Q 768.7867 341.58002 772.70667 344.38 Q 773.6667 345.1 773.6667 345.9 Q 773.6667 346.53998 773.1067 347.34 Q 772.5467 348.14 771.7467 348.66 Q 770.94666 349.18 770.2267 349.18 Q 769.82666 349.18 769.4267 348.9 Q 769.0267 348.62 768.5467 348.3 Q 766.7867 346.94 764.62665 345.74 Q 762.4667 344.53998 761.0267 344.53998 Q 757.1067 344.53998 754.6667 348.18 Q 752.2267 351.82 752.2267 357.74 Q 752.2267 361.5 753.8667 364.53998 Q 755.50665 367.58002 758.26666 369.34 Q 761.0267 371.09998 764.38666 371.09998 Q 766.70667 371.09998 768.38666 370.34 Q 770.06665 369.58002 771.9867 367.66 Q 772.14667 367.5 772.38666 367.38 Q 772.62665 367.26 772.7867 367.26 Q 773.6667 367.26 773.6667 368.38 Q 773.6667 368.86 773.38666 369.46 Q 773.1067 370.06 772.4667 370.86 Q 771.18665 372.46 769.4267 373.62 Q 767.6667 374.78 765.5467 375.34 Q 763.4267 375.9 760.94666 375.9 Z " fill="black"/>
    <rect x="779.5" y="140.5" width="32.5" height="25" stroke="lightgray" stroke-width="1" fill="none"/>
    <path d="M 779.5 156.4 Q 779.5 150.4 786.1 144.85 Q 792.7 139.3 799.6 139.3 Q 802.4 139.3 804.95 140 Q 807.5 140.7 809.8 143.2 Q 812.1 145.7 812.1 149.6 Q 812.1 155.1 805.4 160.9 Q 798.7 166.7 792 166.7 Q 789.2 166.7 786.65 166 Q 784.1 165.3 781.8 162.8 Q 779.5 160.3 779.5 156.4 Z " fill="black"/>
    <rect x="809" y="25.5" width="3" height="127.5" stroke="lightgray" stroke-width="1" fill="none"/>
    <rect x="809" y="25.5" width="3" height="127.5" fill="black"/>
    <ellipse cx="784.5" cy="364" rx="5" ry="5" stroke="gray" stroke-width="1" fill="none"/>
    <rect x="868.5" y="123" width="10" height="10" stroke="orange" stroke-width="1" fill="none"/>
    <rect x="868.5" y="354" width="10" height="10" stroke="orange" stroke-width="1" fill="none"/>
    <rect x="0" y="0" width="879" height="400.2" stroke="black" stroke-width="1" fill="none"/>
</svg>
