<svg xmlns="http://www.w3.org/2000/svg" xmlns:xlink="http://www.w3.org/1999/xlink" viewBox="0 0 476.5 507.65002">
    <line x1="1.25" y1="50.5" x2="475.25" y2="50.5" stroke="black" stroke-width="2.5"/>
    <line x1="1.25" y1="75.5" x2="475.25" y2="75.5" stroke="black" stroke-width="2.5"/>
    <line x1="1.25" y1="100.5" x2="475.25" y2="100.5" stroke="black" stroke-width="2.5"/>
    <line x1="1.25" y1="125.5" x2="475.25" y2="125.5" stroke="black" stroke-width="2.5"/>
    <line x1="1.25" y1="150.5" x2="475.25" y2="150.5" stroke="black" stroke-width="2.5"/>
    <line x1="1.25" y1="281.5" x2="475.25" y2="281.5" stroke="black" stroke-width="2.5"/>
    <line x1="1.25" y1="306.5" x2="475.25" y2="306.5" stroke="black" stroke-width="2.5"/>
    <line x1="1.25" y1="331.5" x2="475.25" y2="331.5" stroke="black" stroke-width="2.5"/>
    <line x1="1.25" y1="356.5" x2="475.25" y2="356.5" stroke="black" stroke-width="2.5"/>
    <line x1="1.25" y1="381.5" x2="475.25" y2="381.5" stroke="black" stroke-width="2.5"/>
    <rect x="1.25" y="0.5" width="10" height="200" stroke="orange" stroke-width="1" fill="none"/>
    <rect x="1.25" y="231.5" width="10" height="200" stroke="orange" stroke-width="1" fill="none"/>
    <rect x="1.25" y="461" width="10" height="25" stroke="orange" stroke-width="1" fill="none"/>
    <rect x="11.25" y="10.5" width="74" height="186" stroke="orange" stroke-width="1" fill="none"/>
    <path d="M 36.050003 69 Q 33.75 61.7 32.85 56 Q 32.050003 51.199997 32.050003 44.799995 Q 32.050003 42.6 32.15 40.4 Q 32.550003 30.900002 36.050003 22.949997 Q 39.550003 15 46.55 10.799995 Q 47.05 10.5 47.850002 10.5 Q 48.55 10.5 49.05 11 Q 54.65 16.599998 57.65 25.299995 Q 60.65 34 60.65 42.9 Q 60.65 53.199997 56.25 63.1 Q 52.05 73 44.45 80.6 Q 43.850002 81.2 44.05 82.2 L 48.05 98.2 Q 48.350002 99.8 50.05 99.6 Q 51.65 99.4 53.15 99.4 Q 58.95 99.4 63.65 101.7 Q 68.350006 104 71.25 107.7 Q 74.15 111.4 75.700005 115.85 Q 77.25 120.3 77.25 125 Q 77.25 133.6 72.45 140.55 Q 67.65 147.5 60.95 149.7 Q 59.55 150.2 59.850002 151.8 Q 62.350002 163.6 62.45 171.7 Q 62.45 174.8 62.05 177.8 Q 61.25 184.7 56.05 189.9 Q 50.850002 195.1 43.65 195.1 Q 34.85 195.1 28.75 189.8 Q 22.650002 184.5 22.650002 175.9 Q 22.650002 171.5 25.75 168.3 Q 28.85 165.1 33.050003 165.1 Q 37.35 165.1 40.300003 168.15 Q 43.25 171.2 43.25 175.4 Q 43.25 179 40.85 181.7 Q 38.45 184.5 35.050003 184.8 Q 33.85 184.9 33.45 186 Q 33.050003 187.1 34.25 188 Q 37.85 190.8 43.050003 190.8 Q 48.75 190.8 52.9 186.7 Q 57.05 182.6 57.75 177.4 Q 58.25 173.8 58.25 170.2 Q 58.25 162.4 55.850002 152.9 Q 55.45 151.2 53.65 151.4 Q 49.65 151.9 46.25 151.9 Q 31.45 151.9 21.35 142.6 Q 11.25 133.3 11.25 117.3 Q 11.25 112.4 12.4 107.65 Q 13.55 102.9 15 99.45 Q 16.45 96 19.5 91.45 Q 22.55 86.899994 24.400002 84.5 Q 26.25 82.1 30.25 77.35 Q 34.25 72.6 35.75 70.7 Q 36.35 70 36.050003 69 Z M 51.65 114.7 L 58.15 144.2 Q 58.45 145.5 59.95 145.5 Q 60.350002 145.5 60.65 145.4 Q 64.75 143.7 67.45 138.8 Q 70.15 133.9 70.15 129.1 Q 70.15 122.1 66.05 117.3 Q 61.850002 112.4 53.45 112.4 Q 52.75 112.4 52.2 112.95 Q 51.65 113.5 51.65 114.2 Q 51.55 114.5 51.65 114.7 Z M 37.85 86.899994 Q 36.25 88.7 33.1 92.05 Q 29.95 95.4 28.4 97.15 Q 26.85 98.9 24.6 102.1 Q 22.35 105.3 21.25 108 Q 20.150002 110.7 19.3 114.6 Q 18.45 118.5 18.45 122.9 Q 18.45 129 22.2 134.7 Q 25.95 140.4 32.5 144 Q 39.050003 147.6 46.55 147.6 Q 49.25 147.6 52.55 147.3 Q 53.350002 147.2 53.850002 146.55 Q 54.350002 145.9 54.15 145.1 L 47.65 115.2 Q 47.350002 113.8 45.75 113.8 Q 45.45 113.8 45.05 113.9 Q 40.45 115.6 38.550003 118.7 Q 36.65 121.8 36.65 126.5 Q 36.65 132 42.65 136 Q 43.350002 136.5 43.350002 137.5 Q 43.350002 138.3 42.7 139 Q 42.050003 139.7 41.15 139.7 Q 40.65 139.7 40.25 139.5 Q 34.550003 136.5 31.800001 131.35 Q 29.050001 126.2 29.050001 120.5 Q 29.050001 115 33 109.15 Q 36.95 103.3 42.85 101.1 Q 44.350002 100.5 44.05 99 L 41.050003 87.7 Q 40.85 86.6 39.65 86.399994 Q 38.45 86.2 37.85 86.899994 Z M 54.65 28.699997 Q 53.850002 26.099998 51.95 26.099998 Q 51.350002 26.099998 50.850002 26.400002 Q 44.45 30.199997 40.7 37.1 Q 36.95 44 36.95 51.699997 Q 36.95 56.699997 39.050003 64 Q 39.35 65.1 40.550003 65.3 Q 41.550003 65.399994 42.25 64.6 Q 42.550003 64.2 45.100002 61.049995 Q 47.65 57.9 48.45 56.85 Q 49.25 55.799995 51.15 52.85 Q 53.05 49.9 53.8 47.949997 Q 54.55 46 55.25 43.1 Q 55.95 40.199997 55.95 37.299995 Q 55.95 33.1 54.65 28.699997 Z " fill="black"/>
    <rect x="11.25" y="281.5" width="74" height="84" stroke="orange" stroke-width="1" fill="none"/>
    <path d="M 68.25 319 Q 68.25 316.9 69.75 315.4 Q 71.25 313.9 73.350006 313.9 Q 75.450005 313.9 76.950005 315.4 Q 78.450005 316.9 78.450005 319 Q 78.450005 321.1 76.950005 322.6 Q 75.450005 324.1 73.350006 324.1 Q 71.25 324.1 69.75 322.6 Q 68.25 321.1 68.25 319 Z M 68.25 294 Q 68.25 291.9 69.75 290.4 Q 71.25 288.9 73.350006 288.9 Q 75.450005 288.9 76.950005 290.4 Q 78.450005 291.9 78.450005 294 Q 78.450005 296.1 76.950005 297.6 Q 75.450005 299.1 73.350006 299.1 Q 71.25 299.1 69.75 297.6 Q 68.25 296.1 68.25 294 Z M 23.45 294.6 Q 27.95 294.6 30.85 297.5 Q 33.75 300.4 33.75 304.6 Q 33.75 309 30.85 312.1 Q 27.95 315.2 23.75 315.2 Q 19.25 315.2 15.9 312.1 Q 12.55 309 12.55 304.6 Q 12.55 293.8 19.75 287 Q 26.95 280.2 37.65 280.2 Q 49.75 280.2 57.4 287.15 Q 65.05 294.1 65.05 305.3 Q 65.05 340.7 13.65 363.4 Q 12.95 363.7 12.55 363.7 Q 11.25 363.7 11.25 362.4 Q 11.25 361.7 12.55 360.9 Q 20.55 356.2 25.8 352.6 Q 31.050001 349 36.65 343.9 Q 42.25 338.8 45.45 333.65 Q 48.65 328.5 50.75 321.5 Q 52.850002 314.5 52.850002 306.3 Q 52.850002 295.9 48.3 289.6 Q 43.75 283.3 35.85 283.3 Q 31.050001 283.3 27.150002 285.55 Q 23.25 287.8 21.75 291.7 Q 21.35 293 21.85 293.7 Q 22.55 294.6 23.45 294.6 Z " fill="black"/>
    <ellipse cx="16.25" cy="478.5" rx="5" ry="5" stroke="gray" stroke-width="1" fill="none"/>
    <rect x="85.25" y="13" width="60.000004" height="150" stroke="orange" stroke-width="1" fill="none"/>
    <path d="M 106.85 40.9 L 106.85 53.1 Q 106.85 53.9 107.35 54.4 Q 107.85 54.9 108.65 54.9 Q 108.95 54.9 109.25 54.8 L 110.05 54.5 Q 110.35 54.4 110.75 54.4 Q 111.55 54.4 112.15 55 Q 112.75 55.6 112.75 56.4 L 112.75 62.4 Q 112.75 63.7 111.45 64.2 L 108.05 65.5 Q 106.85 66 106.85 67.1 L 106.85 81.7 Q 106.85 82.5 106.3 83.05 Q 105.75 83.600006 105.05 83.600006 Q 104.25 83.600006 103.7 83.05 Q 103.15 82.5 103.15 81.7 L 103.15 69.8 Q 103.15 69 102.6 68.5 Q 102.05 68 101.35 68 Q 100.95 68 100.65 68.1 L 96.05 69.9 Q 94.85 70.3 94.85 71.5 L 94.85 86.100006 Q 94.85 86.9 94.25 87.45 Q 93.65 88 92.95 88 Q 92.25 88 91.7 87.45 Q 91.15 86.9 91.15 86.100006 L 91.15 74.2 Q 91.15 73.4 90.6 72.9 Q 90.05 72.4 89.35 72.4 Q 89.05 72.4 88.75 72.5 L 87.95 72.8 Q 87.75 72.9 87.25 72.9 Q 86.45 72.9 85.85 72.3 Q 85.25 71.7 85.25 70.9 L 85.25 64.9 Q 85.25 63.5 86.55 63 L 89.95 61.8 Q 91.15 61.5 91.15 60.1 L 91.15 47.9 Q 91.15 47.1 90.6 46.6 Q 90.05 46.1 89.35 46.1 Q 89.05 46.1 88.85 46.2 L 87.95 46.5 Q 87.75 46.6 87.25 46.6 Q 86.45 46.6 85.85 46 Q 85.25 45.4 85.25 44.6 L 85.25 38.6 Q 85.25 37.3 86.55 36.8 L 90.05 35.5 Q 91.15 35 91.15 33.9 L 91.15 19.300003 Q 91.15 18.5 91.7 17.949997 Q 92.25 17.399994 92.95 17.399994 Q 93.65 17.399994 94.25 17.949997 Q 94.85 18.5 94.85 19.300003 L 94.85 31.199997 Q 94.85 32 95.4 32.5 Q 95.95 33 96.75 33 Q 97.05 33 97.35 32.9 L 101.95 31.099998 Q 103.15 30.599998 103.15 29.400002 L 103.15 14.899994 Q 103.15 14.099998 103.7 13.550003 Q 104.25 13 105.05 13 Q 105.75 13 106.3 13.550003 Q 106.85 14.099998 106.85 14.899994 L 106.85 26.900002 Q 106.85 27.599998 107.35 28.099998 Q 107.85 28.599998 108.55 28.599998 Q 108.85 28.599998 109.25 28.5 L 110.05 28.199997 Q 110.25 28.099998 110.75 28.099998 Q 111.55 28.099998 112.15 28.699997 Q 112.75 29.300003 112.75 30.099998 L 112.75 36.1 Q 112.75 37.5 111.45 38 L 108.05 39.2 Q 106.85 39.5 106.85 40.9 Z M 103.15 55.7 L 103.15 43.6 Q 103.15 42.9 102.6 42.35 Q 102.05 41.8 101.35 41.8 Q 101.05 41.8 100.75 41.9 L 96.05 43.6 Q 94.85 44.1 94.85 45.3 L 94.85 57.4 Q 94.85 58.2 95.35 58.7 Q 95.85 59.2 96.65 59.2 Q 96.95 59.2 97.25 59.1 L 101.95 57.4 Q 103.15 56.9 103.15 55.7 Z M 136.85 78.4 L 136.85 90.6 Q 136.85 91.4 137.35 91.9 Q 137.85 92.4 138.65 92.4 Q 138.95001 92.4 139.25 92.3 L 140.05 92 Q 140.35 91.9 140.75 91.9 Q 141.55 91.9 142.15 92.5 Q 142.75 93.1 142.75 93.9 L 142.75 99.9 Q 142.75 101.2 141.45001 101.7 L 138.05 103 Q 136.85 103.5 136.85 104.6 L 136.85 119.2 Q 136.85 120 136.3 120.55 Q 135.75 121.100006 135.05 121.100006 Q 134.25 121.100006 133.70001 120.55 Q 133.15 120 133.15 119.2 L 133.15 107.3 Q 133.15 106.5 132.6 106 Q 132.05 105.5 131.35 105.5 Q 130.95 105.5 130.65 105.6 L 126.05 107.4 Q 124.850006 107.8 124.850006 109 L 124.850006 123.600006 Q 124.850006 124.4 124.25 124.95 Q 123.65 125.5 122.95 125.5 Q 122.25 125.5 121.7 124.95 Q 121.15 124.4 121.15 123.600006 L 121.15 111.7 Q 121.15 110.9 120.600006 110.4 Q 120.05 109.9 119.350006 109.9 Q 119.05 109.9 118.75 110 L 117.95 110.3 Q 117.75 110.4 117.25 110.4 Q 116.450005 110.4 115.850006 109.8 Q 115.25 109.2 115.25 108.4 L 115.25 102.4 Q 115.25 101 116.55 100.5 L 119.95 99.3 Q 121.15 99 121.15 97.6 L 121.15 85.4 Q 121.15 84.6 120.600006 84.1 Q 120.05 83.6 119.350006 83.6 Q 119.05 83.6 118.850006 83.7 L 117.95 84 Q 117.75 84.1 117.25 84.1 Q 116.450005 84.1 115.850006 83.5 Q 115.25 82.9 115.25 82.1 L 115.25 76.1 Q 115.25 74.8 116.55 74.3 L 120.05 73 Q 121.15 72.5 121.15 71.4 L 121.15 56.8 Q 121.15 56 121.7 55.45 Q 122.25 54.899998 122.95 54.899998 Q 123.65 54.899998 124.25 55.45 Q 124.850006 56 124.850006 56.8 L 124.850006 68.7 Q 124.850006 69.5 125.4 70 Q 125.95 70.5 126.75 70.5 Q 127.05 70.5 127.350006 70.4 L 131.95001 68.6 Q 133.15 68.1 133.15 66.9 L 133.15 52.399998 Q 133.15 51.6 133.70001 51.05 Q 134.25 50.5 135.05 50.5 Q 135.75 50.5 136.3 51.05 Q 136.85 51.6 136.85 52.399998 L 136.85 64.4 Q 136.85 65.1 137.35 65.6 Q 137.85 66.1 138.55 66.1 Q 138.85 66.1 139.25 66 L 140.05 65.7 Q 140.25 65.6 140.75 65.6 Q 141.55 65.6 142.15 66.2 Q 142.75 66.8 142.75 67.6 L 142.75 73.6 Q 142.75 75 141.45001 75.5 L 138.05 76.7 Q 136.85 77 136.85 78.4 Z M 133.15 93.2 L 133.15 81.1 Q 133.15 80.4 132.6 79.85 Q 132.05 79.3 131.35 79.3 Q 131.05 79.3 130.75 79.4 L 126.05 81.1 Q 124.850006 81.6 124.850006 82.8 L 124.850006 94.9 Q 124.850006 95.7 125.350006 96.2 Q 125.850006 96.7 126.65 96.7 Q 126.95 96.7 127.25 96.6 L 131.95001 94.9 Q 133.15 94.4 133.15 93.2 Z " fill="black"/>
    <rect x="85.25" y="244" width="60.000004" height="150" stroke="orange" stroke-width="1" fill="none"/>
    <path d="M 106.85 271.9 L 106.85 284.1 Q 106.85 284.9 107.35 285.4 Q 107.85 285.9 108.65 285.9 Q 108.95 285.9 109.25 285.8 L 110.05 285.5 Q 110.35 285.4 110.75 285.4 Q 111.55 285.4 112.15 286 Q 112.75 286.6 112.75 287.4 L 112.75 293.4 Q 112.75 294.7 111.45 295.2 L 108.05 296.5 Q 106.85 297 106.85 298.1 L 106.85 312.7 Q 106.85 313.5 106.3 314.05 Q 105.75 314.6 105.05 314.6 Q 104.25 314.6 103.7 314.05 Q 103.15 313.5 103.15 312.7 L 103.15 300.8 Q 103.15 300 102.6 299.5 Q 102.05 299 101.35 299 Q 100.95 299 100.65 299.1 L 96.05 300.9 Q 94.85 301.3 94.85 302.5 L 94.85 317.1 Q 94.85 317.9 94.25 318.45 Q 93.65 319 92.95 319 Q 92.25 319 91.7 318.45 Q 91.15 317.9 91.15 317.1 L 91.15 305.2 Q 91.15 304.4 90.6 303.9 Q 90.05 303.4 89.35 303.4 Q 89.05 303.4 88.75 303.5 L 87.95 303.8 Q 87.75 303.9 87.25 303.9 Q 86.45 303.9 85.85 303.3 Q 85.25 302.7 85.25 301.9 L 85.25 295.9 Q 85.25 294.5 86.55 294 L 89.95 292.8 Q 91.15 292.5 91.15 291.1 L 91.15 278.9 Q 91.15 278.1 90.6 277.6 Q 90.05 277.1 89.35 277.1 Q 89.05 277.1 88.85 277.2 L 87.95 277.5 Q 87.75 277.6 87.25 277.6 Q 86.45 277.6 85.85 277 Q 85.25 276.4 85.25 275.6 L 85.25 269.6 Q 85.25 268.3 86.55 267.8 L 90.05 266.5 Q 91.15 266 91.15 264.9 L 91.15 250.3 Q 91.15 249.5 91.7 248.95 Q 92.25 248.4 92.95 248.4 Q 93.65 248.4 94.25 248.95 Q 94.85 249.5 94.85 250.3 L 94.85 262.2 Q 94.85 263 95.4 263.5 Q 95.95 264 96.75 264 Q 97.05 264 97.35 263.9 L 101.95 262.1 Q 103.15 261.6 103.15 260.4 L 103.15 245.9 Q 103.15 245.1 103.7 244.55 Q 104.25 244 105.05 244 Q 105.75 244 106.3 244.55 Q 106.85 245.1 106.85 245.9 L 106.85 257.9 Q 106.85 258.6 107.35 259.1 Q 107.85 259.6 108.55 259.6 Q 108.85 259.6 109.25 259.5 L 110.05 259.2 Q 110.25 259.1 110.75 259.1 Q 111.55 259.1 112.15 259.7 Q 112.75 260.3 112.75 261.1 L 112.75 267.1 Q 112.75 268.5 111.45 269 L 108.05 270.2 Q 106.85 270.5 106.85 271.9 Z M 103.15 286.7 L 103.15 274.6 Q 103.15 273.9 102.6 273.35 Q 102.05 272.8 101.35 272.8 Q 101.05 272.8 100.75 272.9 L 96.05 274.6 Q 94.85 275.1 94.85 276.3 L 94.85 288.4 Q 94.85 289.2 95.35 289.7 Q 95.85 290.2 96.65 290.2 Q 96.95 290.2 97.25 290.1 L 101.95 288.4 Q 103.15 287.9 103.15 286.7 Z M 136.85 309.4 L 136.85 321.6 Q 136.85 322.4 137.35 322.9 Q 137.85 323.4 138.65 323.4 Q 138.95001 323.4 139.25 323.3 L 140.05 323 Q 140.35 322.9 140.75 322.9 Q 141.55 322.9 142.15 323.5 Q 142.75 324.1 142.75 324.9 L 142.75 330.9 Q 142.75 332.2 141.45001 332.7 L 138.05 334 Q 136.85 334.5 136.85 335.6 L 136.85 350.2 Q 136.85 351 136.3 351.55 Q 135.75 352.1 135.05 352.1 Q 134.25 352.1 133.70001 351.55 Q 133.15 351 133.15 350.2 L 133.15 338.3 Q 133.15 337.5 132.6 337 Q 132.05 336.5 131.35 336.5 Q 130.95 336.5 130.65 336.6 L 126.05 338.4 Q 124.850006 338.8 124.850006 340 L 124.850006 354.6 Q 124.850006 355.4 124.25 355.95 Q 123.65 356.5 122.95 356.5 Q 122.25 356.5 121.7 355.95 Q 121.15 355.4 121.15 354.6 L 121.15 342.7 Q 121.15 341.9 120.600006 341.4 Q 120.05 340.9 119.350006 340.9 Q 119.05 340.9 118.75 341 L 117.95 341.3 Q 117.75 341.4 117.25 341.4 Q 116.450005 341.4 115.850006 340.8 Q 115.25 340.2 115.25 339.4 L 115.25 333.4 Q 115.25 332 116.55 331.5 L 119.95 330.3 Q 121.15 330 121.15 328.6 L 121.15 316.4 Q 121.15 315.6 120.600006 315.1 Q 120.05 314.6 119.350006 314.6 Q 119.05 314.6 118.850006 314.7 L 117.95 315 Q 117.75 315.1 117.25 315.1 Q 116.450005 315.1 115.850006 314.5 Q 115.25 313.9 115.25 313.1 L 115.25 307.1 Q 115.25 305.8 116.55 305.3 L 120.05 304 Q 121.15 303.5 121.15 302.4 L 121.15 287.8 Q 121.15 287 121.7 286.45 Q 122.25 285.9 122.95 285.9 Q 123.65 285.9 124.25 286.45 Q 124.850006 287 124.850006 287.8 L 124.850006 299.7 Q 124.850006 300.5 125.4 301 Q 125.95 301.5 126.75 301.5 Q 127.05 301.5 127.350006 301.4 L 131.95001 299.6 Q 133.15 299.1 133.15 297.9 L 133.15 283.4 Q 133.15 282.6 133.70001 282.05 Q 134.25 281.5 135.05 281.5 Q 135.75 281.5 136.3 282.05 Q 136.85 282.6 136.85 283.4 L 136.85 295.4 Q 136.85 296.1 137.35 296.6 Q 137.85 297.1 138.55 297.1 Q 138.85 297.1 139.25 297 L 140.05 296.7 Q 140.25 296.6 140.75 296.6 Q 141.55 296.6 142.15 297.2 Q 142.75 297.8 142.75 298.6 L 142.75 304.6 Q 142.75 306 141.45001 306.5 L 138.05 307.7 Q 136.85 308 136.85 309.4 Z M 133.15 324.2 L 133.15 312.1 Q 133.15 311.4 132.6 310.85 Q 132.05 310.3 131.35 310.3 Q 131.05 310.3 130.75 310.4 L 126.05 312.1 Q 124.850006 312.6 124.850006 313.8 L 124.850006 325.9 Q 124.850006 326.7 125.350006 327.2 Q 125.850006 327.7 126.65 327.7 Q 126.95 327.7 127.25 327.6 L 131.95001 325.9 Q 133.15 325.4 133.15 324.2 Z " fill="black"/>
    <ellipse cx="90.25" cy="478.5" rx="5" ry="5" stroke="gray" stroke-width="1" fill="none"/>
    <rect x="145.25" y="88" width="32.5" height="25" stroke="red" stroke-width="1" fill="none"/>
    <path d="M 145.25 103.9 Q 145.25 97.9 151.85 92.35 Q 158.45 86.8 165.35 86.8 Q 168.15 86.8 170.7 87.5 Q 173.25 88.2 175.55 90.7 Q 177.85 93.2 177.85 97.1 Q 177.85 102.6 171.15 108.4 Q 164.45 114.2 157.75 114.2 Q 154.95 114.2 152.4 113.5 Q 149.85 112.8 147.55 110.3 Q 145.25 107.8 145.25 103.9 Z " fill="black"/>
    <rect x="177.75" y="88" width="5" height="25" stroke="red" stroke-width="1" fill="none"/>
    <rect x="145.25" y="100.5" width="3" height="89.28571" stroke="red" stroke-width="1" fill="none"/>
    <rect x="145.25" y="319" width="32.5" height="25" stroke="red" stroke-width="1" fill="none"/>
    <path d="M 145.25 334.9 Q 145.25 328.9 151.85 323.35 Q 158.45 317.8 165.35 317.8 Q 168.15 317.8 170.7 318.5 Q 173.25 319.2 175.55 321.7 Q 177.85 324.2 177.85 328.1 Q 177.85 333.6 171.15 339.4 Q 164.45 345.2 157.75 345.2 Q 154.95 345.2 152.4 344.5 Q 149.85 343.8 147.55 341.3 Q 145.25 338.8 145.25 334.9 Z " fill="black"/>
    <rect x="177.75" y="319" width="5" height="25" stroke="red" stroke-width="1" fill="none"/>
    <rect x="145.25" y="331.5" width="3" height="89.28571" stroke="red" stroke-width="1" fill="none"/>
    <rect x="108.72256" y="439.85" width="12.5" height="67.3" stroke="red" stroke-width="1" fill="none"/>
    <rect x="121.22256" y="439.85" width="20.638424" height="67.3" stroke="red" stroke-width="1" fill="none"/>
    <path d="M 130.1963 457.51993 Q 129.19391 457.9018 127.045944 458.42685 Q 124.89797 458.9519 123.56146 459.14282 L 123.08413 456.46982 Q 125.5185 455.94473 128.0722 454.7037 Q 130.6259 453.46265 132.34427 451.98294 L 132.39201 451.98294 L 135.3037 452.46027 L 135.3037 479.3815 L 141.22255 479.8111 L 141.22255 482.15 L 124.03879 482.15 L 124.03879 479.8111 L 130.1963 479.3815 L 130.1963 457.51993 Z " fill="black"/>
    <rect x="141.86098" y="439.85" width="27.225536" height="67.3" stroke="red" stroke-width="1" fill="none"/>
    <path d="M 152.17123 474.44116 Q 155.84665 471.2192 158.0185 467.78244 Q 160.19034 464.3457 160.19034 461.2908 Q 160.19034 458.6655 158.61516 457.1142 Q 157.03998 455.5629 154.12828 455.5629 Q 151.40752 455.5629 149.45047 456.63687 Q 147.49344 457.71085 145.82278 459.28604 L 144.29535 457.13806 Q 145.96599 455.18103 149.06862 453.58197 Q 152.17123 451.98294 155.70346 451.98294 Q 159.04475 451.98294 161.33592 453.2001 Q 163.62709 454.4173 164.72495 456.37433 Q 165.82278 458.3314 165.82278 460.6703 Q 165.82278 465.3958 161.28818 470.38388 Q 156.75357 475.37195 149.9278 479.33377 L 164.72495 478.2359 L 166.39558 474.1309 L 168.82996 474.60822 L 167.5889 482.15 L 144.8204 482.15 L 144.10442 480.14523 Q 148.49582 477.66312 152.17123 474.44116 Z " fill="black"/>
    <rect x="169.08652" y="439.85" width="24.218376" height="67.3" stroke="red" stroke-width="1" fill="none"/>
    <path d="M 174.14618 489.6679 Q 172.80966 489.50082 171.90274 489.26218 L 171.90274 486.5414 Q 173.47792 487.01874 175.67363 487.01874 Q 179.44452 487.01874 182.18915 485.8254 Q 184.93378 484.63208 186.38962 482.5796 Q 187.84546 480.52707 187.84546 478.0927 Q 187.84546 474.8469 185.86456 473.05692 Q 183.88365 471.26694 179.77864 471.2192 L 178.29892 471.60107 Q 176.72375 472.0784 176.77148 472.03067 L 175.96002 469.50082 Q 177.9648 469.11896 179.73091 468.35526 Q 182.69034 467.1142 184.50418 465.0378 Q 186.31802 462.96146 186.31802 460.62256 Q 186.31802 457.9018 184.71898 456.63687 Q 183.11993 455.37195 180.63783 455.37195 Q 178.48985 455.37195 176.50896 456.13568 Q 174.52805 456.8994 173.09607 457.99725 L 171.80728 455.84927 Q 173.1438 454.51276 176.07936 453.24783 Q 179.01492 451.98294 182.06981 451.98294 Q 186.41348 451.98294 189.08652 453.86838 Q 191.75955 455.7538 191.75955 459.62018 Q 191.75955 463.0092 189.08652 465.77768 Q 186.41348 468.54617 182.73807 469.83496 Q 183.2154 469.78723 184.07458 469.78723 Q 186.89081 469.78723 189.03879 470.83734 Q 191.18675 471.88745 192.3562 473.67743 Q 193.52567 475.4674 193.52567 477.71085 Q 193.52567 481.19534 191.42542 483.96384 Q 189.32518 486.73233 185.4827 488.28363 Q 181.64021 489.83496 176.58055 489.83496 Q 175.4827 489.83496 174.14618 489.6679 Z " fill="black"/>
    <rect x="305.25" y="88" width="32.5" height="25" stroke="red" stroke-width="1" fill="none"/>
    <path d="M 305.25 103.9 Q 305.25 97.9 311.85 92.35 Q 318.45 86.8 325.35 86.8 Q 328.15 86.8 330.7 87.5 Q 333.25 88.2 335.55 90.7 Q 337.85 93.2 337.85 97.1 Q 337.85 102.6 331.15 108.4 Q 324.45 114.2 317.75 114.2 Q 314.95 114.2 312.4 113.5 Q 309.85 112.8 307.55 110.3 Q 305.25 107.8 305.25 103.9 Z " fill="black"/>
    <rect x="337.75" y="88" width="5" height="25" stroke="red" stroke-width="1" fill="none"/>
    <rect x="305.25" y="100.5" width="3" height="89.28571" stroke="red" stroke-width="1" fill="none"/>
    <rect x="305.25" y="319" width="32.5" height="25" stroke="red" stroke-width="1" fill="none"/>
    <path d="M 305.25 334.9 Q 305.25 328.9 311.85 323.35 Q 318.45 317.8 325.35 317.8 Q 328.15 317.8 330.7 318.5 Q 333.25 319.2 335.55 321.7 Q 337.85 324.2 337.85 328.1 Q 337.85 333.6 331.15 339.4 Q 324.45 345.2 317.75 345.2 Q 314.95 345.2 312.4 344.5 Q 309.85 343.8 307.55 341.3 Q 305.25 338.8 305.25 334.9 Z " fill="black"/>
    <rect x="337.75" y="319" width="5" height="25" stroke="red" stroke-width="1" fill="none"/>
    <rect x="305.25" y="331.5" width="3" height="89.28571" stroke="red" stroke-width="1" fill="none"/>
    <rect x="239.48628" y="439.85" width="12.5" height="67.3" stroke="red" stroke-width="1" fill="none"/>
    <rect x="251.98628" y="439.85" width="24.457039" height="67.3" stroke="red" stroke-width="1" fill="none"/>
    <path d="M 257.06982 478.90417 Q 254.03879 475.1333 254.03879 468.83258 Q 254.03879 464.67984 255.61397 461.52948 Q 257.18915 458.37912 260.02924 456.66074 Q 262.86932 454.94235 266.497 454.94235 Q 270.93616 454.94235 273.3944 457.4006 Q 275.85263 459.85883 275.99582 464.44116 Q 275.99582 467.35284 275.66168 468.8803 L 259.24164 468.8803 Q 259.33713 473.60583 261.43735 476.49368 Q 263.5376 479.3815 267.40393 479.3815 Q 269.31326 479.3815 271.38962 478.68936 Q 273.466 477.99725 274.61157 477.0426 L 275.5185 479.14282 Q 274.13425 480.57483 271.41348 481.62494 Q 268.69272 482.67505 265.8765 482.67505 Q 260.10083 482.67505 257.06982 478.90417 Z M 270.74524 466.35046 Q 270.88843 465.34808 270.88843 464.29797 Q 270.8407 461.19534 269.57578 459.40536 Q 268.31085 457.6154 265.5901 457.6154 Q 262.8216 457.6154 261.17484 459.62018 Q 259.52805 461.62494 259.2894 466.35046 L 270.74524 466.35046 Z " fill="black"/>
    <rect x="276.44333" y="439.85" width="15.387827" height="67.3" stroke="red" stroke-width="1" fill="none"/>
    <path d="M 282.07578 446.5414 L 278.20944 446.01636 L 278.20944 443.96384 L 285.8944 443.05692 L 285.98987 443.05692 L 287.03998 443.77292 L 287.03998 479.42923 L 291.09726 479.8111 L 291.09726 482.15 L 278.20944 482.15 L 278.20944 479.8111 L 282.07578 479.3815 L 282.07578 446.5414 Z " fill="black"/>
    <rect x="291.83115" y="439.85" width="24.457039" height="67.3" stroke="red" stroke-width="1" fill="none"/>
    <path d="M 296.91467 478.90417 Q 293.88367 475.1333 293.88367 468.83258 Q 293.88367 464.67984 295.45883 461.52948 Q 297.034 458.37912 299.8741 456.66074 Q 302.7142 454.94235 306.3419 454.94235 Q 310.78104 454.94235 313.23926 457.4006 Q 315.69748 459.85883 315.8407 464.44116 Q 315.8407 467.35284 315.50656 468.8803 L 299.08652 468.8803 Q 299.18198 473.60583 301.28223 476.49368 Q 303.38245 479.3815 307.2488 479.3815 Q 309.1581 479.3815 311.2345 478.68936 Q 313.31085 477.99725 314.45645 477.0426 L 315.36337 479.14282 Q 313.97913 480.57483 311.25836 481.62494 Q 308.5376 482.67505 305.72137 482.67505 Q 299.9457 482.67505 296.91467 478.90417 Z M 310.5901 466.35046 Q 310.7333 465.34808 310.7333 464.29797 Q 310.68555 461.19534 309.42065 459.40536 Q 308.15573 457.6154 305.43497 457.6154 Q 302.66647 457.6154 301.01968 459.62018 Q 299.37292 461.62494 299.13425 466.35046 L 310.5901 466.35046 Z " fill="black"/>
    <rect x="316.28818" y="439.85" width="15.149163" height="67.3" stroke="red" stroke-width="1" fill="none"/>
    <path d="M 321.77744 450.02588 Q 321.0137 449.1667 321.0137 447.8302 Q 321.0137 446.30273 321.9445 445.30035 Q 322.87527 444.29797 324.4982 444.29797 Q 326.12112 444.29797 326.88483 445.15717 Q 327.64856 446.01636 327.64856 447.35284 Q 327.64856 448.97577 326.71777 449.93042 Q 325.787 450.88507 324.11633 450.88507 L 324.0686 450.88507 Q 322.54117 450.88507 321.77744 450.02588 Z M 322.1593 459.33377 L 318.53162 458.47458 L 318.53162 455.94473 L 325.93018 455.0378 L 326.02563 455.0378 L 327.1235 455.897 L 327.1235 479.42923 L 330.9421 479.8111 L 330.9421 482.15 L 318.29294 482.15 L 318.29294 479.8111 L 322.1593 479.3815 L 322.1593 459.33377 Z " fill="black"/>
    <rect x="331.43735" y="439.85" width="21.83174" height="67.3" stroke="red" stroke-width="1" fill="none"/>
    <path d="M 338.02444 478.3314 Q 338.5018 479.04736 340.0531 479.62015 Q 341.6044 480.19296 343.32278 480.19296 Q 346.04355 480.19296 347.33234 479.14282 Q 348.62112 478.0927 348.62112 476.23114 Q 348.62112 474.94235 347.80966 473.9877 Q 346.9982 473.03305 345.54236 472.29318 Q 344.08652 471.55334 341.36575 470.5032 Q 337.69034 469.11896 335.99582 467.1858 Q 334.3013 465.25262 334.3013 462.10226 Q 334.3013 460.002 335.56622 458.42685 Q 336.83115 456.85165 339.05072 455.9686 Q 341.2703 455.08557 343.99106 455.08557 Q 346.18674 455.08557 347.83353 455.41968 Q 349.48032 455.7538 350.4827 456.08795 Q 351.48508 456.42206 351.8192 456.51755 L 351.8192 462.4364 L 348.9075 462.4364 L 347.95285 458.90417 Q 347.66647 458.3314 346.4254 457.92566 Q 345.18436 457.51993 343.65692 457.51993 Q 341.50894 457.51993 340.1963 458.47458 Q 338.88364 459.42923 338.88364 461.05215 Q 338.88364 462.48413 339.57578 463.41492 Q 340.26788 464.3457 341.31802 464.9185 Q 342.36813 465.49127 344.18198 466.255 L 345.13663 466.63687 Q 347.80966 467.68698 349.48032 468.64163 Q 351.15094 469.59628 352.27267 471.1476 Q 353.39438 472.6989 353.39438 474.94235 Q 353.39438 478.47458 350.64975 480.57483 Q 347.90512 482.67505 343.13187 482.67505 Q 340.79297 482.67505 338.23926 482.03067 Q 335.68555 481.38626 334.06265 480.71802 L 334.06265 474.60822 L 337.16528 474.60822 L 338.02444 478.3314 Z " fill="black"/>
    <rect x="353.2691" y="439.85" width="27.177803" height="67.3" stroke="red" stroke-width="1" fill="none"/>
    <path d="M 357.1832 461.38626 Q 358.94928 458.2359 361.83713 456.58914 Q 364.72495 454.94235 368.0185 454.94235 Q 374.03284 454.94235 377.06384 458.761 Q 380.09488 462.5796 380.09488 468.78485 Q 380.09488 473.1285 378.32877 476.27887 Q 376.56265 479.42923 373.67484 481.05215 Q 370.787 482.67505 367.49344 482.67505 Q 361.47913 482.67505 358.4481 478.85645 Q 355.41708 475.0378 355.41708 468.83258 Q 355.41708 464.53662 357.1832 461.38626 Z M 372.8395 477.23352 Q 374.60562 474.51276 374.60562 469.1667 Q 374.60562 463.86838 372.9827 460.76575 Q 371.3598 457.66312 367.77985 457.66312 Q 364.4863 457.66312 362.69632 460.38388 Q 360.90634 463.10464 360.90634 468.4507 Q 360.90634 473.74905 362.57697 476.85165 Q 364.24762 479.95428 367.77985 479.95428 Q 371.0734 479.95428 372.8395 477.23352 Z " fill="black"/>
    <rect x="380.4469" y="439.85" width="31.330547" height="67.3" stroke="red" stroke-width="1" fill="none"/>
    <path d="M 385.45883 459.33377 L 382.02206 458.47458 L 382.02206 455.897 L 388.84784 455.0378 L 388.99106 455.0378 L 389.99344 455.897 L 389.99344 457.9018 L 389.9457 459.04736 Q 391.6641 457.51993 394.48032 456.27887 Q 397.29654 455.0378 399.8741 455.0378 Q 402.88126 455.0378 404.52805 456.1834 Q 406.17484 457.32898 406.84308 459.69177 Q 407.51135 462.05453 407.51135 466.0641 L 407.51135 479.42923 L 410.85263 479.76337 L 410.85263 482.15 L 399.53998 482.15 L 399.53998 479.8111 L 402.4994 479.42923 L 402.4994 466.01636 Q 402.4994 463.2001 402.11755 461.60107 Q 401.7357 460.002 400.68555 459.21445 Q 399.63544 458.42685 397.63068 458.42685 Q 395.9123 458.42685 393.95526 459.28604 Q 391.9982 460.14523 390.47076 461.2908 L 390.47076 479.3815 L 393.71658 479.8111 L 393.71658 482.15 L 382.45166 482.15 L 382.45166 479.8111 L 385.45883 479.3815 L 385.45883 459.33377 Z " fill="black"/>
    <rect x="465.25" y="0.5" width="10" height="200" stroke="orange" stroke-width="1" fill="none"/>
    <rect x="465.25" y="231.5" width="10" height="200" stroke="orange" stroke-width="1" fill="none"/>
    <rect x="465.25" y="461" width="10" height="25" stroke="orange" stroke-width="1" fill="none"/>
    <line x1="146.75" y1="104.5" x2="146.75" y2="189.7857" stroke="black" stroke-width="3"/>
    <line x1="306.75" y1="104.5" x2="306.75" y2="189.7857" stroke="black" stroke-width="3"/>
    <line x1="146.75" y1="335.5" x2="146.75" y2="420.7857" stroke="black" stroke-width="3"/>
    <line x1="306.75" y1="335.5" x2="306.75" y2="420.7857" stroke="black" stroke-width="3"/>
    <rect x="0" y="0" width="476.5" height="507.65002" stroke="black" stroke-width="1" fill="none"/>
</svg>
