<svg xmlns="http://www.w3.org/2000/svg" xmlns:xlink="http://www.w3.org/1999/xlink" viewBox="0 0 1201 536.5">
    <rect x="0.5" y="148" width="10" height="10" stroke="orange" stroke-width="1" fill="none"/>
    <rect x="0.5" y="441" width="10" height="10" stroke="orange" stroke-width="1" fill="none"/>
    <rect x="10.5" y="115.5" width="32.5" height="25" stroke="lightgray" stroke-width="1" fill="none"/>
    <path d="M 10.5 131.4 Q 10.5 125.4 17.1 119.85 Q 23.7 114.3 30.6 114.3 Q 33.4 114.3 35.95 115 Q 38.5 115.7 40.800003 118.2 Q 43.100002 120.7 43.100002 124.6 Q 43.100002 130.1 36.4 135.9 Q 29.7 141.7 23 141.7 Q 20.2 141.7 17.65 141 Q 15.1 140.3 12.8 137.8 Q 10.5 135.3 10.5 131.4 Z " fill="black"/>
    <rect x="10.5" y="153" width="32.5" height="25" stroke="lightgray" stroke-width="1" fill="none"/>
    <path d="M 10.5 168.9 Q 10.5 162.9 17.1 157.35 Q 23.7 151.8 30.6 151.8 Q 33.4 151.8 35.95 152.5 Q 38.5 153.2 40.800003 155.7 Q 43.100002 158.2 43.100002 162.1 Q 43.100002 167.6 36.4 173.4 Q 29.7 179.2 23 179.2 Q 20.2 179.2 17.65 178.5 Q 15.1 177.8 12.8 175.3 Q 10.5 172.8 10.5 168.9 Z " fill="black"/>
    <rect x="40" y="38" width="3" height="90" stroke="lightgray" stroke-width="1" fill="none"/>
    <rect x="40" y="38" width="3" height="90" fill="black"/>
    <rect x="10.5" y="165.5" width="3" height="115" stroke="lightgray" stroke-width="1" fill="none"/>
    <rect x="10.5" y="165.5" width="3" height="115" fill="black"/>
    <rect x="10.5" y="268" width="50" height="25" stroke="lightgray" stroke-width="1" fill="none"/>
    <rect x="10.5" y="433.5" width="32.5" height="25" stroke="lightgray" stroke-width="1" fill="none"/>
    <path d="M 10.5 449.4 Q 10.5 443.4 17.1 437.85 Q 23.7 432.3 30.6 432.3 Q 33.4 432.3 35.95 433 Q 38.5 433.7 40.800003 436.2 Q 43.100002 438.7 43.100002 442.6 Q 43.100002 448.1 36.4 453.9 Q 29.7 459.7 23 459.7 Q 20.2 459.7 17.65 459 Q 15.1 458.3 12.8 455.8 Q 10.5 453.3 10.5 449.4 Z " fill="black"/>
    <rect x="40" y="356" width="3" height="90" stroke="lightgray" stroke-width="1" fill="none"/>
    <rect x="40" y="356" width="3" height="90" fill="black"/>
    <rect x="10.5" y="343.5" width="50" height="25" stroke="lightgray" stroke-width="1" fill="none"/>
    <rect x="70.5" y="165.5" width="32.5" height="25" stroke="lightgray" stroke-width="1" fill="none"/>
    <path d="M 70.5 181.4 Q 70.5 175.4 77.1 169.85 Q 83.7 164.3 90.6 164.3 Q 93.4 164.3 95.95 165 Q 98.5 165.7 100.8 168.2 Q 103.100006 170.7 103.100006 174.6 Q 103.100006 180.1 96.4 185.9 Q 89.7 191.7 83 191.7 Q 80.2 191.7 77.65 191 Q 75.1 190.3 72.8 187.8 Q 70.5 185.3 70.5 181.4 Z " fill="black"/>
    <ellipse cx="75.5" cy="451" rx="5" ry="5" stroke="gray" stroke-width="1" fill="none"/>
    <rect x="130.5" y="178" width="32.5" height="25" stroke="lightgray" stroke-width="1" fill="none"/>
    <path d="M 130.5 193.9 Q 130.5 187.9 137.1 182.35 Q 143.7 176.8 150.6 176.8 Q 153.4 176.8 155.95 177.5 Q 158.5 178.2 160.8 180.7 Q 163.1 183.2 163.1 187.1 Q 163.1 192.6 156.4 198.4 Q 149.7 204.2 143 204.2 Q 140.2 204.2 137.65 203.5 Q 135.1 202.8 132.8 200.3 Q 130.5 197.8 130.5 193.9 Z " fill="black"/>
    <rect x="130.5" y="458.5" width="32.5" height="25" stroke="lightgray" stroke-width="1" fill="none"/>
    <path d="M 130.5 474.4 Q 130.5 468.4 137.1 462.85 Q 143.7 457.3 150.6 457.3 Q 153.4 457.3 155.95 458 Q 158.5 458.7 160.8 461.2 Q 163.1 463.7 163.1 467.6 Q 163.1 473.1 156.4 478.9 Q 149.7 484.7 143 484.7 Q 140.2 484.7 137.65 484 Q 135.1 483.3 132.8 480.8 Q 130.5 478.3 130.5 474.4 Z " fill="black"/>
    <rect x="160" y="381" width="3" height="90" stroke="lightgray" stroke-width="1" fill="none"/>
    <rect x="160" y="381" width="3" height="90" fill="black"/>
    <rect x="130.5" y="368.5" width="32.5" height="25" stroke="lightgray" stroke-width="1" fill="none"/>
    <rect x="190.5" y="190.5" width="32.5" height="25" stroke="lightgray" stroke-width="1" fill="none"/>
    <path d="M 190.5 206.4 Q 190.5 200.4 197.1 194.85 Q 203.7 189.3 210.6 189.3 Q 213.4 189.3 215.95 190 Q 218.5 190.7 220.8 193.2 Q 223.1 195.7 223.1 199.6 Q 223.1 205.1 216.4 210.9 Q 209.7 216.7 203 216.7 Q 200.2 216.7 197.65 216 Q 195.1 215.3 192.8 212.8 Q 190.5 210.3 190.5 206.4 Z " fill="black"/>
    <rect x="190.5" y="203" width="3" height="90" stroke="lightgray" stroke-width="1" fill="none"/>
    <rect x="190.5" y="203" width="3" height="90" fill="black"/>
    <rect x="190.5" y="280.5" width="32.5" height="25" stroke="lightgray" stroke-width="1" fill="none"/>
    <ellipse cx="195.5" cy="451" rx="5" ry="5" stroke="gray" stroke-width="1" fill="none"/>
    <rect x="250.5" y="115.5" width="32.5" height="25" stroke="lightgray" stroke-width="1" fill="none"/>
    <path d="M 250.5 131.4 Q 250.5 125.4 257.1 119.85 Q 263.7 114.3 270.6 114.3 Q 273.4 114.3 275.95 115 Q 278.5 115.7 280.8 118.2 Q 283.1 120.7 283.1 124.6 Q 283.1 130.1 276.4 135.9 Q 269.7 141.7 263 141.7 Q 260.2 141.7 257.65 141 Q 255.1 140.3 252.8 137.8 Q 250.5 135.3 250.5 131.4 Z " fill="black"/>
    <rect x="250.5" y="178" width="32.5" height="25" stroke="lightgray" stroke-width="1" fill="none"/>
    <path d="M 250.5 193.9 Q 250.5 187.9 257.1 182.35 Q 263.7 176.8 270.6 176.8 Q 273.4 176.8 275.95 177.5 Q 278.5 178.2 280.8 180.7 Q 283.1 183.2 283.1 187.1 Q 283.1 192.6 276.4 198.4 Q 269.7 204.2 263 204.2 Q 260.2 204.2 257.65 203.5 Q 255.1 202.8 252.8 200.3 Q 250.5 197.8 250.5 193.9 Z " fill="black"/>
    <rect x="280" y="38" width="3" height="90" stroke="lightgray" stroke-width="1" fill="none"/>
    <rect x="280" y="38" width="3" height="90" fill="black"/>
    <rect x="250.5" y="190.5" width="3" height="90" stroke="lightgray" stroke-width="1" fill="none"/>
    <rect x="250.5" y="190.5" width="3" height="90" fill="black"/>
    <rect x="250.5" y="268" width="50" height="25" stroke="lightgray" stroke-width="1" fill="none"/>
    <rect x="250.5" y="483.5" width="32.5" height="25" stroke="lightgray" stroke-width="1" fill="none"/>
    <path d="M 250.5 499.4 Q 250.5 493.4 257.1 487.85 Q 263.7 482.3 270.6 482.3 Q 273.4 482.3 275.95 483 Q 278.5 483.7 280.8 486.2 Q 283.1 488.7 283.1 492.6 Q 283.1 498.1 276.4 503.9 Q 269.7 509.7 263 509.7 Q 260.2 509.7 257.65 509 Q 255.1 508.3 252.8 505.8 Q 250.5 503.3 250.5 499.4 Z " fill="black"/>
    <rect x="280" y="393.5" width="3" height="102.5" stroke="lightgray" stroke-width="1" fill="none"/>
    <rect x="280" y="393.5" width="3" height="102.5" fill="black"/>
    <rect x="250.5" y="381" width="50" height="25" stroke="lightgray" stroke-width="1" fill="none"/>
    <rect x="325.5" y="165.5" width="32.5" height="25" stroke="lightgray" stroke-width="1" fill="none"/>
    <path d="M 325.5 181.4 Q 325.5 175.4 332.1 169.85 Q 338.7 164.3 345.6 164.3 Q 348.4 164.3 350.95 165 Q 353.5 165.7 355.8 168.2 Q 358.1 170.7 358.1 174.6 Q 358.1 180.1 351.4 185.9 Q 344.7 191.7 338 191.7 Q 335.2 191.7 332.65 191 Q 330.1 190.3 327.8 187.8 Q 325.5 185.3 325.5 181.4 Z " fill="black"/>
    <rect x="325.5" y="446" width="32.5" height="25" stroke="lightgray" stroke-width="1" fill="none"/>
    <path d="M 325.5 461.9 Q 325.5 455.9 332.1 450.35 Q 338.7 444.8 345.6 444.8 Q 348.4 444.8 350.95 445.5 Q 353.5 446.2 355.8 448.7 Q 358.1 451.2 358.1 455.1 Q 358.1 460.6 351.4 466.4 Q 344.7 472.2 338 472.2 Q 335.2 472.2 332.65 471.5 Q 330.1 470.8 327.8 468.3 Q 325.5 465.8 325.5 461.9 Z " fill="black"/>
    <rect x="355" y="368.5" width="3" height="90" stroke="lightgray" stroke-width="1" fill="none"/>
    <rect x="355" y="368.5" width="3" height="90" fill="black"/>
    <rect x="325.5" y="356" width="32.5" height="25" stroke="lightgray" stroke-width="1" fill="none"/>
    <rect x="385.5" y="153" width="32.5" height="25" stroke="lightgray" stroke-width="1" fill="none"/>
    <path d="M 385.5 168.9 Q 385.5 162.9 392.1 157.35 Q 398.7 151.8 405.6 151.8 Q 408.4 151.8 410.95 152.5 Q 413.5 153.2 415.8 155.7 Q 418.1 158.2 418.1 162.1 Q 418.1 167.6 411.4 173.4 Q 404.7 179.2 398 179.2 Q 395.2 179.2 392.65 178.5 Q 390.1 177.8 387.8 175.3 Q 385.5 172.8 385.5 168.9 Z " fill="black"/>
    <rect x="385.5" y="165.5" width="3" height="102.5" stroke="lightgray" stroke-width="1" fill="none"/>
    <rect x="385.5" y="165.5" width="3" height="102.5" fill="black"/>
    <rect x="385.5" y="255.5" width="32.5" height="25" stroke="lightgray" stroke-width="1" fill="none"/>
    <ellipse cx="390.5" cy="451" rx="5" ry="5" stroke="gray" stroke-width="1" fill="none"/>
    <rect x="445.5" y="123" width="5" height="60" stroke="orange" stroke-width="1" fill="none"/>
    <rect x="445.5" y="416" width="5" height="60" stroke="orange" stroke-width="1" fill="none"/>
    <rect x="450.5" y="128" width="32.5" height="25" stroke="lightgray" stroke-width="1" fill="none"/>
    <path d="M 450.5 143.9 Q 450.5 137.9 457.1 132.35 Q 463.7 126.8 470.6 126.8 Q 473.4 126.8 475.95 127.5 Q 478.5 128.2 480.8 130.7 Q 483.1 133.2 483.1 137.1 Q 483.1 142.6 476.4 148.4 Q 469.7 154.2 463 154.2 Q 460.2 154.2 457.65 153.5 Q 455.1 152.8 452.8 150.3 Q 450.5 147.8 450.5 143.9 Z " fill="black"/>
    <rect x="450.5" y="165.5" width="32.5" height="25" stroke="lightgray" stroke-width="1" fill="none"/>
    <path d="M 450.5 181.4 Q 450.5 175.4 457.1 169.85 Q 463.7 164.3 470.6 164.3 Q 473.4 164.3 475.95 165 Q 478.5 165.7 480.8 168.2 Q 483.1 170.7 483.1 174.6 Q 483.1 180.1 476.4 185.9 Q 469.7 191.7 463 191.7 Q 460.2 191.7 457.65 191 Q 455.1 190.3 452.8 187.8 Q 450.5 185.3 450.5 181.4 Z " fill="black"/>
    <rect x="480" y="38" width="3" height="102.5" stroke="lightgray" stroke-width="1" fill="none"/>
    <rect x="480" y="38" width="3" height="102.5" fill="black"/>
    <rect x="450.5" y="25.5" width="50" height="25" stroke="lightgray" stroke-width="1" fill="none"/>
    <rect x="450.5" y="178" width="3" height="90" stroke="lightgray" stroke-width="1" fill="none"/>
    <rect x="450.5" y="178" width="3" height="90" fill="black"/>
    <rect x="450.5" y="433.5" width="32.5" height="25" stroke="lightgray" stroke-width="1" fill="none"/>
    <path d="M 450.5 449.4 Q 450.5 443.4 457.1 437.85 Q 463.7 432.3 470.6 432.3 Q 473.4 432.3 475.95 433 Q 478.5 433.7 480.8 436.2 Q 483.1 438.7 483.1 442.6 Q 483.1 448.1 476.4 453.9 Q 469.7 459.7 463 459.7 Q 460.2 459.7 457.65 459 Q 455.1 458.3 452.8 455.8 Q 450.5 453.3 450.5 449.4 Z " fill="black"/>
    <rect x="480" y="356" width="3" height="90" stroke="lightgray" stroke-width="1" fill="none"/>
    <rect x="480" y="356" width="3" height="90" fill="black"/>
    <rect x="450.5" y="343.5" width="50" height="25" stroke="lightgray" stroke-width="1" fill="none"/>
    <rect x="510.5" y="115.5" width="32.5" height="25" stroke="lightgray" stroke-width="1" fill="none"/>
    <path d="M 510.5 131.4 Q 510.5 125.4 517.1 119.85 Q 523.7 114.3 530.6 114.3 Q 533.4 114.3 535.95 115 Q 538.5 115.7 540.8 118.2 Q 543.1 120.7 543.1 124.6 Q 543.1 130.1 536.4 135.9 Q 529.7 141.7 523 141.7 Q 520.2 141.7 517.65 141 Q 515.1 140.3 512.8 137.8 Q 510.5 135.3 510.5 131.4 Z " fill="black"/>
    <ellipse cx="515.5" cy="451" rx="5" ry="5" stroke="gray" stroke-width="1" fill="none"/>
    <ellipse cx="575.5" cy="158" rx="5" ry="5" stroke="gray" stroke-width="1" fill="none"/>
    <rect x="570.5" y="458.5" width="32.5" height="25" stroke="lightgray" stroke-width="1" fill="none"/>
    <path d="M 570.5 474.4 Q 570.5 468.4 577.1 462.85 Q 583.7 457.3 590.6 457.3 Q 593.4 457.3 595.95 458 Q 598.5 458.7 600.8 461.2 Q 603.1 463.7 603.1 467.6 Q 603.1 473.1 596.4 478.9 Q 589.7 484.7 583 484.7 Q 580.2 484.7 577.65 484 Q 575.1 483.3 572.8 480.8 Q 570.5 478.3 570.5 474.4 Z " fill="black"/>
    <rect x="600" y="381" width="3" height="90" stroke="lightgray" stroke-width="1" fill="none"/>
    <rect x="600" y="381" width="3" height="90" fill="black"/>
    <rect x="570.5" y="368.5" width="32.5" height="25" stroke="lightgray" stroke-width="1" fill="none"/>
    <rect x="630.5" y="103" width="32.5" height="25" stroke="lightgray" stroke-width="1" fill="none"/>
    <path d="M 630.5 118.9 Q 630.5 112.9 637.1 107.35 Q 643.7 101.8 650.6 101.8 Q 653.4 101.8 655.95 102.5 Q 658.5 103.2 660.8 105.7 Q 663.1 108.2 663.1 112.1 Q 663.1 117.6 656.4 123.4 Q 649.7 129.2 643 129.2 Q 640.2 129.2 637.65 128.5 Q 635.1 127.8 632.8 125.3 Q 630.5 122.8 630.5 118.9 Z " fill="black"/>
    <rect x="660" y="25.5" width="3" height="90" stroke="lightgray" stroke-width="1" fill="none"/>
    <rect x="660" y="25.5" width="3" height="90" fill="black"/>
    <rect x="630.5" y="13" width="32.5" height="25" stroke="lightgray" stroke-width="1" fill="none"/>
    <ellipse cx="635.5" cy="451" rx="5" ry="5" stroke="gray" stroke-width="1" fill="none"/>
    <rect x="690.5" y="90.5" width="32.5" height="25" stroke="lightgray" stroke-width="1" fill="none"/>
    <path d="M 690.5 106.4 Q 690.5 100.4 697.1 94.85 Q 703.7 89.3 710.6 89.3 Q 713.4 89.3 715.95 90 Q 718.5 90.7 720.8 93.2 Q 723.1 95.7 723.1 99.6 Q 723.1 105.1 716.4 110.9 Q 709.7 116.7 703 116.7 Q 700.2 116.7 697.65 116 Q 695.1 115.3 692.8 112.8 Q 690.5 110.3 690.5 106.4 Z " fill="black"/>
    <rect x="690.5" y="165.5" width="32.5" height="25" stroke="lightgray" stroke-width="1" fill="none"/>
    <path d="M 690.5 181.4 Q 690.5 175.4 697.1 169.85 Q 703.7 164.3 710.6 164.3 Q 713.4 164.3 715.95 165 Q 718.5 165.7 720.8 168.2 Q 723.1 170.7 723.1 174.6 Q 723.1 180.1 716.4 185.9 Q 709.7 191.7 703 191.7 Q 700.2 191.7 697.65 191 Q 695.1 190.3 692.8 187.8 Q 690.5 185.3 690.5 181.4 Z " fill="black"/>
    <rect x="720" y="13" width="3" height="90" stroke="lightgray" stroke-width="1" fill="none"/>
    <rect x="720" y="13" width="3" height="90" fill="black"/>
    <rect x="690.5" y="0.5" width="50" height="25" stroke="lightgray" stroke-width="1" fill="none"/>
    <rect x="690.5" y="178" width="3" height="90" stroke="lightgray" stroke-width="1" fill="none"/>
    <rect x="690.5" y="178" width="3" height="90" fill="black"/>
    <rect x="690.5" y="483.5" width="32.5" height="25" stroke="lightgray" stroke-width="1" fill="none"/>
    <path d="M 690.5 499.4 Q 690.5 493.4 697.1 487.85 Q 703.7 482.3 710.6 482.3 Q 713.4 482.3 715.95 483 Q 718.5 483.7 720.8 486.2 Q 723.1 488.7 723.1 492.6 Q 723.1 498.1 716.4 503.9 Q 709.7 509.7 703 509.7 Q 700.2 509.7 697.65 509 Q 695.1 508.3 692.8 505.8 Q 690.5 503.3 690.5 499.4 Z " fill="black"/>
    <rect x="720" y="393.5" width="3" height="102.5" stroke="lightgray" stroke-width="1" fill="none"/>
    <rect x="720" y="393.5" width="3" height="102.5" fill="black"/>
    <rect x="690.5" y="381" width="50" height="25" stroke="lightgray" stroke-width="1" fill="none"/>
    <rect x="750.5" y="115.5" width="32.5" height="25" stroke="lightgray" stroke-width="1" fill="none"/>
    <path d="M 750.5 131.4 Q 750.5 125.4 757.1 119.85 Q 763.7 114.3 770.6 114.3 Q 773.4 114.3 775.95 115 Q 778.5 115.7 780.8 118.2 Q 783.1 120.7 783.1 124.6 Q 783.1 130.1 776.4 135.9 Q 769.7 141.7 763 141.7 Q 760.2 141.7 757.65 141 Q 755.1 140.3 752.8 137.8 Q 750.5 135.3 750.5 131.4 Z " fill="black"/>
    <rect x="783" y="121.75" width="20" height="12.5" stroke="lightgray" stroke-width="1" fill="none"/>
    <path d="M 789.25 128 Q 789.25 125.7 790.85 124.1 Q 792.45 122.5 794.75 122.5 Q 797.05 122.5 798.65 124.1 Q 800.25 125.7 800.25 128 Q 800.25 130.3 798.65 131.9 Q 797.05 133.5 794.75 133.5 Q 792.45 133.5 790.85 131.9 Q 789.25 130.3 789.25 128 Z " fill="black"/>
    <rect x="780" y="38" width="3" height="90" stroke="lightgray" stroke-width="1" fill="none"/>
    <rect x="780" y="38" width="3" height="90" fill="black"/>
    <rect x="750.5" y="25.5" width="32.5" height="25" stroke="lightgray" stroke-width="1" fill="none"/>
    <ellipse cx="755.5" cy="451" rx="5" ry="5" stroke="gray" stroke-width="1" fill="none"/>
    <ellipse cx="815.5" cy="158" rx="5" ry="5" stroke="gray" stroke-width="1" fill="none"/>
    <rect x="810.5" y="446" width="32.5" height="25" stroke="lightgray" stroke-width="1" fill="none"/>
    <path d="M 810.5 461.9 Q 810.5 455.9 817.1 450.35 Q 823.7 444.8 830.6 444.8 Q 833.4 444.8 835.95 445.5 Q 838.5 446.2 840.8 448.7 Q 843.1 451.2 843.1 455.1 Q 843.1 460.6 836.4 466.4 Q 829.7 472.2 823 472.2 Q 820.2 472.2 817.65 471.5 Q 815.1 470.8 812.8 468.3 Q 810.5 465.8 810.5 461.9 Z " fill="black"/>
    <rect x="840" y="368.5" width="3" height="90" stroke="lightgray" stroke-width="1" fill="none"/>
    <rect x="840" y="368.5" width="3" height="90" fill="black"/>
    <rect x="810.5" y="356" width="32.5" height="25" stroke="lightgray" stroke-width="1" fill="none"/>
    <rect x="885.5" y="123" width="5" height="60" stroke="orange" stroke-width="1" fill="none"/>
    <rect x="885.5" y="416" width="5" height="60" stroke="orange" stroke-width="1" fill="none"/>
    <rect x="890.5" y="178" width="32.5" height="25" stroke="lightgray" stroke-width="1" fill="none"/>
    <path d="M 890.5 193.9 Q 890.5 187.9 897.1 182.35 Q 903.7 176.8 910.6 176.8 Q 913.4 176.8 915.95 177.5 Q 918.5 178.2 920.8 180.7 Q 923.1 183.2 923.1 187.1 Q 923.1 192.6 916.4 198.4 Q 909.7 204.2 903 204.2 Q 900.2 204.2 897.65 203.5 Q 895.1 202.8 892.8 200.3 Q 890.5 197.8 890.5 193.9 Z " fill="black"/>
    <rect x="920" y="63" width="3" height="127.5" stroke="lightgray" stroke-width="1" fill="none"/>
    <rect x="920" y="63" width="3" height="127.5" fill="black"/>
    <rect x="890.5" y="50.5" width="50" height="25" stroke="lightgray" stroke-width="1" fill="none"/>
    <rect x="890.5" y="433.5" width="32.5" height="25" stroke="lightgray" stroke-width="1" fill="none"/>
    <path d="M 890.5 449.4 Q 890.5 443.4 897.1 437.85 Q 903.7 432.3 910.6 432.3 Q 913.4 432.3 915.95 433 Q 918.5 433.7 920.8 436.2 Q 923.1 438.7 923.1 442.6 Q 923.1 448.1 916.4 453.9 Q 909.7 459.7 903 459.7 Q 900.2 459.7 897.65 459 Q 895.1 458.3 892.8 455.8 Q 890.5 453.3 890.5 449.4 Z " fill="black"/>
    <rect x="890.5" y="446" width="3" height="90" stroke="lightgray" stroke-width="1" fill="none"/>
    <rect x="890.5" y="446" width="3" height="90" fill="black"/>
    <rect x="965.5" y="115.5" width="32.5" height="25" stroke="lightgray" stroke-width="1" fill="none"/>
    <path d="M 965.5 131.4 Q 965.5 125.4 972.1 119.85 Q 978.7 114.3 985.6 114.3 Q 988.4 114.3 990.95 115 Q 993.5 115.7 995.8 118.2 Q 998.1 120.7 998.1 124.6 Q 998.1 130.1 991.4 135.9 Q 984.7 141.7 978 141.7 Q 975.2 141.7 972.65 141 Q 970.1 140.3 967.8 137.8 Q 965.5 135.3 965.5 131.4 Z " fill="black"/>
    <rect x="995" y="38" width="3" height="90" stroke="lightgray" stroke-width="1" fill="none"/>
    <rect x="995" y="38" width="3" height="90" fill="black"/>
    <rect x="965.5" y="25.5" width="32.5" height="25" stroke="lightgray" stroke-width="1" fill="none"/>
    <ellipse cx="970.5" cy="451" rx="5" ry="5" stroke="gray" stroke-width="1" fill="none"/>
    <rect x="1040.5" y="90.5" width="32.5" height="25" stroke="lightgray" stroke-width="1" fill="none"/>
    <path d="M 1040.5 106.4 Q 1040.5 100.4 1047.1 94.85 Q 1053.7 89.3 1060.6 89.3 Q 1063.4 89.3 1065.95 90 Q 1068.5 90.7 1070.8 93.2 Q 1073.1 95.7 1073.1 99.6 Q 1073.1 105.1 1066.4 110.9 Q 1059.7 116.7 1053 116.7 Q 1050.2 116.7 1047.65 116 Q 1045.1 115.3 1042.8 112.8 Q 1040.5 110.3 1040.5 106.4 Z " fill="black"/>
    <rect x="1040.5" y="103" width="3" height="90" stroke="lightgray" stroke-width="1" fill="none"/>
    <rect x="1040.5" y="103" width="3" height="90" fill="black"/>
    <rect x="1040.5" y="180.5" width="50" height="25" stroke="lightgray" stroke-width="1" fill="none"/>
    <rect x="1040.5" y="458.5" width="32.5" height="25" stroke="lightgray" stroke-width="1" fill="none"/>
    <path d="M 1040.5 474.4 Q 1040.5 468.4 1047.1 462.85 Q 1053.7 457.3 1060.6 457.3 Q 1063.4 457.3 1065.95 458 Q 1068.5 458.7 1070.8 461.2 Q 1073.1 463.7 1073.1 467.6 Q 1073.1 473.1 1066.4 478.9 Q 1059.7 484.7 1053 484.7 Q 1050.2 484.7 1047.65 484 Q 1045.1 483.3 1042.8 480.8 Q 1040.5 478.3 1040.5 474.4 Z " fill="black"/>
    <rect x="1070" y="381" width="3" height="90" stroke="lightgray" stroke-width="1" fill="none"/>
    <rect x="1070" y="381" width="3" height="90" fill="black"/>
    <rect x="1115.5" y="65.5" width="32.5" height="25" stroke="lightgray" stroke-width="1" fill="none"/>
    <path d="M 1115.5 81.4 Q 1115.5 75.4 1122.1 69.85 Q 1128.7 64.3 1135.6 64.3 Q 1138.4 64.3 1140.95 65 Q 1143.5 65.7 1145.8 68.2 Q 1148.1 70.7 1148.1 74.6 Q 1148.1 80.1 1141.4 85.9 Q 1134.7 91.7 1128 91.7 Q 1125.2 91.7 1122.65 91 Q 1120.1 90.3 1117.8 87.8 Q 1115.5 85.3 1115.5 81.4 Z " fill="black"/>
    <rect x="1115.5" y="78" width="3" height="90" stroke="lightgray" stroke-width="1" fill="none"/>
    <rect x="1115.5" y="78" width="3" height="90" fill="black"/>
    <rect x="1115.5" y="155.5" width="32.5" height="25" stroke="lightgray" stroke-width="1" fill="none"/>
    <ellipse cx="1120.5" cy="451" rx="5" ry="5" stroke="gray" stroke-width="1" fill="none"/>
    <rect x="1190.5" y="148" width="10" height="10" stroke="orange" stroke-width="1" fill="none"/>
    <rect x="1190.5" y="441" width="10" height="10" stroke="orange" stroke-width="1" fill="none"/>
    <path d="M 10.5 266.5 L 193.5 279 L 193.5 294 L 10.5 281.5 Z " fill="black"/>
    <rect x="70.5" y="178" width="3" height="106.66667" fill="black"/>
    <rect x="130.5" y="190.5" width="3" height="98.33333" fill="black"/>
    <path d="M 250.5 266.5 L 388.5 254 L 388.5 269 L 250.5 281.5 Z " fill="black"/>
    <rect x="325.5" y="178" width="3" height="95.55556" fill="black"/>
    <path d="M 480 37 L 663 24.5 L 663 39.5 L 480 52 Z " fill="black"/>
    <rect x="540" y="33.833336" width="3" height="94.166664" fill="black"/>
    <path d="M 720 12 L 783 37 L 783 52 L 720 27 Z " fill="black"/>
    <path d="M 920 62 L 998 37 L 998 52 L 920 77 Z " fill="black"/>
    <path d="M 1040.5 179 L 1118.5 154 L 1118.5 169 L 1040.5 194 Z " fill="black"/>
    <path d="M 40 355 L 163 380 L 163 395 L 40 370 Z " fill="black"/>
    <path d="M 280 392.5 L 358 367.5 L 358 382.5 L 280 407.5 Z " fill="black"/>
    <path d="M 480 355 L 603 380 L 603 395 L 480 370 Z " fill="black"/>
    <path d="M 720 392.5 L 843 367.5 L 843 382.5 L 720 407.5 Z " fill="black"/>
    <rect x="0" y="0" width="1201" height="536.5" stroke="black" stroke-width="1" fill="none"/>
</svg>
