<svg xmlns="http://www.w3.org/2000/svg" xmlns:xlink="http://www.w3.org/1999/xlink" width="785.5" height="201" viewBox="0 0 785.5 201">
    <line x1="1.25" y1="50.5" x2="784.25" y2="50.5" stroke="black" stroke-width="2.5"/>
    <line x1="1.25" y1="75.5" x2="784.25" y2="75.5" stroke="black" stroke-width="2.5"/>
    <line x1="1.25" y1="100.5" x2="784.25" y2="100.5" stroke="black" stroke-width="2.5"/>
    <line x1="1.25" y1="125.5" x2="784.25" y2="125.5" stroke="black" stroke-width="2.5"/>
    <line x1="1.25" y1="150.5" x2="784.25" y2="150.5" stroke="black" stroke-width="2.5"/>
    <rect x="1.25" y="88" width="32.5" height="25" stroke="red" stroke-width="1" fill="none"/>
    <path d="M 1.25 103.9 Q 1.25 97.9 7.85 92.35 Q 14.45 86.8 21.35 86.8 Q 24.15 86.8 26.7 87.5 Q 29.25 88.2 31.550001 90.7 Q 33.850002 93.2 33.850002 97.1 Q 33.850002 102.6 27.15 108.4 Q 20.45 114.2 13.75 114.2 Q 10.95 114.2 8.4 113.5 Q 5.85 112.8 3.55 110.3 Q 1.25 107.8 1.25 103.9 Z " fill="black"/>
    <rect x="33.75" y="88" width="5" height="25" stroke="red" stroke-width="1" fill="none"/>
    <rect x="1.25" y="100.5" width="3" height="89.28571" stroke="red" stroke-width="1" fill="none"/>
    <rect x="123.25" y="88" width="32.5" height="25" stroke="red" stroke-width="1" fill="none"/>
    <path d="M 123.25 103.9 Q 123.25 97.9 129.85 92.35 Q 136.45 86.8 143.35 86.8 Q 146.15 86.8 148.7 87.5 Q 151.25 88.2 153.55 90.7 Q 155.85 93.2 155.85 97.1 Q 155.85 102.6 149.15 108.4 Q 142.45 114.2 135.75 114.2 Q 132.95 114.2 130.4 113.5 Q 127.85 112.8 125.55 110.3 Q 123.25 107.8 123.25 103.9 Z " fill="black"/>
    <rect x="155.75" y="88" width="5" height="25" stroke="red" stroke-width="1" fill="none"/>
    <rect x="123.25" y="100.5" width="3" height="89.28571" stroke="red" stroke-width="1" fill="none"/>
    <rect x="245.25" y="100.5" width="32.5" height="25" stroke="red" stroke-width="1" fill="none"/>
    <path d="M 245.25 116.4 Q 245.25 110.4 251.85 104.85 Q 258.45 99.3 265.35 99.3 Q 268.15 99.3 270.7 100 Q 273.25 100.7 275.55 103.2 Q 277.85 105.7 277.85 109.6 Q 277.85 115.1 271.15 120.9 Q 264.45 126.7 257.75 126.7 Q 254.95 126.7 252.4 126 Q 249.85 125.3 247.55 122.8 Q 245.25 120.3 245.25 116.4 Z " fill="black"/>
    <rect x="277.75" y="100.5" width="5" height="25" stroke="red" stroke-width="1" fill="none"/>
    <rect x="274.75" y="23.714287" width="3" height="89.28571" stroke="red" stroke-width="1" fill="none"/>
    <rect x="367.25" y="63" width="32.5" height="25" stroke="red" stroke-width="1" fill="none"/>
    <path d="M 367.25 78.9 Q 367.25 72.9 373.85 67.35 Q 380.45 61.8 387.35 61.8 Q 390.15 61.8 392.7 62.5 Q 395.25 63.2 397.55 65.7 Q 399.85 68.2 399.85 72.1 Q 399.85 77.6 393.15 83.4 Q 386.45 89.2 379.75 89.2 Q 376.95 89.2 374.4 88.5 Q 371.85 87.8 369.55 85.3 Q 367.25 82.8 367.25 78.9 Z " fill="black"/>
    <rect x="399.75" y="63" width="5" height="25" stroke="red" stroke-width="1" fill="none"/>
    <rect x="367.25" y="75.5" width="3" height="89.28571" stroke="red" stroke-width="1" fill="none"/>
    <rect x="489.25" y="0.5" width="30" height="200" stroke="orange" stroke-width="1" fill="none"/>
    <rect x="519.25" y="88" width="32.5" height="25" stroke="red" stroke-width="1" fill="none"/>
    <path d="M 519.25 103.9 Q 519.25 97.9 525.85 92.35 Q 532.45 86.8 539.35 86.8 Q 542.15 86.8 544.7 87.5 Q 547.25 88.2 549.55 90.7 Q 551.85 93.2 551.85 97.1 Q 551.85 102.6 545.15 108.4 Q 538.45 114.2 531.75 114.2 Q 528.95 114.2 526.4 113.5 Q 523.85 112.8 521.55 110.3 Q 519.25 107.8 519.25 103.9 Z " fill="black"/>
    <rect x="551.75" y="88" width="5" height="25" stroke="red" stroke-width="1" fill="none"/>
    <rect x="519.25" y="100.5" width="3" height="89.28571" stroke="red" stroke-width="1" fill="none"/>
    <rect x="641.25" y="88" width="32.5" height="25" stroke="red" stroke-width="1" fill="none"/>
    <path d="M 641.25 103.9 Q 641.25 97.9 647.85 92.35 Q 654.45 86.8 661.35 86.8 Q 664.15 86.8 666.7 87.5 Q 669.25 88.2 671.55 90.7 Q 673.85 93.2 673.85 97.1 Q 673.85 102.6 667.15 108.4 Q 660.45 114.2 653.75 114.2 Q 650.95 114.2 648.4 113.5 Q 645.85 112.8 643.55 110.3 Q 641.25 107.8 641.25 103.9 Z " fill="black"/>
    <rect x="673.75" y="88" width="5" height="25" stroke="red" stroke-width="1" fill="none"/>
    <rect x="641.25" y="100.5" width="3" height="89.28571" stroke="red" stroke-width="1" fill="none"/>
    <rect x="763.25" y="50.5" width="21" height="100" stroke="orange" stroke-width="1" fill="none"/>
    <path d="M 763.25 50.5 L 768.75 50.5 L 768.75 150.5 L 763.25 150.5 M 778.75 50.5 L 784.25 50.5 L 784.25 150.5 L 778.75 150.5 " fill="black"/>
    <line x1="2.75" y1="104.5" x2="2.75" y2="189.7857" stroke="black" stroke-width="3"/>
    <line x1="124.75" y1="104.5" x2="124.75" y2="189.7857" stroke="black" stroke-width="3"/>
    <line x1="276.25" y1="23.714287" x2="276.25" y2="109" stroke="black" stroke-width="3"/>
    <line x1="368.75" y1="79.5" x2="368.75" y2="164.7857" stroke="black" stroke-width="3"/>
    <line x1="520.75" y1="104.5" x2="520.75" y2="189.7857" stroke="black" stroke-width="3"/>
    <line x1="642.75" y1="104.5" x2="642.75" y2="189.7857" stroke="black" stroke-width="3"/>
    <rect x="0" y="0" width="785.5" height="201" stroke="black" stroke-width="1" fill="none"/>
</svg>
