<svg xmlns="http://www.w3.org/2000/svg" xmlns:xlink="http://www.w3.org/1999/xlink" viewBox="0 0 722.5 476">
    <line x1="1.25" y1="75.5" x2="721.25" y2="75.5" stroke="black" stroke-width="2.5"/>
    <line x1="1.25" y1="100.5" x2="721.25" y2="100.5" stroke="black" stroke-width="2.5"/>
    <line x1="1.25" y1="125.5" x2="721.25" y2="125.5" stroke="black" stroke-width="2.5"/>
    <line x1="1.25" y1="150.5" x2="721.25" y2="150.5" stroke="black" stroke-width="2.5"/>
    <line x1="1.25" y1="175.5" x2="721.25" y2="175.5" stroke="black" stroke-width="2.5"/>
    <line x1="1.25" y1="325.5" x2="721.25" y2="325.5" stroke="black" stroke-width="2.5"/>
    <line x1="1.25" y1="350.5" x2="721.25" y2="350.5" stroke="black" stroke-width="2.5"/>
    <line x1="1.25" y1="375.5" x2="721.25" y2="375.5" stroke="black" stroke-width="2.5"/>
    <line x1="1.25" y1="400.5" x2="721.25" y2="400.5" stroke="black" stroke-width="2.5"/>
    <line x1="1.25" y1="425.5" x2="721.25" y2="425.5" stroke="black" stroke-width="2.5"/>
    <rect x="1.25" y="25.5" width="10" height="200" stroke="orange" stroke-width="1" fill="none"/>
    <rect x="1.25" y="275.5" width="10" height="200" stroke="orange" stroke-width="1" fill="none"/>
    <rect x="11.25" y="113" width="32.5" height="25" stroke="red" stroke-width="1" fill="none"/>
    <path d="M 11.25 128.9 Q 11.25 122.9 17.85 117.35 Q 24.45 111.8 31.35 111.8 Q 34.15 111.8 36.7 112.5 Q 39.25 113.2 41.550003 115.7 Q 43.850002 118.2 43.850002 122.1 Q 43.850002 127.6 37.15 133.4 Q 30.45 139.2 23.75 139.2 Q 20.95 139.2 18.4 138.5 Q 15.85 137.8 13.55 135.3 Q 11.25 132.8 11.25 128.9 Z " fill="black"/>
    <rect x="43.75" y="113" width="5" height="25" stroke="red" stroke-width="1" fill="none"/>
    <rect x="11.25" y="125.5" width="3" height="89.28571" stroke="red" stroke-width="1" fill="none"/>
    <rect x="11.25" y="363" width="32.5" height="25" stroke="red" stroke-width="1" fill="none"/>
    <path d="M 11.25 378.9 Q 11.25 372.9 17.85 367.35 Q 24.45 361.8 31.35 361.8 Q 34.15 361.8 36.7 362.5 Q 39.25 363.2 41.550003 365.7 Q 43.850002 368.2 43.850002 372.1 Q 43.850002 377.6 37.15 383.4 Q 30.45 389.2 23.75 389.2 Q 20.95 389.2 18.4 388.5 Q 15.85 387.8 13.55 385.3 Q 11.25 382.8 11.25 378.9 Z " fill="black"/>
    <rect x="43.75" y="363" width="5" height="25" stroke="red" stroke-width="1" fill="none"/>
    <rect x="11.25" y="375.5" width="3" height="89.28571" stroke="red" stroke-width="1" fill="none"/>
    <rect x="141.25" y="113" width="32.5" height="25" stroke="red" stroke-width="1" fill="none"/>
    <path d="M 141.25 128.9 Q 141.25 122.9 147.85 117.35 Q 154.45 111.8 161.35 111.8 Q 164.15 111.8 166.7 112.5 Q 169.25 113.2 171.55 115.7 Q 173.85 118.2 173.85 122.1 Q 173.85 127.6 167.15 133.4 Q 160.45 139.2 153.75 139.2 Q 150.95 139.2 148.4 138.5 Q 145.85 137.8 143.55 135.3 Q 141.25 132.8 141.25 128.9 Z " fill="black"/>
    <rect x="173.75" y="113" width="5" height="25" stroke="red" stroke-width="1" fill="none"/>
    <rect x="141.25" y="125.5" width="3" height="89.28571" stroke="red" stroke-width="1" fill="none"/>
    <rect x="141.25" y="363" width="32.5" height="25" stroke="red" stroke-width="1" fill="none"/>
    <path d="M 141.25 378.9 Q 141.25 372.9 147.85 367.35 Q 154.45 361.8 161.35 361.8 Q 164.15 361.8 166.7 362.5 Q 169.25 363.2 171.55 365.7 Q 173.85 368.2 173.85 372.1 Q 173.85 377.6 167.15 383.4 Q 160.45 389.2 153.75 389.2 Q 150.95 389.2 148.4 388.5 Q 145.85 387.8 143.55 385.3 Q 141.25 382.8 141.25 378.9 Z " fill="black"/>
    <rect x="173.75" y="363" width="5" height="25" stroke="red" stroke-width="1" fill="none"/>
    <rect x="141.25" y="375.5" width="3" height="89.28571" stroke="red" stroke-width="1" fill="none"/>
    <rect x="271.25" y="38" width="30.000002" height="75" stroke="orange" stroke-width="1" fill="none"/>
    <path d="M 292.85 65.9 L 292.85 78.1 Q 292.85 78.9 293.35 79.4 Q 293.85 79.9 294.65 79.9 Q 294.95 79.9 295.25 79.8 L 296.05 79.5 Q 296.35 79.4 296.75 79.4 Q 297.55 79.4 298.15 80 Q 298.75 80.6 298.75 81.4 L 298.75 87.4 Q 298.75 88.7 297.45 89.2 L 294.05 90.5 Q 292.85 91 292.85 92.1 L 292.85 106.7 Q 292.85 107.5 292.3 108.05 Q 291.75 108.600006 291.05 108.600006 Q 290.25 108.600006 289.7 108.05 Q 289.15 107.5 289.15 106.7 L 289.15 94.8 Q 289.15 94 288.6 93.5 Q 288.05 93 287.35 93 Q 286.95 93 286.65 93.1 L 282.05 94.9 Q 280.85 95.3 280.85 96.5 L 280.85 111.100006 Q 280.85 111.9 280.25 112.45 Q 279.65 113 278.95 113 Q 278.25 113 277.7 112.45 Q 277.15 111.9 277.15 111.100006 L 277.15 99.2 Q 277.15 98.4 276.6 97.9 Q 276.05 97.4 275.35 97.4 Q 275.05 97.4 274.75 97.5 L 273.95 97.8 Q 273.75 97.9 273.25 97.9 Q 272.45 97.9 271.85 97.3 Q 271.25 96.7 271.25 95.9 L 271.25 89.9 Q 271.25 88.5 272.55 88 L 275.95 86.8 Q 277.15 86.5 277.15 85.1 L 277.15 72.9 Q 277.15 72.1 276.6 71.6 Q 276.05 71.1 275.35 71.1 Q 275.05 71.1 274.85 71.2 L 273.95 71.5 Q 273.75 71.6 273.25 71.6 Q 272.45 71.6 271.85 71 Q 271.25 70.4 271.25 69.6 L 271.25 63.6 Q 271.25 62.3 272.55 61.8 L 276.05 60.5 Q 277.15 60 277.15 58.9 L 277.15 44.300003 Q 277.15 43.5 277.7 42.949997 Q 278.25 42.399994 278.95 42.399994 Q 279.65 42.399994 280.25 42.949997 Q 280.85 43.5 280.85 44.300003 L 280.85 56.199997 Q 280.85 57 281.4 57.5 Q 281.95 58 282.75 58 Q 283.05 58 283.35 57.9 L 287.95 56.1 Q 289.15 55.6 289.15 54.4 L 289.15 39.899994 Q 289.15 39.1 289.7 38.550003 Q 290.25 38 291.05 38 Q 291.75 38 292.3 38.550003 Q 292.85 39.1 292.85 39.899994 L 292.85 51.9 Q 292.85 52.6 293.35 53.1 Q 293.85 53.6 294.55 53.6 Q 294.85 53.6 295.25 53.5 L 296.05 53.199997 Q 296.25 53.1 296.75 53.1 Q 297.55 53.1 298.15 53.699997 Q 298.75 54.300003 298.75 55.1 L 298.75 61.1 Q 298.75 62.5 297.45 63 L 294.05 64.2 Q 292.85 64.5 292.85 65.9 Z M 289.15 80.7 L 289.15 68.6 Q 289.15 67.9 288.6 67.35 Q 288.05 66.8 287.35 66.8 Q 287.05 66.8 286.75 66.9 L 282.05 68.6 Q 280.85 69.1 280.85 70.3 L 280.85 82.4 Q 280.85 83.2 281.35 83.7 Q 281.85 84.2 282.65 84.2 Q 282.95 84.2 283.25 84.1 L 287.95 82.4 Q 289.15 81.9 289.15 80.7 Z " fill="black"/>
    <rect x="301.25" y="75.5" width="30.000002" height="75" stroke="orange" stroke-width="1" fill="none"/>
    <path d="M 322.85 103.4 L 322.85 115.6 Q 322.85 116.4 323.35 116.9 Q 323.85 117.4 324.65 117.4 Q 324.95 117.4 325.25 117.3 L 326.05 117 Q 326.35 116.9 326.75 116.9 Q 327.55 116.9 328.15 117.5 Q 328.75 118.1 328.75 118.9 L 328.75 124.9 Q 328.75 126.2 327.45 126.7 L 324.05 128 Q 322.85 128.5 322.85 129.6 L 322.85 144.2 Q 322.85 145 322.3 145.55 Q 321.75 146.1 321.05 146.1 Q 320.25 146.1 319.7 145.55 Q 319.15 145 319.15 144.2 L 319.15 132.3 Q 319.15 131.5 318.6 131 Q 318.05 130.5 317.35 130.5 Q 316.95 130.5 316.65 130.6 L 312.05 132.4 Q 310.85 132.8 310.85 134 L 310.85 148.6 Q 310.85 149.4 310.25 149.95 Q 309.65 150.5 308.95 150.5 Q 308.25 150.5 307.7 149.95 Q 307.15 149.4 307.15 148.6 L 307.15 136.7 Q 307.15 135.9 306.6 135.4 Q 306.05 134.9 305.35 134.9 Q 305.05 134.9 304.75 135 L 303.95 135.3 Q 303.75 135.4 303.25 135.4 Q 302.45 135.4 301.85 134.8 Q 301.25 134.2 301.25 133.4 L 301.25 127.4 Q 301.25 126 302.55 125.5 L 305.95 124.3 Q 307.15 124 307.15 122.6 L 307.15 110.4 Q 307.15 109.6 306.6 109.1 Q 306.05 108.6 305.35 108.6 Q 305.05 108.6 304.85 108.7 L 303.95 109 Q 303.75 109.1 303.25 109.1 Q 302.45 109.1 301.85 108.5 Q 301.25 107.9 301.25 107.1 L 301.25 101.1 Q 301.25 99.8 302.55 99.3 L 306.05 98 Q 307.15 97.5 307.15 96.4 L 307.15 81.8 Q 307.15 81 307.7 80.45 Q 308.25 79.899994 308.95 79.899994 Q 309.65 79.899994 310.25 80.45 Q 310.85 81 310.85 81.8 L 310.85 93.7 Q 310.85 94.5 311.4 95 Q 311.95 95.5 312.75 95.5 Q 313.05 95.5 313.35 95.4 L 317.95 93.6 Q 319.15 93.1 319.15 91.9 L 319.15 77.399994 Q 319.15 76.6 319.7 76.05 Q 320.25 75.5 321.05 75.5 Q 321.75 75.5 322.3 76.05 Q 322.85 76.6 322.85 77.399994 L 322.85 89.4 Q 322.85 90.1 323.35 90.6 Q 323.85 91.1 324.55 91.1 Q 324.85 91.1 325.25 91 L 326.05 90.7 Q 326.25 90.6 326.75 90.6 Q 327.55 90.6 328.15 91.2 Q 328.75 91.8 328.75 92.6 L 328.75 98.6 Q 328.75 100 327.45 100.5 L 324.05 101.7 Q 322.85 102 322.85 103.4 Z M 319.15 118.2 L 319.15 106.1 Q 319.15 105.4 318.6 104.85 Q 318.05 104.3 317.35 104.3 Q 317.05 104.3 316.75 104.4 L 312.05 106.1 Q 310.85 106.6 310.85 107.8 L 310.85 119.9 Q 310.85 120.7 311.35 121.2 Q 311.85 121.7 312.65 121.7 Q 312.95 121.7 313.25 121.6 L 317.95 119.9 Q 319.15 119.4 319.15 118.2 Z " fill="black"/>
    <rect x="331.25" y="25.5" width="30.000002" height="75" stroke="orange" stroke-width="1" fill="none"/>
    <path d="M 352.85 53.4 L 352.85 65.6 Q 352.85 66.4 353.35 66.9 Q 353.85 67.4 354.65 67.4 Q 354.95 67.4 355.25 67.3 L 356.05 67 Q 356.35 66.9 356.75 66.9 Q 357.55 66.9 358.15 67.5 Q 358.75 68.1 358.75 68.9 L 358.75 74.9 Q 358.75 76.2 357.45 76.7 L 354.05 78 Q 352.85 78.5 352.85 79.6 L 352.85 94.2 Q 352.85 95 352.3 95.55 Q 351.75 96.100006 351.05 96.100006 Q 350.25 96.100006 349.7 95.55 Q 349.15 95 349.15 94.2 L 349.15 82.3 Q 349.15 81.5 348.6 81 Q 348.05 80.5 347.35 80.5 Q 346.95 80.5 346.65 80.6 L 342.05 82.4 Q 340.85 82.8 340.85 84 L 340.85 98.600006 Q 340.85 99.4 340.25 99.95 Q 339.65 100.5 338.95 100.5 Q 338.25 100.5 337.7 99.95 Q 337.15 99.4 337.15 98.600006 L 337.15 86.7 Q 337.15 85.9 336.6 85.4 Q 336.05 84.9 335.35 84.9 Q 335.05 84.9 334.75 85 L 333.95 85.3 Q 333.75 85.4 333.25 85.4 Q 332.45 85.4 331.85 84.8 Q 331.25 84.2 331.25 83.4 L 331.25 77.4 Q 331.25 76 332.55 75.5 L 335.95 74.3 Q 337.15 74 337.15 72.6 L 337.15 60.4 Q 337.15 59.6 336.6 59.1 Q 336.05 58.6 335.35 58.6 Q 335.05 58.6 334.85 58.699997 L 333.95 59 Q 333.75 59.1 333.25 59.1 Q 332.45 59.1 331.85 58.5 Q 331.25 57.9 331.25 57.1 L 331.25 51.1 Q 331.25 49.800003 332.55 49.300003 L 336.05 48 Q 337.15 47.5 337.15 46.4 L 337.15 31.800003 Q 337.15 31 337.7 30.449997 Q 338.25 29.899994 338.95 29.899994 Q 339.65 29.899994 340.25 30.449997 Q 340.85 31 340.85 31.800003 L 340.85 43.699997 Q 340.85 44.5 341.4 45 Q 341.95 45.5 342.75 45.5 Q 343.05 45.5 343.35 45.4 L 347.95 43.6 Q 349.15 43.1 349.15 41.9 L 349.15 27.399994 Q 349.15 26.599998 349.7 26.050003 Q 350.25 25.5 351.05 25.5 Q 351.75 25.5 352.3 26.050003 Q 352.85 26.599998 352.85 27.399994 L 352.85 39.4 Q 352.85 40.1 353.35 40.6 Q 353.85 41.1 354.55 41.1 Q 354.85 41.1 355.25 41 L 356.05 40.699997 Q 356.25 40.6 356.75 40.6 Q 357.55 40.6 358.15 41.199997 Q 358.75 41.800003 358.75 42.6 L 358.75 48.6 Q 358.75 50 357.45 50.5 L 354.05 51.699997 Q 352.85 52 352.85 53.4 Z M 349.15 68.2 L 349.15 56.1 Q 349.15 55.4 348.6 54.85 Q 348.05 54.300003 347.35 54.300003 Q 347.05 54.300003 346.75 54.4 L 342.05 56.1 Q 340.85 56.6 340.85 57.800003 L 340.85 69.9 Q 340.85 70.7 341.35 71.2 Q 341.85 71.7 342.65 71.7 Q 342.95 71.7 343.25 71.6 L 347.95 69.9 Q 349.15 69.4 349.15 68.2 Z " fill="black"/>
    <rect x="361.25" y="63" width="30.000002" height="75" stroke="orange" stroke-width="1" fill="none"/>
    <path d="M 382.85 90.9 L 382.85 103.1 Q 382.85 103.9 383.35 104.4 Q 383.85 104.9 384.65 104.9 Q 384.95 104.9 385.25 104.8 L 386.05 104.5 Q 386.35 104.4 386.75 104.4 Q 387.55 104.4 388.15 105 Q 388.75 105.6 388.75 106.4 L 388.75 112.4 Q 388.75 113.7 387.45 114.2 L 384.05 115.5 Q 382.85 116 382.85 117.1 L 382.85 131.7 Q 382.85 132.5 382.3 133.05 Q 381.75 133.6 381.05 133.6 Q 380.25 133.6 379.7 133.05 Q 379.15 132.5 379.15 131.7 L 379.15 119.8 Q 379.15 119 378.6 118.5 Q 378.05 118 377.35 118 Q 376.95 118 376.65 118.1 L 372.05 119.9 Q 370.85 120.3 370.85 121.5 L 370.85 136.1 Q 370.85 136.9 370.25 137.45 Q 369.65 138 368.95 138 Q 368.25 138 367.7 137.45 Q 367.15 136.9 367.15 136.1 L 367.15 124.2 Q 367.15 123.4 366.6 122.9 Q 366.05 122.4 365.35 122.4 Q 365.05 122.4 364.75 122.5 L 363.95 122.8 Q 363.75 122.9 363.25 122.9 Q 362.45 122.9 361.85 122.3 Q 361.25 121.7 361.25 120.9 L 361.25 114.9 Q 361.25 113.5 362.55 113 L 365.95 111.8 Q 367.15 111.5 367.15 110.1 L 367.15 97.9 Q 367.15 97.1 366.6 96.6 Q 366.05 96.1 365.35 96.1 Q 365.05 96.1 364.85 96.2 L 363.95 96.5 Q 363.75 96.6 363.25 96.6 Q 362.45 96.6 361.85 96 Q 361.25 95.4 361.25 94.6 L 361.25 88.6 Q 361.25 87.3 362.55 86.8 L 366.05 85.5 Q 367.15 85 367.15 83.9 L 367.15 69.3 Q 367.15 68.5 367.7 67.95 Q 368.25 67.399994 368.95 67.399994 Q 369.65 67.399994 370.25 67.95 Q 370.85 68.5 370.85 69.3 L 370.85 81.2 Q 370.85 82 371.4 82.5 Q 371.95 83 372.75 83 Q 373.05 83 373.35 82.9 L 377.95 81.1 Q 379.15 80.6 379.15 79.4 L 379.15 64.899994 Q 379.15 64.1 379.7 63.55 Q 380.25 63 381.05 63 Q 381.75 63 382.3 63.55 Q 382.85 64.1 382.85 64.899994 L 382.85 76.9 Q 382.85 77.6 383.35 78.1 Q 383.85 78.6 384.55 78.6 Q 384.85 78.6 385.25 78.5 L 386.05 78.2 Q 386.25 78.1 386.75 78.1 Q 387.55 78.1 388.15 78.7 Q 388.75 79.3 388.75 80.1 L 388.75 86.1 Q 388.75 87.5 387.45 88 L 384.05 89.2 Q 382.85 89.5 382.85 90.9 Z M 379.15 105.7 L 379.15 93.6 Q 379.15 92.9 378.6 92.35 Q 378.05 91.8 377.35 91.8 Q 377.05 91.8 376.75 91.9 L 372.05 93.6 Q 370.85 94.1 370.85 95.3 L 370.85 107.4 Q 370.85 108.2 371.35 108.7 Q 371.85 109.2 372.65 109.2 Q 372.95 109.2 373.25 109.1 L 377.95 107.4 Q 379.15 106.9 379.15 105.7 Z " fill="black"/>
    <rect x="391.25" y="0.5" width="30.000002" height="75" stroke="orange" stroke-width="1" fill="none"/>
    <path d="M 412.85 28.400002 L 412.85 40.6 Q 412.85 41.4 413.35 41.9 Q 413.85 42.4 414.65 42.4 Q 414.95 42.4 415.25 42.300003 L 416.05 42 Q 416.35 41.9 416.75 41.9 Q 417.55 41.9 418.15 42.5 Q 418.75 43.1 418.75 43.9 L 418.75 49.9 Q 418.75 51.199997 417.45 51.699997 L 414.05 53 Q 412.85 53.5 412.85 54.6 L 412.85 69.2 Q 412.85 70 412.3 70.55 Q 411.75 71.100006 411.05 71.100006 Q 410.25 71.100006 409.7 70.55 Q 409.15 70 409.15 69.2 L 409.15 57.300003 Q 409.15 56.5 408.6 56 Q 408.05 55.5 407.35 55.5 Q 406.95 55.5 406.65 55.6 L 402.05 57.4 Q 400.85 57.800003 400.85 59 L 400.85 73.600006 Q 400.85 74.4 400.25 74.95 Q 399.65 75.5 398.95 75.5 Q 398.25 75.5 397.7 74.95 Q 397.15 74.4 397.15 73.600006 L 397.15 61.7 Q 397.15 60.9 396.6 60.4 Q 396.05 59.9 395.35 59.9 Q 395.05 59.9 394.75 60 L 393.95 60.300003 Q 393.75 60.4 393.25 60.4 Q 392.45 60.4 391.85 59.800003 Q 391.25 59.199997 391.25 58.4 L 391.25 52.4 Q 391.25 51 392.55 50.5 L 395.95 49.300003 Q 397.15 49 397.15 47.6 L 397.15 35.4 Q 397.15 34.6 396.6 34.1 Q 396.05 33.6 395.35 33.6 Q 395.05 33.6 394.85 33.699997 L 393.95 34 Q 393.75 34.1 393.25 34.1 Q 392.45 34.1 391.85 33.5 Q 391.25 32.9 391.25 32.1 L 391.25 26.099998 Q 391.25 24.800003 392.55 24.300003 L 396.05 23 Q 397.15 22.5 397.15 21.400002 L 397.15 6.800003 Q 397.15 6 397.7 5.449997 Q 398.25 4.899994 398.95 4.899994 Q 399.65 4.899994 400.25 5.449997 Q 400.85 6 400.85 6.800003 L 400.85 18.699997 Q 400.85 19.5 401.4 20 Q 401.95 20.5 402.75 20.5 Q 403.05 20.5 403.35 20.400002 L 407.95 18.599998 Q 409.15 18.099998 409.15 16.900002 L 409.15 2.399994 Q 409.15 1.5999985 409.7 1.050003 Q 410.25 0.5 411.05 0.5 Q 411.75 0.5 412.3 1.050003 Q 412.85 1.5999985 412.85 2.399994 L 412.85 14.400002 Q 412.85 15.099998 413.35 15.599998 Q 413.85 16.099998 414.55 16.099998 Q 414.85 16.099998 415.25 16 L 416.05 15.699997 Q 416.25 15.599998 416.75 15.599998 Q 417.55 15.599998 418.15 16.199997 Q 418.75 16.800003 418.75 17.599998 L 418.75 23.599998 Q 418.75 25 417.45 25.5 L 414.05 26.699997 Q 412.85 27 412.85 28.400002 Z M 409.15 43.199997 L 409.15 31.099998 Q 409.15 30.400002 408.6 29.849998 Q 408.05 29.300003 407.35 29.300003 Q 407.05 29.300003 406.75 29.400002 L 402.05 31.099998 Q 400.85 31.599998 400.85 32.800003 L 400.85 44.9 Q 400.85 45.699997 401.35 46.199997 Q 401.85 46.699997 402.65 46.699997 Q 402.95 46.699997 403.25 46.6 L 407.95 44.9 Q 409.15 44.4 409.15 43.199997 Z " fill="black"/>
    <rect x="421.25" y="50.5" width="30.000002" height="75" stroke="orange" stroke-width="1" fill="none"/>
    <path d="M 442.85 78.4 L 442.85 90.6 Q 442.85 91.4 443.35 91.9 Q 443.85 92.4 444.65 92.4 Q 444.95 92.4 445.25 92.3 L 446.05 92 Q 446.35 91.9 446.75 91.9 Q 447.55 91.9 448.15 92.5 Q 448.75 93.1 448.75 93.9 L 448.75 99.9 Q 448.75 101.2 447.45 101.7 L 444.05 103 Q 442.85 103.5 442.85 104.6 L 442.85 119.2 Q 442.85 120 442.3 120.55 Q 441.75 121.100006 441.05 121.100006 Q 440.25 121.100006 439.7 120.55 Q 439.15 120 439.15 119.2 L 439.15 107.3 Q 439.15 106.5 438.6 106 Q 438.05 105.5 437.35 105.5 Q 436.95 105.5 436.65 105.6 L 432.05 107.4 Q 430.85 107.8 430.85 109 L 430.85 123.600006 Q 430.85 124.4 430.25 124.95 Q 429.65 125.5 428.95 125.5 Q 428.25 125.5 427.7 124.95 Q 427.15 124.4 427.15 123.600006 L 427.15 111.7 Q 427.15 110.9 426.6 110.4 Q 426.05 109.9 425.35 109.9 Q 425.05 109.9 424.75 110 L 423.95 110.3 Q 423.75 110.4 423.25 110.4 Q 422.45 110.4 421.85 109.8 Q 421.25 109.2 421.25 108.4 L 421.25 102.4 Q 421.25 101 422.55 100.5 L 425.95 99.3 Q 427.15 99 427.15 97.6 L 427.15 85.4 Q 427.15 84.6 426.6 84.1 Q 426.05 83.6 425.35 83.6 Q 425.05 83.6 424.85 83.7 L 423.95 84 Q 423.75 84.1 423.25 84.1 Q 422.45 84.1 421.85 83.5 Q 421.25 82.9 421.25 82.1 L 421.25 76.1 Q 421.25 74.8 422.55 74.3 L 426.05 73 Q 427.15 72.5 427.15 71.4 L 427.15 56.800003 Q 427.15 56 427.7 55.449997 Q 428.25 54.899994 428.95 54.899994 Q 429.65 54.899994 430.25 55.449997 Q 430.85 56 430.85 56.800003 L 430.85 68.7 Q 430.85 69.5 431.4 70 Q 431.95 70.5 432.75 70.5 Q 433.05 70.5 433.35 70.4 L 437.95 68.6 Q 439.15 68.1 439.15 66.9 L 439.15 52.399994 Q 439.15 51.6 439.7 51.050003 Q 440.25 50.5 441.05 50.5 Q 441.75 50.5 442.3 51.050003 Q 442.85 51.6 442.85 52.399994 L 442.85 64.4 Q 442.85 65.1 443.35 65.6 Q 443.85 66.1 444.55 66.1 Q 444.85 66.1 445.25 66 L 446.05 65.7 Q 446.25 65.6 446.75 65.6 Q 447.55 65.6 448.15 66.2 Q 448.75 66.8 448.75 67.6 L 448.75 73.6 Q 448.75 75 447.45 75.5 L 444.05 76.7 Q 442.85 77 442.85 78.4 Z M 439.15 93.2 L 439.15 81.1 Q 439.15 80.4 438.6 79.85 Q 438.05 79.3 437.35 79.3 Q 437.05 79.3 436.75 79.4 L 432.05 81.1 Q 430.85 81.6 430.85 82.8 L 430.85 94.9 Q 430.85 95.7 431.35 96.2 Q 431.85 96.7 432.65 96.7 Q 432.95 96.7 433.25 96.6 L 437.95 94.9 Q 439.15 94.4 439.15 93.2 Z " fill="black"/>
    <rect x="271.25" y="325.5" width="27.5" height="75" stroke="orange" stroke-width="1" fill="none"/>
    <path d="M 275.85 384.1 Q 275.85 385.3 276.85 385.7 Q 278.05 386.2 278.85 385.4 Q 285.45 379.4 285.45 371.8 Q 285.45 369.1 284.3 367.1 Q 283.15 365.1 281.15 365.1 Q 278.95 365.1 277.55 367 Q 276.15 368.9 276.05 371.4 L 275.85 384.1 Z M 278.65 362 Q 282.85 359.9 285.55 359.9 Q 289.35 359.9 291.65 362.9 Q 293.95 365.9 293.95 370.1 Q 293.95 373 293.1 375.35 Q 292.25 377.7 290.45 379.65 Q 288.65 381.6 287.1 382.9 Q 285.55 384.2 283.05 386.05 Q 280.55 387.9 279.25 389 Q 278.75 389.4 277.95 390.5 Q 277.15 391.6 276.4 392.2 Q 275.65 392.8 274.75 392.8 Q 273.75 392.8 273.1 392.1 Q 272.45 391.4 272.45 390.3 L 271.25 329.8 Q 272.55 329 273.95 329 Q 275.35 329 276.65 329.8 L 276.05 360.4 Q 276.05 361.4 276.85 361.9 Q 277.75 362.5 278.65 362 Z " fill="black"/>
    <rect x="298.75" y="288" width="27.5" height="75" stroke="orange" stroke-width="1" fill="none"/>
    <path d="M 303.35 346.6 Q 303.35 347.8 304.35 348.2 Q 305.55 348.7 306.35 347.9 Q 312.95 341.9 312.95 334.3 Q 312.95 331.6 311.8 329.6 Q 310.65 327.6 308.65 327.6 Q 306.45 327.6 305.05 329.5 Q 303.65 331.4 303.55 333.9 L 303.35 346.6 Z M 306.15 324.5 Q 310.35 322.4 313.05 322.4 Q 316.85 322.4 319.15 325.4 Q 321.45 328.4 321.45 332.6 Q 321.45 335.5 320.6 337.85 Q 319.75 340.2 317.95 342.15 Q 316.15 344.1 314.6 345.4 Q 313.05 346.7 310.55 348.55 Q 308.05 350.4 306.75 351.5 Q 306.25 351.9 305.45 353 Q 304.65 354.1 303.9 354.7 Q 303.15 355.3 302.25 355.3 Q 301.25 355.3 300.6 354.6 Q 299.95 353.9 299.95 352.8 L 298.75 292.3 Q 300.05 291.5 301.45 291.5 Q 302.85 291.5 304.15 292.3 L 303.55 322.9 Q 303.55 323.9 304.35 324.4 Q 305.25 325 306.15 324.5 Z " fill="black"/>
    <rect x="326.25" y="338" width="27.5" height="75" stroke="orange" stroke-width="1" fill="none"/>
    <path d="M 330.85 396.6 Q 330.85 397.8 331.85 398.2 Q 333.05 398.7 333.85 397.9 Q 340.45 391.9 340.45 384.3 Q 340.45 381.6 339.3 379.6 Q 338.15 377.6 336.15 377.6 Q 333.95 377.6 332.55 379.5 Q 331.15 381.4 331.05 383.9 L 330.85 396.6 Z M 333.65 374.5 Q 337.85 372.4 340.55 372.4 Q 344.35 372.4 346.65 375.4 Q 348.95 378.4 348.95 382.6 Q 348.95 385.5 348.1 387.85 Q 347.25 390.2 345.45 392.15 Q 343.65 394.1 342.1 395.4 Q 340.55 396.7 338.05 398.55 Q 335.55 400.4 334.25 401.5 Q 333.75 401.9 332.95 403 Q 332.15 404.1 331.4 404.7 Q 330.65 405.3 329.75 405.3 Q 328.75 405.3 328.1 404.6 Q 327.45 403.9 327.45 402.8 L 326.25 342.3 Q 327.55 341.5 328.95 341.5 Q 330.35 341.5 331.65 342.3 L 331.05 372.9 Q 331.05 373.9 331.85 374.4 Q 332.75 375 333.65 374.5 Z " fill="black"/>
    <rect x="353.75" y="300.5" width="27.5" height="75" stroke="orange" stroke-width="1" fill="none"/>
    <path d="M 358.35 359.1 Q 358.35 360.3 359.35 360.7 Q 360.55 361.2 361.35 360.4 Q 367.95 354.4 367.95 346.8 Q 367.95 344.1 366.8 342.1 Q 365.65 340.1 363.65 340.1 Q 361.45 340.1 360.05 342 Q 358.65 343.9 358.55 346.4 L 358.35 359.1 Z M 361.15 337 Q 365.35 334.9 368.05 334.9 Q 371.85 334.9 374.15 337.9 Q 376.45 340.9 376.45 345.1 Q 376.45 348 375.6 350.35 Q 374.75 352.7 372.95 354.65 Q 371.15 356.6 369.6 357.9 Q 368.05 359.2 365.55 361.05 Q 363.05 362.9 361.75 364 Q 361.25 364.4 360.45 365.5 Q 359.65 366.6 358.9 367.2 Q 358.15 367.8 357.25 367.8 Q 356.25 367.8 355.6 367.1 Q 354.95 366.4 354.95 365.3 L 353.75 304.8 Q 355.05 304 356.45 304 Q 357.85 304 359.15 304.8 L 358.55 335.4 Q 358.55 336.4 359.35 336.9 Q 360.25 337.5 361.15 337 Z " fill="black"/>
    <rect x="381.25" y="350.5" width="27.5" height="75" stroke="orange" stroke-width="1" fill="none"/>
    <path d="M 385.85 409.1 Q 385.85 410.3 386.85 410.7 Q 388.05 411.2 388.85 410.4 Q 395.45 404.4 395.45 396.8 Q 395.45 394.1 394.3 392.1 Q 393.15 390.1 391.15 390.1 Q 388.95 390.1 387.55 392 Q 386.15 393.9 386.05 396.4 L 385.85 409.1 Z M 388.65 387 Q 392.85 384.9 395.55 384.9 Q 399.35 384.9 401.65 387.9 Q 403.95 390.9 403.95 395.1 Q 403.95 398 403.1 400.35 Q 402.25 402.7 400.45 404.65 Q 398.65 406.6 397.1 407.9 Q 395.55 409.2 393.05 411.05 Q 390.55 412.9 389.25 414 Q 388.75 414.4 387.95 415.5 Q 387.15 416.6 386.4 417.2 Q 385.65 417.8 384.75 417.8 Q 383.75 417.8 383.1 417.1 Q 382.45 416.4 382.45 415.3 L 381.25 354.8 Q 382.55 354 383.95 354 Q 385.35 354 386.65 354.8 L 386.05 385.4 Q 386.05 386.4 386.85 386.9 Q 387.75 387.5 388.65 387 Z " fill="black"/>
    <rect x="408.75" y="313" width="27.5" height="75" stroke="orange" stroke-width="1" fill="none"/>
    <path d="M 413.35 371.6 Q 413.35 372.8 414.35 373.2 Q 415.55 373.7 416.35 372.9 Q 422.95 366.9 422.95 359.3 Q 422.95 356.6 421.8 354.6 Q 420.65 352.6 418.65 352.6 Q 416.45 352.6 415.05 354.5 Q 413.65 356.4 413.55 358.9 L 413.35 371.6 Z M 416.15 349.5 Q 420.35 347.4 423.05 347.4 Q 426.85 347.4 429.15 350.4 Q 431.45 353.4 431.45 357.6 Q 431.45 360.5 430.6 362.85 Q 429.75 365.2 427.95 367.15 Q 426.15 369.1 424.6 370.4 Q 423.05 371.7 420.55 373.55 Q 418.05 375.4 416.75 376.5 Q 416.25 376.9 415.45 378 Q 414.65 379.1 413.9 379.7 Q 413.15 380.3 412.25 380.3 Q 411.25 380.3 410.6 379.6 Q 409.95 378.9 409.95 377.8 L 408.75 317.3 Q 410.05 316.5 411.45 316.5 Q 412.85 316.5 414.15 317.3 L 413.55 347.9 Q 413.55 348.9 414.35 349.4 Q 415.25 350 416.15 349.5 Z " fill="black"/>
    <rect x="451.25" y="113" width="32.5" height="25" stroke="red" stroke-width="1" fill="none"/>
    <path d="M 451.25 128.9 Q 451.25 122.9 457.85 117.35 Q 464.45 111.8 471.35 111.8 Q 474.15 111.8 476.7 112.5 Q 479.25 113.2 481.55 115.7 Q 483.85 118.2 483.85 122.1 Q 483.85 127.6 477.15 133.4 Q 470.45 139.2 463.75 139.2 Q 460.95 139.2 458.4 138.5 Q 455.85 137.8 453.55 135.3 Q 451.25 132.8 451.25 128.9 Z " fill="black"/>
    <rect x="483.75" y="113" width="5" height="25" stroke="red" stroke-width="1" fill="none"/>
    <rect x="451.25" y="125.5" width="3" height="89.28571" stroke="red" stroke-width="1" fill="none"/>
    <rect x="451.25" y="363" width="32.5" height="25" stroke="red" stroke-width="1" fill="none"/>
    <path d="M 451.25 378.9 Q 451.25 372.9 457.85 367.35 Q 464.45 361.8 471.35 361.8 Q 474.15 361.8 476.7 362.5 Q 479.25 363.2 481.55 365.7 Q 483.85 368.2 483.85 372.1 Q 483.85 377.6 477.15 383.4 Q 470.45 389.2 463.75 389.2 Q 460.95 389.2 458.4 388.5 Q 455.85 387.8 453.55 385.3 Q 451.25 382.8 451.25 378.9 Z " fill="black"/>
    <rect x="483.75" y="363" width="5" height="25" stroke="red" stroke-width="1" fill="none"/>
    <rect x="451.25" y="375.5" width="3" height="89.28571" stroke="red" stroke-width="1" fill="none"/>
    <rect x="581.25" y="113" width="32.5" height="25" stroke="red" stroke-width="1" fill="none"/>
    <path d="M 581.25 128.9 Q 581.25 122.9 587.85 117.35 Q 594.45 111.8 601.35 111.8 Q 604.15 111.8 606.7 112.5 Q 609.25 113.2 611.55 115.7 Q 613.85 118.2 613.85 122.1 Q 613.85 127.6 607.15 133.4 Q 600.45 139.2 593.75 139.2 Q 590.95 139.2 588.4 138.5 Q 585.85 137.8 583.55 135.3 Q 581.25 132.8 581.25 128.9 Z " fill="black"/>
    <rect x="613.75" y="113" width="5" height="25" stroke="red" stroke-width="1" fill="none"/>
    <rect x="581.25" y="125.5" width="3" height="89.28571" stroke="red" stroke-width="1" fill="none"/>
    <rect x="581.25" y="363" width="32.5" height="25" stroke="red" stroke-width="1" fill="none"/>
    <path d="M 581.25 378.9 Q 581.25 372.9 587.85 367.35 Q 594.45 361.8 601.35 361.8 Q 604.15 361.8 606.7 362.5 Q 609.25 363.2 611.55 365.7 Q 613.85 368.2 613.85 372.1 Q 613.85 377.6 607.15 383.4 Q 600.45 389.2 593.75 389.2 Q 590.95 389.2 588.4 388.5 Q 585.85 387.8 583.55 385.3 Q 581.25 382.8 581.25 378.9 Z " fill="black"/>
    <rect x="613.75" y="363" width="5" height="25" stroke="red" stroke-width="1" fill="none"/>
    <rect x="581.25" y="375.5" width="3" height="89.28571" stroke="red" stroke-width="1" fill="none"/>
    <rect x="711.25" y="25.5" width="10" height="200" stroke="orange" stroke-width="1" fill="none"/>
    <rect x="711.25" y="275.5" width="10" height="200" stroke="orange" stroke-width="1" fill="none"/>
    <line x1="12.75" y1="129.5" x2="12.75" y2="214.7857" stroke="black" stroke-width="3"/>
    <line x1="142.75" y1="129.5" x2="142.75" y2="214.7857" stroke="black" stroke-width="3"/>
    <line x1="452.75" y1="129.5" x2="452.75" y2="214.7857" stroke="black" stroke-width="3"/>
    <line x1="582.75" y1="129.5" x2="582.75" y2="214.7857" stroke="black" stroke-width="3"/>
    <line x1="12.75" y1="379.5" x2="12.75" y2="464.7857" stroke="black" stroke-width="3"/>
    <line x1="142.75" y1="379.5" x2="142.75" y2="464.7857" stroke="black" stroke-width="3"/>
    <line x1="452.75" y1="379.5" x2="452.75" y2="464.7857" stroke="black" stroke-width="3"/>
    <line x1="582.75" y1="379.5" x2="582.75" y2="464.7857" stroke="black" stroke-width="3"/>
    <rect x="0" y="0" width="722.5" height="476" stroke="black" stroke-width="1" fill="none"/>
</svg>
