<svg xmlns="http://www.w3.org/2000/svg" xmlns:xlink="http://www.w3.org/1999/xlink" viewBox="0 0 422.7 117.13571">
    <line x1="1.35" y1="1.3499985" x2="421.35" y2="1.3499985" stroke="black" stroke-width="2.7"/>
    <line x1="1.35" y1="26.349998" x2="421.35" y2="26.349998" stroke="black" stroke-width="2.7"/>
    <line x1="1.35" y1="51.35" x2="421.35" y2="51.35" stroke="black" stroke-width="2.7"/>
    <line x1="1.35" y1="76.35" x2="421.35" y2="76.35" stroke="black" stroke-width="2.7"/>
    <line x1="1.35" y1="101.35" x2="421.35" y2="101.35" stroke="black" stroke-width="2.7"/>
    <rect x="1.35" y="46.35" width="10" height="10" stroke="orange" stroke-width="1" fill="none"/>
    <rect x="11.35" y="13.849998" width="33.75" height="25" stroke="red" stroke-width="1" fill="none"/>
    <path d="M 36.25 16.25 Q 33.35 16.25 24.000002 22.8 Q 14.650001 29.349998 14.650001 32.35 Q 14.650001 34.449997 16.45 35.449997 Q 18.25 36.449997 20.750002 36.449997 Q 23.65 36.449997 33 29.899998 Q 42.35 23.349998 42.35 20.349998 Q 42.35 18.25 40.55 17.25 Q 38.75 16.25 36.25 16.25 Z M 11.35 30.149998 Q 11.35 22.949999 17.550001 17.8 Q 23.750002 12.649998 32.55 12.649998 Q 35.55 12.649998 38.15 13.25 Q 40.75 13.849998 43.15 16.25 Q 45.55 18.649998 45.55 22.55 Q 45.55 29.749998 39.35 34.899998 Q 33.15 40.05 24.35 40.05 Q 21.35 40.05 18.75 39.449997 Q 16.15 38.85 13.75 36.449997 Q 11.35 34.05 11.35 30.149998 Z " fill="black"/>
    <rect x="11.35" y="40.63571" width="35" height="75" stroke="red" stroke-width="1" fill="none"/>
    <rect x="45.1" y="13.849998" width="12.5" height="25" stroke="red" stroke-width="1" fill="none"/>
    <rect x="45.1" y="13.849998" width="12.5" height="25" fill="green"/>
    <rect x="11.35" y="26.349998" width="3" height="89.28571" stroke="red" stroke-width="1" fill="none"/>
    <rect x="211.35" y="13.849998" width="33.75" height="25" stroke="red" stroke-width="1" fill="none"/>
    <path d="M 236.25 16.25 Q 233.35 16.25 224 22.8 Q 214.65001 29.349998 214.65001 32.35 Q 214.65001 34.449997 216.45001 35.449997 Q 218.25 36.449997 220.75 36.449997 Q 223.65001 36.449997 233 29.899998 Q 242.35 23.349998 242.35 20.349998 Q 242.35 18.25 240.55 17.25 Q 238.75 16.25 236.25 16.25 Z M 211.35 30.149998 Q 211.35 22.949999 217.55 17.8 Q 223.75 12.649998 232.55 12.649998 Q 235.55 12.649998 238.15001 13.25 Q 240.75 13.849998 243.15001 16.25 Q 245.55 18.649998 245.55 22.55 Q 245.55 29.749998 239.35 34.899998 Q 233.15001 40.05 224.35 40.05 Q 221.35 40.05 218.75 39.449997 Q 216.15001 38.85 213.75 36.449997 Q 211.35 34.05 211.35 30.149998 Z " fill="black"/>
    <rect x="211.35" y="40.63571" width="35" height="75" stroke="red" stroke-width="1" fill="none"/>
    <rect x="198.85" y="13.849998" width="12.5" height="25" stroke="red" stroke-width="1" fill="none"/>
    <rect x="198.85" y="13.849998" width="12.5" height="25" fill="lime"/>
    <rect x="211.35" y="26.349998" width="3" height="89.28571" stroke="red" stroke-width="1" fill="none"/>
    <rect x="411.35" y="46.35" width="10" height="10" stroke="orange" stroke-width="1" fill="none"/>
    <line x1="12.85" y1="30.349998" x2="12.85" y2="115.63571" stroke="black" stroke-width="3"/>
    <line x1="212.85" y1="30.349998" x2="212.85" y2="115.63571" stroke="black" stroke-width="3"/>
    <rect x="0" y="0" width="422.7" height="117.13571" stroke="black" stroke-width="1" fill="none"/>
</svg>
