<svg xmlns="http://www.w3.org/2000/svg" xmlns:xlink="http://www.w3.org/1999/xlink" viewBox="0 0 389.5 459.3">
    <rect x="0.5" y="46.300003" width="10" height="10" stroke="orange" stroke-width="1" fill="none"/>
    <path d="M 0.5 102.5 L 0.5 100 L 100.5 100 L 100.5 102.5 L 0.5 102.5 Z M 0.5 77.5 L 0.5 75 L 100.5 75 L 100.5 77.5 L 0.5 77.5 Z M 0.5 52.500004 L 0.5 50.000004 L 100.5 50.000004 L 100.5 52.500004 L 0.5 52.500004 Z M 0.5 27.5 L 0.5 25 L 100.5 25 L 100.5 27.5 L 0.5 27.5 Z M 0.5 2.5 L 0.5 0 L 100.5 0 L 100.5 2.5 L 0.5 2.5 Z " fill="orange"/>
    <rect x="0.5" y="224.3" width="10" height="10" stroke="orange" stroke-width="1" fill="none"/>
    <path d="M 0.5 280.5 L 0.5 278 L 100.5 278 L 100.5 280.5 L 0.5 280.5 Z M 0.5 255.5 L 0.5 253 L 100.5 253 L 100.5 255.5 L 0.5 255.5 Z M 0.5 230.5 L 0.5 228 L 100.5 228 L 100.5 230.5 L 0.5 230.5 Z M 0.5 205.5 L 0.5 203 L 100.5 203 L 100.5 205.5 L 0.5 205.5 Z M 0.5 180.5 L 0.5 178 L 100.5 178 L 100.5 180.5 L 0.5 180.5 Z " fill="orange"/>
    <rect x="0.5" y="366.3" width="10" height="10" stroke="orange" stroke-width="1" fill="none"/>
    <path d="M 0.5 422.5 L 0.5 420 L 100.5 420 L 100.5 422.5 L 0.5 422.5 Z M 0.5 397.5 L 0.5 395 L 100.5 395 L 100.5 397.5 L 0.5 397.5 Z M 0.5 372.5 L 0.5 370 L 100.5 370 L 100.5 372.5 L 0.5 372.5 Z M 0.5 347.5 L 0.5 345 L 100.5 345 L 100.5 347.5 L 0.5 347.5 Z M 0.5 322.5 L 0.5 320 L 100.5 320 L 100.5 322.5 L 0.5 322.5 Z " fill="orange"/>
    <rect x="10.5" y="1.300003" width="74" height="84" stroke="orange" stroke-width="1" fill="none"/>
    <path d="M 67.5 38.800003 Q 67.5 36.700005 69 35.200005 Q 70.5 33.700005 72.600006 33.700005 Q 74.700005 33.700005 76.200005 35.200005 Q 77.700005 36.700005 77.700005 38.800003 Q 77.700005 40.9 76.200005 42.4 Q 74.700005 43.9 72.600006 43.9 Q 70.5 43.9 69 42.4 Q 67.5 40.9 67.5 38.800003 Z M 67.5 13.800003 Q 67.5 11.700005 69 10.200005 Q 70.5 8.700005 72.600006 8.700005 Q 74.700005 8.700005 76.200005 10.200005 Q 77.700005 11.700005 77.700005 13.800003 Q 77.700005 15.900002 76.200005 17.400002 Q 74.700005 18.900002 72.600006 18.900002 Q 70.5 18.900002 69 17.400002 Q 67.5 15.900002 67.5 13.800003 Z M 22.7 14.400002 Q 27.2 14.400002 30.1 17.300003 Q 33 20.200003 33 24.400003 Q 33 28.800003 30.1 31.900003 Q 27.2 35.000004 23 35.000004 Q 18.5 35.000004 15.15 31.900003 Q 11.8 28.800003 11.8 24.400003 Q 11.8 13.600002 19 6.800003 Q 26.2 0 36.9 0 Q 49 0 56.65 6.9500046 Q 64.3 13.900002 64.3 25.100002 Q 64.3 60.500004 12.9 83.200005 Q 12.2 83.5 11.8 83.5 Q 10.5 83.5 10.5 82.200005 Q 10.5 81.5 11.8 80.700005 Q 19.8 76 25.05 72.40001 Q 30.300001 68.8 35.9 63.700005 Q 41.5 58.600002 44.7 53.450005 Q 47.9 48.300003 50 41.300003 Q 52.100002 34.300003 52.100002 26.100002 Q 52.100002 15.700005 47.55 9.400002 Q 43 3.1000023 35.1 3.1000023 Q 30.300001 3.1000023 26.400002 5.3500023 Q 22.5 7.6000023 21 11.500004 Q 20.6 12.800003 21.1 13.500004 Q 21.8 14.400002 22.7 14.400002 Z " fill="black"/>
    <rect x="10.5" y="113.3" width="74" height="186" stroke="orange" stroke-width="1" fill="none"/>
    <path d="M 35.300003 171.8 Q 33 164.5 32.1 158.8 Q 31.300001 154 31.300001 147.6 Q 31.300001 145.4 31.4 143.20001 Q 31.800001 133.70001 35.300003 125.75 Q 38.800003 117.8 45.8 113.6 Q 46.3 113.3 47.100002 113.3 Q 47.8 113.3 48.3 113.8 Q 53.9 119.4 56.9 128.1 Q 59.9 136.8 59.9 145.70001 Q 59.9 156 55.5 165.9 Q 51.3 175.8 43.7 183.40001 Q 43.100002 184 43.3 185 L 47.3 201 Q 47.600002 202.6 49.3 202.40001 Q 50.9 202.2 52.4 202.2 Q 58.2 202.2 62.9 204.5 Q 67.600006 206.8 70.5 210.5 Q 73.4 214.2 74.950005 218.65001 Q 76.5 223.1 76.5 227.8 Q 76.5 236.40001 71.7 243.35 Q 66.9 250.3 60.2 252.5 Q 58.8 253 59.100002 254.6 Q 61.600002 266.40002 61.7 274.5 Q 61.7 277.6 61.3 280.6 Q 60.5 287.5 55.3 292.7 Q 50.100002 297.90002 42.9 297.90002 Q 34.1 297.90002 28 292.6 Q 21.900002 287.3 21.900002 278.7 Q 21.900002 274.3 25 271.1 Q 28.1 267.90002 32.300003 267.90002 Q 36.6 267.90002 39.550003 270.95 Q 42.5 274 42.5 278.2 Q 42.5 281.8 40.1 284.5 Q 37.7 287.3 34.300003 287.6 Q 33.1 287.7 32.7 288.8 Q 32.300003 289.90002 33.5 290.8 Q 37.1 293.6 42.300003 293.6 Q 48 293.6 52.15 289.5 Q 56.3 285.40002 57 280.2 Q 57.5 276.6 57.5 273 Q 57.5 265.2 55.100002 255.7 Q 54.7 254 52.9 254.2 Q 48.9 254.7 45.5 254.7 Q 30.7 254.7 20.6 245.40001 Q 10.5 236.1 10.5 220.1 Q 10.5 215.2 11.65 210.45 Q 12.8 205.7 14.25 202.25 Q 15.700001 198.8 18.75 194.25 Q 21.8 189.7 23.650002 187.3 Q 25.5 184.90001 29.5 180.15001 Q 33.5 175.4 35 173.5 Q 35.6 172.8 35.300003 171.8 Z M 50.9 217.5 L 57.4 247 Q 57.7 248.3 59.2 248.3 Q 59.600002 248.3 59.9 248.2 Q 64 246.5 66.7 241.6 Q 69.4 236.7 69.4 231.90001 Q 69.4 224.90001 65.3 220.1 Q 61.100002 215.2 52.7 215.2 Q 52 215.2 51.45 215.75 Q 50.9 216.3 50.9 217 Q 50.8 217.3 50.9 217.5 Z M 37.1 189.7 Q 35.5 191.5 32.35 194.85 Q 29.2 198.2 27.65 199.95 Q 26.1 201.7 23.85 204.90001 Q 21.6 208.1 20.5 210.8 Q 19.400002 213.5 18.55 217.40001 Q 17.7 221.3 17.7 225.7 Q 17.7 231.8 21.45 237.5 Q 25.2 243.2 31.75 246.8 Q 38.300003 250.40001 45.8 250.40001 Q 48.5 250.40001 51.8 250.1 Q 52.600002 250 53.100002 249.35 Q 53.600002 248.7 53.4 247.90001 L 46.9 218 Q 46.600002 216.6 45 216.6 Q 44.7 216.6 44.3 216.7 Q 39.7 218.40001 37.800003 221.5 Q 35.9 224.6 35.9 229.3 Q 35.9 234.8 41.9 238.8 Q 42.600002 239.3 42.600002 240.3 Q 42.600002 241.1 41.95 241.8 Q 41.300003 242.5 40.4 242.5 Q 39.9 242.5 39.5 242.3 Q 33.800003 239.3 31.050001 234.15001 Q 28.300001 229 28.300001 223.3 Q 28.300001 217.8 32.25 211.95 Q 36.2 206.1 42.1 203.90001 Q 43.600002 203.3 43.3 201.8 L 40.300003 190.5 Q 40.1 189.40001 38.9 189.2 Q 37.7 189 37.1 189.7 Z M 53.9 131.5 Q 53.100002 128.9 51.2 128.9 Q 50.600002 128.9 50.100002 129.20001 Q 43.7 133 39.95 139.9 Q 36.2 146.8 36.2 154.5 Q 36.2 159.5 38.300003 166.8 Q 38.6 167.9 39.800003 168.1 Q 40.800003 168.2 41.5 167.4 Q 41.800003 167 44.350002 163.85 Q 46.9 160.70001 47.7 159.65 Q 48.5 158.6 50.4 155.65 Q 52.3 152.70001 53.05 150.75 Q 53.8 148.8 54.5 145.9 Q 55.2 143 55.2 140.1 Q 55.2 135.9 53.9 131.5 Z " fill="black"/>
    <rect x="10.5" y="321.3" width="74" height="100" stroke="orange" stroke-width="1" fill="none"/>
    <path d="M 43.4 371.3 Q 43.4 378.59998 47.9 378.59998 Q 49.3 378.59998 51.65 377.05 Q 54 375.5 55.600002 375.5 Q 65 375.5 71.75 381.5 Q 78.5 387.5 78.5 396.3 Q 78.5 421.3 52 421.3 Q 45.7 421.3 41.25 417.2 Q 36.800003 413.09998 36.800003 407.09998 Q 36.800003 403.90002 39.050003 401.65002 Q 41.300003 399.40002 44.4 399.40002 Q 47.5 399.40002 49.75 401.65002 Q 52 403.90002 52 407.09998 Q 52 409.09998 49.55 410.90002 Q 47.100002 412.7 47.100002 414.7 Q 47.100002 416.40002 48.55 417.45 Q 50 418.5 52 418.5 Q 60.100002 418.5 63.05 412.90002 Q 66 407.3 66 396.3 Q 66 391.8 65.65 388.90002 Q 65.3 386 64.25 383.40002 Q 63.2 380.8 61.05 379.55 Q 58.9 378.3 55.600002 378.3 Q 50.4 378.3 47.5 382.65002 Q 44.600002 387 44.600002 393.2 Q 44.600002 394.59998 43.2 394.59998 Q 41.9 394.59998 41.9 393.2 Q 41.9 388.90002 40.15 383.75 Q 38.4 378.59998 35.9 375 Q 35.2 373.90002 33.800003 374.3 Q 32.6 374.59998 32.6 376 L 32.6 420.3 Q 32.6 421.3 31.6 421.3 L 29.5 421.3 Q 28.5 421.3 28.5 420.3 L 28.5 322.3 Q 28.5 321.3 29.5 321.3 L 31.6 321.3 Q 32.6 321.3 32.6 322.3 L 32.6 366.40002 Q 32.6 367.8 33.800003 368.2 Q 35.1 368.7 35.9 367.5 Q 38.4 363.90002 40.15 358.8 Q 41.9 353.7 41.9 349.40002 Q 41.9 348 43.2 348 Q 44.600002 348 44.600002 349.40002 Q 44.600002 355.59998 47.5 359.95 Q 50.4 364.3 55.600002 364.3 Q 58.9 364.3 61.05 363.05 Q 63.2 361.8 64.25 359.2 Q 65.3 356.59998 65.65 353.7 Q 66 350.8 66 346.3 Q 66 335.3 63.05 329.7 Q 60.100002 324.09998 52 324.09998 Q 50 324.09998 48.55 325.15002 Q 47.100002 326.2 47.100002 327.90002 Q 47.100002 329.90002 49.55 331.7 Q 52 333.5 52 335.5 Q 52 338.7 49.75 340.95 Q 47.5 343.2 44.4 343.2 Q 41.300003 343.2 39.050003 340.95 Q 36.800003 338.7 36.800003 335.5 Q 36.800003 329.5 41.25 325.40002 Q 45.7 321.3 52 321.3 Q 78.5 321.3 78.5 346.3 Q 78.5 355.09998 71.75 361.09998 Q 65 367.09998 55.600002 367.09998 Q 54 367.09998 51.65 365.55 Q 49.3 364 47.9 364 Q 43.4 364 43.4 371.3 Z M 23.400002 421.3 L 11.5 421.3 Q 10.5 421.3 10.5 420.3 L 10.5 322.3 Q 10.5 321.3 11.5 321.3 L 23.400002 321.3 Q 24.400002 321.3 24.400002 322.3 L 24.400002 420.3 Q 24.400002 421.3 23.400002 421.3 Z " fill="black"/>
    <rect x="84.5" y="51.300003" width="2.5" height="87.5" stroke="blue" stroke-width="1" fill="none"/>
    <rect x="84.5" y="51.300003" width="2.5" height="87.5" fill="black"/>
    <rect x="84.5" y="38.800003" width="32.5" height="25" stroke="blue" stroke-width="1" fill="none"/>
    <path d="M 84.5 54.700005 Q 84.5 48.700005 91.1 43.15 Q 97.7 37.600002 104.6 37.600002 Q 107.4 37.600002 109.95 38.300003 Q 112.5 39.000004 114.8 41.500004 Q 117.100006 44.000004 117.100006 47.9 Q 117.100006 53.4 110.4 59.200005 Q 103.7 65 97 65 Q 94.2 65 91.65 64.3 Q 89.1 63.600002 86.8 61.100002 Q 84.5 58.600002 84.5 54.700005 Z " fill="black"/>
    <rect x="84.5" y="229.3" width="2.5" height="87.5" stroke="blue" stroke-width="1" fill="none"/>
    <rect x="84.5" y="229.3" width="2.5" height="87.5" fill="black"/>
    <rect x="84.5" y="216.8" width="32.5" height="25" stroke="blue" stroke-width="1" fill="none"/>
    <path d="M 84.5 232.7 Q 84.5 226.7 91.1 221.15001 Q 97.7 215.6 104.6 215.6 Q 107.4 215.6 109.95 216.3 Q 112.5 217 114.8 219.5 Q 117.100006 222 117.100006 225.90001 Q 117.100006 231.40001 110.4 237.2 Q 103.7 243 97 243 Q 94.2 243 91.65 242.3 Q 89.1 241.6 86.8 239.1 Q 84.5 236.6 84.5 232.7 Z " fill="black"/>
    <rect x="84.5" y="371.3" width="2.5" height="87.5" stroke="blue" stroke-width="1" fill="none"/>
    <rect x="84.5" y="371.3" width="2.5" height="87.5" fill="black"/>
    <rect x="84.5" y="358.8" width="32.5" height="25" stroke="blue" stroke-width="1" fill="none"/>
    <path d="M 84.5 374.7 Q 84.5 368.7 91.1 363.15002 Q 97.7 357.59998 104.6 357.59998 Q 107.4 357.59998 109.95 358.3 Q 112.5 359 114.8 361.5 Q 117.100006 364 117.100006 367.90002 Q 117.100006 373.40002 110.4 379.2 Q 103.7 385 97 385 Q 94.2 385 91.65 384.3 Q 89.1 383.59998 86.8 381.09998 Q 84.5 378.59998 84.5 374.7 Z " fill="black"/>
    <rect x="289.5" y="46.300003" width="10" height="10" stroke="orange" stroke-width="1" fill="none"/>
    <path d="M 289.5 102.5 L 289.5 100 L 389.5 100 L 389.5 102.5 L 289.5 102.5 Z M 289.5 77.5 L 289.5 75 L 389.5 75 L 389.5 77.5 L 289.5 77.5 Z M 289.5 52.500004 L 289.5 50.000004 L 389.5 50.000004 L 389.5 52.500004 L 289.5 52.500004 Z M 289.5 27.5 L 289.5 25 L 389.5 25 L 389.5 27.5 L 289.5 27.5 Z M 289.5 2.5 L 289.5 0 L 389.5 0 L 389.5 2.5 L 289.5 2.5 Z " fill="orange"/>
    <rect x="289.5" y="224.3" width="10" height="10" stroke="orange" stroke-width="1" fill="none"/>
    <path d="M 289.5 280.5 L 289.5 278 L 389.5 278 L 389.5 280.5 L 289.5 280.5 Z M 289.5 255.5 L 289.5 253 L 389.5 253 L 389.5 255.5 L 289.5 255.5 Z M 289.5 230.5 L 289.5 228 L 389.5 228 L 389.5 230.5 L 289.5 230.5 Z M 289.5 205.5 L 289.5 203 L 389.5 203 L 389.5 205.5 L 289.5 205.5 Z M 289.5 180.5 L 289.5 178 L 389.5 178 L 389.5 180.5 L 289.5 180.5 Z " fill="orange"/>
    <rect x="289.5" y="366.3" width="10" height="10" stroke="orange" stroke-width="1" fill="none"/>
    <path d="M 289.5 422.5 L 289.5 420 L 389.5 420 L 389.5 422.5 L 289.5 422.5 Z M 289.5 397.5 L 289.5 395 L 389.5 395 L 389.5 397.5 L 289.5 397.5 Z M 289.5 372.5 L 289.5 370 L 389.5 370 L 389.5 372.5 L 289.5 372.5 Z M 289.5 347.5 L 289.5 345 L 389.5 345 L 389.5 347.5 L 289.5 347.5 Z M 289.5 322.5 L 289.5 320 L 389.5 320 L 389.5 322.5 L 289.5 322.5 Z " fill="orange"/>
    <rect x="0" y="0" width="389.5" height="459.3" stroke="black" stroke-width="1" fill="none"/>
</svg>
