<svg xmlns="http://www.w3.org/2000/svg" xmlns:xlink="http://www.w3.org/1999/xlink" viewBox="0 0 436.5 241.2857">
    <line x1="1.25" y1="50.5" x2="435.25" y2="50.5" stroke="black" stroke-width="2.5"/>
    <line x1="1.25" y1="75.5" x2="435.25" y2="75.5" stroke="black" stroke-width="2.5"/>
    <line x1="1.25" y1="100.5" x2="435.25" y2="100.5" stroke="black" stroke-width="2.5"/>
    <line x1="1.25" y1="125.5" x2="435.25" y2="125.5" stroke="black" stroke-width="2.5"/>
    <line x1="1.25" y1="150.5" x2="435.25" y2="150.5" stroke="black" stroke-width="2.5"/>
    <rect x="1.25" y="0.5" width="10" height="200" stroke="orange" stroke-width="1" fill="none"/>
    <rect x="11.25" y="28" width="25" height="70" stroke="red" stroke-width="1" fill="none"/>
    <path d="M 21.75 73.4 Q 22.45 73.4 22.900002 72.95 Q 23.35 72.5 23.35 71.9 Q 23.35 71.3 22.95 70.9 L 15.75 62.8 Q 12.75 59.4 12.75 56.5 Q 12.75 54 19.85 47.8 Q 23.55 44.5 23.55 39.5 Q 23.55 35.6 21.05 32.6 L 17.55 28.399994 Q 17.15 27.899994 17.15 27.399994 Q 17.15 25.899994 18.55 25.899994 Q 19.45 25.899994 20.05 26.599998 L 35.050003 44.4 Q 36.050003 45.6 36.050003 46.9 Q 36.050003 48 35.25 49.199997 Q 34.45 50.4 33.550003 51.25 Q 32.65 52.1 30.9 53.55 Q 29.15 55 28.45 55.7 Q 24.25 59.6 24.25 64.3 Q 24.25 67.9 28.35 72.3 L 36.75 81.4 Q 37.15 81.8 37.15 82.4 Q 37.15 83 36.7 83.45 Q 36.25 83.9 35.75 83.9 Q 35.050003 83.9 33.65 82.8 Q 29.95 80 25.75 80 Q 22.85 80 20.7 82.25 Q 18.55 84.5 18.55 87.4 Q 18.55 88.7 18.75 89.75 Q 18.95 90.8 19.5 91.9 Q 20.05 93 20.25 93.4 Q 20.45 93.8 21.35 95.05 Q 22.25 96.3 22.35 96.4 Q 22.650002 96.8 22.55 97.3 Q 22.45 97.8 22 98.05 Q 21.55 98.3 21.05 98.2 Q 20.55 98.100006 19.75 97.3 Q 16.35 93.8 13.8 89.45 Q 11.25 85.1 11.25 81.9 Q 11.25 78 14 75.7 Q 16.75 73.4 21.75 73.4 Z " fill="black"/>
    <rect x="11.25" y="138" width="32.5" height="25" stroke="red" stroke-width="1" fill="none"/>
    <path d="M 11.25 153.9 Q 11.25 147.9 17.85 142.35 Q 24.45 136.8 31.35 136.8 Q 34.15 136.8 36.7 137.5 Q 39.25 138.2 41.550003 140.7 Q 43.850002 143.2 43.850002 147.1 Q 43.850002 152.6 37.15 158.4 Q 30.45 164.2 23.75 164.2 Q 20.95 164.2 18.4 163.5 Q 15.85 162.8 13.55 160.3 Q 11.25 157.8 11.25 153.9 Z " fill="black"/>
    <rect x="43.75" y="138" width="5" height="25" stroke="red" stroke-width="1" fill="none"/>
    <rect x="43.75" y="133" width="7.5000005" height="35" stroke="red" stroke-width="1" fill="none"/>
    <rect x="43.75" y="133" width="7.5000005" height="35" fill="green"/>
    <rect x="11.25" y="150.5" width="3" height="89.285706" stroke="red" stroke-width="1" fill="none"/>
    <rect x="149.25" y="88" width="32.5" height="25" stroke="red" stroke-width="1" fill="none"/>
    <path d="M 149.25 103.9 Q 149.25 97.9 155.85 92.35 Q 162.45 86.8 169.35 86.8 Q 172.15 86.8 174.7 87.5 Q 177.25 88.2 179.55 90.7 Q 181.85 93.2 181.85 97.1 Q 181.85 102.6 175.15 108.4 Q 168.45 114.2 161.75 114.2 Q 158.95 114.2 156.4 113.5 Q 153.85 112.8 151.55 110.3 Q 149.25 107.8 149.25 103.9 Z " fill="black"/>
    <rect x="181.75" y="88" width="5" height="25" stroke="red" stroke-width="1" fill="none"/>
    <rect x="149.25" y="138" width="32.5" height="25" stroke="red" stroke-width="1" fill="none"/>
    <path d="M 149.25 153.9 Q 149.25 147.9 155.85 142.35 Q 162.45 136.8 169.35 136.8 Q 172.15 136.8 174.7 137.5 Q 177.25 138.2 179.55 140.7 Q 181.85 143.2 181.85 147.1 Q 181.85 152.6 175.15 158.4 Q 168.45 164.2 161.75 164.2 Q 158.95 164.2 156.4 163.5 Q 153.85 162.8 151.55 160.3 Q 149.25 157.8 149.25 153.9 Z " fill="black"/>
    <rect x="181.75" y="138" width="5" height="25" stroke="red" stroke-width="1" fill="none"/>
    <rect x="181.75" y="133" width="7.5000005" height="35" stroke="red" stroke-width="1" fill="none"/>
    <rect x="181.75" y="133" width="7.5000005" height="35" fill="green"/>
    <rect x="141.75" y="133" width="7.5000005" height="35" stroke="red" stroke-width="1" fill="none"/>
    <rect x="141.75" y="133" width="7.5000005" height="35" fill="lime"/>
    <rect x="178.75" y="11.214287" width="3" height="89.28571" stroke="red" stroke-width="1" fill="none"/>
    <rect x="149.25" y="150.5" width="3" height="89.285706" stroke="red" stroke-width="1" fill="none"/>
    <rect x="287.25" y="138" width="32.5" height="25" stroke="red" stroke-width="1" fill="none"/>
    <path d="M 287.25 153.9 Q 287.25 147.9 293.85 142.35 Q 300.45 136.8 307.35 136.8 Q 310.15 136.8 312.7 137.5 Q 315.25 138.2 317.55 140.7 Q 319.85 143.2 319.85 147.1 Q 319.85 152.6 313.15 158.4 Q 306.45 164.2 299.75 164.2 Q 296.95 164.2 294.4 163.5 Q 291.85 162.8 289.55 160.3 Q 287.25 157.8 287.25 153.9 Z " fill="black"/>
    <rect x="319.75" y="138" width="5" height="25" stroke="red" stroke-width="1" fill="none"/>
    <rect x="279.75" y="133" width="7.5000005" height="35" stroke="red" stroke-width="1" fill="none"/>
    <rect x="279.75" y="133" width="7.5000005" height="35" fill="lime"/>
    <rect x="316.75" y="61.214287" width="3" height="89.28571" stroke="red" stroke-width="1" fill="none"/>
    <rect x="425.25" y="0.5" width="10" height="200" stroke="orange" stroke-width="1" fill="none"/>
    <line x1="12.75" y1="154.5" x2="12.75" y2="239.7857" stroke="black" stroke-width="3"/>
    <line x1="180.25" y1="11.214287" x2="180.25" y2="96.5" stroke="black" stroke-width="3"/>
    <line x1="150.75" y1="154.5" x2="150.75" y2="239.7857" stroke="black" stroke-width="3"/>
    <line x1="318.25" y1="61.214287" x2="318.25" y2="146.5" stroke="black" stroke-width="3"/>
    <path d="M 43.75 168 L 49.043037 170.8 L 54.86763 173.2 L 61.142002 175.2 L 67.78438 176.8 L 74.71297 178 L 81.846 178.8 L 89.1017 179.2 L 96.3983 179.2 L 103.654 178.8 L 110.78704 178 L 117.71563 176.8 L 124.358 175.2 L 130.63237 173.2 L 136.45695 170.8 L 141.75 168 L 136.45697 171.5 L 130.63237 174.5 L 124.358 177 L 117.71562 179 L 110.78703 180.5 L 103.654 181.5 L 96.3983 182 L 89.1017 182 L 81.846 181.5 L 74.71296 180.5 L 67.78437 179 L 61.142 177 L 54.86763 174.5 L 49.043045 171.5 L 43.75 168 Z " stroke="black" stroke-width="2" fill="black"/>
    <path d="M 181.75 168 L 187.04303 170.8 L 192.86763 173.2 L 199.142 175.2 L 205.78438 176.8 L 212.71297 178 L 219.84601 178.8 L 227.1017 179.2 L 234.3983 179.2 L 241.65399 178.8 L 248.78705 178 L 255.71564 176.8 L 262.358 175.2 L 268.6324 173.2 L 274.45697 170.8 L 279.75 168 L 274.45697 171.5 L 268.63235 174.5 L 262.358 177 L 255.71562 179 L 248.78703 180.5 L 241.65399 181.5 L 234.3983 182 L 227.1017 182 L 219.84601 181.5 L 212.71295 180.5 L 205.78436 179 L 199.142 177 L 192.86763 174.5 L 187.04305 171.5 L 181.75 168 Z " stroke="black" stroke-width="2" fill="black"/>
    <rect x="0" y="0" width="436.5" height="241.2857" stroke="black" stroke-width="1" fill="none"/>
</svg>
