<svg xmlns="http://www.w3.org/2000/svg" xmlns:xlink="http://www.w3.org/1999/xlink" viewBox="0 0 599.5 230.2857">
    <line x1="1.25" y1="40.5" x2="598.25" y2="40.5" stroke="black" stroke-width="2.5"/>
    <line x1="1.25" y1="65.5" x2="598.25" y2="65.5" stroke="black" stroke-width="2.5"/>
    <line x1="1.25" y1="90.5" x2="598.25" y2="90.5" stroke="black" stroke-width="2.5"/>
    <line x1="1.25" y1="115.5" x2="598.25" y2="115.5" stroke="black" stroke-width="2.5"/>
    <line x1="1.25" y1="140.5" x2="598.25" y2="140.5" stroke="black" stroke-width="2.5"/>
    <rect x="1.25" y="15.5" width="10" height="150" stroke="orange" stroke-width="1" fill="none"/>
    <rect x="11.25" y="0.5" width="74" height="186" stroke="orange" stroke-width="1" fill="none"/>
    <path d="M 36.050003 59 Q 33.75 51.7 32.85 46 Q 32.050003 41.199997 32.050003 34.799995 Q 32.050003 32.6 32.15 30.400002 Q 32.550003 20.900002 36.050003 12.949997 Q 39.550003 5 46.55 0.7999954 Q 47.05 0.5 47.850002 0.5 Q 48.55 0.5 49.05 1 Q 54.65 6.5999985 57.65 15.299995 Q 60.65 24 60.65 32.9 Q 60.65 43.199997 56.25 53.1 Q 52.05 63 44.45 70.6 Q 43.850002 71.2 44.05 72.2 L 48.05 88.2 Q 48.350002 89.8 50.05 89.6 Q 51.65 89.4 53.15 89.4 Q 58.95 89.4 63.65 91.7 Q 68.350006 94 71.25 97.7 Q 74.15 101.4 75.700005 105.85 Q 77.25 110.3 77.25 115 Q 77.25 123.6 72.45 130.55 Q 67.65 137.5 60.95 139.7 Q 59.55 140.2 59.850002 141.8 Q 62.350002 153.6 62.45 161.7 Q 62.45 164.8 62.05 167.8 Q 61.25 174.7 56.05 179.9 Q 50.850002 185.1 43.65 185.1 Q 34.85 185.1 28.75 179.8 Q 22.650002 174.5 22.650002 165.9 Q 22.650002 161.5 25.75 158.3 Q 28.85 155.1 33.050003 155.1 Q 37.35 155.1 40.300003 158.15 Q 43.25 161.2 43.25 165.4 Q 43.25 169 40.85 171.7 Q 38.45 174.5 35.050003 174.8 Q 33.85 174.9 33.45 176 Q 33.050003 177.1 34.25 178 Q 37.85 180.8 43.050003 180.8 Q 48.75 180.8 52.9 176.7 Q 57.05 172.6 57.75 167.4 Q 58.25 163.8 58.25 160.2 Q 58.25 152.4 55.850002 142.9 Q 55.45 141.2 53.65 141.4 Q 49.65 141.9 46.25 141.9 Q 31.45 141.9 21.35 132.6 Q 11.25 123.3 11.25 107.3 Q 11.25 102.4 12.4 97.65 Q 13.55 92.9 15 89.45 Q 16.45 86 19.5 81.45 Q 22.55 76.899994 24.400002 74.5 Q 26.25 72.1 30.25 67.35 Q 34.25 62.6 35.75 60.7 Q 36.35 60 36.050003 59 Z M 51.65 104.7 L 58.15 134.2 Q 58.45 135.5 59.95 135.5 Q 60.350002 135.5 60.65 135.4 Q 64.75 133.7 67.45 128.8 Q 70.15 123.9 70.15 119.1 Q 70.15 112.1 66.05 107.3 Q 61.850002 102.4 53.45 102.4 Q 52.75 102.4 52.2 102.95 Q 51.65 103.5 51.65 104.2 Q 51.55 104.5 51.65 104.7 Z M 37.85 76.899994 Q 36.25 78.7 33.1 82.05 Q 29.95 85.4 28.4 87.15 Q 26.85 88.9 24.6 92.1 Q 22.35 95.3 21.25 98 Q 20.150002 100.7 19.3 104.6 Q 18.45 108.5 18.45 112.9 Q 18.45 119 22.2 124.7 Q 25.95 130.4 32.5 134 Q 39.050003 137.6 46.55 137.6 Q 49.25 137.6 52.55 137.3 Q 53.350002 137.2 53.850002 136.55 Q 54.350002 135.9 54.15 135.1 L 47.65 105.2 Q 47.350002 103.8 45.75 103.8 Q 45.45 103.8 45.05 103.9 Q 40.45 105.6 38.550003 108.7 Q 36.65 111.8 36.65 116.5 Q 36.65 122 42.65 126 Q 43.350002 126.5 43.350002 127.5 Q 43.350002 128.3 42.7 129 Q 42.050003 129.7 41.15 129.7 Q 40.65 129.7 40.25 129.5 Q 34.550003 126.5 31.800001 121.35 Q 29.050001 116.2 29.050001 110.5 Q 29.050001 105 33 99.15 Q 36.95 93.3 42.85 91.1 Q 44.350002 90.5 44.05 89 L 41.050003 77.7 Q 40.85 76.6 39.65 76.399994 Q 38.45 76.2 37.85 76.899994 Z M 54.65 18.699997 Q 53.850002 16.099998 51.95 16.099998 Q 51.350002 16.099998 50.850002 16.400002 Q 44.45 20.199997 40.7 27.099998 Q 36.95 34 36.95 41.699997 Q 36.95 46.699997 39.050003 54 Q 39.35 55.1 40.550003 55.3 Q 41.550003 55.399998 42.25 54.6 Q 42.550003 54.2 45.100002 51.049995 Q 47.65 47.9 48.45 46.85 Q 49.25 45.799995 51.15 42.85 Q 53.05 39.9 53.8 37.949997 Q 54.55 36 55.25 33.1 Q 55.95 30.199997 55.95 27.299995 Q 55.95 23.099998 54.65 18.699997 Z " fill="black"/>
    <rect x="115.25" y="103" width="32.5" height="25" stroke="red" stroke-width="1" fill="none"/>
    <path d="M 115.25 118.9 Q 115.25 112.9 121.85 107.35 Q 128.45 101.8 135.35 101.8 Q 138.15 101.8 140.7 102.5 Q 143.25 103.2 145.55 105.7 Q 147.85 108.2 147.85 112.1 Q 147.85 117.6 141.15 123.4 Q 134.45 129.2 127.75 129.2 Q 124.95 129.2 122.4 128.5 Q 119.85 127.8 117.55 125.3 Q 115.25 122.8 115.25 118.9 Z " fill="black"/>
    <rect x="147.75" y="103" width="5" height="25" stroke="red" stroke-width="1" fill="none"/>
    <rect x="140.25" y="115.5" width="32.5" height="25" stroke="red" stroke-width="1" fill="none"/>
    <path d="M 140.25 131.4 Q 140.25 125.4 146.85 119.85 Q 153.45 114.3 160.35 114.3 Q 163.15 114.3 165.7 115 Q 168.25 115.7 170.55 118.2 Q 172.85 120.7 172.85 124.6 Q 172.85 130.1 166.15 135.9 Q 159.45 141.7 152.75 141.7 Q 149.95 141.7 147.4 141 Q 144.85 140.3 142.55 137.8 Q 140.25 135.3 140.25 131.4 Z " fill="black"/>
    <rect x="172.75" y="115.5" width="5" height="25" stroke="red" stroke-width="1" fill="none"/>
    <rect x="85.25" y="90.5" width="30.000002" height="75" stroke="red" stroke-width="1" fill="none"/>
    <path d="M 106.85 118.4 L 106.85 130.6 Q 106.85 131.4 107.35 131.9 Q 107.85 132.4 108.65 132.4 Q 108.95 132.4 109.25 132.3 L 110.05 132 Q 110.35 131.9 110.75 131.9 Q 111.55 131.9 112.15 132.5 Q 112.75 133.1 112.75 133.9 L 112.75 139.9 Q 112.75 141.2 111.45 141.7 L 108.05 143 Q 106.85 143.5 106.85 144.6 L 106.85 159.2 Q 106.85 160 106.3 160.55 Q 105.75 161.1 105.05 161.1 Q 104.25 161.1 103.7 160.55 Q 103.15 160 103.15 159.2 L 103.15 147.3 Q 103.15 146.5 102.6 146 Q 102.05 145.5 101.35 145.5 Q 100.95 145.5 100.65 145.6 L 96.05 147.4 Q 94.85 147.8 94.85 149 L 94.85 163.6 Q 94.85 164.4 94.25 164.95 Q 93.65 165.5 92.95 165.5 Q 92.25 165.5 91.7 164.95 Q 91.15 164.4 91.15 163.6 L 91.15 151.7 Q 91.15 150.9 90.6 150.4 Q 90.05 149.9 89.35 149.9 Q 89.05 149.9 88.75 150 L 87.95 150.3 Q 87.75 150.4 87.25 150.4 Q 86.45 150.4 85.85 149.8 Q 85.25 149.2 85.25 148.4 L 85.25 142.4 Q 85.25 141 86.55 140.5 L 89.95 139.3 Q 91.15 139 91.15 137.6 L 91.15 125.4 Q 91.15 124.6 90.6 124.1 Q 90.05 123.6 89.35 123.6 Q 89.05 123.6 88.85 123.7 L 87.95 124 Q 87.75 124.1 87.25 124.1 Q 86.45 124.1 85.85 123.5 Q 85.25 122.9 85.25 122.1 L 85.25 116.1 Q 85.25 114.8 86.55 114.3 L 90.05 113 Q 91.15 112.5 91.15 111.4 L 91.15 96.8 Q 91.15 96 91.7 95.45 Q 92.25 94.899994 92.95 94.899994 Q 93.65 94.899994 94.25 95.45 Q 94.85 96 94.85 96.8 L 94.85 108.7 Q 94.85 109.5 95.4 110 Q 95.95 110.5 96.75 110.5 Q 97.05 110.5 97.35 110.4 L 101.95 108.6 Q 103.15 108.1 103.15 106.9 L 103.15 92.399994 Q 103.15 91.6 103.7 91.05 Q 104.25 90.5 105.05 90.5 Q 105.75 90.5 106.3 91.05 Q 106.85 91.6 106.85 92.399994 L 106.85 104.4 Q 106.85 105.1 107.35 105.6 Q 107.85 106.1 108.55 106.1 Q 108.85 106.1 109.25 106 L 110.05 105.7 Q 110.25 105.6 110.75 105.6 Q 111.55 105.6 112.15 106.2 Q 112.75 106.8 112.75 107.6 L 112.75 113.6 Q 112.75 115 111.45 115.5 L 108.05 116.7 Q 106.85 117 106.85 118.4 Z M 103.15 133.2 L 103.15 121.1 Q 103.15 120.4 102.6 119.85 Q 102.05 119.3 101.35 119.3 Q 101.05 119.3 100.75 119.4 L 96.05 121.1 Q 94.85 121.6 94.85 122.8 L 94.85 134.9 Q 94.85 135.7 95.35 136.2 Q 95.85 136.7 96.65 136.7 Q 96.95 136.7 97.25 136.6 L 101.95 134.9 Q 103.15 134.4 103.15 133.2 Z " fill="black"/>
    <rect x="144.75" y="26.214287" width="3" height="89.28571" stroke="red" stroke-width="1" fill="none"/>
    <rect x="140.25" y="128" width="3" height="89.285706" stroke="red" stroke-width="1" fill="none"/>
    <rect x="115.25" y="204.7857" width="50" height="25" stroke="red" stroke-width="1" fill="none"/>
    <rect x="203.25" y="115.5" width="32.5" height="25" stroke="red" stroke-width="1" fill="none"/>
    <path d="M 203.25 131.4 Q 203.25 125.4 209.85 119.85 Q 216.45 114.3 223.35 114.3 Q 226.15 114.3 228.7 115 Q 231.25 115.7 233.55 118.2 Q 235.85 120.7 235.85 124.6 Q 235.85 130.1 229.15 135.9 Q 222.45 141.7 215.75 141.7 Q 212.95 141.7 210.4 141 Q 207.85 140.3 205.55 137.8 Q 203.25 135.3 203.25 131.4 Z " fill="black"/>
    <rect x="235.75" y="115.5" width="5" height="25" stroke="red" stroke-width="1" fill="none"/>
    <rect x="178.25" y="90.5" width="25" height="75" stroke="red" stroke-width="1" fill="none"/>
    <path d="M 185.15 110 L 195.95 107.8 L 196.25 107.8 Q 198.05 107.8 198.05 109.5 L 198.75 165.5 Q 197.35 166.2 196.25 166.2 Q 195.15 166.2 193.75 165.5 L 194.05 147.8 Q 194.05 147.1 193.55 146.55 Q 193.05 146 192.25 146 Q 192.05 146 191.95 146 L 181.15 148.3 L 180.85 148.3 Q 179.05 148.3 179.05 146.6 L 178.25 90.5 Q 179.65 89.8 180.85 89.8 Q 181.95 89.8 183.35 90.5 L 183.05 108.1 Q 183.05 108.9 183.55 109.45 Q 184.05 110 184.85 110 Q 184.95 110 185.15 110 Z M 184.75 138 L 192.65 136.2 Q 194.15 135.9 194.15 134.4 L 194.45 119.9 Q 194.45 119.1 193.85 118.5 Q 193.25 117.9 192.45 118.1 L 184.45 119.8 Q 182.95 120.1 182.95 121.5 L 182.65 136.3 Q 182.65 137.1 183.3 137.65 Q 183.95 138.2 184.75 138 Z " fill="black"/>
    <rect x="284.25" y="115.5" width="32.5" height="25" stroke="red" stroke-width="1" fill="none"/>
    <path d="M 284.25 131.4 Q 284.25 125.4 290.85 119.85 Q 297.45 114.3 304.35 114.3 Q 307.15 114.3 309.7 115 Q 312.25 115.7 314.55 118.2 Q 316.85 120.7 316.85 124.6 Q 316.85 130.1 310.15 135.9 Q 303.45 141.7 296.75 141.7 Q 293.95 141.7 291.4 141 Q 288.85 140.3 286.55 137.8 Q 284.25 135.3 284.25 131.4 Z " fill="black"/>
    <rect x="316.75" y="115.5" width="5" height="25" stroke="red" stroke-width="1" fill="none"/>
    <rect x="316.75" y="110.5" width="7.5000005" height="35" stroke="red" stroke-width="1" fill="none"/>
    <rect x="365.25" y="115.5" width="32.5" height="25" stroke="red" stroke-width="1" fill="none"/>
    <path d="M 365.25 131.4 Q 365.25 125.4 371.85 119.85 Q 378.45 114.3 385.35 114.3 Q 388.15 114.3 390.7 115 Q 393.25 115.7 395.55 118.2 Q 397.85 120.7 397.85 124.6 Q 397.85 130.1 391.15 135.9 Q 384.45 141.7 377.75 141.7 Q 374.95 141.7 372.4 141 Q 369.85 140.3 367.55 137.8 Q 365.25 135.3 365.25 131.4 Z " fill="black"/>
    <rect x="397.75" y="115.5" width="5" height="25" stroke="red" stroke-width="1" fill="none"/>
    <rect x="357.75" y="110.5" width="7.5000005" height="35" stroke="red" stroke-width="1" fill="none"/>
    <rect x="365.25" y="128" width="3" height="89.285706" stroke="red" stroke-width="1" fill="none"/>
    <rect x="365.25" y="204.7857" width="32.5" height="25" stroke="red" stroke-width="1" fill="none"/>
    <rect x="446.25" y="78" width="32.5" height="25" stroke="red" stroke-width="1" fill="none"/>
    <path d="M 446.25 93.9 Q 446.25 87.9 452.85 82.35 Q 459.45 76.8 466.35 76.8 Q 469.15 76.8 471.7 77.5 Q 474.25 78.2 476.55 80.7 Q 478.85 83.2 478.85 87.1 Q 478.85 92.6 472.15 98.4 Q 465.45 104.2 458.75 104.2 Q 455.95 104.2 453.4 103.5 Q 450.85 102.8 448.55 100.3 Q 446.25 97.8 446.25 93.9 Z " fill="black"/>
    <rect x="478.75" y="78" width="5" height="25" stroke="red" stroke-width="1" fill="none"/>
    <rect x="446.25" y="90.5" width="3" height="89.28571" stroke="red" stroke-width="1" fill="none"/>
    <rect x="588.25" y="15.5" width="10" height="150" stroke="orange" stroke-width="1" fill="none"/>
    <line x1="146.25" y1="26.214287" x2="146.25" y2="111.5" stroke="black" stroke-width="3"/>
    <line x1="141.75" y1="132" x2="141.75" y2="217.2857" stroke="black" stroke-width="3"/>
    <line x1="366.75" y1="132" x2="366.75" y2="217.2857" stroke="black" stroke-width="3"/>
    <line x1="204.75" y1="132" x2="204.75" y2="217.2857" stroke="black" stroke-width="3"/>
    <line x1="285.75" y1="132" x2="285.75" y2="217.2857" stroke="black" stroke-width="3"/>
    <path d="M 140.25 217.2857 L 368.25 217.2857 L 368.25 202.2857 L 140.25 202.2857 " fill="black"/>
    <path d="M 141.75 192.2857 L 366.75 192.2857 L 366.75 177.2857 L 141.75 177.2857 " fill="black"/>
    <line x1="447.75" y1="94.5" x2="447.75" y2="179.7857" stroke="black" stroke-width="3"/>
    <path d="M 316.75 145.5 L 319.48334 147.41333 L 322.21667 149.05333 L 324.95 150.42 L 327.68332 151.51334 L 330.41666 152.33333 L 333.15 152.88 L 335.88333 153.15334 L 338.61667 153.15334 L 341.35 152.88 L 344.08334 152.33333 L 346.81668 151.51334 L 349.55 150.42 L 352.28333 149.05333 L 355.01666 147.41333 L 357.75 145.5 L 355.01666 148.11334 L 352.28333 150.35333 L 349.55 152.22 L 346.81668 153.71333 L 344.08334 154.83334 L 341.35 155.58 L 338.61667 155.95334 L 335.88333 155.95334 L 333.15 155.58 L 330.41666 154.83333 L 327.68332 153.71333 L 324.95 152.22 L 322.21667 150.35333 L 319.48334 148.11334 L 316.75 145.5 Z " stroke="black" stroke-width="2" fill="black"/>
    <rect x="0" y="0" width="599.5" height="230.2857" stroke="black" stroke-width="1" fill="none"/>
</svg>
